<svg width="24" height="24" xmlns="http://www.w3.org/2000/svg"><g fill="none" fill-rule="evenodd"><path d="M0 0h24v24H0z"/><path d="M8.5 6.75v10.58c0 2.09 1.53 3.95 3.61 4.15 2.39.23 4.39-1.64 4.39-3.98V5.14c0-1.31-.94-2.5-2.24-2.63A2.5 2.5 0 0011.5 5v10.5c0 .55.45 1 1 1s1-.45 1-1V6.75c0-.41.34-.75.75-.75s.75.34.75.75v8.61c0 1.31-.94 2.5-2.24 2.63A2.5 2.5 0 0110 15.5V5.17c0-2.09 1.53-3.95 3.61-4.15A3.998 3.998 0 0118 5v12.27c0 2.87-2.1 5.44-4.96 5.71C9.75 23.28 7 20.72 7 17.5V6.75c0-.41.34-.75.75-.75s.75.34.75.75z" fill="#00217D" fill-rule="nonzero"/></g></svg>