<svg width="20" height="30" xmlns="http://www.w3.org/2000/svg"><g fill="none" fill-rule="evenodd"><path d="M20 0H0v30h20z"/><path d="M4.784 8.624v12.191c0 2.408 1.82 4.552 4.295 4.782 2.843.265 5.222-1.89 5.222-4.586V6.77c0-1.51-1.118-2.88-2.665-3.03-1.784-.173-3.283 1.175-3.283 2.869v12.099c0 .633.535 1.152 1.19 1.152.654 0 1.19-.519 1.19-1.152V8.624c0-.472.404-.864.891-.864.488 0 .893.392.893.864v9.921c0 1.51-1.119 2.88-2.665 3.03-1.784.174-3.283-1.175-3.283-2.868V6.804c0-2.408 1.82-4.551 4.294-4.782 2.831-.265 5.222 1.89 5.222 4.586v14.138c0 3.307-2.498 6.268-5.9 6.58C6.271 27.67 3 24.72 3 21.01V8.624c0-.472.404-.864.892-.864s.892.392.892.864z" fill="#0051BC" fill-rule="nonzero"/></g></svg>