<svg width="112" height="45" xmlns="http://www.w3.org/2000/svg"><defs><linearGradient x1="7.265%" y1="50%" x2="100%" y2="50%" id="a"><stop stop-color="#F4F4F4" offset="0%"/><stop stop-color="#EDEDED" offset="60%"/><stop stop-color="#FFF" offset="100%"/></linearGradient></defs><g fill="none" fill-rule="evenodd"><g fill-rule="nonzero"><path d="M42.102 19.051c0-5.222 3.415-9.371 8.686-9.371 3.118 0 4.9 1.222 6.347 3.037L55.8 13.902c-1.3-1.777-2.933-2.48-4.9-2.48-4.196 0-6.757 3.333-6.757 7.63 0 4.296 2.562 7.667 6.756 7.667 1.968 0 3.6-.74 4.9-2.518l1.335 1.185c-1.448 1.852-3.23 3.074-6.347 3.074-5.27 0-8.685-4.186-8.685-9.409zM61.442 24.57V3.31h1.93v20.964c0 1.446.594 2.445 1.856 2.445.853 0 1.596-.407 2.004-.852l.742 1.482c-.705.666-1.559 1.111-3.044 1.111-2.337 0-3.488-1.445-3.488-3.89zM70.424 5.828c0-.815.705-1.445 1.485-1.445.816 0 1.484.63 1.484 1.445A1.487 1.487 0 0171.91 7.31c-.78 0-1.485-.667-1.485-1.482zm.52 22.187v-17.89h1.93v17.89h-1.93zM80.814 25.126v9.704h-1.93V10.125h1.93v2.815c1.262-1.815 3.564-3.26 6.236-3.26 4.79 0 8.019 3.63 8.019 9.372 0 5.704-3.23 9.409-8.019 9.409-2.523-.001-4.787-1.298-6.236-3.335zM92.99 19.05c0-4.333-2.263-7.63-6.273-7.63-2.486 0-4.862 1.482-5.903 3.185v8.852c1.04 1.704 3.415 3.26 5.902 3.26 4.01 0 6.274-3.332 6.274-7.667zM98.374 25.607l1.15-1.407c1.151 1.445 3.267 2.63 5.791 2.63 3.007 0 4.789-1.556 4.789-3.63 0-4.89-11.322-2.111-11.322-8.556 0-2.741 2.338-4.964 6.385-4.964 3.08 0 5.122 1.186 6.422 2.63l-1.077 1.37c-1.04-1.408-2.97-2.371-5.345-2.371-2.784 0-4.455 1.407-4.455 3.259 0 4.482 11.285 1.74 11.285 8.63 0 2.89-2.227 5.26-6.719 5.26-2.896.002-5.123-.85-6.904-2.85zM30.706 10.066c-5.292 0-9.581 4.28-9.581 9.56s4.29 9.56 9.58 9.56c5.292 0 9.581-4.28 9.581-9.56s-4.289-9.56-9.58-9.56zm-.015 15.13a5.549 5.549 0 01-5.554-5.542 5.548 5.548 0 015.554-5.543 5.549 5.549 0 015.555 5.543 5.548 5.548 0 01-5.554 5.543z" fill="#FFF"/><path d="M32.859 19.3c-.15-.163-2.014-1.794-2.66-2.08-.297-.132-.532-.006-.642.31-.04.132-.067.267-.082.403-.055.43-.076 1.064-.074 1.693-.002.628.02 1.263.074 1.692.015.136.042.271.082.403.11.316.345.443.643.31.645-.285 2.509-1.916 2.659-2.08.086-.094.154-.197.148-.325.007-.128-.062-.232-.148-.325zM10.205 10.12a9.551 9.551 0 00-5.54 1.76V1.061a.45.45 0 00-.448-.448H1.074a.45.45 0 00-.45.448v18.619c0 5.28 4.29 9.56 9.581 9.56 5.292 0 9.581-4.28 9.581-9.56s-4.289-9.561-9.58-9.561zm-.014 15.13a5.548 5.548 0 01-5.554-5.542l.029-.569a5.55 5.55 0 015.525-4.973 5.549 5.549 0 015.555 5.543 5.548 5.548 0 01-5.555 5.542z" fill="#FFF"/><path d="M9.661 9.519c-2.064 0-4.026.6-5.607 1.76l.023 7.17c.404-2.865 2.735-4.883 5.57-4.884" fill="url(#a)" transform="translate(.606 .6)"/></g><path d="M43.83 38.837v-.943h1.148v-.53c0-.703.182-1.252.545-1.648.364-.396.85-.594 1.456-.594.443 0 .798.075 1.064.224l-.273.817a1.24 1.24 0 00-.616-.16c-.36 0-.633.116-.822.348-.19.233-.284.57-.284 1.013v.53h1.407v.943h-1.407V44.8h-1.07v-5.963H43.83zm4.216 4.33a4.026 4.026 0 01-.413-1.83c0-.67.138-1.278.413-1.823.275-.544.675-.98 1.2-1.305.525-.326 1.13-.49 1.816-.49.686 0 1.29.164 1.816.49.525.325.923.76 1.196 1.305a4.01 4.01 0 01.41 1.823c0 .67-.137 1.28-.41 1.83a3.21 3.21 0 01-1.196 1.315c-.525.328-1.13.493-1.816.493-.686 0-1.291-.165-1.816-.493a3.234 3.234 0 01-1.2-1.316zm.72-1.83c0 .745.206 1.376.616 1.895.41.52.97.779 1.68.779.476 0 .89-.126 1.242-.377s.615-.576.787-.974c.173-.398.26-.84.26-1.323 0-.48-.087-.917-.26-1.313a2.303 2.303 0 00-.787-.97 2.082 2.082 0 00-1.242-.378c-.476 0-.891.126-1.246.377a2.29 2.29 0 00-.79.975 3.255 3.255 0 00-.26 1.309zM55.53 44.8v-6.906h1.07v1.104a3.642 3.642 0 011.043-.919 2.48 2.48 0 011.266-.345v1.103a3.894 3.894 0 00-.412-.028c-.332 0-.69.113-1.078.339-.387.225-.66.48-.819.764V44.8h-1.07zm6.087-5.963v-.943h1.148v-1.892h1.091v1.892h1.407v.943h-1.407v4.287c0 .27.059.485.175.646.117.16.287.241.511.241.317 0 .562-.1.735-.3l.315.817c-.313.298-.737.447-1.274.447-.508 0-.894-.141-1.158-.423-.264-.282-.395-.68-.395-1.197v-4.518h-1.148zm4.04 2.5c0-.661.147-1.268.438-1.82.292-.55.699-.988 1.221-1.312a3.269 3.269 0 011.757-.485c.68 0 1.276.165 1.784.496.509.33.892.773 1.151 1.33.26.556.389 1.183.389 1.881v.273h-5.592c.042.68.286 1.247.732 1.704.445.456 1.027.684 1.746.684.405 0 .796-.077 1.172-.23.375-.154.703-.373.983-.657l.51.698c-.732.717-1.648 1.076-2.75 1.076-1.035 0-1.884-.338-2.547-1.013-.662-.675-.993-1.55-.993-2.625zm1.134-.44h4.542a2.57 2.57 0 00-.546-1.522 1.938 1.938 0 00-.714-.555 2.334 2.334 0 00-1.014-.213c-.355 0-.677.07-.966.21-.29.139-.524.321-.703.547-.18.226-.321.47-.424.733a2.55 2.55 0 00-.175.8zm6.232.454c0-1.094.286-1.973.86-2.636.574-.664 1.316-.995 2.226-.995.461 0 .894.107 1.298.321.403.214.747.512 1.032.894v-1.04h1.077V44.8H78.44v-1.026c-.27.363-.609.654-1.015.872a2.73 2.73 0 01-1.315.329c-.915 0-1.658-.327-2.23-.981-.57-.654-.856-1.535-.856-2.643zm1.721-1.92c-.401.498-.602 1.138-.602 1.92s.2 1.42.598 1.916c.4.496.944.744 1.634.744.416 0 .816-.106 1.2-.318.385-.212.673-.471.865-.778v-3.121c-.192-.312-.48-.576-.868-.793a2.423 2.423 0 00-1.197-.325c-.685 0-1.229.252-1.63.755zm5.811 1.906c0-.68.144-1.293.43-1.84a3.26 3.26 0 011.222-1.299c.527-.319 1.129-.478 1.805-.478 1.068 0 1.913.4 2.533 1.2l-.714.643c-.433-.591-1.021-.887-1.763-.887-.723 0-1.303.25-1.739.748-.436.498-.654 1.135-.654 1.913 0 .777.22 1.417.658 1.92.438.503 1.017.754 1.735.754.723 0 1.311-.3 1.763-.9l.714.663c-.62.8-1.465 1.2-2.533 1.2-1.017 0-1.847-.346-2.491-1.04-.644-.693-.966-1.56-.966-2.597zm6.82 3.463v-9.538h1.07v3.63c.261-.32.614-.596 1.06-.827.445-.23.915-.345 1.41-.345 1.47 0 2.204.735 2.204 2.206V44.8h-1.077v-4.546c0-.581-.133-.99-.4-1.225-.265-.235-.652-.353-1.16-.353a2.33 2.33 0 00-1.155.315c-.374.21-.668.463-.882.76V44.8h-1.07zm6.783-3.463c0-.661.146-1.268.437-1.82.292-.55.7-.988 1.222-1.312a3.269 3.269 0 011.756-.485c.681 0 1.276.165 1.784.496.509.33.893.773 1.151 1.33.26.556.389 1.183.389 1.881v.273h-5.591c.042.68.285 1.247.731 1.704.446.456 1.027.684 1.746.684.406 0 .796-.077 1.172-.23.376-.154.703-.373.983-.657l.511.698c-.732.717-1.65 1.076-2.75 1.076-1.036 0-1.885-.338-2.547-1.013-.663-.675-.994-1.55-.994-2.625zm1.134-.44h4.541a2.57 2.57 0 00-.546-1.522 1.938 1.938 0 00-.713-.555 2.334 2.334 0 00-1.015-.213c-.355 0-.676.07-.966.21-.289.139-.523.321-.703.547-.18.226-.32.47-.423.733a2.55 2.55 0 00-.175.8zm6.637 3.903v-6.906h1.07v1.104a3.642 3.642 0 011.043-.919 2.48 2.48 0 011.267-.345v1.103a3.894 3.894 0 00-.413-.028c-.331 0-.69.113-1.078.339-.387.225-.66.48-.819.764V44.8h-1.07zm3.432-.915l.539-.775c.247.28.576.515.986.705.41.191.842.287 1.295.287.518 0 .922-.11 1.214-.328.292-.22.437-.505.437-.86a.757.757 0 00-.238-.565 1.59 1.59 0 00-.615-.356 9.158 9.158 0 00-.833-.23c-.303-.07-.608-.152-.913-.245a4.612 4.612 0 01-.837-.342 1.64 1.64 0 01-.615-.576 1.622 1.622 0 01-.238-.89c0-.568.228-1.042.686-1.421.457-.38 1.084-.57 1.882-.57 1.054 0 1.908.336 2.561 1.006l-.497.74a2.308 2.308 0 00-.864-.631 2.924 2.924 0 00-1.2-.241c-.462 0-.833.103-1.113.31-.28.207-.42.467-.42.779 0 .2.08.369.238.506.159.137.363.244.613.321.25.077.527.15.832.217.306.067.611.15.917.248.306.097.583.217.833.36.25.141.453.345.612.61.159.266.238.58.238.943 0 .605-.237 1.104-.71 1.498-.474.393-1.14.59-1.998.59-1.162 0-2.092-.364-2.792-1.09z" fill="#FFF"/></g></svg>