<?xml version="1.0" encoding="UTF-8"?>
<svg width="112px" height="45px" viewBox="0 0 112 45" version="1.1" xmlns="http://www.w3.org/2000/svg" xmlns:xlink="http://www.w3.org/1999/xlink">
    <!-- Generator: sketchtool 55.2 (78181) - https://sketchapp.com -->
    <title>Boclips for Teachers logo</title>
    <desc>Created with sketchtool.</desc>
    <defs>
        <linearGradient x1="7.26509713%" y1="50%" x2="100%" y2="50%" id="linearGradient-1">
            <stop stop-color="#F4F4F4" offset="0%"></stop>
            <stop stop-color="#EDEDED" offset="60%"></stop>
            <stop stop-color="#FFFFFF" offset="100%"></stop>
        </linearGradient>
    </defs>
    <g id="mobile" stroke="none" stroke-width="1" fill="none" fill-rule="evenodd">
        <g id="mobile---register" transform="translate(-14.000000, -14.000000)">
            <g id="Navigation-/-_mobile-/-home-header">
                <g id="Identity-/-teachers-logo-white" transform="translate(12.000000, 12.000000)">
                    <g id="logo" transform="translate(2.605665, 2.600000)">
                        <g id="boclips" fill-rule="nonzero">
                            <path d="M41.4959568,18.4513068 C41.4959568,13.228702 44.9110476,9.07965899 50.1821465,9.07965899 C53.3003123,9.07965899 55.082089,10.302038 56.529825,12.1169762 L55.1945675,13.3023202 C53.8941624,11.5248687 52.2608482,10.8214305 50.2934934,10.8214305 C46.0987479,10.8214305 43.5375429,14.1550273 43.5375429,18.4517584 C43.5375429,22.7484896 46.0989742,26.1191213 50.2934934,26.1191213 C52.2608482,26.1191213 53.8941624,25.3784224 55.1934359,23.6005192 L56.5286934,24.7858632 C55.0802785,26.6376105 53.2991807,27.8602154 50.1810149,27.8602154 C44.9110476,27.8595379 41.4959568,23.6739116 41.4959568,18.4513068 Z" id="Shape" fill="#FFFFFF"></path>
                            <path d="M60.8359172,23.9701913 L60.8359172,2.70987396 L62.7661565,2.70987396 L62.7661565,23.6743634 C62.7661565,25.1196295 63.3600066,26.1188956 64.6219381,26.1188956 C65.475824,26.1188956 66.2181367,25.7124145 66.6264087,25.266866 L67.3687214,26.7487155 C66.6635243,27.4153446 65.8096384,27.8599897 64.3247868,27.8599897 C61.9876334,27.8595381 60.8359172,26.4149494 60.8359172,23.9701913 Z" id="Shape" fill="#FFFFFF"></path>
                            <path d="M69.8181264,5.22802448 C69.8181264,4.4132557 70.5233233,3.78275836 71.3029779,3.78275836 C72.1195218,3.78275836 72.7878294,4.41235241 72.7878294,5.22802448 C72.7857151,6.04542712 72.1221614,6.70753833 71.3029779,6.70964808 C70.5242286,6.70964808 69.8181264,6.04301908 69.8181264,5.22802448 Z M70.3386505,27.4148923 L70.3386505,9.52475584 L72.2688897,9.52475584 L72.2688897,27.4148923 L70.3386505,27.4148923 Z" id="Shape" fill="#FFFFFF"></path>
                            <path d="M80.2084657,24.5259414 L80.2084657,34.2302267 L78.2782265,34.2302267 L78.2782265,9.52520717 L80.2084657,9.52520717 L80.2084657,12.3403148 C81.4706234,10.5253766 83.7720189,9.0807878 86.444797,9.0807878 C91.2333924,9.0807878 94.4629049,12.7106642 94.4629049,18.452436 C94.4629049,24.1564953 91.2333924,27.8606674 86.444797,27.8606674 C83.921613,27.8595383 81.6568805,26.5630893 80.2084657,24.5259414 Z M92.3842042,18.4513063 C92.3842042,14.1184436 90.1210558,10.8214303 86.1116621,10.8214303 C83.6258199,10.8214303 81.249514,12.3026022 80.2084658,14.0055322 L80.2084658,22.8577872 C81.2479298,24.5616204 83.6235567,26.1173143 86.1107568,26.1173143 C90.1210558,26.1186689 92.3842042,22.7855239 92.3842042,18.4513063 L92.3842042,18.4513063 Z" id="Shape" fill="#FFFFFF"></path>
                            <path d="M97.7680049,25.0073957 L98.9188158,23.5998419 C100.069627,25.0451081 102.185444,26.2297747 104.709533,26.2297747 C107.716352,26.2297747 109.498128,24.6740812 109.498128,22.5998984 C109.498128,17.710608 98.1762768,20.4886806 98.1762768,14.0436967 C98.1762768,11.3026591 100.514788,9.08033652 104.561071,9.08033652 C107.642121,9.08033652 109.683707,10.2656806 110.98298,11.7102693 L109.906627,13.079659 C108.867163,11.6721053 106.936924,10.7085192 104.561297,10.7085192 C101.777625,10.7085192 100.106742,12.116073 100.106742,13.9680461 C100.106742,18.449952 111.391478,15.7089144 111.391478,22.5983176 C111.391478,25.487495 109.164314,27.8579596 104.672644,27.8579596 C101.776267,27.8595382 99.5493289,27.0084119 97.7680049,25.0073957 Z" id="Shape" fill="#FFFFFF"></path>
                            <path d="M30.0998726,9.46604156 C24.8086319,9.46604156 20.5190606,13.7460618 20.5190606,19.0257997 C20.5190606,24.3055376 24.8086319,28.5855578 30.0998726,28.5855578 C35.3911133,28.5855578 39.6804583,24.3055376 39.6804583,19.0257997 C39.6804583,13.7460618 35.3917923,9.46604156 30.0998726,9.46604156 Z M30.0856148,24.596172 C27.0181435,24.596172 24.5311698,22.1146048 24.5311698,19.0535761 C24.5311698,15.9925475 27.0181435,13.5112061 30.0856148,13.5112061 C33.153086,13.5112061 35.6400597,15.9927733 35.6400597,19.0535761 C35.6400597,22.114379 33.1551228,24.5970753 30.0862937,24.5970753 L30.0856148,24.596172 Z" id="Shape" fill="#FFFFFF"></path>
                            <path d="M32.2532576,18.7008412 C32.1029845,18.536668 30.2390555,16.9055496 29.5940583,16.6196579 C29.2964543,16.4877773 29.0617658,16.6137865 28.9510978,16.9308418 C28.9115183,17.0622764 28.884095,17.1970542 28.8691718,17.3334839 C28.8144037,17.7625473 28.7929037,18.3973353 28.7953932,19.0258002 C28.7929037,19.6540394 28.8144037,20.2890532 28.8691718,20.7181166 C28.8840822,20.8544742 28.9115059,20.9891782 28.9510978,21.1205329 C29.0617658,21.4366849 29.2964543,21.5638231 29.5940583,21.4319426 C30.2390555,21.1460509 32.1029845,19.5149325 32.2532576,19.3507593 C32.3390309,19.2572686 32.4071517,19.1538418 32.4012675,19.0258002 C32.4082832,18.8977587 32.3390309,18.7943318 32.2532576,18.7008412 Z" id="Shape" fill="#FFFFFF"></path>
                            <path d="M9.59982256,9.52001344 C7.61476873,9.51684448 5.67819313,10.1318101 4.06008809,11.2791734 L4.06008809,0.462259352 C4.05934247,0.215126661 3.85875058,0.0149708457 3.61107947,0.0142268386 L0.468245388,0.0142268386 C0.220574277,0.0149708457 0.0199823884,0.215126661 0.0192367603,0.462259352 L0.0192367603,18.9239539 C0.0192367603,18.9307286 0.0192367603,18.9372775 0.0192367603,18.9440522 C0.0192367603,18.9892167 0.0192367603,19.0343813 0.0192367603,19.080675 C0.0192367603,24.360413 4.30858178,28.6404332 9.59982256,28.6404332 C14.8910633,28.6404332 19.1804084,24.360413 19.1804084,19.080675 C19.1804084,13.800937 14.891516,9.52001344 9.59982256,9.52001344 Z M9.58579095,24.6501433 C6.51809339,24.6501433 4.03134601,22.1685762 4.03134601,19.1077735 C4.03134601,19.0976115 4.06008799,18.5393774 4.06008799,18.5393774 C4.34524468,15.7461748 6.710461,13.5660812 9.58579095,13.5660812 C12.6534885,13.5660812 15.1402359,16.0476483 15.1402359,19.1086768 C15.1402359,22.1697053 12.6534885,24.6510466 9.58579095,24.6510466 L9.58579095,24.6501433 Z" id="Shape" fill="#FFFFFF"></path>
                            <path d="M9.66138009,9.51888394 C7.59738887,9.51888394 5.63456038,10.1186694 4.05397764,11.2782696 L4.07660912,18.4488219 C4.48103371,15.5835819 6.81207643,13.5660807 9.64734857,13.5651774" id="Shape" fill="url(#linearGradient-1)"></path>
                        </g>
                        <path d="M43.2243874,38.2370117 L43.2243874,37.2943848 L44.3719994,37.2943848 L44.3719994,36.7637207 C44.3719994,36.0608201 44.5539361,35.5115417 44.9178149,35.1158691 C45.2816937,34.7201966 45.7668581,34.5223633 46.3733228,34.5223633 C46.8165085,34.5223633 47.1710518,34.5968417 47.4369632,34.7458008 L47.1640555,35.5627441 C46.9727859,35.4556798 46.767524,35.4021484 46.5482637,35.4021484 C46.18905,35.4021484 45.9149787,35.518521 45.7260416,35.7512695 C45.5371046,35.9840181 45.4426374,36.3214984 45.4426374,36.7637207 L45.4426374,37.2943848 L46.8491619,37.2943848 L46.8491619,38.2370117 L45.4426374,38.2370117 L45.4426374,44.2 L44.3719994,44.2 L44.3719994,38.2370117 L43.2243874,38.2370117 Z M47.4401949,42.5661133 C47.1649533,42.0168267 47.0273345,41.4070346 47.0273345,40.7367188 C47.0273345,40.0664029 47.1649533,39.4589383 47.4401949,38.9143066 C47.7154366,38.369675 48.115464,37.9344417 48.6402892,37.6085938 C49.1651144,37.2827458 49.7704037,37.1198242 50.4561753,37.1198242 C51.1419469,37.1198242 51.7472362,37.2827458 52.2720614,37.6085938 C52.7968866,37.9344417 53.1957478,38.369675 53.4686569,38.9143066 C53.741566,39.4589383 53.8780185,40.0664029 53.8780185,40.7367188 C53.8780185,41.4070346 53.741566,42.0168267 53.4686569,42.5661133 C53.1957478,43.1153999 52.7968866,43.5541243 52.2720614,43.8822998 C51.7472362,44.2104753 51.1419469,44.3745605 50.4561753,44.3745605 C49.7704037,44.3745605 49.1651144,44.2104753 48.6402892,43.8822998 C48.115464,43.5541243 47.7154366,43.1153999 47.4401949,42.5661133 Z M48.1609513,40.7367188 C48.1609513,41.4815141 48.3662131,42.113417 48.7767431,42.6324463 C49.187273,43.1514756 49.7470782,43.4109863 50.4561753,43.4109863 C50.9320168,43.4109863 51.3460394,43.285304 51.6982554,43.0339355 C52.0504714,42.7825671 52.3128801,42.4578877 52.4854893,42.0598877 C52.6580985,41.6618877 52.7444018,41.2208358 52.7444018,40.7367188 C52.7444018,40.2572567 52.6580985,39.819696 52.4854893,39.4240234 C52.3128801,39.0283509 52.0504714,38.7048352 51.6982554,38.4534668 C51.3460394,38.2020984 50.9320168,38.076416 50.4561753,38.076416 C49.9803338,38.076416 49.565145,38.2020984 49.2105964,38.4534668 C48.8560478,38.7048352 48.5924729,39.0295146 48.4198637,39.4275146 C48.2472545,39.8255147 48.1609513,40.2619117 48.1609513,40.7367188 Z M54.9238977,44.2 L54.9238977,37.2943848 L55.9945358,37.2943848 L55.9945358,38.3976074 C56.293103,38.0158998 56.6406487,37.70984 57.0371833,37.4794189 C57.4337179,37.2489979 57.8559043,37.1337891 58.3037551,37.1337891 L58.3037551,38.2370117 C58.135811,38.2183918 57.9981923,38.209082 57.8908947,38.209082 C57.5596717,38.209082 57.2004634,38.3219634 56.813259,38.5477295 C56.4260546,38.7734956 56.1531496,39.0283514 55.9945358,39.3123047 L55.9945358,44.2 L54.9238977,44.2 Z M61.0113053,38.2370117 L61.0113053,37.2943848 L62.1589174,37.2943848 L62.1589174,35.4021484 L63.2505483,35.4021484 L63.2505483,37.2943848 L64.6570728,37.2943848 L64.6570728,38.2370117 L63.2505483,38.2370117 L63.2505483,42.5242188 C63.2505483,42.7942071 63.3088614,43.0094963 63.4254892,43.1700928 C63.542117,43.3306893 63.7123911,43.4109863 63.9363165,43.4109863 C64.2535442,43.4109863 64.4984589,43.3109059 64.6710681,43.1107422 L64.9859616,43.9276855 C64.6733991,44.2256037 64.2488802,44.3745605 63.7123922,44.3745605 C63.2038949,44.3745605 62.8178626,44.2337498 62.5542837,43.952124 C62.2907048,43.6704983 62.1589174,43.2713405 62.1589174,42.7546387 L62.1589174,38.2370117 L61.0113053,38.2370117 Z M65.0521708,40.7367188 C65.0521708,40.0757128 65.1979534,39.4694119 65.4895229,38.9177979 C65.7810925,38.3661838 66.1881175,37.928623 66.7106101,37.6051025 C67.2331028,37.281582 67.8185657,37.1198242 68.4670164,37.1198242 C69.1481228,37.1198242 69.7429158,37.2850732 70.2514131,37.6155762 C70.7599104,37.9460791 71.1436102,38.3894585 71.402524,38.9457275 C71.6614377,39.5019966 71.7908927,40.1292446 71.7908927,40.8274902 L71.7908927,41.0998047 L66.1997828,41.0998047 C66.2417688,41.7794305 66.4855173,42.3473284 66.9310356,42.8035156 C67.3765539,43.2597028 67.958518,43.487793 68.6769454,43.487793 C69.0828102,43.487793 69.4735076,43.4109871 69.8490491,43.257373 C70.2245907,43.103759 70.55231,42.8849786 70.8322168,42.6010254 L71.3430441,43.2992676 C70.6106213,44.0161331 69.6939404,44.3745605 68.5929738,44.3745605 C67.5573187,44.3745605 66.7082809,44.0370802 66.0458349,43.3621094 C65.3833888,42.6871386 65.0521708,41.8120171 65.0521708,40.7367188 Z M66.1857876,40.2968262 L70.7272522,40.2968262 C70.7225871,40.0314928 70.6747704,39.7684909 70.5838007,39.5078125 C70.492831,39.2471341 70.3587111,39.0027518 70.1814368,38.7746582 C70.0041625,38.5465646 69.7662453,38.3615323 69.4676781,38.2195557 C69.1691108,38.077579 68.8308952,38.0065918 68.4530211,38.0065918 C68.0984725,38.0065918 67.7765845,38.0764153 67.4873475,38.2160645 C67.1981105,38.3557136 66.9636921,38.5384185 66.7840853,38.7641846 C66.6044784,38.9899507 66.4633609,39.234333 66.3607284,39.4973389 C66.2580959,39.7603447 66.1997829,40.0268378 66.1857876,40.2968262 Z M72.4169151,40.7506836 C72.4169151,39.6567654 72.7038152,38.7781527 73.2776241,38.1148193 C73.851433,37.4514859 74.5931748,37.1198242 75.5028718,37.1198242 C75.964718,37.1198242 76.3974007,37.226887 76.800933,37.4410156 C77.2044652,37.6551443 77.5485122,37.953058 77.833084,38.3347656 L77.833084,37.2943848 L78.9107197,37.2943848 L78.9107197,44.2 L77.833084,44.2 L77.833084,43.173584 C77.5625075,43.5366717 77.2242919,43.8276031 76.8184271,44.0463867 C76.4125622,44.2651704 75.9740482,44.3745605 75.5028718,44.3745605 C74.5885097,44.3745605 73.8456016,44.0475537 73.2741253,43.3935303 C72.7026489,42.7395068 72.4169151,41.8585667 72.4169151,40.7506836 Z M74.1383331,38.8305176 C73.7371334,39.3285995 73.5365365,39.9686484 73.5365365,40.7506836 C73.5365365,41.5327188 73.7359671,42.171604 74.1348343,42.6673584 C74.5337014,43.1631128 75.0783452,43.4109863 75.7687819,43.4109863 C76.183977,43.4109863 76.5840044,43.3050873 76.9688762,43.0932861 C77.353748,42.8814849 77.6418144,42.6219742 77.833084,42.3147461 L77.833084,39.1936035 C77.6418144,38.8817204 77.3525817,38.6175548 76.9653774,38.4010986 C76.578173,38.1846425 76.1793118,38.076416 75.7687819,38.076416 C75.0830103,38.076416 74.5395328,38.3277807 74.1383331,38.8305176 Z M79.9496001,40.7367188 C79.9496001,40.057093 80.0930501,39.4438097 80.3799546,38.8968506 C80.666859,38.3498915 81.073884,37.9169856 81.6010418,37.5981201 C82.1281995,37.2792546 82.7299901,37.1198242 83.4064314,37.1198242 C84.4747423,37.1198242 85.319115,37.5201457 85.9395751,38.3208008 L85.2258163,38.9631836 C84.7919609,38.3720023 84.2041654,38.076416 83.4624125,38.076416 C82.73932,38.076416 82.1596884,38.3254532 81.7235004,38.8235352 C81.2873123,39.3216171 81.0692215,39.9593386 81.0692215,40.7367188 C81.0692215,41.5140989 81.2884786,42.1541479 81.7269992,42.6568848 C82.1655198,43.1596217 82.7439851,43.4109863 83.4624125,43.4109863 C84.185505,43.4109863 84.7733004,43.1107452 85.2258163,42.5102539 L85.9395751,43.173584 C85.319115,43.974239 84.4747423,44.3745605 83.4064314,44.3745605 C82.3894368,44.3745605 81.5590592,44.0277704 80.9152736,43.3341797 C80.271488,42.640589 79.9496001,41.7747773 79.9496001,40.7367188 Z M86.7685288,44.2 L86.7685288,34.6620117 L87.8391669,34.6620117 L87.8391669,38.2928711 C88.1004132,37.9716781 88.4537902,37.6958752 88.8993085,37.4654541 C89.3448268,37.235033 89.8148298,37.1198242 90.3093318,37.1198242 C91.7788424,37.1198242 92.5135866,37.8552986 92.5135866,39.3262695 L92.5135866,44.2 L91.4359509,44.2 L91.4359509,39.6544434 C91.4359509,39.072572 91.3029972,38.6641044 91.0370858,38.4290283 C90.7711743,38.1939523 90.3839758,38.076416 89.8754785,38.076416 C89.4789439,38.076416 89.0940778,38.1811513 88.7208688,38.390625 C88.3476598,38.6000987 88.0537621,38.8537908 87.8391669,39.151709 L87.8391669,44.2 L86.7685288,44.2 Z M93.552467,40.7367188 C93.552467,40.0757128 93.6982495,39.4694119 93.9898191,38.9177979 C94.2813887,38.3661838 94.6884137,37.928623 95.2109063,37.6051025 C95.7333989,37.281582 96.3188618,37.1198242 96.9673125,37.1198242 C97.648419,37.1198242 98.243212,37.2850732 98.7517093,37.6155762 C99.2602066,37.9460791 99.6439064,38.3894585 99.9028201,38.9457275 C100.161734,39.5019966 100.291189,40.1292446 100.291189,40.8274902 L100.291189,41.0998047 L94.700079,41.0998047 C94.742065,41.7794305 94.9858135,42.3473284 95.4313318,42.8035156 C95.8768501,43.2597028 96.4588142,43.487793 97.1772415,43.487793 C97.5831064,43.487793 97.9738037,43.4109871 98.3493453,43.257373 C98.7248869,43.103759 99.0526062,42.8849786 99.3325129,42.6010254 L99.8433402,43.2992676 C99.1109175,44.0161331 98.1942366,44.3745605 97.0932699,44.3745605 C96.0576149,44.3745605 95.2085771,44.0370802 94.546131,43.3621094 C93.883685,42.6871386 93.552467,41.8120171 93.552467,40.7367188 Z M94.6860837,40.2968262 L99.2275484,40.2968262 C99.2228833,40.0314928 99.1750666,39.7684909 99.0840969,39.5078125 C98.9931272,39.2471341 98.8590072,39.0027518 98.6817329,38.7746582 C98.5044586,38.5465646 98.2665415,38.3615323 97.9679742,38.2195557 C97.669407,38.077579 97.3311914,38.0065918 96.9533172,38.0065918 C96.5987687,38.0065918 96.2768807,38.0764153 95.9876437,38.2160645 C95.6984067,38.3557136 95.4639883,38.5384185 95.2843815,38.7641846 C95.1047746,38.9899507 94.9636571,39.234333 94.8610246,39.4973389 C94.7583921,39.7603447 94.7000791,40.0268378 94.6860837,40.2968262 Z M101.323072,44.2 L101.323072,37.2943848 L102.39371,37.2943848 L102.39371,38.3976074 C102.692277,38.0158998 103.039822,37.70984 103.436357,37.4794189 C103.832892,37.2489979 104.255078,37.1337891 104.702929,37.1337891 L104.702929,38.2370117 C104.534985,38.2183918 104.397366,38.209082 104.290068,38.209082 C103.958845,38.209082 103.599637,38.3219634 103.212433,38.5477295 C102.825228,38.7734956 102.552323,39.0283514 102.39371,39.3123047 L102.39371,44.2 L101.323072,44.2 Z M104.755148,43.2853027 L105.293966,42.5102539 C105.541217,42.7895522 105.870102,43.0246247 106.280632,43.2154785 C106.691162,43.4063323 107.122678,43.5017578 107.575194,43.5017578 C108.093022,43.5017578 108.497714,43.3923676 108.789284,43.173584 C109.080854,42.9548003 109.226636,42.6685239 109.226636,42.3147461 C109.226636,42.0913075 109.14733,41.902784 108.988717,41.7491699 C108.830103,41.5955559 108.624841,41.4768559 108.372925,41.3930664 C108.121009,41.3092769 107.843439,41.2324711 107.540206,41.1626465 C107.236974,41.0928219 106.93258,41.0113611 106.627015,40.9182617 C106.32145,40.8251623 106.042714,40.7111172 105.790798,40.576123 C105.538882,40.4411289 105.33362,40.2491142 105.175006,40.0000732 C105.016392,39.7510323 104.937086,39.4542823 104.937086,39.1098145 C104.937086,38.541908 105.165673,38.0682718 105.622854,37.6888916 C106.080035,37.3095114 106.707484,37.1198242 107.505218,37.1198242 C108.559534,37.1198242 109.413236,37.4549771 110.066352,38.125293 L109.56952,38.8654297 C109.354925,38.6047513 109.066859,38.394117 108.705312,38.2335205 C108.343766,38.072924 107.943739,37.992627 107.505218,37.992627 C107.043372,37.992627 106.672501,38.0961985 106.392594,38.3033447 C106.112687,38.5104909 105.972736,38.7700017 105.972736,39.0818848 C105.972736,39.2820485 106.052042,39.4507887 106.210656,39.5881104 C106.36927,39.725432 106.573365,39.8324947 106.822949,39.9093018 C107.072532,39.9861088 107.350102,40.0582598 107.655667,40.1257568 C107.961232,40.1932539 108.266792,40.2758784 108.572357,40.3736328 C108.877922,40.4713872 109.155492,40.5912509 109.405076,40.7332275 C109.654659,40.8752042 109.858755,41.0788561 110.017369,41.3441895 C110.175983,41.6095228 110.255288,41.9237287 110.255288,42.2868164 C110.255288,42.8919627 110.018537,43.3912008 109.545028,43.7845459 C109.07152,44.177891 108.405585,44.3745605 107.547204,44.3745605 C106.385591,44.3745605 105.454915,44.0114782 104.755148,43.2853027 Z" id="for-teachers" fill="#FFFFFF"></path>
                    </g>
                </g>
            </g>
        </g>
    </g>
</svg>
