<svg width="20" height="21" xmlns="http://www.w3.org/2000/svg"><g fill="#B4C8F4" fill-rule="evenodd"><path d="M17 6H3c-.55 0-1-.45-1-1s.45-1 1-1h14c.55 0 1 .45 1 1s-.45 1-1 1zm-2-6H5c-.55 0-1 .45-1 1s.45 1 1 1h10c.55 0 1-.45 1-1s-.45-1-1-1zm5 10.167v8.666C20 20.025 19.1 21 18 21H2c-1.1 0-2-.975-2-2.167v-8.666C0 8.975.9 8 2 8h16c1.1 0 2 .975 2 2.167zm-1.5 1c0-.917-.765-1.667-1.7-1.667H3.2c-.935 0-1.7.75-1.7 1.667v6.666c0 .917.765 1.667 1.7 1.667h13.6c.935 0 1.7-.75 1.7-1.667v-6.666z" fill-rule="nonzero"/><path d="M8.5 17.732l3.98-2.28c.67-.38.67-1.35 0-1.74l-3.98-2.28c-.67-.38-1.5.11-1.5.87v4.55c0 .77.83 1.26 1.5.88z" fill-rule="nonzero"/><path d="M17 6H3c-.55 0-1-.45-1-1s.45-1 1-1h14c.55 0 1 .45 1 1s-.45 1-1 1zM15 0H5c-.55 0-1 .45-1 1s.45 1 1 1h10c.55 0 1-.45 1-1s-.45-1-1-1z"/></g></svg>