<?xml version="1.0" encoding="UTF-8"?>
<svg width="20px" height="21px" viewBox="0 0 20 21" version="1.1" xmlns="http://www.w3.org/2000/svg" xmlns:xlink="http://www.w3.org/1999/xlink">
    <!-- Generator: sketchtool 53.2 (72643) - https://sketchapp.com -->
    <title>Bookmarked collections</title>
    <desc>Created with sketchtool.</desc>
    <g id="desktop" stroke="none" stroke-width="1" fill="none" fill-rule="evenodd">
        <g id="login-with-collections" transform="translate(-887.000000, -81.000000)" fill="#B4C8F4">
            <g id="MY-ACCOUNT" transform="translate(869.000000, 68.000000)">
                <g id="dropdown-item">
                    <g id="Group" transform="translate(16.000000, 8.000000)">
                        <g id="Icons-/-action" transform="translate(0.000000, 4.000000)">
                            <g id="round-subscriptions-24px-(1)" transform="translate(2.000000, 1.000000)">
                                <path d="M17,6 L3,6 C2.45,6 2,5.55 2,5 C2,4.45 2.45,4 3,4 L17,4 C17.55,4 18,4.45 18,5 C18,5.55 17.55,6 17,6 Z M15,0 L5,0 C4.45,0 4,0.45 4,1 C4,1.55 4.45,2 5,2 L15,2 C15.55,2 16,1.55 16,1 C16,0.45 15.55,0 15,0 Z M20,10.1666667 L20,18.8333333 C20,20.025 19.1,21 18,21 L2,21 C0.9,21 0,20.025 0,18.8333333 L0,10.1666667 C0,8.975 0.9,8 2,8 L18,8 C19.1,8 20,8.975 20,10.1666667 Z M18.5,11.1666667 C18.5,10.25 17.735,9.5 16.8,9.5 L3.2,9.5 C2.265,9.5 1.5,10.25 1.5,11.1666667 L1.5,17.8333333 C1.5,18.75 2.265,19.5 3.2,19.5 L16.8,19.5 C17.735,19.5 18.5,18.75 18.5,17.8333333 L18.5,11.1666667 Z" id="Shape" fill-rule="nonzero"></path>
                                <path d="M8.5000001,17.7315684 L12.4800004,15.4515682 C13.1500004,15.0715682 13.1500004,14.1015681 12.4800004,13.7115681 L8.5000001,11.431568 C7.83000006,11.0515679 7,11.541568 7,12.301568 L7,16.8515683 C7,17.6215684 7.83000006,18.1115684 8.5000001,17.7315684 Z" id="Path" fill-rule="nonzero"></path>
                                <path d="M17,6 L3,6 C2.45,6 2,5.55 2,5 C2,4.45 2.45,4 3,4 L17,4 C17.55,4 18,4.45 18,5 C18,5.55 17.55,6 17,6 Z" id="Path"></path>
                                <path d="M15,0 L5,0 C4.45,0 4,0.45 4,1 C4,1.55 4.45,2 5,2 L15,2 C15.55,2 16,1.55 16,1 C16,0.45 15.55,0 15,0 Z" id="Path"></path>
                            </g>
                        </g>
                    </g>
                </g>
            </g>
        </g>
    </g>
</svg>
