<?xml version="1.0" encoding="UTF-8"?>
<svg width="23px" height="24px" viewBox="0 0 23 24" version="1.1" xmlns="http://www.w3.org/2000/svg" xmlns:xlink="http://www.w3.org/1999/xlink">
    <!-- Generator: sketchtool 54.1 (76490) - https://sketchapp.com -->
    <title>8A813BD3-651A-41BA-82C5-A4E9DAACB555</title>
    <desc>Created with sketchtool.</desc>
    <g id="desktop" stroke="none" stroke-width="1" fill="none" fill-rule="evenodd">
        <g id="icons" transform="translate(-641.000000, -28.000000)">
            <g id="top-nav">
                <g id="selected" transform="translate(402.000000, 28.000000)">
                    <g id="Group-2" transform="translate(220.000000, 0.000000)">
                        <g id="collections-on" transform="translate(19.000000, 0.000000)">
                            <g id="round-subscriptions-24px-(1)" fill="#0051BC" fill-rule="nonzero">
                                <path d="M19.55,6.85714286 L3.45,6.85714286 C2.8175,6.85714286 2.3,6.34285714 2.3,5.71428571 C2.3,5.08571429 2.8175,4.57142857 3.45,4.57142857 L19.55,4.57142857 C20.1825,4.57142857 20.7,5.08571429 20.7,5.71428571 C20.7,6.34285714 20.1825,6.85714286 19.55,6.85714286 Z M17.25,0 L5.75,0 C5.1175,0 4.6,0.514285714 4.6,1.14285714 C4.6,1.77142857 5.1175,2.28571429 5.75,2.28571429 L17.25,2.28571429 C17.8825,2.28571429 18.4,1.77142857 18.4,1.14285714 C18.4,0.514285714 17.8825,0 17.25,0 Z M23,11.6190476 L23,21.5238095 C23,22.8857143 21.965,24 20.7,24 L2.3,24 C1.035,24 0,22.8857143 0,21.5238095 L0,11.6190476 C0,10.2571429 1.035,9.14285714 2.3,9.14285714 L20.7,9.14285714 C21.965,9.14285714 23,10.2571429 23,11.6190476 Z M21.275,12.7619048 C21.275,11.7142857 20.39525,10.8571429 19.32,10.8571429 L3.68,10.8571429 C2.60475,10.8571429 1.725,11.7142857 1.725,12.7619048 L1.725,20.3809524 C1.725,21.4285714 2.60475,22.2857143 3.68,22.2857143 L19.32,22.2857143 C20.39525,22.2857143 21.275,21.4285714 21.275,20.3809524 L21.275,12.7619048 Z" id="Shape"></path>
                            </g>
                            <path d="M9.77500012,20.2646496 L14.3520004,17.6589351 C15.1225005,17.2246494 15.1225005,16.1160779 14.3520004,15.6703635 L9.77500012,13.0646491 C9.00450006,12.6303633 8.05,13.1903634 8.05,14.0589349 L8.05,19.2589352 C8.05,20.1389353 9.00450006,20.6989353 9.77500012,20.2646496 Z" id="Path" fill="#FB5C41" fill-rule="nonzero"></path>
                            <path d="M19.55,6.85714286 L3.45,6.85714286 C2.8175,6.85714286 2.3,6.34285714 2.3,5.71428571 C2.3,5.08571429 2.8175,4.57142857 3.45,4.57142857 L19.55,4.57142857 C20.1825,4.57142857 20.7,5.08571429 20.7,5.71428571 C20.7,6.34285714 20.1825,6.85714286 19.55,6.85714286 Z" id="Path" fill="#0051BC"></path>
                            <path d="M17.25,0 L5.75,0 C5.1175,0 4.6,0.514285714 4.6,1.14285714 C4.6,1.77142857 5.1175,2.28571429 5.75,2.28571429 L17.25,2.28571429 C17.8825,2.28571429 18.4,1.77142857 18.4,1.14285714 C18.4,0.514285714 17.8825,0 17.25,0 Z" id="Path" fill="#0051BC"></path>
                        </g>
                    </g>
                </g>
            </g>
        </g>
    </g>
</svg>