<svg width="23" height="24" xmlns="http://www.w3.org/2000/svg"><g fill="none" fill-rule="evenodd"><path d="M19.55 6.857H3.45A1.15 1.15 0 012.3 5.714a1.15 1.15 0 011.15-1.143h16.1c.633 0 1.15.515 1.15 1.143a1.15 1.15 0 01-1.15 1.143zM17.25 0H5.75A1.15 1.15 0 004.6 1.143a1.15 1.15 0 001.15 1.143h11.5a1.15 1.15 0 001.15-1.143A1.15 1.15 0 0017.25 0zM23 11.619v9.905C23 22.886 21.965 24 20.7 24H2.3C1.035 24 0 22.886 0 21.524v-9.905c0-1.362 1.035-2.476 2.3-2.476h18.4c1.265 0 2.3 1.114 2.3 2.476zm-1.725 1.143c0-1.048-.88-1.905-1.955-1.905H3.68c-1.075 0-1.955.857-1.955 1.905v7.619c0 1.048.88 1.905 1.955 1.905h15.64c1.075 0 1.955-.857 1.955-1.905v-7.62z" fill="#0051BC" fill-rule="nonzero"/><path d="M9.775 20.265l4.577-2.606c.77-.434.77-1.543 0-1.989l-4.577-2.605c-.77-.435-1.725.125-1.725.994v5.2c0 .88.955 1.44 1.725 1.006z" fill="#FB5C41" fill-rule="nonzero"/><path d="M19.55 6.857H3.45A1.15 1.15 0 012.3 5.714a1.15 1.15 0 011.15-1.143h16.1c.633 0 1.15.515 1.15 1.143a1.15 1.15 0 01-1.15 1.143zM17.25 0H5.75A1.15 1.15 0 004.6 1.143a1.15 1.15 0 001.15 1.143h11.5a1.15 1.15 0 001.15-1.143A1.15 1.15 0 0017.25 0z" fill="#0051BC"/></g></svg>