<svg width="24" height="24" xmlns="http://www.w3.org/2000/svg"><g fill="none" fill-rule="evenodd"><path d="M0 0h24v24H0z"/><path d="M12 4.929L9.879 7.05a1.003 1.003 0 000 1.414 1.003 1.003 0 001.414 0l2.121-2.12a3.009 3.009 0 014.243 0 3.009 3.009 0 010 4.242l-2.121 2.121a1.003 1.003 0 000 1.414 1.003 1.003 0 001.414 0L19.07 12a5.002 5.002 0 000-7.071 5.002 5.002 0 00-7.071 0zm-2.828 9.9a1.003 1.003 0 001.414 0l4.242-4.243a1.003 1.003 0 000-1.414 1.003 1.003 0 00-1.414 0l-4.242 4.242a1.003 1.003 0 000 1.414zm3.535.707l-2.121 2.12a3.009 3.009 0 01-4.243 0 3.009 3.009 0 010-4.242l2.121-2.121a1.003 1.003 0 000-1.414 1.003 1.003 0 00-1.414 0L4.93 12a5.002 5.002 0 000 7.071 5.002 5.002 0 007.071 0l2.121-2.121a1.003 1.003 0 000-1.414 1.003 1.003 0 00-1.414 0z" fill="#0E69FF" fill-rule="nonzero"/></g></svg>