<?xml version="1.0" encoding="UTF-8"?>
<svg width="14px" height="18px" viewBox="0 0 14 18" version="1.1" xmlns="http://www.w3.org/2000/svg" xmlns:xlink="http://www.w3.org/1999/xlink">
    <!-- Generator: sketchtool 55.2 (78181) - https://sketchapp.com -->
    <title>D678A97B-00AE-4C5E-AF89-A0979AF29D16</title>
    <desc>Created with sketchtool.</desc>
    <g id="Styles" stroke="none" stroke-width="1" fill="none" fill-rule="evenodd">
        <g id="Icons" transform="translate(-325.000000, -290.000000)">
            <g id="Icons-/-actions-/-delete" transform="translate(320.000000, 287.000000)">
                <g id="round-delete-24px">
                    <polygon id="Path" points="0 0 24 0 24 24 0 24"></polygon>
                    <path d="M6,19 C6,20.1 6.9,21 8,21 L16,21 C17.1,21 18,20.1 18,19 L18,9 C18,7.9 17.1,7 16,7 L8,7 C6.9,7 6,7.9 6,9 L6,19 Z M18,4 L15.5,4 L14.79,3.29 C14.61,3.11 14.35,3 14.09,3 L9.91,3 C9.65,3 9.39,3.11 9.21,3.29 L8.5,4 L6,4 C5.45,4 5,4.45 5,5 C5,5.55 5.45,6 6,6 L18,6 C18.55,6 19,5.55 19,5 C19,4.45 18.55,4 18,4 Z" id="Shape" fill="#4189FF" fill-rule="nonzero"></path>
                </g>
            </g>
        </g>
    </g>
</svg>