<svg width="451" height="148" xmlns="http://www.w3.org/2000/svg" xmlns:xlink="http://www.w3.org/1999/xlink"><defs><path id="a" d="M.514.058h17.168V35.88H.514z"/></defs><g fill="none" fill-rule="evenodd"><path d="M210.45 147.968c103.001.461 186.522-4.074 186.55-10.132.027-6.057-83.45-11.342-186.451-11.804-103.001-.461-186.522 4.075-186.549 10.132-.027 6.058 83.45 11.342 186.45 11.804z" fill="#FBD0C8"/><path d="M106 34.474c5.443 26.66 14.484 55.246 22.854 81.121 1.508 4.66 10.055 7.405 10.055 7.405s7.369-7.945 7.908-14.114c.518-5.951-.052-13.727-1.854-20.534-2.364-8.927-7.143-17.34-11.127-25.623-5.285-10.982-12.222-20.958-15.749-32.729-5.75.24-9.879 2.845-12.087 4.474" fill="#008455"/><path d="M139.83 113.624c3.062-6.53 6.609-7.356 6.609-7.356 17.09 2.073 37.08 1.044 54.11-1.173l-.003.002.001-.002h.002c5.576-7.247 14.557-11.889 24.997-12.918 12.215-1.202 24.908 3.813 33.454 12.446-2.016 7.394-3.067 15.748-2.057 23.504-18.783 3.36-38.498 3.151-57.432 2.448-20.14-.75-41.467-2.232-61.038-7.32 0 0-1.705-3.102 1.357-9.631" fill="#008455"/><path d="M106.925 33.983c-8.852.131-16.602.028-25.37 1.91-3.074.657-8.114-1.787-7.504-5.37a1748.276 1748.276 0 0122.235-8.1c7.951-2.832 12.402-7.302 18.68-6.272 2.323 1.995 3.983 6.123 2.427 14.314 0 0-1.787-.295-5.362.908-3.577 1.202-5.106 2.61-5.106 2.61" fill="#D24000"/><path d="M261 135.853c-19.428 4.548-40.11 5.111-59.954 5.146-20.292.036-41.809-.614-61.699-4.93 0 0-2.14-2.266-3.065-9.733-.926-7.466.727-9.127.727-9.127 20.95-.976 42.955-4.786 63.117-10.425 5.338-8.783 15.266-14.457 27.035-15.608 12.299-1.2 25.08 3.809 33.685 12.431-2.828 10.29-3.792 22.446.154 32.246" fill="#27C195"/><path d="M45.287 116.19c-2.335 3.58-1.39 10.69 2.006 13.137 30.62 4.24 60.984 6.677 91.884 7.673 0 0 2.135-1.492 2.716-8.96.58-7.468-1.381-8.216-1.381-8.216-17.674-7.335-34.914-7.758-53.006-5.875-13.452 1.4-28.668 3.102-42.22 2.241" fill="#27C195"/><path d="M.032 123.786c5.436-2.23 13.96-5.681 21.926-8.816 7.843-3.088 12.133-7.68 18.44-6.877 2.39 1.9 3.272 4.756 3.602 7.78 0 0-2.235.897-6.28 4.651-4.044 3.754-4.053 4.94-4.053 4.94-8.836.44-17.26 1.215-25.954 3.388-3.047.76-8.165-1.488-7.681-5.066" fill="#D24000"/><path d="M35.028 125.424c1.583.92 4.036.94 5.809.971 1.521.026 3.041.585 4.524.605 0 0 .73-1.318.63-5.304-.1-3.985-.91-5.696-.91-5.696-3.29.767-10.588 5.802-10.053 9.424" fill="#D4A181"/><path d="M386.3 104a2236.769 2236.769 0 00-33.725 15.323s-1.775 1.547-2.406 8.48c-.631 6.933.71 10.15.71 10.15 1.973.182 4.114-.154 6.442-1.155 13.438-5.788 24.677-16.316 36.679-25.561 0 0-.493-1.598-3.508-3.811-3.014-2.214-4.192-3.426-4.192-3.426" fill="#EF4D3C"/><path d="M314.062 77.367c.491-5.14.12-3.391.491-3.737 11.71-10.897 24.36 14.686 31.314 28.925.025 0 5.849 15.063 7.945 18.141 0 0 .717 1.807-.648 8.29-1.364 6.484-2.786 8.014-2.786 8.014-15.11-.875-17.017-16.439-20.558-23.99-1.03.24-1.938.318-2.647.179-4.287-8.644-9.612-19.898-11.48-27.428-.935-3.77-1.958-4.966-1.63-8.394" fill="#EF4D3C"/><path d="M334.333 2.058c12.44-.711 22.699 5.167 29.1 15.822 2.242 3.73 8.03 14.964 1.687 18.76-2.385 1.43-6.472-.177-9.789 2.172-34.947 24.746-52.454 2.166-50.126-7.884 2.938-12.674.729-27.248 29.128-28.87" fill="#520005"/><path d="M330.622 94c2.43 12.237 6.32 18.034 3.241 27.534-1.9 5.866-8.341 8.174-10.046 9.017-5.244 2.595-8.46 2.433-16.367-.483-8.75 8.051-24.584 6.28-32.894 6.28-4.051 0-10.37-.805-14.56.652 0 0-3.904-4.076-3.994-15.587-.09-11.51 3.744-16.35 3.744-16.35 9.412-.228 14.556-1.688 21.048-8.89 3.484-3.865 6.57-9.724 11.91-19.806 4.862-9.178 18.938-13.755 25.603-11.996 6.666 1.76 7.959 7.694 12.315 29.628" fill="#FFDFAB"/><path d="M318.36 57.182c9.374 12.178 13.101 31.032 5.765 31.792-4.835.5-18.332-6.423-26.008-9.602-7.677-3.18-9.724-9.638-10.037-13.688-.528-6.843 1.442-16.117 9.654-18.207 8.048-2.047 15.262 2.736 20.627 9.705" fill="#FF654C"/><path d="M359.526 31.57c.88 10.185 3.824 23.68-2.358 32.839-5.438 8.054-16.348 10.578-23.791 3.24-3.382-3.335-6.3-8.535-8.33-12.725-4.73-9.765-5.102-26.63 7.295-33.525 11.386-6.334 26.378.853 27.184 10.17" fill="#D4A181"/><path d="M336.873 28c-.355 2-1.69 4.098-2.462 5.114-1.375 1.805-3.663 4.013-5.033 6.383-1.451 2.511-1.753 6.284-1.216 10.503 0 0-7.481-1.534-9.186-8.479-1.828-7.443-2.61-22.272 12.034-31.521 0 0 7.01 11.55 5.863 18" fill="#520005"/><path d="M321.784 47c-.593 4.841-7.138 16.31-11.687 18.366 0 0-1.286 1.906 5.512 9.942C322.406 83.344 326.706 85 326.706 85c-.085-5.695 2.607-13.107 7.294-16.596 0 0 .12-4.217-3.422-11.764-3.897-8.3-8.794-9.64-8.794-9.64" fill="#D4A181"/><path d="M312.384 65.398c1.203-1.67 2.833-1.575 4.534-1.088 2.237.642 7.646 1.751 8.69 6.933.63 3.126 1.007 5.437 2.392 12.913-.9.903-2.189 1.077-4.03.544-5.163-1.496-8.564-5.981-11.082-13.321-.548-1.598-1.385-4.758-.504-5.981" fill="#D4A181"/><path d="M310 31.628c2.503-4.124-.568-8.092 1.997-12.946 10.309-29.912 34.536-17.843 49.57-5.427 2.747 2.161 7.22 6.34 6.773 9.731 6.269 16.046-7.236 13.339-7.264 21.29-2.178-1.307-4.196-8.9-3.807-14.068-.53 8.663-2.582-3.32-7.673-6.203-.52 3.219.965 4.348 1.597 5.396-1.73.102-2.02-1.515-3.94-3.21-1.812 9.52-2.057-.731-6.68-2.697-.07 1.705-1.944 5.076-4.42 4.859 1.466-1.202 2.705-4.077 1.733-6.78-.996 1.439-6.622 12.429-7.008 7.385-4.964 2.658-1.467 1.002-1.255-3.913-3.416 4.184-7.69 12.011-8.447 8.505.433 3.994-.596 7.726-.61 12.45-2.13-7.777-10.128-6.352-7.947-14.077-.28.315-2.214.807-2.619-.295" fill="#520005"/><path d="M316.841 53s-15.235 5.436-7.793 13.81c1.885 2.122 7.974 12.04 7.038 1.235.936-11.703 14.318 2.253 14.318 2.253L333 67.863 316.841 53z" fill="#BA8B72"/><path d="M374.071 97c-11.54 5.02-33.904 22.954-45.42 28.19 0 0-1.827 1.558-2.477 8.54-.65 6.983.731 10.223.731 10.223 2.032.182 4.237-.155 6.634-1.164 13.84-5.828 36.1-27.064 48.461-36.375 0 0-.508-1.609-3.612-3.838-3.104-2.23-4.317-5.576-4.317-5.576" fill="#FF654C"/><path d="M292.143 81.242c.489-5.113 3.183-7.614 3.536-7.976 6.139-6.285 12.841 1.45 18.228 11.612 4.822 9.098 8.568 19.509 11.635 24.903 2.26 4.641 3.857 8.338 6.458 13.883 0 0-.351 3.911-1.71 10.362-1.36 6.45-2.776 7.974-2.776 7.974-10.614-.955-23.077-23.686-23.113-23.693-4.27-8.601-9.574-19.8-11.435-27.293-.931-3.751-1.15-6.36-.823-9.772" fill="#FF654C"/><path d="M297.464 101.066c-1.615 5.487 1.28 10.285 4.123 6.689.963 1.444 1.295 2.211 2.352-2.884 6.315 3.432 2.223-29.92-6.475-3.805" fill="#520005"/><path d="M301.265 92.248c-.279-.751-.618-1.463-.949-2.177a45.413 45.413 0 01-.917-2.364 8.818 8.818 0 01-.17-.744c-.466-2.588-.3-5.063 1.248-7.376 1.209-1.806 4.06-1.944 5.834-1.048 1.656.835 2.372 1.963 2.463 3.746.337 1.272.267 2.798-.012 4.05-.456 2.046-1.62 3.423-2.742 4.692-1.178 1.332-2.282 1.646-3.348 2.973-.405-.889-.973-.792-1.407-1.752" fill="#190003"/><path d="M302 78.316c.193-.13.398-.236.615-.316.222.953.36 1.963.385 3-.537-.595-.827-1.706-1-2.684M305.042 85c-.298-2.627 1.044-4.308 2.63-6 .604.41 1.032.892 1.328 1.48-1.262 1.61-2.749 3.018-3.958 4.52" fill="#673F36"/><path d="M301.914 85.024c-.372-.796-.807-1.547-1.222-2.291-.408-.811-.79-1.625-1.144-2.45a8.056 8.056 0 01-.221-.76c-.612-2.658-.455-5.208 1.245-7.769 1.328-2 4.647-2.13 6.832-1.187 2.041.882 2.966 2.09 3.186 3.942.486 1.342.5 2.925.249 4.216-.414 2.111-1.73 3.529-3.03 4.89-1.369 1.433-2.82 2.945-4.12 4.385a58.636 58.636 0 01-1.775-2.976" fill="#855348"/><path d="M301.914 85.024c-.372-.796-.807-1.547-1.222-2.291-.408-.811-.79-1.625-1.144-2.45a8.056 8.056 0 01-.221-.76c-.612-2.658-.455-5.208 1.245-7.769 1.328-2 4.647-2.13 6.832-1.187 2.041.882 2.966 2.09 3.186 3.942.486 1.342.5 2.925.249 4.216-.414 2.111-1.73 3.529-3.03 4.89-1.369 1.433-2.82 2.945-4.12 4.385a58.636 58.636 0 01-1.775-2.976" fill="#520005"/><path d="M306.026 76c-.208-2.622.847-4.54 2.29-6 .711.385 1.268.794 1.684 1.338l-.32.308c-1.352 1.302-2.412 2.833-3.654 4.354M303 70.441c.368-.2.773-.344 1.205-.441.356.927.65 1.947.795 3-.794-.454-1.494-1.422-2-2.559" fill="#855348"/><path d="M303.562 75.029c-.465-.787-.985-1.521-1.483-2.232-.49-.773-.95-1.538-1.39-2.295a5.553 5.553 0 01-.282-.743c-.783-2.654-.53-5.48 1.589-7.672 1.655-1.71 5.344-1.132 7.927-.113 2.41.949 3.43 2.086 3.63 3.684.533 1.202.54 2.581.28 3.685-.427 1.804-1.838 2.97-3.291 4.257a125.388 125.388 0 00-4.691 4.4c-.787-.9-1.582-1.967-2.289-2.971" fill="#190003"/><path d="M309.71 66.223c-.9.57-1.75 1.3-2.67 1.777-.865-2.004-2.385-3.323-3.383-5.021a8.335 8.335 0 01-.657-1.464c1.729-.972 4.824-.424 7.006.453 1.509.605 2.455 1.277 2.994 2.111-1.081.782-2.187 1.446-3.29 2.144" fill="#673F36"/><path d="M303.818 66.974c-.531-.822-1.111-1.61-1.659-2.385a59.626 59.626 0 01-1.514-2.508 6.617 6.617 0 01-.293-.772c-.8-2.694-.322-5.453 2.317-7.47 2.06-1.576 6.234-.681 9.428.635 2.984 1.23 4.256 2.58 4.445 4.239.62 1.296.55 2.689.15 3.748-.657 1.738-2.524 2.612-4.357 3.663-1.927 1.106-3.92 2.501-5.727 3.876a24.276 24.276 0 01-2.79-3.026" fill="#520005"/><path d="M304.215 61.507c-.459-.942-.962-1.854-1.443-2.747a94.247 94.247 0 01-1.316-2.874 7.67 7.67 0 01-.242-.86c-.623-2.995.044-5.842 2.957-8.028 2.273-1.707 6.458-1.058 9.862.693 3.179 1.634 4.554 3.29 4.626 5.178.581 1.488.359 3.015-.212 4.166-.933 1.884-3.135 2.798-5.253 3.883A44.428 44.428 0 00306.74 65c-.942-1.015-1.81-2.274-2.525-3.493" fill="#673F36"/><path d="M319 53.644a4.694 4.694 0 00-.225-.776c-.073-1.887-1.457-3.544-4.656-5.177-3.427-1.751-7.64-2.4-9.928-.693-2.931 2.187-3.603 5.033-2.976 8.027a7.6 7.6 0 00.244.86c.424.952.856 1.912 1.325 2.875.484.893.99 1.805 1.452 2.747.72 1.22 1.593 2.478 2.542 3.493a44.804 44.804 0 016.496-4.082c2.132-1.085 4.349-1.997 5.287-3.883a5.14 5.14 0 00.31-.785" fill="#190003"/><path d="M307.016 54.049c-.41-1.047-.898-2.066-1.318-3.036-.44-1.014-.837-2.088-1.262-3.113a8.954 8.954 0 01-.238-.921c-.596-3.189.044-7.276 3.43-9.89 2.11-1.63 4.104-1.114 6.042-.479 1.9.623 4.375 1.859 6.458 3.542.88.71 1.753 1.467 2.434 2.35.67.864.764 1.654 1.105 2.586 1.644 4.468-3.15 7.385-6.791 8.917-2.547 1.07-5.174 2.455-7.429 3.995-.97-1.137-1.773-2.588-2.43-3.951" fill="#855348"/><path d="M304.198 46.978c.06.317.147.62.238.922.425 1.025.833 2.061 1.262 3.113.448.978.908 1.99 1.318 3.035.658 1.364 1.462 2.815 2.431 3.952 2.255-1.54 4.882-2.925 7.428-3.996 3.642-1.531 8.436-4.448 6.792-8.916-.341-.932-.435-1.723-1.105-2.587-.681-.882-1.555-1.64-2.434-2.35-2.083-1.682-4.558-2.918-6.458-3.54-1.938-.636-3.931-1.153-6.043.478-3.385 2.614-4.025 6.7-3.429 9.89" fill="#520005"/><path d="M299.019 92.5c-.088.34.137.676.507.749 2.16.424 3.374.571 5.616.749.384.03.761-.235.842-.59.082-.354-.163-.66-.547-.685-2.238-.145-3.458-.283-5.6-.709-.366-.073-.73.144-.818.485M300.018 90.51a.627.627 0 00.505.764c2.151.434 3.377.576 5.622.724.385.026.76-.248.84-.61.08-.363-.167-.673-.55-.693-2.241-.115-3.472-.246-5.605-.68a.691.691 0 00-.812.495" fill="#008455"/><g transform="matrix(-1 0 0 1 336 0)"><mask id="b" fill="#fff"><use xlink:href="#a"/></mask><path d="M17.656 34.766c.266-5.453-1.562-28.675-3.647-31.552C10.976-.962-.043-.125.535.858c5.335 9.089 5.152 22.324 6.242 33.179 0 0 1.027 1.507 5.438 1.802 4.412.296 5.44-1.073 5.44-1.073" fill="#E2104C" mask="url(#b)"/></g><path d="M410.364 45h-20.728c-2.56 0-4.636 2.058-4.636 4.596v10.797c0 2.54 2.076 4.596 4.636 4.596h3.385l.177 6.011 5.991-6.01h11.175c2.56 0 4.636-2.058 4.636-4.597V49.596c0-2.538-2.075-4.596-4.636-4.596" fill="#FFF"/><path d="M395 54.5c0 1.381-.896 2.5-2 2.5-1.105 0-2-1.119-2-2.5 0-1.38.895-2.5 2-2.5 1.104 0 2 1.12 2 2.5M402 54.5c0 1.381-.896 2.5-2 2.5-1.105 0-2-1.119-2-2.5 0-1.38.895-2.5 2-2.5 1.104 0 2 1.12 2 2.5M409 54.5c0 1.381-.896 2.5-2 2.5s-2-1.119-2-2.5c0-1.38.896-2.5 2-2.5s2 1.12 2 2.5" fill="#FF654C"/><path d="M312.019 44.089c.36 7.448 5.793 13.222 12.133 12.898 6.342-.326 11.19-6.629 10.83-14.076-.361-7.45-5.794-13.224-12.136-12.898-6.341.325-11.187 6.628-10.827 14.076" fill="#F54F71"/><path d="M314.015 43.436c.282 5.518 4.533 9.795 9.496 9.554 4.962-.24 8.757-4.91 8.474-10.426-.281-5.518-4.533-9.796-9.496-9.554-4.963.24-8.756 4.909-8.474 10.426" fill="#F54F71"/><path d="M403.739 92.308s-2.745-3.984-5.05-6.688c-2.306-2.704-3.639-3.447-5.894-1.607-.934.762-8.264 7.35-7.771 18.26.324 7.186 6.976 8.64 6.976 8.64s2.241 1.054 7.17-4.152c4.38-4.628 5.391-12.697 4.569-14.453" fill="#BC8668"/><path d="M359.453 50l3.321 7.05c.764 1.62-.493 3.42-2.512 3.594L357 61l2.453-11z" fill="#D4A181"/><path d="M378.12 104.448l13.133-25.907a4.271 4.271 0 013.036-2.26l6.877-1.262c.447-.083.84.117 1.065.435l.001-.001L404 77.386l-2.348.419-12.456 23.682-9.68 4.412c-.92.42-1.854-.552-1.396-1.45" fill="#A3A9CE"/><path d="M403.875 78.565L391 103.487l-9.509 4.412c-.904.42-1.822-.552-1.372-1.451L393.02 80.54a4.204 4.204 0 012.983-2.26l6.756-1.263c.863-.16 1.528.76 1.117 1.547" fill="#848FBB"/><path d="M371 98.072l3.14-4.436a15.317 15.317 0 014.199-4.032 15.29 15.29 0 004.195-4.027L385.068 82c1.22 1.415 1.584 3.434.953 5.256l-.648 1.87-2.634 4.99 11.789-2.233c1.455-.276 2.703 1.035 2.436 2.56-.152.864-.769 1.566-1.58 1.796l-4.877 1.386-3.29 6.795c-.872 1.801-5.384 4.26-7.808 3.404" fill="#D4A181"/><path d="M344 61c3.982 6.744 11 6.099 11 6.099s-1.754 2.374-7.169-.584C344.088 64.47 344 61 344 61" fill="#190003"/><path d="M396.015 82.826a1 1 0 101.97.347 1 1 0 00-1.97-.347M395.808 79.992l1.652-.2c.363-.043.6-.256.527-.471-.074-.216-.432-.357-.795-.313l-1.652.2c-.363.043-.6.256-.526.471.073.216.43.357.794.313" fill="#434656"/><path d="M347.626 44.634s-1.497 2.672.139 3.209c1.635.537 2.157-.362 2.972-1.754 1.272-2.167-2.454-2.64-3.111-1.455" fill="#261818"/><path d="M355.81 42.214c-.999-.893-1.771-2.18-4.468-2.596-2.696-.418-6.777.31-7.061.145-.578-.333-.396-1.048 1.813-1.65 2.073-.564 5.053-1.787 7.854-.637 2.8 1.15 4.018 3.859 4.052 4.997.033 1.138-1.746.138-2.19-.259" fill="#520005"/><g><path d="M451 33c0 5.523-4.477 10-10 10s-10-4.477-10-10 4.477-10 10-10 10 4.477 10 10" fill="#2379E2"/><g fill="#FFF"><path d="M447.61 32.333c.292-.335.383-.784.17-1.164-.251-.45-.66-.655-1.192-.662-.683-.008-1.368-.007-2.053-.013-.052 0-.107.016-.153-.023l-.022.01.022-.01c.058-.103.119-.205.174-.309a3.08 3.08 0 00.344-1.153c.022-.24.046-.487-.003-.725-.142-.697-.658-1.144-1.443-1.27-.511-.08-.96.192-1.048.646-.046.238-.08.477-.17.707-.216.553-.6 1.003-1.08 1.395-.319.26-.676.474-1.037.685a19.51 19.51 0 01-1.011.483.19.19 0 00-.122.171l-.037 5.522c0 .08.055.153.139.182.31.107.627.199.95.271.743.168 1.504.233 2.266.243 1.107.018 2.215.016 3.322.02.118 0 .241-.005.357-.029.823-.164 1.236-.944.886-1.576-.038-.069-.022-.103.044-.148.497-.327.653-.868.393-1.376-.033-.067-.024-.103.044-.147.572-.378.69-1.06.267-1.57-.057-.07-.053-.106-.006-.16l-4.157 1.387M438.474 30.7v-.015-.077c0-.114 0-.228-.08-.325-.01-.012-.021-.02-.031-.03a.332.332 0 00-.102-.076.372.372 0 00-.06-.026l-.007-.002a.576.576 0 00-.174-.029l-1.76-.008-1.76-.01a.58.58 0 00-.24.054.325.325 0 00-.072.045l-.032.03c-.01.01-.022.018-.03.03-.082.095-.085.21-.086.323v.105l-.032 4.775c-.003.47-.007.939-.008 1.408 0 .29.17.445.488.447.296.003.592.004.887.005.145.004.291 0 .436.002l.402.002.402.003c.145 0 .29.005.436.002l.887.005c.318.001.49-.152.494-.442.005-.47.007-.939.01-1.409l.031-4.774V30.7"/></g></g><g><path d="M400 11.5a9.5 9.5 0 009.5 9.5 9.5 9.5 0 009.5-9.5 9.5 9.5 0 00-9.5-9.5 9.5 9.5 0 00-9.5 9.5" fill="#F54F71"/><path d="M407.035 7.588c1.128 0 2.109.661 2.613 1.636.505-.975 1.486-1.636 2.613-1.636 1.643 0 2.976 1.404 2.976 3.135 0 2.609-4.704 5.452-5.589 5.806-.927-.394-5.588-2.618-5.588-5.806 0-1.731 1.332-3.135 2.975-3.135" fill="#FFF"/></g><g><path d="M445.977 67.377c.363 4.96-3.585 9.257-8.82 9.601-5.233.344-9.77-3.396-10.134-8.355-.363-4.958 3.585-9.257 8.82-9.601 5.233-.344 9.77 3.396 10.134 8.355" fill="#FFC965"/><path d="M436.68 72a.267.267 0 01-.082-.524c.29-.073.781-.358.86-.621.017-.057.02-.13-.08-.24-.202-.22-.684.042-.94.258a.267.267 0 01-.343-.407c.523-.441 1.244-.678 1.674-.212.265.286.254.568.2.753-.165.55-.908.901-1.242.985a.273.273 0 01-.046.007M437.202 73.997c-.343.025-.737-.115-1.076-.332a.282.282 0 01-.085-.382.267.267 0 01.373-.087c.287.185.808.385.98.131.086-.128.071-.203.046-.259-.115-.26-.649-.483-.95-.516a.275.275 0 01-.24-.305.27.27 0 01.297-.245c.347.038 1.142.292 1.384.836.082.183.132.471-.094.805a.8.8 0 01-.635.354M438.479 68.998c-.114.012-.232-.038-.325-.151-.187-.227-.206-.62-.044-.88.511-.817 1.663-1.561 2.736-.264.187.226.206.62.044.88-.162.259-.445.286-.631.06-.766-.925-1.403.032-1.474.143-.08.13-.192.201-.306.212M433.996 67.947A.956.956 0 01433.09 69a1.046 1.046 0 01-1.086-.946.956.956 0 01.905-1.052c.55-.03 1.037.394 1.087.946" fill="#3D4564"/><path d="M443.3 71.268c2.412-1.393 3.452 1.451 2.104 2.8-1.06 1.059-3.495 1.932-3.495 1.932-.147-.197-1.554-2.126-1.865-3.616-.396-1.895 1.998-3.661 3.255-1.116" fill="#F54F71"/><path d="M431.21 65a.193.193 0 01-.21-.189c.001-.461.191-.917.521-1.25.33-.333.79-.542 1.273-.56.108-.006.2.074.206.178.005.105-.076.204-.186.199a1.56 1.56 0 00-1.008.444 1.423 1.423 0 00-.413.99c0 .1-.081.18-.183.187M440.753 66a.26.26 0 01-.173-.05c-.76-.549-1.502-.555-2.145-.017a.264.264 0 01-.374-.036.27.27 0 01.035-.379c.826-.689 1.843-.69 2.793-.005a.27.27 0 01.062.374.265.265 0 01-.198.112" fill="#3D4564"/></g></g></svg>