<?xml version="1.0" encoding="UTF-8"?>
<svg width="310px" height="175px" viewBox="0 0 310 175" version="1.1" xmlns="http://www.w3.org/2000/svg" xmlns:xlink="http://www.w3.org/1999/xlink">
    <!-- Generator: sketchtool 63.1 (101010) - https://sketch.com -->
    <title>4944A01F-ED59-484A-BB6C-C2E94CFBE643</title>
    <desc>Created with sketchtool.</desc>
    <defs>
        <rect id="path-1" x="0" y="0.875816993" width="310" height="174"></rect>
        <polygon id="path-3" points="0.569796451 0.0656210267 19.5974872 0.0656210267 19.5974872 40.8027939 0.569796451 40.8027939"></polygon>
    </defs>
    <g id="homepage" stroke="none" stroke-width="1" fill="none" fill-rule="evenodd">
        <g id="your-resources" transform="translate(-66.000000, -271.000000)">
            <g id="videos-/-video" transform="translate(54.000000, 178.000000)">
                <g id="civil-rights-imgs" transform="translate(12.000000, 93.000000)">
                    <mask id="mask-2" fill="white">
                        <use xlink:href="#path-1"></use>
                    </mask>
                    <use id="§Rectangle" fill="#FFE5E0" fill-rule="nonzero" xlink:href="#path-1"></use>
                    <g id="social-media-girl-header" mask="url(#mask-2)">
                        <g transform="translate(-282.000000, 6.000000)">
                            <g id="GIRL" transform="translate(231.167260, 84.500000) scale(-1, 1) translate(-231.167260, -84.500000) translate(0.167260, 0.000000)">
                                <path d="M433.652641,155.44668 C433.683464,162.383509 338.513666,168.434579 221.083861,168.963001 C103.65466,169.491423 8.43408314,164.297598 8.40264094,157.360769 C8.37181823,150.425154 103.542221,144.373478 220.972026,143.844449 C338.401226,143.316027 433.621803,148.510458 433.652641,155.44668" id="Fill-1" fill="#FBD0C8"></path>
                                <path d="M302.405971,130.462641 C298.898654,123.081808 294.836304,122.147556 294.836304,122.147556 C275.259744,124.491603 252.362697,123.327696 232.856502,120.821928 C232.856502,120.821928 232.857715,120.823731 232.858928,120.823731 C232.857715,120.823731 232.857715,120.821928 232.857715,120.821928 L232.855288,120.821928 L232.856502,120.821928 C226.468476,112.629486 216.181274,107.382283 204.222909,106.218375 C190.231246,104.859682 175.691224,110.528921 165.902641,120.288671 C168.211332,128.647042 169.416025,138.090564 168.259253,146.857746 C189.774482,150.655475 212.356101,150.420409 234.044816,149.625032 C257.113529,148.777953 281.543436,147.102431 303.960668,141.350828 C303.960668,141.350828 305.913289,137.844075 302.405971,130.462641" id="Fill-5" fill="#008455"></path>
                                <path d="M163.802641,155.817014 C185.99689,160.972558 209.6245,161.611431 232.294506,161.65057 C255.476209,161.692118 280.05655,160.955096 302.778944,156.062688 C302.778944,156.062688 305.223516,153.493346 306.281023,145.028426 C307.33853,136.564109 305.449515,134.680608 305.449515,134.680608 C281.516105,133.575074 256.37777,129.255304 233.345313,122.862357 C227.24698,112.905328 215.905581,106.473844 202.460742,105.169002 C188.410395,103.80816 173.808145,109.486363 163.978689,119.261545 C167.209081,130.926851 168.311057,144.706882 163.802641,155.817014" id="Fill-9" fill="#27C195"></path>
                                <path d="M21.4222459,117.565217 C34.258165,123.413283 47.24506,129.442784 60.053637,135.54164 C60.053637,135.54164 62.0864615,137.35662 62.8092435,145.490905 C63.5320255,153.623951 61.9961137,157.398195 61.9961137,157.398195 C59.7356367,157.611212 57.2831708,157.217997 54.6167233,156.043306 C39.223725,149.253383 26.3509535,136.901482 12.6026409,126.055563 C12.6026409,126.055563 13.1679088,124.181135 16.6207383,121.584059 C20.0735679,118.987603 21.4222459,117.565217 21.4222459,117.565217" id="Fill-17" fill="#EF4D3C"></path>
                                <path d="M103.880466,89.0653571 C103.313522,83.2620201 103.742127,85.235826 103.313522,84.8456202 C89.7896173,72.5406517 75.1775258,101.429066 67.1464338,117.507822 C67.1174072,117.509021 60.3906574,134.517438 57.9703367,137.993326 C57.9703367,137.993326 57.1415359,140.033665 58.7182337,147.354669 C60.2936963,154.675673 61.9364759,156.403727 61.9364759,156.403727 C79.3888467,155.415325 81.5905418,137.84108 85.6801982,129.314095 C86.8709045,129.58562 87.9189485,129.673132 88.7378679,129.516091 C93.6890571,119.754952 99.8395989,107.04719 101.996828,98.5435815 C103.076986,94.2866821 104.259046,92.9368458 103.880466,89.0653571" id="Fill-19" fill="#EF4D3C"></path>
                                <path d="M79.6691284,2.16514065 C65.3645778,1.35661269 53.5664083,8.04088268 46.2037631,20.1580297 C43.6263557,24.3993603 36.9703607,37.1736232 44.2643874,41.4903606 C47.0073219,43.1175904 51.7070876,41.2892759 55.5214338,43.960231 C95.7108107,72.1007144 115.843721,46.4235182 113.166395,34.9958044 C109.787837,20.5823423 112.328527,4.00961375 79.6691284,2.16514065" id="Fill-21" fill="#520005"></path>
                                <path d="M83.7564687,106.937917 C80.9783135,121.015935 76.5324179,127.683674 80.0518583,138.613004 C82.2248828,145.36002 89.5862983,148.015496 91.5354245,148.98558 C97.5298496,151.970873 101.205414,151.783876 110.243042,148.430036 C120.244642,157.691524 138.343498,155.654529 147.84284,155.654529 C152.473301,155.654529 159.696747,154.728017 164.485751,156.403727 C164.485751,156.403727 168.94738,151.714887 169.050858,138.473815 C169.15373,125.232744 164.771373,119.664595 164.771373,119.664595 C154.012148,119.402558 148.133303,117.723217 140.71198,109.439075 C136.729614,104.992907 133.201702,98.2525486 127.098353,86.6551131 C121.541438,76.0967507 105.452221,70.8317909 97.8330201,72.855472 C90.214424,74.8797582 88.7360896,81.7060509 83.7564687,106.937917" id="Fill-23" fill="#FFDFAB"></path>
                                <path d="M97.2358621,65.2405609 C86.4094805,79.2404537 82.1049199,100.915716 90.5779791,101.790255 C96.1632303,102.365817 111.75178,94.4059957 120.617771,90.7504815 C129.484373,87.0949674 131.849288,79.6701582 132.210493,75.0148246 C132.820636,67.1469962 130.544192,56.4854834 121.059515,54.0827697 C111.764593,51.7290785 103.432477,57.2280854 97.2358621,65.2405609" id="Fill-25" fill="#FF654C"></path>
                                <path d="M52.0697747,36.4820563 C51.0739812,48.1827419 47.7447967,63.6843331 54.7354918,74.2051581 C60.8844127,83.4572123 73.2213515,86.3570023 81.6379091,77.9273662 C85.4623246,74.0964235 88.7612976,68.1232286 91.0567763,63.3094691 C96.4065744,52.0923821 96.8259805,32.7195983 82.8078627,24.7987922 C69.9330414,17.5237856 52.9802652,25.779206 52.0697747,36.4820563" id="Fill-27" fill="#D4A181"></path>
                                <path d="M76.799728,32.3310163 C77.2123767,34.6394455 78.7615311,37.0623472 79.6569598,38.2358446 C81.2530773,40.3196136 83.9080549,42.8686189 85.4979107,45.6055552 C87.1823186,48.5053242 87.5329761,52.8614053 86.909933,57.7329193 C86.909933,57.7329193 95.5918351,55.9619605 97.5705448,47.9427555 C99.6913961,39.3487389 100.599348,22.2262059 83.6043606,11.5465839 C83.6043606,11.5465839 75.4691083,24.882338 76.799728,32.3310163" id="Fill-29" fill="#520005"></path>
                                <path d="M94.2329798,53.5341615 C94.9335079,59.0169772 102.664269,72.0064136 108.038311,74.3345822 C108.038311,74.3345822 109.556642,76.4937954 101.52708,85.5948181 C93.4981427,94.6958408 88.4185344,96.5714286 88.4185344,96.5714286 C88.5195901,90.1212365 85.3388308,81.7271427 79.8032243,77.7752945 C79.8032243,77.7752945 79.660374,72.9994077 83.8454522,64.4516071 C88.447853,55.0511003 94.2329798,53.5341615 94.2329798,53.5341615" id="Fill-31" fill="#D4A181"></path>
                                <path d="M104.573981,74.0352324 C103.231889,72.1166434 101.413836,72.2248715 99.5164566,72.7850749 C97.0208944,73.5229937 90.9861818,74.7983635 89.8221345,80.7552132 C89.1193579,84.3494929 88.6980445,87.0060007 87.1526409,95.6009103 C88.1568594,96.6395311 89.5947311,96.8387692 91.6484137,96.2262965 C97.4087143,94.5069457 101.202298,89.3501229 104.011642,80.9114061 C104.623339,79.075218 105.557633,75.4415827 104.573981,74.0352324" id="Fill-33" fill="#D4A181"></path>
                                <path d="M107.102641,36.0867029 C104.255574,31.3809563 107.748573,26.8537609 104.831284,21.3149808 C93.1046147,-12.8135342 65.5462463,0.957685775 48.4456864,15.1229497 C45.3201487,17.5894185 40.2319936,22.3573501 40.7405064,26.2263691 C33.6104301,44.5340199 48.9717551,41.4450848 49.0038398,50.5179465 C51.4810237,49.0261208 53.7765959,40.3620797 53.3340687,34.4661972 C53.937625,44.3505432 56.2713356,30.6778342 62.0617227,27.3887987 C62.6543823,31.0614113 60.9647879,32.3494425 60.2456055,33.5457352 C62.2124605,33.6621013 62.5423884,31.8174831 64.7277828,29.8829737 C66.7884705,40.7450411 67.0675472,29.0487088 72.3252066,26.8063525 C72.4057211,28.750713 74.5372374,32.597567 77.3534299,32.3494425 C75.6862342,30.9789084 74.2763219,27.6984926 75.3823373,24.6144831 C76.5155944,26.2559224 82.9143808,38.7951393 83.3538812,33.0402507 C89.0001897,36.072542 85.0222876,34.1835939 84.7813494,28.575856 C88.6672349,33.349329 93.5295861,42.2799654 94.3898203,38.279188 C93.8976525,42.8365525 95.0684428,47.0946898 95.0847878,52.484472 C97.5068828,43.6110951 106.604419,45.237142 104.123603,36.4234874 C104.441424,36.7824368 106.641953,37.3439494 107.102641,36.0867029" id="Fill-35" fill="#520005"></path>
                                <path d="M100.174348,60.8819876 C100.174348,60.8819876 117.402507,67.1584941 108.986797,76.8286052 C106.855219,79.2775609 99.9699662,90.72939 101.027941,78.2537379 C99.9699662,64.7409663 84.8385212,80.8556021 84.8385212,80.8556021 L81.9026409,78.0440173 L100.174348,60.8819876 Z" id="Fill-37" fill="#BA8B72"></path>
                                <path d="M34.2712381,110.217391 C47.4704262,115.935061 73.0491632,136.362577 86.2202354,142.326683 C86.2202354,142.326683 88.3105908,144.100777 89.0538282,152.054533 C89.7970657,160.007683 88.2170749,163.697557 88.2170749,163.697557 C85.8932354,163.905846 83.3713623,163.521358 80.6300629,162.372738 C64.8008166,155.733508 39.3400441,131.545881 25.2026409,120.940672 C25.2026409,120.940672 25.7832952,119.107844 29.3338432,116.568407 C32.8843912,114.029575 34.2712381,110.217391 34.2712381,110.217391" id="Fill-39" fill="#FF654C"></path>
                                <path d="M128.987796,93.5350302 C128.423075,87.7140561 125.310963,84.8676051 124.903724,84.4551283 C117.813348,77.3011205 110.071514,86.1062382 103.850364,97.6748304 C98.2806729,108.031847 93.953612,119.88304 90.4114999,126.023894 C87.8019758,131.307326 85.9564849,135.516273 82.9526409,141.828491 C82.9526409,141.828491 83.3580338,146.280956 84.9273162,153.624367 C86.4978289,160.967777 88.133549,162.701863 88.133549,162.701863 C100.393145,161.614151 114.787974,135.737543 114.829805,135.729727 C119.760956,125.938513 125.887371,113.189611 128.036753,104.659879 C129.112674,100.389 129.365506,97.4198885 128.987796,93.5350302" id="Fill-41" fill="#FF654C"></path>
                                <path d="M122.316205,115.071954 C124.182039,121.1522 120.837448,126.468231 117.554548,122.483489 C116.442305,124.083714 116.059462,124.933719 114.837749,119.287907 C107.544364,123.090723 112.270337,86.1370944 122.316205,115.071954" id="Fill-43" fill="#520005"></path>
                                <path d="M117.086978,105.114737 C117.408532,104.276296 117.800572,103.483079 118.182708,102.686292 C118.556107,101.824048 118.913195,100.945738 119.241739,100.049575 C119.31805,99.7812027 119.385041,99.5050943 119.439216,99.2200599 C119.976304,96.3334177 119.784071,93.5729285 117.9963,90.9933379 C116.600569,88.9790555 113.306971,88.8255297 111.258812,89.8246376 C109.345216,90.7565035 108.519195,92.014463 108.413758,94.0025627 C108.024631,95.4211888 108.105019,97.1236591 108.427738,98.5202679 C108.954341,100.801733 110.298227,102.337586 111.594346,103.752047 C112.955125,105.23851 114.229691,105.587811 115.461732,107.068323 C115.928918,106.076951 116.584841,106.184657 117.086978,105.114737" id="Fill-45" fill="#190003"></path>
                                <path d="M117.602641,89.6661307 C117.400318,89.485192 117.184899,89.3358125 116.956383,89.2236025 C116.723802,90.5574988 116.577931,91.9713447 116.552641,93.4223602 C117.116254,92.5899023 117.421093,91.0343913 117.602641,89.6661307" id="Fill-47" fill="#673F36"></path>
                                <path d="M113.347984,96.5714286 C113.738708,93.8139065 111.977249,92.0496451 109.894884,90.2732919 C109.102548,90.703417 108.540802,91.2101239 108.152641,91.8262335 C109.808412,93.5173678 111.760749,94.9948791 113.347984,96.5714286" id="Fill-49" fill="#673F36"></path>
                                <path d="M116.388493,96.4227969 C116.811002,95.5413534 117.305719,94.7089125 117.778356,93.8843362 C118.242638,92.9859535 118.676486,92.0839409 119.079301,91.1698289 C119.174187,90.8951718 119.262508,90.6168848 119.331136,90.3271035 C120.026365,87.3827069 119.847933,84.5574897 117.914418,81.7201731 C116.404009,79.5029523 112.628881,79.3589691 110.142764,80.4049649 C107.821352,81.381389 106.769258,82.720796 106.518617,84.7728596 C105.966611,86.2592747 105.949304,88.0130872 106.236348,89.44324 C106.706598,91.78327 108.203878,93.3537762 109.682062,94.8625753 C111.239615,96.4500206 112.890264,98.1245819 114.369045,99.7204969 C115.034436,98.718664 115.736827,97.5498589 116.388493,96.4227969" id="Fill-51" fill="#855348"></path>
                                <path d="M116.388493,96.4227969 C116.811002,95.5413534 117.305719,94.7089125 117.778356,93.8843362 C118.242638,92.9859535 118.676486,92.0839409 119.079301,91.1698289 C119.174187,90.8951718 119.262508,90.6168848 119.331136,90.3271035 C120.026365,87.3827069 119.847933,84.5574897 117.914418,81.7201731 C116.404009,79.5029523 112.628881,79.3589691 110.142764,80.4049649 C107.821352,81.381389 106.769258,82.720796 106.518617,84.7728596 C105.966611,86.2592747 105.949304,88.0130872 106.236348,89.44324 C106.706598,91.78327 108.203878,93.3537762 109.682062,94.8625753 C111.239615,96.4500206 112.890264,98.1245819 114.369045,99.7204969 C115.034436,98.718664 115.736827,97.5498589 116.388493,96.4227969" id="Fill-53" fill="#520005"></path>
                                <path d="M112.318202,86.0745342 C112.591378,83.3226597 111.207102,81.3082075 109.312578,79.7763975 C108.379282,80.1801644 107.648313,80.610223 107.102641,81.1805045 C107.242976,81.2888017 107.383311,81.3977248 107.523646,81.504144 C109.297591,82.8713173 110.68868,84.4776207 112.318202,86.0745342" id="Fill-55" fill="#855348"></path>
                                <path d="M115.502641,80.3941679 C115.11608,80.1132904 114.690549,79.9116348 114.237361,79.7763975 C113.864,81.0735552 113.55538,82.5019491 113.402641,83.9751553 C114.236104,83.3397801 114.970884,81.9850065 115.502641,80.3941679" id="Fill-57" fill="#855348"></path>
                                <path d="M115.428028,85.9214055 C115.985662,85.0469846 116.610488,84.2305074 117.207684,83.4409533 C117.796717,82.58175 118.348699,81.7319113 118.876819,80.8896813 C119.003668,80.6344956 119.121098,80.3570689 119.214665,80.0644247 C120.153474,77.113986 119.850794,73.9739139 117.307531,71.5373584 C115.321902,69.636927 110.894111,70.2795736 107.795098,71.4115214 C104.902685,72.466211 103.678779,73.7304339 103.439523,75.5067841 C102.799626,76.8418269 102.791462,78.3752824 103.103561,79.6014616 C103.615354,81.6072449 105.308351,82.9030733 107.052841,84.3335181 C108.887759,85.8371239 110.862713,87.5660658 112.681931,89.2236025 C113.626393,88.2227594 114.579645,87.0369651 115.428028,85.9214055" id="Fill-62" fill="#190003"></path>
                                <path d="M108.802884,75.8116739 C109.842478,76.4098365 110.823072,77.176078 111.886856,77.6770186 C112.88515,75.5732876 114.641604,74.1891095 115.79389,72.4061563 C116.092435,71.9403694 116.343778,71.4180069 116.552641,70.8692792 C114.556053,69.849821 110.980604,70.4249141 108.460679,71.3449531 C106.718385,71.9799173 105.62569,72.6857383 105.002641,73.5612859 C106.251688,74.382455 107.528466,75.0794876 108.802884,75.8116739" id="Fill-64" fill="#673F36"></path>
                                <path d="M114.407497,76.4134197 C114.998793,75.499988 115.643058,74.6234378 116.252216,73.7628695 C116.849055,72.8328411 117.40401,71.900354 117.93556,70.9752431 C118.057515,70.6961731 118.172694,70.4146444 118.260772,70.1171336 C119.150795,67.1229708 118.619245,64.0562744 115.685558,61.8138794 C113.39552,60.062623 108.754467,61.057194 105.203615,62.5207747 C101.886201,63.8878489 100.471404,65.3876964 100.261987,67.2311565 C99.5727582,68.6719936 99.6503657,70.2197871 100.095069,71.3975362 C100.825565,73.3288973 102.900643,74.30011 104.938764,75.4686387 C107.080978,76.6974073 109.296488,78.2482742 111.306276,79.7763975 C112.430969,78.7437156 113.506388,77.5856366 114.407497,76.4134197" id="Fill-66" fill="#520005"></path>
                                <path d="M114.039622,69.4254528 C114.547585,68.3326928 115.105799,67.2746041 115.638585,66.2388039 C116.154419,65.1212789 116.630293,64.0080878 117.097086,62.9041836 C117.200011,62.5760461 117.298697,62.2497659 117.365901,61.9055311 C118.0561,58.4316071 117.31686,55.1291814 114.088663,52.5926163 C111.568829,50.6120277 106.930565,51.3655058 103.157474,53.3962437 C99.6344278,55.2920119 98.1105395,57.2137834 98.0306216,59.4036371 C97.3864352,61.1310027 97.6328486,62.9023262 98.2655317,64.2377841 C99.2996204,66.4226847 101.740142,67.48325 104.087427,68.7419361 C106.553983,70.0662496 109.05747,71.7397511 111.240681,73.4782609 C112.285062,72.3006805 113.246498,70.8401589 114.039622,69.4254528" id="Fill-68" fill="#673F36"></path>
                                <path d="M97.6526409,60.3030455 C97.7123623,60.0033836 97.7897563,59.7012452 97.9024957,59.4034408 C97.9829367,57.2141757 99.516801,55.2917582 103.06291,53.3965827 C106.860702,51.3651973 111.529329,50.6123279 114.065659,52.592325 C117.314989,55.1295446 118.059069,58.4320163 117.364351,61.9053696 C117.296707,62.2502284 117.197375,62.575894 117.093777,62.9040361 C116.623928,64.0079557 116.144938,65.1211623 115.625728,66.2387029 C115.089454,67.2751367 114.527586,68.3332402 114.016298,69.4253962 C113.217981,70.8407412 112.250251,72.3006641 111.199033,73.4782609 C109.00153,71.7403459 106.481654,70.0668212 103.998951,68.7424891 C101.6363,67.4837855 99.1791924,66.4250629 98.1389436,64.2376552 C98.003047,63.9534717 97.8896982,63.6457611 97.7958504,63.326906" id="Fill-70" fill="#190003"></path>
                                <path d="M110.968919,61.6057398 C111.442664,60.4073827 112.006298,59.2400333 112.491583,58.1298354 C112.99934,56.9679579 113.458508,55.7385931 113.949258,54.5651637 C114.053725,54.2198228 114.155155,53.87205 114.223787,53.5096853 C114.912539,49.8586784 114.172769,45.1777289 110.263161,42.185788 C107.824592,40.317421 105.522679,40.9096076 103.283325,41.636769 C101.089524,42.3493385 98.2306577,43.7647497 95.8242784,45.6920922 C94.8093719,46.5055888 93.7999316,47.372589 93.0140016,48.3824678 C92.2402188,49.3722828 92.1315005,50.2775866 91.7367134,51.3452249 C89.8386985,56.4614985 95.3754359,59.8012122 99.581437,61.5552763 C102.522905,62.7809932 105.556692,64.3672508 108.161072,66.1304348 C109.281053,64.8287186 110.209106,63.1664617 110.968919,61.6057398" id="Fill-72" fill="#855348"></path>
                                <path d="M114.223787,53.5092296 C114.155155,53.8721979 114.053725,54.2193586 113.949258,54.5646953 C113.458508,55.7381105 112.987192,56.9249014 112.491583,58.1299319 C111.973501,59.2498442 111.442664,60.4074518 110.968919,61.6051864 C110.209106,63.1664974 109.281052,64.8281263 108.161072,66.1304348 C105.556691,64.3666641 102.522904,62.7804256 99.5820433,61.5547235 C95.3754345,59.8012886 89.8386967,56.4610072 91.7367118,51.3447953 C92.131499,50.2777779 92.2402173,49.3718771 93.0140001,48.382074 C93.8005375,47.3722073 94.8093705,46.5052176 95.8248845,45.6923388 C98.2306566,43.7650196 101.089523,42.3496255 103.283325,41.6370646 C105.522679,40.9093039 107.824591,40.3177325 110.263161,42.185469 C114.172769,45.1779817 114.912539,49.8582668 114.223787,53.5092296" id="Fill-74" fill="#520005"></path>
                                <path d="M119.682755,106.542542 C119.774711,106.90124 119.539327,107.252755 119.150683,107.329649 C116.883012,107.774958 115.607194,107.929591 113.25393,108.115488 C112.850248,108.147598 112.454086,107.869596 112.36907,107.496956 C112.283475,107.125161 112.540836,106.803221 112.943361,106.777449 C115.293734,106.625773 116.574179,106.480435 118.823921,106.033436 C119.208517,105.956965 119.590221,106.184267 119.682755,106.542542" id="Fill-76" fill="#008455"></path>
                                <path d="M118.633225,103.40455 C118.723774,103.770482 118.489276,104.129964 118.103283,104.206934 C115.84479,104.662306 114.557954,104.811517 112.200786,104.967177 C111.796219,104.994267 111.4021,104.706596 111.318517,104.326474 C111.234353,103.945493 111.493229,103.619981 111.896055,103.598911 C114.24916,103.478511 115.5418,103.34048 117.781139,102.884678 C118.163069,102.806418 118.543257,103.039909 118.633225,103.40455" id="Fill-78" fill="#008455"></path>
                                <g id="Group-82" transform="translate(77.702641, 0.000000)">
                                    <mask id="mask-4" fill="white">
                                        <use xlink:href="#path-3"></use>
                                    </mask>
                                    <g id="Clip-81"></g>
                                    <path d="M19.5688963,39.5342605 C19.8634522,33.3333745 17.8379404,6.92602845 15.5260875,3.65521159 C12.1662728,-1.09358344 -0.0466477941,-0.141777539 0.594099265,0.976188025 C6.50692721,11.3111987 6.30390662,26.3618929 7.51264191,38.7052682 C7.51264191,38.7052682 8.65037868,40.4198433 13.539889,40.7551728 C18.4293993,41.0917063 19.5688963,39.5342605 19.5688963,39.5342605" id="Fill-80" fill="#E2104C" mask="url(#mask-4)"></path>
                                </g>
                                <path d="M106.031152,50.5239038 C105.619649,58.9214852 99.4197935,65.4309225 92.1832907,65.0661323 C84.945574,64.6982559 79.4121348,57.5925626 79.8242446,49.1962156 C80.2351405,40.7973997 86.4362098,34.286728 93.6739265,34.6546044 C100.911036,35.0212463 106.442048,42.1269396 106.031152,50.5239038" id="Fill-83" fill="#F54F71"></path>
                                <path d="M102.886292,49.8388553 C102.573226,56.210405 97.8621209,61.1487394 92.3617016,60.8708085 C86.8612824,60.5922641 82.6554349,55.2017552 82.9691057,48.8314326 C83.2809633,42.4604965 87.9938816,37.5209349 93.4943009,37.8000929 C98.9947202,38.0774102 103.198754,43.4685327 102.886292,49.8388553" id="Fill-85" fill="#F54F71"></path>
                                <path d="M0.306047415,105.989913 C0.306047415,105.989913 3.49168229,101.509022 6.16724189,98.4681138 C8.8428015,95.4278129 10.3892202,94.5915176 13.0062363,96.661303 C14.0905355,97.5182475 22.5973951,104.92769 22.0250396,117.196391 C21.648244,125.279365 13.9286068,126.913693 13.9286068,126.913693 C13.9286068,126.913693 11.3277835,128.100419 5.60858804,122.245137 C0.525896704,117.040307 -0.648708842,107.964954 0.306047415,105.989913" id="Fill-87" fill="#BC8668"></path>
                                <path d="M50.9773127,57.7329193 L47.4897853,65.805381 C46.6877972,67.6619945 48.0078397,69.7218398 50.1273797,69.9215575 L53.5526409,70.3291925 L50.9773127,57.7329193 Z" id="Fill-89" fill="#D4A181"></path>
                                <path d="M29.2667011,118.927932 L14.4166669,89.1012743 C13.7345056,87.7378325 12.4648112,86.7757608 10.9837007,86.4990587 L3.20682255,85.0462209 C2.70134044,84.9513516 2.2569474,85.1818353 2.00300853,85.5479334 L2.0018107,85.546109 L0.002640944,87.7718882 L2.65821875,88.2541403 L16.7422439,115.518111 L27.6879678,120.598483 C28.7276799,121.081343 29.7847603,119.96298 29.2667011,118.927932" id="Fill-91" fill="#A3A9CE"></path>
                                <path d="M0.149924447,88.926031 L15.3600768,117.617591 L26.592369,122.697907 C27.6599745,123.180762 28.7447896,122.061803 28.213138,121.026766 L12.9734836,91.2010443 C12.2734245,89.8376174 10.9704171,88.8755562 9.45044676,88.5988572 L1.46952671,87.1454271 C0.450476616,86.9605557 -0.33563018,88.0205258 0.149924447,88.926031" id="Fill-93" fill="#848FBB"></path>
                                <path d="M37.8026409,112.640556 L34.2517284,107.626048 C32.96126,105.803792 31.3484781,104.255415 29.5044315,103.068005 C27.661599,101.882398 26.050031,100.336423 24.7601696,98.5153681 L21.8945529,94.4720497 C20.5160704,96.0720794 20.1033148,98.3538035 20.8171392,100.413301 L21.5503875,102.527455 L24.5282981,108.1678 L11.1981118,105.644029 C9.55255213,105.332312 8.14189902,106.814621 8.44357484,108.537176 C8.61535403,109.514371 9.31278966,110.307779 10.22935,110.568445 L15.7444938,112.13484 L19.4653645,119.816665 C20.4511221,121.852739 25.5529032,124.632971 28.2934793,123.664784" id="Fill-95" fill="#D4A181"></path>
                                <path d="M69.3026409,70.3291925 C64.741912,77.4078351 56.7026409,76.7308059 56.7026409,76.7308059 C56.7026409,76.7308059 58.7115755,79.2231998 64.914426,76.1177623 C69.2019587,73.9715003 69.3026409,70.3291925 69.3026409,70.3291925" id="Fill-97" fill="#190003"></path>
                                <path d="M9.43649765,95.3393023 C9.53728407,95.9102885 9.1556605,96.4545098 8.58453746,96.5552721 C8.01393936,96.6560344 7.46906279,96.275027 7.3688013,95.7040407 C7.26801488,95.1330545 7.64911352,94.5888332 8.22023656,94.4880709 C8.79135959,94.3878335 9.33571123,94.768316 9.43649765,95.3393023" id="Fill-99" fill="#434656"></path>
                                <path d="M9.37112086,91.3145662 L7.05826638,91.1055741 C6.55034539,91.0594679 6.21853391,90.8363411 6.32132745,90.6098489 C6.42487681,90.3833567 6.92523945,90.2356151 7.43391627,90.2817212 L9.74677075,90.4907133 C10.2554476,90.5364829 10.587259,90.7599463 10.4837097,90.986102 C10.3801603,91.2125942 9.87979768,91.3606723 9.37112086,91.3145662" id="Fill-101" fill="#434656"></path>
                                <path d="M64.2815356,50.1667368 C64.2815356,50.1667368 66.2452229,53.6731645 64.0990973,54.3772396 C61.9529717,55.0819212 61.2670601,53.9023982 60.1971794,52.0770182 C58.5283634,49.2334279 63.4181355,48.611222 64.2815356,50.1667368" id="Fill-216" fill="#261818"></path>
                                <path d="M55.1312206,47.46072 C56.3293391,46.5231348 57.25644,45.1725656 60.4920957,44.7352885 C63.7277514,44.2973548 68.625076,45.0609483 68.9659941,44.8882698 C69.6588671,44.5383168 69.4411946,43.7878547 66.7892691,43.1562322 C64.301671,42.564004 60.7257104,41.2804052 57.3649697,42.4871851 C54.0054553,43.6939649 52.5436771,46.5375794 52.5032085,47.7325409 C52.4627398,48.9268459 54.5983829,47.8776434 55.1312206,47.46072" id="Fill-218" fill="#520005"></path>
                            </g>
                            <g id="Group-12" transform="translate(447.000000, 51.000000)">
                                <path d="M30.0886417,0.3189007 L5.94667414,0.3189007 C2.96469687,0.3189007 0.546651326,2.61110163 0.546651326,5.43886352 L0.546651326,17.4679595 C0.546651326,20.2965148 2.96469687,22.5879223 5.94667414,22.5879223 L9.88833939,22.5879223 L10.0950028,29.2844179 L17.0730304,22.5879223 L30.0886417,22.5879223 C33.0706189,22.5879223 35.4878278,20.2965148 35.4878278,17.4679595 L35.4878278,5.43886352 C35.4878278,2.61110163 33.0706189,0.3189007 30.0886417,0.3189007" id="Fill-119" fill="#FFFFFF"></path>
                                <path d="M13.2525337,11.1809697 C13.2525337,12.609772 12.0671553,13.7671766 10.6049976,13.7671766 C9.14284004,13.7671766 7.95841603,12.609772 7.95841603,11.1809697 C7.95841603,9.75309994 9.14284004,8.59476277 10.6049976,8.59476277 C12.0671553,8.59476277 13.2525337,9.75309994 13.2525337,11.1809697" id="Fill-121" fill="#FF654C"></path>
                                <path d="M21.7231219,11.1809697 C21.7231219,12.609772 20.5377435,13.7671766 19.0755859,13.7671766 C17.6134283,13.7671766 16.4290043,12.609772 16.4290043,11.1809697 C16.4290043,9.75309994 17.6134283,8.59476277 19.0755859,8.59476277 C20.5377435,8.59476277 21.7231219,9.75309994 21.7231219,11.1809697" id="Fill-123" fill="#FF654C"></path>
                                <path d="M29.1348866,11.1809697 C29.1348866,12.609772 27.9495082,13.7671766 26.488305,13.7671766 C25.0261474,13.7671766 23.840769,12.609772 23.840769,11.1809697 C23.840769,9.75309994 25.0261474,8.59476277 26.488305,8.59476277 C27.9495082,8.59476277 29.1348866,9.75309994 29.1348866,11.1809697" id="Fill-125" fill="#FF654C"></path>
                            </g>
                            <g id="Group-11" transform="translate(533.000000, 126.000000)">
                                <path d="M21,10.5 C21,16.2992126 16.2992126,21 10.5,21 C4.7007874,21 0,16.2992126 0,10.5 C0,4.7007874 4.7007874,0 10.5,0 C16.2992126,0 21,4.7007874 21,10.5" id="Fill-141" fill="#F54F71"></path>
                                <path d="M13.5398512,6 C12.2284803,6 11.0871413,6.73958445 10.5005313,7.82904511 C9.91285866,6.73958445 8.77258236,6 7.46014878,6 C5.54941552,6 4,7.56959845 4,9.50629777 C4,12.4248035 9.47077577,15.6027559 10.5005313,16 C11.5791711,15.5586177 17,13.0707288 17,9.50629777 C17,7.56959845 15.4505845,6 13.5398512,6" id="Fill-143" fill="#FFFFFF"></path>
                            </g>
                            <g id="Group-8" transform="translate(547.000000, 74.000000)">
                                <path d="M27.1396919,13.8552477 C27.1396919,21.3011079 21.1035678,27.337232 13.6577076,27.337232 C6.21285295,27.337232 0.176728892,21.3011079 0.176728892,13.8552477 C0.176728892,6.41039307 6.21285295,0.374269006 13.6577076,0.374269006 C21.1035678,0.374269006 27.1396919,6.41039307 27.1396919,13.8552477" id="Fill-177" fill="#2379E2"></path>
                                <g id="Group-4" transform="translate(4.287840, 5.522417)" fill="#FFFFFF">
                                    <path d="M18.3605656,8.21584645 C18.7187848,7.72838027 18.8302307,7.07687192 18.5684212,6.52602581 C18.2597335,5.8717213 17.7564577,5.57532695 17.1037027,5.56414225 C16.2634355,5.55388962 15.4213993,5.55482168 14.5784785,5.54643316 C14.5139106,5.54643316 14.4475738,5.56880254 14.3918508,5.51287908 C14.3830058,5.51847142 14.3732764,5.52219966 14.363547,5.52685994 C14.3732764,5.52219966 14.3821214,5.51847142 14.3918508,5.51194702 C14.4626101,5.36281779 14.5377919,5.21555267 14.6041288,5.06455932 C14.8394036,4.53421848 14.9826913,3.97405179 15.0278004,3.39151572 C15.0552196,3.04199408 15.0844079,2.68594803 15.0242624,2.33922256 C14.849133,1.32793994 14.2149524,0.67922777 13.2508563,0.498408573 C12.6219826,0.380037244 12.0700597,0.776161772 11.9621517,1.43512658 C11.9046598,1.77998793 11.8630886,2.12764546 11.7525272,2.45945801 C11.4871796,3.26382381 11.0157455,3.91626421 10.4257894,4.48388736 C10.0321906,4.86137074 9.59348262,5.17267801 9.15035222,5.47746089 C9.14946773,5.47746089 9.14946773,5.47746089 9.14946773,5.47746089 C8.7408325,5.72166001 8.3304283,5.9621309 7.9076412,6.17836829 C7.81653855,6.22497117 7.75816209,6.32097312 7.75727759,6.4272277 L7.71216,14.4391958 C7.71128402,14.555703 7.77938989,14.6619576 7.88199094,14.7039002 C8.26409141,14.8586218 8.65326781,14.9928381 9.05040464,15.0972286 C9.9640847,15.3414277 10.8981081,15.4346335 11.8365539,15.4495464 C13.1977868,15.475644 14.5590197,15.4719158 15.9211371,15.4775828 C16.0661938,15.4784402 16.2165574,15.4709837 16.3589606,15.4364976 C17.3699347,15.1988229 17.879402,14.0663727 17.4486545,13.15016 C17.4026609,13.0494978 17.4212353,13.0000987 17.503493,12.9348547 C18.1137924,12.4604373 18.3057271,11.6765767 17.9855411,10.9393191 C17.9448544,10.841453 17.9554683,10.7892578 18.0403795,10.7240138 C18.7435505,10.1768959 18.8886072,9.18611853 18.3676415,8.44792882 C18.2977667,8.34726659 18.3030736,8.2941393 18.3605656,8.21584645" id="Fill-179"></path>
                                    <path d="M6.71202692,7.22143252 C6.71202692,7.21552924 6.71202692,7.20878265 6.71202692,7.2037227 C6.71202692,7.17083304 6.71202692,7.13878671 6.71202692,7.10674038 C6.71303666,6.96506185 6.71101719,6.82422664 6.60398489,6.70363123 C6.59186803,6.68845139 6.57672195,6.67833149 6.56359535,6.66652495 C6.54945901,6.65303176 6.5363324,6.64038189 6.52118632,6.62857534 C6.50503051,6.6167688 6.48887469,6.60664891 6.47170913,6.59652901 C6.45757279,6.58725244 6.44141697,6.5788192 6.42526115,6.57122927 C6.40001769,6.55942273 6.37477422,6.54845951 6.34751128,6.53918294 C6.34347233,6.53833962 6.34044311,6.53749629 6.33741389,6.53665297 C6.26572245,6.51472653 6.18797258,6.50123333 6.10315453,6.50123333 C5.31656814,6.49786004 4.52998175,6.49448674 3.74339536,6.49027012 C2.95680897,6.48605349 2.17022258,6.48183687 1.38363618,6.47758285 C1.29881814,6.47677692 1.222078,6.49027012 1.14937682,6.51050991 C1.14634761,6.51219655 1.14230865,6.51219655 1.13927944,6.5138832 C1.11201649,6.52231645 1.08576329,6.53327967 1.05951008,6.54508621 C1.04436401,6.55267613 1.02921793,6.56026605 1.01306211,6.56954262 C0.99690629,6.5788192 0.979740733,6.58978241 0.964594654,6.60158896 C0.948438836,6.61255218 0.935312233,6.62520205 0.922185631,6.63869524 C0.908049291,6.65050178 0.892903211,6.66062168 0.879776609,6.6749582 C0.771734576,6.79471028 0.767695621,6.93638881 0.766685883,7.07806734 C0.765676144,7.10927035 0.765676144,7.14131668 0.765676144,7.17336302 C0.765676144,7.18010961 0.764666405,7.18601288 0.764666405,7.19275948 C0.764666405,7.19781943 0.764666405,7.2037227 0.765676144,7.20793932 C0.751539803,9.18806541 0.737403462,11.1673482 0.723267122,13.1457876 C0.719228167,13.7302115 0.713169735,14.3137921 0.712159997,14.8982161 C0.712159997,15.259159 0.939351188,15.451437 1.36647063,15.4548103 C1.76329791,15.4573403 2.16012519,15.4590269 2.55695247,15.4607136 C2.75183203,15.4649302 2.94671158,15.4607136 3.14159114,15.4624002 L3.67978182,15.4649302 C3.8595153,15.4657735 4.03924878,15.4666168 4.21898225,15.4683035 C4.41386181,15.4674602 4.60874136,15.4742067 4.80362092,15.4708335 C5.19943846,15.4733634 5.59727548,15.4758934 5.99309302,15.4775828 C6.42021246,15.4784234 6.65043287,15.2886753 6.65548156,14.9277324 C6.66355947,14.3433085 6.66456921,13.7597279 6.6696179,13.1761473 C6.6827445,11.1968645 6.69688084,9.21673845 6.71101719,7.23829901 C6.71202692,7.23239574 6.71202692,7.22733579 6.71202692,7.22143252" id="Fill-181"></path>
                                </g>
                            </g>
                            <g id="Group-3" transform="translate(508.000000, 32.000000)">
                                <path d="M34.8174714,15.8083829 C35.4886116,25.1560734 28.4537691,33.2773511 19.1063233,33.9476104 C9.75887752,34.6196665 1.63781229,27.5855385 0.966672151,18.237848 C0.295532011,8.88925915 7.32947599,0.767981399 16.6769218,0.0968236954 C26.0243676,-0.573435537 34.1463313,6.45979405 34.8174714,15.8083829" id="Fill-183" fill="#FFC965"></path>
                                <path d="M26.8323798,6.70745764 C23.767288,1.52658974 19.0402198,5.7187003 20.1897389,9.67556749 C21.0953142,12.7851909 24.7158607,17.0223285 24.7158607,17.0223285 C25.1809333,16.8100582 29.6780977,14.7195164 31.7235397,12.2733528 C34.3253139,9.16189151 31.6621151,3.30561781 26.8323798,6.70745764" id="Fill-185" fill="#F54F71"></path>
                                <path d="M6.5229812,8.25414021 C8.88402807,2.70472893 14.2095103,6.12403549 13.601672,10.1861169 C13.1237669,13.3780784 10.074786,18.0829346 10.074786,18.0829346 C9.57819186,17.9432406 4.77511236,16.5554313 2.38380708,14.4545436 C-0.658054279,11.7811846 1.20461858,5.6264328 6.5229812,8.25414021" id="Fill-187" fill="#F54F71"></path>
                                <path d="M13.2142429,22.0364463 C12.8142047,21.9449844 12.4779407,22.352065 12.6237103,22.753148 C13.4859044,25.1214124 16.2091459,26.7519838 19.2984678,26.5510674 C22.3877897,26.3509007 24.826946,24.3852188 25.3056667,21.9292409 C25.3868338,21.5131641 24.9892803,21.1540635 24.6082916,21.2965043 C22.9360822,21.9224937 21.0236843,22.3370712 18.9746273,22.4705157 C16.9263986,22.6039601 14.9684477,22.4397785 13.2142429,22.0364463" id="Fill-189" fill="#3D4564"></path>
                                <path d="M19.3573004,22.3387095 C18.1727499,22.4889761 17.2056078,23.9017397 16.8314632,25.7922742 C17.6512588,26.3804976 18.5685631,26.661766 19.5270378,26.5397546 C20.4862348,26.4177432 21.3717585,25.9065796 22.1344935,25.115432 C21.61228,23.3392029 20.5432955,22.1871585 19.3573004,22.3387095" id="Fill-191" fill="#F54F71"></path>
                            </g>
                            <g id="Group-10" transform="translate(488.000000, 93.000000)">
                                <path d="M24.25008,11.3179645 C24.7142038,18.0176045 19.6688585,23.8240593 12.980075,24.2889364 C6.29179163,24.7538135 0.493745643,19.701281 0.0296218888,13.0016411 C-0.434501865,6.30200108 4.61034329,0.49504531 11.2991268,0.0296672977 C17.9879103,-0.435209769 23.7859563,4.61832455 24.25008,11.3179645" id="Fill-193" fill="#FFC965"></path>
                                <path d="M12.4806272,17.766202 C12.2805952,17.7796609 12.0934504,17.6489969 12.0430221,17.4476734 C11.9864304,17.2211143 12.1237073,16.9917513 12.3495137,16.9362331 C12.8095313,16.8201497 13.5872468,16.3687139 13.7116364,15.9509255 C13.7385315,15.8600776 13.744695,15.7439941 13.5844452,15.5701493 C13.2645061,15.2224596 12.5019191,15.6368833 12.0962519,15.9795258 C11.9180722,16.1286959 11.6524835,16.1079467 11.5023194,15.9296155 C11.3521553,15.7507236 11.3745678,15.4849092 11.5527476,15.3340568 C12.3814516,14.634752 13.523371,14.2595836 14.2041522,14.9975829 C14.6232669,15.4523834 14.6070178,15.8982113 14.5196088,16.1920651 C14.2596233,17.0652148 13.0835247,17.6215182 12.5545886,17.7544254 C12.5299348,17.7605941 12.5047207,17.7645196 12.4806272,17.766202" id="Fill-195" fill="#3D4564"></path>
                                <path d="M13.3065024,19.8774642 C12.762355,19.9159685 12.138687,19.6954441 11.6024917,19.350656 C11.4031224,19.2211416 11.342914,18.9498616 11.4684428,18.745089 C11.5945396,18.539733 11.8580933,18.4778928 12.0580305,18.6062403 C12.5135694,18.9008562 13.3383106,19.2170578 13.6092483,18.8145133 C13.7461371,18.6120743 13.723417,18.4930611 13.6836567,18.4038013 C13.5001916,17.9907556 12.6561383,17.6377999 12.1790153,17.5852941 C11.9444298,17.5596246 11.7740288,17.343184 11.7990209,17.1022407 C11.8240131,16.8612974 12.0330384,16.6856946 12.2693279,16.7125309 C12.8191553,16.7726209 14.0772832,17.1757488 14.4612536,18.0385942 C14.5901904,18.3297097 14.6691429,18.7859268 14.3113007,19.3150687 C14.0653551,19.6791089 13.7080809,19.8488777 13.3065024,19.8774642" id="Fill-197" fill="#3D4564"></path>
                                <path d="M15.2438019,12.4789044 C15.0829179,12.4905627 14.9172553,12.4383781 14.7861057,12.3184645 C14.5238065,12.0791926 14.496196,11.6633814 14.7245132,11.3891347 C15.4445085,10.5242029 17.0650291,9.73754793 18.575108,11.1093365 C18.8384691,11.3486084 18.8660796,11.7644196 18.6377624,12.0386663 C18.4094453,12.3134681 18.0112178,12.3423362 17.7489186,12.1036195 C16.6710494,11.125436 15.7742409,12.1363736 15.6749495,12.2546217 C15.560791,12.391745 15.4041548,12.4672461 15.2438019,12.4789044" id="Fill-199" fill="#3D4564"></path>
                                <path d="M9.28723641,11.8682032 C9.33987143,12.7421662 8.91180067,13.4891108 8.3311706,13.5355578 C7.75095173,13.5820049 7.23734907,12.9104183 7.18471405,12.0359814 C7.13207902,11.1615444 7.56014978,10.4145998 8.14036865,10.3681528 C8.72099872,10.3212318 9.23460139,10.9928183 9.28723641,11.8682032" id="Fill-201" fill="#3D4564"></path>
                                <path d="M21.3245668,15.3247629 C24.7206805,13.3609594 26.1847697,17.3709458 24.2878279,19.2718134 C22.7960678,20.7653888 19.367836,21.9964756 19.367836,21.9964756 C19.1607981,21.7186368 17.1803494,18.999603 16.7425556,16.898671 C16.1851838,14.2272229 19.555109,11.7369073 21.3245668,15.3247629" id="Fill-203" fill="#F54F71"></path>
                                <path d="M5.40209114,8.25029831 C5.39435686,8.25073656 5.38662259,8.25117481 5.37888831,8.25117481 C5.20736938,8.25029831 5.06815242,8.11575597 5.0690579,7.95053623 C5.07088216,7.21953745 5.371609,6.49730364 5.89480999,5.96877575 C6.41755603,5.44024786 7.14503289,5.10893187 7.9093613,5.07956921 C8.0813352,5.07124248 8.22692156,5.19833459 8.23556575,5.36355434 C8.24420994,5.52921234 8.11500204,5.68610536 7.94075336,5.67821689 C7.34384927,5.71371503 6.75968398,5.96395502 6.3452178,6.38292074 C5.93075162,6.80100997 5.69280891,7.37292448 5.69098908,7.95185097 C5.69053412,8.11049699 5.56314606,8.23978035 5.40209114,8.25029831" id="Fill-205" fill="#3D4564"></path>
                                <path d="M18.4441242,9.30787401 C18.3604949,9.31202625 18.2746791,9.29583249 18.2014351,9.25555568 C17.131198,8.67548666 16.086651,8.66884306 15.1820329,9.23728579 C15.0224265,9.33735497 14.7873898,9.3195003 14.6556599,9.19908511 C14.52393,9.0782547 14.5463405,8.89929282 14.7054002,8.79922364 C15.8674656,8.07050414 17.2995499,8.06842802 18.6359798,8.7934105 C18.8037851,8.88475995 18.8425935,9.06206093 18.7228887,9.18953494 C18.6551107,9.26178406 18.5518038,9.30164563 18.4441242,9.30787401" id="Fill-207" fill="#3D4564"></path>
                            </g>
                            <g id="Group-224" opacity="0.6" transform="translate(454.000000, 8.000000)">
                                <path d="M21.0788,9.67531351 C21.5358,9.06936757 21.6773,8.26161081 21.3443,7.57555676 C20.9503,6.76471892 20.3093,6.39498919 19.4763,6.38266486 C18.4063,6.3688 17.3323,6.36982703 16.2583,6.35955676 C16.1763,6.35904324 16.0908,6.3878 16.0203,6.31796216 C16.0088,6.32617838 15.9968,6.32977297 15.9848,6.33542162 C15.9963,6.32977297 16.0083,6.32566486 16.0198,6.31693514 C16.1103,6.13207027 16.2058,5.94925946 16.2913,5.76182703 C16.5908,5.10196216 16.7733,4.40615135 16.8313,3.68261081 C16.8658,3.24920541 16.9023,2.80655676 16.8263,2.37623243 C16.6038,1.11966486 15.7953,0.313962162 14.5658,0.0880162162 C13.7643,-0.0583351351 13.0603,0.433097297 12.9228,1.25163784 C12.8503,1.68042162 12.7973,2.11228649 12.6568,2.52566486 C12.3173,3.52342162 11.7168,4.33477297 10.9648,5.04034054 C10.4643,5.50969189 9.9048,5.89585405 9.3393,6.27482703 C9.3393,6.27431351 9.3383,6.27431351 9.3383,6.2738 C8.8173,6.5778 8.2938,6.87615135 7.7548,7.14471892 C7.6393,7.20325946 7.5648,7.32188108 7.5638,7.45436757 L7.50629783,17.406773 C7.5058,17.5515838 7.5918,17.6835568 7.7233,17.7354216 C8.2103,17.9274757 8.7058,18.0938541 9.2123,18.2232595 C10.3773,18.5267459 11.5678,18.6433135 12.7628,18.6618 C14.4978,18.6936378 16.2338,18.6900432 17.9688,18.6967932 C18.1538,18.6977459 18.3458,18.6885027 18.5273,18.6453676 C19.8168,18.3500973 20.4648,16.9440973 19.9168,15.8051243 C19.8568,15.6803405 19.8823,15.6182054 19.9858,15.5386108 C20.7648,14.9485838 21.0083,13.9744486 20.6008,13.0588541 C20.5483,12.9381784 20.5628,12.8724486 20.6703,12.7923405 C21.5668,12.1114216 21.7518,10.8820703 21.0883,9.96442162 C20.9988,9.8380973 21.0053,9.77236757 21.0788,9.67531351" id="Fill-220" fill="#FFFFFF"></path>
                                <path d="M6.8691,7.29024865 C6.8691,7.28151892 6.8691,7.2733027 6.8686,7.26457297 C6.8691,7.22092432 6.8691,7.17676216 6.8691,7.13311351 C6.8701,6.93849189 6.8681,6.7448973 6.7491,6.57851892 C6.7351,6.55900541 6.7181,6.54514054 6.7031,6.52819459 C6.6881,6.50970811 6.6726,6.49173514 6.6561,6.47581622 C6.6386,6.4598973 6.6201,6.44500541 6.6011,6.43114054 C6.5846,6.41932973 6.5676,6.40803243 6.5496,6.39776216 C6.5216,6.38081622 6.4926,6.36541081 6.4621,6.3536 C6.4586,6.35257297 6.4546,6.35103243 6.4506,6.35000541 C6.3706,6.31970811 6.2846,6.30122162 6.1896,6.30070811 C5.3111,6.29608649 4.4331,6.29146486 3.5551,6.28581622 L0.9206,6.26934085 C0.8256,6.26835676 0.7391,6.28581622 0.6586,6.31508649 C0.6546,6.31611351 0.6506,6.31662703 0.6471,6.31816757 C0.6166,6.32997838 0.5876,6.34487027 0.5591,6.36078919 C0.5411,6.37157297 0.5236,6.38235676 0.5071,6.39468108 C0.4881,6.40803243 0.4696,6.42241081 0.4521,6.43832973 C0.4346,6.45424865 0.4196,6.47170811 0.4041,6.48916757 C0.3891,6.50714054 0.3721,6.52049189 0.3576,6.53949189 C0.2366,6.70432973 0.2321,6.89843784 0.2311,7.09305946 C0.2306,7.13670811 0.2306,7.18035676 0.2301,7.22451892 C0.2301,7.23324865 0.2296,7.24146486 0.2291,7.25019459 C0.2296,7.2578973 0.2296,7.26457297 0.2301,7.27227568 C0.2146,9.98978919 0.1991,12.7073027 0.1831,15.4248162 C0.1786,16.2258973 0.1716,17.0280054 0.170599265,17.8296 C0.1701,18.3256541 0.4246,18.5896 0.9011,18.5937081 C1.3441,18.5978162 1.7871,18.5988432 2.2301,18.6008973 C2.4471,18.6086 2.6651,18.6014108 2.8826,18.6050054 C3.0831,18.6060324 3.2836,18.607573 3.4841,18.6086 C3.6846,18.609627 3.8851,18.6111676 4.0856,18.6127081 C4.3031,18.6111676 4.5211,18.6209243 4.7381,18.6163027 C5.1811,18.6193838 5.6241,18.6229784 6.0671,18.6250392 C6.5436,18.626573 6.8011,18.3657081 6.8066,17.8701676 C6.8151,17.0680595 6.8166,16.2664649 6.8211,15.4648703 C6.8371,12.7473568 6.8526,10.0298432 6.8686,7.31232973 C6.8686,7.30514054 6.8691,7.29795135 6.8691,7.29024865" id="Fill-222" fill="#FFFFFF"></path>
                            </g>
                        </g>
                    </g>
                </g>
            </g>
        </g>
    </g>
</svg>