<?xml version="1.0" encoding="UTF-8"?>
<svg width="451px" height="148px" viewBox="0 0 451 148" version="1.1" xmlns="http://www.w3.org/2000/svg" xmlns:xlink="http://www.w3.org/1999/xlink">
    <!-- Generator: sketchtool 63.1 (101010) - https://sketch.com -->
    <title>343A259A-59C9-4333-819C-F5391CA8F5ED</title>
    <desc>Created with sketchtool.</desc>
    <defs>
        <polygon id="path-1" points="0.514102061 0.0577058824 17.6819433 0.0577058824 17.6819433 35.8812006 0.514102061 35.8812006"></polygon>
    </defs>
    <g id="homepage" stroke="none" stroke-width="1" fill="none" fill-rule="evenodd">
        <g transform="translate(-61.000000, -309.000000)" id="social-media-girl-banner">
            <g transform="translate(286.500000, 383.000000) scale(-1, 1) translate(-286.500000, -383.000000) translate(61.000000, 309.000000)">
                <path d="M240.549312,147.967689 C137.548508,148.429147 54.0275789,143.893514 53.9999934,137.835761 C53.9729644,131.779067 137.449884,126.494294 240.451218,126.032307 C343.452022,125.57085 426.972951,130.107013 427.000007,136.164236 C427.027036,142.221989 343.550646,147.506232 240.549312,147.967689 Z" id="Fill-1" fill="#FBD0C8"></path>
                <path d="M345,34.474445 C339.556809,61.1338419 330.516191,89.720456 322.145853,115.595317 C320.638119,120.255448 312.091142,123 312.091142,123 C312.091142,123 304.722279,115.05466 304.183427,108.885766 C303.664553,102.934828 304.235473,95.158774 306.037077,88.3524122 C308.401191,79.424683 313.180411,71.0122186 317.163708,62.729364 C322.448661,51.747453 329.385917,41.7712077 332.912899,30 C338.662578,30.2407038 342.792022,32.8450656 345,34.474445" id="Fill-3" fill="#008455"></path>
                <path d="M311.169574,113.623545 C308.10763,107.094347 304.561134,106.267893 304.561134,106.267893 C287.470487,108.341473 267.481001,107.311863 250.451783,105.095222 C250.451783,105.095222 250.452842,105.096817 250.453901,105.096817 C250.452842,105.096817 250.452842,105.095222 250.452842,105.095222 L250.450724,105.095222 L250.451783,105.095222 C244.874935,97.8480615 235.894044,93.2063051 225.454202,92.1766946 C213.239259,90.9747732 200.545589,95.9898699 192,104.623494 C194.015524,112.017438 195.06724,120.371323 194.05736,128.126907 C212.840496,131.486437 232.554608,131.278494 251.489201,130.574891 C271.628553,129.825551 292.956249,128.343359 312.526849,123.255403 C312.526849,123.255403 314.231518,120.153275 311.169574,113.623545" id="Fill-5" fill="#008455"></path>
                <path d="M344.075238,33.9829239 C352.927018,34.1141441 360.676778,34.0113813 369.445801,35.8932589 C372.519307,36.5498871 377.55906,34.1057123 376.949387,30.5232413 C371.435095,28.4700923 362.791253,25.2965648 354.713611,22.4223669 C346.762722,19.5913822 342.312215,15.1209348 336.033213,16.1511982 C333.711323,18.1463785 332.051483,22.274283 333.607092,30.4652725 C333.607092,30.4652725 335.393685,30.1701587 338.96949,31.3727475 C342.546342,32.5748094 344.075238,33.9829239 344.075238,33.9829239" id="Fill-7" fill="#D24000"></path>
                <path d="M190,135.852834 C209.427739,140.400514 230.110171,140.964061 249.954364,140.998585 C270.246471,141.035234 291.762876,140.385111 311.652926,136.069542 C311.652926,136.069542 313.792782,133.803138 314.718471,126.336274 C315.644161,118.869941 313.990611,117.208513 313.990611,117.208513 C293.040497,116.233327 271.035652,112.422879 250.874187,106.783692 C245.536012,98.0006459 235.608316,92.3274652 223.839374,91.1764698 C211.540401,89.9760777 198.75832,94.9847934 190.154104,103.607433 C192.981828,113.897343 193.946443,126.052641 190,135.852834" id="Fill-9" fill="#27C195"></path>
                <path d="M405.713444,116.189996 C408.048093,119.769637 407.102977,126.88073 403.706932,129.326871 C373.086242,133.567546 342.72307,136.004258 311.823094,137 C311.823094,137 309.687557,135.508221 309.107214,128.039897 C308.527401,120.571573 310.488251,119.823588 310.488251,119.823588 C328.161916,112.489357 345.401783,112.066127 363.493848,113.949184 C376.94635,115.348775 392.162183,117.051121 405.713444,116.189996" id="Fill-11" fill="#27C195"></path>
                <path d="M450.967967,123.786332 C445.532495,121.556053 437.008163,118.10493 429.041825,114.969876 C421.19902,111.882442 416.908849,107.289491 410.602361,108.092747 C408.212826,109.992304 407.330295,112.848966 407,115.872558 C407,115.872558 409.235118,116.770007 413.279792,120.524118 C417.323943,124.277705 417.333365,125.464535 417.333365,125.464535 C426.169148,125.903579 434.593502,126.678577 443.286908,128.85234 C446.333892,129.612686 451.452156,127.363569 450.967967,123.786332" id="Fill-13" fill="#D24000"></path>
                <path d="M415.97208,125.423724 C414.389186,126.343475 411.935903,126.36404 410.163041,126.395401 C408.641771,126.421107 407.12152,126.97995 405.639466,127 C405.639466,127 404.909134,125.68181 405.009466,121.696392 C405.109797,117.711488 405.918051,116 405.918051,116 C409.208109,116.767059 416.507351,121.801785 415.97208,125.423724" id="Fill-15" fill="#D4A181"></path>
                <path d="M64.6996551,104 C75.9056162,108.984788 87.2433817,114.124229 98.4254728,119.322786 C98.4254728,119.322786 100.200161,120.869844 100.831161,127.803366 C101.462161,134.735831 100.121286,137.95293 100.121286,137.95293 C98.1478535,138.134502 96.0068118,137.799333 93.6789608,136.798047 C80.2406289,131.010436 69.0024951,120.481892 57,111.237021 C57,111.237021 57.4934878,109.639292 60.5078628,107.42559 C63.5222378,105.212416 64.6996551,104 64.6996551,104" id="Fill-17" fill="#EF4D3C"></path>
                <path d="M136.937511,77.3669043 C136.44665,72.2276211 136.817737,73.9755719 136.44665,73.6300159 C124.737642,62.7330581 112.08648,88.3158812 105.133154,102.554806 C105.108023,102.555868 99.2839969,117.618076 97.1884812,120.696232 C97.1884812,120.696232 96.4709048,122.503102 97.8360111,128.986391 C99.200048,135.46968 100.622368,137 100.622368,137 C115.732646,136.124698 117.638875,120.561407 121.179703,113.010132 C122.210618,113.250588 123.118015,113.328086 123.827036,113.189014 C128.11378,104.544806 133.438925,93.2911448 135.306655,85.7605715 C136.241857,81.9907729 137.265286,80.7953933 136.937511,77.3669043" id="Fill-19" fill="#EF4D3C"></path>
                <path d="M116.666511,2.05782964 C104.227771,1.34682554 93.9684933,7.2248454 87.5661932,17.8804339 C85.3249694,21.6101793 79.5371476,32.8436232 85.8797796,36.6396799 C88.26494,38.0706348 92.3516927,36.4628498 95.6685155,38.8116369 C130.6158,63.5578426 148.122678,40.9778048 145.794569,30.9284907 C142.856692,18.2535663 145.065988,3.6798242 116.666511,2.05782964" id="Fill-21" fill="#520005"></path>
                <path d="M120.377657,93.9991372 C117.947155,106.237225 114.057612,112.033522 117.136635,121.534441 C119.037731,127.399653 125.477951,129.708071 127.183166,130.55137 C132.427458,133.146499 135.643068,132.983942 143.549741,130.068433 C152.299758,138.119488 168.133751,136.348719 176.444361,136.348719 C180.495373,136.348719 186.814888,135.543298 191.004604,137 C191.004604,137 194.907912,132.923969 194.99844,121.413443 C195.088439,109.902917 191.254483,105.062499 191.254483,105.062499 C181.841651,104.834709 176.698475,103.37485 170.205845,96.1734061 C166.721826,92.3083315 163.635391,86.4489056 158.295806,76.3672 C153.434274,67.1887656 139.358437,62.6119111 132.692691,64.3711067 C126.027474,66.1308283 124.734136,72.0649568 120.377657,93.9991372" id="Fill-23" fill="#FFDFAB"></path>
                <path d="M132.639153,57.1824894 C123.265662,69.359911 119.53877,88.2135414 126.874752,88.9742354 C131.710467,89.4748721 145.207047,82.5512404 152.88323,79.371592 C160.559941,76.1919436 162.607487,69.7336776 162.920218,65.6843638 C163.448481,58.8407497 161.477533,49.5671262 153.265692,47.4771917 C145.21814,45.4298983 138.004187,50.2130581 132.639153,57.1824894" id="Fill-25" fill="#FF654C"></path>
                <path d="M91.4743359,31.569311 C90.5937023,41.7551864 87.6495255,55.2498893 93.8317729,64.4086527 C99.269594,72.4629048 110.179812,74.9872781 117.623026,67.6489712 C121.005162,64.3139953 123.922622,59.1141103 125.952637,54.9235564 C130.683751,45.1586714 131.054654,28.2939535 118.657679,21.3986017 C107.271783,15.065442 92.2795316,22.2520878 91.4743359,31.569311" id="Fill-27" fill="#D4A181"></path>
                <path d="M114.126742,28.0005037 C114.482312,29.9997349 115.817184,32.098106 116.588756,33.1144217 C117.964095,34.9190844 120.251831,37.1266683 121.621774,39.4970112 C123.073192,42.0083765 123.375345,45.7809911 122.838483,50 C122.838483,50 130.319487,48.4662487 132.024498,41.52116 C133.851989,34.0782515 134.634351,19.2491617 119.990144,10 C119.990144,10 112.980176,21.5495235 114.126742,28.0005037" id="Fill-29" fill="#520005"></path>
                <path d="M129.21616,47 C129.8092,51.8410833 136.353759,63.3101801 140.903213,65.3658499 C140.903213,65.3658499 142.188572,67.2723395 135.39106,75.3081393 C128.594076,83.3439391 124.293878,85 124.293878,85 C124.379428,79.3047662 121.686722,71.8931532 117.000494,68.4038464 C117.000494,68.4038464 116.879562,64.1869499 120.422486,56.6396207 C124.318698,48.3393897 129.21616,47 129.21616,47" id="Fill-31" fill="#D4A181"></path>
                <path d="M138.615767,65.3975098 C137.412771,63.728678 135.783144,63.8228172 134.082412,64.3100947 C131.845493,64.9519531 126.436227,66.0612984 125.392823,71.2427003 C124.762884,74.3690855 124.385236,76.6797758 123,84.1558214 C123.90014,85.0592371 125.188988,85.2325389 127.029824,84.6997964 C132.193119,83.2042663 135.59353,78.7187459 138.111709,71.3785603 C138.66001,69.7814027 139.497472,66.620785 138.615767,65.3975098" id="Fill-33" fill="#D4A181"></path>
                <path d="M141,31.6281801 C138.497084,27.5038299 141.567853,23.5359708 139.003202,18.6815086 C128.694043,-11.2304183 104.466906,0.839363414 89.4334466,13.2545048 C86.6857211,15.4162406 82.2126177,19.5950929 82.6596619,22.9860934 C76.391463,39.0318286 89.8959245,36.3245323 89.9241309,44.2764393 C92.101875,42.9689291 94.1199604,35.3753328 93.7309255,30.2078884 C94.2615244,38.8710204 96.3131382,26.8875787 101.403588,24.0049045 C101.924608,27.2237648 100.43925,28.3526593 99.8070018,29.4011497 C101.536105,29.5031388 101.826152,27.8864237 103.747377,26.1909234 C105.558971,35.7109792 105.804313,25.4597322 110.426431,23.4944197 C110.497213,25.1985539 112.371074,28.570128 114.846847,28.3526593 C113.381181,27.1514551 112.141698,24.2763356 113.114019,21.5733564 C114.110289,23.0119954 119.735596,34.0019884 120.121969,28.958118 C125.085757,31.6157688 121.5887,29.9602007 121.376887,25.0453006 C124.79305,29.2290095 129.067644,37.0562632 129.823894,33.549783 C129.391219,37.5440837 130.420485,41.2761269 130.434854,46 C132.564169,38.2229314 140.562003,39.6480798 138.381066,31.9233547 C138.660468,32.2379558 140.594999,32.7300934 141,31.6281801" id="Fill-35" fill="#520005"></path>
                <path d="M134.158652,53 C134.158652,53 149.394439,58.4358125 141.951975,66.8106802 C140.066905,68.9316154 133.977907,78.8495524 134.913531,68.0449263 C133.977907,56.3420956 120.596357,70.2982891 120.596357,70.2982891 L118,67.8632963 L134.158652,53 Z" id="Fill-37" fill="#BA8B72"></path>
                <path d="M76.9288281,97 C88.4691019,102.019795 110.833025,119.954011 122.348716,125.190162 C122.348716,125.190162 124.17635,126.747718 124.826175,133.730671 C125.476,140.713092 124.094587,143.952595 124.094587,143.952595 C122.062815,144.135461 119.857898,143.797902 117.461134,142.789478 C103.621356,136.960605 81.3605711,115.725221 69,106.41444 C69,106.41444 69.5076759,104.805321 72.6119801,102.575837 C75.7162844,100.346884 76.9288281,97 76.9288281,97" id="Fill-39" fill="#FF654C"></path>
                <path d="M158.857277,81.2418297 C158.368341,76.1285157 155.673872,73.6281099 155.321284,73.2657782 C149.182431,66.9814884 142.479544,74.7161614 137.093267,84.8783514 C132.271023,93.9762579 128.52465,104.386693 125.457887,109.780999 C123.198558,114.422119 121.600731,118.119382 119,123.664219 C119,123.664219 119.350989,127.575395 120.709676,134.026061 C122.069427,140.476728 123.485635,142 123.485635,142 C134.100003,141.044522 146.563059,118.313752 146.599276,118.306886 C150.868671,109.705997 156.172926,98.506989 158.033863,91.0142225 C158.965396,87.2625575 159.184299,84.6544029 158.857277,81.2418297" id="Fill-41" fill="#FF654C"></path>
                <path d="M153.535553,101.065563 C155.150994,106.553122 152.255244,111.35096 149.412907,107.754641 C148.449926,109.19888 148.118459,109.966028 147.060699,104.870556 C140.746081,108.302683 144.837832,74.9511989 153.535553,101.065563" id="Fill-43" fill="#520005"></path>
                <path d="M149.735357,92.2483683 C150.013759,91.4966019 150.353187,90.785385 150.684041,90.0709668 C151.00733,89.2978586 151.316497,88.5103446 151.600951,87.7068242 C151.667021,87.466195 151.725021,87.2186296 151.771926,86.963061 C152.236938,84.3748291 152.070502,81.8997089 150.522649,79.5867868 C149.314224,77.7807334 146.462623,77.6430785 144.689325,78.5389023 C143.032532,79.3744354 142.317363,80.5023518 142.226075,82.2849292 C141.889169,83.556903 141.958769,85.0833783 142.238179,86.3356109 C142.694113,88.3812265 143.85765,89.7583088 144.979831,91.0265478 C146.157995,92.3593459 147.261515,92.6725374 148.328218,94 C148.732707,93.1111123 149.300606,93.2076841 149.735357,92.2483683" id="Fill-45" fill="#190003"></path>
                <path d="M149,78.3161851 C148.807312,78.186905 148.602151,78.0801737 148.384516,78 C148.163011,78.953065 148.024086,79.9632537 148,81 C148.536774,80.4052113 148.827097,79.2938032 149,78.3161851" id="Fill-47" fill="#673F36"></path>
                <path d="M145.958357,85 C146.256051,82.3730115 144.913987,80.6922655 143.327423,79 C142.723738,79.4097641 142.295742,79.8924849 142,80.4794295 C143.26154,82.0905101 144.749035,83.4980801 145.958357,85" id="Fill-49" fill="#673F36"></path>
                <path d="M149.086464,85.0237513 C149.4579,84.2282286 149.892816,83.4769319 150.308321,82.7327332 C150.716481,81.9219225 151.097885,81.1078358 151.452009,80.282829 C151.535425,80.0349448 151.61307,79.7837846 151.673402,79.5222503 C152.284593,76.8648659 152.127729,74.3150436 150.427936,71.7543013 C149.100104,69.7532095 145.78131,69.6232614 143.595712,70.5672963 C141.554911,71.448541 140.629993,72.6573861 140.409649,74.5094198 C139.924369,75.850943 139.909155,77.4337985 140.1615,78.7245436 C140.574907,80.8364735 141.891197,82.2538908 143.1907,83.615616 C144.559977,85.0483213 146.011097,86.5596507 147.311124,88 C147.896084,87.0958232 148.51357,86.0409502 149.086464,85.0237513" id="Fill-51" fill="#855348"></path>
                <path d="M149.086464,85.0237513 C149.4579,84.2282286 149.892816,83.4769319 150.308321,82.7327332 C150.716481,81.9219225 151.097885,81.1078358 151.452009,80.282829 C151.535425,80.0349448 151.61307,79.7837846 151.673402,79.5222503 C152.284593,76.8648659 152.127729,74.3150436 150.427936,71.7543013 C149.100104,69.7532095 145.78131,69.6232614 143.595712,70.5672963 C141.554911,71.448541 140.629993,72.6573861 140.409649,74.5094198 C139.924369,75.850943 139.909155,77.4337985 140.1615,78.7245436 C140.574907,80.8364735 141.891197,82.2538908 143.1907,83.615616 C144.559977,85.0483213 146.011097,86.5596507 147.311124,88 C147.896084,87.0958232 148.51357,86.0409502 149.086464,85.0237513" id="Fill-53" fill="#520005"></path>
                <path d="M144.973761,76 C145.181895,73.3783918 144.127208,71.4592983 142.683762,70 C141.972679,70.3846536 141.41575,70.7943544 141,71.3376404 C141.106922,71.4408111 141.213844,71.5445781 141.320766,71.6459596 C142.672343,72.9484147 143.73222,74.4786801 144.973761,76" id="Fill-55" fill="#855348"></path>
                <path d="M148,70.4413951 C147.631847,70.240709 147.226579,70.0966266 146.794972,70 C146.439389,70.9268153 146.145465,71.9473985 146,73 C146.793774,72.5460263 147.493565,71.5780446 148,70.4413951" id="Fill-57" fill="#855348"></path>
                <path d="M147.437822,75.0288911 C147.902517,74.2421423 148.423206,73.5075275 148.920869,72.7971365 C149.41173,72.0240795 149.871715,71.2594481 150.311815,70.5016626 C150.417522,70.2720626 150.515381,70.0224515 150.593353,69.7591487 C151.375694,67.1045298 151.123461,64.2792907 149.004075,62.0870315 C147.349384,60.3771431 143.659559,60.955356 141.077047,61.9738113 C138.666703,62.9227546 137.646781,64.0602227 137.447402,65.6584708 C136.914154,66.8596582 136.907351,68.2393649 137.167434,69.3426037 C137.593928,71.1472811 139.004758,72.313186 140.4585,73.6002101 C141.987598,74.9530599 143.633393,76.5086529 145.149409,78 C145.93646,77.0995044 146.730837,76.0326014 147.437822,75.0288911" id="Fill-62" fill="#190003"></path>
                <path d="M141.290253,66.2229556 C142.190335,66.7928029 143.039334,67.5227725 143.96036,68 C144.824683,65.9958539 146.345423,64.677199 147.343073,62.9786459 C147.601553,62.5349081 147.819166,62.0372729 148,61.5145204 C146.271353,60.5433206 143.175725,61.0911903 140.993972,61.9676772 C139.485492,62.572584 138.539436,63.2449933 138,64.0790948 C139.081426,64.8613921 140.186861,65.525429 141.290253,66.2229556" id="Fill-64" fill="#673F36"></path>
                <path d="M147.181617,66.9742044 C147.71347,66.1523561 148.292968,65.3636914 148.840888,64.5894063 C149.377727,63.7526253 149.876893,62.9136321 150.355007,62.0812756 C150.464701,61.830186 150.568302,61.5768842 150.647526,61.3092027 C151.448075,58.6152436 150.969962,55.8560233 148.331195,53.8384576 C146.271373,52.2627874 142.096881,53.1576397 138.902993,54.4744775 C135.919076,55.7044847 134.646506,57.053953 134.458142,58.7125823 C133.838201,60.0089568 133.908006,61.4015639 134.308004,62.4612284 C134.965064,64.1989454 136.831536,65.0727814 138.664767,66.12415 C140.591626,67.2297185 142.584413,68.6250909 144.392159,70 C145.403787,69.0708579 146.371095,68.0288913 147.181617,66.9742044" id="Fill-66" fill="#520005"></path>
                <path d="M146.785246,61.5067512 C147.243559,60.5648654 147.747211,59.6528639 148.22792,58.7600736 C148.693333,57.796842 149.122694,56.8373459 149.54386,55.8858545 C149.636725,55.6030219 149.725765,55.3217903 149.7864,55.025083 C150.409136,52.0307935 149.742153,49.184324 146.829494,46.997975 C144.555959,45.2908405 140.37106,45.940288 136.966766,47.690648 C133.788078,49.324673 132.413142,50.9811112 132.341035,52.8686182 C131.759814,54.3574914 131.982142,55.8842536 132.552984,57.0353287 C133.485996,58.9185665 135.687971,59.8327027 137.805822,60.9176057 C140.031286,62.0590751 142.290072,63.5015211 144.259886,65 C145.202185,63.9850047 146.069646,62.726133 146.785246,61.5067512" id="Fill-68" fill="#673F36"></path>
                <path d="M132,53.6438479 C132.053884,53.3855595 132.123713,53.1251364 132.225433,52.868449 C132.298011,50.9814492 133.681949,49.3244543 136.881446,47.6909401 C140.308025,45.9400221 144.52032,45.2910992 146.808738,46.9977239 C149.740465,49.184637 150.411815,52.0311462 149.785002,55.0249438 C149.72397,55.322189 149.634346,55.6028909 149.540874,55.8857273 C149.116951,56.837232 148.684779,57.7967415 148.216319,58.7599865 C147.732463,59.6533229 147.225514,60.5653372 146.764201,61.5067025 C146.043916,62.726635 145.170776,63.9849905 144.222309,65 C142.239599,63.5020339 139.966027,62.0595678 137.725994,60.9180824 C135.594279,59.8331642 133.37734,58.9206163 132.438769,57.0352176 C132.316156,56.7902705 132.213886,56.5250446 132.129212,56.2502129" id="Fill-70" fill="#190003"></path>
                <path d="M143.983791,54.0487008 C144.393959,53.0022065 144.881955,51.9827904 145.302114,51.0132833 C145.741731,49.9986457 146.139278,48.9250731 146.564171,47.9003476 C146.654618,47.5987703 146.742436,47.2950693 146.801858,46.9786256 C147.39818,43.7902956 146.757686,39.7025433 143.372745,37.0897587 C141.261429,35.458162 139.268431,35.9753033 137.329597,36.6103145 C135.430202,37.2325831 132.954993,38.4686251 130.871548,40.1517235 C129.992841,40.8621291 129.118866,41.6192579 128.438407,42.501159 C127.768466,43.3655389 127.674337,44.1561173 127.33253,45.0884583 C125.689227,49.5563678 130.482939,52.4728535 134.124499,54.0046323 C136.671224,55.0750192 139.297879,56.460257 141.552754,58 C142.522434,56.8632449 143.325944,55.4116389 143.983791,54.0487008" id="Fill-72" fill="#855348"></path>
                <path d="M146.801858,46.9782276 C146.742436,47.2951985 146.654618,47.5983649 146.564171,47.8999385 C146.139278,48.9246517 145.731213,49.9610455 145.302114,51.0133676 C144.853558,51.9913581 144.393959,53.0022668 143.983791,54.0482176 C143.325944,55.4116701 142.522434,56.8627277 141.552754,58 C139.297879,56.4597446 136.671223,55.0745235 134.125024,54.0041496 C130.482938,52.4729202 125.689226,49.5559387 127.332529,45.0880831 C127.674336,44.1562843 127.768464,43.3651845 128.438406,42.5008151 C129.119391,41.6189246 129.992839,40.861805 130.872072,40.1519389 C132.954992,38.4688608 135.430201,37.2328337 137.329596,36.6105727 C139.268431,35.9750381 141.261429,35.458434 143.372745,37.08948 C146.757686,39.7027641 147.39818,43.7899361 146.801858,46.9782276" id="Fill-74" fill="#520005"></path>
                <path d="M151.981061,92.4991079 C152.068638,92.8408258 151.844463,93.1757013 151.474325,93.2489553 C149.314639,93.6731846 148.099575,93.8204976 145.85837,93.9975952 C145.473912,94.0281848 145.096614,93.7633434 145.015646,93.4083432 C144.934128,93.0541479 145.179234,92.7474471 145.562591,92.7228949 C147.801041,92.5783993 149.020512,92.4399412 151.163123,92.0141019 C151.529405,91.9412504 151.892933,92.1577925 151.981061,92.4991079" id="Fill-76" fill="#008455"></path>
                <path d="M150.981509,90.5096603 C151.067746,90.8582698 150.844415,91.2007345 150.476802,91.2740613 C148.325856,91.7078773 147.100298,91.8500247 144.855376,91.9983169 C144.470074,92.0241246 144.094723,91.7500709 144.01512,91.3879431 C143.934964,91.024996 144.181513,90.7148934 144.565156,90.6948207 C146.806208,90.5801196 148.037295,90.4486229 150.169998,90.0143973 C150.533741,89.9398416 150.895825,90.1622798 150.981509,90.5096603" id="Fill-78" fill="#008455"></path>
                <g id="Group-82" transform="translate(115.000000, 0.000000)">
                    <mask id="mask-2" fill="white">
                        <use xlink:href="#path-1"></use>
                    </mask>
                    <g id="Clip-81"></g>
                    <path d="M17.6561471,34.7656765 C17.9219118,29.3127353 16.0943824,6.09061765 14.0085,3.21432353 C10.9770882,-0.961676471 -0.0420882353,-0.124676471 0.536029412,0.858441176 C5.87091176,9.94685294 5.68773529,23.1821471 6.77832353,34.0366765 C6.77832353,34.0366765 7.80485294,35.5444412 12.2164412,35.8393235 C16.6280294,36.1352647 17.6561471,34.7656765 17.6561471,34.7656765" id="Fill-80" fill="#E2104C" mask="url(#mask-2)"></path>
                </g>
                <g id="Group-12" transform="translate(51.000000, 58.000000) scale(-1, 1) translate(-51.000000, -58.000000) translate(36.000000, 45.000000)">
                    <path d="M25.3643351,0 L4.63638323,0 C2.07609971,0 0,2.05752321 0,4.59577615 L0,15.3933218 C0,17.932287 2.07609971,19.989098 4.63638323,19.989098 L8.02064127,19.989098 L8.19807955,26 L14.1893154,19.989098 L25.3643351,19.989098 C27.9246187,19.989098 30,17.932287 30,15.3933218 L30,4.59577615 C30,2.05752321 27.9246187,0 25.3643351,0" id="Fill-119" fill="#FFFFFF"></path>
                    <path d="M10,9.5 C10,10.8811756 9.10438075,12 7.99963944,12 C6.89489814,12 6,10.8811756 6,9.5 C6,8.11972593 6.89489814,7 7.99963944,7 C9.10438075,7 10,8.11972593 10,9.5" id="Fill-121" fill="#FF654C"></path>
                    <path d="M17,9.5 C17,10.8811756 16.1043807,12 14.9996394,12 C13.8948981,12 13,10.8811756 13,9.5 C13,8.11972593 13.8948981,7 14.9996394,7 C16.1043807,7 17,8.11972593 17,9.5" id="Fill-123" fill="#FF654C"></path>
                    <path d="M24,9.5 C24,10.8811756 23.1043807,12 22.0003606,12 C20.8956193,12 20,10.8811756 20,9.5 C20,8.11972593 20.8956193,7 22.0003606,7 C23.1043807,7 24,8.11972593 24,9.5" id="Fill-125" fill="#FF654C"></path>
                </g>
                <path d="M138.981171,44.088637 C138.620616,51.5369713 133.188362,57.3105937 126.847807,56.9870388 C120.506189,56.6607464 115.657842,50.3582676 116.018929,42.9110282 C116.378952,35.461599 121.81227,29.6868816 128.153888,30.0131739 C134.494975,30.3383713 139.341195,36.6408501 138.981171,44.088637" id="Fill-83" fill="#F54F71"></path>
                <path d="M136.98525,43.4360178 C136.702784,48.9541431 132.452162,53.2310223 127.489378,52.9903183 C122.526594,52.749083 118.731844,48.0805949 119.014855,42.5635323 C119.296231,37.0459383 123.548488,32.7679964 128.511272,33.0097631 C133.474056,33.2499357 137.26717,37.9189551 136.98525,43.4360178" id="Fill-85" fill="#F54F71"></path>
                <path d="M47.2614387,92.3077963 C47.2614387,92.3077963 50.0064302,88.3236038 52.311901,85.6197746 C54.6173719,82.9164854 55.9498868,82.1728918 58.2049121,84.0132453 C59.1392289,84.7751992 66.4694026,91.3633191 65.9762165,102.272058 C65.6515401,109.459048 58.9996985,110.912215 58.9996985,110.912215 C58.9996985,110.912215 56.7586263,111.967394 51.8305213,106.761159 C47.450878,102.133275 46.4387462,94.0639082 47.2614387,92.3077963" id="Fill-87" fill="#BC8668"></path>
                <path d="M91.5473065,50 L88.2258518,57.0494723 C87.4620536,58.6708049 88.7192369,60.4696145 90.7378464,60.6440229 L94,61 L91.5473065,50 Z" id="Fill-89" fill="#D4A181"></path>
                <path d="M72.8797811,104.448365 L59.7470978,78.5408041 C59.1438259,77.3565127 58.0209669,76.5208531 56.7111413,76.2805085 L49.83363,75.0185674 C49.386605,74.9361636 48.9936044,75.1363627 48.7690326,75.454357 L48.7679733,75.4527724 L47,77.3860936 L49.3484702,77.8049799 L61.8037305,101.486581 L71.4836224,105.899413 C72.4030956,106.318827 73.3379287,105.347413 72.8797811,104.448365" id="Fill-91" fill="#A3A9CE"></path>
                <path d="M47.1246844,78.5650575 L60.0010039,103.486669 L69.5098227,107.899452 C70.4136158,108.318862 71.3319777,107.34693 70.8819023,106.447893 L57.9806076,80.5411437 C57.3879649,79.3568654 56.2848899,78.5212149 54.9981425,78.280873 L48.2418081,77.0184175 C47.3791201,76.8578374 46.7136329,77.7785319 47.1246844,78.5650575" id="Fill-93" fill="#848FBB"></path>
                <path d="M80,98.0721398 L76.8597372,93.6362292 C75.7185067,92.0242334 74.2922369,90.6545152 72.6614475,89.6041145 C71.0317316,88.5553078 69.6065354,87.1877148 68.4658417,85.5767817 L65.9316228,82 C64.7125567,83.4154109 64.3475347,85.4338592 64.978808,87.2557225 L65.6272589,89.1259352 L68.2607852,94.1154712 L56.4721851,91.8829049 C55.0169283,91.6071548 53.7694119,92.9184288 54.0362,94.4422271 C54.1881136,95.3066691 54.8048934,96.0085302 55.615457,96.2391189 L60.492795,97.6247764 L63.783361,104.420237 C64.6551194,106.221379 69.1668986,108.680815 71.5905373,107.824342" id="Fill-95" fill="#D4A181"></path>
                <path d="M107,61 C103.018411,67.7435589 96,67.0985784 96,67.0985784 C96,67.0985784 97.7538318,69.4729892 103.169019,66.5145546 C106.912103,64.4698908 107,61 107,61" id="Fill-97" fill="#190003"></path>
                <path d="M54.9846254,82.8261992 C55.0806125,83.3701565 54.7171615,83.8886159 54.1732348,83.9846083 C53.629808,84.0806008 53.1108779,83.7176293 53.0153908,83.173672 C52.9194038,82.6297146 53.2823548,82.1112553 53.8262815,82.0152628 C54.3702082,81.9197703 54.8886384,82.2822419 54.9846254,82.8261992" id="Fill-99" fill="#434656"></path>
                <path d="M55.1917714,79.9919832 L53.5397325,79.7928842 C53.1769317,79.7489606 52.9399236,79.536396 53.0133475,79.3206253 C53.0873113,79.1048546 53.4447132,78.9641067 53.8080538,79.0080303 L55.4600927,79.2071292 C55.8234333,79.2507322 56.0604415,79.4636175 55.9864777,79.6790675 C55.9125138,79.8948383 55.555112,80.0359068 55.1917714,79.9919832" id="Fill-101" fill="#434656"></path>
                <path d="M103.374396,44.633584 C103.374396,44.633584 104.870539,47.3059384 103.235395,47.8425353 C101.600252,48.3795944 101.077653,47.4806443 100.262505,46.0894671 C98.9910266,43.9222811 102.716567,43.4480792 103.374396,44.633584" id="Fill-216" fill="#261818"></path>
                <path d="M95.1904831,42.2140587 C96.1889152,41.3208562 96.9614992,40.0342193 99.657879,39.6176417 C102.354259,39.2004386 106.435363,39.9278857 106.719461,39.7633813 C107.296855,39.4299941 107.115461,38.7150569 104.905523,38.1133336 C102.832525,37.5491399 99.8525579,36.3263032 97.0519406,37.4759574 C94.2523453,38.6256115 93.0341968,41.334617 93.0004729,42.4730123 C92.966749,43.6107821 94.7464516,42.6112461 95.1904831,42.2140587" id="Fill-218" fill="#520005"></path>
                <g id="Group" transform="translate(10.000000, 33.000000) scale(-1, 1) translate(-10.000000, -33.000000) translate(0.000000, 23.000000)">
                    <path d="M20,10 C20,15.5230243 15.5231498,20 9.99971957,20 C4.47741103,20 0,15.5230243 0,10 C0,4.47697571 4.47741103,0 9.99971957,0 C15.5231498,0 20,4.47697571 20,10" id="Fill-127" fill="#2379E2"></path>
                    <g id="Group-5" transform="translate(3.000000, 4.000000)" fill="#FFFFFF">
                        <path d="M13.6107861,5.33326464 C13.9023988,4.99753359 13.99275,4.54924811 13.780127,4.1685919 C13.5285502,3.71837415 13.120076,3.51355406 12.5882481,3.50679113 C11.905474,3.49906207 11.2199948,3.49954514 10.5345156,3.49374834 C10.4825771,3.49326528 10.4279336,3.50968953 10.3824874,3.47104423 C10.3754541,3.47490876 10.3678797,3.47732409 10.3603054,3.48022249 C10.3673387,3.47732409 10.3754541,3.47490876 10.3824874,3.47056116 C10.4403771,3.36766805 10.500972,3.26622414 10.5556156,3.16236489 C10.7471386,2.79620067 10.863459,2.41023073 10.9002488,2.00880268 C10.9224308,1.76823568 10.9456949,1.52235496 10.8970026,1.28372023 C10.7552539,0.58713869 10.2391157,0.139819339 9.45408781,0.0142221127 C8.9428188,-0.066933018 8.4937677,0.205999416 8.40612158,0.660081695 C8.3595934,0.897750292 8.32604982,1.13735115 8.2362396,1.36680762 C8.01982944,1.92040155 7.63678344,2.37013623 7.15635287,2.76190297 C6.83714787,3.02227568 6.4800711,3.23627403 6.11920715,3.44689092 C5.78647652,3.61499797 5.45212281,3.78020663 5.10803064,3.92995717 C5.03391016,3.96183954 4.98684095,4.02753655 4.98629992,4.10096262 L4.94949854,9.62289298 C4.94896917,9.70308198 5.00415376,9.77602498 5.0880127,9.80500895 C5.39856129,9.9117666 5.71506116,10.0040323 6.03805333,10.0760091 C6.78142226,10.2441162 7.54156297,10.3088471 8.30386778,10.3189914 C9.41134681,10.3368649 10.5188258,10.3349326 11.6263049,10.3383986 C11.7442484,10.3387972 11.8670612,10.3339665 11.9828406,10.3102963 C12.8057403,10.1460537 13.2190837,9.3663848 12.8690402,8.73405107 C12.8311685,8.66497259 12.8473992,8.63067489 12.9134043,8.5862328 C13.4100657,8.25871387 13.565881,7.71816274 13.3061888,7.2104601 C13.2726452,7.14331389 13.2818426,7.10708392 13.3500118,7.06264183 C13.9224167,6.68488402 14.0403603,6.00279447 13.6167374,5.49364264 C13.5599297,5.42359803 13.5642579,5.38736806 13.6107861,5.33326464 L9.45408781,6.71992481" id="Fill-129"></path>
                        <path d="M4.47361643,3.69964425 C4.47361643,3.69454501 4.47361643,3.68944578 4.47361643,3.68485646 C4.47361643,3.65936028 4.47361643,3.63335417 4.47361643,3.60785799 C4.47418264,3.494145 4.47305022,3.38043202 4.3932148,3.28303659 C4.38415546,3.27130835 4.37283128,3.26365949 4.36263953,3.25346102 C4.35301398,3.24275262 4.34282222,3.23255415 4.33149805,3.2228656 C4.31960766,3.21368697 4.30715107,3.20501827 4.29469448,3.19685949 C4.28393651,3.18972056 4.27261234,3.18309155 4.26072196,3.17748239 C4.24147086,3.16728392 4.22221976,3.15810529 4.20183625,3.15147628 C4.19957142,3.15045643 4.19674037,3.14994651 4.19447554,3.14892666 C4.14068571,3.13158926 4.08349863,3.12088086 4.02008325,3.12037094 C3.43349103,3.11731139 2.84689881,3.11476178 2.26030658,3.11170223 C1.67371436,3.10864269 1.08712213,3.10507323 0.500529907,3.10150376 C0.43768074,3.10150376 0.379927451,3.11170223 0.326137624,3.12852972 C0.32330658,3.12954956 0.321041745,3.13005949 0.318210702,3.13056941 C0.297827188,3.13719842 0.278576092,3.14586712 0.259324996,3.15606559 C0.247434613,3.16167476 0.236110439,3.16830376 0.224786265,3.17544269 C0.212329673,3.18309155 0.199873081,3.19176025 0.187982698,3.20093888 C0.176658524,3.21011751 0.166466767,3.2208259 0.156275011,3.23102438 C0.145517045,3.24122285 0.134192871,3.24887171 0.125133531,3.26059995 C0.0441656857,3.35646561 0.0413346422,3.47068851 0.0402022247,3.58389157 C0.0402022247,3.60989768 0.0402022247,3.63590379 0.039636016,3.66139997 C0.039636016,3.66649921 0.039636016,3.67108852 0.0390698073,3.67618776 C0.0390698073,3.68077707 0.039636016,3.68536639 0.039636016,3.68893585 C0.0294442592,5.28091762 0.0186862937,6.87238946 0.00849453692,8.46386131 C0.00509728465,8.93350103 0.000567614963,9.40263082 -4.85405954e-13,9.87176062 C-0.000564802459,10.162927 0.16986402,10.3174339 0.488073315,10.3194736 C0.783634262,10.3215133 1.07976142,10.3225332 1.37532237,10.323553 C1.5202718,10.3281423 1.66635364,10.3240629 1.81130307,10.3261026 C1.94549454,10.3271225 2.07911979,10.3276324 2.21274505,10.3281423 C2.34693651,10.3291622 2.48056177,10.3296721 2.61475323,10.3306919 C2.75970266,10.330182 2.9052183,10.3357912 3.05073394,10.3327316 C3.34629489,10.3347713 3.64242204,10.337321 3.93798299,10.3383459 C4.25619229,10.3393606 4.42831974,10.1863835 4.43171699,9.89572703 C4.43737908,9.42608731 4.43851149,8.95695752 4.44190874,8.4873178 C4.4521005,6.89584595 4.46229226,5.30386419 4.47305022,3.71290227 C4.47361643,3.70882288 4.47361643,3.70423356 4.47361643,3.69964425" id="Fill-131"></path>
                    </g>
                </g>
                <g id="Group-2" transform="translate(32.000000, 2.000000)">
                    <path d="M19,9.49974069 C19,14.7467176 14.7467176,19 9.49974069,19 C4.25276375,19 2.183874e-14,14.7467176 2.183874e-14,9.49974069 C2.183874e-14,4.25328238 4.25276375,0 9.49974069,0 C14.7467176,0 19,4.25328238 19,9.49974069" id="Fill-133" fill="#F54F71"></path>
                    <path d="M11.9649847,5.58823529 C10.837494,5.58823529 9.85632705,6.24923649 9.35190933,7.22363859 C8.84749162,6.24923649 7.86632467,5.58823529 6.73883402,5.58823529 C5.09575184,5.58823529 3.763408,6.9915313 3.763408,8.722805 C3.763408,11.3320497 8.46704999,14.1750837 9.35190933,14.5294118 C10.2793356,14.1352779 14.9398786,11.910636 14.9398786,8.722805 C14.9398786,6.9915313 13.6080668,5.58823529 11.9649847,5.58823529" id="Fill-135" fill="#FFFFFF"></path>
                </g>
                <g id="Group-10" transform="translate(14.500000, 68.000000) scale(-1, 1) translate(-14.500000, -68.000000) translate(5.000000, 59.000000)">
                    <path d="M18.9768216,8.37726209 C19.3400201,13.3361608 15.3918015,17.6339472 10.1575156,17.9780371 C4.92362116,18.322127 0.386379053,14.5823743 0.0231805131,9.62347553 C-0.340018027,4.6645768 3.60780921,0.366419624 8.84209507,0.0219589598 C14.0763809,-0.322130918 18.613623,3.41836336 18.9768216,8.37726209" id="Fill-193" fill="#FFC965"></path>
                    <path d="M9.68062067,12.9994008 C9.55429466,13.007887 9.43610731,12.9255009 9.40426042,12.7985627 C9.36852113,12.655713 9.45521544,12.5110954 9.59781875,12.4760901 C9.88833317,12.4028973 10.379483,12.1182587 10.4580387,11.8548354 C10.4750237,11.7975541 10.4789161,11.7243613 10.3777137,11.6147489 C10.1756629,11.3955242 9.69406713,11.6568259 9.43787658,11.8728684 C9.3253509,11.9669229 9.15762393,11.9538401 9.06279097,11.8413991 C8.967958,11.7286044 8.98211217,11.5610035 9.09463786,11.4658883 C9.61798845,11.0249636 10.3391436,10.788413 10.7690767,11.2537353 C11.0337597,11.5404954 11.0234979,11.8215981 10.9682967,12.0068784 C10.8041082,12.5574154 10.061368,12.9081751 9.72732944,12.9919755 C9.71175985,12.995865 9.6958364,12.9983401 9.68062067,12.9994008" id="Fill-195" fill="#3D4564"></path>
                    <path d="M10.2021848,14.9972574 C9.85853993,15.0215351 9.46467557,14.8824904 9.12605267,14.6650951 C9.00014521,14.5834339 8.96212188,14.4123868 9.04139694,14.2832739 C9.12103072,14.1537931 9.28747249,14.1148017 9.41373865,14.1957272 C9.70142464,14.381488 10.2222726,14.580859 10.3933776,14.3270472 C10.4798269,14.1994057 10.4654784,14.1243657 10.4403687,14.0680857 C10.3245051,13.8076527 9.79146102,13.5851076 9.49014403,13.5520017 C9.34199651,13.5358166 9.2343833,13.3993468 9.25016657,13.2474276 C9.26594984,13.0955084 9.39795538,12.9847876 9.54717904,13.0017084 C9.894411,13.0395962 10.6889552,13.2937758 10.9314436,13.8378158 C11.012871,14.0213696 11.0627318,14.3090229 10.836744,14.6426566 C10.6814223,14.8721908 10.4557932,14.9792331 10.2021848,14.9972574" id="Fill-197" fill="#3D4564"></path>
                    <path d="M11.4788512,9.99849269 C11.364548,10.0095188 11.2468496,9.96016378 11.1536718,9.84675223 C10.967316,9.62045419 10.9476996,9.22718914 11.1099121,8.96781273 C11.6214473,8.14977943 12.7727787,7.40577866 13.8456445,8.70318578 C14.0327548,8.92948383 14.0523712,9.32274887 13.8901587,9.58212529 C13.7279462,9.84202675 13.4450174,9.86932953 13.2586617,9.64355654 C12.4928679,8.71841233 11.8557123,9.6745347 11.7851687,9.78637109 C11.7040625,9.91605929 11.5927772,9.98746656 11.4788512,9.99849269" id="Fill-199" fill="#3D4564"></path>
                    <path d="M6.99585286,8.94727005 C7.04571367,9.49831993 6.64020505,9.96928229 6.09017798,9.99856802 C5.54054046,10.0278538 5.05400802,9.60440599 5.00414721,9.05305728 C4.9542864,8.50170858 5.35979502,8.03074621 5.90943255,8.00146048 C6.45945961,7.97187592 6.94599205,8.39532368 6.99585286,8.94727005" id="Fill-201" fill="#3D4564"></path>
                    <path d="M16.2990528,12.2675318 C18.71189,10.8745406 19.7520816,13.7189576 18.4043612,15.0673063 C17.3445102,16.1267491 14.9088541,17 14.9088541,17 C14.7617599,16.8029197 13.3547103,14.8742184 13.0436709,13.3839573 C12.6476749,11.4890101 15.041906,9.72254623 16.2990528,12.2675318" id="Fill-203" fill="#F54F71"></path>
                    <path d="M4.21032014,5.99944735 C4.20543572,5.99972368 4.2005513,6 4.19566688,6 C4.08734771,5.99944735 3.99942816,5.91461591 4,5.8104418 C4.00115208,5.34953354 4.19106978,4.89415175 4.52148636,4.56090513 C4.85161563,4.2276585 5.31103834,4.01875763 5.79373387,4.00024393 C5.90234036,3.99499378 5.99428237,4.07512771 5.99974143,4.17930182 C6.00520048,4.28375225 5.92360195,4.38267621 5.81355886,4.37770238 C5.43659664,4.40008462 5.06767934,4.55786556 4.80593195,4.82203121 C4.54418455,5.08564421 4.39391683,5.4462469 4.39276756,5.81127078 C4.39248024,5.91130003 4.31203098,5.99281558 4.21032014,5.99944735" id="Fill-205" fill="#3D4564"></path>
                    <path d="M13.7525845,6.99940262 C13.6931683,7.00332972 13.6321988,6.98801402 13.5801612,6.94992111 C12.8197897,6.40130471 12.0776703,6.39502135 11.4349662,6.93264185 C11.3215707,7.02728505 11.1545841,7.01039851 11.0609939,6.8965125 C10.9674038,6.78223378 10.9833258,6.61297561 11.096333,6.5183324 C11.9219456,5.82912569 12.9393987,5.82716214 13.8888921,6.51283446 C14.0081128,6.59923074 14.035685,6.76691807 13.9506383,6.88748016 C13.9024841,6.95581176 13.8290877,6.99351196 13.7525845,6.99940262" id="Fill-207" fill="#3D4564"></path>
                </g>
            </g>
        </g>
    </g>
</svg>