<svg width="310" height="175" xmlns="http://www.w3.org/2000/svg" xmlns:xlink="http://www.w3.org/1999/xlink"><defs><path id="a" d="M0 .876h310v174H0z"/><path id="c" d="M.57.066h19.027v40.737H.57z"/></defs><g fill="none" fill-rule="evenodd"><mask id="b" fill="#fff"><use xlink:href="#a"/></mask><use fill="#FFE5E0" fill-rule="nonzero" xlink:href="#a"/><g mask="url(#b)"><path d="M-253.485 161.447c-.031 6.937 95.139 12.988 212.568 13.516 117.43.528 212.65-4.665 212.682-11.602.03-6.936-95.14-12.988-212.57-13.517-117.429-.528-212.65 4.666-212.68 11.603" fill="#FBD0C8"/><path d="M-122.239 136.463c3.508-7.381 7.57-8.315 7.57-8.315 19.577 2.344 42.474 1.18 61.98-1.326 0 0-.001.002-.003.002.002 0 .002-.002.002-.002h.002-.001c6.388-8.193 16.675-13.44 28.633-14.604 13.992-1.358 28.532 4.31 38.32 14.07-2.308 8.359-3.513 17.803-2.356 26.57-21.515 3.797-44.097 3.562-65.786 2.767-23.068-.847-47.498-2.523-69.915-8.274 0 0-1.953-3.507 1.554-10.888" fill="#008455"/><path d="M16.365 161.817c-22.195 5.156-45.822 5.794-68.492 5.834-23.182.041-47.762-.696-70.485-5.588 0 0-2.444-2.57-3.502-11.035-1.057-8.464.832-10.347.832-10.347 23.933-1.106 49.071-5.426 72.104-11.819 6.098-9.957 17.44-16.388 30.885-17.693 14.05-1.36 28.652 4.317 38.482 14.093-3.23 11.665-4.333 25.445.176 36.555" fill="#27C195"/><path d="M158.745 123.565a2533.088 2533.088 0 00-38.631 17.977s-2.033 1.815-2.756 9.949c-.723 8.133.813 11.907.813 11.907 2.26.213 4.713-.18 7.38-1.355 15.393-6.79 28.265-19.142 42.014-29.987 0 0-.566-1.875-4.018-4.472-3.453-2.596-4.802-4.019-4.802-4.019" fill="#EF4D3C"/><path d="M76.287 95.065c.567-5.803.138-3.83.567-4.22 13.524-12.304 28.136 16.584 36.167 32.663.029.001 6.756 17.01 9.176 20.485 0 0 .829 2.04-.748 9.362-1.575 7.32-3.218 9.049-3.218 9.049-17.453-.989-19.654-18.563-23.744-27.09-1.19.272-2.239.36-3.058.202-4.95-9.761-11.101-22.469-13.259-30.972-1.08-4.257-2.262-5.607-1.883-9.479" fill="#EF4D3C"/><path d="M100.498 8.165c14.305-.808 26.103 5.876 33.465 17.993 2.578 4.241 9.234 17.016 1.94 21.332-2.743 1.628-7.443-.2-11.257 2.47C84.456 78.1 64.324 52.424 67 40.996c3.378-14.414.838-30.986 33.497-32.83" fill="#520005"/><path d="M96.41 112.938c2.779 14.078 7.225 20.746 3.705 31.675-2.173 6.747-9.534 9.402-11.483 10.373-5.995 2.985-9.67 2.798-18.708-.556-10.001 9.262-28.1 7.225-37.6 7.225-4.63 0-11.853-.927-16.642.749 0 0-4.462-4.69-4.566-17.93-.102-13.241 4.28-18.81 4.28-18.81 10.76-.261 16.638-1.94 24.06-10.225 3.982-4.446 7.51-11.186 13.613-22.784 5.557-10.558 21.646-15.823 29.265-13.8 7.619 2.025 9.097 8.851 14.077 34.083" fill="#FFDFAB"/><path d="M82.931 71.24c10.827 14 15.131 35.676 6.658 36.55-5.585.576-21.174-7.384-30.04-11.04-8.866-3.655-11.231-11.08-11.592-15.735-.61-7.868 1.666-18.53 11.15-20.932 9.296-2.354 17.628 3.145 23.824 11.158" fill="#FF654C"/><path d="M128.097 42.482c.996 11.7 4.325 27.202-2.665 37.723-6.15 9.252-18.486 12.152-26.903 3.722-3.824-3.83-7.123-9.804-9.419-14.618-5.35-11.217-5.769-30.59 8.25-38.51 12.874-7.275 29.827.98 30.737 11.683" fill="#D4A181"/><path d="M103.368 38.331c-.413 2.308-1.962 4.731-2.858 5.905-1.596 2.084-4.25 4.633-5.84 7.37-1.685 2.9-2.036 7.255-1.413 12.127 0 0-8.682-1.771-10.66-9.79-2.121-8.594-3.03-25.717 13.966-36.396 0 0 8.135 13.335 6.805 20.784" fill="#520005"/><path d="M85.934 59.534c-.7 5.483-8.431 18.472-13.805 20.8 0 0-1.518 2.16 6.511 11.26 8.03 9.102 13.109 10.977 13.109 10.977-.101-6.45 3.08-14.844 8.615-18.796 0 0 .143-4.776-4.042-13.323-4.603-9.4-10.388-10.918-10.388-10.918" fill="#D4A181"/><path d="M75.593 80.035c1.342-1.918 3.16-1.81 5.058-1.25 2.495.738 8.53 2.013 9.694 7.97.703 3.594 1.124 6.251 2.67 14.846-1.005 1.039-2.442 1.238-4.496.625-5.76-1.72-9.554-6.876-12.363-15.315-.612-1.836-1.546-5.47-.563-6.876" fill="#D4A181"/><path d="M73.065 42.087c2.847-4.706-.646-9.233 2.271-14.772 11.727-34.129 39.285-20.357 56.386-6.192 3.125 2.466 8.213 7.234 7.705 11.103 7.13 18.308-8.231 15.22-8.264 24.292-2.477-1.492-4.772-10.156-4.33-16.052-.603 9.885-2.937-3.788-8.727-7.077-.593 3.672 1.096 4.96 1.816 6.157-1.967.116-2.297-1.729-4.483-3.663-2.06 10.862-2.34-.834-7.597-3.077-.08 1.945-2.212 5.792-5.028 5.543 1.667-1.37 3.077-4.65 1.97-7.735-1.132 1.642-7.531 14.181-7.97 8.426-5.647 3.033-1.669 1.144-1.428-4.464-3.886 4.773-8.748 13.704-9.609 9.703.493 4.558-.678 8.816-.695 14.205-2.422-8.873-11.52-7.247-9.038-16.06-.318.358-2.519.92-2.98-.337" fill="#520005"/><path d="M79.993 66.882s-17.228 6.276-8.813 15.947c2.132 2.449 9.017 13.9 7.96 1.425 1.057-13.513 16.189 2.602 16.189 2.602l2.936-2.812-18.272-17.162z" fill="#BA8B72"/><path d="M145.896 116.217c-13.2 5.718-38.778 26.146-51.949 32.11 0 0-2.09 1.774-2.834 9.728-.743 7.953.837 11.643.837 11.643 2.324.208 4.846-.177 7.587-1.325 15.83-6.64 41.29-30.827 55.428-41.432 0 0-.581-1.833-4.132-4.373-3.55-2.538-4.937-6.35-4.937-6.35" fill="#FF654C"/><path d="M51.18 99.535c.564-5.82 3.676-8.667 4.084-9.08 7.09-7.154 14.832 1.651 21.053 13.22 5.57 10.357 9.897 22.208 13.439 28.349 2.61 5.283 4.455 9.492 7.459 15.804 0 0-.406 4.453-1.975 11.796-1.57 7.344-3.206 9.078-3.206 9.078-12.26-1.088-26.655-26.964-26.697-26.972-4.93-9.791-11.057-22.54-13.206-31.07-1.076-4.271-1.33-7.24-.952-11.125" fill="#FF654C"/><path d="M57.851 121.072c-1.866 6.08 1.479 11.396 4.762 7.411 1.112 1.6 1.495 2.45 2.717-3.195 7.293 3.803 2.567-33.15-7.479-4.216" fill="#520005"/><path d="M63.08 111.115c-.321-.839-.713-1.632-1.095-2.429-.374-.862-.73-1.74-1.06-2.636a9.548 9.548 0 01-.197-.83c-.537-2.887-.345-5.647 1.443-8.227 1.396-2.014 4.69-2.167 6.737-1.168 1.914.932 2.74 2.19 2.846 4.178.389 1.418.308 3.12-.014 4.517-.527 2.282-1.871 3.818-3.167 5.232-1.36 1.487-2.635 1.836-3.867 3.316-.468-.991-1.124-.883-1.626-1.953" fill="#190003"/><path d="M62.565 95.666c.202-.18.417-.33.646-.442.232 1.333.378 2.747.404 4.198-.564-.832-.869-2.388-1.05-3.756M66.82 102.571c-.391-2.757 1.37-4.521 3.452-6.298.793.43 1.354.937 1.743 1.553-1.656 1.691-3.608 3.169-5.196 4.745" fill="#673F36"/><path d="M63.779 102.423c-.423-.882-.917-1.714-1.39-2.539-.464-.898-.898-1.8-1.301-2.714a8.75 8.75 0 01-.252-.843c-.695-2.944-.517-5.77 1.417-8.607 1.51-2.217 5.285-2.361 7.771-1.315 2.322.976 3.374 2.316 3.625 4.368.552 1.486.569 3.24.282 4.67-.47 2.34-1.968 3.91-3.446 5.42-1.557 1.587-3.208 3.262-4.687 4.857a64.635 64.635 0 01-2.02-3.297" fill="#855348"/><path d="M63.779 102.423c-.423-.882-.917-1.714-1.39-2.539-.464-.898-.898-1.8-1.301-2.714a8.75 8.75 0 01-.252-.843c-.695-2.944-.517-5.77 1.417-8.607 1.51-2.217 5.285-2.361 7.771-1.315 2.322.976 3.374 2.316 3.625 4.368.552 1.486.569 3.24.282 4.67-.47 2.34-1.968 3.91-3.446 5.42-1.557 1.587-3.208 3.262-4.687 4.857a64.635 64.635 0 01-2.02-3.297" fill="#520005"/><path d="M67.85 92.075c-.274-2.752 1.11-4.767 3.005-6.299.933.404 1.664.834 2.21 1.405-.14.108-.281.217-.421.323-1.774 1.367-3.165 2.974-4.795 4.57M64.665 86.394c.386-.28.812-.482 1.265-.618a24.4 24.4 0 01.835 4.2c-.834-.636-1.569-1.991-2.1-3.582" fill="#855348"/><path d="M64.74 91.921c-.558-.874-1.183-1.69-1.78-2.48a74.333 74.333 0 01-1.67-2.551 5.898 5.898 0 01-.337-.826c-.94-2.95-.637-6.09 1.907-8.527 1.985-1.9 6.413-1.257 9.512-.125 2.893 1.054 4.116 2.318 4.356 4.095.64 1.335.648 2.868.336 4.094-.512 2.006-2.205 3.302-3.95 4.733a146.517 146.517 0 00-5.629 4.89c-.944-1.001-1.897-2.187-2.746-3.303" fill="#190003"/><path d="M71.364 81.812c-1.04.598-2.02 1.364-3.084 1.865-.998-2.104-2.754-3.488-3.907-5.27a8.38 8.38 0 01-.758-1.538c1.996-1.02 5.572-.444 8.092.476 1.742.635 2.835 1.34 3.458 2.216-1.25.821-2.526 1.518-3.8 2.25" fill="#673F36"/><path d="M65.76 82.413c-.592-.913-1.236-1.79-1.845-2.65a66.266 66.266 0 01-1.683-2.788 7.353 7.353 0 01-.326-.858c-.89-2.994-.358-6.06 2.576-8.303 2.29-1.751 6.93-.757 10.482.707 3.317 1.367 4.732 2.867 4.941 4.71.69 1.441.612 2.989.167 4.167-.73 1.93-2.805 2.902-4.844 4.07-2.142 1.23-4.357 2.78-6.367 4.308a26.984 26.984 0 01-3.101-3.363" fill="#520005"/><path d="M66.128 75.425c-.508-1.092-1.067-2.15-1.6-3.186-.515-1.118-.991-2.23-1.458-3.335a9.225 9.225 0 01-.269-.998c-.69-3.474.05-6.777 3.278-9.313 2.52-1.981 7.158-1.227 10.93.803 3.524 1.896 5.048 3.818 5.128 6.008.644 1.727.397 3.498-.235 4.834-1.034 2.185-3.475 3.245-5.822 4.504-2.467 1.324-4.97 2.998-7.153 4.736-1.045-1.177-2.006-2.638-2.8-4.053" fill="#673F36"/><path d="M82.515 66.303c-.06-.3-.137-.602-.25-.9-.08-2.189-1.615-4.111-5.16-6.006-3.798-2.032-8.467-2.785-11.003-.805-3.25 2.538-3.994 5.84-3.3 9.313.069.345.168.67.271.999.47 1.104.95 2.217 1.469 3.335.536 1.036 1.098 2.094 1.609 3.186.798 1.416 1.766 2.876 2.817 4.053 2.198-1.738 4.718-3.411 7.2-4.736 2.363-1.258 4.82-2.317 5.86-4.504a6.13 6.13 0 00.343-.911" fill="#190003"/><path d="M69.198 67.606c-.473-1.199-1.037-2.366-1.522-3.476-.508-1.162-.967-2.391-1.458-3.565a10.182 10.182 0 01-.275-1.055c-.688-3.651.051-8.332 3.961-11.324 2.439-1.869 4.74-1.276 6.98-.55 2.194.713 5.053 2.129 7.459 4.056 1.015.814 2.024 1.68 2.81 2.69.774.99.883 1.896 1.278 2.963 1.898 5.116-3.64 8.456-7.845 10.21-2.942 1.226-5.975 2.812-8.58 4.575-1.12-1.301-2.048-2.964-2.808-4.524" fill="#855348"/><path d="M65.943 59.51c.07.362.17.71.275 1.055.49 1.173.962 2.36 1.458 3.565.518 1.12 1.049 2.277 1.522 3.475.76 1.561 1.688 3.223 2.808 4.525 2.605-1.763 5.638-3.35 8.58-4.575 4.206-1.754 9.743-5.094 7.845-10.21-.395-1.067-.504-1.973-1.278-2.963-.786-1.01-1.795-1.877-2.81-2.69-2.406-1.927-5.265-3.342-7.46-4.055-2.238-.728-4.54-1.32-6.979.548-3.91 2.993-4.65 7.673-3.96 11.324" fill="#520005"/><path d="M60.485 112.543c-.092.358.143.71.532.787 2.267.445 3.543.6 5.896.785.404.033.8-.245.885-.618.086-.372-.172-.694-.574-.72-2.35-.151-3.63-.297-5.88-.744-.385-.076-.767.151-.86.51M61.534 109.405c-.09.365.144.725.53.802 2.258.455 3.545.605 5.902.76.405.027.8-.26.883-.64.084-.382-.175-.707-.578-.728-2.353-.12-3.646-.259-5.885-.714a.726.726 0 00-.852.52" fill="#008455"/><g transform="matrix(-1 0 0 1 102.465 6)"><mask id="d" fill="#fff"><use xlink:href="#c"/></mask><path d="M19.569 39.534c.294-6.2-1.731-32.608-4.043-35.879C12.166-1.094-.047-.142.594.976c5.913 10.335 5.71 25.386 6.919 37.73 0 0 1.137 1.714 6.027 2.05 4.89.336 6.029-1.222 6.029-1.222" fill="#E2104C" mask="url(#d)"/></g><path d="M74.136 56.524c.412 8.397 6.611 14.907 13.848 14.542 7.238-.368 12.771-7.473 12.359-15.87-.41-8.399-6.612-14.91-13.85-14.541-7.237.366-12.768 7.472-12.357 15.869" fill="#F54F71"/><path d="M77.281 55.839c.313 6.371 5.024 11.31 10.525 11.032 5.5-.279 9.706-5.67 9.392-12.04-.312-6.37-5.025-11.31-10.525-11.03-5.5.276-9.704 5.668-9.392 12.038" fill="#F54F71"/><path d="M179.861 111.99s-3.185-4.481-5.861-7.522c-2.676-3.04-4.222-3.876-6.839-1.807-1.084.857-9.591 8.267-9.019 20.535.377 8.083 8.097 9.718 8.097 9.718s2.6 1.186 8.32-4.669c5.082-5.205 6.257-14.28 5.302-16.255" fill="#BC8668"/><path d="M129.19 63.733l3.487 8.072c.802 1.857-.518 3.917-2.637 4.117l-3.425.407 2.575-12.596z" fill="#D4A181"/><path d="M150.9 124.928L165.75 95.1a4.84 4.84 0 013.434-2.602l7.776-1.453c.506-.095.95.136 1.204.502l.001-.002 2 2.226-2.656.482-14.084 27.264-10.946 5.08c-1.04.483-2.097-.635-1.578-1.67" fill="#A3A9CE"/><path d="M180.017 94.926l-15.21 28.692-11.232 5.08c-1.068.483-2.153-.636-1.62-1.671L167.193 97.2a4.953 4.953 0 013.523-2.602l7.98-1.454c1.02-.184 1.806.876 1.32 1.781" fill="#848FBB"/><path d="M142.365 118.64l3.55-5.014a17.318 17.318 0 014.748-4.558 17.286 17.286 0 004.744-4.553l2.866-4.043c1.378 1.6 1.79 3.882 1.077 5.941l-.733 2.114-2.978 5.64 13.33-2.523c1.646-.312 3.056 1.17 2.755 2.893-.172.977-.87 1.77-1.786 2.031l-5.515 1.567-3.721 7.682c-.986 2.036-6.088 4.816-8.828 3.848" fill="#D4A181"/><path d="M110.865 76.33c4.56 7.078 12.6 6.4 12.6 6.4s-2.01 2.493-8.212-.612c-4.288-2.146-4.388-5.789-4.388-5.789" fill="#190003"/><path d="M170.73 101.34a1.05 1.05 0 102.068.363 1.05 1.05 0 00-2.067-.364M170.796 97.315l2.313-.21c.508-.046.84-.269.737-.495-.104-.227-.604-.374-1.113-.328l-2.313.209c-.508.045-.84.269-.736.495.103.227.603.375 1.112.329" fill="#434656"/><path d="M115.886 56.167s-1.964 3.506.182 4.21c2.146.705 2.832-.475 3.902-2.3 1.669-2.844-3.22-3.466-4.084-1.91" fill="#261818"/><path d="M125.036 53.46c-1.198-.937-2.125-2.287-5.36-2.725-3.236-.438-8.134.326-8.475.153-.693-.35-.475-1.1 2.177-1.732 2.488-.592 6.064-1.876 9.424-.669 3.36 1.207 4.822 4.05 4.862 5.246.04 1.194-2.095.145-2.628-.272" fill="#520005"/><g><path d="M195.089 57.319h-24.142c-2.982 0-5.4 2.292-5.4 5.12v12.029c0 2.829 2.418 5.12 5.4 5.12h3.941l.207 6.696 6.978-6.696h13.016c2.982 0 5.399-2.291 5.399-5.12v-12.03c0-2.827-2.417-5.12-5.4-5.12" fill="#FFF"/><path d="M178.253 68.181c0 1.429-1.186 2.586-2.648 2.586-1.462 0-2.647-1.157-2.647-2.586 0-1.428 1.185-2.586 2.647-2.586 1.462 0 2.648 1.158 2.648 2.586M186.723 68.181c0 1.429-1.185 2.586-2.647 2.586-1.463 0-2.647-1.157-2.647-2.586 0-1.428 1.184-2.586 2.647-2.586 1.462 0 2.647 1.158 2.647 2.586M194.135 68.181c0 1.429-1.185 2.586-2.647 2.586-1.462 0-2.647-1.157-2.647-2.586 0-1.428 1.185-2.586 2.647-2.586 1.462 0 2.647 1.158 2.647 2.586" fill="#FF654C"/></g><g><path d="M272 142.5c0 5.8-4.7 10.5-10.5 10.5s-10.5-4.7-10.5-10.5 4.7-10.5 10.5-10.5 10.5 4.7 10.5 10.5" fill="#F54F71"/><path d="M264.54 138c-1.312 0-2.453.74-3.04 1.829a3.455 3.455 0 00-3.04-1.829c-1.91 0-3.46 1.57-3.46 3.506 0 2.919 5.47 6.097 6.5 6.494 1.08-.441 6.5-2.93 6.5-6.494 0-1.936-1.55-3.506-3.46-3.506" fill="#FFF"/></g><g><path d="M292.14 93.855c0 7.446-6.036 13.482-13.482 13.482-7.445 0-13.481-6.036-13.481-13.482 0-7.445 6.036-13.48 13.48-13.48 7.447 0 13.483 6.035 13.483 13.48" fill="#2379E2"/><g fill="#FFF"><path d="M287.648 93.738c.359-.487.47-1.139.208-1.69-.308-.654-.812-.95-1.464-.961-.84-.01-1.683-.01-2.526-.018-.064 0-.13.022-.186-.034-.01.006-.019.01-.029.014.01-.004.019-.008.029-.015.07-.149.146-.296.212-.447.235-.53.379-1.09.424-1.673.027-.35.056-.706-.004-1.052-.175-1.012-.81-1.66-1.773-1.841-.63-.119-1.181.278-1.289.937-.058.344-.1.692-.21 1.024-.265.804-.736 1.457-1.326 2.024-.394.378-.833.69-1.276.994-.41.244-.82.485-1.243.7a.281.281 0 00-.15.25L277 99.962c0 .116.067.222.17.264a9.66 9.66 0 001.168.394c.914.244 1.848.337 2.786.352 1.362.026 2.723.022 4.085.028.145 0 .295-.007.438-.041 1.01-.238 1.52-1.37 1.09-2.286-.046-.101-.028-.15.054-.216.61-.474.803-1.258.482-1.995-.04-.098-.03-.15.055-.216a1.655 1.655 0 00.327-2.276c-.07-.1-.064-.153-.007-.232M276 92.744v-.018-.097c0-.142-.001-.282-.108-.403-.012-.015-.027-.025-.04-.037l-.043-.038a.59.59 0 00-.096-.057.759.759 0 00-.078-.032l-.01-.003a.795.795 0 00-.234-.035l-2.36-.011-2.36-.013a.832.832 0 00-.234.033c-.003.002-.007.002-.01.003a.698.698 0 00-.08.032l-.046.024a.422.422 0 00-.091.07c-.014.01-.03.021-.042.035-.108.12-.112.262-.113.403l-.001.096-.001.02v.014l-.042 5.938c-.004.585-.01 1.168-.011 1.753 0 .36.227.553.654.556l1.19.006c.196.004.39 0 .585.002l.539.002.539.004c.195-.001.39.006.584.002l1.19.007c.427 0 .657-.189.662-.55.008-.584.01-1.168.014-1.751L276 92.76v-.017"/></g></g><g><path d="M260.817 53.808c.672 9.348-6.363 17.47-15.71 18.14-9.348.672-17.47-6.362-18.14-15.71-.671-9.349 6.362-17.47 15.71-18.141 9.347-.67 17.47 6.363 18.14 15.711" fill="#FFC965"/><path d="M252.832 44.707c-3.065-5.18-7.792-.988-6.642 2.969.905 3.11 4.526 7.346 4.526 7.346.465-.212 4.962-2.302 7.008-4.749 2.601-3.111-.062-8.967-4.892-5.566M232.523 46.254c2.361-5.55 7.687-2.13 7.079 1.932-.478 3.192-3.527 7.897-3.527 7.897-.497-.14-5.3-1.528-7.691-3.628-3.042-2.674-1.18-8.829 4.139-6.2" fill="#F54F71"/><path d="M239.214 60.036c-.4-.091-.736.316-.59.717.862 2.368 3.585 3.999 6.674 3.798 3.09-.2 5.529-2.166 6.008-4.622.08-.416-.317-.775-.698-.632-1.672.625-3.584 1.04-5.633 1.174-2.049.133-4.007-.031-5.76-.435" fill="#3D4564"/><path d="M245.357 60.339c-1.184.15-2.151 1.563-2.526 3.453.82.588 1.738.87 2.696.748.96-.122 1.845-.633 2.607-1.425-.522-1.776-1.59-2.928-2.777-2.776" fill="#F54F71"/></g><g><path d="M230.25 110.318c.464 6.7-4.581 12.506-11.27 12.97-6.688.466-12.486-4.587-12.95-11.286-.465-6.7 4.58-12.507 11.27-12.972 6.688-.465 12.486 4.588 12.95 11.288" fill="#FFC965"/><path d="M218.48 116.766a.422.422 0 01-.13-.83c.46-.116 1.237-.567 1.362-.985.027-.09.033-.207-.128-.38-.32-.349-1.082.066-1.488.409a.422.422 0 11-.543-.646c.828-.7 1.97-1.074 2.651-.336.42.454.403.9.316 1.194-.26.873-1.436 1.43-1.965 1.562a.431.431 0 01-.074.012" fill="#3D4564"/><path d="M219.307 118.877c-.545.039-1.168-.182-1.705-.526-.199-.13-.26-.401-.134-.606a.422.422 0 01.59-.139c.456.295 1.28.611 1.551.209.137-.203.114-.322.075-.411-.184-.413-1.028-.766-1.505-.819a.437.437 0 01-.38-.483.429.429 0 01.47-.39c.55.06 1.808.464 2.192 1.327.13.29.208.747-.15 1.276-.246.364-.603.534-1.004.562M221.244 111.479a.61.61 0 01-.458-.16.68.68 0 01-.061-.93c.72-.865 2.34-1.651 3.85-.28a.68.68 0 01.063.93.61.61 0 01-.89.065c-1.077-.979-1.974.032-2.073.15a.618.618 0 01-.431.225M215.287 110.868c.053.874-.375 1.621-.956 1.668-.58.046-1.094-.626-1.146-1.5-.053-.874.375-1.621.955-1.668.581-.047 1.095.625 1.147 1.5" fill="#3D4564"/><path d="M227.325 114.325c3.396-1.964 4.86 2.046 2.963 3.947-1.492 1.493-4.92 2.724-4.92 2.724-.207-.277-2.188-2.996-2.625-5.097-.558-2.672 2.812-5.162 4.582-1.574" fill="#F54F71"/><path d="M211.402 107.25l-.023.001a.306.306 0 01-.31-.3 2.853 2.853 0 01.826-1.982 3.02 3.02 0 012.014-.89.306.306 0 01.327.285c.008.165-.121.322-.295.314a2.469 2.469 0 00-1.596.705c-.414.418-.652.99-.654 1.569a.304.304 0 01-.289.298M224.444 108.308a.459.459 0 01-.243-.052c-1.07-.58-2.114-.587-3.019-.019a.46.46 0 01-.526-.038c-.132-.12-.11-.3.05-.4 1.161-.728 2.594-.73 3.93-.006.168.092.207.27.087.397a.414.414 0 01-.279.118" fill="#3D4564"/></g><g opacity=".6" fill="#FFF"><path d="M193.079 23.675c.457-.606.598-1.413.265-2.1-.394-.81-1.035-1.18-1.868-1.192-1.07-.014-2.144-.013-3.218-.023-.082-.001-.167.028-.238-.042-.011.008-.023.012-.035.017.011-.005.023-.01.035-.018.09-.185.186-.368.271-.555.3-.66.482-1.356.54-2.08.035-.433.071-.875-.005-1.306-.222-1.256-1.03-2.062-2.26-2.288-.802-.146-1.506.345-1.643 1.164-.073.428-.126.86-.266 1.274-.34.997-.94 1.809-1.692 2.514-.5.47-1.06.856-1.626 1.235v-.001c-.522.304-1.045.602-1.584.87a.35.35 0 00-.191.31l-.058 9.953a.35.35 0 00.217.328c.487.192.983.359 1.49.488 1.164.304 2.355.42 3.55.439 1.735.032 3.47.028 5.206.035a2.38 2.38 0 00.558-.052c1.29-.295 1.938-1.7 1.39-2.84-.06-.125-.035-.187.069-.266.779-.59 1.022-1.565.615-2.48-.053-.12-.038-.187.07-.267a2.022 2.022 0 00.417-2.828c-.09-.126-.083-.192-.01-.289M178.87 21.29l-.001-.025v-.132c.001-.195 0-.388-.12-.554-.014-.02-.03-.034-.046-.05a.584.584 0 00-.047-.053.66.66 0 00-.194-.122l-.011-.004a.74.74 0 00-.261-.05l-2.635-.014-2.634-.017a.736.736 0 00-.262.046l-.012.003a.698.698 0 00-.195.12c-.017.016-.032.034-.048.051-.015.018-.032.031-.046.05-.121.165-.126.36-.127.554v.132l-.002.025.001.022c-.015 2.718-.03 5.435-.047 8.153-.004.8-.011 1.603-.012 2.405 0 .496.254.76.73.764.443.004.886.005 1.33.007.216.008.434 0 .652.004l.601.004c.2 0 .401.002.602.004.217-.002.435.008.652.003.443.003.886.007 1.33.009.476.002.733-.26.739-.755.008-.802.01-1.604.014-2.405l.048-8.153v-.022"/></g></g></g></svg>