<svg width="644" height="135" xmlns="http://www.w3.org/2000/svg" xmlns:xlink="http://www.w3.org/1999/xlink"><defs><path id="a" d="M.464.052h15.49v32.322H.464z"/></defs><g fill="none" fill-rule="evenodd"><path d="M621.476 124.078c.025 5.59-76.075 10.466-169.974 10.892-93.898.426-170.038-3.76-170.063-9.35-.025-5.588 76.075-10.465 169.974-10.89 93.898-.427 170.039 3.759 170.063 9.348" fill="#9BB8EA"/><path d="M547.378 31.508c-4.986 24.442-13.267 50.65-20.934 74.373-1.381 4.272-9.21 6.788-9.21 6.788s-6.75-7.284-7.244-12.94c-.475-5.456.048-12.585 1.698-18.825 2.166-8.185 6.543-15.898 10.192-23.491 4.841-10.069 11.196-19.215 14.427-30.007 5.266.22 9.049 2.608 11.071 4.102" fill="#008455"/><path d="M516.269 103.946c-2.8-5.948-6.043-6.7-6.043-6.7-15.627 1.888-33.905.95-49.476-1.069l.002.001-.001-.001h-.002.001c-5.1-6.602-13.311-10.83-22.857-11.768-11.17-1.095-22.776 3.474-30.59 11.338 1.843 6.736 2.805 14.345 1.881 21.41 17.175 3.06 35.201 2.871 52.515 2.23 18.414-.682 37.916-2.033 55.81-6.667 0 0 1.56-2.826-1.24-8.774" fill="#008455"/><path d="M546.433 30.639c8.168.12 15.32.026 23.41 1.745 2.837.6 7.487-1.633 6.925-4.906a1623.843 1623.843 0 00-20.518-7.4c-7.337-2.587-11.444-6.67-17.238-5.73-2.143 1.823-3.674 5.594-2.239 13.077 0 0 1.649-.27 4.948.83 3.301 1.097 4.712 2.384 4.712 2.384" fill="#D24000"/><path d="M406.288 124.208c17.67 4.154 36.48 4.669 54.527 4.7 18.455.034 38.024-.56 56.113-4.502 0 0 1.947-2.07 2.788-8.892.842-6.82-.662-8.339-.662-8.339-19.053-.89-39.066-4.371-57.402-9.523-4.855-8.024-13.884-13.206-24.588-14.258-11.185-1.096-22.81 3.48-30.636 11.356 2.572 9.4 3.45 20.505-.14 29.458" fill="#27C195"/><path d="M603.048 105.487c2.128 3.33 1.266 9.947-1.829 12.223-27.91 3.946-55.584 6.213-83.749 7.14 0 0-1.946-1.388-2.475-8.337-.529-6.95 1.259-7.645 1.259-7.645 16.109-6.824 31.822-7.218 48.312-5.466 12.262 1.302 26.13 2.886 38.482 2.085" fill="#27C195"/><path d="M643.777 112.956a1632.879 1632.879 0 00-20.232-8.096c-7.237-2.836-11.196-7.054-17.015-6.316-2.205 1.744-3.02 4.368-3.324 7.145 0 0 2.062.824 5.794 4.271 3.732 3.448 3.74 4.538 3.74 4.538 8.154.403 15.928 1.114 23.95 3.11 2.811.699 7.534-1.366 7.087-4.652" fill="#D24000"/><path d="M612.315 114.26c-1.46.848-3.724.867-5.36.896-1.404.024-2.807.54-4.174.558 0 0-.674-1.216-.582-4.894.093-3.677.839-5.256.839-5.256 3.036.708 9.771 5.354 9.277 8.696" fill="#D4A181"/><path d="M291.589 94.398c10.34 4.614 20.802 9.37 31.12 14.181 0 0 1.638 1.432 2.22 7.849.583 6.416-.655 9.393-.655 9.393-1.82.168-3.796-.142-5.944-1.069-12.4-5.356-22.77-15.1-33.846-23.656 0 0 .455-1.478 3.237-3.527 2.781-2.048 3.868-3.17 3.868-3.17" fill="#EF4D3C"/><path d="M357.51 70.74c-.45-4.664-.11-3.078-.45-3.391-10.696-9.888-22.253 13.326-28.605 26.246-.023 0-5.343 13.668-7.258 16.46 0 0-.655 1.64.592 7.523 1.246 5.883 2.545 7.272 2.545 7.272 13.804-.795 15.545-14.916 18.78-21.768.942.218 1.77.288 2.418.162 3.917-7.844 8.781-18.055 10.487-24.888.855-3.42 1.79-4.505 1.49-7.616" fill="#EF4D3C"/><path d="M338.748 2.083c-11.424-.647-20.845 4.698-26.725 14.387-2.058 3.392-7.374 13.606-1.549 17.058 2.19 1.301 5.944-.16 8.99 1.975 32.094 22.502 48.172 1.97 46.034-7.168-2.698-11.525-.669-24.777-26.75-26.252" fill="#520005"/><path d="M342.274 85.388c-2.217 11.23-5.765 16.55-2.956 25.269 1.734 5.382 7.609 7.5 9.165 8.275 4.784 2.381 7.717 2.232 14.93-.444 7.982 7.389 22.427 5.764 30.008 5.764 3.696 0 9.46-.74 13.283.598 0 0 3.56-3.741 3.643-14.304.082-10.564-3.415-15.006-3.415-15.006-8.587-.209-13.28-1.548-19.202-8.157-3.178-3.547-5.994-8.924-10.865-18.176-4.435-8.424-17.276-12.624-23.356-11.01-6.08 1.616-7.26 7.061-11.235 27.19" fill="#FFDFAB"/><path d="M353.177 51.983c-8.563 11.183-11.968 28.498-5.266 29.196 4.417.46 16.747-5.898 23.76-8.818 7.012-2.92 8.883-8.852 9.168-12.57.483-6.285-1.318-14.802-8.82-16.721-7.351-1.88-13.941 2.512-18.842 8.913" fill="#FF654C"/><path d="M316.278 28.81c-.802 9.364-3.484 21.77 2.147 30.189 4.954 7.404 14.892 9.725 21.673 2.979 3.08-3.066 5.738-7.846 7.587-11.699 4.31-8.976 4.648-24.48-6.645-30.818-10.372-5.822-24.029.784-24.762 9.35" fill="#D4A181"/><path d="M336.366 25.58c.323 1.826 1.535 3.743 2.236 4.671 1.249 1.649 3.326 3.665 4.57 5.83 1.319 2.295 1.593 5.741 1.106 9.596 0 0 6.794-1.401 8.342-7.746 1.66-6.8 2.37-20.346-10.93-28.796 0 0-6.366 10.551-5.324 16.444" fill="#520005"/><path d="M350.662 42.632c.552 4.396 6.641 14.812 10.875 16.68 0 0 1.195 1.73-5.13 9.029-6.324 7.298-10.325 8.802-10.325 8.802.08-5.173-2.425-11.904-6.786-15.073 0 0-.112-3.83 3.184-10.684 3.625-7.538 8.182-8.754 8.182-8.754" fill="#D4A181"/><path d="M358.24 59.14c-1.068-1.532-2.516-1.446-4.026-.998-1.987.59-6.791 1.608-7.718 6.367-.56 2.87-.895 4.993-2.125 11.859.8.83 1.944.988 3.58.5 4.585-1.374 7.605-5.494 9.842-12.235.486-1.466 1.23-4.369.447-5.492" fill="#D4A181"/><path d="M360.612 28.614c-2.287-3.731.518-7.32-1.825-11.713-9.417-27.061-31.55-16.142-45.283-4.91-2.51 1.956-6.597 5.737-6.188 8.805-5.727 14.516 6.61 12.067 6.636 19.261 1.99-1.183 3.833-8.053 3.478-12.728.484 7.838 2.359-3.004 7.009-5.612.476 2.913-.881 3.934-1.459 4.882 1.58.093 1.845-1.37 3.6-2.904 1.655 8.613 1.88-.661 6.102-2.44.064 1.542 1.776 4.593 4.038 4.396-1.34-1.087-2.471-3.688-1.583-6.133.91 1.301 6.049 11.244 6.402 6.68 4.534 2.405 1.34.907 1.146-3.54 3.12 3.786 7.026 10.867 7.717 7.695-.395 3.613.545 6.99.558 11.264 1.945-7.036 9.251-5.747 7.26-12.736.254.285 2.022.73 2.392-.267" fill="#520005"/><path d="M354.82 48.722s13.68 4.966 6.998 12.616c-1.693 1.938-7.16 10.998-6.32 1.128-.84-10.691-12.856 2.058-12.856 2.058l-2.331-2.224 14.509-13.578z" fill="#BA8B72"/><path d="M302.835 88.308c10.459 4.553 30.727 20.82 41.163 25.57 0 0 1.657 1.413 2.245 7.747.59 6.333-.663 9.272-.663 9.272-1.84.166-3.84-.14-6.011-1.055-12.543-5.287-32.718-24.549-43.92-32.994 0 0 .46-1.46 3.274-3.482 2.813-2.022 3.912-5.058 3.912-5.058" fill="#FF654C"/><path d="M377.737 74.333c-.447-4.678-2.908-6.966-3.23-7.297-5.609-5.75-11.732 1.327-16.652 10.625-4.406 8.324-7.828 17.849-10.63 22.785-2.064 4.246-3.523 7.629-5.9 12.702 0 0 .321 3.579 1.563 9.48 1.242 5.903 2.536 7.297 2.536 7.297 9.696-.874 21.082-21.672 21.115-21.679 3.9-7.869 8.746-18.116 10.446-24.971.85-3.433 1.05-5.82.752-8.942" fill="#FF654C"/><path d="M372.368 92.315c1.475 4.951-1.17 9.28-3.766 6.035-.88 1.303-1.183 1.995-2.15-2.602-5.768 3.097-2.03-26.995 5.916-3.433" fill="#520005"/><path d="M368.693 83.707c.254-.667.564-1.299.867-1.933a39.66 39.66 0 00.837-2.1c.06-.214.114-.434.157-.66.424-2.3.272-4.498-1.142-6.552-1.104-1.604-3.709-1.726-5.329-.93-1.513.741-2.167 1.743-2.25 3.326-.308 1.13-.244 2.486.011 3.598.417 1.817 1.48 3.04 2.505 4.166 1.076 1.184 2.084 1.462 3.059 2.641.37-.79.888-.704 1.285-1.556" fill="#190003"/><path d="M368.732 71.374a2.952 2.952 0 00-.625-.321 15.028 15.028 0 00-.39 3.045c.545-.604.84-1.732 1.015-2.724M365.644 77.143c.303-2.222-1.06-3.644-2.67-5.075-.613.346-1.047.755-1.347 1.251 1.28 1.363 2.79 2.553 4.017 3.824" fill="#673F36"/><path d="M368.051 77.503c.346-.718.75-1.396 1.137-2.067.38-.732.735-1.467 1.064-2.21.078-.225.15-.451.206-.687.569-2.398.423-4.698-1.159-7.009-1.235-1.805-4.323-1.923-6.357-1.07-1.899.794-2.76 1.885-2.964 3.556-.452 1.21-.466 2.639-.231 3.803.384 1.906 1.61 3.185 2.818 4.413 1.274 1.293 2.625 2.656 3.834 3.956a52.59 52.59 0 001.652-2.685" fill="#855348"/><path d="M368.051 77.503c.346-.718.75-1.396 1.137-2.067.38-.732.735-1.467 1.064-2.21.078-.225.15-.451.206-.687.569-2.398.423-4.698-1.159-7.009-1.235-1.805-4.323-1.923-6.357-1.07-1.899.794-2.76 1.885-2.964 3.556-.452 1.21-.466 2.639-.231 3.803.384 1.906 1.61 3.185 2.818 4.413 1.274 1.293 2.625 2.656 3.834 3.956a52.59 52.59 0 001.652-2.685" fill="#520005"/><path d="M364.645 69.023c.211-2.218-.86-3.841-2.324-5.076-.722.326-1.287.672-1.71 1.132l.326.26c1.372 1.102 2.448 2.397 3.708 3.684M367.717 64.395a4.683 4.683 0 00-1.223-.448c-.361.941-.66 1.977-.807 3.045.805-.46 1.516-1.443 2.03-2.597" fill="#855348"/><path d="M367.404 68.392c.438-.705.93-1.363 1.398-2a60.08 60.08 0 001.311-2.055c.1-.206.192-.43.266-.665.737-2.378.5-4.908-1.498-6.871-1.56-1.532-5.038-1.014-7.472-.102-2.272.85-3.233 1.869-3.42 3.3-.503 1.076-.51 2.312-.265 3.3.402 1.616 1.732 2.66 3.102 3.813a115.996 115.996 0 014.422 3.94c.741-.806 1.49-1.761 2.156-2.66" fill="#190003"/><path d="M361.587 60.371c.822.496 1.598 1.131 2.44 1.546.789-1.743 2.178-2.89 3.09-4.368.236-.387.435-.82.6-1.274-1.58-.845-4.407-.369-6.4.394-1.378.526-2.243 1.111-2.736 1.837.988.68 1.998 1.258 3.006 1.865" fill="#673F36"/><path d="M366.327 61.237c.476-.736.995-1.442 1.486-2.135.48-.75.928-1.501 1.356-2.247.098-.225.191-.452.262-.691.717-2.413.289-4.884-2.074-6.691-1.845-1.411-5.584-.61-8.444.57-2.673 1.101-3.813 2.31-3.981 3.795a4.32 4.32 0 00-.135 3.357c.589 1.557 2.26 2.34 3.902 3.281 1.726.99 3.51 2.24 5.13 3.471a21.742 21.742 0 002.498-2.71" fill="#520005"/><path d="M365.831 55.7c.414-.856.868-1.684 1.302-2.495.42-.875.807-1.746 1.187-2.61.084-.257.164-.512.22-.782.561-2.72-.04-5.304-2.669-7.29-2.051-1.55-5.827-.96-8.898.629-2.868 1.484-4.109 2.988-4.174 4.703-.524 1.352-.324 2.738.191 3.784.842 1.71 2.829 2.54 4.74 3.526a40.05 40.05 0 015.823 3.707c.85-.922 1.633-2.065 2.278-3.172" fill="#673F36"/><path d="M352.491 48.559c.049-.235.112-.471.204-.705.065-1.713 1.314-3.218 4.2-4.702 3.092-1.59 6.893-2.18 8.958-.63 2.645 1.987 3.25 4.572 2.685 7.29-.055.27-.136.526-.22.783a85.597 85.597 0 01-1.195 2.61c-.437.811-.894 1.64-1.31 2.495-.65 1.108-1.438 2.25-2.294 3.172a40.386 40.386 0 00-5.861-3.707c-1.924-.985-3.924-1.814-4.77-3.526a4.686 4.686 0 01-.28-.713" fill="#190003"/><path d="M363.946 49.136c.375-.966.82-1.906 1.205-2.801.401-.936.764-1.927 1.153-2.873a8.33 8.33 0 00.217-.85c.545-2.942-.04-6.714-3.133-9.125-1.929-1.506-3.75-1.029-5.52-.443-1.736.575-3.997 1.715-5.9 3.268-.803.656-1.601 1.354-2.223 2.168-.612.798-.698 1.527-1.01 2.388-1.501 4.122 2.878 6.814 6.205 8.227 2.326.988 4.726 2.266 6.786 3.687.885-1.049 1.62-2.388 2.22-3.646" fill="#855348"/><path d="M366.52 42.611a8.297 8.297 0 01-.216.851c-.389.946-.761 1.902-1.153 2.873-.41.902-.83 1.835-1.205 2.8-.6 1.259-1.335 2.598-2.22 3.647-2.06-1.421-4.46-2.7-6.786-3.687-3.327-1.413-7.706-4.105-6.205-8.228.312-.86.398-1.59 1.01-2.387.622-.814 1.42-1.513 2.223-2.168 1.903-1.553 4.164-2.693 5.9-3.267 1.77-.587 3.591-1.064 5.52.442 3.092 2.411 3.678 6.182 3.133 9.124" fill="#520005"/><path d="M370.745 84.755c.077.347-.118.687-.44.76-1.88.431-2.937.581-4.887.76-.334.032-.662-.237-.733-.597-.07-.36.143-.671.476-.696 1.948-.147 3.009-.287 4.873-.72.318-.074.635.146.711.493M369.73 82.735c.076.354-.118.702-.438.776-1.872.44-2.938.585-4.891.735-.335.027-.662-.252-.731-.62-.07-.368.145-.682.478-.703 1.95-.116 3.021-.25 4.877-.69.316-.076.631.15.706.502" fill="#008455"/><g transform="translate(337.266)"><mask id="b" fill="#fff"><use xlink:href="#a"/></mask><path d="M15.93 31.368c.24-4.92-1.409-25.873-3.29-28.468C9.903-.868-.039-.112.483.775c4.813 8.2 4.648 20.141 5.632 29.935 0 0 .926 1.36 4.906 1.626 3.98.267 4.908-.968 4.908-.968" fill="#E2104C" mask="url(#b)"/></g><path d="M359.58 40.118c-.335 6.72-5.37 11.93-11.246 11.637-5.877-.294-10.37-5.98-10.036-12.7.334-6.721 5.37-11.931 11.247-11.637 5.876.293 10.368 5.98 10.034 12.7" fill="#F54F71"/><path d="M357.553 39.985c-.255 5.04-4.09 8.948-8.568 8.728-4.477-.22-7.901-4.485-7.646-9.525.254-5.04 4.09-8.949 8.568-8.728 4.478.22 7.9 4.485 7.646 9.525" fill="#F54F71"/><path d="M275.586 84.563s2.493-3.61 4.587-6.06c2.093-2.45 3.304-3.125 5.352-1.457.848.69 7.505 6.661 7.057 16.548-.294 6.513-6.336 7.83-6.336 7.83s-2.035.956-6.51-3.762c-3.978-4.194-4.897-11.507-4.15-13.099" fill="#BC8668"/><path d="M315.905 45.677l-2.81 6.505c-.645 1.496.418 3.156 2.126 3.317l2.759.328-2.075-10.15z" fill="#D4A181"/><path d="M298.586 95.006l-11.792-23.752a3.844 3.844 0 00-2.726-2.073l-6.175-1.156a.938.938 0 00-.956.4l-.001-.002-1.588 1.772 2.11.384 11.183 21.712 8.692 4.045c.825.385 1.665-.506 1.253-1.33" fill="#A3A9CE"/><path d="M275.464 71.472l11.981 22.849 8.848 4.045c.84.385 1.695-.506 1.276-1.33l-12.004-23.752a3.905 3.905 0 00-2.775-2.072l-6.286-1.158a.977.977 0 00-1.04 1.418" fill="#848FBB"/><path d="M304.784 89.544l-2.82-3.983a13.753 13.753 0 00-3.769-3.62 13.728 13.728 0 01-3.767-3.617l-2.276-3.211c-1.094 1.27-1.422 3.083-.855 4.719l.582 1.68 2.365 4.48-10.586-2.005c-1.306-.248-2.426.93-2.187 2.298.137.776.69 1.406 1.418 1.613l4.38 1.245 2.954 6.101c.783 1.618 4.834 3.826 7.01 3.057" fill="#D4A181"/><path d="M330.16 55.827c-3.674 5.867-10.15 5.306-10.15 5.306s1.618 2.066 6.615-.508c3.454-1.779 3.535-4.798 3.535-4.798" fill="#190003"/><path d="M282.438 75.951a1.015 1.015 0 11-2 .353 1.015 1.015 0 012-.353M282.648 73.075l-1.677-.203c-.368-.044-.608-.26-.534-.479.075-.219.438-.362.807-.317l1.677.202c.368.044.609.26.534.479-.075.219-.438.362-.807.318" fill="#434656"/><path d="M326.48 40.23s1.519 2.712-.14 3.257c-1.66.545-2.191-.368-3.018-1.78-1.291-2.2 2.49-2.68 3.158-1.477" fill="#261818"/><path d="M319.03 37.907c.94-.756 1.669-1.844 4.21-2.197 2.542-.352 6.388.263 6.656.124.544-.282.373-.887-1.71-1.396-1.954-.477-4.762-1.512-7.402-.54-2.639.973-3.787 3.265-3.819 4.228-.031.962 1.646.117 2.065-.22" fill="#520005"/><path d="M215.997 21.316h-11.222a2.51 2.51 0 00-2.51 2.511v5.902a2.51 2.51 0 002.51 2.512h6.69l4.452 3.285-1.113-3.285h1.193a2.51 2.51 0 002.51-2.512v-5.902a2.51 2.51 0 00-2.51-2.511" fill="#FFF"/><path d="M207.34 26.39a1.015 1.015 0 11-2.03 0 1.015 1.015 0 012.03 0M211.401 26.39a1.015 1.015 0 11-2.03 0 1.015 1.015 0 012.03 0M215.461 26.39a1.015 1.015 0 11-2.03 0 1.015 1.015 0 012.03 0" fill="#D67DEC"/><g><path d="M85.223 36.541H74a2.51 2.51 0 00-2.51 2.512v5.902a2.51 2.51 0 002.51 2.511h3.888l1.553 3.286 1.786-3.286h3.995a2.51 2.51 0 002.509-2.511v-5.902a2.51 2.51 0 00-2.51-2.512" fill="#FFF"/><path d="M76.566 42.015a1.015 1.015 0 11-2.03 0 1.015 1.015 0 012.03 0M80.627 42.015a1.015 1.015 0 11-2.03 0 1.015 1.015 0 012.03 0M84.687 42.015a1.015 1.015 0 11-2.03 0 1.015 1.015 0 012.03 0" fill="#008455"/></g><g><path d="M295.648 46.692H281.62c-1.732 0-3.137 1.365-3.137 3.05v7.166c0 1.685 1.405 3.05 3.137 3.05h2.29l.12 3.99 4.055-3.99h7.562c1.732 0 3.136-1.365 3.136-3.05v-7.166c0-1.685-1.404-3.05-3.136-3.05" fill="#FFF"/><path d="M285.589 53.29a1.523 1.523 0 11-3.045 0 1.523 1.523 0 013.045 0M290.345 53.29a1.523 1.523 0 11-3.045 0 1.523 1.523 0 013.045 0M294.724 53.29a1.522 1.522 0 11-3.044 0 1.522 1.522 0 013.044 0" fill="#FF654C"/></g><path d="M256.088 61.628a8.628 8.628 0 11-17.256 0 8.628 8.628 0 0117.256 0" fill="#2379E2"/><g fill="#FFF"><path d="M253.353 61.236c.264-.33.346-.77.153-1.143-.228-.442-.599-.643-1.081-.65-.62-.008-1.242-.007-1.864-.013-.047 0-.097.016-.138-.022l-.02.009c.006-.003.013-.005.02-.01.052-.1.107-.2.157-.302.174-.36.28-.739.313-1.133.02-.236.04-.477-.003-.712-.129-.684-.597-1.123-1.31-1.246-.464-.08-.871.188-.95.634-.043.233-.074.469-.155.694-.196.543-.544.985-.98 1.37-.29.255-.614.465-.941.672a17.15 17.15 0 01-.918.475.187.187 0 00-.11.167l-.034 5.422c0 .079.05.15.126.179.282.105.569.195.862.266a9.184 9.184 0 002.056.238c1.005.018 2.01.016 3.016.02.107 0 .218-.005.323-.028.747-.161 1.122-.927.804-1.548-.034-.068-.02-.101.04-.145.451-.321.593-.852.357-1.35-.03-.067-.022-.102.04-.146.52-.37.627-1.04.242-1.54-.052-.069-.048-.105-.005-.158l-3.773 1.362M245.06 59.632v-.014-.076c0-.111 0-.223-.073-.319-.008-.011-.018-.019-.028-.029a.314.314 0 00-.146-.1l-.006-.002a.487.487 0 00-.159-.028l-1.597-.009-1.597-.01a.49.49 0 00-.219.054.385.385 0 00-.065.044c-.01.009-.019.02-.028.03-.01.01-.02.017-.028.028-.074.094-.076.207-.078.318v.103l-.028 4.688c-.003.461-.007.922-.008 1.382 0 .286.154.438.443.44l.805.004c.132.004.264 0 .396.002l.364.002.365.003c.132 0 .264.005.396.002l.805.005c.289.001.445-.149.448-.434.005-.461.006-.922.01-1.383l.028-4.688v-.013"/></g><path d="M272.833 20.5a8.5 8.5 0 11-17 0 8.5 8.5 0 0117 0" fill="#F54F71"/><path d="M266.538 17c-1.009 0-1.886.591-2.338 1.463-.451-.872-1.329-1.463-2.338-1.463-1.47 0-2.662 1.256-2.662 2.805 0 2.334 4.209 4.878 5 5.195.83-.353 5-2.343 5-5.195 0-1.55-1.192-2.805-2.662-2.805" fill="#FFF"/><g><path d="M169.815 68.098a5.075 5.075 0 11-10.15 0 5.075 5.075 0 0110.15 0" fill="#F54F71"/><path d="M166.163 66.068c-.614 0-1.149.344-1.423.852a1.62 1.62 0 00-1.425-.852c-.895 0-1.62.731-1.62 1.634 0 1.36 2.562 2.84 3.045 3.026.505-.206 3.044-1.365 3.044-3.026 0-.903-.725-1.634-1.62-1.634" fill="#FFF"/></g><g><path d="M94.852 70.56a5.583 5.583 0 11-11.165 0 5.583 5.583 0 0111.165 0" fill="#FFC965"/><path d="M89.3 74.03c-.915 0-1.82-.5-2.483-1.374a.496.496 0 01-.014-.535c.1-.153.27-.162.378-.02.565.745 1.337 1.172 2.118 1.172.753 0 1.505-.402 2.064-1.101.11-.138.28-.124.377.032a.495.495 0 01-.023.535c-.665.832-1.523 1.291-2.418 1.291M87.747 69.545a.508.508 0 11-1.015 0 .508.508 0 011.015 0M91.807 69.545a.508.508 0 11-1.015 0 .508.508 0 011.015 0" fill="#3D4564"/></g><path d="M160.65 100.488a5.075 5.075 0 11-10.152 0 5.075 5.075 0 0110.151 0" fill="#FFC965"/><g><path d="M154.155 98.966a.507.507 0 11-1.015 0 .507.507 0 011.015 0M158.215 98.966a.507.507 0 11-1.014 0 .507.507 0 011.014 0M153.331 101.82c-.147.044-.23.184-.173.311.342.761 1.343 1.403 2.52 1.403 1.175 0 2.177-.642 2.52-1.403.056-.127-.027-.267-.174-.31-1.418-.423-3.276-.423-4.693 0" fill="#3D4564"/><path d="M154.155 103.114c.453.263.972.42 1.523.42.55 0 1.069-.157 1.522-.42a2.288 2.288 0 00-1.522-.595c-.576 0-1.104.224-1.523.595" fill="#F54F71"/></g><path d="M54.461 23.703a5.583 5.583 0 11-11.165 0 5.583 5.583 0 0111.165 0" fill="#2379E2"/><g fill="#FFF"><path d="M52.539 23.307c.165-.198.216-.462.096-.686-.142-.265-.375-.386-.676-.39-.387-.005-.777-.004-1.165-.008-.03 0-.06.01-.086-.013l-.013.005.013-.005c.032-.06.067-.12.098-.182.108-.216.174-.443.196-.68.012-.141.025-.285-.002-.426-.08-.411-.374-.674-.819-.748-.29-.048-.544.113-.595.38-.026.14-.045.281-.096.416-.123.326-.34.591-.612.822a4.51 4.51 0 01-.589.404c-.189.099-.378.196-.573.284a.113.113 0 00-.07.101l-.02 3.253c0 .047.03.09.078.107.176.063.356.117.54.16a5.97 5.97 0 001.284.143c.629.01 1.257.01 1.885.012a.96.96 0 00.202-.017c.467-.097.702-.556.503-.929-.022-.04-.012-.06.025-.086.282-.194.37-.512.223-.811-.02-.04-.014-.061.025-.087.324-.223.392-.625.151-.925-.032-.04-.03-.062-.003-.094M47.23 22.531v-.009-.042c0-.064 0-.128-.036-.183l-.014-.016a.136.136 0 00-.031-.032.205.205 0 00-.042-.026h-.004a.21.21 0 00-.079-.017l-.798-.005-.799-.006a.212.212 0 00-.079.016l-.003.001a.195.195 0 00-.06.04.136.136 0 00-.014.016l-.014.016c-.037.054-.038.118-.038.182v.059l-.015 2.68c-.001.262-.004.526-.004.79 0 .162.077.25.222.25l.402.002c.066.003.132 0 .198.002l.182.001.182.001c.067 0 .132.003.198.001l.403.004c.144 0 .222-.086.224-.249l.005-.79.014-2.678v-.008"/></g><g><path d="M198.025 108.237a6.598 6.598 0 11-13.196 0 6.598 6.598 0 0113.196 0" fill="#2379E2"/><g fill="#FFF"><path d="M196 107.858c.199-.264.26-.616.115-.914-.17-.355-.45-.515-.81-.521-.466-.006-.932-.005-1.399-.01-.035 0-.072.012-.103-.018l-.016.008.016-.008c.04-.081.08-.16.118-.243.13-.287.21-.59.234-.905.015-.19.031-.382-.002-.57-.097-.547-.448-.899-.982-.997a.596.596 0 00-.713.508c-.032.186-.055.374-.116.554-.147.436-.408.789-.735 1.096a5.49 5.49 0 01-.706.538c-.227.132-.454.262-.688.38a.152.152 0 00-.083.134l-.025 4.337c0 .063.037.12.094.144.211.083.427.156.647.213a6.473 6.473 0 001.542.19c.754.014 1.508.012 2.262.015a.884.884 0 00.846-1.26c-.026-.054-.016-.08.03-.116a.873.873 0 00.267-1.08c-.023-.053-.017-.082.03-.117a.883.883 0 00.181-1.232c-.038-.055-.035-.083-.004-.126M189.645 107.134v-.01-.055c0-.08 0-.16-.055-.227-.006-.009-.014-.015-.02-.021l-.022-.022a.298.298 0 00-.048-.032.365.365 0 00-.045-.02.367.367 0 00-.119-.02c-.4-.001-.798-.003-1.198-.006l-1.197-.007a.383.383 0 00-.12.019s-.003 0-.004.002a.334.334 0 00-.04.017l-.024.014a.214.214 0 00-.046.04c-.008.006-.015.012-.022.02-.055.067-.057.147-.057.227v.054l-.001.01v.01l-.021 3.348c-.002.33-.005.658-.006.988 0 .203.115.312.332.314l.604.003c.1.002.198 0 .297 0l.273.002.274.002c.099 0 .198.004.296.002l.604.003c.217 0 .334-.106.336-.31.004-.33.005-.658.008-.987l.02-3.349.001-.01"/></g></g><g><path d="M215.377 73.49a9.134 9.134 0 01-8.458 9.764 9.134 9.134 0 01-9.765-8.457 9.135 9.135 0 1118.223-1.308" fill="#FFC965"/><path d="M211.088 68.384c-1.712-2.892-4.35-.552-3.709 1.657.506 1.736 2.527 4.102 2.527 4.102.26-.119 2.77-1.286 3.912-2.651 1.453-1.737-.034-5.007-2.73-3.108M200.257 69.67c1.318-3.097 4.291-1.188 3.952 1.08-.267 1.781-1.97 4.408-1.97 4.408-.276-.078-2.958-.853-4.293-2.026-1.698-1.492-.658-4.928 2.311-3.461" fill="#F54F71"/><path d="M203.57 76.616c-.224-.052-.411.181-.33.412.481 1.36 2.002 2.296 3.726 2.18 1.725-.114 3.087-1.243 3.354-2.654.045-.238-.177-.445-.39-.363-.933.36-2 .598-3.145.674a10.886 10.886 0 01-3.215-.249" fill="#3D4564"/><path d="M207 77.194c-.68.072-1.235.748-1.45 1.653.47.281.997.416 1.548.358.55-.059 1.06-.303 1.497-.682-.3-.85-.914-1.401-1.595-1.329" fill="#F54F71"/></g><g><path d="M169.077 24.395c.447 6.432-4.405 12.006-10.836 12.452-6.431.447-12.006-4.404-12.453-10.835-.446-6.432 4.405-12.007 10.837-12.454 6.431-.446 12.006 4.406 12.452 10.837" fill="#FFC965"/><path d="M157.76 30.586a.406.406 0 01-.125-.797c.442-.112 1.19-.545 1.31-.946.025-.087.031-.199-.123-.366-.308-.333-1.04.064-1.431.393a.406.406 0 01-.523-.62c.797-.67 1.895-1.03 2.55-.322.403.436.387.864.303 1.146-.25.839-1.38 1.373-1.89 1.5a.415.415 0 01-.07.012" fill="#3D4564"/><path d="M158.555 32.612c-.524.037-1.123-.174-1.639-.505a.429.429 0 01-.129-.582.406.406 0 01.567-.133c.438.283 1.231.586 1.492.2.131-.194.11-.309.071-.394-.176-.397-.988-.736-1.446-.786a.42.42 0 01-.366-.464.412.412 0 01.452-.374c.53.058 1.739.445 2.108 1.273.124.28.2.717-.144 1.225-.237.35-.58.513-.966.54M160.418 25.51a.587.587 0 01-.44-.154.652.652 0 01-.06-.892c.692-.83 2.25-1.586 3.703-.269.253.23.28.629.06.892a.588.588 0 01-.855.062c-1.036-.939-1.898.032-1.994.145a.595.595 0 01-.414.216M154.69 24.923c.05.84-.361 1.557-.92 1.601-.557.045-1.051-.6-1.102-1.44-.05-.839.361-1.556.92-1.6.558-.046 1.051.6 1.102 1.44" fill="#3D4564"/><path d="M166.264 28.242c3.266-1.885 4.674 1.964 2.85 3.789-1.435 1.434-4.731 2.616-4.731 2.616-.2-.267-2.103-2.877-2.524-4.894-.536-2.565 2.704-4.956 4.405-1.511" fill="#F54F71"/><path d="M150.954 21.45l-.022.001a.294.294 0 01-.298-.288c.002-.702.291-1.396.794-1.903a2.906 2.906 0 011.937-.854.294.294 0 01.314.273c.008.159-.116.31-.284.302a2.375 2.375 0 00-1.534.677c-.398.401-.627.95-.629 1.506a.292.292 0 01-.278.286M163.495 22.466a.442.442 0 01-.234-.05c-1.029-.558-2.033-.564-2.903-.018a.443.443 0 01-.506-.037c-.127-.116-.105-.288.048-.384 1.117-.7 2.494-.701 3.78-.005.16.087.198.258.083.38a.399.399 0 01-.268.114" fill="#3D4564"/></g><path d="M38.128 107.634c-.13-1.146-.996-2.092-2.169-2.07a2.123 2.123 0 00-1.92 1.304c-.344-.738-1.054-1.245-1.925-1.228-1.173.023-1.998 1.002-2.08 2.152 0 0-.051.285.086.795a3.513 3.513 0 001.158 1.771l2.68 2.24a.314.314 0 00.407-.007l2.629-2.345a3.495 3.495 0 001.082-1.814c.115-.514.052-.798.052-.798" fill="#FFF" opacity=".6"/><g opacity=".6" fill="#FFF"><path d="M132.95 49.436c.323-.414.424-.966.188-1.435-.28-.554-.733-.806-1.323-.815-.758-.01-1.52-.009-2.28-.016-.058 0-.119.02-.169-.028-.008.005-.016.008-.025.012.009-.004.017-.007.025-.013.064-.126.132-.25.192-.38.212-.45.342-.926.382-1.42.025-.296.051-.598-.003-.892-.158-.859-.73-1.41-1.601-1.563-.569-.101-1.067.235-1.165.794-.05.293-.089.588-.188.87-.24.682-.666 1.237-1.199 1.719-.354.32-.75.584-1.151.843h-.001c-.369.207-.74.411-1.121.595a.236.236 0 00-.136.211l-.04 6.8c-.001.099.06.189.153.225.345.131.696.244 1.055.333.825.207 1.669.287 2.515.3 1.23.022 2.46.019 3.689.024.13 0 .267-.007.395-.036.914-.201 1.373-1.162.985-1.94-.043-.085-.025-.128.049-.182.551-.404.724-1.07.436-1.695-.038-.082-.028-.127.049-.181.635-.466.766-1.306.296-1.933-.064-.086-.059-.13-.007-.197M122.883 47.806V47.7c0-.133 0-.266-.085-.38-.01-.013-.022-.022-.033-.033a.48.48 0 00-.072-.067.705.705 0 00-.098-.053.556.556 0 00-.193-.036l-1.867-.01-1.866-.012a.564.564 0 00-.186.031l-.008.003a.42.42 0 00-.172.117c-.011.012-.023.021-.033.034-.086.113-.089.246-.09.378v.09l-.001.017v.016l-.033 5.57c-.003.548-.008 1.095-.009 1.643 0 .34.18.52.518.522.313.003.627.004.941.005.154.005.309 0 .463.003l.426.002.426.003c.154 0 .308.006.462.002.314.003.628.006.942.007.337.001.52-.177.524-.516.005-.548.007-1.096.01-1.643l.033-5.57v-.016"/></g><g opacity=".6" fill="#FFF"><path d="M250.095 109.793c.443-.583.58-1.36.257-2.02-.382-.78-1.003-1.135-1.81-1.147-1.036-.013-2.077-.012-3.118-.022-.08 0-.162.027-.23-.04-.011.008-.023.012-.035.017.011-.005.023-.01.034-.018.088-.178.18-.353.263-.534.29-.634.467-1.303.524-1.999.033-.417.068-.842-.005-1.256-.216-1.209-1-1.983-2.19-2.2-.777-.141-1.46.331-1.592 1.118-.07.413-.122.828-.258 1.225-.33.96-.91 1.74-1.64 2.419-.484.45-1.027.822-1.574 1.187l-.001-.001c-.505.292-1.012.579-1.535.837a.336.336 0 00-.185.298l-.055 9.57c0 .14.082.266.21.316.472.185.952.345 1.442.47 1.13.291 2.283.403 3.44.421 1.682.03 3.364.027 5.045.034.179 0 .365-.008.54-.05 1.25-.284 1.878-1.636 1.347-2.73-.058-.12-.033-.18.067-.257.755-.568.99-1.504.596-2.385-.051-.116-.037-.179.067-.256a1.935 1.935 0 00.405-2.72c-.087-.12-.08-.184-.01-.277M236.327 107.5v-.026-.126c.001-.187 0-.373-.116-.533-.014-.019-.03-.032-.045-.049a.563.563 0 00-.099-.093.578.578 0 00-.134-.075c-.004 0-.007-.002-.011-.003a.721.721 0 00-.253-.047l-2.553-.015-2.552-.016a.718.718 0 00-.254.044l-.011.003a.679.679 0 00-.19.116c-.016.015-.03.032-.046.049-.014.017-.03.03-.045.048-.117.159-.121.345-.122.533l-.001.126-.001.025v.02c-.014 2.614-.03 5.227-.045 7.84-.004.77-.011 1.542-.012 2.313 0 .477.246.73.708.735.429.004.858.005 1.287.007.21.007.422 0 .633.004l.582.003.583.004c.211-.002.422.008.632.003l1.288.009c.462.001.711-.25.717-.726.008-.771.01-1.542.014-2.313l.046-7.84v-.02"/></g><path d="M123.17 85.264c-2.394.05-4.422 1.578-5.28 3.725-.945-2.11-2.898-3.56-5.294-3.511-3.226.065-5.494 2.863-5.717 6.15 0 0-.143.816.235 2.272.513 1.987 1.66 3.737 3.184 5.06l7.368 6.399a.839.839 0 001.12-.019l7.23-6.699c1.471-1.383 2.545-3.18 2.977-5.184.316-1.47.142-2.28.142-2.28-.358-3.275-2.739-5.977-5.964-5.913z" fill-opacity=".6" fill="#FFF"/><g opacity=".6" fill="#FFF"><path d="M43.455 61.683c.335-.414.439-.966.195-1.434-.29-.555-.759-.807-1.37-.815-.783-.01-1.57-.01-2.357-.016-.06 0-.123.019-.175-.029-.008.006-.017.008-.026.012.01-.004.018-.007.026-.012.067-.127.137-.251.199-.38.22-.45.353-.926.395-1.42.026-.296.053-.599-.003-.893-.163-.858-.756-1.41-1.657-1.563-.587-.1-1.103.235-1.204.795-.053.292-.092.587-.195.87-.248.682-.688 1.236-1.24 1.718-.366.32-.776.585-1.19.844l-.001-.001c-.382.208-.766.412-1.16.595a.236.236 0 00-.14.211l-.043 6.8a.24.24 0 00.16.225c.356.132.72.245 1.09.334.854.207 1.726.286 2.602.3 1.272.021 2.544.018 3.816.023.135 0 .276-.006.408-.035.945-.202 1.42-1.162 1.019-1.94-.044-.086-.026-.128.05-.183.57-.403.75-1.069.451-1.694-.039-.083-.028-.127.05-.182.658-.466.793-1.306.307-1.932-.065-.086-.06-.131-.007-.198M33.042 60.054v-.108c.001-.133 0-.265-.088-.379-.01-.013-.022-.023-.033-.034a.488.488 0 00-.075-.066.734.734 0 00-.102-.053l-.008-.003a.58.58 0 00-.192-.034c-.643-.002-1.287-.006-1.93-.01l-1.93-.011a.596.596 0 00-.266.062.619.619 0 00-.038.024c-.013.009-.027.018-.04.03a.299.299 0 00-.035.035c-.011.011-.024.02-.034.034-.089.112-.092.245-.093.378v.122l-.035 5.57c-.003.548-.009 1.096-.01 1.643 0 .34.187.52.536.523l.974.005c.16.005.32 0 .478.002l.441.003.44.002c.16 0 .32.006.479.003.325.002.649.005.974.006.349.002.538-.177.542-.516.005-.548.007-1.095.01-1.643l.035-5.57v-.015"/></g><path d="M105.084 14.077c-.179-1.637-1.37-2.988-2.982-2.956-1.198.024-2.211.79-2.64 1.863-.473-1.055-1.45-1.78-2.647-1.756-1.614.033-2.747 1.432-2.86 3.075 0 0-.07.408.118 1.136a5.04 5.04 0 001.593 2.53l3.683 3.199a.42.42 0 00.56-.009l3.615-3.35a5.03 5.03 0 001.489-2.592c.158-.735.07-1.14.07-1.14" fill-opacity=".6" fill="#FFF"/><path d="M65.088 87.293h8.416c1.04 0 1.882.884 1.882 1.974v4.637c0 1.09-.843 1.974-1.882 1.974h-1.375l-.072 2.58-2.432-2.58h-4.537c-1.04 0-1.882-.884-1.882-1.974v-4.637c0-1.09.842-1.974 1.882-1.974" fill="#FFF"/><path d="M71.31 91.353a1.015 1.015 0 102.03 0 1.015 1.015 0 00-2.03 0M68.28 91.353a1.015 1.015 0 102.03 0 1.015 1.015 0 00-2.03 0M65.236 91.353a1.015 1.015 0 102.03 0 1.015 1.015 0 00-2.03 0" fill="#FF654C"/><path d="M7.938 86.552a3.553 3.553 0 11-7.105.001 3.553 3.553 0 017.105 0" fill="#F54F71"/><path d="M5.41 85c-.41 0-.767.225-.95.557A1.082 1.082 0 003.51 85c-.597 0-1.08.478-1.08 1.067 0 .889 1.709 1.857 2.03 1.978.337-.134 2.03-.892 2.03-1.978 0-.59-.484-1.067-1.08-1.067" fill="#FFF"/></g></svg>