<?xml version="1.0" encoding="UTF-8"?>
<svg width="644px" height="135px" viewBox="0 0 644 135" version="1.1" xmlns="http://www.w3.org/2000/svg" xmlns:xlink="http://www.w3.org/1999/xlink">
    <!-- Generator: sketchtool 63.1 (101010) - https://sketch.com -->
    <title>A72FCB45-8B9D-41E9-9567-4C2A61A83799</title>
    <desc>Created with sketchtool.</desc>
    <defs>
        <polygon id="path-1" points="0.463851484 0.0520654578 15.9536331 0.0520654578 15.9536331 32.3740156 0.463851484 32.3740156"></polygon>
    </defs>
    <g id="homepage" stroke="none" stroke-width="1" fill="none" fill-rule="evenodd">
        <g id="arts-subject" transform="translate(-401.000000, -93.000000)">
            <g id="social-media-girl-header" transform="translate(401.832740, 93.000000)">
                <g id="GIRL" transform="translate(274.169775, 0.000000)">
                    <path d="M346.473684,124.078413 C346.498331,129.668275 270.398838,134.54437 176.499842,134.970185 C82.6013281,135.396 6.46123198,131.210693 6.43609023,125.620832 C6.41144383,120.031948 82.5114194,115.155364 176.410416,114.72906 C270.30893,114.303245 346.449026,118.489041 346.473684,124.078413" id="Fill-1" fill="#9BB8EA"></path>
                    <path d="M272.37594,31.5082226 C267.389925,55.949775 259.108633,82.1582158 251.441323,105.8805 C250.060225,110.152945 242.231112,112.669173 242.231112,112.669173 C242.231112,112.669173 235.481163,105.38482 234.98757,99.7291281 C234.512276,94.2732599 235.035244,87.1441101 236.685531,80.903982 C238.851081,72.7189672 243.228893,65.0063513 246.877631,57.4125627 C251.718698,47.3442572 258.073291,38.1979542 261.30404,27.406015 C266.570801,27.6266942 270.353411,30.0143944 272.37594,31.5082226" id="Fill-3" fill="#008455"></path>
                    <path d="M241.266158,103.945682 C238.4664,97.9980313 235.223581,97.2451887 235.223581,97.2451887 C219.596359,99.1340776 201.318519,98.1961733 185.747467,96.1769661 C185.747467,96.1769661 185.748436,96.1784195 185.749404,96.1784195 C185.748436,96.1784195 185.748436,96.1769661 185.748436,96.1769661 L185.746499,96.1769661 L185.747467,96.1769661 C180.64815,89.5753019 172.436268,85.3469812 162.890361,84.4090769 C151.72135,83.3142093 140.114605,87.8826171 132.300752,95.7472548 C134.143692,102.482629 135.105352,110.092443 134.181945,117.157246 C151.356733,120.217546 169.382779,120.028125 186.696053,119.387191 C205.110928,118.704594 224.612391,117.354419 242.507213,112.719641 C242.507213,112.719641 244.065916,109.893817 241.266158,103.945682" id="Fill-5" fill="#008455"></path>
                    <path d="M271.430329,30.6385357 C279.59841,30.7584099 286.74959,30.6645325 294.841307,32.3836914 C297.677419,32.9835435 302.327909,30.7507071 301.765327,27.4779987 C296.67695,25.6023776 288.700746,22.7032528 281.24701,20.0775758 C273.910236,17.4913755 269.803479,13.4074705 264.009458,14.348651 C261.866907,16.1713157 260.335271,19.9422962 261.770727,27.4250422 C261.770727,27.4250422 263.419326,27.1554457 266.718941,28.2540513 C270.019523,29.3521755 271.430329,30.6385357 271.430329,30.6385357" id="Fill-7" fill="#D24000"></path>
                    <path d="M131.285714,124.207664 C148.954732,128.362124 167.764859,128.876943 185.81263,128.908482 C204.267768,128.941962 223.836372,128.348052 241.925849,124.405634 C241.925849,124.405634 243.871992,122.335197 244.713882,115.513964 C245.555772,108.693217 244.051912,107.175446 244.051912,107.175446 C224.998335,106.284581 204.985508,102.803608 186.649186,97.6520193 C181.794255,89.6284096 172.765278,84.4457671 162.061735,83.3942938 C150.876142,82.297695 139.251176,86.8733263 131.425868,94.7503994 C133.997608,104.15058 134.8749,115.254856 131.285714,124.207664" id="Fill-9" fill="#27C195"></path>
                    <path d="M328.045398,105.486932 C330.173342,108.817613 329.311905,115.434138 326.216537,117.710152 C298.306932,121.655894 270.632045,123.923135 242.467881,124.849624 C242.467881,124.849624 240.521419,123.461597 239.992458,116.512686 C239.463981,109.563776 241.251221,108.867812 241.251221,108.867812 C257.360101,102.043668 273.073591,101.649874 289.563827,103.401966 C301.825275,104.704217 315.693934,106.288167 328.045398,105.486932" id="Fill-11" fill="#27C195"></path>
                    <path d="M368.774953,112.956298 C363.759308,110.908083 355.893383,107.738684 348.542353,104.859553 C341.305316,102.024155 337.346512,97.8061386 331.527128,98.5438228 C329.322157,100.288314 328.507791,102.911778 328.203008,105.688547 C328.203008,105.688547 330.265488,106.512735 333.997758,109.960387 C337.729544,113.407559 337.738238,114.497506 337.738238,114.497506 C345.891558,114.900709 353.665228,115.612442 361.687167,117.608755 C364.498807,118.307032 369.221743,116.241516 368.774953,112.956298" id="Fill-13" fill="#D24000"></path>
                    <path d="M337.312583,114.259759 C335.851949,115.10847 333.588154,115.127446 331.952225,115.156385 C330.548456,115.180105 329.145627,115.695784 327.778045,115.714286 C327.778045,115.714286 327.104123,114.497911 327.196705,110.820321 C327.289287,107.143205 328.035112,105.56391 328.035112,105.56391 C331.071051,106.271722 337.80651,110.917574 337.312583,114.259759" id="Fill-15" fill="#D4A181"></path>
                    <path d="M16.5861479,94.3984962 C26.9265768,99.0117952 37.3886297,103.768222 47.7070323,108.579359 C47.7070323,108.579359 49.344646,110.011123 49.9269086,116.427927 C50.5091712,122.843754 49.2718631,125.8211 49.2718631,125.8211 C47.4508559,125.98914 45.4751851,125.678949 43.327134,124.752284 C30.9267595,119.395992 20.5566428,109.652083 9.48120301,101.096182 C9.48120301,101.096182 9.93657453,99.6175227 12.7181236,97.5687959 C15.4996726,95.5205576 16.5861479,94.3984962 16.5861479,94.3984962" id="Fill-17" fill="#EF4D3C"></path>
                    <path d="M82.5068238,70.739621 C82.0584059,66.0763274 82.397406,67.6623867 82.0584059,67.3488353 C71.3618307,57.461131 59.8045667,80.6745266 53.4524677,93.5946721 C53.4295095,93.5956354 48.1090649,107.262813 46.1947403,110.055877 C46.1947403,110.055877 45.53921,111.695399 46.7862808,117.578219 C48.0323746,123.46104 49.331712,124.849624 49.331712,124.849624 C63.135462,124.05539 64.8768672,109.933539 68.1115334,103.081647 C69.0533088,103.299833 69.8822469,103.370153 70.5299617,103.243962 C74.4460474,95.4003618 79.310747,85.1889916 81.0169821,78.3558842 C81.8713209,74.9352365 82.8062576,73.8505705 82.5068238,70.739621" id="Fill-19" fill="#EF4D3C"></path>
                    <path d="M63.7452919,2.08265994 C52.3219595,1.43614071 42.9001738,6.78105068 37.0205104,16.4702254 C34.9622436,19.8616997 29.6468971,30.0763209 35.4717632,33.5280924 C37.6622166,34.8292662 41.4153569,33.3673 44.4614186,35.5030627 C76.5558634,58.0048992 92.6336089,37.472769 90.4955494,28.3348823 C87.7974992,16.8095164 89.8264445,3.55754691 63.7452919,2.08265994" id="Fill-21" fill="#520005"></path>
                    <path d="M67.2717083,85.3875078 C65.054486,96.618465 61.5062541,101.937757 64.3150899,110.656799 C66.0493625,116.039336 71.9244462,118.157783 73.4800273,118.931683 C78.2641275,121.313246 81.1975643,121.164066 88.4104189,118.488489 C96.3926123,125.876984 110.837156,124.25194 118.418502,124.25194 C122.114033,124.25194 127.879004,123.512801 131.701069,124.849624 C131.701069,124.849624 135.261857,121.109029 135.344442,110.54576 C135.426543,99.9824898 131.929021,95.5404128 131.929021,95.5404128 C123.342174,95.3313682 118.650317,93.9916482 112.727422,87.3828457 C109.549129,83.8358465 106.733532,78.4586208 101.862501,69.2065869 C97.4275736,60.7834897 84.5869057,56.5832864 78.5060854,58.1977094 C72.425748,59.8126151 71.2459018,65.2583959 67.2717083,85.3875078" id="Fill-23" fill="#FFDFAB"></path>
                    <path d="M78.174113,51.9828447 C69.6111122,63.1661911 66.2064701,80.4807496 72.9081378,81.1793462 C77.3257274,81.6391145 89.6553096,75.2806772 96.6677625,72.360592 C103.680698,69.4405067 105.5512,63.5094461 105.836891,59.7906886 C106.319477,53.5057369 104.518949,44.9891438 97.0171546,43.0698163 C89.6654439,41.1896488 83.0752535,45.5823466 78.174113,51.9828447" id="Fill-25" fill="#FF654C"></path>
                    <path d="M41.2753494,28.8103469 C40.4731528,38.1740116 37.7912103,50.579413 43.4228122,58.998875 C48.376293,66.4029824 58.3147507,68.7235867 65.0950066,61.9776328 C68.1758998,58.9118583 70.8335043,54.1317116 72.6827084,50.2794219 C76.9924276,41.302765 77.3302951,25.7993785 66.0375041,19.4606241 C55.6657361,13.6386813 42.0088272,20.2452162 41.2753494,28.8103469" id="Fill-27" fill="#D4A181"></path>
                    <path d="M61.363226,25.5794075 C61.6861519,27.4057729 62.8984716,29.3227059 63.5992061,30.2511446 C64.8482776,31.8997651 66.92598,33.9164677 68.1701512,36.0818561 C69.4883161,38.3760733 69.7627296,41.8224844 69.2751556,45.6766917 C69.2751556,45.6766917 76.0693402,44.275558 77.6178165,37.9309845 C79.2775282,31.1316358 79.9880632,17.5847605 66.6883183,9.13533835 C66.6883183,9.13533835 60.3219248,19.6862189 61.363226,25.5794075" id="Fill-29" fill="#520005"></path>
                    <path d="M75.6597728,42.6315789 C76.2115672,47.0282098 82.30096,57.4443464 86.5340043,59.3112883 C86.5340043,59.3112883 87.7299683,61.042746 81.4052153,68.3407913 C75.0809538,75.6388367 71.0798302,77.1428571 71.0798302,77.1428571 C71.1594301,71.9704941 68.6539985,65.2393299 64.2936926,62.070371 C64.2936926,62.070371 64.1811717,58.2406213 67.4776888,51.3862009 C71.102924,43.8480014 75.6597728,42.6315789 75.6597728,42.6315789" id="Fill-31" fill="#D4A181"></path>
                    <path d="M83.2376874,59.1405703 C82.1692375,57.6079696 80.7218714,57.694424 79.2113526,58.1419237 C77.2246157,58.7313855 72.4203333,59.750172 71.493626,64.5086023 C70.93414,67.3797724 70.598729,69.5018349 69.3684211,76.3675911 C70.1678873,77.1972586 71.3125883,77.3564132 72.9475413,76.86716 C77.5333622,75.493714 80.5534642,71.3743585 82.790005,64.6333717 C83.2769825,63.1665943 84.0207808,60.2639862 83.2376874,59.1405703" id="Fill-33" fill="#D4A181"></path>
                    <path d="M85.6090226,28.6142493 C83.3225245,24.882919 86.1277751,21.2931674 83.7848804,16.9012995 C74.3671143,-10.1602427 52.234805,0.75937831 38.5012313,11.9914488 C35.9910911,13.9471873 31.9047598,17.727826 32.3131498,20.7956893 C26.586938,35.3123849 38.9237205,32.863074 38.949488,40.0572232 C40.9389309,38.874309 42.7825202,32.0043261 42.4271236,27.3293008 C42.9118437,35.1669006 44.7860623,24.325392 49.4363608,21.7174152 C49.9123297,24.629542 48.5554052,25.6508612 47.977825,26.5994383 C49.5574193,26.6917086 49.8223866,25.2290544 51.5774915,23.6951228 C53.2324435,32.3079879 53.4565718,23.0336087 57.6790332,21.2555759 C57.7436949,22.7973187 59.4555298,25.8476068 61.7172328,25.6508612 C60.3782969,24.5641229 59.2459869,21.962981 60.1342352,19.5175756 C61.0443616,20.819123 66.1832696,30.7618512 66.5362353,26.1986242 C71.0708233,28.6030206 67.8761435,27.1052159 67.6826445,22.6586693 C70.803425,26.4437018 74.7084117,33.5250763 75.3992715,30.3527377 C75.0040083,33.9664112 75.9442778,37.3428183 75.9574046,41.6165414 C77.9026052,34.5805697 85.2088976,35.869912 83.2165376,28.8812959 C83.4717813,29.1659179 85.2390406,29.6111584 85.6090226,28.6142493" id="Fill-35" fill="#520005"></path>
                    <path d="M79.8174133,48.7218045 C79.8174133,48.7218045 93.4978985,53.6876032 86.8151772,61.3383281 C85.1225393,63.2758742 79.6551186,72.3362452 80.4952322,62.4658537 C79.6551186,51.7749219 67.6395857,64.5243769 67.6395857,64.5243769 L65.3082707,62.2999286 L79.8174133,48.7218045 Z" id="Fill-37" fill="#BA8B72"></path>
                    <path d="M27.8323831,88.3082707 C38.2911436,92.8614998 58.5591995,109.128818 68.9956816,113.878295 C68.9956816,113.878295 70.6520354,115.291083 71.2409612,121.625004 C71.829887,127.958443 70.5779353,130.89685 70.5779353,130.89685 C68.7365736,131.06272 66.7382941,130.756536 64.5661459,129.84184 C52.0233823,124.554732 31.848799,105.293074 20.6466165,96.8476847 C20.6466165,96.8476847 21.1067148,95.3881248 23.9200948,93.3658604 C26.7334747,91.3440782 27.8323831,88.3082707 27.8323831,88.3082707" id="Fill-39" fill="#FF654C"></path>
                    <path d="M102.734279,74.333306 C102.28762,69.6548105 99.8261307,67.3670306 99.5040303,67.0355103 C93.8959798,61.2856147 87.772666,68.362558 82.8521199,77.6605905 C78.4468371,85.9848426 75.0243986,95.51001 72.2228061,100.445603 C70.1588333,104.692059 68.6991638,108.074919 66.3233083,113.148242 C66.3233083,113.148242 66.643949,116.726825 67.8851547,122.628949 C69.1273335,128.531074 70.4210873,129.924812 70.4210873,129.924812 C80.1176722,129.050584 91.5030949,108.252761 91.5361807,108.246478 C95.4364178,100.376979 100.282034,90.130296 101.982063,83.2746884 C102.83305,79.842052 103.033025,77.4556858 102.734279,74.333306" id="Fill-41" fill="#FF654C"></path>
                    <path d="M97.3651856,92.314794 C98.8409452,97.2659746 96.1955803,101.594851 93.5990086,98.3500517 C92.7192932,99.6531244 92.4164874,100.345289 91.4501877,95.7478702 C85.6815699,98.8445257 89.4195233,68.7529614 97.3651856,92.314794" id="Fill-43" fill="#520005"></path>
                    <path d="M93.6905703,83.7074324 C93.9448997,83.0397451 94.2549789,82.4080722 94.5572254,81.7735561 C94.8525608,81.0869139 95.1349955,80.3874771 95.3948538,79.6738242 C95.455211,79.4601074 95.5081962,79.2402302 95.5510452,79.013245 C95.9758491,76.7144864 95.8238043,74.5161889 94.4097881,72.4619488 C93.305851,70.8578882 90.7008175,70.7356289 89.0808497,71.5312619 C87.5673133,72.2733473 86.9139816,73.2751151 86.8305873,74.8583253 C86.5228119,75.9880388 86.5863943,77.3437899 86.8416451,78.4559702 C87.2581556,80.2727998 88.3210867,81.4958664 89.3462369,82.6222629 C90.4225295,83.805998 91.4306323,84.0841615 92.405101,85.2631579 C92.7746158,84.4736852 93.293411,84.5594563 93.6905703,83.7074324" id="Fill-45" fill="#190003"></path>
                    <path d="M93.7293233,71.3735713 C93.5337376,71.2423471 93.3254911,71.1340109 93.104584,71.0526316 C92.8797478,72.0200284 92.7387339,73.0454079 92.7142857,74.0977444 C93.2591317,73.4940115 93.55382,72.3658905 93.7293233,71.3735713" id="Fill-47" fill="#673F36"></path>
                    <path d="M90.6419409,77.1428571 C90.9441116,74.9207804 89.5818663,73.4990968 87.9714446,72.0676692 C87.3586819,72.4142742 86.9242495,72.8225906 86.6240602,73.3190663 C87.9045708,74.6818225 89.414434,75.8724362 90.6419409,77.1428571" id="Fill-49" fill="#673F36"></path>
                    <path d="M93.0484953,77.5026328 C93.3940986,76.7848679 93.7987669,76.1070062 94.1853739,75.4355488 C94.5651471,74.7039902 94.920025,73.9694759 95.2495197,73.2251089 C95.327134,73.001454 95.3993788,72.7748432 95.4555149,72.5388725 C96.0241983,70.1412324 95.8782443,67.8406409 94.2966699,65.5301967 C93.0611869,63.7247003 89.9732117,63.6074539 87.9396194,64.4592147 C86.0407538,65.2543228 85.1801625,66.3450101 84.9751436,68.0160179 C84.5236139,69.2264148 84.5094578,70.654555 84.7442533,71.8191371 C85.1289078,73.7246378 86.3536517,75.0035105 87.5627751,76.2321348 C88.8368212,77.5248012 90.1870171,78.8884066 91.3966287,80.1879699 C91.940905,79.3721713 92.5154461,78.4204062 93.0484953,77.5026328" id="Fill-51" fill="#855348"></path>
                    <path d="M93.0484953,77.5026328 C93.3940986,76.7848679 93.7987669,76.1070062 94.1853739,75.4355488 C94.5651471,74.7039902 94.920025,73.9694759 95.2495197,73.2251089 C95.327134,73.001454 95.3993788,72.7748432 95.4555149,72.5388725 C96.0241983,70.1412324 95.8782443,67.8406409 94.2966699,65.5301967 C93.0611869,63.7247003 89.9732117,63.6074539 87.9396194,64.4592147 C86.0407538,65.2543228 85.1801625,66.3450101 84.9751436,68.0160179 C84.5236139,69.2264148 84.5094578,70.654555 84.7442533,71.8191371 C85.1289078,73.7246378 86.3536517,75.0035105 87.5627751,76.2321348 C88.8368212,77.5248012 90.1870171,78.8884066 91.3966287,80.1879699 C91.940905,79.3721713 92.5154461,78.4204062 93.0484953,77.5026328" id="Fill-53" fill="#520005"></path>
                    <path d="M89.6425389,69.0225564 C89.8538033,66.8050307 88.7832566,65.1817373 87.3181039,63.9473684 C86.5963279,64.2727333 86.0310245,64.6192848 85.6090226,65.0788312 C85.7175524,65.1660996 85.8260822,65.2538724 85.934612,65.3396275 C87.3065134,66.4413282 88.3823285,67.7357256 89.6425389,69.0225564" id="Fill-55" fill="#855348"></path>
                    <path d="M92.7142857,64.395401 C92.3405963,64.1916971 91.9292342,64.0454481 91.4911366,63.9473684 C91.1302073,64.8881208 90.8318634,65.9240511 90.6842105,66.9924812 C91.4899213,66.5316808 92.2002349,65.549143 92.7142857,64.395401" id="Fill-57" fill="#855348"></path>
                    <path d="M92.4019218,68.3916429 C92.8399131,67.6870138 93.3306804,67.029077 93.7997454,66.3928357 C94.2623984,65.7004692 94.6959506,65.015649 95.11076,64.3369601 C95.2103931,64.1313254 95.3026278,63.9077684 95.3761196,63.6719488 C96.1135036,61.2944152 95.875765,58.7640706 93.8781695,56.8006363 C92.3185653,55.2692237 88.8407762,55.7870836 86.4066691,56.6992339 C84.1348358,57.5491279 83.1735238,58.5678687 82.9856018,59.9992938 C82.4829969,61.075103 82.4765849,62.3107978 82.7217219,63.2988821 C83.1237072,64.9151899 84.4534646,65.9593992 85.8236671,67.1120855 C87.2648953,68.3237268 88.8161145,69.7169492 90.2450119,71.0526316 C90.986835,70.2461284 91.7355634,69.2905873 92.4019218,68.3916429" id="Fill-62" fill="#190003"></path>
                    <path d="M86.5847051,60.3712073 C87.4069603,60.8669928 88.1825494,61.5020899 89.0239376,61.9172932 C89.8135265,60.1736215 91.2027736,59.0263493 92.1141608,57.5485534 C92.3502908,57.1624872 92.549088,56.7295285 92.7142857,56.274717 C91.1351079,55.4297419 88.3071476,55.9064062 86.3140423,56.668978 C84.935995,57.1952664 84.0717404,57.7802842 83.5789474,58.5059794 C84.5668668,59.1866032 85.5767193,59.7643367 86.5847051,60.3712073" id="Fill-64" fill="#673F36"></path>
                    <path d="M91.3245353,61.2374011 C91.8008742,60.5013362 92.3198852,59.7949912 92.8106135,59.1015249 C93.2914181,58.3520859 93.7384821,57.6006656 94.1666909,56.8551893 C94.2649358,56.6303081 94.3577227,56.4034456 94.4286773,56.1637043 C95.1456667,53.7509369 94.7174578,51.2797201 92.3541221,49.4727451 C90.5093011,48.0615411 86.7705366,48.86299 83.9100221,50.0423781 C81.2375622,51.1439989 80.097822,52.3526116 79.9291187,53.8381155 C79.3738861,54.9991763 79.4364056,56.246425 79.7946521,57.1954832 C80.3831292,58.7518197 82.0547812,59.534446 83.6966619,60.4760742 C85.4223982,61.466245 87.2071806,62.7159704 88.8262368,63.9473684 C89.7322732,63.1152088 90.5986146,62.1820013 91.3245353,61.2374011" id="Fill-66" fill="#520005"></path>
                    <path d="M90.8287938,55.6996415 C91.2423087,54.8442288 91.6967314,54.0159567 92.1304538,53.2051321 C92.5503759,52.3303333 92.9377688,51.4589271 93.3177687,50.5947907 C93.401556,50.3379246 93.4818932,50.0825124 93.5366014,49.8130453 C94.098469,47.0936569 93.4966792,44.5085175 90.868716,42.5228938 C88.8174064,40.9724887 85.0415576,41.5623114 81.9700147,43.1519735 C79.1020256,44.6359812 77.8614811,46.1403443 77.7964227,47.8545622 C77.272013,49.2067443 77.4726096,50.5933367 77.9876549,51.6387334 C78.8294705,53.3490741 80.8162146,54.1792848 82.7270573,55.1645845 C84.7349947,56.2012574 86.7729969,57.5112746 88.5502729,58.8721805 C89.4004672,57.9503703 90.183139,56.8070737 90.8287938,55.6996415" id="Fill-68" fill="#673F36"></path>
                    <path d="M77.4887218,48.5586193 C77.5373389,48.3240439 77.6003427,48.0875299 77.6921199,47.8544085 C77.7576041,46.1406514 79.0062697,44.6357826 81.8930337,43.1522389 C84.9846841,41.56207 88.7852511,40.9727236 90.8499894,42.5226657 C93.4951562,44.5088017 94.1008855,47.0939773 93.5353397,49.8129189 C93.4802734,50.0828744 93.3994103,50.3378055 93.3150745,50.5946752 C92.932587,51.4588237 92.542658,52.3302421 92.119987,53.2050531 C91.6834253,54.0163736 91.2260277,54.8446573 90.8098059,55.6995972 C90.1599243,56.8075296 89.3721289,57.9503575 88.5163688,58.8721805 C86.7274581,57.5117403 84.6761144,56.2017048 82.6550323,55.1650174 C80.7316805,54.179704 78.7314343,53.3509357 77.8846039,51.6386325 C77.7739752,51.4161736 77.6817019,51.1752977 77.6053036,50.9256979" id="Fill-70" fill="#190003"></path>
                    <path d="M88.943839,49.1358483 C89.3185417,48.1701837 89.7643419,47.2295059 90.148172,46.334882 C90.5497765,45.3986136 90.9129499,44.4079622 91.3011035,43.462385 C91.3837303,43.1841011 91.4639551,42.9038575 91.5182389,42.6118554 C92.0629991,39.6697875 91.4778863,35.8977672 88.385628,33.4867903 C86.4568697,31.9812158 84.6361987,32.4584138 82.8650077,33.0443777 C81.1298458,33.6185832 78.8686589,34.7591551 76.9653612,36.3122534 C76.1626326,36.9677883 75.3642275,37.6664376 74.7426053,38.4802219 C74.1305908,39.2778383 74.0446014,40.0073536 73.7323491,40.8676819 C72.2311362,44.9904966 76.6103543,47.6817171 79.9370421,49.0951836 C82.2635618,50.0828954 84.6631004,51.3611394 86.7230047,52.7819549 C87.6088404,51.7330011 88.3428734,50.393515 88.943839,49.1358483" id="Fill-72" fill="#855348"></path>
                    <path d="M91.5182389,42.6114882 C91.4639551,42.9039767 91.3837302,43.183727 91.3011035,43.4620075 C90.9129498,44.4075733 90.5401686,45.3639176 90.1481719,46.3349598 C89.7384008,47.2374117 89.3185416,48.1702394 88.9438388,49.1354024 C88.3428732,50.3935438 87.6088401,51.7325238 86.7230043,52.7819549 C84.6630999,51.3606666 82.2635611,50.082438 79.9375216,49.0947382 C76.6103533,47.6817787 72.2311348,44.9901007 73.7323478,40.8673358 C74.0446001,40.0075078 74.1305896,39.2775114 74.7426041,38.4799046 C75.3647068,37.66613 76.1626315,36.9674892 76.9658405,36.3124522 C78.868658,34.7593726 81.129845,33.6188144 82.8650071,33.0446159 C84.6361982,32.4581691 86.4568693,31.9814668 88.3856278,33.4865332 C91.4778863,35.897971 92.0629991,39.6694557 91.5182389,42.6114882" id="Fill-74" fill="#520005"></path>
                    <path d="M95.7429211,84.7547336 C95.8191161,85.1015901 95.6240761,85.4415013 95.3020446,85.5158569 C93.423048,85.9464656 92.3659028,86.0959938 90.4159825,86.2757546 C90.0814914,86.3068041 89.7532301,86.0379801 89.6827857,85.6776416 C89.6118621,85.3181201 89.8251122,85.0068072 90.1586448,84.9818858 C92.106169,84.8352174 93.1671479,84.6946772 95.0312889,84.2624343 C95.3499659,84.1884873 95.6662469,84.4082856 95.7429211,84.7547336" id="Fill-76" fill="#008455"></path>
                    <path d="M94.7282732,82.7353695 C94.803302,83.0892212 94.6089966,83.4368358 94.2891621,83.5112652 C92.4177698,83.9516047 91.3514947,84.0958897 89.3983402,84.2464118 C89.0631152,84.2726077 88.7365474,83.9944329 88.66729,83.6268595 C88.5975516,83.2584546 88.8120571,82.9436888 89.1458393,82.9233142 C91.0956271,82.8068883 92.1667118,82.6734143 94.0222326,82.2326589 C94.3387004,82.1569821 94.6537253,82.3827652 94.7282732,82.7353695" id="Fill-78" fill="#008455"></path>
                    <g id="Group-82" transform="translate(62.263158, 0.000000)">
                        <mask id="mask-2" fill="white">
                            <use xlink:href="#path-1"></use>
                        </mask>
                        <g id="Clip-81"></g>
                        <path d="M15.9303582,31.3675276 C16.170146,26.4475807 14.5212472,5.49529412 12.6392481,2.90014153 C9.90413976,-0.867678019 -0.0379743476,-0.112490049 0.483635559,0.774533392 C5.29706325,8.97460416 5.13179124,20.9162229 6.11578063,30.7097833 C6.11578063,30.7097833 7.04197258,32.0701725 11.0223529,32.3362318 C15.0027333,32.6032464 15.9303582,31.3675276 15.9303582,31.3675276" id="Fill-80" fill="#E2104C" mask="url(#mask-2)"></path>
                    </g>
                    <path d="M84.5765351,40.1175672 C84.2423824,46.8378688 79.2079133,52.0471523 73.3316554,51.7552229 C67.4544118,51.4608238 62.9610927,45.7743768 63.2957383,39.0550631 C63.6293982,32.3337735 68.6648529,27.1235022 74.5420965,27.4179013 C80.4188473,27.7113124 84.910195,33.3977595 84.5765351,40.1175672" id="Fill-83" fill="#F54F71"></path>
                    <path d="M82.5506011,39.9847831 C82.2957446,45.0257773 78.4605976,48.9328512 73.9828975,48.71296 C69.5051974,48.4925833 66.0813632,44.2277615 66.3367116,39.1877381 C66.5905841,34.1472294 70.4272071,30.2391847 74.9049072,30.4600467 C79.3826073,30.6794525 82.8049655,34.9447598 82.5506011,39.9847831" id="Fill-85" fill="#F54F71"></path>
                    <path d="M0.583301059,84.5633224 C0.583301059,84.5633224 3.07627909,80.9525142 5.17008821,78.5020782 C7.26389732,76.0521316 8.4740761,75.378225 10.522071,77.0461071 C11.3706095,77.7366534 18.0278113,83.7073582 17.5799038,93.5937687 C17.2850354,100.10722 11.2438892,101.424201 11.2438892,101.424201 C11.2438892,101.424201 9.2085664,102.380493 4.7329032,97.6621678 C0.755348224,93.4679923 -0.163861272,86.1548578 0.583301059,84.5633224" id="Fill-87" fill="#BC8668"></path>
                    <path d="M40.9027968,45.6766917 L38.0932957,52.181673 C37.4472258,53.6777762 38.5106327,55.3376484 40.2181032,55.4985857 L42.9774436,55.8270677 L40.9027968,45.6766917 Z" id="Fill-89" fill="#D4A181"></path>
                    <path d="M23.5837826,95.0060203 L11.7917115,71.2537568 C11.2500229,70.1679889 10.2417878,69.4018493 9.06567198,69.1814995 L2.89023167,68.0245416 C2.48883994,67.948993 2.13595764,68.1325372 1.93431061,68.424077 L1.93335944,68.4226242 L0.345864662,70.1951089 L2.45459799,70.5791472 L13.6383989,92.2906318 L22.3301468,96.3363523 C23.1557582,96.720875 23.9951615,95.8302741 23.5837826,95.0060203" id="Fill-91" fill="#A3A9CE"></path>
                    <path d="M0.461877446,71.4724515 L12.4426634,94.3207876 L21.2901546,98.3664638 C22.1310898,98.7509822 22.9855808,97.8599068 22.5668076,97.035662 L10.5627834,73.2841434 C10.0113583,72.1983874 8.98500094,71.4322562 7.78774536,71.2119088 L1.50130637,70.0544793 C0.698617428,69.9072581 0.0794140803,70.7513584 0.461877446,71.4724515" id="Fill-93" fill="#848FBB"></path>
                    <path d="M29.7819549,89.5442435 L26.9622568,85.5611601 C25.9375255,84.1137203 24.6568524,82.8838258 23.1925374,81.9406523 C21.7291864,80.99891 20.4494773,79.7709238 19.425228,78.3244381 L17.1497076,75.112782 C16.0550863,76.3837047 15.7273265,78.1961055 16.2941581,79.8319891 L16.8764137,81.5112865 L19.2411041,85.9914801 L8.65590939,83.9868189 C7.34920829,83.7392179 6.22904106,84.9166343 6.46859489,86.28488 C6.6050008,87.061078 7.15881842,87.6912915 7.88663792,87.8983413 L12.2660869,89.1425479 L15.2207449,95.244313 C16.0035123,96.8615909 20.0547196,99.0699623 22.2309481,98.3009204" id="Fill-95" fill="#D4A181"></path>
                    <path d="M55.1578947,55.8270677 C51.4838381,61.6941812 45.0075188,61.1330274 45.0075188,61.1330274 C45.0075188,61.1330274 46.6258871,63.1988413 51.6228129,60.6249079 C55.0767866,58.8459845 55.1578947,55.8270677 55.1578947,55.8270677" id="Fill-97" fill="#190003"></path>
                    <path d="M7.43552206,75.9514052 C7.53295254,76.5035423 7.16403609,77.029798 6.61193004,77.127234 C6.06033144,77.22467 5.53359792,76.8562402 5.43667489,76.3041031 C5.33924441,75.751966 5.70765341,75.2257103 6.25975946,75.1282743 C6.8118655,75.0313458 7.33809158,75.3992681 7.43552206,75.9514052" id="Fill-99" fill="#434656"></path>
                    <path d="M7.64578297,73.0745694 L5.96890136,72.8724764 C5.60064501,72.8278923 5.36007278,72.6121313 5.43460085,72.3931159 C5.50967692,72.1741005 5.87245327,72.0312361 6.24125762,72.0758202 L7.91813923,72.2779131 C8.28694358,72.3221718 8.52751581,72.5382583 8.45243974,72.7569483 C8.37736367,72.9759636 8.01458732,73.1191535 7.64578297,73.0745694" id="Fill-101" fill="#434656"></path>
                    <path d="M51.4777703,40.2295778 C51.4777703,40.2295778 52.9964114,42.9421179 51.3366794,43.4867839 C49.6769475,44.0319191 49.1464896,43.119451 48.3190845,41.7073539 C47.0284857,39.5075786 50.8100495,39.0262458 51.4777703,40.2295778" id="Fill-216" fill="#261818"></path>
                    <path d="M44.0270128,37.9066286 C44.9680699,37.1511002 45.6962573,36.0627795 48.2376894,35.7104112 C50.7791214,35.3575139 54.6257043,35.9728357 54.8934769,35.8336872 C55.4376911,35.5516868 55.2667211,34.9469466 53.1837775,34.4379702 C51.2299041,33.9607387 48.4211811,32.9263843 45.7815015,33.8988361 C43.1427852,34.8712879 41.9946377,37.16274 41.9628518,38.1256683 C41.9310658,39.0880676 43.6084976,38.2425953 44.0270128,37.9066286" id="Fill-218" fill="#520005"></path>
                </g>
                <path d="M215.16422,21.3157895 L203.942723,21.3157895 C202.556272,21.3157895 201.432933,22.4401545 201.432933,23.8273952 L201.432933,29.7292402 C201.432933,31.1164809 202.556272,32.2408459 203.942723,32.2408459 L210.631849,32.2408459 L215.083812,35.5263158 L213.971416,32.2408459 L215.16422,32.2408459 C216.550195,32.2408459 217.673534,31.1164809 217.673534,29.7292402 L217.673534,23.8273952 C217.673534,22.4401545 216.550195,21.3157895 215.16422,21.3157895" id="Fill-103" fill="#FFFFFF"></path>
                <path d="M206.508121,26.3907536 C206.508121,26.9512066 206.05366,27.406015 205.493083,27.406015 C204.932507,27.406015 204.478046,26.9512066 204.478046,26.3907536 C204.478046,25.8303007 204.932507,25.3759398 205.493083,25.3759398 C206.05366,25.3759398 206.508121,25.8303007 206.508121,26.3907536" id="Fill-105" fill="#D67DEC"></path>
                <path d="M210.568271,26.3907536 C210.568271,26.9512066 210.11381,27.406015 209.553234,27.406015 C208.992657,27.406015 208.538196,26.9512066 208.538196,26.3907536 C208.538196,25.8303007 208.992657,25.3759398 209.553234,25.3759398 C210.11381,25.3759398 210.568271,25.8303007 210.568271,26.3907536" id="Fill-107" fill="#D67DEC"></path>
                <path d="M214.628422,26.3907536 C214.628422,26.9512066 214.173961,27.406015 213.613384,27.406015 C213.052807,27.406015 212.598346,26.9512066 212.598346,26.3907536 C212.598346,25.8303007 213.052807,25.3759398 213.613384,25.3759398 C214.173961,25.3759398 214.628422,25.8303007 214.628422,26.3907536" id="Fill-109" fill="#D67DEC"></path>
                <g id="Group-9" transform="translate(70.658497, 36.541353)">
                    <path d="M13.7312873,6.39488462e-14 L2.50979003,6.39488462e-14 C1.1233392,6.39488462e-14 7.10542736e-14,1.12436503 7.10542736e-14,2.51160576 L7.10542736e-14,8.41345068 C7.10542736e-14,9.80069141 1.1233392,10.9250564 2.50979003,10.9250564 L6.39794247,10.9250564 L7.95044387,14.2105263 L9.73703374,10.9250564 L13.7312873,10.9250564 C15.1172623,10.9250564 16.2406015,9.80069141 16.2406015,8.41345068 L16.2406015,2.51160576 C16.2406015,1.12436503 15.1172623,6.39488462e-14 13.7312873,6.39488462e-14" id="Fill-111" fill="#FFFFFF"></path>
                    <path d="M5.07518797,5.47390803 C5.07518797,6.03436099 4.62072694,6.4887218 4.06015038,6.4887218 C3.49957381,6.4887218 3.04511278,6.03436099 3.04511278,5.47390803 C3.04511278,4.91345508 3.49957381,4.45864662 4.06015038,4.45864662 C4.62072694,4.45864662 5.07518797,4.91345508 5.07518797,5.47390803" id="Fill-113" fill="#008455"></path>
                    <path d="M9.13533835,5.47390803 C9.13533835,6.03436099 8.68087731,6.4887218 8.12030075,6.4887218 C7.55972419,6.4887218 7.10526316,6.03436099 7.10526316,5.47390803 C7.10526316,4.91345508 7.55972419,4.45864662 8.12030075,4.45864662 C8.68087731,4.45864662 9.13533835,4.91345508 9.13533835,5.47390803" id="Fill-115" fill="#008455"></path>
                    <path d="M13.1954887,5.47390803 C13.1954887,6.03436099 12.7410277,6.4887218 12.1804511,6.4887218 C11.6198746,6.4887218 11.1654135,6.03436099 11.1654135,5.47390803 C11.1654135,4.91345508 11.6198746,4.45864662 12.1804511,4.45864662 C12.7410277,4.45864662 13.1954887,4.91345508 13.1954887,5.47390803" id="Fill-117" fill="#008455"></path>
                </g>
                <g id="Group-12" transform="translate(277.650978, 46.691729)">
                    <path d="M17.1638358,1.77635684e-14 L3.13740218,1.77635684e-14 C1.4048795,1.77635684e-14 -3.69482223e-13,1.36553377 -3.69482223e-13,3.05011749 L-3.69482223e-13,10.2162156 C-3.69482223e-13,11.901272 1.4048795,13.2663331 3.13740218,13.2663331 L5.42750161,13.2663331 L5.54757263,17.2556391 L9.60179237,13.2663331 L17.1638358,13.2663331 C18.8963585,13.2663331 20.3007519,11.901272 20.3007519,10.2162156 L20.3007519,3.05011749 C20.3007519,1.36553377 18.8963585,1.77635684e-14 17.1638358,1.77635684e-14" id="Fill-119" fill="#FFFFFF"></path>
                    <path d="M7.10526316,6.59774436 C7.10526316,7.43891147 6.42344775,8.12030075 5.58243228,8.12030075 C4.74141682,8.12030075 4.06015038,7.43891147 4.06015038,6.59774436 C4.06015038,5.75712632 4.74141682,5.07518797 5.58243228,5.07518797 C6.42344775,5.07518797 7.10526316,5.75712632 7.10526316,6.59774436" id="Fill-121" fill="#FF654C"></path>
                    <path d="M11.8613946,6.59774436 C11.8613946,7.43891147 11.1795792,8.12030075 10.3385637,8.12030075 C9.49754825,8.12030075 8.81628181,7.43891147 8.81628181,6.59774436 C8.81628181,5.75712632 9.49754825,5.07518797 10.3385637,5.07518797 C11.1795792,5.07518797 11.8613946,5.75712632 11.8613946,6.59774436" id="Fill-123" fill="#FF654C"></path>
                    <path d="M16.2406015,6.59774436 C16.2406015,7.43891147 15.5587861,8.12030075 14.7183196,8.12030075 C13.8773041,8.12030075 13.1954887,7.43891147 13.1954887,6.59774436 C13.1954887,5.75712632 13.8773041,5.07518797 14.7183196,5.07518797 C15.5587861,5.07518797 16.2406015,5.75712632 16.2406015,6.59774436" id="Fill-125" fill="#FF654C"></path>
                </g>
                <path d="M255.255639,61.6278195 C255.255639,66.3929852 251.393094,70.2556391 246.627578,70.2556391 C241.863029,70.2556391 238,66.3929852 238,61.6278195 C238,56.8626539 241.863029,53 246.627578,53 C251.393094,53 255.255639,56.8626539 255.255639,61.6278195" id="Fill-127" fill="#2379E2"></path>
                <g id="Group-5" transform="translate(240.167260, 56.000000)" fill="#FFFFFF">
                    <path d="M12.3526462,5.23629619 C12.6173031,4.90666934 12.6993026,4.46653451 12.5063338,4.09279932 C12.278012,3.65076735 11.9072959,3.44967126 11.4246285,3.44303129 C10.804968,3.43544276 10.1828524,3.43591704 9.56073682,3.43022565 C9.51359941,3.42975136 9.46400693,3.44587699 9.4227617,3.40793433 C9.41637851,3.4117286 9.4095043,3.41410002 9.4026301,3.41694571 C9.40901329,3.41410002 9.41637851,3.4117286 9.4227617,3.40746005 C9.47530027,3.30643772 9.53029391,3.20683824 9.57988639,3.10486735 C9.75370558,2.74536066 9.85927374,2.36640836 9.89266273,1.97227899 C9.91279433,1.73608594 9.93390797,1.49467578 9.88971665,1.26037986 C9.7610708,0.576463441 9.29264281,0.137277169 8.58018054,0.0139635289 C8.11617168,-0.065716054 7.70862951,0.202253972 7.62908513,0.648080209 C7.58685787,0.881427559 7.55641496,1.11667204 7.47490653,1.34195658 C7.27850066,1.88548516 6.93086228,2.32704285 6.49484126,2.71168655 C6.20514261,2.96732521 5.88107293,3.17743268 5.55356615,3.38422017 C5.25159213,3.54927074 4.94814507,3.7114756 4.63585974,3.8585034 C4.56859073,3.8898061 4.52587246,3.95430862 4.52538144,4.02639967 L4.49198187,9.44793129 C4.49150143,9.5266623 4.54158493,9.59827907 4.6176922,9.62673606 C4.89953462,9.73155266 5.1867782,9.82214076 5.47991395,9.89280896 C6.1545681,10.0578595 6.8444437,10.1214135 7.53628336,10.1313734 C8.54139038,10.1489219 9.5464974,10.1470248 10.5516044,10.1504277 C10.6586456,10.150819 10.7701059,10.1460762 10.8751831,10.1228363 C11.6220164,9.96158003 11.9971516,9.19608689 11.6794651,8.57525014 C11.6450941,8.50742764 11.6598245,8.47375353 11.7197283,8.43011947 C12.1704798,8.10855544 12.311892,7.5778325 12.0762049,7.07936083 C12.045762,7.01343546 12.0541093,6.97786422 12.1159771,6.93423016 C12.6354706,6.56334067 12.7425118,5.89365275 12.3580474,5.39375822 C12.3064908,5.32498716 12.3104189,5.28941591 12.3526462,5.23629619 L8.58018054,6.59774436" id="Fill-129"></path>
                    <path d="M4.06008886,3.63237799 C4.06008886,3.62737147 4.06008886,3.62236494 4.06008886,3.61785907 C4.06008886,3.59282646 4.06008886,3.56729319 4.06008886,3.54226057 C4.06060273,3.43061509 4.05957499,3.31896962 3.98711931,3.22334502 C3.97889739,3.21183002 3.96861999,3.20432023 3.95937033,3.19430718 C3.95063453,3.18379348 3.94138487,3.17378044 3.93110747,3.16426804 C3.9203162,3.1552563 3.90901106,3.14674521 3.89770591,3.13873477 C3.88794238,3.13172564 3.87766498,3.12521716 3.86687371,3.11970998 C3.84940213,3.10969694 3.83193054,3.10068519 3.81343122,3.09417671 C3.81137574,3.09317541 3.80880639,3.09267476 3.80675091,3.09167345 C3.75793325,3.07465127 3.70603237,3.06413757 3.64847892,3.06363692 C3.11610951,3.060633 2.58374009,3.05812974 2.05137068,3.05512583 C1.51900126,3.05212191 0.98663185,3.04861735 0.454262436,3.04511278 C0.397222856,3.04511278 0.344808107,3.05512583 0.295990449,3.07164736 C0.293421098,3.07264866 0.291365618,3.07314931 0.288796267,3.07364997 C0.270296944,3.08015845 0.252825361,3.08866954 0.235353778,3.09868258 C0.224562506,3.10418976 0.214285104,3.11069824 0.204007702,3.11770737 C0.19270256,3.12521716 0.181397418,3.13372825 0.170606146,3.14273999 C0.160328745,3.15175173 0.151079083,3.16226543 0.141829421,3.17227848 C0.13206589,3.18229153 0.121788488,3.18980131 0.113566566,3.20131632 C0.0400831433,3.29543896 0.0375137929,3.40758509 0.0364860527,3.51872991 C0.0364860527,3.54426318 0.0364860527,3.56979645 0.0359721826,3.59482906 C0.0359721826,3.59983559 0.0359721826,3.60434146 0.0354583125,3.60934798 C0.0354583125,3.61385385 0.0359721826,3.61835973 0.0359721826,3.62186429 C0.026722521,5.18490094 0.0169589893,6.74743693 0.00770932762,8.30997292 C0.00462610708,8.77107374 0.000515146353,9.2316739 -4.40536496e-13,9.69227406 C-0.000512593828,9.97814656 0.154162303,10.1298442 0.442957294,10.1318468 C0.711197482,10.1338494 0.979951539,10.1348507 1.24819173,10.135852 C1.37974247,10.1403579 1.51232095,10.1363527 1.6438717,10.1383553 C1.76565891,10.1393566 1.88693225,10.1398573 2.00820559,10.1403579 C2.1299928,10.1413592 2.25126614,10.1418599 2.37305336,10.1428612 C2.5046041,10.1423605 2.63666871,10.1478677 2.76873333,10.1448638 C3.03697351,10.1468664 3.30572757,10.1493697 3.57396776,10.1503759 C3.86276275,10.1513723 4.01897926,10.0011766 4.02206248,9.71580472 C4.02720118,9.25470391 4.02822892,8.79410374 4.03131214,8.33300293 C4.0405618,6.77046694 4.04981146,5.20743029 4.05957499,3.64539495 C4.06008886,3.64138973 4.06008886,3.63688386 4.06008886,3.63237799" id="Fill-131"></path>
                </g>
                <path d="M272,20.499768 C272,25.1944316 268.194432,29 263.499768,29 C258.805104,29 255,25.1944316 255,20.499768 C255,15.8055684 258.805104,12 263.499768,12 C268.194432,12 272,15.8055684 272,20.499768" id="Fill-133" fill="#F54F71"></path>
                <path d="M265.705513,17 C264.696705,17 263.818819,17.5914221 263.367498,18.4632556 C262.916177,17.5914221 262.03829,17 261.029483,17 C259.559357,17 258.36726,18.2555806 258.36726,19.804615 C258.36726,22.1392024 262.575782,24.6829697 263.367498,25 C264.1973,24.6473539 268.36726,22.6568849 268.36726,19.804615 C268.36726,18.2555806 267.175639,17 265.705513,17" id="Fill-135" fill="#FFFFFF"></path>
                <g id="Group-11" transform="translate(158.831429, 63.022556)">
                    <path d="M10.1503759,5.07518797 C10.1503759,7.87824454 7.87824454,10.1503759 5.07518797,10.1503759 C2.2721314,10.1503759 7.38964445e-13,7.87824454 7.38964445e-13,5.07518797 C7.38964445e-13,2.2721314 2.2721314,-1.42108547e-14 5.07518797,-1.42108547e-14 C7.87824454,-1.42108547e-14 10.1503759,2.2721314 10.1503759,5.07518797" id="Fill-141" fill="#F54F71"></path>
                    <path d="M6.49929409,3.04511278 C5.88494452,3.04511278 5.35025129,3.38975914 5.0754369,3.8974478 C4.80012465,3.38975914 4.26592927,3.04511278 3.65108185,3.04511278 C2.75594365,3.04511278 2.03007519,3.77654566 2.03007519,4.67904754 C2.03007519,6.03907123 4.59301815,7.51999705 5.0754369,7.70511278 C5.58075685,7.49942864 8.12030075,6.34007241 8.12030075,4.67904754 C8.12030075,3.77654566 7.39443229,3.04511278 6.49929409,3.04511278" id="Fill-143" fill="#FFFFFF"></path>
                </g>
                <g id="Group-7" transform="translate(82.853985, 64.977444)">
                    <path d="M11.1654135,5.58293862 C11.1654135,8.66607473 8.66607473,11.1654135 5.58247492,11.1654135 C2.4993388,11.1654135 6.11066753e-13,8.66607473 6.11066753e-13,5.58293862 C6.11066753e-13,2.4998025 2.4993388,4.97379915e-14 5.58247492,4.97379915e-14 C8.66607473,4.97379915e-14 11.1654135,2.4998025 11.1654135,5.58293862" id="Fill-145" fill="#FFC965"></path>
                    <path d="M5.61237732,9.05263158 C4.69807286,9.05263158 3.79329714,8.55184581 3.1303697,7.67820286 C3.02237741,7.53613142 3.01602492,7.29698854 3.11675723,7.14334566 C3.21703578,6.99034565 3.3862842,6.98134564 3.49427648,7.12405995 C4.05964787,7.8684886 4.8314751,8.29534578 5.61237732,8.29534578 C6.36560083,8.29534578 7.11746311,7.89356003 7.67602826,7.19413138 C7.78674304,7.05655994 7.95553771,7.0707028 8.05309376,7.2269171 C8.15110357,7.38377426 8.14066734,7.62227428 8.02995256,7.76113144 C7.36566387,8.59363153 6.50717056,9.05263158 5.61237732,9.05263158" id="Fill-147" fill="#3D4564"></path>
                    <path d="M4.06015038,4.56766917 C4.06015038,4.84802658 3.83287022,5.07518797 3.55263158,5.07518797 C3.27239294,5.07518797 3.04511278,4.84802658 3.04511278,4.56766917 C3.04511278,4.2876712 3.27239294,4.06015038 3.55263158,4.06015038 C3.83287022,4.06015038 4.06015038,4.2876712 4.06015038,4.56766917" id="Fill-149" fill="#3D4564"></path>
                    <path d="M8.12030075,4.56766917 C8.12030075,4.84802658 7.89302059,5.07518797 7.61278195,5.07518797 C7.33254331,5.07518797 7.10526316,4.84802658 7.10526316,4.56766917 C7.10526316,4.2876712 7.33254331,4.06015038 7.61278195,4.06015038 C7.89302059,4.06015038 8.12030075,4.2876712 8.12030075,4.56766917" id="Fill-151" fill="#3D4564"></path>
                </g>
                <path d="M159.816392,100.488472 C159.816392,103.291348 157.544329,105.56391 154.740954,105.56391 C151.938078,105.56391 149.666016,103.291348 149.666016,100.488472 C149.666016,97.6855961 151.938078,95.4135338 154.740954,95.4135338 C157.544329,95.4135338 159.816392,97.6855961 159.816392,100.488472" id="Fill-161" fill="#FFC965"></path>
                <g id="Group-6" transform="translate(152.307260, 98.458647)">
                    <path d="M1.01503759,0.507518797 C1.01503759,0.788065046 0.787940184,1.01503759 0.507518797,1.01503759 C0.227724751,1.01503759 1.70530257e-12,0.788065046 1.70530257e-12,0.507518797 C1.70530257e-12,0.226972548 0.227724751,0 0.507518797,0 C0.787940184,0 1.01503759,0.226972548 1.01503759,0.507518797" id="Fill-163" fill="#3D4564"></path>
                    <path d="M5.07518797,0.507518797 C5.07518797,0.788065046 4.84809056,1.01503759 4.56766917,1.01503759 C4.28787513,1.01503759 4.06015038,0.788065046 4.06015038,0.507518797 C4.06015038,0.226972548 4.28787513,0 4.56766917,0 C4.84809056,0 5.07518797,0.226972548 5.07518797,0.507518797" id="Fill-165" fill="#3D4564"></path>
                    <path d="M0.19115558,3.36163522 C0.0444113528,3.40495091 -0.0391199763,3.54562755 0.0182231523,3.67239548 C0.360024321,4.43379786 1.36149723,5.07518797 2.53770865,5.07518797 C3.71346855,5.07518797 4.71539298,4.43379786 5.05719414,3.67239548 C5.11408575,3.54562755 5.03055442,3.40495091 4.88426172,3.36163522 C3.46648672,2.9396053 1.60847905,2.9396053 0.19115558,3.36163522" id="Fill-167" fill="#3D4564"></path>
                    <path d="M1.01503759,4.65572448 C1.46826368,4.91828941 1.98685892,5.07518797 2.53759398,5.07518797 C3.08832905,5.07518797 3.60692429,4.91828941 4.06015038,4.65572448 C3.64069835,4.28429117 3.11284248,4.06015038 2.53759398,4.06015038 C1.96234549,4.06015038 1.43448962,4.28429117 1.01503759,4.65572448" id="Fill-169" fill="#F54F71"></path>
                </g>
                <path d="M53.6284216,23.7030075 C53.6284216,26.786198 51.1289053,29.2857143 48.0457148,29.2857143 C44.9625244,29.2857143 42.4630081,26.786198 42.4630081,23.7030075 C42.4630081,20.6198171 44.9625244,18.1203008 48.0457148,18.1203008 C51.1289053,18.1203008 53.6284216,20.6198171 53.6284216,23.7030075" id="Fill-171" fill="#2379E2"></path>
                <g id="Group-2" transform="translate(44.367260, 20.165414)" fill="#FFFFFF">
                    <path d="M7.33896125,3.14164785 C7.50445889,2.94330481 7.55534324,2.67945818 7.43480167,2.45546338 C7.29252311,2.19070061 7.06033239,2.06977091 6.75897848,2.06519024 C6.3716646,2.06106763 5.98237462,2.0615257 5.5940727,2.05786116 C5.56443133,2.05786116 5.53330789,2.06702251 5.50761871,2.04411915 C5.50366652,2.04686755 5.49922032,2.04824176 5.49526814,2.05007402 C5.49922032,2.04824176 5.50366652,2.04686755 5.50761871,2.04411915 C5.54022421,1.9836543 5.57529983,1.92410558 5.60592925,1.86272459 C5.71412024,1.646975 5.7803193,1.41931567 5.80156228,1.18341113 C5.81391285,1.04141034 5.82725146,0.897119214 5.79958619,0.756492624 C5.71906047,0.345606464 5.42610494,0.0822178999 4.98148442,0.008469102 C4.69099901,-0.0396279401 4.43657726,0.121153601 4.38618694,0.388664768 C4.36049775,0.528833291 4.34123086,0.669917948 4.29034651,0.804589666 C4.16733483,1.13073342 3.9499648,1.39595425 3.67775823,1.62682005 C3.49645186,1.78027252 3.29390251,1.90669903 3.08937707,2.03037714 C3.08888305,2.02991907 3.08888305,2.02991907 3.08888305,2.02991907 C2.90016633,2.12931963 2.7109556,2.22688791 2.51581659,2.31437872 C2.47382465,2.33361754 2.4466534,2.37255324 2.4466534,2.41561154 L2.42589864,5.66880386 C2.42541042,5.7155267 2.45653385,5.75904307 2.50445407,5.77599156 C2.68032619,5.83874674 2.86015049,5.89279866 3.04343295,5.93539889 C3.4648344,6.03434138 3.89611631,6.07236095 4.32838627,6.07831582 C4.95678328,6.08930943 5.58518029,6.08793523 6.21308327,6.09022556 C6.28027038,6.09022556 6.34992759,6.08747716 6.4151386,6.07327708 C6.88199015,5.97662493 7.11665099,5.51764173 6.91805382,5.14477514 C6.89631682,5.10400717 6.90570325,5.08385222 6.94324898,5.05820046 C7.225336,4.86489616 7.31327206,4.54653954 7.16605327,4.24742175 C7.14678638,4.20802798 7.15222063,4.18649883 7.19124843,4.16084707 C7.51532739,3.93776841 7.58251449,3.53558553 7.34241941,3.23600966 C7.3098139,3.19478363 7.31228402,3.17325447 7.33896125,3.14164785" id="Fill-173"></path>
                    <path d="M2.03001712,2.36581115 C2.03001712,2.36258735 2.03001712,2.35982409 2.03001712,2.35706083 C2.03001712,2.342784 2.03001712,2.32850716 2.03001712,2.31423032 C2.03043065,2.25021482 2.02960359,2.18619932 1.99362651,2.13185523 C1.98949121,2.12540762 1.98411533,2.12080219 1.9795665,2.11527567 C1.97501768,2.10882807 1.97046885,2.10330155 1.96550649,2.09823558 C1.96013061,2.09270906 1.95434119,2.08764308 1.94896531,2.0834982 C1.94400295,2.07935331 1.93862707,2.07566896 1.93325118,2.07198462 C1.92456706,2.06691864 1.91588293,2.06185267 1.90678528,2.05770778 C1.90554469,2.05724723 1.9043041,2.05724723 1.90306351,2.05678669 C1.87907879,2.04711529 1.8526129,2.04066768 1.82407935,2.04066768 C1.55776624,2.03882551 1.29186667,2.03744388 1.02555357,2.03560171 C0.759653993,2.03375953 0.493340889,2.03191736 0.227441315,2.03007519 C0.198494239,2.03007519 0.17244187,2.03560171 0.14804362,2.04527311 C0.146803031,2.04573366 0.145562442,2.0461942 0.144735382,2.04665474 C0.1352242,2.04987854 0.126540077,2.05494452 0.117855954,2.06047104 C0.112480069,2.06369484 0.107104183,2.06737918 0.102141827,2.07106353 C0.0963524117,2.07566896 0.0909765261,2.08027439 0.0856006405,2.08580091 C0.0802247548,2.09086689 0.0756759285,2.09685395 0.0711271022,2.10284101 C0.0661647463,2.10790698 0.0612023903,2.11251241 0.0570670936,2.11896002 C0.0202629535,2.17284357 0.0190223645,2.23685907 0.0186088349,2.30041403 C0.0186088349,2.31515141 0.0181953052,2.32942824 0.0181953052,2.34370508 C0.0181953052,2.34692889 0.0181953052,2.34969214 0.0181953052,2.3524554 C0.0181953052,2.35521866 0.0181953052,2.35706083 0.0181953052,2.35936355 C0.0136464789,3.25281729 0.00868412295,4.14534994 0.00413529664,5.03880368 C0.00289470765,5.30177383 0.000413529664,5.56520452 -2.27373675e-13,5.82909575 C-2.27373675e-13,5.99166749 0.0773300472,6.07871015 0.2216519,6.07963123 C0.356049041,6.08101286 0.490032652,6.08147341 0.624429793,6.08193395 C0.690181009,6.08469721 0.755932226,6.08193395 0.822096972,6.08331558 L1.00446355,6.08469721 C1.06525241,6.08515775 1.12562775,6.08515775 1.18641661,6.08561829 C1.25258135,6.08561829 1.31833257,6.0888421 1.38408379,6.08699992 C1.51848093,6.08838155 1.65246454,6.08930264 1.78686168,6.09022556 C1.93118353,6.09068427 2.00934064,6.0045627 2.01099476,5.84199096 C2.01347593,5.57856027 2.01388946,5.31512958 2.01554358,5.05169889 C2.02050594,4.15916624 2.02505477,3.2657125 2.02960359,2.37317985 C2.03001712,2.37041659 2.03001712,2.36811387 2.03001712,2.36581115" id="Fill-175"></path>
                </g>
                <g id="Group-8" transform="translate(183.996843, 101.639098)">
                    <path d="M13.1954887,6.59749831 C13.1954887,10.2414511 10.2414511,13.1954887 6.59749831,13.1954887 C2.95403762,13.1954887 4.01456646e-13,10.2414511 4.01456646e-13,6.59749831 C4.01456646e-13,2.95403762 2.95403762,0 6.59749831,0 C10.2414511,0 13.1954887,2.95403762 13.1954887,6.59749831" id="Fill-177" fill="#2379E2"></path>
                    <g id="Group-4" transform="translate(1.770417, 2.030075)" fill="#FFFFFF">
                        <path d="M9.40033373,4.18913518 C9.59866424,3.92524372 9.66036707,3.57254747 9.5154144,3.27434507 C9.34450736,2.9201351 9.06586523,2.75968102 8.70446296,2.75362615 C8.23924323,2.74807585 7.7730441,2.74858042 7.30635525,2.74403927 C7.27060679,2.74403927 7.23387892,2.75614901 7.20302751,2.72587465 C7.19813046,2.72890209 7.1927437,2.73092038 7.18735695,2.73344324 C7.1927437,2.73092038 7.19764075,2.72890209 7.20302751,2.72537008 C7.2422039,2.64463846 7.28382883,2.56491599 7.3205567,2.48317523 C7.45081822,2.19607342 7.53015043,1.89282529 7.55512538,1.57746742 C7.57030624,1.3882527 7.5864665,1.19550596 7.55316656,1.00780496 C7.45620498,0.46034369 7.10508651,0.109161162 6.57130809,0.0112740779 C6.22312785,-0.0528066419 5.91755195,0.161636712 5.85780794,0.518369538 C5.82597712,0.705061399 5.80296098,0.893266978 5.74174786,1.07289482 C5.59483637,1.50834097 5.33382362,1.86154179 5.0071904,2.1688265 C4.78927169,2.37317841 4.54637802,2.54170565 4.30103583,2.70670089 C4.30054612,2.70670089 4.30054612,2.70670089 4.30054612,2.70670089 C4.07430242,2.83889891 3.84707931,2.96907864 3.61300034,3.08613949 C3.56256072,3.11136812 3.5302402,3.16333909 3.52975049,3.22086037 L3.50477082,7.55816642 C3.50428583,7.62123799 3.54199312,7.67875927 3.59879889,7.70146504 C3.81035144,7.78522409 4.02582163,7.85788254 4.24569916,7.91439467 C4.7515644,8.04659269 5.26869286,8.09704995 5.78826983,8.10512311 C6.54192579,8.11925115 7.29558175,8.11723286 8.04972741,8.12030075 C8.13003902,8.12076486 8.21328887,8.11672828 8.29213137,8.0980591 C8.85186415,7.96939308 9.13393422,7.35633738 8.8954479,6.86034252 C8.86998324,6.80584868 8.88026704,6.77910633 8.92580961,6.74378625 C9.26370604,6.48695879 9.36997202,6.06261324 9.19269882,5.66349631 C9.17017239,5.61051619 9.17604885,5.58226013 9.22306053,5.54694004 C9.61237598,5.25075593 9.6926876,4.71439526 9.40425137,4.31477376 C9.36556467,4.26027992 9.3685029,4.23151928 9.40033373,4.18913518" id="Fill-179"></path>
                        <path d="M3.04504525,3.46457688 C3.04504525,3.46124797 3.04504525,3.4574435 3.04504525,3.45459014 C3.04504525,3.43604334 3.04504525,3.4179721 3.04504525,3.39990086 C3.04555771,3.32000696 3.04453278,3.24058861 2.99021188,3.17258368 C2.98406235,3.16402361 2.97637543,3.15831691 2.96971343,3.15165908 C2.96253897,3.14405014 2.95587697,3.13691675 2.94819005,3.13025893 C2.93999067,3.1236011 2.93179129,3.11789439 2.92307945,3.11218769 C2.91590499,3.10695654 2.90770561,3.10220095 2.89950623,3.09792092 C2.88669469,3.09126309 2.87388316,3.08508083 2.8600467,3.07984968 C2.85799686,3.07937412 2.85645947,3.07889856 2.85492209,3.078423 C2.81853734,3.06605847 2.77907781,3.05844952 2.73603106,3.05844952 C2.33682368,3.05654729 1.9376163,3.05464505 1.53840892,3.05226726 C1.13920154,3.04988946 0.739994166,3.04751167 0.340786787,3.04511278 C0.297740035,3.04465831 0.258792974,3.05226726 0.221895758,3.06368067 C0.220358374,3.06463179 0.218308528,3.06463179 0.216771144,3.06558291 C0.202934688,3.0703385 0.189610693,3.07652076 0.176286699,3.08317859 C0.168599779,3.08745862 0.160912859,3.09173865 0.152713477,3.0969698 C0.144514096,3.10220095 0.135802253,3.10838322 0.128115333,3.11504104 C0.119915952,3.12122331 0.113253955,3.12835669 0.106591957,3.13596564 C0.0994174987,3.14262346 0.0917305787,3.14833017 0.0850685814,3.15641467 C0.0302352187,3.22394404 0.0281853734,3.30383795 0.027672912,3.38373186 C0.0271604507,3.40132754 0.0271604507,3.41939878 0.0271604507,3.43747002 C0.0271604507,3.44127449 0.0266479894,3.44460341 0.0266479894,3.44840788 C0.0266479894,3.45126123 0.0266479894,3.45459014 0.0271604507,3.45696794 C0.019985992,4.57358039 0.0128115333,5.68971729 0.00563707467,6.80537863 C0.00358722934,7.13494099 0.000512461333,7.4640278 -3.26849658e-13,7.79359016 C-3.26849658e-13,7.9971294 0.1153038,8.10555685 0.332074944,8.10745908 C0.533472248,8.10888576 0.734869553,8.10983688 0.936266857,8.11078799 C1.03517189,8.11316579 1.13407693,8.11078799 1.23298197,8.11173911 L1.50612386,8.11316579 C1.59734198,8.11364135 1.68856009,8.11411691 1.77977821,8.11506802 C1.87868325,8.11459247 1.97758829,8.11839694 2.07649332,8.1164947 C2.27737817,8.11792138 2.47928793,8.11934806 2.68017278,8.12030075 C2.89694392,8.12077473 3.0137851,8.01377396 3.01634741,7.81023473 C3.0204471,7.48067236 3.02095956,7.15158556 3.02352187,6.82249875 C3.03018387,5.70636185 3.03735833,4.5897494 3.04453278,3.47408806 C3.04504525,3.47075915 3.04504525,3.46790579 3.04504525,3.46457688" id="Fill-181"></path>
                    </g>
                </g>
                <g id="Group-3" transform="translate(196.297595, 65.007519)">
                    <path d="M18.2468314,8.48183205 C18.6081279,13.513997 14.821044,17.8859443 9.78901071,18.2467666 C4.75697742,18.6085562 0.38514458,14.8218569 0.0238480724,9.78969192 C-0.337448435,4.75704327 3.44915178,0.385096013 8.48118507,0.0237900498 C13.5132184,-0.337032237 17.8855349,3.4491834 18.2468314,8.48183205" id="Fill-183" fill="#FFC965"></path>
                    <path d="M13.9572787,3.37684838 C12.2461278,0.484521755 9.6071442,2.82485416 10.248887,5.03385708 C10.7544432,6.76986866 12.7756881,9.13533835 12.7756881,9.13533835 C13.0353245,9.01683401 15.5459595,7.84974584 16.6878698,6.48412444 C18.140364,4.74708684 16.6535782,1.47770096 13.9572787,3.37684838" id="Fill-185" fill="#F54F71"></path>
                    <path d="M3.12665575,4.66324824 C4.44475898,1.56517465 7.41781956,3.47407323 7.07848126,5.74181417 C6.81168087,7.52379266 5.1095242,10.1503759 5.1095242,10.1503759 C4.83229027,10.0723889 2.15087183,9.29761564 0.815876208,8.12475165 C-0.882305789,6.63229369 0.157569846,3.19627624 3.12665575,4.66324824" id="Fill-187" fill="#F54F71"></path>
                    <path d="M6.43925861,11.6085364 C6.21592901,11.556017 6.02820268,11.7897713 6.10958158,12.0200817 C6.59091928,13.3799895 8.11122511,14.3162983 9.83590295,14.2009278 C11.5605808,14.0859879 12.9222902,12.9572515 13.1895459,11.5469768 C13.2348592,11.3080566 13.0129167,11.1018534 12.8002219,11.1836459 C11.8666764,11.5431024 10.7990407,11.7811616 9.65511232,11.8577882 C8.51164629,11.9344149 7.41857969,11.8401383 6.43925861,11.6085364" id="Fill-189" fill="#3D4564"></path>
                    <path d="M9.87005472,12.1868396 C9.18986064,12.2587449 8.63450706,12.9347773 8.41966527,13.8394316 C8.89040934,14.1209069 9.417145,14.2554988 9.96752156,14.1971142 C10.5183129,14.1387295 11.0267994,13.8941287 11.464778,13.5155506 C11.164912,12.6655935 10.5510783,12.1143198 9.87005472,12.1868396" id="Fill-191" fill="#F54F71"></path>
                </g>
                <g id="Group-10" transform="translate(144.927260, 13.530000)">
                    <path d="M23.3173846,10.8652459 C23.7636575,17.2969003 18.9123639,22.8710969 12.4808413,23.3173789 C6.04979965,23.7636609 0.474755426,18.9132298 0.0284825854,12.4815754 C-0.417790255,6.04992104 4.4330224,0.475243497 10.864545,0.0284806058 C17.2960676,-0.417801378 22.8711118,4.43359157 23.3173846,10.8652459" id="Fill-193" fill="#FFC965"></path>
                    <path d="M12.000603,17.0555539 C11.8082646,17.0684745 11.6283177,16.9430371 11.579829,16.7497665 C11.5254139,16.5322698 11.6574109,16.3120813 11.8745325,16.2587838 C12.316857,16.1473437 13.0646604,15.7139653 13.1842658,15.3128885 C13.2101264,15.2256745 13.2160528,15.1142343 13.0619666,14.9473433 C12.7543328,14.6135612 12.021076,15.0114079 11.6310115,15.3403448 C11.4596848,15.483548 11.204311,15.4636288 11.0599225,15.2924309 C10.9155339,15.1206946 10.9370845,14.8655129 11.1084112,14.7206945 C11.905242,14.0493619 13.0032414,13.6892003 13.6578387,14.3976796 C14.0608335,14.8342881 14.0452094,15.2622828 13.9611624,15.5443825 C13.7111762,16.3826062 12.5803123,16.9166575 12.0717198,17.0442484 C12.0480142,17.0501703 12.0237699,17.0539388 12.000603,17.0555539" id="Fill-195" fill="#3D4564"></path>
                    <path d="M12.7947138,19.0823656 C12.2714951,19.1193297 11.6718145,18.9076263 11.156242,18.5766297 C10.9645408,18.452296 10.9066481,18.1918672 11.0273489,17.9952854 C11.1485958,17.7981436 11.4020128,17.7387771 11.5942601,17.8619907 C12.0322783,18.144822 12.8252986,18.4483755 13.0858156,18.0619328 C13.2174395,17.8675913 13.1955933,17.7533387 13.1573622,17.6676492 C12.9809534,17.2711254 12.1693637,16.9322879 11.7105916,16.8818823 C11.4850287,16.8572396 11.3211815,16.6494566 11.3452124,16.4181511 C11.3692433,16.1868455 11.5702292,16.0182668 11.7974306,16.0440297 C12.3261109,16.1017161 13.5358492,16.4887189 13.9050515,17.3170504 C14.0290292,17.5965213 14.1049451,18.0344898 13.760866,18.5424659 C13.5243799,18.8919446 13.180847,19.0549226 12.7947138,19.0823656" id="Fill-197" fill="#3D4564"></path>
                    <path d="M14.6575018,11.9797482 C14.5028057,11.9909401 14.3435147,11.9408429 14.2174093,11.825726 C13.9651985,11.5960249 13.93865,11.1968461 14.1581857,10.9335693 C14.850489,10.1032348 16.4086819,9.34804601 17.8606807,10.664963 C18.1139126,10.894664 18.1404611,11.2938428 17.9209254,11.5571197 C17.7013897,11.8209294 17.3184786,11.8486428 17.0662679,11.6194747 C16.0298552,10.6804185 15.1675394,11.6509187 15.0720669,11.7644368 C14.962299,11.8960752 14.8116873,11.9685563 14.6575018,11.9797482" id="Fill-199" fill="#3D4564"></path>
                    <path d="M8.93003501,11.3934751 C8.9806456,12.2324796 8.56903911,12.9495463 8.01074096,12.9941355 C7.4528382,13.0387247 6.95898949,12.3940016 6.90837889,11.5545421 C6.85776829,10.7150826 7.26937479,9.99801585 7.82727754,9.95342667 C8.38557569,9.9083825 8.87942441,10.5531056 8.93003501,11.3934751" id="Fill-201" fill="#3D4564"></path>
                    <path d="M20.5043911,14.7117724 C23.7698851,12.8265211 25.1776632,16.676108 23.3536807,18.5009409 C21.919296,19.9347732 18.6229192,21.1166165 18.6229192,21.1166165 C18.4238443,20.8498913 16.5195667,18.2396189 16.0986112,16.2227242 C15.5626767,13.658134 18.8029894,11.267431 20.5043911,14.7117724" id="Fill-203" fill="#F54F71"></path>
                    <path d="M5.1943184,7.92028638 C5.1868816,7.9207071 5.1794448,7.92112782 5.17200799,7.92112782 C5.00708594,7.92028638 4.87322348,7.79112573 4.87409413,7.63251478 C4.87584823,6.93075595 5.16500865,6.2374115 5.66808653,5.73002472 C6.17072695,5.22263794 6.87022393,4.90457459 7.6051551,4.87638644 C7.77051461,4.86839278 7.9105015,4.99040121 7.91881322,5.14901217 C7.92712494,5.30804384 7.80288658,5.45866115 7.63533977,5.45108821 C7.06139353,5.48516643 6.49969614,5.72539682 6.10117097,6.12760391 C5.70264579,6.52896957 5.47385472,7.0780075 5.47210489,7.63377693 C5.47166743,7.78607711 5.3491789,7.91018913 5.1943184,7.92028638" id="Fill-205" fill="#3D4564"></path>
                    <path d="M17.7347348,8.93555905 C17.654322,8.9395452 17.5718068,8.92399919 17.5013799,8.88533346 C16.4723058,8.32846719 15.4679337,8.32208934 14.5981085,8.86779436 C14.4446409,8.96386077 14.218644,8.94672029 14.0919807,8.83112171 C13.9653173,8.71512451 13.9868658,8.5433211 14.1398079,8.4472547 C15.2571785,7.74768397 16.6341826,7.7456909 17.9192113,8.44167408 C18.0805626,8.52936955 18.1178783,8.6995785 18.0027776,8.82195354 C17.9376064,8.89131269 17.8382729,8.92957981 17.7347348,8.93555905" id="Fill-207" fill="#3D4564"></path>
                </g>
                <path d="M37.295228,107.633671 C37.1647203,106.487885 36.2992488,105.542165 35.1266428,105.56429 C34.2557744,105.582178 33.5183573,106.116941 33.2063165,106.868245 C32.8623848,106.130122 32.152443,105.622662 31.281084,105.639609 C30.108478,105.662675 29.2832381,106.641818 29.2017935,107.79184 C29.2017935,107.79184 29.1502774,108.077109 29.2876538,108.586923 C29.4740932,109.282208 29.8911288,109.895114 30.4455409,110.358323 L33.1248719,112.597171 C33.2421325,112.695556 33.4177781,112.692731 33.5320949,112.591051 L36.1608911,110.246287 C36.6961686,109.761894 37.0862195,109.133924 37.2437118,108.431578 C37.3585192,107.917528 37.295228,107.633671 37.295228,107.633671" id="Fill-209" fill="#FFFFFF" opacity="0.6"></path>
                <g id="Group-215" opacity="0.6" transform="translate(117.290076, 42.571429)" fill="#FFFFFF">
                    <path d="M14.8270824,6.86448174 C15.1506256,6.45023765 15.2510191,5.89838346 15.0150229,5.42994361 C14.735729,4.87526182 14.2818168,4.62313373 13.6918262,4.61465091 C12.9338786,4.60522556 12.1726004,4.60569683 11.411798,4.59862782 C11.3537506,4.59815655 11.2933241,4.61794979 11.2433652,4.57035177 C11.2352767,4.57600698 11.2267123,4.57836332 11.2181479,4.58213346 C11.2267123,4.57836332 11.2352767,4.57553571 11.2428895,4.5698805 C11.3075981,4.44310956 11.3751615,4.31869495 11.4351122,4.19003894 C11.6473185,3.73950725 11.7767358,3.26399839 11.8176545,2.7701101 C11.842396,2.47368287 11.868565,2.17112916 11.8143239,1.87752954 C11.6563587,1.01888024 11.0839726,0.467968582 10.2127849,0.314335392 C9.64468104,0.213484157 9.14651962,0.549497852 9.04850505,1.10889232 C8.99759457,1.40154941 8.95953066,1.69656284 8.8600887,1.97932331 C8.61981027,2.66077605 8.19444608,3.21545784 7.66155134,3.69709318 C7.30708118,4.01802632 6.91074072,4.28193609 6.51011807,4.54066192 C6.51011807,4.54019066 6.50964227,4.54019066 6.50916647,4.53971939 C6.14042234,4.7480196 5.76929922,4.95160714 5.38770853,5.13540145 C5.30539532,5.17498792 5.25258165,5.25604592 5.25210585,5.34652927 L5.21166018,12.1464474 C5.21118715,12.2454135 5.2720894,12.3354256 5.36534598,12.3712419 C5.71030016,12.5027256 6.06143973,12.6158298 6.42019208,12.7048993 C7.24522733,12.9117857 8.08881873,12.9914299 8.93526492,13.0041541 C10.1647292,13.0263037 11.3946693,13.0234761 12.6241336,13.0282118 C12.7549783,13.02866 12.8910567,13.0220623 13.0195224,12.9928437 C13.9330563,12.7911412 14.3922022,11.8306982 14.0039503,11.0521643 C13.9616042,10.9673362 13.9792088,10.9249221 14.0529576,10.8702551 C14.6044085,10.4668502 14.7771235,9.80142052 14.4887894,9.1760486 C14.4512012,9.09310553 14.4616688,9.04880639 14.5377966,8.99413937 C15.1729881,8.52852712 15.3038328,7.68825725 14.8337435,7.0619428 C14.7704623,6.97570086 14.7752203,6.93093045 14.8270824,6.86448174" id="Fill-211"></path>
                    <path d="M4.76003466,5.23483888 C4.76003466,5.22871241 4.76003466,5.2230572 4.75955886,5.21740199 L4.76003466,5.1273899 C4.76098625,4.99449248 4.75955886,4.86159506 4.67486666,4.74849087 C4.66487488,4.73482411 4.65297991,4.72539876 4.64251234,4.71408835 C4.63156896,4.70136412 4.62110139,4.68958244 4.60920641,4.67827202 C4.59683564,4.66743287 4.58351328,4.65706498 4.57066671,4.64763963 C4.55877173,4.63962809 4.54640096,4.63208781 4.53355439,4.62454753 C4.51357084,4.61323711 4.49311149,4.60286923 4.47170054,4.59485768 C4.46932155,4.59391515 4.46646675,4.59297261 4.46361196,4.59203008 C4.40699189,4.57176557 4.34561384,4.55904135 4.2785262,4.55857009 C3.65665707,4.55574248 3.03431215,4.55197234 2.41196722,4.5482022 C1.7900981,4.54443206 1.16775317,4.54066192 0.545884046,4.53689178 C0.478320606,4.53689178 0.417418351,4.5482022 0.359846687,4.56799544 C0.357467693,4.56893797 0.354612899,4.5698805 0.352233905,4.57082304 C0.330347157,4.57836332 0.309412007,4.5887312 0.289428454,4.59957035 C0.277057683,4.60663937 0.264686913,4.61465091 0.252791941,4.62266246 C0.239469572,4.63208781 0.226147204,4.64151316 0.213776433,4.65282358 C0.201405663,4.66319146 0.190462289,4.67544441 0.179994713,4.68769737 C0.169051339,4.69947905 0.157156367,4.7089044 0.147164591,4.72162863 C0.0615207942,4.83426155 0.0581902021,4.96715897 0.0572386043,5.10005639 L0.0567628055,5.18959721 C0.0562870066,5.19572368 0.0562870066,5.20137889 0.0558112077,5.2070341 C0.0562870066,5.21221805 0.0562870066,5.21740199 0.0562870066,5.22258593 C0.0453436325,7.07890843 0.0344002585,8.9357022 0.0234568844,10.792496 C0.0201262923,11.3401088 0.0148925047,11.8877215 0.0144157667,12.4353343 C0.013940907,12.7746469 0.19426868,12.9551423 0.532085879,12.9579699 C0.845637336,12.9603263 1.15966459,12.9617401 1.47321605,12.9626826 C1.62737488,12.9673953 1.78200952,12.9626826 1.93569255,12.9655102 C2.07795641,12.9659815 2.21974448,12.966924 2.36200834,12.9678665 C2.50379641,12.9683378 2.64606027,12.9692803 2.78784833,12.9702229 C2.94200717,12.9697516 3.0966418,12.9763494 3.25032484,12.9730505 C3.56435209,12.9754068 3.87790355,12.9782344 4.1919308,12.9791853 C4.5292722,12.9805908 4.71197897,12.8024517 4.71578536,12.4631391 C4.72149495,11.9155263 4.72292234,11.3679135 4.72625294,10.8203008 C4.73719631,8.96303571 4.74813969,7.10671321 4.75955886,5.24991944 C4.76003466,5.2447355 4.76003466,5.24002282 4.76003466,5.23483888" id="Fill-213"></path>
                </g>
                <g id="Group-224" opacity="0.6" transform="translate(228.838948, 100.488722)" fill="#FFFFFF">
                    <path d="M20.4232392,9.30392237 C20.8660263,8.72123593 21.0031256,7.94448527 20.6804821,7.2847657 C20.2987356,6.50505223 19.6776711,6.14951473 18.8705778,6.13766348 C17.8338553,6.12433083 16.7932572,6.12531843 15.7526591,6.11544239 C15.6732093,6.11494859 15.5903684,6.1426015 15.522061,6.07544442 C15.5109187,6.08334526 15.4992919,6.08680187 15.4876651,6.09223369 C15.4988074,6.08680187 15.5104342,6.08285145 15.5215766,6.07445682 C15.609262,5.89668807 15.7017919,5.72089453 15.7846328,5.54065678 C16.0748182,4.90612111 16.2516423,4.23701931 16.3078385,3.54125218 C16.3412656,3.12448324 16.3766304,2.69882585 16.302994,2.28501971 C16.0874139,1.07668604 15.3040586,0.301910587 14.1127967,0.0846376753 C13.3362237,-0.0560959155 12.6541184,0.416472668 12.5208947,1.20359317 C12.4506495,1.6159179 12.3992978,2.03120545 12.2631675,2.42871611 C11.9342261,3.38817354 11.3524019,4.16838082 10.6237895,4.84686486 C10.1388553,5.29819996 9.59675598,5.66953912 9.0488433,6.03396505 C9.0488433,6.03347125 9.0478744,6.03347125 9.0478744,6.03297744 C8.54307775,6.32530827 8.03585885,6.61220727 7.51362201,6.87046576 C7.40171411,6.9267592 7.3295311,7.04082747 7.3285622,7.16822841 L7.27284838,16.7386064 C7.27236603,16.8778586 7.35569139,17.0047657 7.48310167,17.0546397 C7.95495574,17.2393217 8.43504545,17.3993136 8.92579306,17.5237517 C10.054561,17.8155887 11.2080359,17.9276818 12.3658708,17.9454586 C14.0469115,17.9760744 15.7289211,17.9726178 17.4099617,17.9791086 C17.5892081,17.9800248 17.7752368,17.9711364 17.9510921,17.929657 C19.200488,17.6457208 19.8283349,16.2936907 19.297378,15.1984377 C19.239244,15.0784438 19.263951,15.0186938 19.3642321,14.9421544 C20.1190048,14.3747759 20.3549318,13.4380333 19.9601053,12.5575842 C19.909238,12.4415407 19.9232871,12.3783341 20.0274438,12.301301 C20.8960622,11.6465194 21.0753086,10.4643572 20.4324438,9.58193294 C20.3457273,9.46045763 20.3520251,9.39725097 20.4232392,9.30392237" id="Fill-220"></path>
                    <path d="M6.6554677,7.01040927 C6.6554677,7.00201463 6.6554677,6.9941138 6.65498325,6.98571916 C6.6554677,6.94374599 6.6554677,6.90127901 6.6554677,6.85930583 C6.6564366,6.67215485 6.6544988,6.48599147 6.53919976,6.32599959 C6.52563517,6.30723511 6.50916388,6.29390246 6.49463038,6.27760699 C6.48009689,6.25983012 6.46507895,6.24254704 6.44909211,6.22723918 C6.43213636,6.21193131 6.41421172,6.19761105 6.39580263,6.1842784 C6.37981579,6.17292095 6.3633445,6.16205731 6.34590431,6.15218126 C6.31877512,6.1358858 6.29067703,6.12107173 6.2611256,6.10971429 C6.25773445,6.10872668 6.25385885,6.10724528 6.24998325,6.10625767 C6.17247129,6.07712335 6.08914593,6.05934647 5.99710048,6.05885267 C5.14592225,6.05440845 4.29522847,6.04996423 3.44453469,6.04453241 L0.8919689,6.02868946 C0.799923445,6.02774314 0.716113636,6.04453241 0.638117225,6.07267913 C0.634241627,6.07366673 0.630366029,6.07416054 0.62697488,6.07564194 C0.597423445,6.08699939 0.569325359,6.10131965 0.541711722,6.11662751 C0.524271531,6.12699736 0.507315789,6.1373672 0.491328947,6.14921845 C0.472919856,6.16205731 0.454995215,6.17588376 0.438039474,6.19119163 C0.421083732,6.20649949 0.406550239,6.22328876 0.391532297,6.24007803 C0.376998804,6.25736111 0.360527512,6.27019996 0.346478469,6.28847064 C0.229241627,6.4469811 0.224881579,6.63363828 0.223912679,6.82078927 C0.22342823,6.86276245 0.22342823,6.90473562 0.22294378,6.9472026 C0.22294378,6.95559724 0.22245933,6.96349807 0.22197488,6.9718927 C0.22245933,6.97929974 0.22245933,6.98571916 0.22294378,6.99312619 C0.207925837,9.60632676 0.192907895,12.2195273 0.177405502,14.8327279 C0.173045455,15.6030591 0.166263158,16.374378 0.165293546,17.145203 C0.164809809,17.6222158 0.411394737,17.8760301 0.873075359,17.8799805 C1.30229785,17.8839309 1.73152033,17.8849185 2.16074282,17.8868937 C2.37099402,17.8943008 2.58221411,17.8873875 2.79294976,17.8908441 C2.98721411,17.8918317 3.18147847,17.8933131 3.37574282,17.8943008 C3.57000718,17.8952884 3.76427153,17.8967698 3.95853589,17.8982512 C4.16927153,17.8967698 4.38049163,17.906152 4.59074282,17.9017078 C5.01996531,17.9046706 5.4491878,17.9081272 5.87841029,17.9101089 C6.34009091,17.9115838 6.58958254,17.6607324 6.59491148,17.1842134 C6.60314713,16.4128945 6.60460048,15.6420695 6.60896053,14.8712445 C6.62446292,12.2580439 6.63948086,9.64484332 6.65498325,7.03164276 C6.65498325,7.02472953 6.6554677,7.0178163 6.6554677,7.01040927" id="Fill-222"></path>
                </g>
                <path d="M122.338032,85.2642881 C119.943655,85.3131305 117.915759,86.8423863 117.057859,88.9890102 C116.112749,86.8795066 114.159325,85.428887 111.763477,85.4777294 C108.537657,85.5431782 106.269687,88.3413599 106.04578,91.6279656 C106.04578,91.6279656 105.903205,92.4436338 106.280955,93.9001145 C106.793931,95.8865353 107.94041,97.6370472 109.46562,98.9606765 L116.833463,105.358544 C117.156339,105.638899 117.639918,105.631573 117.953485,105.340472 L125.183162,98.6412472 C126.654477,97.2575417 127.728444,95.4616063 128.160578,93.4566254 C128.476105,91.9869573 128.302663,91.1766617 128.302663,91.1766617 C127.944511,87.9022666 125.563362,85.1998161 122.338032,85.2642881 Z" id="Fill-225" fill-opacity="0.6" fill="#FFFFFF"></path>
                <g id="Group-231" opacity="0.6" transform="translate(27.147219, 54.812030)" fill="#FFFFFF">
                    <path d="M15.475177,6.87136224 C15.8098319,6.45711815 15.9136733,5.90526396 15.6695721,5.43682411 C15.3806863,4.88214232 14.9111852,4.63001423 14.3009323,4.62153142 C13.5169542,4.61210607 12.7295311,4.61257734 11.9426001,4.60550832 C11.8825591,4.60503706 11.8200574,4.62483029 11.7683828,4.57723228 C11.7600164,4.58288749 11.7511579,4.58524382 11.7422994,4.58901396 C11.7511579,4.58524382 11.7600164,4.58241622 11.7678906,4.57676101 C11.8348216,4.44999006 11.9047054,4.32557546 11.966715,4.19691944 C12.1862092,3.74638776 12.3200711,3.27087889 12.3623951,2.7769906 C12.3879863,2.48056337 12.415054,2.17800967 12.3589501,1.88441004 C12.1955598,1.02576074 11.6035161,0.474849087 10.7024087,0.321215897 C10.1147943,0.220364662 9.59952427,0.556378357 9.49814354,1.11577282 C9.44548462,1.40842991 9.40611347,1.70344334 9.30325632,1.98620381 C9.05472591,2.66765655 8.61475325,3.22233835 8.06355707,3.70397368 C7.69691319,4.02490682 7.28696104,4.2888166 6.87257963,4.54754243 C6.87257963,4.54707116 6.87208749,4.54707116 6.87159535,4.54659989 C6.49018729,4.75490011 6.10631852,4.95848765 5.71162269,5.14228195 C5.62648257,5.18186842 5.57185509,5.26292642 5.57136295,5.35340977 L5.52952824,12.1533279 C5.52903896,12.252294 5.59203281,12.3423061 5.68849214,12.3781224 C6.04529323,12.5096061 6.40849214,12.6227103 6.77956528,12.7117798 C7.63293506,12.9186662 8.50549829,12.9983104 9.38101435,13.0110346 C10.6527027,13.0331842 11.9248831,13.0303566 13.1965714,13.0350923 C13.3319098,13.0355405 13.4726617,13.0289428 13.6055393,12.9997242 C14.550447,12.7980218 15.0253616,11.8375787 14.6237758,11.0590448 C14.5799754,10.9742167 14.5981846,10.9318026 14.6744662,10.8771356 C15.2448558,10.4737307 15.4235024,9.80830102 15.1252659,9.18292911 C15.0863869,9.09998604 15.0972139,9.0556869 15.1759563,9.00101987 C15.8329624,8.53540763 15.9683008,7.69513776 15.482067,7.06882331 C15.4166124,6.98258136 15.4215338,6.93781096 15.475177,6.87136224" id="Fill-227"></path>
                    <path d="M5.06239234,5.24171939 C5.06239234,5.23559291 5.06239234,5.2299377 5.06190021,5.22428249 L5.06239234,5.13427041 C5.06337662,5.00137299 5.06190021,4.86847556 4.97429938,4.75537137 C4.96396446,4.74170462 4.95166097,4.73227927 4.9408339,4.72096885 C4.9295147,4.70824463 4.91868763,4.69646294 4.90638414,4.68515252 C4.89358852,4.67431337 4.87980861,4.66394549 4.86652085,4.65452014 C4.85421736,4.64650859 4.84142174,4.63896831 4.82813397,4.63142803 C4.80795625,4.62011762 4.78630212,4.60974973 4.76415584,4.60173818 C4.76169515,4.60079565 4.75874231,4.60032438 4.75578947,4.59938185 C4.69722488,4.57864608 4.63373889,4.56592186 4.56434723,4.56545059 C3.92112098,4.56262299 3.2774026,4.55885285 2.63368421,4.55508271 C1.99045796,4.55131257 1.34673958,4.54754243 0.703513329,4.54377229 C0.633629528,4.54377229 0.57063568,4.55508271 0.511578947,4.57487594 C0.508626111,4.57581847 0.505673274,4.57676101 0.503212577,4.57770354 C0.480574163,4.58524382 0.458920027,4.59561171 0.438250171,4.60645086 C0.425454545,4.61351987 0.41265892,4.62153142 0.400355434,4.62954296 C0.38657553,4.63896831 0.372795625,4.64839366 0.36,4.65970408 C0.347204375,4.67007197 0.335885167,4.68232492 0.3250581,4.69457787 C0.313738893,4.70635956 0.301435407,4.71578491 0.291100478,4.72850913 C0.202515379,4.84114205 0.199070403,4.97403947 0.198086124,5.1069369 L0.197593985,5.19647771 C0.197101846,5.20260419 0.197101846,5.2082594 0.197101846,5.21391461 C0.197101846,5.21909855 0.197101846,5.22428249 0.197101846,5.22946643 C0.185782638,7.08578894 0.174463431,8.94305397 0.163144224,10.7993765 C0.159699248,11.3469893 0.154285714,11.894602 0.153792603,12.4422148 C0.153301435,12.7815274 0.339822283,12.9620228 0.689241285,12.9648504 C1.01356118,12.9672068 1.33837321,12.9686206 1.6626931,12.9695631 C1.82214627,12.974747 1.98209159,12.9695631 2.14105263,12.9723907 C2.28820232,12.972862 2.43485988,12.9738045 2.58200957,12.974747 C2.72866712,12.9756896 2.87581681,12.9761608 3.02247437,12.9771034 C3.18192755,12.9766321 3.34187286,12.9832299 3.5008339,12.979931 C3.82564593,12.9822873 4.14996582,12.9851149 4.47477785,12.9860658 C4.82370472,12.9874713 5.01268626,12.8093322 5.01662338,12.4700196 C5.02252905,11.9224068 5.02400547,11.374794 5.02745044,10.8271813 C5.03876965,8.96991622 5.050581,7.11359372 5.06190021,5.25679995 C5.06239234,5.251616 5.06239234,5.24690333 5.06239234,5.24171939" id="Fill-229"></path>
                </g>
                <path d="M104.251172,14.0773779 C104.072264,12.4402317 102.881683,11.0888348 101.269036,11.1208584 C100.071536,11.145492 99.0578869,11.9106103 98.6289021,12.983648 C98.1564259,11.9288391 97.1793489,11.2036272 95.9818489,11.2277681 C94.3687082,11.260777 93.2349628,12.6599631 93.1227744,14.3030213 C93.1227744,14.3030213 93.0516064,14.710953 93.2403993,15.4391209 C93.4969005,16.4318533 94.0701981,17.3073299 94.8327827,17.9689872 L98.5167137,21.1679009 C98.6783243,21.3083122 98.9199989,21.3043708 99.0766673,21.1590329 L102.691407,17.8093618 C103.427304,17.1176515 103.964029,16.2200047 104.180004,15.2169263 C104.338155,14.4823536 104.251172,14.0773779 104.251172,14.0773779" id="Fill-232" fill-opacity="0.6" fill="#FFFFFF"></path>
                <path d="M64.2549014,87.2932331 L72.6711147,87.2932331 C73.7106515,87.2932331 74.5532336,88.1767545 74.5532336,89.2668003 L74.5532336,93.9040283 C74.5532336,94.9940741 73.7106515,95.8775955 72.6711147,95.8775955 L71.2967547,95.8775955 L71.2246981,98.4586466 L68.7920666,95.8775955 L64.2549014,95.8775955 C63.2153646,95.8775955 62.3727825,94.9940741 62.3727825,93.9040283 L62.3727825,89.2668003 C62.3727825,88.1767545 63.2153646,87.2932331 64.2549014,87.2932331" id="Fill-244" fill="#FFFFFF"></path>
                <path d="M70.4780456,91.3530822 C70.4780456,91.9140795 70.9325221,92.3684211 71.4930832,92.3684211 C72.0536444,92.3684211 72.5081208,91.9140795 72.5081208,91.3530822 C72.5081208,90.7926874 72.0536444,90.3383459 71.4930832,90.3383459 C70.9325221,90.3383459 70.4780456,90.7926874 70.4780456,91.3530822" id="Fill-246" fill="#FF654C"></path>
                <path d="M67.4479705,91.3530822 C67.4479705,91.9140795 67.9024469,92.3684211 68.4630081,92.3684211 C69.0235692,92.3684211 69.4780456,91.9140795 69.4780456,91.3530822 C69.4780456,90.7926874 69.0235692,90.3383459 68.4630081,90.3383459 C67.9024469,90.3383459 67.4479705,90.7926874 67.4479705,91.3530822" id="Fill-248" fill="#FF654C"></path>
                <path d="M64.4028577,91.3530822 C64.4028577,91.9140795 64.8573341,92.3684211 65.4178953,92.3684211 C65.9784564,92.3684211 66.4329329,91.9140795 66.4329329,91.3530822 C66.4329329,90.7926874 65.9784564,90.3383459 65.4178953,90.3383459 C64.8573341,90.3383459 64.4028577,90.7926874 64.4028577,91.3530822" id="Fill-250" fill="#FF654C"></path>
                <path d="M7.10526316,86.5523741 C7.10526316,88.5149861 5.5145864,90.1052632 3.55263158,90.1052632 C1.59067676,90.1052632 0,88.5149861 0,86.5523741 C0,84.5902771 1.59067676,83 3.55263158,83 C5.5145864,83 7.10526316,84.5902771 7.10526316,86.5523741" id="Fill-258" fill="#F54F71"></path>
                <path d="M4.57655102,85 C4.1669947,85 3.81030092,85.2250758 3.62707836,85.5571132 C3.4438558,85.2250758 3.08767524,85 2.6776057,85 C2.080721,85 1.59725979,85.4775256 1.59725979,86.0670821 C1.59725979,86.9557258 3.30579734,87.9244641 3.62707836,88.0451128 C3.96426946,87.910777 5.65741016,87.1534275 5.65741016,86.0670821 C5.65741016,85.4775256 5.17343572,85 4.57655102,85" id="Fill-260" fill="#FFFFFF"></path>
            </g>
        </g>
    </g>
</svg>