<?xml version="1.0" encoding="UTF-8"?>
<svg width="470px" height="411px" viewBox="0 0 470 411" version="1.1" xmlns="http://www.w3.org/2000/svg" xmlns:xlink="http://www.w3.org/1999/xlink">
    <!-- Generator: sketchtool 55.2 (78181) - https://sketchapp.com -->
    <title>582EE7C2-8C5B-4CAF-87B1-EC77C5B81EB3</title>
    <desc>Created with sketchtool.</desc>
    <defs>
        <path d="M0.146355921,0.493697497 L0.146355921,62.9365585 L15.3082672,62.9365585 C13.3859384,62.6837854 11.7501294,61.303125 11.2148045,59.3999917 L11.2148045,59.3999917 L1.89868671,26.3008179 C1.54349213,25.0397735 1.70166912,23.713843 2.34338357,22.5656436 L2.34338357,22.5656436 C2.98453512,21.4180085 4.0304171,20.5897252 5.28795227,20.2342629 L5.28795227,20.2342629 L23.8115467,14.9965555 C24.2438596,14.8735543 24.6902451,14.8120537 25.1377565,14.8120537 L25.1377565,14.8120537 C27.3269035,14.8120537 29.2706228,16.2846829 29.8639272,18.3931944 L29.8639272,18.3931944 L39.1794821,51.4923681 C39.5346766,52.7539769 39.3764997,54.0799073 38.7353481,55.2281067 L38.7353481,55.2281067 C38.0941966,56.3757418 37.0477517,57.2034609 35.7907794,57.5594874 L35.7907794,57.5594874 L17.2666221,62.7971948 C17.0476511,62.8592596 16.8253027,62.9055261 16.6001397,62.9365585 L16.6001397,62.9365585 L60.0858636,62.9365585 L60.0858636,0.493697497" id="path-1"></path>
        <path d="M0.146355921,0.493697497 L0.146355921,62.9365585 L15.3082672,62.9365585 C13.3859384,62.6837854 11.7501294,61.303125 11.2148045,59.3999917 L11.2148045,59.3999917 L1.89868671,26.3008179 C1.54349213,25.0397735 1.70166912,23.713843 2.34338357,22.5656436 L2.34338357,22.5656436 C2.98453512,21.4180085 4.0304171,20.5897252 5.28795227,20.2342629 L5.28795227,20.2342629 L23.8115467,14.9965555 C24.2438596,14.8735543 24.6902451,14.8120537 25.1377565,14.8120537 L25.1377565,14.8120537 C27.3269035,14.8120537 29.2706228,16.2846829 29.8639272,18.3931944 L29.8639272,18.3931944 L39.1794821,51.4923681 C39.5346766,52.7539769 39.3764997,54.0799073 38.7353481,55.2281067 L38.7353481,55.2281067 C38.0941966,56.3757418 37.0477517,57.2034609 35.7907794,57.5594874 L35.7907794,57.5594874 L17.2666221,62.7971948 C17.0476511,62.8592596 16.8253027,62.9055261 16.6001397,62.9365585 L16.6001397,62.9365585 L60.0858636,62.9365585 L60.0858636,0.493697497" id="path-3"></path>
        <path d="M0.146355921,0.493697497 L0.146355921,62.9365585 L15.3082672,62.9365585 C13.3859384,62.6837854 11.7501294,61.303125 11.2148045,59.3999917 L11.2148045,59.3999917 L1.89868671,26.3008179 C1.54349213,25.0397735 1.70166912,23.713843 2.34338357,22.5656436 L2.34338357,22.5656436 C2.98453512,21.4180085 4.0304171,20.5897252 5.28795227,20.2342629 L5.28795227,20.2342629 L23.8115467,14.9965555 C24.2438596,14.8735543 24.6902451,14.8120537 25.1377565,14.8120537 L25.1377565,14.8120537 C27.3269035,14.8120537 29.2706228,16.2846829 29.8639272,18.3931944 L29.8639272,18.3931944 L39.1794821,51.4923681 C39.5346766,52.7539769 39.3764997,54.0799073 38.7353481,55.2281067 L38.7353481,55.2281067 C38.0941966,56.3757418 37.0477517,57.2034609 35.7907794,57.5594874 L35.7907794,57.5594874 L17.2666221,62.7971948 C17.0476511,62.8592596 16.8253027,62.9055261 16.6001397,62.9365585 L16.6001397,62.9365585 L60.0858636,62.9365585 L60.0858636,0.493697497 L0.146355921,0.493697497 Z" id="path-5"></path>
        <path d="M0.146355921,0.493697497 L0.146355921,62.9365585 L15.3082672,62.9365585 C13.3859384,62.6837854 11.7501294,61.303125 11.2148045,59.3999917 L11.2148045,59.3999917 L1.89868671,26.3008179 C1.54349213,25.0397735 1.70166912,23.713843 2.34338357,22.5656436 L2.34338357,22.5656436 C2.98453512,21.4180085 4.0304171,20.5897252 5.28795227,20.2342629 L5.28795227,20.2342629 L23.8115467,14.9965555 C24.2438596,14.8735543 24.6902451,14.8120537 25.1377565,14.8120537 L25.1377565,14.8120537 C27.3269035,14.8120537 29.2706228,16.2846829 29.8639272,18.3931944 L29.8639272,18.3931944 L39.1794821,51.4923681 C39.5346766,52.7539769 39.3764997,54.0799073 38.7353481,55.2281067 L38.7353481,55.2281067 C38.0941966,56.3757418 37.0477517,57.2034609 35.7907794,57.5594874 L35.7907794,57.5594874 L17.2666221,62.7971948 C17.0476511,62.8592596 16.8253027,62.9055261 16.6001397,62.9365585 L16.6001397,62.9365585 L60.0858636,62.9365585 L60.0858636,0.493697497" id="path-7"></path>
        <path d="M0.415425675,59.1707851 L59.9305001,59.1707851 L59.9305001,0.266596659 L0.415425675,0.266596659 M7.70957974,32.6660655 C7.70957974,22.8549666 15.5964752,14.8730171 25.2919921,14.8730171 L25.2919921,14.8730171 C34.986946,14.8730171 42.8749673,22.8549666 42.8749673,32.6660655 L42.8749673,32.6660655 C42.8749673,42.4771644 34.986946,50.459114 25.2919921,50.459114 L25.2919921,50.459114 C15.5964752,50.459114 7.70957974,42.4771644 7.70957974,32.6660655" id="path-9"></path>
        <path d="M0.415425675,59.1707851 L59.9305001,59.1707851 L59.9305001,0.266596659 L0.415425675,0.266596659 L0.415425675,59.1707851 Z M7.70957974,32.6660655 C7.70957974,22.8549666 15.5964752,14.8730171 25.2919921,14.8730171 L25.2919921,14.8730171 C34.986946,14.8730171 42.8749673,22.8549666 42.8749673,32.6660655 L42.8749673,32.6660655 C42.8749673,42.4771644 34.986946,50.459114 25.2919921,50.459114 L25.2919921,50.459114 C15.5964752,50.459114 7.70957974,42.4771644 7.70957974,32.6660655 L7.70957974,32.6660655 Z" id="path-11"></path>
        <path d="M0.415425675,59.1707851 L59.9305001,59.1707851 L59.9305001,0.266596659 L0.415425675,0.266596659 M7.70957974,32.6660655 C7.70957974,22.8549666 15.5964752,14.8730171 25.2919921,14.8730171 L25.2919921,14.8730171 C34.986946,14.8730171 42.8749673,22.8549666 42.8749673,32.6660655 L42.8749673,32.6660655 C42.8749673,42.4771644 34.986946,50.459114 25.2919921,50.459114 L25.2919921,50.459114 C15.5964752,50.459114 7.70957974,42.4771644 7.70957974,32.6660655" id="path-13"></path>
        <path d="M0.415425675,59.1707851 L59.9305001,59.1707851 L59.9305001,0.266596659 L0.415425675,0.266596659 M7.70957974,32.6660655 C7.70957974,22.8549666 15.5964752,14.8730171 25.2919921,14.8730171 L25.2919921,14.8730171 C34.986946,14.8730171 42.8749673,22.8549666 42.8749673,32.6660655 L42.8749673,32.6660655 C42.8749673,42.4771644 34.986946,50.459114 25.2919921,50.459114 L25.2919921,50.459114 C15.5964752,50.459114 7.70957974,42.4771644 7.70957974,32.6660655" id="path-15"></path>
        <path d="M0.265885724,3.04427986 C0.220860514,4.45258726 0.648363034,5.62561253 1.22089412,5.66369776 L1.22089412,5.66369776 C1.79247732,5.70262934 2.29296807,4.59054044 2.33799328,3.18138671 L2.33799328,3.18138671 C2.38301849,1.77307931 1.95551597,0.600054033 1.38345883,0.561968797 L1.38345883,0.561968797 C1.37397984,0.561122458 1.36450085,0.561122458 1.35502186,0.561122458 L1.35502186,0.561122458 C0.794339504,0.561122458 0.309963035,1.6588236 0.265885724,3.04427986 L0.265885724,3.04427986 Z" id="path-17"></path>
        <path d="M0.102373109,3.04427985 C0.0568739477,4.45258725 0.484376489,5.62561252 1.05690761,5.66369776 L1.05690761,5.66369776 C1.62896478,5.70262934 2.12898161,4.59054044 2.17448077,3.18223304 L2.17448077,3.18223304 C2.21903203,1.77307931 1.79152949,0.600054033 1.21947232,0.561968797 L1.21947232,0.561968797 C1.21046728,0.561122458 1.20051434,0.561122458 1.19103535,0.561122458 L1.19103535,0.561122458 C0.630826916,0.561122458 0.145976473,1.6588236 0.102373109,3.04427985 L0.102373109,3.04427985 Z" id="path-19"></path>
    </defs>
    <g id="desktop" stroke="none" stroke-width="1" fill="none" fill-rule="evenodd">
        <g id="onboarding" transform="translate(-55.000000, -163.000000)">
            <g id="illustration" transform="translate(55.000000, 163.000000)">
                <g id="Group-167">
                    <g id="Group-47">
                        <path d="M430.455247,207.685501 C413.471696,279.084378 358.540234,334.675802 388.882397,409.395374 L105.512436,408.464997 C105.512436,408.464997 48.3767106,411.438061 24.7865431,360.350176 C8.88688145,325.915592 -3.90480783,227.501076 1.10095306,164.192337 C11.1938648,36.5314034 80.4235716,-32.3220913 280.848782,15.6992439 C411.362294,46.6832606 447.438798,136.287185 430.455247,207.685501" id="Fill-1" fill="#E8EFFF"></path>
                        <path d="M313.052114,409.654003 L40.4952458,409.654003 C37.5663315,409.654003 35.1919911,407.286076 35.1919911,404.364513 L35.1919911,41.1788104 C35.1919911,38.2572475 37.5663315,35.8893205 40.4952458,35.8893205 L313.052114,35.8893205 C315.981028,35.8893205 318.355368,38.2572475 318.355368,41.1788104 L318.355368,404.364513 C318.355368,407.286076 315.981028,409.654003 313.052114,409.654003" id="Fill-3" fill="#A3A9CE"></path>
                        <path d="M35.1917652,126.94456 L35.1917652,396.766746 C35.1917652,409.39513 35.1917652,409.39513 48.1136778,409.653754 L305.433241,409.653754 C318.355715,409.653754 318.355715,409.130907 318.355715,396.766746 L318.355715,343.514142 L35.1917652,126.94456 Z" id="Fill-5" fill="#848FBB"></path>
                        <path d="M299.735839,392.408599 L53.8114229,392.408599 C52.6141491,392.408599 51.6442058,391.440716 51.6442058,390.247236 L51.6442058,55.2964135 C51.6442058,54.1023738 52.6141491,53.1344906 53.8114229,53.1344906 L299.735839,53.1344906 C300.933112,53.1344906 301.903056,54.1023738 301.903056,55.2964135 L301.903056,390.247236 C301.903056,391.440716 300.933112,392.408599 299.735839,392.408599" id="Fill-7" fill="#FAFAFF"></path>
                        <path d="M124.432333,100.223154 C124.578835,116.80872 113.130361,119.879748 99.5180374,123.769194 C85.9062752,127.65864 69.2482848,123.731687 65.9483446,108.702908 C62.6472818,93.674129 73.1241289,84.1447622 86.110592,80.3969439 C99.0959325,76.6485659 124.28527,83.6375892 124.432333,100.223154" id="Fill-9" fill="#FFDFAB"></path>
                        <path d="M107.053618,87.4596918 L110.570224,88.3939873 C110.906448,88.1448792 111.276913,87.917603 111.532309,87.5660526 C111.78153,87.1859528 111.86292,86.7213241 111.951046,86.2858047 C112.158169,85.1387876 112.382132,83.9285138 112.026822,82.8094864 C111.913999,82.4153917 111.715296,82.0397702 111.522766,81.6921384 C111.236498,81.1855252 110.927778,80.7130594 110.612883,80.2120442 C110.39734,79.8996793 110.170571,79.529096 109.897213,79.2284868 C109.706368,79.0297601 109.357794,79.2223291 109.417855,79.5078238 C109.649676,80.3245627 109.623294,81.1950417 109.343762,81.9989053 C108.997995,83.0557956 108.289061,83.949786 107.411172,84.6109022 C107.103574,84.8544124 106.795977,85.0973629 106.540581,85.449473 C105.776077,86.5041242 106.748827,87.4339413 107.053618,87.4596918" id="Fill-11" fill="#F54F71"></path>
                        <path d="M107.74156,98.8291537 L110.245002,89.8343903 L106.73457,88.9280845 C106.705943,88.9342422 106.70033,88.9056927 106.671142,88.9118505 L104.871022,98.8336321 C105.751155,99.0368372 106.623992,99.0631475 107.541172,98.8711383 C107.627053,98.8532249 107.683745,98.8409094 107.74156,98.8291537" id="Fill-13" fill="#2379E2"></path>
                        <path d="M89.3564803,98.1706676 C87.9245791,99.14079 87.2470782,100.644955 86.5914684,99.6748331 C85.9358586,98.7159066 85.9577497,96.2416188 87.3890896,95.2714964 C88.8209908,94.3013741 90.5144624,94.290738 91.1706335,95.2608604 C91.8262433,96.2309827 90.7883816,97.2011051 89.3564803,98.1706676 M88.4494028,114.802135 C84.9524428,116.110372 81.214681,114.759031 79.8927964,111.270957 C79.7176678,110.813046 79.6194386,110.355694 79.5537653,109.897783 C79.5431004,109.767351 79.5868826,109.646996 79.6851118,109.560228 C79.783341,109.483536 79.9146875,109.461704 80.0348078,109.494732 C81.6193853,110.050607 84.2311597,110.758746 86.5808025,109.875951 C88.9304452,108.993157 90.4274584,106.748384 91.2469707,105.287883 C91.312644,105.178723 91.4220994,105.102591 91.5528845,105.102591 C91.684231,105.102591 91.8043513,105.156891 91.8700246,105.266051 C92.1321562,105.64727 92.3510671,106.061518 92.5256344,106.519429 C93.8587451,110.006943 91.9463627,113.494457 88.4494028,114.802135 M73.5432601,101.985101 C73.4124749,100.829687 74.7124684,99.7403291 76.4283925,99.5550374 C78.1549814,99.3697458 79.7614501,101.233299 79.8927965,102.388713 C80.0235817,103.544127 78.5265685,102.835428 76.8106444,103.031915 C75.0840555,103.217207 73.6633804,103.140515 73.5432601,101.985101 M91.5641113,84.7540944 C91.3457618,84.4383708 90.9960658,84.2312472 90.6132525,84.1763874 C90.3836768,84.1439194 90.1541011,84.1763874 89.9469777,84.2530791 C89.8044051,84.3073791 89.6623937,84.3840708 89.5422734,84.4820347 C86.9304989,86.6613112 84.4388447,88.3726003 79.2259606,90.3346769 C74.0130764,92.2961937 70.9971589,92.656141 67.5872019,92.7322729 C67.4339643,92.7322729 67.281288,92.7647409 67.1280504,92.8196007 C66.9203658,92.8957327 66.7239074,93.0267244 66.5706698,93.2008202 C66.3197643,93.4952716 66.1884178,93.8764911 66.2322,94.2582703 C66.5167841,96.8081302 66.9972653,99.4895416 67.9913449,102.105457 C72.5811751,114.257457 81.466148,122.158944 90.0120897,118.954685 C98.5585927,115.750426 100.011262,103.957814 95.4219935,91.8058145 C94.4385788,89.1904588 93.0285685,86.8577988 91.5641113,84.7540944" id="Fill-15" fill="#D67DEC"></path>
                        <path d="M113.069628,109.625106 C111.486735,110.04887 109.837045,109.10002 109.412134,107.520842 C108.988345,105.941664 109.939765,104.296991 111.522659,103.873787 C113.105552,103.450023 114.755242,104.398873 115.180153,105.978051 C115.605065,107.556669 114.652522,109.201902 113.069628,109.625106 M104.6062,115.002485 C103.023306,115.426249 101.373616,114.476839 100.948705,112.898221 C100.523793,111.319043 101.475775,109.674369 103.05923,109.251165 C104.642123,108.827402 106.291813,109.776252 106.716725,111.355429 C107.140513,112.934047 106.189093,114.579281 104.6062,115.002485 M119.657721,94.6853353 C118.231995,89.3840897 111.146581,105.968535 101.232727,97.1663406 C95.3502006,91.9697764 101.593088,80.4772134 97.0689312,81.6869274 C95.4725661,82.1140499 93.9822886,82.7387796 92.6160606,83.5252896 C92.7103606,83.6277319 92.8012928,83.7340927 92.8809988,83.8494101 C94.7451086,86.526903 96.0299468,88.878596 96.9201841,91.246523 C99.3068734,97.5660332 100.12414,103.876587 99.2187477,109.011574 C98.6669802,112.143059 97.47981,114.783606 95.7543436,116.809499 C99.1373578,117.994022 102.900379,118.208983 106.625231,117.21311 C116.463307,114.58096 122.297,104.496838 119.657721,94.6853353" id="Fill-17" fill="#838BB7"></path>
                        <path d="M115.561003,106.789251 C115.561003,108.515654 114.157167,109.915698 112.425526,109.915698 C110.693885,109.915698 109.29005,108.515654 109.29005,106.789251 C109.29005,105.062288 110.693885,103.662244 112.425526,103.662244 C114.157167,103.662244 115.561003,105.062288 115.561003,106.789251" id="Fill-19" fill="#27C195"></path>
                        <path d="M107.0246,111.909123 C107.0246,113.636086 105.620764,115.03557 103.889123,115.03557 C102.157483,115.03557 100.753647,113.636086 100.753647,111.909123 C100.753647,110.18216 102.157483,108.782676 103.889123,108.782676 C105.620764,108.782676 107.0246,110.18216 107.0246,111.909123" id="Fill-21" fill="#FFC965"></path>
                        <path d="M199.599068,90.2737137 C206.972434,104.872571 204.75077,118.817589 191.678987,127.314696 C178.607204,135.811803 165.091987,138.424919 154.394545,125.294401 C143.696542,112.163322 146.509826,89.9764633 161.540019,82.9180259 C176.571334,75.8595885 192.225703,75.6748566 199.599068,90.2737137" id="Fill-23" fill="#FFDFAB"></path>
                        <path d="M165.845377,94.4349394 L165.594472,99.8503827 L163.723065,97.3105991 C163.586105,97.1247477 163.347549,97.0435776 163.124709,97.1068343 L162.059904,97.4074434 L162.361327,98.4693719 L163.058474,98.2723246 L165.630395,101.761518 C165.767355,101.94737 166.006473,102.02854 166.229313,101.965283 C166.452714,101.897548 166.609881,101.697142 166.621669,101.464268 L166.932634,94.8850135 L174.535014,92.738205 L174.233591,91.6768363 L166.248398,93.9311252 C166.019383,93.9949416 165.857165,94.1981467 165.845377,94.4349394" id="Fill-25" fill="#2379E2"></path>
                        <polygon id="Fill-27" fill="#2379E2" points="172.372798 94.6621106 171.118832 96.9085625 168.870225 95.651266 168.328 96.6185894 170.580536 97.8691683 169.319834 100.111702 170.289777 100.652462 171.543743 98.4060104 173.79235 99.6633069 174.334576 98.6959835 172.081478 97.4454045 173.343303 95.2028713"></polygon>
                        <path d="M177.201459,100.009926 L173.832477,100.930227 L171.662454,101.533125 L161.412937,104.390871 C161.412937,104.390871 161.336598,104.400947 161.184484,104.42166 C161.031807,104.442372 160.945366,104.376316 160.782586,104.320897 C160.685479,104.179269 160.512596,104.047718 160.491266,103.895454 L158.082686,95.316057 C157.954707,94.9460335 158.142184,94.6107171 158.51321,94.4830841 L174.291067,90.0265673 C174.520082,89.9957786 174.682862,90.0511982 174.845642,90.1066178 C174.942748,90.2482456 175.115632,90.379797 175.1364,90.5315011 L176.325254,94.7075614 L176.740623,96.0454681 L177.631983,99.1775133 C177.759962,99.5475369 177.572485,99.8822934 177.201459,100.009926 M174.690159,86.0201244 L156.219698,91.2166884 C154.635682,91.6617243 153.70503,93.3192731 154.152394,94.8990107 L163.440388,127.738183 C163.887752,129.31792 165.549229,130.246058 167.133245,129.800462 L185.604267,124.603898 C187.188283,124.158303 188.118935,122.500754 187.671571,120.921016 L178.383016,88.0818442 C177.936214,86.5021067 176.274737,85.5739689 174.690159,86.0201244" id="Fill-29" fill="#FF654C"></path>
                        <path d="M165.849197,107.971701 C166.141078,109.008439 165.534864,110.084362 164.495879,110.374895 C163.456333,110.665988 162.376935,110.061971 162.085615,109.025233 C161.793734,107.989055 162.399387,106.912572 163.438933,106.622039 C164.478479,106.330946 165.557316,106.934964 165.849197,107.971701" id="Fill-31" fill="#FFC965"></path>
                        <path d="M172.375549,106.144423 C172.667991,107.181161 172.061215,108.257084 171.022231,108.547617 C169.982685,108.83871 168.903848,108.234692 168.611967,107.197955 C168.320086,106.161777 168.9263,105.085294 169.965846,104.794201 C171.005392,104.503668 172.083668,105.107685 172.375549,106.144423" id="Fill-33" fill="#FFC965"></path>
                        <path d="M178.902394,104.317201 C179.194275,105.353379 178.58806,106.429303 177.549076,106.720395 C176.50953,107.011488 175.430131,106.407471 175.138812,105.370733 C174.846931,104.334555 175.452584,103.258072 176.49213,102.966979 C177.531675,102.676446 178.610513,103.280464 178.902394,104.317201" id="Fill-35" fill="#FFC965"></path>
                        <path d="M167.795707,114.886551 C168.087588,115.923289 167.481374,116.999212 166.442389,117.289745 C165.402844,117.580838 164.323445,116.97682 164.032125,115.940083 C163.740244,114.903905 164.345897,113.827422 165.385443,113.536329 C166.424989,113.245796 167.503826,113.849813 167.795707,114.886551" id="Fill-37" fill="#FFC965"></path>
                        <path d="M174.321999,113.059329 C174.614441,114.095507 174.007665,115.171431 172.968681,115.462523 C171.929135,115.753616 170.850298,115.149039 170.558417,114.112861 C170.266536,113.076683 170.87275,112.0002 171.912296,111.709107 C172.951842,111.418574 174.030118,112.022592 174.321999,113.059329" id="Fill-39" fill="#FFC965"></path>
                        <path d="M169.742157,121.80118 C170.034038,122.837918 169.427824,123.913841 168.388839,124.204934 C167.349294,124.495466 166.269895,123.891449 165.978575,122.854711 C165.686694,121.818533 166.292347,120.74261 167.331893,120.451517 C168.371439,120.160425 169.450276,120.765002 169.742157,121.80118" id="Fill-41" fill="#FFC965"></path>
                        <path d="M176.268504,119.973901 C176.560947,121.010638 175.954171,122.086562 174.915187,122.377654 C173.875641,122.668187 172.796803,122.06417 172.505484,121.027432 C172.213041,119.991254 172.819256,118.914771 173.858802,118.624238 C174.898347,118.333145 175.976623,118.937163 176.268504,119.973901" id="Fill-43" fill="#FFC965"></path>
                        <path d="M181.808692,120.447318 L181.087409,120.649403 C180.247128,120.884517 179.366994,120.391898 179.131244,119.553887 L176.985357,111.932297 C176.749607,111.094286 177.24412,110.21653 178.08384,109.981417 L178.805684,109.779331 C179.645404,109.544218 180.526099,110.036836 180.761849,110.874847 L182.907175,118.496997 C183.143486,119.334448 182.648973,120.212205 181.808692,120.447318" id="Fill-45" fill="#FFC965"></path>
                    </g>
                    <g id="Group-60" transform="translate(150.084034, 69.117650)">
                        <g id="Group-50">
                            <mask id="mask-2" fill="white">
                                <use xlink:href="#path-1"></use>
                            </mask>
                            <g id="Clip-49"></g>
                            <path d="M46.9947759,40.0637488 L38.702024,29.6927161 L38.702024,19.1151767 L32.4064676,19.1151767 L32.4064676,29.6927161 L24.1176561,40.0637488 C22.3974111,43.0445533 23.8035537,45.4780588 27.2322227,45.4780588 L43.8802092,45.4780588 C47.3094411,45.4780588 48.7116435,43.0445533 46.9947759,40.0637488" id="Fill-48" fill="#2379E2" mask="url(#mask-2)"></path>
                        </g>
                        <g id="Group-53">
                            <mask id="mask-4" fill="white">
                                <use xlink:href="#path-3"></use>
                            </mask>
                            <g id="Clip-52"></g>
                            <path d="M30.1872612,10.6309148 L27.4543457,10.6309148 C27.4543457,12.9007948 29.2894239,14.7401705 31.5540005,14.7401705 L34.286916,14.7401705 C34.286916,12.4708548 32.4518378,10.6309148 30.1872612,10.6309148" id="Fill-51" fill="#27C195" mask="url(#mask-4)"></path>
                        </g>
                        <g id="Group-56">
                            <mask id="mask-6" fill="white">
                                <use xlink:href="#path-5"></use>
                            </mask>
                            <g id="Clip-55"></g>
                            <path d="M41.1199911,5.29525849 C38.1016815,5.29525849 35.6535971,7.74851193 35.6535971,10.7744545 L35.6535971,17.6489807 L37.0203363,17.6489807 L37.0203363,10.7744545 L39.7532519,10.7744545 C42.7726873,10.7744545 45.2196458,8.32120104 45.2196458,5.29525849 L41.1199911,5.29525849 Z" id="Fill-54" fill="#27C195" mask="url(#mask-6)"></path>
                        </g>
                        <g id="Group-59">
                            <mask id="mask-8" fill="white">
                                <use xlink:href="#path-7"></use>
                            </mask>
                            <g id="Clip-58"></g>
                            <path d="M43.0055061,42.9022567 L28.1402481,42.9022567 C26.8956599,42.9022567 26.3817255,42.0937212 27.0082414,41.1029409 L30.3626064,35.7631086 C31.10677,35.136818 32.504469,34.4823162 34.0513385,36.3267701 C35.2052986,37.6989671 36.2061479,38.0059058 36.9187887,37.968667 C37.4327231,37.9477906 37.9106314,37.6989671 38.2393694,37.3305277 C38.6863178,36.8159538 39.9399125,35.7546452 41.6348266,37.1144292 L44.1375128,41.1029409 C44.7595255,42.0937212 44.2500943,42.9022567 43.0055061,42.9022567" id="Fill-57" fill="#FFC965" mask="url(#mask-8)"></path>
                        </g>
                    </g>
                    <g id="Group-69" transform="translate(224.138655, 69.117650)">
                        <path d="M59.6759501,36.1512918 C47.3792156,46.0067095 49.817799,46.3264229 40.2434533,58.2867136 C30.6691077,70.2470043 18.7323491,67.6976516 2.96393394,40.4585115 C-12.803917,13.2193713 40.8940056,-9.60727772 44.5157702,4.25179896 C48.1375349,18.1108756 71.9721205,26.2953171 59.6759501,36.1512918" id="Fill-61" fill="#FFDFAB"></path>
                        <path d="M18.4213478,14.76235 C11.6602315,18.6562813 7.2451655,25.8481625 7.2451655,33.1921025 C7.2451655,36.6811006 8.19927113,40.0937908 10.0550094,43.299837 C13.8996432,49.943081 20.9332806,53.4343071 28.0729924,53.7373108 L28.0729924,56.7617775 L30.1053333,56.7617775 L30.1053333,53.721158 C33.152152,53.5629723 36.4726201,52.7029766 39.2491747,51.1044094 C39.7078902,50.8403952 39.8833644,50.1892715 39.6176141,49.735323 C39.3529922,49.2813745 38.6945409,49.104808 38.2330042,49.3649233 C35.5252852,50.923944 32.0332924,51.7466212 29.0891628,51.7466212 C22.2428484,51.7466212 15.4501354,48.5734376 11.8170862,42.2972513 C10.1193311,39.3635743 9.27750641,36.3218407 9.27750641,33.1915455 C9.27750641,26.649117 13.2874583,20.0437485 19.4375183,16.5018361 C19.8431966,16.2840522 20.0576023,15.7693916 19.9250093,15.3327098 C19.5797032,14.6531795 19.0431245,14.4905378 18.4213478,14.76235" id="Fill-63" fill="#838BB7"></path>
                        <path d="M44.6115215,33.14849 C44.6115215,41.8035894 37.5039702,48.8200181 28.7364668,48.8200181 C19.9689635,48.8200181 12.8614122,41.8035894 12.8614122,33.14849 C12.8614122,24.4933906 19.9689635,17.4769618 28.7364668,17.4769618 C37.5039702,17.4769618 44.6115215,24.4933906 44.6115215,33.14849" id="Fill-65" fill="#2379E2"></path>
                        <path d="M36.2837168,58.9050293 C36.2837168,58.3575061 35.2252294,57.8885188 34.5086628,57.7136233 C34.1893111,57.176126 33.803945,56.689872 33.5692271,56.689872 L25.0313641,56.689872 C24.7955178,56.689872 24.4197434,57.1800249 24.1116762,57.7197502 C23.3951096,57.8991017 22.3608839,58.363633 22.3608839,58.9050293 C22.3608839,59.6007124 22.3022045,60.1694012 22.8478107,60.1694012 L24.2301636,60.1694012 L34.4144371,60.1694012 L35.7967901,60.1694012 C36.3423963,60.1694012 36.2837168,59.6007124 36.2837168,58.9050293" id="Fill-67" fill="#838BB7"></path>
                    </g>
                    <g id="Group-82" transform="translate(229.075630, 70.105045)">
                        <g id="Group-72">
                            <mask id="mask-10" fill="white">
                                <use xlink:href="#path-9"></use>
                            </mask>
                            <g id="Clip-71"></g>
                            <path d="M52.1076626,36.9843604 L30.847213,36.9843604 C29.9521902,36.9843604 30.0478845,36.1606451 30.0478845,35.1540719 C30.0478845,34.1474987 32.8522892,33.3232137 33.7478748,33.3232137 L49.2070008,33.3232137 C50.1020235,33.3232137 52.9069911,34.1474987 52.9069911,35.1540719 C52.9069911,36.1606451 53.0032483,36.9843604 52.1076626,36.9843604" id="Fill-70" fill="#F54F71" mask="url(#mask-10)"></path>
                        </g>
                        <g id="Group-75">
                            <mask id="mask-12" fill="white">
                                <use xlink:href="#path-11"></use>
                            </mask>
                            <g id="Clip-74"></g>
                            <path d="M46.224044,30.8127614 C46.224044,31.1972758 45.9133191,31.5117231 45.5333566,31.5117231 L44.9805816,31.5117231 C44.6006191,31.5117231 44.2898942,31.1972758 44.2898942,30.8127614 L44.2898942,13.0863638 C44.2898942,12.7024191 44.6006191,12.3879718 44.9805816,12.3879718 L45.5333566,12.3879718 C45.9133191,12.3879718 46.224044,12.7024191 46.224044,13.0863638 L46.224044,30.8127614 Z M42.4041542,30.8127614 C42.4041542,31.1972758 42.0934293,31.5117231 41.7134668,31.5117231 L41.1606917,31.5117231 C40.7807292,31.5117231 40.4694414,31.1972758 40.4694414,30.8127614 L40.4694414,13.0863638 C40.4694414,12.7024191 40.7807292,12.3879718 41.1606917,12.3879718 L41.7134668,12.3879718 C42.0934293,12.3879718 42.4041542,12.7024191 42.4041542,13.0863638 L42.4041542,30.8127614 Z M38.6045291,30.8127614 C38.6045291,31.1972758 38.2938042,31.5117231 37.9138417,31.5117231 L37.3610666,31.5117231 C36.9811041,31.5117231 36.6698163,31.1972758 36.6698163,30.8127614 L36.6698163,13.0863638 C36.6698163,12.7024191 36.9811041,12.3879718 37.3610666,12.3879718 L37.9138417,12.3879718 C38.2938042,12.3879718 38.6045291,12.7024191 38.6045291,13.0863638 L38.6045291,30.8127614 Z M34.5893105,9.09709825 L34.5893105,33.171687 C34.5893105,33.9401461 35.2107603,34.5690408 35.9701223,34.5690408 L46.9845313,34.5690408 C47.7438934,34.5690408 48.365906,33.9401461 48.365906,33.171687 L48.365906,9.09709825 L34.5893105,9.09709825 Z" id="Fill-73" fill="#F54F71" mask="url(#mask-12)"></path>
                        </g>
                        <g id="Group-78">
                            <mask id="mask-14" fill="white">
                                <use xlink:href="#path-13"></use>
                            </mask>
                            <g id="Clip-77"></g>
                            <path d="M55.7737115,10.6635814 C55.6104684,9.903667 55.2186848,9.20983209 54.6636581,8.61511646 C54.1086314,8.05344059 53.3909244,7.65753315 52.6720916,7.45929461 C52.3135196,7.36017534 51.9211731,7.29352617 51.5626011,7.26048642 L51.3014121,7.26048642 L51.0723088,7.26048642 L50.6157908,7.26048642 L48.7874675,7.22801631 L45.1313839,7.19497655 L41.4753002,7.16193679 C39.0266529,7.16193679 36.6106543,7.19497655 34.162007,7.22801631 L32.3342466,7.26048642 L31.8771658,7.26048642 L31.3874363,7.26048642 C30.9956528,7.29352617 30.6365179,7.36017534 30.2773829,7.45929461 C29.559676,7.65753315 28.8408432,8.05344059 28.2863794,8.61511646 C27.7313527,9.17679234 27.3390062,9.903667 27.175763,10.6635814 C26.9804342,11.4234958 27.0457314,12.21645 27.2742718,12.942755 C27.4048664,13.306762 27.5681095,13.6696297 27.7966499,14.0000272 C28.0246274,14.3304248 28.319028,14.5947429 28.6455143,14.8260212 C29.2984869,15.2561077 30.0814911,15.4868163 30.8324096,15.387697 C31.2241932,15.3546573 31.5833281,15.2561077 31.9092515,15.0903392 C32.2689494,14.9251404 32.5954357,14.6938621 32.8234132,14.3965043 C33.3137055,13.8023584 33.5422459,13.0094042 33.4443001,12.2825295 C33.3790028,11.9190922 33.2810569,11.5556549 33.0525165,11.258297 C32.8566247,10.9278995 32.5301384,10.6966212 32.2036521,10.5644621 C31.5506795,10.2671043 30.7671124,10.3331838 30.2120857,10.7957404 C30.1473513,10.86182 30.0814911,10.9278995 30.0161939,10.9609392 C29.7876535,11.1922175 29.6244103,11.5226151 29.6244103,11.8860524 C29.6244103,12.6129271 30.2120857,13.2076427 30.9303555,13.2076427 C31.6486254,13.2076427 32.2363007,12.6129271 32.2363007,11.8860524 C32.2363007,11.6547741 32.1710035,11.4565356 32.0730576,11.258297 C32.3668953,11.5556549 32.5301384,11.9521319 32.5301384,12.348609 C32.5301384,12.8442054 32.3336837,13.306762 31.9751117,13.6041198 C31.8118685,13.7693186 31.6159768,13.8678682 31.420085,13.9345174 C31.1915446,14.0000272 30.9630042,14.0336367 30.7350266,14.0336367 C30.2773829,14.0336367 29.820865,13.8348285 29.4938158,13.5710801 C29.3305726,13.438921 29.1999781,13.2401128 29.0699465,13.0754837 C28.9720006,12.8772451 28.8740547,12.6790066 28.8408432,12.4477283 C28.7428973,11.9851717 28.7428973,11.5226151 28.9067034,11.0930983 C29.036735,10.6635814 29.2984869,10.2671043 29.6244103,9.96974651 C29.9508966,9.67238869 30.3426802,9.47415015 30.799761,9.37503088 C31.0283014,9.30895136 31.2568418,9.30895136 31.4853822,9.30895136 L32.3668953,9.34199112 L34.1952185,9.37503088 C36.6438658,9.40807064 39.0593015,9.44111039 41.4753002,9.44111039 L45.1313839,9.44111039 L48.7874675,9.40807064 L50.6157908,9.37503088 L51.4967409,9.34199112 C51.7258443,9.34199112 51.9543847,9.37503088 52.1823622,9.40807064 C52.6400059,9.50718991 53.0317895,9.70542845 53.3577129,10.0027863 C53.6841992,10.3001441 53.9453882,10.6635814 54.0759827,11.126138 C54.2065773,11.5556549 54.2392259,12.0182115 54.1418429,12.4807681 C54.043897,12.942755 53.8153566,13.306762 53.4883074,13.6041198 C53.1618211,13.9014776 52.7053032,14.0666764 52.2476594,14.0666764 C52.0196819,14.0666764 51.7911415,14.0336367 51.5626011,13.9669875 C51.3667093,13.9014776 51.1702546,13.7693186 51.0075744,13.6371596 C50.6810881,13.3398018 50.4525477,12.8772451 50.4525477,12.3816488 C50.4525477,11.9851717 50.5831422,11.6217344 50.8443313,11.3243766 C50.7458225,11.4895753 50.7137367,11.6878139 50.7137367,11.8860524 C50.7137367,12.6129271 51.3014121,13.2076427 52.0196819,13.2076427 C52.5088485,13.2076427 52.9332807,12.942755 53.1618211,12.5138078 L53.1618211,12.5468476 C53.1618211,12.5138078 53.1944697,12.4807681 53.1944697,12.4807681 C53.2276813,12.4477283 53.2276813,12.3816488 53.259767,12.348609 C53.3250642,12.21645 53.3577129,12.0512512 53.3577129,11.8860524 C53.3577129,11.5886946 53.259767,11.2913368 53.0965238,11.0930983 C53.0317895,10.9609392 52.9332807,10.86182 52.8032491,10.7627007 C52.2476594,10.3331838 51.4646552,10.2340646 50.8116826,10.5314224 C50.4846334,10.6966212 50.1913586,10.9278995 49.9628182,11.2252573 C49.7669265,11.5556549 49.6363319,11.8860524 49.5710347,12.2494898 C49.4730888,12.9763644 49.7016292,13.7693186 50.1913586,14.3640342 C50.4525477,14.661392 50.7458225,14.8921007 51.1055203,15.0572995 C51.4646552,15.2224983 51.8232273,15.3216175 52.1823622,15.3546573 C52.9332807,15.4207368 53.7174107,15.2224983 54.3698204,14.7935511 C55.022793,14.3640342 55.5125225,13.6371596 55.7410629,12.9102849 C55.904306,12.2494898 55.9696033,11.4234958 55.7737115,10.6635814" id="Fill-76" fill="#F54F71" mask="url(#mask-14)"></path>
                        </g>
                        <g id="Group-81">
                            <mask id="mask-16" fill="white">
                                <use xlink:href="#path-15"></use>
                            </mask>
                            <g id="Clip-80"></g>
                            <path d="M34.503577,7.30685582 L48.522786,7.30685582 C49.2720158,7.30685582 50.8847455,4.64772514 50.8847455,3.95047237 L50.8847455,3.53747543 C50.8847455,2.84022265 50.413592,2.27000205 49.8371748,2.27000205 L33.117136,2.27000205 C32.5412818,2.27000205 32.0701283,2.84022265 32.0701283,3.53747543 L32.0701283,3.95047237 C32.0701283,4.64772514 33.7543472,7.30685582 34.503577,7.30685582" id="Fill-79" fill="#F54F71" mask="url(#mask-16)"></path>
                        </g>
                    </g>
                    <g id="Group-127" transform="translate(18.760504, 85.903364)">
                        <path d="M226.173125,3.67848919 C226.343619,4.41622816 226.768732,5.40903646 227.535954,6.23254599 C228.217369,6.94169477 229.153403,7.4809842 230.459588,7.56619417 C231.424785,7.62281396 232.190886,7.62281396 232.872301,7.65084355 C235.739851,7.73605353 237.386464,7.76464371 239.174967,9.66561092 C239.316858,9.80800127 239.771135,9.46716138 239.913026,9.38195141 C240.310658,9.06970171 240.736332,8.55900247 241.133964,7.87788328 C241.871463,6.5442351 242.382383,4.67129749 242.21245,2.45808058 C240.112123,1.40809191 237.727451,0.812182692 235.200889,0.812182692 C231.850459,0.812182692 228.72829,1.89076155 226.173125,3.67848919 M222.709407,18.1221395 C222.709407,15.6818828 224.61176,13.0992358 227.194966,13.0992358 C227.933025,13.0992358 228.699687,13.3262756 229.49439,13.8089452 C230.85722,14.6318941 231.339538,15.5114629 231.793815,16.3624414 C232.248091,17.1573608 232.673765,17.9236899 234.887942,18.4624188 C236.761692,18.887908 237.925986,20.0516969 238.550196,21.4419648 C238.891183,22.208294 239.061116,23.0312429 239.089719,23.8541919 C239.146363,24.6771408 239.061116,25.4714996 238.891183,26.1812089 C238.550196,27.6847165 237.755492,28.9331547 236.790295,29.3306144 C236.137483,29.6428641 235.342779,29.3306144 235.058436,28.6494952 C234.689967,27.7985166 234.320377,27.0888073 230.99855,27.0602171 C228.585837,27.0602171 226.570196,26.010789 225.12268,24.4501011 C223.589918,22.775613 222.709407,20.4491565 222.709407,18.1221395 M249.934029,10.9712294 C249.564999,11.1130592 249.167928,11.3681285 248.713091,11.7089684 C247.94699,12.2762874 247.208931,13.0712067 246.669407,13.9221852 C246.357022,14.433445 246.129884,14.915554 245.874704,15.3976631 C245.221892,16.6466618 244.56908,17.8665098 243.46143,18.8598786 C243.887665,18.9450886 244.426628,18.8879082 245.022795,18.8026982 C245.789457,18.7180489 246.612763,18.6042487 247.57796,18.6894587 C248.457911,18.7746686 249.196531,18.5476289 249.763535,18.1501693 C250.388866,17.72468 250.81454,17.1287708 250.955871,16.5614518 C250.955871,14.6318945 250.586841,12.758957 249.934029,10.9712294" id="Fill-83" fill="#27C195"></path>
                        <path d="M251.109484,253.462721 L58.2730294,253.462721 C57.4177557,253.462721 56.7234418,252.769269 56.7234418,251.913806 C56.7234418,251.059464 57.4177557,250.366011 58.2730294,250.366011 L251.109484,250.366011 C251.965318,250.366011 252.659071,251.059464 252.659071,251.913806 C252.659071,252.769269 251.965318,253.462721 251.109484,253.462721" id="Fill-85" fill="#F4D7E0"></path>
                        <path d="M251.109484,260.292193 L58.2730294,260.292193 C57.4177557,260.292193 56.7234418,259.598741 56.7234418,258.743278 C56.7234418,257.888375 57.4177557,257.195483 58.2730294,257.195483 L251.109484,257.195483 C251.965318,257.195483 252.659071,257.888375 252.659071,258.743278 C252.659071,259.598741 251.965318,260.292193 251.109484,260.292193" id="Fill-87" fill="#F4D7E0"></path>
                        <path d="M251.109484,267.121105 L58.2730294,267.121105 C57.4177557,267.121105 56.7234418,266.428213 56.7234418,265.57275 C56.7234418,264.717847 57.4177557,264.024955 58.2730294,264.024955 L251.109484,264.024955 C251.965318,264.024955 252.659071,264.717847 252.659071,265.57275 C252.659071,266.428213 251.965318,267.121105 251.109484,267.121105" id="Fill-89" fill="#F4D7E0"></path>
                        <path d="M251.109484,273.950565 L58.2730294,273.950565 C57.4177557,273.950565 56.7234418,273.257673 56.7234418,272.40221 C56.7234418,271.547307 57.4177557,270.853855 58.2730294,270.853855 L251.109484,270.853855 C251.965318,270.853855 252.659071,271.547307 252.659071,272.40221 C252.659071,273.257673 251.965318,273.950565 251.109484,273.950565" id="Fill-91" fill="#F4D7E0"></path>
                        <path d="M0.369039985,323.942909 L443.145047,323.942909" id="Stroke-93" stroke="#848FBB" stroke-linecap="round" stroke-linejoin="round"></path>
                        <polygon id="Fill-95" fill="#997659" points="327.511899 319.418999 333.74446 319.418999 333.74446 311.741132 327.511899 311.741132"></polygon>
                        <polygon id="Fill-97" fill="#997659" points="392.883557 319.418758 399.116118 319.418758 396.797065 311.740891 390.563943 311.740891"></polygon>
                        <path d="M398.562008,317.680026 L395.300191,318.685167 L392.27112,317.680026 L390.674983,323.909884 L414.756685,323.909884 C413.661373,319.418982 410.014823,321.30201 405.326241,319.925757 C400.637659,318.549504 398.562008,317.680026 398.562008,317.680026" id="Fill-98" fill="#090F0C"></path>
                        <path d="M306.163864,42.5848586 C306.907531,43.2127215 307.931055,47.7821061 307.931055,47.7821061 L302.526848,49.9566421 C301.497715,50.4034339 300.347442,50.4880832 299.26447,50.1965754 C296.88092,49.5552583 295.333015,47.2590739 295.63194,44.8104084 L295.98078,41.9541927 C295.98078,41.9541927 305.419635,41.9569956 306.163864,42.5848586" id="Fill-99" fill="#784931"></path>
                        <path d="M303.510318,49.5304227 L308.196096,50.212663 L310.762478,45.8181831 C311.263304,45.024385 311.02551,43.9755175 310.231367,43.474909 C309.437786,42.9743004 308.388463,43.2114308 307.887637,44.0052289 L303.510318,49.5304227 Z" id="Fill-100" fill="#997659"></path>
                        <polygon id="Fill-101" fill="#00B272" points="301.81083 69.0405319 292.151005 71.4813491 288.69626 99.4386288 300.003819 99.8994353"></polygon>
                        <path d="M433.687063,91.5731903 L416.80256,89.4479864 L420.666714,58.76511 L437.551778,60.8897533 C446.028241,61.9559991 452.034785,69.6893643 450.967516,78.1627109 C449.900247,86.6354969 442.163526,92.6394361 433.687063,91.5731903" id="Fill-102" fill="#EFA7A3"></path>
                        <polygon id="Fill-103" fill="#FFC965" points="414.745201 89.1895534 235.611638 66.092045 239.475792 35.4086065 418.609916 58.506115"></polygon>
                        <polygon id="Fill-104" fill="#FFF1DC" points="203.698091 46.4915086 235.611294 66.0920442 239.476009 35.4086065"></polygon>
                        <polygon id="Fill-105" fill="#FCE0BB" points="203.698091 46.4915112 235.611294 66.0920461 237.678533 50.7391159"></polygon>
                        <polygon id="Fill-106" fill="#00217D" points="214.35396 43.1909149 203.698091 46.4916801 213.203126 52.3291238"></polygon>
                        <polygon id="Fill-107" fill="#FFB031" points="424.503402 90.4169683 235.611306 66.0917651 237.678545 50.7393956 425.44897 74.5040069"></polygon>
                        <polygon id="Fill-108" fill="#A3A9CE" points="429.572277 91.0552623 414.745477 89.1896124 418.609631 58.5061742 433.436992 60.3718241"></polygon>
                        <path d="M366.293186,163.512329 L368.262278,158.400292 L374.91827,157.857078 C376.142573,157.720854 377.229472,158.459714 377.346125,159.508021 C377.46334,160.556328 376.565443,161.516061 375.3417,161.653406 L366.293186,163.512329 Z" id="Fill-109" fill="#784931"></path>
                        <path d="M362.382646,157.765131 L365.732514,164.072911 L373.694691,161.990873 L365.959652,149.674668 L363.803241,150.734187 C361.468484,152.283663 360.832497,155.431387 362.382646,157.765131" id="Fill-110" fill="#997659"></path>
                        <polygon id="Fill-111" fill="#00B272" points="369.405166 156.614412 397.822123 126.853707 383.40922 121.690655 365.898264 149.674844"></polygon>
                        <path d="M386.846912,125.572755 C388.360607,128.821385 392.223079,130.229032 395.47424,128.715433 C398.724841,127.202396 400.132537,123.341599 398.618282,120.092408 C397.104588,116.842657 393.242116,115.435571 389.990954,116.94917 C386.740915,118.462207 385.332657,122.323004 386.846912,125.572755" id="Fill-112" fill="#00B272"></path>
                        <path d="M389.040961,128.16437 L397.821957,118.810894 L367.167828,82.4856588 C364.541998,78.9180518 359.364367,78.5032138 356.2035,81.6060901 C353.042633,84.7089664 353.352775,95.6875985 356.874259,98.3750762 L389.040961,128.16437 Z" id="Fill-113" fill="#00B272"></path>
                        <polygon id="Fill-114" fill="#997659" points="338.863747 85.1794748 351.435989 86.2434783 353.123542 66.3239664 340.5513 65.2594024"></polygon>
                        <path d="M293.746631,95.2060528 C290.628387,95.414593 288.270075,98.1104796 288.478705,101.227371 C288.687897,104.344262 291.384954,106.701551 294.503197,106.493011 C297.62088,106.28391 299.979753,103.588023 299.770562,100.471132 C299.561931,97.3542411 296.864874,94.996952 293.746631,95.2060528" id="Fill-115" fill="#00B272"></path>
                        <path d="M290.183861,96.0370694 L295.914475,106.216298 L330.947044,98.3495111 C335.240799,97.2563569 337.569386,86.819817 335.878468,82.7258142 C334.18755,78.6329325 329.261174,76.986474 325.446934,79.239493 L290.183861,96.0370694 Z" id="Fill-116" fill="#00B272"></path>
                        <path d="M362.590218,153.69703 C371.058829,136.797987 366.404458,87.0280785 366.404458,87.0280785 C367.29899,83.4694412 364.898615,79.9231369 361.261038,79.4303766 L330.011863,78.2991022 C326.373725,77.8069025 323.115273,80.5851959 323.030587,84.2537092 C323.030587,84.2537092 303.510157,148.940968 317.621892,153.69703 C324.603169,156.049834 354.121607,170.596072 362.590218,153.69703" id="Fill-117" fill="#039157"></path>
                        <polygon id="Fill-118" fill="#273049" points="332.702197 153.697034 339.905563 176.124634 336.702073 315.218695 323.861752 315.218695 316.636512 165.288954 317.6219 153.697034"></polygon>
                        <polygon id="Fill-119" fill="#3D4564" points="332.702201 153.697034 339.731148 181.238914 344.791563 181.238914 390.072272 315.218695 400.592979 315.218695 368.713426 171.876469 362.590228 153.697034"></polygon>
                        <path d="M362.741432,49.9889331 C362.436899,46.9651003 361.315228,44.027038 359.410632,41.7263688 C357.648488,39.5989225 355.259891,38.0079626 352.635743,37.1530599 C351.348066,36.7331766 350.129371,36.5061368 348.808043,36.6434819 C347.172648,36.8144624 345.499116,36.9972154 343.941676,36.3020814 C341.744885,35.3316968 331.017791,48.5992257 332.912853,49.6430478 C332.834897,50.1330052 332.772644,50.6285684 332.748528,51.1359041 C332.344166,59.4371492 338.749464,66.4927591 347.053751,66.8969459 C352.869051,67.1794842 358.454969,63.973459 361.144174,58.8109681 C362.526632,56.1576865 363.047087,53.0301442 362.741432,49.9889331" id="Fill-120" fill="#3D4564"></path>
                        <path d="M355.678933,59.1220372 C355.41478,60.6849674 356.468589,62.1654906 358.031637,62.4289688 C359.594684,62.6930076 361.076411,61.640216 361.340564,60.0772858 C361.604157,58.5149161 360.551469,57.0343929 358.987861,56.7703541 C357.424252,56.5063153 355.943087,57.5591069 355.678933,59.1220372" id="Fill-121" fill="#997659"></path>
                        <path d="M343.428729,43.117251 C336.760399,43.0180262 334.181118,48.6188999 334.181118,48.6188999 C334.179996,48.6222634 333.811528,50.5876986 333.810967,50.5905016 L333.515407,52.3395483 C333.515967,52.4202735 333.512602,52.499317 333.517089,52.581724 L333.484,52.5262254 L332.659572,57.4067385 C331.522759,64.1344019 335.809783,70.8121726 342.52242,72.0533231 C349.325912,73.3107307 355.817579,68.7548004 356.965609,61.9604265 L357.975112,55.9811533 C357.976234,55.9772292 357.976234,55.9727444 357.975673,55.9688203 C357.975673,55.9688203 359.876343,44.251889 343.428729,43.117251" id="Fill-122" fill="#997659"></path>
                        <path d="M346.09489,43.4156538 C347.747671,43.6696019 349.406622,44.121439 350.960696,44.7324842 C352.126673,45.1910484 353.249465,45.7645339 354.197276,46.5930887 C357.282991,49.2884147 354.53546,55.069799 353.472677,58.0841018 C353.212449,58.8207195 352.909598,59.6963641 353.373409,60.3259088 C353.874235,61.007028 354.986371,60.8836978 355.635818,60.342166 C356.284705,59.8000736 356.623449,58.984973 357.059218,58.2601276 C357.494426,57.5352823 358.143873,56.8261335 358.98793,56.7700743 C358.98793,56.7700743 358.496639,43.0983588 358.496078,43.0865863 C358.492152,42.9862404 349.898474,42.7973209 349.240054,42.7754578 C347.90807,42.7306105 346.09489,43.4156538 346.09489,43.4156538" id="Fill-123" fill="#3D4564"></path>
                        <path d="M304.595818,42.0752238 C304.595818,42.0752238 302.590272,42.0662544 300.18485,42.0129981 C297.778867,41.9586207 296.644858,41.4652999 295.449718,41.2931981 C294.255139,41.1210964 292.369051,44.5513583 292.092559,45.9309749 C291.75774,47.5948117 292.012359,49.4335531 292.916987,49.1543783 C293.820492,48.8752036 295.079567,47.4243917 295.079567,47.4243917 C295.079567,47.4243917 295.896143,48.8634311 297.072214,48.8309168 C297.748582,48.8124173 298.209027,46.9136925 298.209027,46.9136925 C298.209027,46.9136925 298.722192,47.7203843 300.7154,47.9648023 C301.635169,48.0774813 302.975005,48.3331112 305.667014,46.8234372 C307.41065,45.8463255 304.595818,42.0752238 304.595818,42.0752238" id="Fill-124" fill="#997659"></path>
                        <path d="M327.806949,317.680026 L331.068767,318.685167 L334.097837,317.680026 L335.693974,323.909884 L311.612273,323.909884 C312.707584,319.418982 316.354695,321.30201 321.042716,319.925757 C325.731298,318.549504 327.806949,317.680026 327.806949,317.680026" id="Fill-125" fill="#090F0C"></path>
                        <path d="M340.059902,71.4252348 C340.059902,71.4252348 347.019306,74.8554967 350.628841,71.8933291" id="Fill-126" fill="#784931"></path>
                    </g>
                    <g id="Group-130" transform="translate(366.323529, 138.235299)">
                        <mask id="mask-18" fill="white">
                            <use xlink:href="#path-17"></use>
                        </mask>
                        <g id="Clip-129"></g>
                        <polygon id="Fill-128" fill="#3D4564" mask="url(#mask-18)" points="-4.93428919 14.1719388 7.53769384 14.1719388 7.53769384 -7.94542619 -4.93428919 -7.94542619"></polygon>
                    </g>
                    <g id="Group-133" transform="translate(356.449580, 138.235299)">
                        <mask id="mask-20" fill="white">
                            <use xlink:href="#path-19"></use>
                        </mask>
                        <g id="Clip-132"></g>
                        <polygon id="Fill-131" fill="#3D4564" mask="url(#mask-20)" points="-5.09780163 14.1719388 7.37418141 14.1719388 7.37418141 -7.94542619 -5.09780163 -7.94542619"></polygon>
                    </g>
                    <g id="Group-166" transform="translate(75.042017, 121.449584)">
                        <path d="M287.202301,20.5672663 C287.202301,20.5672663 282.6082,27.9537157 289.371894,25.8108719" id="Stroke-134" stroke="#784931"></path>
                        <path d="M279.575602,9.19225677 C279.421754,9.49829726 280.308344,6.42948467 282.253341,6.37679638 C284.2893,6.32130552 296.941326,7.02587126 297.589284,6.2506808 C299.733049,8.73431707 301.298479,18.580301 301.420322,18.5578804 C301.705559,18.5074342 301.739248,17.5422296 301.767322,17.3354 C301.972266,15.8836695 302.02673,14.3938241 302.025607,12.9320043 C302.0228,10.2331307 302.879632,5.03604758 297.542681,1.79739933 C294.260217,-0.194666415 287.475187,-0.392527757 283.698052,0.735225838 C281.066916,1.52050555 278.544708,3.56694113 277.607022,5.95136647 C276.577813,8.56952604 276.604203,10.6148406 276.943342,15.7995924 C276.979839,16.3623482 277.052271,16.925104 277.137056,17.4828151 C277.194328,17.8538752 277.246546,18.2339035 277.344807,18.5971164 C277.879344,20.5723667 277.929878,11.5256754 279.575602,9.19225677" id="Fill-136" fill="#3D4564"></path>
                        <path d="M299.556674,4.76890668 C299.14398,8.55349519 293.782324,11.4833003 289.800807,11.4833003 L290.961405,10.4794203 C286.485778,11.7271238 283.987153,10.8768245 283.995014,10.878506 C284.156161,10.9082132 285.849611,10.1851506 285.849611,10.1851506 C283.304944,10.2557753 280.734448,10.2894061 278.764184,8.60113885 L281.608125,3.97185619 L299.556674,4.76890668 Z" id="Fill-138" fill="#3D4564"></path>
                        <path d="M279.753801,14.3356421 C279.411855,13.8844286 281.008167,13.5458783 282.647153,13.4393807 C285.396763,13.2611374 286.971739,14.3844068 285.646626,14.4270059 C284.656721,14.4578341 279.853746,14.4679234 279.753801,14.3356421" id="Fill-140" fill="#3D4564"></path>
                        <path d="M296.190479,14.9131398 C296.551516,14.4748181 294.970364,14.0796559 293.336993,13.9143044 C290.59749,13.6379711 288.975349,14.7046287 290.297655,14.7943109 C291.285875,14.8604515 296.084919,15.0414974 296.190479,14.9131398" id="Fill-142" fill="#3D4564"></path>
                        <path d="M283.378438,28.8834926 C283.256245,28.9846812 283.44856,29.4933961 284.074799,30.0776559 C284.687152,30.6577573 285.780639,31.2683539 287.119207,31.3792454 C288.45708,31.490137 289.637353,31.0666699 290.337185,30.5946878 C291.051596,30.1213195 291.325142,29.6507235 291.221695,29.530822 C291.013411,29.2563654 289.386024,30.3493402 287.220571,30.1559731 C285.052342,29.9910219 283.628378,28.647155 283.378438,28.8834926" id="Fill-144" fill="#57331F"></path>
                        <polygon id="Fill-146" fill="#848FBB" points="373.316778 55.5881151 358.544148 53.7142862 360.557232 38.8024002 375.329862 40.5367508"></polygon>
                        <path d="M123.636353,51.3109363 L4.35254886,51.3109363 C2.17846423,51.3109363 0.415389392,49.5509232 0.415389392,47.3806142 C0.415389392,45.2103051 2.17846423,43.4508526 4.35254886,43.4508526 L123.636353,43.4508526 C125.810437,43.4508526 127.573512,45.2103051 127.573512,47.3806142 C127.573512,49.5509232 125.810437,51.3109363 123.636353,51.3109363" id="Fill-148" fill="#F54F71"></path>
                        <path d="M81.0415827,68.3940516 L4.35232404,68.3940516 C2.17823953,68.3940516 0.415164808,66.6340386 0.415164808,64.4637295 C0.415164808,62.2934205 2.17823953,60.5339679 4.35232404,60.5339679 L81.0415827,60.5339679 C83.2156672,60.5339679 84.978742,62.2934205 84.978742,64.4637295 C84.978742,66.6340386 83.2156672,68.3940516 81.0415827,68.3940516" id="Fill-150" fill="#93D5F9"></path>
                        <path d="M81.0415827,86.7355175 L4.35232404,86.7355175 C2.17823953,86.7355175 0.415164808,84.976065 0.415164808,82.8051955 C0.415164808,80.6348865 2.17823953,78.8759946 4.35232404,78.8759946 L81.0415827,78.8759946 C83.2156672,78.8759946 84.978742,80.6348865 84.978742,82.8051955 C84.978742,84.976065 83.2156672,86.7355175 81.0415827,86.7355175" id="Fill-152" fill="#93D5F9"></path>
                        <path d="M193.593812,114.16128 L4.05597044,114.16128 C1.93635025,114.16128 0.218756031,112.445548 0.218756031,110.330169 C0.218756031,108.21479 1.93635025,106.499619 4.05597044,106.499619 L193.593812,106.499619 C195.712871,106.499619 197.431026,108.21479 197.431026,110.330169 C197.431026,112.445548 195.712871,114.16128 193.593812,114.16128" id="Fill-154" fill="#F54F71"></path>
                        <path d="M41.6496644,130.812464 L4.05574565,130.812464 C1.93612556,130.812464 0.218531432,129.097292 0.218531432,126.981913 C0.218531432,124.866534 1.93612556,123.151362 4.05574565,123.151362 L41.6496644,123.151362 C43.768723,123.151362 45.4868786,124.866534 45.4868786,126.981913 C45.4868786,129.097292 43.768723,130.812464 41.6496644,130.812464" id="Fill-156" fill="#93D5F9"></path>
                        <path d="M41.6496644,148.69088 L4.05574565,148.69088 C1.93612556,148.69088 0.218531432,146.975709 0.218531432,144.86033 C0.218531432,142.744951 1.93612556,141.029779 4.05574565,141.029779 L41.6496644,141.029779 C43.768723,141.029779 45.4868786,142.744951 45.4868786,144.86033 C45.4868786,146.975709 43.768723,148.69088 41.6496644,148.69088" id="Fill-158" fill="#93D5F9"></path>
                        <path d="M116.327668,130.812464 L78.7337494,130.812464 C76.6141293,130.812464 74.8965352,129.097292 74.8965352,126.981913 C74.8965352,124.866534 76.6141293,123.151362 78.7337494,123.151362 L116.327668,123.151362 C118.446727,123.151362 120.164882,124.866534 120.164882,126.981913 C120.164882,129.097292 118.446727,130.812464 116.327668,130.812464" id="Fill-160" fill="#93D5F9"></path>
                        <path d="M116.327668,148.69088 L78.7337494,148.69088 C76.6141293,148.69088 74.8965352,146.975709 74.8965352,144.86033 C74.8965352,142.744951 76.6141293,141.029779 78.7337494,141.029779 L116.327668,141.029779 C118.446727,141.029779 120.164882,142.744951 120.164882,144.86033 C120.164882,146.975709 118.446727,148.69088 116.327668,148.69088" id="Fill-162" fill="#93D5F9"></path>
                        <path d="M193.593806,130.812464 L156.000448,130.812464 C153.880828,130.812464 152.163234,129.097292 152.163234,126.981913 C152.163234,124.866534 153.880828,123.151362 156.000448,123.151362 L193.593806,123.151362 C195.712864,123.151362 197.43102,124.866534 197.43102,126.981913 C197.43102,129.097292 195.712864,130.812464 193.593806,130.812464" id="Fill-164" fill="#93D5F9"></path>
                    </g>
                </g>
            </g>
        </g>
    </g>
</svg>