<?xml version="1.0" encoding="UTF-8"?>
<svg width="229px" height="139px" viewBox="0 0 229 139" version="1.1" xmlns="http://www.w3.org/2000/svg" xmlns:xlink="http://www.w3.org/1999/xlink">
    <!-- Generator: sketchtool 52.6 (67491) - http://www.bohemiancoding.com/sketch -->
    <title>Empty Collection</title>
    <desc>Illustration of an empty collection</desc>
    <g id="default-collection" stroke="none" stroke-width="1" fill="none" fill-rule="evenodd">
        <g id="my-collection-empty" transform="translate(-450.000000, -232.000000)">
            <g id="Identity-/-Illustrations-/-empty-collection" transform="translate(448.000000, 229.000000)">
                <g id="oops" transform="translate(2.000000, 3.000000)">
                    <g id="Group-7">
                        <g id="Group" transform="translate(31.000000, 94.000000)">
                            <path d="M13.0373061,0.5 L0.962693907,0.5 C0.70714366,0.5 0.5,0.708559395 0.5,0.965856215 L0.5,10.0341438 C0.5,10.2914406 0.70714366,10.5 0.962693907,10.5 L13.0373061,10.5 C13.2928563,10.5 13.5,10.2914406 13.5,10.0341438 L13.5,0.965856215 C13.5,0.708559395 13.2928563,0.5 13.0373061,0.5" id="Fill-144" fill="#E5E5E5"></path>
                            <path d="M12.5373061,0 L0.462693907,0 C0.20714366,0 0,0.208559395 0,0.465856215 L0,9.53414378 C0,9.7914406 0.20714366,10 0.462693907,10 L12.5373061,10 C12.7928563,10 13,9.7914406 13,9.53414378 L13,0.465856215 C13,0.208559395 12.7928563,0 12.5373061,0" id="Fill-146" fill="#FFFFFF"></path>
                            <path d="M11.6085025,1 L1.3914975,1 C1.17515807,1 1,1.16690986 1,1.37267243 L1,8.62732757 C1,8.83309014 1.17515807,9 1.3914975,9 L11.6085025,9 C11.8248419,9 12,8.83309014 12,8.62732757 L12,1.37267243 C12,1.16690986 11.8248419,1 11.6085025,1" id="Fill-148" fill="#E6C5ED"></path>
                            <path d="M5.71006614,6.03390395 L5.71006614,4.44010863 L7.2250065,5.23710687 L5.71006614,6.03390395 Z M6.17514941,3 C4.97442187,3 4,3.97462304 4,5.17514941 C4,6.37567578 4.97442187,7.35009766 6.17514941,7.35009766 C7.37567578,7.35009766 8.35009766,6.37567578 8.35009766,5.17514941 C8.35009766,3.97462304 7.37567578,3 6.17514941,3 Z" id="Fill-150" fill="#D67DEC"></path>
                        </g>
                        <g id="Group-2" transform="translate(119.000000, 0.000000)">
                            <path d="M29.467522,0.5 L2.53220339,0.5 C1.96214374,0.5 1.5,0.979742709 1.5,1.5715109 L1.5,22.4284891 C1.5,23.0202573 1.96214374,23.5 2.53220339,23.5 L29.467522,23.5 C30.0375817,23.5 30.5,23.0202573 30.5,22.4284891 L30.5,1.5715109 C30.5,0.979742709 30.0375817,0.5 29.467522,0.5" id="Fill-152" fill="#E5E5E5"></path>
                            <path d="M28.9319193,0 L1.06779661,0 C0.478079727,0 0,0.479742709 0,1.0715109 L0,21.9284891 C0,22.5202573 0.478079727,23 1.06779661,23 L28.9319193,23 C29.5216362,23 30,22.5202573 30,21.9284891 L30,1.0715109 C30,0.479742709 29.5216362,0 28.9319193,0" id="Fill-154" fill="#FFFFFF"></path>
                            <path d="M27.1100061,2 L3.88971363,2 C3.39832485,2 3,2.39623417 3,2.88504381 L3,20.1146774 C3,20.603487 3.39832485,21 3.88971363,21 L27.1100061,21 C27.6013948,21 28,20.603487 28,20.1146774 L28,2.88504381 C28,2.39623417 27.6013948,2 27.1100061,2" id="Fill-157" fill="#E6F4F1"></path>
                            <path d="M14.5377376,13.2769173 L14.5377376,9.9794322 L17.672172,11.6280345 L14.5377376,13.2769173 Z M15.5,7 C13.0156747,7 11,9.01601795 11,11.5001402 C11,13.983982 13.0156747,16 15.5,16 C17.9837644,16 20,13.983982 20,11.5001402 C20,9.01601795 17.9837644,7 15.5,7 Z" id="Fill-159" fill="#27C195"></path>
                        </g>
                        <g id="Group-3" transform="translate(0.000000, 35.000000)">
                            <path d="M43.8982912,0.5 L2.10199108,0.5 C1.2172968,0.5 0.5,1.23022038 0.5,2.13056687 L0.5,33.8694331 C0.5,34.7697796 1.2172968,35.5 2.10199108,35.5 L43.8982912,35.5 C44.7829855,35.5 45.5,34.7697796 45.5,33.8694331 L45.5,2.13056687 C45.5,1.23022038 44.7829855,0.5 43.8982912,0.5" id="Fill-161" fill="#E5E5E5"></path>
                            <path d="M43.3980089,0 L1.60170879,0 C0.717296799,0 0,0.729933001 0,1.63056687 L0,33.3691458 C0,34.2697796 0.717296799,35 1.60170879,35 L43.3980089,35 C44.2827032,35 45,34.2697796 45,33.3691458 L45,1.63056687 C45,0.729933001 44.2827032,0 43.3980089,0" id="Fill-163" fill="#FFFFFF"></path>
                            <path d="M40.6473332,3 L5.35266677,3 C4.6054821,3 4,3.60480695 4,4.35115847 L4,30.6491235 C4,31.395193 4.6054821,32 5.35266677,32 L40.6473332,32 C41.3942356,32 42,31.395193 42,30.6491235 L42,4.35115847 C42,3.60480695 41.3942356,3 40.6473332,3" id="Fill-165" fill="#F7D7D5"></path>
                            <path d="M21.1102486,20.7638995 L21.1102486,15.6343911 L25.6380791,18.1990008 L21.1102486,20.7638995 Z M22.5,11 C18.9120902,11 16,14.1360324 16,17.9998555 C16,21.8639676 18.9120902,25 22.5,25 C26.0881782,25 29,21.8639676 29,17.9998555 C29,14.1360324 26.0881782,11 22.5,11 Z" id="Fill-167" fill="#FB5C41"></path>
                        </g>
                        <g id="Group-3" transform="translate(63.000000, 39.000000)">
                            <path d="M115.328649,1.56816183 L4.47323813,1.56816183 C2.12678287,1.56816183 0.22431228,3.49413069 0.22431228,5.86881011 L0.22431228,89.5806182 C0.22431228,91.9552976 2.12678287,93.8812665 4.47323813,93.8812665 L115.328649,93.8812665 C117.675105,93.8812665 119.576826,91.9552976 119.576826,89.5806182 L119.576826,5.86881011 C119.576826,3.49413069 117.675105,1.56816183 115.328649,1.56816183" id="Fill-161" fill="#E5E5E5"></path>
                            <path d="M115.327901,0.125769569 L4.47248942,0.125769569 C2.12678287,0.125769569 0.22431228,2.05098047 0.22431228,4.42641785 L0.22431228,88.137468 C0.22431228,90.5129054 2.12678287,92.4388742 4.47248942,92.4388742 L115.327901,92.4388742 C117.674356,92.4388742 119.576826,90.5129054 119.576826,88.137468 L119.576826,4.42641785 C119.576826,2.05098047 117.674356,0.125769569 115.327901,0.125769569" id="Fill-163" fill="#FFFFFF"></path>
                            <path d="M107.314648,7.33773087 L12.4864905,7.33773087 C10.4789875,7.33773087 8.85220487,8.96214187 8.85220487,10.9667181 L8.85220487,81.5986831 C8.85220487,83.6025019 10.4789875,85.2269129 12.4864905,85.2269129 L107.314648,85.2269129 C109.321393,85.2269129 110.948934,83.6025019 110.948934,81.5986831 L110.948934,10.9667181 C110.948934,8.96214187 109.321393,7.33773087 107.314648,7.33773087" id="Fill-165" fill="#E8EFFF"></path>
                            <path d="M56.05742,54.1224953 L56.05742,40.910418 L68.578457,47.5160844 L56.05742,54.1224953 Z M59.9005694,28.9736148 C49.9787423,28.9736148 41.9257931,37.0510948 41.9257931,47.0031458 C41.9257931,56.9559412 49.9787423,65.0334213 59.9005694,65.0334213 C69.8231387,65.0334213 77.8753456,56.9559412 77.8753456,47.0031458 C77.8753456,37.0510948 69.8231387,28.9736148 59.9005694,28.9736148 Z" id="Fill-167" fill="#B4C8F4"></path>
                        </g>
                        <g id="Group-4" transform="translate(196.000000, 21.000000)">
                            <path d="M31.1623276,1 L2.11321941,1 C1.49883503,1 1,1.49627848 1,2.10876696 L1,23.6901439 C1,24.3026324 1.49883503,24.7994723 2.11321941,24.7994723 L31.1623276,24.7994723 C31.7772756,24.7994723 32.2761106,24.3026324 32.2761106,23.6901439 L32.2761106,2.10876696 C32.2761106,1.49627848 31.7772756,1 31.1623276,1" id="Fill-169" fill="#E5E5E5"></path>
                            <path d="M30.1623276,0 L1.11321941,0 C0.498835026,0 0,0.496278478 0,1.10876696 L0,22.6901439 C0,23.3026324 0.498835026,23.7994723 1.11321941,23.7994723 L30.1623276,23.7994723 C30.7772756,23.7994723 31.2761106,23.3026324 31.2761106,22.6901439 L31.2761106,1.10876696 C31.2761106,0.496278478 30.7772756,0 30.1623276,0" id="Fill-171" fill="#FFFFFF"></path>
                            <path d="M27.9628316,2 L3.92139861,2 C3.41264074,2 3,2.4063074 3,2.90725667 L3,20.5650388 C3,21.0659881 3.41264074,21.4722955 3.92139861,21.4722955 L27.9628316,21.4722955 C28.4715894,21.4722955 28.8836778,21.0659881 28.8836778,20.5650388 L28.8836778,2.90725667 C28.8836778,2.4063074 28.4715894,2 27.9628316,2" id="Fill-173" fill="#F4D7E0"></path>
                            <path d="M14.8159963,13.7898947 L14.8159963,10.2228612 L18.1967341,12.0066667 L14.8159963,13.7898947 Z M15.8534775,7 C13.1739894,7 11,9.18110499 11,11.8680739 C11,14.5550428 13.1739894,16.7361478 15.8534775,16.7361478 C18.5323897,16.7361478 20.7063792,14.5550428 20.7063792,11.8680739 C20.7063792,9.18110499 18.5323897,7 15.8534775,7 Z" id="Fill-175" fill="#F54F71"></path>
                        </g>
                        <g id="Group-5" transform="translate(67.000000, 9.000000)">
                            <path d="M15.9613088,0.408970976 L0.935989782,0.408970976 C0.618301724,0.408970976 0.36,0.679671856 0.36,1.01396019 L0.36,12.7855121 C0.36,13.1198004 0.618301724,13.3905013 0.935989782,13.3905013 L15.9613088,13.3905013 C16.2795734,13.3905013 16.5372986,13.1198004 16.5372986,12.7855121 L16.5372986,1.01396019 C16.5372986,0.679671856 16.2795734,0.408970976 15.9613088,0.408970976" id="Fill-177" fill="#E5E5E5"></path>
                            <path d="M15.6013088,0 L0.575989782,0 C0.258301724,0 0,0.27070088 0,0.604989215 L0,12.3765411 C0,12.7108295 0.258301724,12.9815303 0.575989782,12.9815303 L15.6013088,12.9815303 C15.9195734,12.9815303 16.1772986,12.7108295 16.1772986,12.3765411 L16.1772986,0.604989215 C16.1772986,0.27070088 15.9195734,0 15.6013088,0" id="Fill-179" fill="#FFFFFF"></path>
                            <path d="M14.5209098,1 L1.49882394,1 C1.22308022,1 1,1.22529909 1,1.5037855 L1,11.3141565 C1,11.5926429 1.22308022,11.817942 1.49882394,11.817942 L14.5209098,11.817942 C14.7966535,11.817942 15.0203255,11.5926429 15.0203255,11.3141565 L15.0203255,1.5037855 C15.0203255,1.22529909 14.7966535,1 14.5209098,1" id="Fill-181" fill="#FFF1DC"></path>
                            <path d="M7.12003694,7.77200381 L7.12003694,5.78987767 L8.99783816,6.78094074 L7.12003694,7.77200381 Z M7.69621643,4 C6.20801628,4 5,5.21122881 5,6.70416825 C5,8.19710768 6.20801628,9.40897098 7.69621643,9.40897098 C9.18441659,9.40897098 10.3924329,8.19710768 10.3924329,6.70416825 C10.3924329,5.21122881 9.18441659,4 7.69621643,4 Z" id="Fill-183" fill="#FFC965"></path>
                        </g>
                        <g id="Group-6" transform="translate(204.000000, 75.000000)">
                            <path d="M16.1013088,0.4 L1.07598978,0.4 C0.758301724,0.4 0.5,0.67070088 0.5,1.00498921 L0.5,12.7765411 C0.5,13.1108295 0.758301724,13.3815303 1.07598978,13.3815303 L16.1013088,13.3815303 C16.4195734,13.3815303 16.6772986,13.1108295 16.6772986,12.7765411 L16.6772986,1.00498921 C16.6772986,0.67070088 16.4195734,0.4 16.1013088,0.4" id="Fill-185" fill="#E5E5E5"></path>
                            <path d="M15.6013088,0 L0.575989782,0 C0.258301724,0 0,0.27070088 0,0.604989215 L0,12.3765411 C0,12.7108295 0.258301724,12.9815303 0.575989782,12.9815303 L15.6013088,12.9815303 C15.9195734,12.9815303 16.1772986,12.7108295 16.1772986,12.3765411 L16.1772986,0.604989215 C16.1772986,0.27070088 15.9195734,0 15.6013088,0" id="Fill-187" fill="#FFFFFF"></path>
                            <path d="M14.5209098,1 L1.49882394,1 C1.22308022,1 1,1.22529909 1,1.5037855 L1,11.3141565 C1,11.5926429 1.22308022,11.817942 1.49882394,11.817942 L14.5209098,11.817942 C14.7966535,11.817942 15.0203255,11.5926429 15.0203255,11.3141565 L15.0203255,1.5037855 C15.0203255,1.22529909 14.7966535,1 14.5209098,1" id="Fill-189" fill="#FCE1DE"></path>
                            <path d="M7.12003694,7.77200381 L7.12003694,5.78987767 L8.99783816,6.78094074 L7.12003694,7.77200381 Z M7.69621643,4 C6.20801628,4 5,5.21122881 5,6.70416825 C5,8.19710768 6.20801628,9.40897098 7.69621643,9.40897098 C9.18441659,9.40897098 10.3924329,8.19710768 10.3924329,6.70416825 C10.3924329,5.21122881 9.18441659,4 7.69621643,4 Z" id="Fill-191" fill="#FF9988"></path>
                        </g>
                    </g>
                </g>
                <g id="add" transform="translate(162.000000, 114.000000)">
                    <path d="M14,28 C21.7319865,28 28,21.7319865 28,14 C28,6.2680135 21.7319865,0 14,0 C6.2680135,0 0,6.2680135 0,14 C0,21.7319865 6.2680135,28 14,28 Z" id="Mask" fill="#0051BC" fill-rule="nonzero"></path>
                    <rect id="Rectangle" fill="#FAFAFF" fill-rule="nonzero" x="12.6" y="7" width="2.8" height="14" rx="1.4"></rect>
                    <rect id="Rectangle" fill="#FAFAFF" fill-rule="nonzero" x="7" y="12.6" width="14" height="2.8" rx="1.4"></rect>
                </g>
            </g>
        </g>
    </g>
</svg>