<svg width="229" height="139" xmlns="http://www.w3.org/2000/svg"><g fill="none" fill-rule="evenodd"><path d="M44.037 94.5H31.963a.464.464 0 00-.463.466v9.068c0 .257.207.466.463.466h12.074a.464.464 0 00.463-.466v-9.068a.464.464 0 00-.463-.466" fill="#E5E5E5"/><path d="M43.537 94H31.463a.464.464 0 00-.463.466v9.068c0 .257.207.466.463.466h12.074a.464.464 0 00.463-.466v-9.068a.464.464 0 00-.463-.466" fill="#FFF"/><path d="M42.609 95H32.39a.382.382 0 00-.391.373v7.254c0 .206.175.373.391.373H42.61a.382.382 0 00.391-.373v-7.254a.382.382 0 00-.391-.373" fill="#E6C5ED"/><path d="M36.71 100.034V98.44l1.515.797-1.515.797zM37.175 97a2.176 2.176 0 000 4.35 2.176 2.176 0 000-4.35z" fill="#D67DEC"/><path d="M148.468.5h-26.936c-.57 0-1.032.48-1.032 1.072v20.856c0 .592.462 1.072 1.032 1.072h26.936c.57 0 1.032-.48 1.032-1.072V1.572C149.5.98 149.038.5 148.468.5" fill="#E5E5E5"/><path d="M147.932 0h-27.864c-.59 0-1.068.48-1.068 1.072v20.856A1.07 1.07 0 00120.068 23h27.864c.59 0 1.068-.48 1.068-1.072V1.072A1.07 1.07 0 00147.932 0" fill="#FFF"/><path d="M146.11 2h-23.22a.887.887 0 00-.89.885v17.23c0 .488.398.885.89.885h23.22c.491 0 .89-.397.89-.885V2.885a.888.888 0 00-.89-.885" fill="#E6F4F1"/><path d="M133.538 13.277V9.979l3.134 1.649-3.134 1.649zM134.5 7a4.501 4.501 0 00-4.5 4.5c0 2.484 2.016 4.5 4.5 4.5s4.5-2.016 4.5-4.5-2.016-4.5-4.5-4.5z" fill="#27C195"/><g><path d="M43.898 35.5H2.102C1.217 35.5.5 36.23.5 37.13v31.74c0 .9.717 1.63 1.602 1.63h41.796c.885 0 1.602-.73 1.602-1.63V37.13c0-.9-.717-1.63-1.602-1.63" fill="#E5E5E5"/><path d="M43.398 35H1.602C.717 35 0 35.73 0 36.63v31.74C0 69.27.717 70 1.602 70h41.796c.885 0 1.602-.73 1.602-1.63V36.63c0-.9-.717-1.63-1.602-1.63" fill="#FFF"/><path d="M40.647 38H5.353C4.605 38 4 38.605 4 39.351V65.65C4 66.395 4.605 67 5.353 67h35.294c.747 0 1.353-.605 1.353-1.35V39.35c0-.746-.606-1.351-1.353-1.351" fill="#F7D7D5"/><path d="M21.11 55.764v-5.13l4.528 2.565-4.528 2.565zM22.5 46c-3.588 0-6.5 3.136-6.5 7s2.912 7 6.5 7 6.5-3.136 6.5-7-2.912-7-6.5-7z" fill="#FB5C41"/></g><g><path d="M178.329 40.568H67.473c-2.346 0-4.249 1.926-4.249 4.3v83.713c0 2.374 1.903 4.3 4.25 4.3h110.855c2.346 0 4.248-1.926 4.248-4.3V44.869c0-2.375-1.902-4.3-4.248-4.3" fill="#E5E5E5"/><path d="M178.328 39.126H67.472c-2.345 0-4.248 1.925-4.248 4.3v83.711c0 2.376 1.903 4.302 4.248 4.302h110.856c2.346 0 4.249-1.926 4.249-4.302v-83.71c0-2.376-1.903-4.301-4.25-4.301" fill="#FFF"/><path d="M170.315 46.338H75.486a3.631 3.631 0 00-3.634 3.629v70.632a3.631 3.631 0 003.634 3.628h94.829a3.632 3.632 0 003.634-3.628V49.967a3.632 3.632 0 00-3.634-3.63" fill="#E8EFFF"/><path d="M119.057 93.122V79.91l12.521 6.606-12.52 6.606zm3.844-25.148c-9.922 0-17.975 8.077-17.975 18.03 0 9.952 8.053 18.03 17.975 18.03s17.974-8.078 17.974-18.03c0-9.953-8.052-18.03-17.974-18.03z" fill="#B4C8F4"/></g><g><path d="M227.162 22h-29.049c-.614 0-1.113.496-1.113 1.109V44.69c0 .613.499 1.11 1.113 1.11h29.05c.614 0 1.113-.497 1.113-1.11V23.11c0-.613-.499-1.109-1.114-1.109" fill="#E5E5E5"/><path d="M226.162 21h-29.049c-.614 0-1.113.496-1.113 1.109V43.69c0 .613.499 1.11 1.113 1.11h29.05c.614 0 1.113-.497 1.113-1.11V22.11c0-.613-.499-1.109-1.114-1.109" fill="#FFF"/><path d="M223.963 23H199.92a.915.915 0 00-.921.907v17.658c0 .501.413.907.921.907h24.042c.509 0 .92-.406.92-.907V23.907c0-.5-.411-.907-.92-.907" fill="#F4D7E0"/><path d="M210.816 34.79v-3.567l3.38 1.784-3.38 1.783zm1.037-6.79c-2.679 0-4.853 2.181-4.853 4.868 0 2.687 2.174 4.868 4.853 4.868 2.68 0 4.853-2.181 4.853-4.868 0-2.687-2.174-4.868-4.853-4.868z" fill="#F54F71"/></g><g><path d="M82.961 9.409H67.936c-.318 0-.576.27-.576.605v11.772c0 .334.258.605.576.605h15.025c.319 0 .576-.271.576-.605V10.014c0-.334-.257-.605-.576-.605" fill="#E5E5E5"/><path d="M82.601 9H67.576c-.318 0-.576.27-.576.605v11.772c0 .334.258.605.576.605h15.025c.319 0 .576-.271.576-.605V9.605c0-.334-.257-.605-.576-.605" fill="#FFF"/><path d="M81.52 10H68.5a.501.501 0 00-.499.504v9.81c0 .279.223.504.499.504H81.52c.276 0 .5-.225.5-.504v-9.81a.502.502 0 00-.5-.504" fill="#FFF1DC"/><path d="M74.12 16.772V14.79l1.878.99-1.878.992zM74.696 13A2.701 2.701 0 0072 15.704a2.702 2.702 0 002.696 2.705 2.702 2.702 0 002.696-2.705A2.701 2.701 0 0074.696 13z" fill="#FFC965"/></g><g><path d="M220.101 75.4h-15.025c-.318 0-.576.27-.576.605v11.772c0 .334.258.605.576.605h15.025c.319 0 .576-.271.576-.605V76.005c0-.334-.257-.605-.576-.605" fill="#E5E5E5"/><path d="M219.601 75h-15.025c-.318 0-.576.27-.576.605v11.772c0 .334.258.605.576.605h15.025c.319 0 .576-.271.576-.605V75.605c0-.334-.257-.605-.576-.605" fill="#FFF"/><path d="M218.52 76H205.5a.501.501 0 00-.499.504v9.81c0 .279.223.504.499.504h13.022c.276 0 .5-.225.5-.504v-9.81a.502.502 0 00-.5-.504" fill="#FCE1DE"/><path d="M211.12 82.772V80.79l1.878.99-1.878.992zm.576-3.772A2.701 2.701 0 00209 81.704a2.702 2.702 0 002.696 2.705 2.702 2.702 0 002.696-2.705A2.701 2.701 0 00211.696 79z" fill="#F98"/></g><g transform="translate(160 111)" fill-rule="nonzero"><path d="M14 28c7.732 0 14-6.268 14-14S21.732 0 14 0 0 6.268 0 14s6.268 14 14 14z" fill="#0051BC"/><rect fill="#FAFAFF" x="12.6" y="7" width="2.8" height="14" rx="1.4"/><rect fill="#FAFAFF" x="7" y="12.6" width="14" height="2.8" rx="1.4"/></g></g></svg>