<svg width="18" height="14" xmlns="http://www.w3.org/2000/svg"><g transform="translate(-3 -5)" fill="none" fill-rule="evenodd"><path d="M0 0h24v24H0z"/><path d="M3 7c0 .55.45 1 1 1h16c.55 0 1-.45 1-1s-.45-1-1-1H4c-.55 0-1 .45-1 1zm0 5c0 .55.45 1 1 1h16c.55 0 1-.45 1-1s-.45-1-1-1H4c-.55 0-1 .45-1 1zm0 5c0 .55.45 1 1 1h16c.55 0 1-.45 1-1s-.45-1-1-1H4c-.55 0-1 .45-1 1z" fill="#0E69FF" fill-rule="nonzero"/><circle fill="#0E69FF" cx="8" cy="7" r="2"/><circle fill="#0E69FF" cx="16" cy="12" r="2"/><circle fill="#0E69FF" cx="8" cy="17" r="2"/></g></svg>