<?xml version="1.0" encoding="UTF-8"?>
<svg width="7px" height="12px" viewBox="0 0 7 12" version="1.1" xmlns="http://www.w3.org/2000/svg" xmlns:xlink="http://www.w3.org/1999/xlink">
    <!-- Generator: sketchtool 55.2 (78181) - https://sketchapp.com -->
    <title>Forward</title>
    <desc>Created with sketchtool.</desc>
    <g id="desktop-v2" stroke="none" stroke-width="1" fill="none" fill-rule="evenodd">
        <g id="homepage-3" transform="translate(-1018.000000, -1022.000000)">
            <g id="subjects" transform="translate(390.000000, 314.000000)">
                <g transform="translate(0.000000, 98.000000)" id="CTA-all-subjects">
                    <g transform="translate(478.000000, 604.000000)">
                        <g id="Icons-/-actions-/-next" transform="translate(141.000000, 0.000000)">
                            <g id="round-navigate_next-24px">
                                <polygon id="Path" points="0 0 24 0 24 24 0 24"></polygon>
                                <path d="M9.31,6.71 C8.92,7.1 8.92,7.73 9.31,8.12 L13.19,12 L9.31,15.88 C8.92,16.27 8.92,16.9 9.31,17.29 C9.7,17.68 10.33,17.68 10.72,17.29 L15.31,12.7 C15.7,12.31 15.7,11.68 15.31,11.29 L10.72,6.7 C10.34,6.32 9.7,6.32 9.31,6.71 Z" id="Path" fill="#0E69FF"></path>
                            </g>
                        </g>
                    </g>
                </g>
            </g>
        </g>
    </g>
</svg>
