<?xml version="1.0" encoding="UTF-8"?>
<svg width="20px" height="20px" viewBox="0 0 20 20" version="1.1" xmlns="http://www.w3.org/2000/svg" xmlns:xlink="http://www.w3.org/1999/xlink">
    <!-- Generator: sketchtool 53.2 (72643) - https://sketchapp.com -->
    <title>Publically Accessible</title>
    <desc>Icon to show this is public</desc>
    <g id="privacy" stroke="none" stroke-width="1" fill="none" fill-rule="evenodd">
        <g id="collection-public-edit" transform="translate(-324.000000, -141.000000)">
            <g id="Icons-/-dropdown-/-public-display" transform="translate(322.000000, 139.000000)">
                <g id="round-public-24px-(1)" stroke-width="1" fill-rule="evenodd">
                    <polygon id="Path" points="0 0 24 0 24 24 0 24"></polygon>
                </g>
                <path d="M12,22 C17.5228475,22 22,17.5228475 22,12 C22,6.4771525 17.5228475,2 12,2 C6.4771525,2 2,6.4771525 2,12 C2,17.5228475 6.4771525,22 12,22 Z M11.5257235,16.0128617 L10.3794212,15.1655949 C10.3461951,15.1323687 10.1800643,15.1157556 9.88102894,15.1157556 C9.54876742,15.1157556 9.43247588,14.8997856 9.53215434,14.4678457 C9.53215434,14.318328 9.38263666,14.1688103 9.23311897,14.1688103 C8.76795284,14.3017149 8.53536977,14.1688103 8.53536977,13.7700965 C8.46891747,13.4710611 8.36923901,13.3215434 8.23633441,13.3215434 L7.23954984,13.2717042 C7.20632369,13.2717042 7.056806,13.2052519 6.79099678,13.0723473 C6.69131833,13.022508 6.59163987,13.022508 6.54180064,13.0723473 C6.17631297,13.2052519 5.99356913,13.2717042 5.99356913,13.2717042 L5.39549839,13.4212219 C5.22936763,13.454448 5.12968917,13.2717042 5.09646302,12.8729904 C5.14630225,12.6736334 4.99678457,12.4742765 4.79742765,12.4742765 C4.54823151,12.4742765 4.39871383,12.3247588 4.39871383,12.1254019 C4.39871383,11.926045 4.19935691,11.7765273 4,11.8263666 C4,11.4276527 4.04983923,10.9790997 4.14951768,10.5803859 C4.14951768,10.5803859 4.31564845,10.5803859 4.64790997,10.5803859 C5.18226506,10.6298617 4.86899684,10.9123107 5.34565916,11.1784566 L5.74437299,11.1784566 L5.49517685,10.5305466 C5.49517685,9.57691369 6.79099678,9.51814974 7.09003215,8.48713826 C7.05777311,8.28092769 7.10761233,8.13141001 7.23954984,8.03858521 L8.88424437,7.1414791 C9.11682744,6.40937753 8.81779207,5.79469371 7.98713826,5.29742765 C8.585209,4.94855305 9.23311897,4.69935691 9.93086817,4.5 C9.93086817,4.54983923 9.88102894,5.09807074 10.4292605,5.09807074 C10.7947481,5.16452304 10.994105,5.2642015 11.0273312,5.39710611 C11.0631351,5.82904609 11.2957182,6.07824223 11.7250804,6.14469453 L12.3729904,6.14469453 C12.6144369,6.06336197 12.8636331,5.91384429 13.1205788,5.69614148 C13.2960969,5.58787117 13.4954538,5.57125809 13.7186495,5.64630225 C13.9180064,5.69614148 14.6177532,5.47377132 14.5659164,4.79903537 C17.0080386,5.69614148 18.9019293,7.8392283 19.5,10.4308682 C19.5,10.4308682 19.1511254,10.6302251 19.1012862,10.5803859 L18.403537,10.3311897 C18.3536977,10.3311897 18.3536977,9.89460285 17.8553055,9.73311897 C17.5469403,9.63344051 17.1814526,9.65005359 16.7588424,9.7829582 C15.7283034,9.98883969 14.997328,10.6201366 14.5659164,11.6768489 L14.5659164,13.2717042 C14.5659164,13.3713826 14.7773074,14.2186495 15.5128617,14.2186495 L17.2073955,14.3681672 C17.2406217,14.3681672 17.4565916,14.5010718 17.8553055,14.766881 C18.0048232,14.8665595 18.0546624,15.0659164 17.9051447,15.2154341 C17.8054662,15.3151125 17.8054662,15.4646302 17.9051447,15.5643087 C18.3038585,16.062701 18.5032154,16.3285102 18.5032154,16.3617363 C17.107717,18.5546624 14.6655949,20 11.8745981,20 C11.0771704,20 10.2797428,19.9003215 9.53215434,19.6511254 L11.1270096,17.9565916 C11.1602358,17.9233655 11.2433012,17.5412647 11.3762058,16.8102894 C11.3762058,16.7770632 11.4592712,16.6773848 11.6254019,16.511254 C11.7250804,16.3617363 11.6752412,16.1125402 11.5257235,16.0128617 Z" id="Shape" fill="#848FBB" fill-rule="nonzero"></path>
            </g>
        </g>
    </g>
</svg>