<svg width="24" height="24" xmlns="http://www.w3.org/2000/svg"><g fill-rule="nonzero" fill="none"><path d="M8.475 1.125C5.7 2.1 3.3 4.2 1.95 6.825c-.45.9-.825 1.875-.975 2.925-.525 2.475-.15 5.175.975 7.425.75 1.5 1.8 2.775 3.15 3.825 1.2.975 2.625 1.725 4.2 2.1 1.95.525 3.975.525 5.85.075a9.945 9.945 0 004.725-2.475c1.425-1.275 2.4-2.925 2.925-4.8.6-1.95.675-4.05.3-6.075H12.3v4.5h6.225C18.3 15.75 17.4 17.1 16.2 17.85c-.75.525-1.65.825-2.55.975-.9.15-1.875.15-2.775 0-.9-.15-1.8-.6-2.55-1.125-1.2-.825-2.175-2.1-2.625-3.525-.525-1.425-.525-3 0-4.5.375-.975.9-1.95 1.65-2.7.9-.975 2.1-1.65 3.45-1.875 1.125-.225 2.25-.225 3.375.15.9.3 1.8.825 2.475 1.425l2.1-2.1 1.125-1.125A11.76 11.76 0 0016.2 1.125a12.365 12.365 0 00-7.725 0z" fill="#FFF"/><path d="M8.475 1.125C10.95.3 13.725.3 16.2 1.2c1.35.525 2.625 1.275 3.675 2.325L18.75 4.65l-2.1 2.1c-.675-.675-1.575-1.2-2.475-1.425a7.306 7.306 0 00-3.375-.15c-1.275.3-2.475.975-3.45 1.875C6.6 7.8 6 8.775 5.7 9.75 4.425 8.775 3.225 7.8 1.95 6.825 3.3 4.2 5.7 2.1 8.475 1.125z" fill="#EA4335"/><path d="M.975 9.75c.225-.975.525-1.95.975-2.925C3.225 7.8 4.425 8.775 5.7 9.75c-.525 1.425-.525 3 0 4.5-1.275.975-2.475 1.95-3.75 2.925C.825 14.85.45 12.225.975 9.75z" fill="#FBBC05"/><path d="M12.225 9.825h10.8c.375 2.025.3 4.125-.3 6.075a10.69 10.69 0 01-2.925 4.8c-1.2-.975-2.4-1.875-3.675-2.85a5.698 5.698 0 002.325-3.525h-6.225v-4.5z" fill="#4285F4"/><path d="M1.95 17.175c1.275-.975 2.475-1.95 3.75-2.925.45 1.425 1.425 2.7 2.625 3.525.75.525 1.65.9 2.55 1.125.9.15 1.8.15 2.775 0 .9-.15 1.8-.525 2.55-.975 1.2.975 2.4 1.875 3.675 2.85-1.35 1.2-2.925 2.025-4.725 2.475-1.95.45-3.975.45-5.85-.075-1.5-.375-2.925-1.125-4.2-2.1-1.275-1.125-2.4-2.475-3.15-3.9z" fill="#34A853"/></g></svg>