<svg width="24" height="24" xmlns="http://www.w3.org/2000/svg"><g fill="none" fill-rule="nonzero"><path d="M12.168.648c6.36 0 11.52 5.161 11.52 11.52 0 6.36-5.16 11.52-11.52 11.52-6.359 0-11.52-5.16-11.52-11.52C.648 5.81 5.81.648 12.168.648zm0 1.92c-5.299 0-9.6 4.301-9.6 9.6 0 5.3 4.301 9.6 9.6 9.6 5.3 0 9.6-4.3 9.6-9.6 0-5.299-4.3-9.6-9.6-9.6z" fill="#0051BC"/><path d="M12.732 4.848a4.802 4.802 0 00-5.316 3.348A1.088 1.088 0 008.46 9.6h.24c.492 0 .888-.348 1.056-.804a2.402 2.402 0 012.76-1.536c1.14.24 1.98 1.356 1.884 2.52-.12 1.608-1.944 1.956-2.94 3.456 0 .012-.012.012-.012.024-.012.024-.024.036-.036.06-.108.18-.216.384-.3.6-.012.036-.036.06-.048.096-.012.024-.012.048-.024.084-.144.408-.24.9-.24 1.5h2.4c0-.504.132-.924.336-1.284.024-.036.036-.072.06-.108a3.31 3.31 0 01.336-.468c.012-.012.024-.036.036-.048.12-.144.252-.276.396-.408 1.152-1.092 2.712-1.98 2.388-4.272-.288-2.088-1.932-3.852-4.02-4.164z" fill="#FB5C41"/><circle fill="#0051BC" cx="12" cy="18.5" r="1.5"/></g></svg>