<?xml version="1.0" encoding="UTF-8"?>
<svg width="24px" height="23px" viewBox="0 0 24 23" version="1.1" xmlns="http://www.w3.org/2000/svg" xmlns:xlink="http://www.w3.org/1999/xlink">
    <!-- Generator: sketchtool 55.2 (78181) - https://sketchapp.com -->
    <title>1CD40061-2FC0-4157-97DA-601055D911E4</title>
    <desc>Created with sketchtool.</desc>
    <g id="desktop" stroke="none" stroke-width="1" fill="none" fill-rule="evenodd">
        <g id="icons" transform="translate(-407.000000, -28.000000)">
            <g id="top-nav">
                <g id="selected" transform="translate(402.000000, 28.000000)">
                    <g id="home-off">
                        <g id="home-on" transform="translate(5.000000, 0.000000)">
                            <g id="round-home-24px">
                                <polygon id="Path" points="0 0 24 0 24 24 0 24"></polygon>
                                <path d="M10.1569642,14 C8.96301758,14 8.5,15.0864648 8.5,15.6602753 L8.5,21.52 L15.74,21.52 L15.74,15.6602753 C15.74,14.56 15.1488086,14 14.0830358,14 L10.1569642,14 Z" id="Shape" fill="#FF654C" fill-rule="nonzero"></path>
                                <path d="M20.0031459,22.7712151 C20.5769564,22.7712151 21.0601652,22.2880063 21.0601652,21.7141958 L21.0601652,12.2010224 L22.9325993,12.2010224 C23.3856076,12.2010224 23.7480142,11.9292175 23.9292175,11.5366103 C24.0802202,11.1138026 23.9896186,10.6607943 23.6574125,10.3587888 L12.7248132,0.271804955 C12.3322061,-0.0906016516 11.6979945,-0.0906016516 11.2751868,0.271804955 L0.342587495,10.3587888 C0.0103814392,10.6607943 -0.0802202123,11.1138026 0.0707825403,11.5366103 C0.221785293,11.959418 0.61439245,12.2010224 1.06740071,12.2010224 L2.93983484,12.2010224 L2.93983484,21.7141958 C2.93983484,22.2880063 3.42304365,22.7712151 3.99685411,22.7712151 L20.0031459,22.7712151 Z M4.75,20.96 L4.75,12.0500197 C4.75,10.39 4.75,10.39 4.29,10.39 L3.23,10.39 L12,2.44 L20.77,10.39 L19.71,10.39 C19.25,10.39 19.25,10.39 19.25,12.0500197 L19.25,20.96 L4.75,20.96 Z" id="Shape" fill="#0051BC" fill-rule="nonzero"></path>
                            </g>
                        </g>
                    </g>
                </g>
            </g>
        </g>
    </g>
</svg>