<svg width="24" height="23" xmlns="http://www.w3.org/2000/svg"><g fill="none" fill-rule="evenodd"><path d="M0 0h24v24H0z"/><path d="M10.157 14C8.963 14 8.5 15.086 8.5 15.66v5.86h7.24v-5.86c0-1.1-.591-1.66-1.657-1.66h-3.926z" fill="#FB5C41" fill-rule="nonzero"/><path d="M20.003 22.771a1.07 1.07 0 001.057-1.057v-9.513h1.873c.453 0 .815-.272.996-.664.151-.423.06-.876-.272-1.178L12.725.272c-.393-.363-1.027-.363-1.45 0L.343 10.359c-.333.302-.423.755-.272 1.178.15.422.543.664.996.664H2.94v9.513a1.07 1.07 0 001.057 1.057h16.006zM4.75 20.96v-8.91c0-1.66 0-1.66-.46-1.66H3.23L12 2.44l8.77 7.95h-1.06c-.46 0-.46 0-.46 1.66v8.91H4.75z" fill="#0051BC" fill-rule="nonzero"/></g></svg>