<svg width="24" height="24" xmlns="http://www.w3.org/2000/svg"><g fill="#B4C8F4" fill-rule="nonzero"><path d="M10.157 14.609c-1.194 0-1.657 1.133-1.657 1.732v6.115h7.24V16.34c0-1.148-.591-1.732-1.657-1.732h-3.926z"/><path d="M20.003 23.761c.574 0 1.057-.504 1.057-1.103v-9.926h1.873c.453 0 .815-.284.996-.694.151-.441.06-.914-.272-1.229L12.725.284c-.393-.379-1.027-.379-1.45 0L.343 10.809c-.333.315-.423.788-.272 1.23.15.44.543.693.996.693H2.94v9.926c0 .599.483 1.103 1.057 1.103h16.006zM4.75 21.871v-9.297c0-1.732 0-1.732-.46-1.732H3.23L12 2.546l8.77 8.296h-1.06c-.46 0-.46 0-.46 1.732v9.297H4.75z"/></g></svg>