<?xml version="1.0" encoding="UTF-8"?>
<svg width="24px" height="24px" viewBox="0 0 24 24" version="1.1" xmlns="http://www.w3.org/2000/svg" xmlns:xlink="http://www.w3.org/1999/xlink">
    <!-- Generator: sketchtool 55.2 (78181) - https://sketchapp.com -->
    <title>Icons / homepage</title>
    <desc>Created with sketchtool.</desc>
    <g id="desktop" stroke="none" stroke-width="1" fill="none" fill-rule="evenodd">
        <g id="icons" transform="translate(-30.000000, -28.000000)" fill="#B4C8F4" fill-rule="nonzero">
            <g id="top-nav">
                <g id="home" transform="translate(25.000000, 28.000000)">
                    <g transform="translate(5.000000, 0.000000)" id="Shape">
                        <path d="M10.1569642,14.6086957 C8.96301758,14.6086957 8.5,15.7423981 8.5,16.3411568 L8.5,22.4556522 L15.74,22.4556522 L15.74,16.3411568 C15.74,15.1930435 15.1488086,14.6086957 14.0830358,14.6086957 L10.1569642,14.6086957 Z"></path>
                        <path d="M20.0031459,23.7612679 C20.5769564,23.7612679 21.0601652,23.25705 21.0601652,22.6582913 L21.0601652,12.7315016 L22.9325993,12.7315016 C23.3856076,12.7315016 23.7480142,12.4478791 23.9292175,12.0382021 C24.0802202,11.5970114 23.9896186,11.1243071 23.6574125,10.809171 L12.7248132,0.283622562 C12.3322061,-0.0945408538 11.6979945,-0.0945408538 11.2751868,0.283622562 L0.342587495,10.809171 C0.0103814392,11.1243071 -0.0802202123,11.5970114 0.0707825403,12.0382021 C0.221785293,12.4793927 0.61439245,12.7315016 1.06740071,12.7315016 L2.93983484,12.7315016 L2.93983484,22.6582913 C2.93983484,23.25705 3.42304365,23.7612679 3.99685411,23.7612679 L20.0031459,23.7612679 Z M4.75,21.8713043 L4.75,12.5739336 C4.75,10.8417391 4.75,10.8417391 4.29,10.8417391 L3.23,10.8417391 L12,2.54608696 L20.77,10.8417391 L19.71,10.8417391 C19.25,10.8417391 19.25,10.8417391 19.25,12.5739336 L19.25,21.8713043 L4.75,21.8713043 Z"></path>
                    </g>
                </g>
            </g>
        </g>
    </g>
</svg>
