<svg width="21" height="41" xmlns="http://www.w3.org/2000/svg"><path d="M17.22 12.997v-2.469a6.906 6.906 0 00-2.012-4.911 6.849 6.849 0 00-4.882-2.038h-.014a6.89 6.89 0 00-4.894 2.022 6.886 6.886 0 00-2.04 4.9v2.496H0v-2.5a10.247 10.247 0 013.035-7.29A10.248 10.248 0 0110.31.2h.021a10.205 10.205 0 017.275 3.036 10.259 10.259 0 012.992 7.295v2.466H17.22zm0-.017v18.044c-.003 1.812-.544 3.314-1.561 4.345-.925.937-2.238 1.452-3.696 1.452h-.011c-2.881-.006-5.222-2.36-5.218-5.249V21.013a2.242 2.242 0 012.244-2.23c1.228.002 2.187.986 2.185 2.241v7.071a1.69 1.69 0 003.379 0v-7.067c.004-3.095-2.487-5.618-5.555-5.624h-.012a5.625 5.625 0 00-5.62 5.606v10.56c-.007 4.748 3.846 8.619 8.59 8.63h.018c2.37 0 4.535-.872 6.1-2.457 1.654-1.676 2.531-3.998 2.535-6.717V12.98H17.22z" fill="#A0C6FF" fill-rule="nonzero"/></svg>