<?xml version="1.0" encoding="UTF-8"?>
<svg width="15px" height="20px" viewBox="0 0 15 20" version="1.1" xmlns="http://www.w3.org/2000/svg" xmlns:xlink="http://www.w3.org/1999/xlink">
    <!-- Generator: sketchtool 55.2 (78181) - https://sketchapp.com -->
    <title>Lesson Guide</title>
    <desc>Created with sketchtool.</desc>
    <g id="desktop-v2" stroke="none" stroke-width="1" fill="none" fill-rule="evenodd">
        <g id="assets" transform="translate(-75.000000, -42.000000)" fill="#FB5C41" fill-rule="nonzero">
            <g id="Icons-/-actions-/-lesson-guide" transform="translate(73.000000, 42.000000)">
                <g id="noun_Document_1989120" transform="translate(2.000000, 0.000000)">
                    <g id="Group" transform="translate(0.004678, 0.000000)">
                        <path d="M14.8120333,5 L9.8294347,0 L9.8294347,3.9675174 C9.8294347,4.54176334 10.3108732,4.99419954 10.8851192,4.99419954 L14.8120333,4.99419954 L14.8120333,5 Z M8.5877193,4.25650088 C8.5877193,5.42287301 9.51968202,6.36202979 10.6468202,6.36202979 L14.8333333,6.36202979 L14.8333333,18.6064125 C14.8333333,19.3890432 14.2331689,20 13.4817434,20 L1.35158991,20 C0.600164474,20 0,19.3839939 0,18.6064125 L0,1.39358748 C0,0.610956829 0.600164474,0 1.35158991,0 L8.5877193,0 L8.5877193,4.25650088 Z M3.3294347,8.33333333 C2.87110136,8.33333333 2.49610136,8.70833333 2.49610136,9.16666667 C2.49610136,9.625 2.87110136,10 3.3294347,10 C3.78776803,10 4.16276803,9.625 4.16276803,9.16666667 C4.16276803,8.70833333 3.78776803,8.33333333 3.3294347,8.33333333 Z M3.3294347,11.6666667 C2.87110136,11.6666667 2.49610136,12.0416667 2.49610136,12.5 C2.49610136,12.9583333 2.87110136,13.3333333 3.3294347,13.3333333 C3.78776803,13.3333333 4.16276803,12.9583333 4.16276803,12.5 C4.16276803,12.0416667 3.78776803,11.6666667 3.3294347,11.6666667 Z M3.3294347,15 C2.87110136,15 2.49610136,15.375 2.49610136,15.8333333 C2.49610136,16.2916667 2.87110136,16.6666667 3.3294347,16.6666667 C3.78776803,16.6666667 4.16276803,16.2916667 4.16276803,15.8333333 C4.16276803,15.375 3.78776803,15 3.3294347,15 Z M9.28181565,16.6666667 C9.67467279,16.6666667 9.99610136,16.2916667 9.99610136,15.8333333 C9.99610136,15.375 9.67467279,15 9.28181565,15 L5.71038708,15 C5.31752994,15 4.99610136,15.375 4.99610136,15.8333333 C4.99610136,16.2916667 5.31752994,16.6666667 5.71038708,16.6666667 L9.28181565,16.6666667 Z M11.7461014,13.3333333 C12.1586014,13.3333333 12.4961014,12.9583333 12.4961014,12.5 C12.4961014,12.0416667 12.1586014,11.6666667 11.7461014,11.6666667 L5.74610136,11.6666667 C5.33360136,11.6666667 4.99610136,12.0416667 4.99610136,12.5 C4.99610136,12.9583333 5.33360136,13.3333333 5.74610136,13.3333333 L11.7461014,13.3333333 Z M11.7461014,10 C12.1586014,10 12.4961014,9.625 12.4961014,9.16666667 C12.4961014,8.70833333 12.1586014,8.33333333 11.7461014,8.33333333 L5.74610136,8.33333333 C5.33360136,8.33333333 4.99610136,8.70833333 4.99610136,9.16666667 C4.99610136,9.625 5.33360136,10 5.74610136,10 L11.7461014,10 Z" id="Shape"></path>
                    </g>
                </g>
            </g>
        </g>
    </g>
</svg>
