<?xml version="1.0" encoding="UTF-8"?>
<svg width="21px" height="41px" viewBox="0 0 21 41" version="1.1" xmlns="http://www.w3.org/2000/svg" xmlns:xlink="http://www.w3.org/1999/xlink">
    <!-- Generator: sketchtool 55.2 (78181) - https://sketchapp.com -->
    <title></title>
    <desc></desc>
    <g id="collection-lesson-guide" stroke="none" stroke-width="1" fill="none" fill-rule="evenodd">
        <g transform="translate(-743.000000, -227.000000)" fill="#A0C6FF" fill-rule="nonzero" id="lesson-clip">
            <path d="M760.219994,239.997419 L760.219994,237.528085 C760.223378,235.671627 759.509486,233.928068 758.208183,232.616578 C756.907729,231.305938 755.173507,230.582709 753.325538,230.579313 C753.320445,230.579313 753.316201,230.579313 753.311956,230.579313 C751.464836,230.579313 749.727219,231.297449 748.418276,232.601299 C747.105938,233.908544 746.38186,235.647859 746.378464,237.500072 L746.378464,239.997419 L743,239.997419 L743,237.496677 C743.005942,234.738729 744.082297,232.150554 746.034676,230.206664 C747.981962,228.267866 750.565893,227.2 753.311107,227.2 C753.317049,227.2 753.325538,227.2 753.332329,227.2 C756.085183,227.205093 758.669114,228.283146 760.607063,230.236374 C762.541615,232.186206 763.604389,234.776928 763.59852,237.53148 L763.59852,239.997419 L760.219994,239.997419 Z M760.219982,239.980442 L760.219982,258.023819 C760.216587,259.836136 759.675863,261.33777 758.658928,262.369135 C757.73367,263.306277 756.421332,263.820687 754.96299,263.820687 C754.959594,263.820687 754.95535,263.820687 754.951955,263.820687 C752.070922,263.814745 749.729765,261.461704 749.73401,258.572183 L749.73401,248.013208 C749.736556,246.78321 750.742456,245.783252 751.977548,245.783252 C753.205849,245.78495 754.165061,246.768779 754.162514,248.024243 L754.162514,255.095251 C754.162514,256.028997 754.920547,256.784483 755.852595,256.784483 C756.784644,256.784483 757.541828,256.028148 757.541828,255.095251 L757.541828,248.027639 C757.546072,244.932694 755.054667,242.409881 751.986885,242.403939 C751.98349,242.403939 751.980094,242.403939 751.975001,242.403939 C748.880905,242.403939 746.361487,244.915717 746.354687,248.009813 L746.354687,258.570485 C746.347905,263.318161 750.200883,267.188965 754.945164,267.2 C754.951106,267.2 754.957048,267.2 754.96299,267.2 C757.332159,267.2 759.497602,266.32822 761.062052,264.743398 C762.717329,263.066899 763.594202,260.745265 763.598447,258.025517 L763.598447,239.980442 L760.219982,239.980442 Z"></path>
        </g>
    </g>
</svg>
