<svg width="15" height="20" xmlns="http://www.w3.org/2000/svg"><path d="M14.817 5L9.834 0v3.968c0 .574.482 1.026 1.056 1.026h3.927V5zm-6.225-.743c0 1.166.932 2.105 2.06 2.105h4.186v12.244c0 .783-.6 1.394-1.352 1.394H1.356c-.751 0-1.351-.616-1.351-1.394V1.394C.005.61.605 0 1.356 0h7.236v4.257zM3.334 8.333a.836.836 0 00-.833.834c0 .458.375.833.833.833a.836.836 0 00.833-.833.836.836 0 00-.833-.834zm0 3.334a.836.836 0 00-.833.833c0 .458.375.833.833.833a.836.836 0 00.833-.833.836.836 0 00-.833-.833zm0 3.333a.836.836 0 00-.833.833c0 .459.375.834.833.834a.836.836 0 00.833-.834.836.836 0 00-.833-.833zm5.952 1.667c.393 0 .715-.375.715-.834 0-.458-.322-.833-.715-.833h-3.57c-.394 0-.715.375-.715.833 0 .459.321.834.714.834h3.571zm2.465-3.334c.412 0 .75-.375.75-.833 0-.458-.338-.833-.75-.833h-6c-.413 0-.75.375-.75.833 0 .458.337.833.75.833h6zm0-3.333c.412 0 .75-.375.75-.833 0-.459-.338-.834-.75-.834h-6c-.413 0-.75.375-.75.834 0 .458.337.833.75.833h6z" fill="#FB5C41" fill-rule="nonzero"/></svg>