<svg width="24" height="24" viewBox="0 0 18 18" xmlns="http://www.w3.org/2000/svg"><g fill="none" fill-rule="evenodd"><path d="M-3-3h24v24H-3z"/><path d="M7.79 13.29c.39.39 1.02.39 1.41 0l3.59-3.59a.996.996 0 000-1.41L9.2 4.7a.996.996 0 10-1.41 1.41L9.67 8H1c-.55 0-1 .45-1 1s.45 1 1 1h8.67l-1.88 1.88c-.39.39-.38 1.03 0 1.41zM16 0H2a2 2 0 00-2 2v3c0 .55.45 1 1 1s1-.45 1-1V3c0-.55.45-1 1-1h12c.55 0 1 .45 1 1v12c0 .55-.45 1-1 1H3c-.55 0-1-.45-1-1v-2c0-.55-.45-1-1-1s-1 .45-1 1v3c0 1.1.9 2 2 2h14c1.1 0 2-.9 2-2V2c0-1.1-.9-2-2-2z" fill="#B4C8F4" fill-rule="nonzero"/></g></svg>