<?xml version="1.0" encoding="UTF-8"?>
<svg width="40px" height="40px" viewBox="0 0 40 40" version="1.1" xmlns="http://www.w3.org/2000/svg" xmlns:xlink="http://www.w3.org/1999/xlink">
    <!-- Generator: sketchtool 52.6 (67491) - http://www.bohemiancoding.com/sketch -->
    <title>My Account Menu</title>
    <desc>An icon to open my account menu</desc>
    <g id="default-collection" stroke="none" stroke-width="1" fill="none" fill-rule="evenodd">
        <g id="my-account" transform="translate(-1005.000000, -26.000000)" fill="#C3D3F5" fill-rule="nonzero">
            <g id="save-background">
                <g id="Group-2">
                    <g id="HEADER">
                        <g id="navigation-/-header-no-shadow">
                            <g id="Icons-/-my_account" transform="translate(1005.000000, 26.000000)">
                                <g id="round-account_circle-24px">
                                    <path d="M20,0.392156863 C9.17647059,0.392156863 0.392156863,9.17647059 0.392156863,20 C0.392156863,30.8235294 9.17647059,39.6078431 20,39.6078431 C30.8235294,39.6078431 39.6078431,30.8235294 39.6078431,20 C39.6078431,9.17647059 30.8235294,0.392156863 20,0.392156863 Z M20,6.2745098 C23.254902,6.2745098 25.8823529,8.90196078 25.8823529,12.1568627 C25.8823529,15.4117647 23.254902,18.0392157 20,18.0392157 C16.745098,18.0392157 14.1176471,15.4117647 14.1176471,12.1568627 C14.1176471,8.90196078 16.745098,6.2745098 20,6.2745098 Z M20,34.1176471 C15.0980392,34.1176471 10.7647059,31.6078431 8.23529412,27.8039216 C8.29411765,23.9019608 16.0784314,21.7647059 20,21.7647059 C23.9019608,21.7647059 31.7058824,23.9019608 31.7647059,27.8039216 C29.2352941,31.6078431 24.9019608,34.1176471 20,34.1176471 Z" id="Shape"></path>
                                </g>
                            </g>
                        </g>
                    </g>
                </g>
            </g>
        </g>
    </g>
</svg>