<svg width="24" height="24" xmlns="http://www.w3.org/2000/svg"><g fill-rule="nonzero" fill="none"><path d="M12.168.648c6.36 0 11.52 5.161 11.52 11.52 0 6.36-5.16 11.52-11.52 11.52-6.359 0-11.52-5.16-11.52-11.52C.648 5.81 5.81.648 12.168.648zm0 1.92c-5.299 0-9.6 4.301-9.6 9.6 0 5.3 4.301 9.6 9.6 9.6 5.3 0 9.6-4.3 9.6-9.6 0-5.299-4.3-9.6-9.6-9.6z" fill="#0E69FF"/><path d="M12.168 4.62a3.57 3.57 0 013.576 3.576 3.57 3.57 0 01-3.576 3.575 3.57 3.57 0 01-3.575-3.575 3.57 3.57 0 013.575-3.575z" fill="#FB5C41"/><path d="M12.168 20.51c-2.813 0-5.3-1.452-6.753-3.654.034-2.259 4.502-3.496 6.753-3.496 2.24 0 6.72 1.237 6.754 3.496-1.452 2.202-3.94 3.655-6.754 3.655z" fill="#0E69FF"/></g></svg>