<?xml version="1.0" encoding="UTF-8"?>
<svg width="25px" height="25px" viewBox="0 0 25 25" version="1.1" xmlns="http://www.w3.org/2000/svg" xmlns:xlink="http://www.w3.org/1999/xlink">
    <!-- Generator: sketchtool 54.1 (76490) - https://sketchapp.com -->
    <title>4A5F5E15-7DBA-4FDD-A821-FC0EBD9CF94E</title>
    <desc>Created with sketchtool.</desc>
    <g id="desktop" stroke="none" stroke-width="1" fill="none" fill-rule="evenodd">
        <g id="icons" transform="translate(-550.000000, -28.000000)" fill-rule="nonzero">
            <g id="top-nav">
                <g id="selected" transform="translate(402.000000, 28.000000)">
                    <g id="Group-4" transform="translate(129.000000, 0.000000)">
                        <g id="my-account-on" transform="translate(19.000000, 0.000000)">
                            <path d="M12.6754564,0.675456389 C19.2994564,0.675456389 24.6754564,6.05145639 24.6754564,12.6754564 C24.6754564,19.2994564 19.2994564,24.6754564 12.6754564,24.6754564 C6.05145639,24.6754564 0.675456389,19.2994564 0.675456389,12.6754564 C0.675456389,6.05145639 6.05145639,0.675456389 12.6754564,0.675456389 Z M12.6754564,2.67545639 C7.15545639,2.67545639 2.67545639,7.15545639 2.67545639,12.6754564 C2.67545639,18.1954564 7.15545639,22.6754564 12.6754564,22.6754564 C18.1954564,22.6754564 22.6754564,18.1954564 22.6754564,12.6754564 C22.6754564,7.15545639 18.1954564,2.67545639 12.6754564,2.67545639 Z" id="Shape" fill="#0051BC"></path>
                            <path d="M12.6754564,4.81338742 C14.736146,4.81338742 16.3995943,6.4768357 16.3995943,8.53752535 C16.3995943,10.598215 14.736146,12.2616633 12.6754564,12.2616633 C10.6147667,12.2616633 8.95131846,10.598215 8.95131846,8.53752535 C8.95131846,6.4768357 10.6147667,4.81338742 12.6754564,4.81338742 Z" id="Path" fill="#FF654C"></path>
                            <path d="M12.6754564,21.3651116 C9.74442191,21.3651116 7.15338742,19.8518111 5.64097363,17.558215 C5.67614604,15.2055057 10.3306288,13.9168357 12.6754564,13.9168357 C15.0085598,13.9168357 19.6747667,15.2055057 19.7099391,17.558215 C18.1975254,19.8518111 15.6064909,21.3651116 12.6754564,21.3651116 Z" id="Path" fill="#FF654C"></path>
                        </g>
                    </g>
                </g>
            </g>
        </g>
    </g>
</svg>