<?xml version="1.0" encoding="UTF-8"?>
<svg width="24px" height="24px" viewBox="0 0 24 24" version="1.1" xmlns="http://www.w3.org/2000/svg" xmlns:xlink="http://www.w3.org/1999/xlink">
    <!-- Generator: Sketch 54 (76480) - https://sketchapp.com -->
    <title>Bookmarks</title>
    <desc>Icon for bookmarks</desc>
    <g id="Icons-/-dropdown-/-bookmarks" stroke="none" stroke-width="1" fill="none" fill-rule="evenodd">
        <g id="round-bookmarks-24px">
            <polygon id="Path" points="0 0 24 0 24 24 0 24"></polygon>
            <path d="M19,18 L19,5 C19,3.9 18.1,3 17,3 L7,3 C7,1.9 7.89,1 8.99,1 L19,1 C20.1,1 21,1.9 21,3 L21,19 L19,18 Z M15,5 C16.1,5 17,5.9 17,7 L17,23 L10,20 L3,23 L3,7 C3,5.9 3.9,5 5,5 L15,5 Z M15,20 L15,8 C15,7.45 14.55,7 14,7 L6,7 C5.45,7 5,7.45 5,8 L5,20 L10,17.82 L15,20 Z" id="Shape" fill="#B4C8F4" fill-rule="nonzero"></path>
        </g>
    </g>
</svg>