<?xml version="1.0" encoding="UTF-8"?>
<svg width="24px" height="20px" viewBox="0 0 24 20" version="1.1" xmlns="http://www.w3.org/2000/svg" xmlns:xlink="http://www.w3.org/1999/xlink">
    <!-- Generator: sketchtool 54.1 (76490) - https://sketchapp.com -->
    <title>0D2BEB4C-DA74-4CD0-A322-D50CFC600B02</title>
    <desc>Created with sketchtool.</desc>
    <g id="desktop" stroke="none" stroke-width="1" fill="none" fill-rule="evenodd">
        <g id="icons" transform="translate(-474.000000, -30.000000)" fill-rule="nonzero">
            <g id="top-nav">
                <g id="selected" transform="translate(402.000000, 28.000000)">
                    <g id="Group" transform="translate(55.000000, 0.000000)">
                        <g id="my-collections-on" transform="translate(17.000000, 2.000000)">
                            <g id="round-subscriptions-24px-(1)" transform="translate(13.000000, 4.000000)" fill="#FF654C">
                                <path d="M8.95,-8.8817842e-16 L1.45,-8.8817842e-16 C0.8175,-8.8817842e-16 0.3,0.514285714 0.3,1.14285714 C0.3,1.77142857 0.8175,2.28571429 1.45,2.28571429 L8.95,2.28571429 C9.5825,2.28571429 10.1,1.77142857 10.1,1.14285714 C10.1,0.514285714 9.5825,-8.8817842e-16 8.95,-8.8817842e-16 Z" id="Path"></path>
                                <path d="M8.95,8 L5.45,8 C4.8175,8 4.3,8.51428571 4.3,9.14285714 C4.3,9.77142857 4.8175,10.2857143 5.45,10.2857143 L8.95,10.2857143 C9.5825,10.2857143 10.1,9.77142857 10.1,9.14285714 C10.1,8.51428571 9.5825,8 8.95,8 Z" id="Path"></path>
                                <path d="M8.95,4 L3.45,4 C2.8175,4 2.3,4.51428571 2.3,5.14285714 C2.3,5.77142857 2.8175,6.28571429 3.45,6.28571429 L8.95,6.28571429 C9.5825,6.28571429 10.1,5.77142857 10.1,5.14285714 C10.1,4.51428571 9.5825,4 8.95,4 Z" id="Path"></path>
                            </g>
                            <g id="Group" fill="#0051BC">
                                <path d="M7.7523511,0 C9.82865204,0 11.5047022,1.67605016 11.5047022,3.7523511 C11.5047022,5.82865204 9.82865204,7.50470219 7.7523511,7.50470219 C5.67605016,7.50470219 4,5.82865204 4,3.7523511 C4,1.67605016 5.67605016,0 7.7523511,0 Z" id="Path"></path>
                                <path d="M0,18.3279081 C0.04,16.0409919 2.27037867,9 8,9 C13.7296213,9 15.96,16.0409919 16,18.3279081 C14.28,20.557364 1.72,20.557364 0,18.3279081 Z" id="Path"></path>
                            </g>
                        </g>
                    </g>
                </g>
            </g>
        </g>
    </g>
</svg>