<?xml version="1.0" encoding="UTF-8"?>
<svg width="25px" height="24px" viewBox="0 0 25 24" version="1.1" xmlns="http://www.w3.org/2000/svg" xmlns:xlink="http://www.w3.org/1999/xlink">
    <!-- Generator: sketchtool 55.2 (78181) - https://sketchapp.com -->
    <title>459BEDE9-0623-4269-9289-C110EC65F611</title>
    <desc>Created with sketchtool.</desc>
    <g id="desktop" stroke="none" stroke-width="1" fill="none" fill-rule="evenodd">
        <g id="icons" transform="translate(-94.000000, -28.000000)" fill="#B4C8F4" fill-rule="nonzero">
            <g id="top-nav">
                <g id="non-selected" transform="translate(77.000000, 28.000000)">
                    <g id="Group">
                        <g id="my-videos" transform="translate(17.000000, 0.000000)">
                            <g id="Icons-/-titles-/-collections">
                                <g id="round-subscriptions-24px-(1)" transform="translate(14.000000, 6.000000)">
                                    <path d="M8.95,-8.8817842e-16 L1.45,-8.8817842e-16 C0.8175,-8.8817842e-16 0.3,0.514285714 0.3,1.14285714 C0.3,1.77142857 0.8175,2.28571429 1.45,2.28571429 L8.95,2.28571429 C9.5825,2.28571429 10.1,1.77142857 10.1,1.14285714 C10.1,0.514285714 9.5825,-8.8817842e-16 8.95,-8.8817842e-16 Z" id="Path"></path>
                                    <path d="M8.95,8 L5.45,8 C4.8175,8 4.3,8.51428571 4.3,9.14285714 C4.3,9.77142857 4.8175,10.2857143 5.45,10.2857143 L8.95,10.2857143 C9.5825,10.2857143 10.1,9.77142857 10.1,9.14285714 C10.1,8.51428571 9.5825,8 8.95,8 Z" id="Path"></path>
                                    <path d="M8.95,4 L3.45,4 C2.8175,4 2.3,4.51428571 2.3,5.14285714 C2.3,5.77142857 2.8175,6.28571429 3.45,6.28571429 L8.95,6.28571429 C9.5825,6.28571429 10.1,5.77142857 10.1,5.14285714 C10.1,4.51428571 9.5825,4 8.95,4 Z" id="Path"></path>
                                </g>
                                <g id="Group">
                                    <path d="M8.8,0 C11.0133333,0 12.8,1.78666667 12.8,4 C12.8,6.21333333 11.0133333,8 8.8,8 C6.58666667,8 4.8,6.21333333 4.8,4 C4.8,1.78666667 6.58666667,0 8.8,0 Z" id="Path"></path>
                                    <path d="M0,21.7198746 C0.045,18.6013527 2.554176,9 9,9 C15.445824,9 17.955,18.6013527 18,21.7198746 C16.065,24.7600418 1.935,24.7600418 0,21.7198746 Z" id="Path"></path>
                                </g>
                            </g>
                        </g>
                    </g>
                </g>
            </g>
        </g>
    </g>
</svg>