<?xml version="1.0" encoding="UTF-8"?>
<svg width="20px" height="21px" viewBox="0 0 20 21" version="1.1" xmlns="http://www.w3.org/2000/svg" xmlns:xlink="http://www.w3.org/1999/xlink">
    <!-- Generator: sketchtool 55.2 (78181) - https://sketchapp.com -->
    <title>779527A5-4513-4EDB-9B82-4CE8451F10CC</title>
    <desc>Created with sketchtool.</desc>
    <g id="Styles" stroke="none" stroke-width="1" fill="none" fill-rule="evenodd">
        <g id="Icons" transform="translate(-130.000000, -578.000000)">
            <g id="Icons-/-titles-/-collections" transform="translate(128.000000, 577.000000)">
                <g id="round-subscriptions-24px-(1)" transform="translate(2.000000, 1.000000)" fill="#0051BC" fill-rule="nonzero">
                    <path d="M17,6 L3,6 C2.45,6 2,5.55 2,5 C2,4.45 2.45,4 3,4 L17,4 C17.55,4 18,4.45 18,5 C18,5.55 17.55,6 17,6 Z M15,0 L5,0 C4.45,0 4,0.45 4,1 C4,1.55 4.45,2 5,2 L15,2 C15.55,2 16,1.55 16,1 C16,0.45 15.55,0 15,0 Z M20,10.1666667 L20,18.8333333 C20,20.025 19.1,21 18,21 L2,21 C0.9,21 0,20.025 0,18.8333333 L0,10.1666667 C0,8.975 0.9,8 2,8 L18,8 C19.1,8 20,8.975 20,10.1666667 Z M18.5,11.1666667 C18.5,10.25 17.735,9.5 16.8,9.5 L3.2,9.5 C2.265,9.5 1.5,10.25 1.5,11.1666667 L1.5,17.8333333 C1.5,18.75 2.265,19.5 3.2,19.5 L16.8,19.5 C17.735,19.5 18.5,18.75 18.5,17.8333333 L18.5,11.1666667 Z" id="Shape"></path>
                </g>
                <path d="M10.5,18.7315684 L14.4800004,16.4515682 C15.1500004,16.0715682 15.1500004,15.1015681 14.4800004,14.7115681 L10.5,12.431568 C9.83000006,12.0515679 9,12.541568 9,13.301568 L9,17.8515683 C9,18.6215684 9.83000006,19.1115684 10.5,18.7315684 Z" id="Path" fill="#FB5C41" fill-rule="nonzero"></path>
                <path d="M19,7 L5,7 C4.45,7 4,6.55 4,6 C4,5.45 4.45,5 5,5 L19,5 C19.55,5 20,5.45 20,6 C20,6.55 19.55,7 19,7 Z" id="Path" fill="#0051BC"></path>
                <path d="M17,1 L7,1 C6.45,1 6,1.45 6,2 C6,2.55 6.45,3 7,3 L17,3 C17.55,3 18,2.55 18,2 C18,1.45 17.55,1 17,1 Z" id="Path" fill="#0051BC"></path>
            </g>
        </g>
    </g>
</svg>