<?xml version="1.0" encoding="UTF-8"?>
<svg width="16px" height="21px" viewBox="0 0 16 21" version="1.1" xmlns="http://www.w3.org/2000/svg" xmlns:xlink="http://www.w3.org/1999/xlink">
    <!-- Generator: sketchtool 53.2 (72643) - https://sketchapp.com -->
    <title>Not Publicly Accessible</title>
    <desc>Icon to show this is private</desc>
    <g id="privacy" stroke="none" stroke-width="1" fill="none" fill-rule="evenodd">
        <g id="collection-private-edit" transform="translate(-327.000000, -139.000000)" fill="#848FBB" fill-rule="nonzero">
            <g id="Icons-/-dropdown-/-private-display" transform="translate(323.000000, 137.000000)">
                <path d="M12,14 C10.9,14 10,14.9 10,16 C10,17.1 10.9,18 12,18 C13.1,18 14,17.1 14,16 C14,14.9 13.1,14 12,14 Z M18,9 L17,9 L17,7 C17,4.24 14.76,2 12,2 C9.24,2 7,4.24 7,7 L7,9 L6,9 C4.9,9 4,9.9 4,11 L4,21 C4,22.1 4.9,23 6,23 L18,23 C19.1,23 20,22.1 20,21 L20,11 C20,9.9 19.1,9 18,9 Z M18,20 C18,20.55 17.55,21 17,21 L7,21 C6.45,21 6,20.55 6,20 L6,12 C6,11.45 6.45,11 7,11 L17,11 C17.55,11 18,11.45 18,12 L18,20 Z M9,9 L9,7 C9,5.34 10.34,4 12,4 C13.66,4 15,5.34 15,7 L15,9 L9,9 Z" id="Shape"></path>
            </g>
        </g>
    </g>
</svg>