<svg width="20" height="19" xmlns="http://www.w3.org/2000/svg"><g fill="none" fill-rule="evenodd"><path d="M-2-2.293h24v24H-2z"/><path d="M18.63 6.416l-5.43-.471L11.077.951c-.381-.909-1.683-.909-2.065 0l-2.12 5.005-5.42.46C.484 6.495.08 7.73.832 8.38L4.95 11.95l-1.235 5.297c-.224.965.82 1.728 1.673 1.212l4.657-2.806 4.657 2.817c.853.516 1.896-.247 1.672-1.212l-1.234-5.308 4.118-3.569c.752-.65.36-1.885-.628-1.964zm-8.584 7.138L5.826 16.1l1.122-4.803-3.725-3.232 4.915-.426 1.908-4.523 1.919 4.534 4.915.426-3.726 3.232 1.122 4.803-4.23-2.558z" fill="#0E69FF" fill-rule="nonzero"/></g></svg>