<?xml version="1.0" encoding="UTF-8"?>
<svg width="20px" height="19px" viewBox="0 0 20 19" version="1.1" xmlns="http://www.w3.org/2000/svg" xmlns:xlink="http://www.w3.org/1999/xlink">
    <!-- Generator: sketchtool 55.2 (78181) - https://sketchapp.com -->
    <title>2EB2AFE5-90B7-4694-8395-9027FB84C74F</title>
    <desc>Created with sketchtool.</desc>
    <g id="mobile" stroke="none" stroke-width="1" fill="none" fill-rule="evenodd">
        <g id="mobile---video-detail" transform="translate(-262.000000, -355.000000)">
            <g id="Icons-/-actions-/-rate" transform="translate(260.000000, 352.706944)">
                <g id="round-star_border-24px">
                    <polygon id="Path" points="0 0 24 0 24 24 0 24"></polygon>
                    <path d="M20.6305867,8.70938311 L15.1991099,8.23805661 L13.0781406,3.24424012 C12.6965906,2.33525329 11.3948317,2.33525329 11.0132817,3.24424012 L8.8923124,8.24927867 L3.47205765,8.70938311 C2.48451641,8.78793752 2.08052227,10.0223641 2.83240026,10.6732435 L6.95089611,14.2418585 L5.71646956,19.5386706 C5.49202837,20.5037677 6.5356799,21.2668677 7.38855643,20.750653 L12.0457111,17.9451381 L16.7028658,20.761875 C17.5557424,21.2780898 18.5993939,20.5149897 18.3749527,19.5498926 L17.1405262,14.2418585 L21.259022,10.6732435 C22.0109,10.0223641 21.6181279,8.78793752 20.6305867,8.70938311 L20.6305867,8.70938311 Z M12.0457111,15.846613 L7.82621675,18.3940205 L8.9484227,13.590979 L5.22269894,10.3590259 L10.137961,9.9325876 L12.0457111,5.41009761 L13.9646833,9.94380966 L18.8799454,10.3702479 L15.1542216,13.6022011 L16.2764276,18.4052425 L12.0457111,15.846613 Z" id="Shape" fill="#4189FF" fill-rule="nonzero"></path>
                </g>
            </g>
        </g>
    </g>
</svg>