<svg width="24" height="24" xmlns="http://www.w3.org/2000/svg"><g fill="none" fill-rule="evenodd"><path d="M0 0h24v24H0z"/><path d="M11.5 1.197c0-.152 0-1.197 1-1.197 1.005 0 1.005 1.045 1 1.197v.451h-2v-.451zM1.5 2h20.64a1 1 0 010 2H1.5a1 1 0 110-2zm17.85 2.6H4.185c-.927 0-1.685.75-1.685 1.685v10.11a1.69 1.69 0 001.685 1.685H19.35a1.69 1.69 0 001.685-1.685V6.285c0-.935-.758-1.685-1.685-1.685zM18.1 16.2H5.3c-.44 0-.8-.36-.8-.8v-8c0-.44.36-.8.8-.8h12.8c.44 0 .8.36.8.8v8c0 .44-.36.8-.8.8z" fill="#0051BC" fill-rule="nonzero"/><g transform="translate(6.5 17)" fill="#0051BC"><rect transform="matrix(0 -1 -1 0 8.326 8.326)" x="2.18" y="2.146" width="6" height="2" rx="1"/><rect transform="scale(1 -1) rotate(45 12.743 0)" x=".439" y="3.061" width="5" height="2" rx="1"/><rect transform="scale(1 -1) rotate(-45 -2.382 0)" x="4.921" y="3.061" width="5" height="2" rx="1"/></g><path d="M14.98 12.153L11 14.433c-.67.38-1.5-.11-1.5-.87v-4.56c0-.77.83-1.25 1.5-.87l3.98 2.28c.67.39.67 1.35 0 1.74z" fill="#FF654C" fill-rule="nonzero"/></g></svg>