<?xml version="1.0" encoding="UTF-8"?>
<svg width="289px" height="91px" viewBox="0 0 289 91" version="1.1" xmlns="http://www.w3.org/2000/svg" xmlns:xlink="http://www.w3.org/1999/xlink">
    <!-- Generator: Sketch 54.1 (76490) - https://sketchapp.com -->
    <title>Refer a friend</title>
    <desc>Created with Sketch.</desc>
    <defs>
        <polygon id="path-1" points="0.00946297174 0.021947286 25.843643 0.021947286 25.843643 46.0833708 0.00946297174 46.0833708"></polygon>
    </defs>
    <g id="mobile" stroke="none" stroke-width="1" fill="none" fill-rule="evenodd">
        <g id="mobile---homepage" transform="translate(-16.000000, -1178.000000)">
            <g id="refer-a-friend" transform="translate(16.000000, 1178.000000)">
                <g id="banner">
                    <rect id="Rectangle" fill="#FFE5E0" x="0" y="0" width="289" height="91" rx="8"></rect>
                    <g id="Group-2" transform="translate(8.000000, 7.000000)">
                        <g id="speaker" transform="translate(0.000000, 0.728972)">
                            <path d="M25.3622163,43.7930819 L25.2336449,43.7619676 C25.2763843,43.7719962 25.3188882,43.7830533 25.3622163,43.7930819 M47.0945043,58.7983058 L47.1464471,58.9268772 C47.1302471,58.8834897 47.1127614,58.8405264 47.0945043,58.7983058 M47.0849304,58.7701517 L47.1119304,58.8424088 C47.1029304,58.8179802 47.0943161,58.7941945 47.0849304,58.7701517" id="Fill-1" fill="#D08527"></path>
                            <path d="M30.2889502,60.4182231 C29.2913512,60.8239469 28.1578494,60.3339029 27.7570093,59.3232082 C27.8545687,55.2438097 27.8210264,49.328621 31.933188,47.636878 L33.5858947,46.957316 L41.0654195,43.8808423 C42.0630185,43.4751185 43.1966537,43.9651626 43.5974937,44.9758572 C43.9982671,45.986687 43.5144049,47.1352805 42.5167393,47.541342 L30.2889502,60.4182231 Z" id="Fill-3" fill="#784931"></path>
                            <path d="M42.4997669,47.4087366 C42.1131263,47.127908 40.8451928,44.7225737 40.3365696,43.7383178 C40.079556,43.8548169 39.8109439,43.975087 39.5327103,44.0978709 C41.8813528,47.981243 48.4604382,59.2440212 47.2813391,61.4018692 C48.199207,60.1690022 48.5981052,58.5126763 48.7790691,57.9348112 C48.9162089,57.4968643 46.6752485,51.5213362 43.9510367,46.6453064 C43.3650458,47.1575455 42.7449183,47.58676 42.4997669,47.4087366" id="Fill-5" fill="#A7AABC"></path>
                            <path d="M40.3738318,43.0181571 C40.9009577,44.1013917 42.2150161,46.7486108 42.615722,47.05768 C42.8697915,47.2536786 43.5124781,46.7813015 44.1198544,46.2174778 C44.7205376,45.6599157 45.2866618,45.0127999 45.4078229,44.8342751 C45.6124445,44.5327052 43.2986362,43.5423734 42.2867293,42.0560748 C41.7863763,42.3229154 41.1297569,42.6539725 40.3738318,43.0181571" id="Fill-7" fill="#D01E27"></path>
                            <path d="M39.1743068,43.7383178 C36.3291013,45.0274049 32.5059103,46.5802621 30.2803738,47.046365 C31.6055489,48.2303947 33.7556468,50.652587 35.3488638,54.9023969 C37.8178038,61.4883189 37.0495758,62.5827187 37.9706016,63.3976478 C38.8915612,64.2127135 44.0008503,64.36105 46.8160526,61.7864254 C46.8739396,61.7333847 46.9220904,61.6686027 46.961896,61.5937177 C48.1469898,59.3671684 41.5348245,47.7454511 39.1743068,43.7383178" id="Fill-9" fill="#FAFAFF"></path>
                            <path d="M26.9158879,43.1232472 C27.5555534,44.6548543 28.3681777,46.3773712 28.9911248,46.9449853 C29.2271303,47.160095 29.8586717,47.1425845 30.7317913,46.9693163 C32.9879099,46.5214553 36.8636372,45.0295911 39.74794,43.7912021 C40.0314152,43.6694159 40.3051547,43.550253 40.5669429,43.4346971 C41.3100749,43.1066549 41.9555818,42.8084525 42.4474669,42.5680937 C42.8205101,42.3857752 43.1057309,42.23651 43.2768769,42.1331525 C44.2807899,41.5266481 44.5316339,39.8531867 44.5794393,38.6927094 C39.8209909,38.6281109 32.1584328,41.3748253 29.2284732,42.1759121 C28.5624878,42.8712803 27.763762,43.171778 26.9158879,43.1232472" id="Fill-11" fill="#E6403E"></path>
                            <path d="M14.0801206,36.2947197 C13.5186812,34.5820402 13.4262942,32.1444224 13.8846351,30.2803738 C12.7584442,31.4415102 10.833046,34.1186012 12.3139156,37.807518 C13.4446871,40.624519 15.807144,41.6757995 17.6635514,42.0560748 C16.1630911,40.6569062 14.7774978,38.4219829 14.0801206,36.2947197" id="Fill-13" fill="#FAFAFF"></path>
                            <path d="M20.1995086,35.0135869 C18.7097188,29.9952329 19.4269203,26.8322482 20.5485218,25.2336449 C19.0965993,25.7851257 16.6227439,26.7478793 15.30684,27.3915899 C14.547081,27.7632872 14.0334246,28.7151982 13.7440057,29.9027321 C13.2953927,31.7436672 13.3858188,34.1510594 13.9353422,35.8425023 C14.6179182,37.9433883 15.9741036,40.1506671 17.4427181,41.5324188 C17.919266,41.9808273 18.4076086,42.3426986 18.8887088,42.5852336 C20.2704148,43.281734 23.4626442,42.6553038 25.2336449,42.2227525 C23.267859,41.2569494 21.2921407,38.6941016 20.1995086,35.0135869" id="Fill-15" fill="#D01E27"></path>
                            <path d="M28.5981308,41.931323 C28.0547144,42.0860263 27.6776125,42.1694969 27.5199962,42.147748 C26.4901929,42.0054156 24.1091405,40.2381003 22.0488144,35.0608612 C19.9885537,29.8836222 21.9486856,26.2306693 22.5005388,25.4849543 C22.7397754,25.1615805 22.9407526,24.9248034 23.7597032,24.4803806 C23.1845673,24.3487565 22.3374288,24.3031303 21.4953262,24.7980345 C21.1521674,24.9998272 20.7971057,25.3333105 20.4768372,25.8059337 C19.4133524,27.3749149 18.7333133,30.4792896 20.1459084,35.4046537 C21.1819248,39.0169686 23.0552696,41.5323269 24.9191967,42.4802337 C25.4001552,42.724859 25.880329,42.8643314 26.345526,42.8920663 C27.1714091,42.9413505 27.9494188,42.6365997 28.5981308,41.931323" id="Fill-17" fill="#E6403E"></path>
                            <path d="M48.313166,9.25233645 C46.1238673,11.3718215 38.8833411,18.0556595 31.8200853,20.9312851 C27.0318997,22.8806518 24.8421968,23.8171684 23.7397653,24.3986613 C22.8960637,24.8436733 22.6890124,25.0808664 22.4425454,25.4046507 C21.8740136,26.1514661 19.8546411,29.8098758 21.9771686,34.9947543 C24.0997636,40.1795662 26.552778,41.949556 27.6137049,42.0920317 C27.7760848,42.1138794 28.1645837,42.0302856 28.7244238,41.8752874 C31.6645779,41.0617302 39.3540407,38.2720297 44.1290876,38.3376391 C44.3837073,38.3411694 44.6305787,38.3521598 44.8673434,38.3726086 C48.6087513,38.6958601 55.0858898,41.269216 58.8785047,42.8971963 C51.205482,36.2105607 46.1822836,19.6454064 48.313166,9.25233645" id="Fill-19" fill="#FAFAFF"></path>
                            <path d="M55.4135183,2.70734161 C51.0112961,4.06702746 49.8261188,10.9679039 50.7703768,18.6780249 L58.4735238,18.428671 C61.8538112,17.9315267 63.3329734,26.9054126 60.1820078,27.3939913 L53.8388109,30.750072 C56.8139249,38.2738574 61.4636743,44.0138921 66.5798213,42.7123979 C78.7075764,39.627221 65.8476909,-0.515360623 55.4135183,2.70734161" id="Fill-21" fill="#BED6E3"></path>
                            <path d="M60.5607477,27.0729122 C57.4631794,27.5398549 55.558039,18.9798019 58.8811802,18.5046729 L51.3084112,18.7429845 C51.793297,22.5926792 52.8497713,26.6533329 54.3249774,30.2803738 L60.5607477,27.0729122 Z" id="Fill-23" fill="#D01E27"></path>
                            <g id="Group-27" transform="translate(47.943925, 0.000000)">
                                <mask id="mask-2" fill="white">
                                    <use xlink:href="#path-1"></use>
                                </mask>
                                <g id="Clip-26"></g>
                                <path d="M5.90050345,30.8124923 C4.41561623,27.0362024 3.35227551,22.8084569 2.86414094,18.8002836 C1.92977291,11.1283799 3.1025369,4.26170951 7.45871761,2.90876331 C17.7836045,-0.297964738 30.508731,39.6456394 18.5080667,42.7155237 C13.4454386,44.0105667 8.84438994,38.298984 5.90050345,30.8124923 M6.72718297,0.31008653 C3.32298477,1.47937947 1.34182296,4.7011921 0.496728302,8.92819351 C-1.61340619,19.4828109 3.36088259,36.3053822 10.9591282,43.0960208 C13.606571,45.4620701 16.5725424,46.6101905 19.6683537,45.8509551 C34.5818123,42.1933126 19.3835863,-4.03738871 6.72718297,0.31008653" id="Fill-25" fill="#E6403E" mask="url(#mask-2)"></path>
                            </g>
                            <path d="M60.5646063,27.7372022 C63.6106129,27.2351729 62.1807217,18.014235 58.9130321,18.5251356 C55.6452774,19.0359663 57.518665,28.2392316 60.5646063,27.7372022" id="Fill-28" fill="#FAFAFF"></path>
                            <path d="M60.2829447,26.0621629 C62.3136482,25.7426345 61.3603013,19.8749054 59.1819306,20.1999306 C57.0034204,20.5250985 58.2522412,26.3816199 60.2829447,26.0621629" id="Fill-30" fill="#A7AABC"></path>
                            <path d="M50.7531351,30.2816481 C50.4481818,30.2785844 50.1431608,30.2808007 49.8379368,30.2909697 C46.1409525,30.4129969 42.5655978,31.5316456 39.0682402,32.6927951 C33.7147126,34.4702085 28.2931319,36.3918123 22.7102804,37.0468615 C24.6027093,40.6774991 26.567859,41.9887057 27.4886043,42.1092338 C27.6517016,42.1305494 28.0417551,42.0488068 28.6038352,41.8971201 C31.5557538,41.1009442 39.275917,38.3708445 44.070138,38.4350523 C44.325709,38.4385071 44.5735681,38.4492627 44.8113478,38.4692095 C48.5676587,38.78562 55.0707143,41.3039971 58.8785047,42.8971963 C55.5529709,40.072382 52.7233583,35.4459705 50.7531351,30.2816481" id="Fill-32" fill="#D3DCF5"></path>
                            <path d="M12.6168224,37.0093458 C12.6833416,37.2715945 12.7647833,37.5395309 12.863487,37.8131549 C13.8781569,40.6264183 15.9978539,41.6763041 17.6635514,42.0560748 C16.6420526,40.9959787 15.6801807,39.4551732 15.0020901,37.8454992 C14.1687671,37.7076935 13.349355,37.4368791 12.6168224,37.0093458" id="Fill-34" fill="#D3DCF5"></path>
                            <path d="M34.6589588,48.4549749 C34.5230427,48.7169343 34.4357503,49.0243392 34.5177605,49.3081343 C34.571531,49.4944196 34.6925485,49.6521821 34.8072002,49.8080339 C36.5975412,52.2423665 37.358861,55.2762921 37.9457992,58.2478496 C38.1333865,59.1974952 38.356121,60.2344152 39.1094498,60.8355094 C39.5089362,61.1541732 40.016099,61.3085239 40.5216365,61.372939 C41.6800048,61.5206025 43.0210844,61.1068854 43.5179537,60.0422615 C43.8296059,59.3745686 43.7522007,58.5953093 43.6396484,57.8662719 C43.3021945,55.6809338 42.7067234,53.5362646 41.8698269,51.4916982 C41.2430687,49.9604057 40.4072557,48.404207 38.9836918,47.575681 C37.5601957,46.7472232 35.4208882,46.9872105 34.6589588,48.4549749" id="Fill-36" fill="#D3DCF5"></path>
                            <path d="M73.5809477,28.5981308 C72.8220543,28.8937595 72.058131,29.176131 71.288974,29.4412748 C72.0409344,36.170276 70.8666037,41.8317703 66.5459069,42.9111212 C61.3884902,44.1995588 56.7012952,38.5173375 53.7022897,31.0694869 C53.6662652,30.9799168 53.6316001,30.8888661 53.5960514,30.7987576 C52.5211619,30.5044075 51.4738006,30.123381 50.4672897,29.6495541 C52.453531,35.2279386 55.3859932,40.2614996 58.8556281,43.2896578 C61.5526396,45.6435834 64.5741434,46.7857882 67.7279183,46.0304646 C73.505908,44.6466021 74.8469029,37.136436 73.5809477,28.5981308" id="Fill-38" fill="#CE3937"></path>
                            <path d="M29.256496,42.0574571 C28.5824406,42.7696098 27.7740361,43.0773317 26.9158879,43.027567 C27.5633046,44.5959952 28.3857759,46.359923 29.0162716,46.9412502 C29.2551369,47.1614641 29.894263,47.1435327 30.7780307,46.966099 C31.3701992,46.8471606 32.0732039,46.6558921 32.8397474,46.4163364 C33.1390256,45.8251369 33.4403425,45.2365566 33.7744141,44.6821601 C35.5729374,41.6974184 38.6510719,39.5230828 42.0560748,38.6915888 C37.4258254,39.3421568 31.7064454,41.3797569 29.256496,42.0574571" id="Fill-40" fill="#CE3937"></path>
                            <path d="M28.5981308,42.0048033 C28.5934355,41.9889563 28.5885299,41.9731093 28.5836944,41.9572622 C28.0486334,42.0966364 27.6762982,42.1706334 27.5160252,42.1500124 C26.563988,42.0276787 24.5342602,40.6990488 22.5772755,37.0223417 C21.781657,37.0772426 20.9816935,37.0728002 20.1869159,37.0093458 C21.3416946,39.7628149 23.0389627,41.6818291 24.7290827,42.4814737 C25.2445213,42.7253453 25.7590488,42.8644543 26.2575281,42.8921037 C27.1118036,42.9395121 27.9179341,42.6568517 28.5981308,42.0048033" id="Fill-42" fill="#CE3937"></path>
                            <path d="M52.1495327,26.0747664 C52.6455003,27.8045216 53.2342231,29.504355 53.9049468,31.1214953 L60.5607477,27.7642631 C59.6153668,27.9040118 58.7745566,27.2706885 58.1380059,26.2842193 C56.1418246,26.423288 54.1298657,26.3536517 52.1495327,26.0747664" id="Fill-44" fill="#BA1921"></path>
                            <path d="M25.2336449,42.2661429 C23.6922054,41.5517653 22.1449503,39.9029968 21.0287426,37.5426404 C18.7872958,37.9194529 16.4350082,37.7423643 14.2990654,37.0093458 C15.0290409,38.7483388 16.2239318,40.4830838 17.5053744,41.6202421 C17.9781582,42.0397891 18.4625734,42.3784322 18.9397361,42.6053566 C20.3103302,43.2569638 23.476887,42.6708534 25.2336449,42.2661429" id="Fill-46" fill="#BA1921"></path>
                            <path d="M43.7383178,46.5745397 C43.2604887,46.1017985 42.8764411,45.5366216 42.4975695,44.9768983 L41.0898943,42.8971963 C40.8631707,43.0040601 40.6245967,43.1150659 40.3738318,43.2299375 C40.8994029,44.2570174 42.2098232,46.767005 42.6093989,47.060052 C42.8111278,47.2079907 43.2585817,46.9540166 43.7383178,46.5745397" id="Fill-48" fill="#BA1921"></path>
                            <path d="M18.0521782,71.038673 C18.8679711,70.3501513 26.8542921,63.6025582 27.2503977,62.8680945 C27.2586176,62.8527354 27.2515431,62.1158359 27.2423799,61.2210149 C27.2239861,59.3523444 27.2012129,57.0123452 28.0772402,54.9904895 C29.2733726,52.2302458 34.2400877,50.4278835 38.0783837,49.3170875 L48.3227557,46.352033 C49.5681402,45.9964727 50.8647307,46.7220051 51.2184566,47.9723187 C51.5725193,49.2229706 50.8498405,50.5250451 49.6048603,50.8802671 L48.3654724,51.2391427 C49.438845,51.1756088 50.4498945,51.8640627 50.7558505,52.945832 C51.1099133,54.1964839 50.3874366,55.4982201 49.1423217,55.8537804 L48.1134174,56.1516932 C49.2381309,56.0157616 50.3258547,56.7166652 50.6452186,57.8455267 C50.9993487,59.0957727 50.2767373,60.3982532 49.0312855,60.7534075 L48.0027855,61.0513879 C49.1273641,60.9153887 50.2152227,61.61636 50.5345866,62.7455598 C50.8887167,63.9958734 50.1661053,65.297542 48.9205861,65.6534405 C46.1235243,66.4629406 39.2292391,68.7017862 36.947539,70.1696986 C34.0855264,72.0105602 30.0006329,77.4347656 29.9886399,77.450057 C29.4466646,78.1654402 28.5113461,78.4023225 27.7181243,78.088374 L27.717181,78.0907421 L19.1751398,74.6891367 L17.6635514,71.435033 C17.7747898,71.2831333 17.9063758,71.1503142 18.0521782,71.038673" id="Fill-50" fill="#997659"></path>
                            <path d="M50.9510262,62.2429907 C51.0652563,62.4247539 51.1559345,62.6246733 51.2177667,62.8407988 C51.5745067,64.0834194 50.8465019,65.3770789 49.5918714,65.7307877 C46.7741279,66.535307 39.8290334,68.7603771 37.5305176,70.2192577 C34.6474125,72.0487927 30.5324822,77.4396235 30.5203329,77.4548209 C29.9743633,78.1658024 29.0322196,78.4012272 28.2330841,78.0892103 L28.2321339,78.0915639 L25.2336449,76.3691502 C30.5356043,71.8340121 33.4110398,67.4027004 37.7225979,65.8763059 C42.0338845,64.3499786 47.4567257,63.0359438 50.9510262,62.2429907" id="Fill-52" fill="#784931"></path>
                            <path d="M10.0934579,76.0680585 L21.911481,67.4490238 C22.2291941,67.2173074 22.6720461,67.2339729 22.9297255,67.5279513 L34.3227147,80.5319312 C34.579229,80.824643 34.5187154,82.8702931 34.2442459,83.1470728 C34.0612661,83.3315926 26.0277252,83.3101053 10.1436232,83.0826108 L10.0934579,76.0680585 Z" id="Fill-54" fill="#039157"></path>
                            <path d="M0,83.271028 L21.7064199,67.2897196 L20.0679571,68.5107767 C20.199407,68.5176227 20.3133436,68.548832 20.3782029,68.6256137 L26.0747664,75.3629388 L19.5413138,83.0237919 L0,83.271028 Z" id="Fill-57" fill="#00B272"></path>
                        </g>
                    </g>
                </g>
                <g id="messaging" transform="translate(99.000000, 8.000000)">
                    <text id="Refer-3-teachers-and" font-family="Heebo-Regular, Heebo" font-size="16" font-weight="normal" line-spacing="20" fill="#3D4564">
                        <tspan x="0" y="52">Refer 3 teachers</tspan>
                        <tspan x="0" y="72">and get rewarded</tspan>
                    </text>
                    <text id="Refer-a-friend" font-family="Heebo-Bold, Heebo" font-size="24" font-weight="bold" fill="#0051BC">
                        <tspan x="0" y="25">Refer a friend</tspan>
                    </text>
                </g>
            </g>
        </g>
    </g>
</svg>