<?xml version="1.0" encoding="UTF-8"?>
<svg width="992px" height="161px" viewBox="0 0 992 161" version="1.1" xmlns="http://www.w3.org/2000/svg" xmlns:xlink="http://www.w3.org/1999/xlink">
    <!-- Generator: Sketch 54.1 (76490) - https://sketchapp.com -->
    <title>Refer a friend</title>
    <desc>Created with Sketch.</desc>
    <defs>
        <polygon id="path-1" points="0.0174200082 0.0398509509 47.5745343 0.0398509509 47.5745343 83.6762296 0.0174200082 83.6762296"></polygon>
        <rect id="path-3" x="0" y="0" width="140" height="40" rx="8"></rect>
    </defs>
    <g id="desktop" stroke="none" stroke-width="1" fill="none" fill-rule="evenodd">
        <g id="homepage" transform="translate(-54.000000, -1240.000000)">
            <g id="refer-a-friend" transform="translate(54.000000, 1237.000000)">
                <g id="banner">
                    <rect id="Rectangle" fill="#FFE5E0" x="0" y="3" width="992" height="160" rx="8"></rect>
                    <g id="play-trail" transform="translate(280.000000, 22.000000)">
                        <g id="play">
                            <path d="M57.6505119,85.4914121 L57.6505119,81.2614516 L61.6740581,83.3767743 L57.6505119,85.4914121 Z M58.8852582,77.4396272 C55.6962963,77.4396272 53.1089477,80.0260868 53.1089477,83.2124242 C53.1089477,86.3987616 55.6962963,88.9852211 58.8852582,88.9852211 C62.0735349,88.9852211 64.6608835,86.3987616 64.6608835,83.2124242 C64.6608835,80.0260868 62.0735349,77.4396272 58.8852582,77.4396272 L58.8852582,77.4396272 Z" id="Fill-175" fill="#F54F71"></path>
                            <path d="M169.496276,109.797032 L169.496276,105.567072 L173.519823,107.682394 L169.496276,109.797032 Z M170.731023,101.745247 C167.542061,101.745247 164.954712,104.331707 164.954712,107.518044 C164.954712,110.704382 167.542061,113.290841 170.731023,113.290841 C173.919299,113.290841 176.506648,110.704382 176.506648,107.518044 C176.506648,104.331707 173.919299,101.745247 170.731023,101.745247 L170.731023,101.745247 Z" id="Fill-175" fill="#F54F71" transform="translate(170.730680, 107.518044) rotate(-17.000000) translate(-170.730680, -107.518044) "></path>
                            <path d="M273.254345,100.699176 L273.254345,96.7945972 L276.968388,98.7472027 L273.254345,100.699176 Z M274.394111,93.2667593 C271.450454,93.2667593 269.062132,95.6542604 269.062132,98.5954949 C269.062132,101.536729 271.450454,103.924231 274.394111,103.924231 C277.337136,103.924231 279.725458,101.536729 279.725458,98.5954949 C279.725458,95.6542604 277.337136,93.2667593 274.394111,93.2667593 L274.394111,93.2667593 Z" id="Fill-175" fill="#F54F71"></path>
                            <path d="M200.695074,22.3854846 L200.695074,17.0803274 L206.003145,19.7326804 L200.695074,22.3854846 Z M202.546849,12.6012246 C198.639597,12.6012246 195.469421,15.7702 195.469421,19.6749879 C195.469421,23.5793349 198.639597,26.7483104 202.546849,26.7483104 C206.453219,26.7483104 209.624278,23.5793349 209.624278,19.6749879 C209.624278,15.7702 206.453219,12.6012246 202.546849,12.6012246 L202.546849,12.6012246 Z" id="Fill-159" fill="#27C195" transform="translate(202.546849, 19.674767) rotate(-20.000000) translate(-202.546849, -19.674767) "></path>
                            <path d="M149.579774,75.5312887 L149.579774,72.3761163 L152.73668,73.9535683 L149.579774,75.5312887 Z M150.794768,68.8576839 C148.180507,68.8576839 146.059409,70.9779786 146.059409,73.59059 C146.059409,76.2029064 148.180507,78.3232011 150.794768,78.3232011 C153.408437,78.3232011 155.530126,76.2029064 155.530126,73.59059 C155.530126,70.9779786 153.408437,68.8576839 150.794768,68.8576839 L150.794768,68.8576839 Z" id="Fill-159" fill="#27C195" transform="translate(150.794768, 73.590442) rotate(-20.000000) translate(-150.794768, -73.590442) "></path>
                            <path d="M93.5054847,52.5226175 L93.5054847,46.0097184 L100.021961,49.266579 L93.5054847,52.5226175 Z M95.1412552,39.6387284 C89.7451605,39.6387284 85.3660883,44.0163002 85.3660883,49.4085289 C85.3660883,54.8007576 89.7451605,59.1774258 95.1412552,59.1774258 C100.536446,59.1774258 104.915518,54.8007576 104.915518,49.4085289 C104.915518,44.0163002 100.536446,39.6387284 95.1412552,39.6387284 L95.1412552,39.6387284 Z" id="Fill-150" fill="#D67DEC"></path>
                            <path d="M224.37353,110.458575 L224.37353,106.612343 L228.221875,108.535702 L224.37353,110.458575 Z M225.339544,102.849916 C222.152847,102.849916 219.566759,105.435117 219.566759,108.619531 C219.566759,111.803945 222.152847,114.388613 225.339544,114.388613 C228.525707,114.388613 231.111795,111.803945 231.111795,108.619531 C231.111795,105.435117 228.525707,102.849916 225.339544,102.849916 L225.339544,102.849916 Z" id="Fill-150" fill="#D67DEC" transform="translate(225.339277, 108.619264) rotate(-33.000000) translate(-225.339277, -108.619264) "></path>
                            <path d="M297.794034,65.9807857 L297.794034,61.7738891 L302.003241,63.8776029 L297.794034,65.9807857 Z M298.850632,57.6586564 C295.365116,57.6586564 292.536529,60.4862745 292.536529,63.969293 C292.536529,67.4523116 295.365116,70.279346 298.850632,70.279346 C302.335564,70.279346 305.164151,67.4523116 305.164151,63.969293 C305.164151,60.4862745 302.335564,57.6586564 298.850632,57.6586564 L298.850632,57.6586564 Z" id="Fill-150" fill="#D67DEC"></path>
                            <path d="M249.92023,57.5699201 L249.92023,50.8656918 L256.29679,54.2176171 L249.92023,57.5699201 Z M242.72345,53.9573357 C242.72345,59.0077008 246.824557,63.1064711 251.877422,63.1064711 C256.930666,63.1064711 261.031394,59.0077008 261.031394,53.9573357 C261.031394,48.9073484 256.930666,44.8085781 251.877422,44.8085781 C246.824557,44.8085781 242.72345,48.9073484 242.72345,53.9573357 Z" id="Fill-167" fill="#FF654C" transform="translate(251.877422, 53.957525) rotate(-19.000000) translate(-251.877422, -53.957525) "></path>
                            <path d="M10.3332692,114.797617 L10.3332692,108.093388 L16.7098282,111.445314 L10.3332692,114.797617 Z M12.2904608,102.036275 C7.23759529,102.036275 3.13648885,106.135045 3.13648885,111.185032 C3.13648885,116.235397 7.23759529,120.334168 12.2904608,120.334168 C17.3437043,120.334168 21.4444328,116.235397 21.4444328,111.185032 C21.4444328,106.135045 17.3437043,102.036275 12.2904608,102.036275 L12.2904608,102.036275 Z" id="Fill-167" fill="#FF654C" transform="translate(12.290461, 111.185221) rotate(-21.000000) translate(-12.290461, -111.185221) "></path>
                            <path d="M149.789207,27.7571707 L149.789207,22.8849096 L154.423336,25.3209029 L149.789207,27.7571707 Z M151.211585,18.4829356 C147.539443,18.4829356 144.558986,21.4616944 144.558986,25.1317448 C144.558986,28.8020698 147.539443,31.7808286 151.211585,31.7808286 C154.884002,31.7808286 157.864184,28.8020698 157.864184,25.1317448 C157.864184,21.4616944 154.884002,18.4829356 151.211585,18.4829356 L151.211585,18.4829356 Z" id="Fill-167" fill="#FF654C" transform="translate(151.211585, 25.131882) rotate(-21.000000) translate(-151.211585, -25.131882) "></path>
                            <path d="M266.469922,6.20732427 L266.469922,2.95278466 L269.564321,4.58005447 L266.469922,6.20732427 Z M267.419399,0.0139062199 C264.967018,0.0139062199 262.976347,2.00267578 262.976347,4.45399835 C262.976347,6.90532092 264.967018,8.89513227 267.419399,8.89513227 C269.87178,8.89513227 271.862451,6.90532092 271.862451,4.45399835 C271.862451,2.00267578 269.87178,0.0139062199 267.419399,0.0139062199 L267.419399,0.0139062199 Z" id="Fill-183" fill="#FFC965"></path>
                            <path d="M203.740339,71.9005622 L203.740339,68.6460226 L206.834738,70.2732924 L203.740339,71.9005622 Z M204.689816,65.7071441 C202.237435,65.7071441 200.246764,67.6959137 200.246764,70.1472362 C200.246764,72.5985588 202.237435,74.5883702 204.689816,74.5883702 C207.142197,74.5883702 209.132868,72.5985588 209.132868,70.1472362 C209.132868,67.6959137 207.142197,65.7071441 204.689816,65.7071441 L204.689816,65.7071441 Z" id="Fill-183" fill="#FFC965"></path>
                            <path d="M64.0275124,13.7061029 L64.0275124,9.46663679 L68.058374,11.5863698 L64.0275124,13.7061029 Z M65.2643312,5.63836093 C62.0697817,5.63836093 59.476671,8.22899497 59.476671,11.4221652 C59.476671,14.6153353 62.0697817,17.2073264 65.2643312,17.2073264 C68.4588806,17.2073264 71.0519913,14.6153353 71.0519913,11.4221652 C71.0519913,8.22899497 68.4588806,5.63836093 65.2643312,5.63836093 L65.2643312,5.63836093 Z" id="Fill-183" fill="#FFC965"></path>
                            <path d="M99.6371979,110.635431 L99.6371979,104.563707 L105.410161,107.599569 L99.6371979,110.635431 Z M101.408558,99.0808853 C96.833354,99.0808853 93.1195248,102.791168 93.1195248,107.364397 C93.1195248,111.937626 96.833354,115.649851 101.408558,115.649851 C105.983763,115.649851 109.697592,111.937626 109.697592,107.364397 C109.697592,102.791168 105.983763,99.0808853 101.408558,99.0808853 L101.408558,99.0808853 Z" id="Fill-183" fill="#FFC965"></path>
                        </g>
                    </g>
                    <g id="speaker" transform="translate(10.000000, 12.000000)">
                        <path d="M44.8769662,79.0736991 L44.7428414,79.0439754 C44.7874268,79.0535558 44.8317666,79.0641187 44.8769662,79.0736991 M85.1453797,106.99808 L85.195001,107.146944 C85.1795251,107.096708 85.1628209,107.046964 85.1453797,106.99808 M85.1165159,106.920454 L85.1423091,106.989482 C85.1337114,106.966145 85.1254821,106.943423 85.1165159,106.920454" id="Fill-1" fill="#D08527"></path>
                        <path d="M54.555783,110.385433 C52.7183214,111.122997 50.6305425,110.232147 49.8922416,108.394809 C50.0719345,100.978882 50.0101535,90.2256786 57.5842784,87.1502641 L60.6283726,85.9148905 L74.4047902,80.3221781 C76.2422518,79.5846141 78.3302764,80.4754637 79.0685773,82.3128025 C79.8067554,84.1503869 78.9155374,86.2384115 77.0779529,86.9765896 L54.555783,110.385433 Z" id="Fill-3" fill="#784931"></path>
                        <path d="M77.3226694,85.6232426 C76.6020553,85.1018506 74.2389028,80.6360573 73.2909396,78.8086673 C72.8119222,79.0249621 72.3112876,79.2482579 71.7927206,79.4762211 C76.1700798,86.6861699 88.4320655,107.596876 86.2344811,111.603181 C87.9451873,109.314215 88.6886469,106.239046 89.0259243,105.16617 C89.281523,104.353069 85.1048598,93.2587799 80.027521,84.2058424 C78.9353613,85.1568762 77.7795783,85.9537646 77.3226694,85.6232426" id="Fill-5" fill="#A7AABC"></path>
                        <path d="M73.290915,78.8086182 C74.2388782,80.6360082 76.6020307,85.1018014 77.3226448,85.6231934 C77.7795537,85.9538383 78.9353367,85.1569498 80.0276192,84.2057932 C81.1078649,83.2651996 82.1259611,82.1735312 82.3438526,81.8723644 C82.7118362,81.3636233 78.5507718,79.692958 76.7309969,77.185609 C75.8311812,77.6357625 74.6503419,78.1942477 73.290915,78.8086182" id="Fill-7" fill="#D01E27"></path>
                        <path d="M71.7926714,79.4762334 C66.5163562,81.7956602 59.4264074,84.5896827 55.2992426,85.4283316 C57.7567247,87.5587308 61.7439918,91.9169294 64.6985466,99.563521 C69.2770931,111.413429 67.8524463,113.382559 69.5604504,114.848843 C71.2683316,116.315374 80.7432958,116.582272 85.9639713,111.949806 C86.0713204,111.854371 86.1606141,111.73781 86.2344319,111.603071 C88.4321392,107.596888 76.1701535,86.6861822 71.7926714,79.4762334" id="Fill-9" fill="#FAFAFF"></path>
                        <path d="M48.3187677,78.2253224 C49.4889212,81.0937769 50.9754719,84.3197748 52.115042,85.382825 C52.5467718,85.7856909 53.7020635,85.7528966 55.2992794,85.428393 C59.4264442,84.5896213 66.516393,81.7955988 71.7927083,79.4762948 C72.3112753,79.2482088 72.8120328,79.0250358 73.2909273,78.8086182 C74.6503541,78.1942477 75.8311934,77.6357625 76.7310092,77.185609 C77.4134248,76.8441556 77.9351853,76.5646059 78.2482661,76.3710338 C80.0847451,75.2351484 80.5436192,72.1010235 80.6310706,69.9276356 C71.9263419,69.806653 57.9090645,74.9508086 52.5492282,76.4511157 C51.3309273,77.7534289 49.8698014,78.3162129 48.3187677,78.2253224" id="Fill-11" fill="#E6403E"></path>
                        <path d="M25.5209908,65.9007206 C24.5424442,62.8350092 24.3814207,58.471652 25.1802743,55.1349887 C23.2174084,57.213433 19.8615844,62.0054493 22.4426285,68.6086428 C24.413478,73.6510993 28.5310624,75.5329007 31.7666407,76.2135967 C29.1514514,73.7090727 26.7364667,69.7085404 25.5209908,65.9007206" id="Fill-13" fill="#FAFAFF"></path>
                        <path d="M36.675697,64.3982764 C34.0228004,55.3025957 35.2999345,49.56974 37.2971914,46.6722989 C34.7117257,47.6718485 30.3064852,49.4168229 27.9632303,50.5835374 C26.6103132,51.2572323 25.6956356,52.9825548 25.180262,55.1349396 C24.3814084,58.4716029 24.5424319,62.8349601 25.5209785,65.9006714 C26.7364545,69.7084913 29.1514391,73.7091464 31.7666285,76.2135476 C32.6152262,77.0262805 33.484827,77.6821658 34.3415312,78.1217564 C36.8019611,79.3841515 42.4864237,78.2487574 45.6400778,77.4647656 C42.139566,75.7142641 38.6213675,71.0691464 36.675697,64.3982764" id="Fill-15" fill="#D01E27"></path>
                        <path d="M52.5492651,76.4510788 C51.5287124,76.7367697 50.8205036,76.890915 50.5244954,76.8507513 C48.5904933,76.5879058 44.1188045,73.3242006 40.2494493,63.7633818 C36.380217,54.2025629 40.0614043,47.4566469 41.0978014,46.0795333 C41.5470952,45.4823582 41.9245363,45.0451013 43.4625507,44.2243849 C42.3824278,43.9813142 40.7914759,43.8970563 39.2099816,44.8109969 C38.5655189,45.1836479 37.8987021,45.7994923 37.2972282,46.6722866 C35.2999713,49.5697277 34.0228373,55.3025834 36.6757339,64.3982641 C38.6214043,71.0691341 42.1396029,75.7142518 45.6401146,77.4647533 C46.5433695,77.9165036 47.4451505,78.1740676 48.3188045,78.2252856 C49.8698383,78.3162989 51.3309642,77.7535148 52.5492651,76.4510788" id="Fill-17" fill="#E6403E"></path>
                        <path d="M88.2582927,16.2949069 C84.2673408,20.2031975 71.0683234,32.5280696 58.1924585,37.8306694 C49.4639017,41.4252651 45.4722129,43.1521842 43.4625507,44.2244463 C41.9245363,45.0450399 41.5470952,45.4824197 41.0978014,46.0794719 C40.0614043,47.4565855 36.380217,54.2026244 40.2494493,63.7634432 C44.1188045,73.3241392 48.5904933,76.5879672 50.5244954,76.8506899 C50.8205036,76.8909765 51.5287124,76.7368311 52.5492651,76.4510174 C57.9089785,74.9508332 71.9263787,69.8066776 80.6309846,69.9276602 C81.0951402,69.9341699 81.5451709,69.954436 81.9767779,69.9921433 C88.7971259,70.5882129 100.604536,75.333433 107.518231,78.3353982 C93.5308004,66.0053675 84.3738301,35.4595333 88.2582927,16.2949069" id="Fill-19" fill="#FAFAFF"></path>
                        <path d="M101.074305,5.36515455 C93.0553081,7.82177687 90.8964135,20.2899857 92.6164545,34.220303 L106.648348,33.769781 C112.80581,32.8715619 115.500221,49.0851955 109.760487,49.9679386 L98.2058506,56.0315619 C103.625257,69.625216 112.095144,79.9960655 121.414612,77.6445814 C143.50628,72.0704156 120.080979,-0.457486182 101.074305,5.36515455" id="Fill-21" fill="#BED6E3"></path>
                        <path d="M109.760463,49.9679017 C104.020852,50.8506448 100.490739,34.668086 106.648323,33.7698669 L92.6164299,34.2203889 C93.5148946,41.4981372 95.472479,49.1746981 98.2059488,56.0315251 L109.760463,49.9679017 Z" id="Fill-23" fill="#D01E27"></path>
                        <g id="Group-27" transform="translate(87.343910, 0.083521)">
                            <mask id="mask-2" fill="white">
                                <use xlink:href="#path-1"></use>
                            </mask>
                            <g id="Clip-26"></g>
                            <path d="M10.862002,55.9480164 C8.12853224,49.0911894 6.17107062,41.4146285 5.27248311,34.1367574 C3.55244217,20.2064401 5.71133675,7.73823132 13.7304565,5.28160901 C32.73713,-0.54103173 56.1623091,71.98687 34.0707636,77.5610358 C24.751173,79.91252 16.2812856,69.5416704 10.862002,55.9480164 M12.3838035,0.563041965 C6.11715046,2.68619447 2.4701085,8.53622518 0.914407369,16.211435 C-2.97005527,35.3760614 6.18691505,65.9217728 20.1742231,78.2519263 C25.0477953,82.5480983 30.5077339,84.6328066 36.2066899,83.254219 C63.6602825,76.612827 35.6824729,-7.33091914 12.3838035,0.563041965" id="Fill-25" fill="#E6403E" mask="url(#mask-2)"></path>
                        </g>
                        <path d="M109.760463,49.9679017 C115.500197,49.0851586 112.805785,32.8715251 106.648323,33.7698669 C100.490739,34.668086 104.020852,50.8506448 109.760463,49.9679017" id="Fill-28" fill="#FAFAFF"></path>
                        <path d="M109.154493,46.9074719 C112.728577,46.3577073 111.050665,36.2619857 107.216684,36.8212078 C103.382456,37.3806755 105.580409,47.4571136 109.154493,46.9074719" id="Fill-30" fill="#A7AABC"></path>
                        <path d="M92.7651464,54.5647124 C92.2114514,54.5589396 91.6576336,54.5631157 91.1034473,54.5822764 C84.3909396,54.8122047 77.8992712,56.9200041 71.5492201,59.1078854 C61.8289744,62.4569539 51.9851668,66.0777114 41.8485445,67.3119795 C45.2845732,74.1529621 48.8526387,76.6235865 50.5244094,76.8506899 C50.8205404,76.8908536 51.5287492,76.7368311 52.5493019,76.4510174 C57.9090154,74.9508332 71.9262927,69.8066776 80.6310215,69.9276602 C81.0950542,69.9341699 81.545085,69.954436 81.9768147,69.9920205 C88.7970399,70.5882129 100.60445,75.333433 107.518145,78.3353982 C101.48007,73.0127779 96.3424237,64.295521 92.7651464,54.5647124" id="Fill-32" fill="#D3DCF5"></path>
                        <path d="M21.9634514,67.1678321 C22.0926633,67.6378833 22.2508618,68.118129 22.4425916,68.6085691 C24.413564,73.6510256 28.5310256,75.532827 31.7666039,76.213523 C29.7823664,74.3134207 27.9139529,71.5517011 26.5967779,68.6665425 C24.9780676,68.4195415 23.3863787,67.9341372 21.9634514,67.1678321" id="Fill-34" fill="#D3DCF5"></path>
                        <path d="M63.4119058,88.0254043 C63.1653961,88.4969294 63.0070747,89.0502559 63.1558158,89.561085 C63.2533388,89.8963971 63.472827,90.1803685 63.6807697,90.4609007 C66.9278936,94.8426817 68.3086919,100.303726 69.373216,105.652508 C69.7134411,107.361863 70.1174125,109.228311 71.4837175,110.310276 C72.208262,110.883869 73.1280983,111.161699 74.0449867,111.277646 C76.1459079,111.543439 78.5782108,110.798751 79.4793777,108.882436 C80.0446182,107.680594 79.9042293,106.277932 79.7000942,104.96567 C79.0880573,101.032078 78.0080573,97.1716888 76.4901863,93.4914841 C75.3534411,90.7351689 73.8375353,87.9340225 71.2556315,86.4426817 C68.6738506,84.9514637 64.7938096,85.3834391 63.4119058,88.0254043" id="Fill-36" fill="#D3DCF5"></path>
                        <path d="M134.127181,51.5209621 C132.75584,52.0605322 131.37541,52.5759058 129.985523,53.0598362 C131.344336,65.3413511 129.222289,75.6744933 121.414673,77.6444831 C112.095083,79.9960901 103.625195,69.6251177 98.205912,56.0315865 C98.1408147,55.8681064 98.078174,55.7019243 98.0139365,55.5374616 C96.0715824,55.0002252 94.1789724,54.3047902 92.3601801,53.4399795 C95.9493715,63.621433 101.248409,72.8084954 107.518133,78.3353736 C112.391705,82.6316684 117.851644,84.7163767 123.5506,83.3377892 C133.991582,80.8120164 136.414796,67.1047492 134.127181,51.5209621" id="Fill-38" fill="#CE3937"></path>
                        <path d="M52.5492651,76.4510788 C51.3309642,77.7535148 49.8698383,78.3162989 48.3188045,78.2252856 C49.488958,81.09374 50.9755087,84.319738 52.1150788,85.382911 C52.5468086,85.785654 53.7019775,85.7528598 55.2993163,85.4283562 C56.3696131,85.2108332 57.6402375,84.8610276 59.0257032,84.422911 C59.5666244,83.3416827 60.1112303,82.2652446 60.7150379,81.2513245 C63.9657236,75.7926141 69.5292037,71.8160328 75.6834719,70.2953367 C67.3146694,71.4851423 56.9773511,75.211652 52.5492651,76.4510788" id="Fill-40" fill="#CE3937"></path>
                        <path d="M52.4210481,76.5816909 C52.4128188,76.5523357 52.4042211,76.5229806 52.3957462,76.4936254 C51.4579775,76.7518035 50.8054084,76.8888762 50.5245077,76.8506776 C48.8559304,76.6240655 45.2985507,74.1628987 41.8686633,67.352131 C40.4742313,67.4538301 39.0721842,67.4456008 37.6792262,67.3280573 C39.7031361,72.42861 42.6778342,75.9834104 45.6400041,77.4646796 C46.5433818,77.9164299 47.4451627,78.1741167 48.3188168,78.2253347 C49.8160532,78.3131546 51.2289089,77.7895517 52.4210481,76.5816909" id="Fill-42" fill="#CE3937"></path>
                        <path d="M95.1585629,46.9164626 C96.019566,50.0406387 97.0415926,53.1107718 98.2059734,56.0315496 L109.760487,49.9679263 C108.1193,50.2203316 106.659648,49.0764626 105.554592,47.2947636 C102.089208,47.5459406 98.596434,47.4201679 95.1585629,46.9164626" id="Fill-44" fill="#BA1921"></path>
                        <path d="M45.6400655,77.464741 C42.8729417,76.0808721 40.0953777,72.8869314 38.0916111,68.3145261 C34.0678649,69.0444749 29.8451423,68.7014248 26.0107922,67.2814452 C27.3212119,70.6501658 29.4662272,74.0106571 31.7666162,76.213523 C32.6153367,77.0262559 33.4849376,77.6822641 34.3415189,78.1218547 C36.8019488,79.3841269 42.4864115,78.2487329 45.6400655,77.464741" id="Fill-46" fill="#BA1921"></path>
                        <path d="M79.3586407,84.75939 C78.4969007,83.9182845 77.8042907,82.9127165 77.1210154,81.9168516 L74.582346,78.2166264 C74.1734616,78.4067595 73.7432057,78.604262 73.2909642,78.8086428 C74.2388045,80.6360328 76.6020798,85.101826 77.322694,85.623218 C77.6865015,85.8864319 78.4934616,85.4345589 79.3586407,84.75939" id="Fill-48" fill="#BA1921"></path>
                        <path d="M33.0308291,130.071243 C34.5179939,128.821376 49.0768066,116.572532 49.7988946,115.239267 C49.8138792,115.211386 49.8009826,113.873699 49.7842784,112.249339 C49.7507472,108.857159 49.7092323,104.60938 51.3062027,100.939124 C53.4867144,95.928479 62.5408802,92.6566673 69.5379734,90.6402497 L88.2131423,85.2578137 C90.4834391,84.6123685 92.8470829,85.9294207 93.491914,88.1991034 C94.1373593,90.4694002 92.8199386,92.833044 90.5503787,93.4778751 L88.2910133,94.1293388 C90.247738,94.0140061 92.0908495,95.2637503 92.6485977,97.2274759 C93.294043,99.4977728 91.9769908,101.860802 89.7071853,102.506248 L87.8315251,103.047046 C89.8818424,102.800291 91.8647288,104.072635 92.4469191,106.121846 C93.0924872,108.391406 91.7751894,110.755787 89.5047697,111.400495 L87.6298465,111.941417 C89.6799181,111.694538 91.6630502,112.967005 92.2452405,115.016831 C92.8908086,117.286514 91.5735107,119.649421 89.3029683,120.29548 C84.2040123,121.764958 71.6359468,125.829114 67.476479,128.493801 C62.2591198,131.835501 54.8124872,141.68201 54.7906244,141.709769 C53.8026203,143.008397 52.097564,143.438407 50.6515455,142.868499 L50.649826,142.872798 L35.0779529,136.697896 L32.3223746,130.790751 C32.5251586,130.515009 32.7650358,130.273904 33.0308291,130.071243" id="Fill-50" fill="#997659"></path>
                        <path d="M91.7626366,113.924917 C91.9693511,114.256913 92.1334452,114.622072 92.2453388,115.016831 C92.8909069,117.286514 91.5734862,119.649421 89.3030665,120.29548 C84.2039877,121.764958 71.6359222,125.829114 67.4764545,128.493801 C62.2590952,131.835501 54.8125855,141.68201 54.7905998,141.709769 C53.8025957,143.008397 52.0976622,143.438407 50.651521,142.868499 L50.6498014,142.872798 L45.2236397,139.726759 C54.8182354,131.443198 60.0217155,123.349277 67.8240491,120.561273 C75.6258915,117.773392 85.4392385,115.373269 91.7626366,113.924917" id="Fill-52" fill="#784931"></path>
                        <path d="M18.8563603,138.167386 L40.0370358,122.286731 C40.6064524,121.859791 41.4001474,121.890497 41.8619693,122.432156 L62.2808843,146.392115 C62.7406182,146.931439 62.6321638,150.700569 62.1402497,151.210538 C61.8123071,151.550518 47.4143132,151.510927 18.9462682,151.091767 L18.8563603,138.167386 Z" id="Fill-54" fill="#039157"></path>
                        <path d="M2.45649944e-05,151.532827 L40.0370358,122.286768 L37.0149273,124.521322 C37.2573838,124.533851 37.4675374,124.590964 37.5871689,124.731476 L48.0943541,137.060893 L36.0435455,151.080381 L2.45649944e-05,151.532827 Z" id="Fill-57" fill="#00B272"></path>
                    </g>
                    <g id="bubble" transform="translate(225.000000, 29.000000)">
                        <path d="M43.9063764,8.35900755 C27.3380289,8.35900755 13.9063764,21.8102308 13.9063764,38.4027193 C13.9063764,44.7300702 15.8640934,50.5976926 19.2002684,55.4399963 C16.230233,57.9166401 12.8910744,63.4444816 16.0303268,75.3590076 C16.0303268,75.3590076 17.1070072,64.8544013 26.559716,62.9070644 C31.4580579,66.3910985 37.4407526,68.446858 43.9063764,68.446858 C60.4751501,68.446858 73.9063764,54.9956347 73.9063764,38.4027193 C73.9063764,21.8102308 60.4751501,8.35900755 43.9063764,8.35900755" id="Fill-1" fill="#FFFFFF" transform="translate(43.906376, 41.859008) scale(1, -1) rotate(65.000000) translate(-43.906376, -41.859008) "></path>
                        <path d="M66.5759616,29 L29.4234192,29 C28.6377215,29 28,29.6254179 28,30.3973136 L28,57.6020786 C28,58.3739744 28.6377215,59 29.4234192,59 L66.5759616,59 C67.3622785,59 68,58.3739744 68,57.6020786 L68,30.3973136 C68,29.6254179 67.3622785,29 66.5759616,29" id="Fill-138" fill="#E5E5E5"></path>
                        <path d="M65.5759616,28 L28.4240384,28 C27.6377215,28 27,28.6260383 27,29.3979497 L27,56.6032659 C27,57.3745695 27.6377215,58 28.4240384,58 L65.5759616,58 C66.3628976,58 67,57.3745695 67,56.6032659 L67,29.3979497 C67,28.6260383 66.3628976,28 65.5759616,28" id="Fill-140" stroke="#F2F2F2" stroke-width="0.5" fill="#FFFFFF"></path>
                        <path d="M62.790366,30 L31.2102572,30 C30.541562,30 30,30.5426673 30,31.2113332 L30,54.7886668 C30,55.4573327 30.541562,56 31.2102572,56 L62.790366,56 C63.458438,56 64,55.4573327 64,54.7886668 L64,31.2113332 C64,30.5426673 63.458438,30 62.790366,30" id="Fill-142" fill="#E6F4F1"></path>
                        <path d="M45.7174733,45.3692496 L45.7174733,40.9724897 L49.8969944,43.1708696 L45.7174733,45.3692496 Z M47.0006113,37 C43.688538,37 41,39.6880636 41,43.0003057 C41,46.3125478 43.688538,49 47.0006113,49 C50.3126847,49 53,46.3125478 53,43.0003057 C53,39.6880636 50.3126847,37 47.0006113,37 L47.0006113,37 Z" id="Fill-144" fill="#27C195"></path>
                    </g>
                    <g id="bubble" transform="translate(154.000000, 0.000000)">
                        <path d="M72,72 L63.5892203,56.5914238 C66.9862646,51.8680635 68.9916055,46.0872744 68.9916055,39.8376181 C68.9916055,23.9110008 56.0097832,11 39.9958027,11 C23.9818223,11 11,23.9110008 11,39.8376181 C11,55.7642354 23.9818223,68.6752362 39.9958027,68.6752362 C46.4073741,68.6752362 52.3294921,66.6019285 57.1301217,63.098004 L72,72 Z" id="Fill-1" fill="#FFFFFF" transform="translate(41.500000, 41.500000) scale(-1, 1) rotate(-26.000000) translate(-41.500000, -41.500000) "></path>
                        <path d="M57.8967419,30 L29.1039337,30 C28.4938651,30 28,30.4795904 28,31.0713695 L28,51.9279744 C28,52.5197535 28.4938651,53 29.1039337,53 L57.8967419,53 C58.5061349,53 59,52.5197535 59,51.9279744 L59,31.0713695 C59,30.4795904 58.5061349,30 57.8967419,30" id="Fill-154" fill="#E5E5E5"></path>
                        <path d="M56.8967419,29 L28.1039337,29 C27.4938651,29 27,29.4795904 27,30.0713695 L27,50.9279744 C27,51.5204096 27.4938651,52 28.1039337,52 L56.8967419,52 C57.5061349,52 58,51.5204096 58,50.9279744 L58,30.0713695 C58,29.4795904 57.5061349,29 56.8967419,29" id="Fill-156" stroke="#F2F2F2" stroke-width="0.5" fill="#FFFFFF"></path>
                        <path d="M54.0740406,31 L29.9252884,31 C29.4139978,31 29,31.3966356 29,31.8850493 L29,49.1155925 C29,49.6040062 29.4139978,50 29.9252884,50 L54.0740406,50 C54.5860022,50 55,49.6040062 55,49.1155925 L55,31.8850493 C55,31.3966356 54.5860022,31 54.0740406,31" id="Fill-158" fill="#E6C5ED"></path>
                        <path d="M41.9305695,41.9741089 L41.9305695,38.3106218 L45.4128532,40.1423653 L41.9305695,41.9741089 Z M42.9992827,35 C40.2399943,35 38,37.2398336 38,40.0003586 C38,42.7601664 40.2399943,45 42.9992827,45 C45.7600057,45 48,42.7601664 48,40.0003586 C48,37.2398336 45.7600057,35 42.9992827,35 L42.9992827,35 Z" id="Fill-160" fill="#D67DEC"></path>
                    </g>
                    <g id="bubble" transform="translate(159.000000, 90.000000)">
                        <path d="M61,61 L52.5892203,45.5914238 C55.9862646,40.8680635 57.9916055,35.0872744 57.9916055,28.8376181 C57.9916055,12.9110008 45.0097832,0 28.9958027,0 C12.9818223,0 0,12.9110008 0,28.8376181 C0,44.7642354 12.9818223,57.6752362 28.9958027,57.6752362 C35.4073741,57.6752362 41.3294921,55.6019285 46.1301217,52.098004 L61,61 Z" id="Fill-1" fill="#FFFFFF" transform="translate(30.500000, 30.500000) scale(-1, -1) translate(-30.500000, -30.500000) "></path>
                        <path d="M46.0030651,23 L19.9969349,23 C19.4470739,23 19,23.4795914 19,24.0718384 L19,44.9270887 C19,45.5193357 19.4470739,46 19.9969349,46 L46.0030651,46 C46.553924,46 47,45.5193357 47,44.9270887 L47,24.0718384 C47,23.4795914 46.553924,23 46.0030651,23" id="Fill-170" fill="#E5E5E5"></path>
                        <path d="M45.0030651,21 L18.9969349,21 C18.4470739,21 18,21.5004432 18,22.1184401 L18,43.8804404 C18,44.4984373 18.4470739,45 18.9969349,45 L45.0030651,45 C45.553924,45 46,44.4984373 46,43.8804404 L46,22.1184401 C46,21.5004432 45.553924,21 45.0030651,21" id="Fill-172" stroke="#F2F2F2" stroke-width="0.5" fill="#FFFFFF"></path>
                        <path d="M43.1451361,23 L20.8548639,23 C20.3828656,23 20,23.4176103 20,23.9324421 L20,42.0675579 C20,42.5823897 20.3828656,43 20.8548639,43 L43.1451361,43 C43.6171344,43 44,42.5823897 44,42.0675579 L44,23.9324421 C44,23.4176103 43.6171344,23 43.1451361,23" id="Fill-174" fill="#FCE1DE"></path>
                        <path d="M32.1446334,34.5795401 L32.1446334,31.6475833 L34.9317302,33.1135617 L32.1446334,34.5795401 Z M32.9995308,29 C30.7923754,29 29,30.7916471 29,32.9990615 C29,35.2083529 30.7923754,37 32.9995308,37 C35.208563,37 37,35.2083529 37,32.9990615 C37,30.7916471 35.208563,29 32.9995308,29 L32.9995308,29 Z" id="Fill-176" fill="#FF654C"></path>
                    </g>
                    <g id="messaging" transform="translate(624.000000, 29.000000)">
                        <text id="Refer-a-friend" font-family="Heebo-Bold, Heebo" font-size="28" font-weight="bold" fill="#0051BC">
                            <tspan x="0" y="29">Refer a friend</tspan>
                        </text>
                        <text id="Refer-3-teachers-and" font-family="Heebo-Regular, Heebo" font-size="18" font-weight="normal"
                              fill="#3D4564">
                            <tspan x="0" y="57">Refer 3 teachers and get rewarded</tspan>
                        </text>
                        <g id="Buttons-/-secondary-/-default" transform="translate(0.000000, 67.000000)">
                            <mask id="mask-4" fill="white">
                                <use xlink:href="#path-3"></use>
                            </mask>
                            <rect stroke="#4189FF" stroke-width="2" x="1" y="1" width="138" height="38" rx="8"></rect>
                            <text id="Label" font-family="Heebo-Bold, Heebo" font-size="16" font-weight="bold" fill="#4189FF">
                                <tspan x="29.6914062" y="25">Get started</tspan>
                            </text>
                        </g>
                    </g>
                </g>
            </g>
        </g>
    </g>
</svg>