<?xml version="1.0" encoding="UTF-8"?>
<svg width="24px" height="18px" viewBox="1 0 24 18" version="1.1" xmlns="http://www.w3.org/2000/svg" xmlns:xlink="http://www.w3.org/1999/xlink">
    <!-- Generator: sketchtool 54.1 (76490) - https://sketchapp.com -->
    <title>Refer a friend</title>
    <desc>Refer a friend icon</desc>
    <g id="desktop" stroke="none" stroke-width="1" fill="none" fill-rule="evenodd">
        <g id="login-with-collections" transform="translate(-767.000000, -37.000000)">
            <g id="Icons-/-dropdown-/-refer-friend" transform="translate(767.000000, 33.000000)">
                <g id="round-person_outline-24px">
                    <polygon id="Path" points="0 0 24 0 24 24 0 24"></polygon>
                    <path d="M15,6.1375 C16.305,6.1375 17.3625,7.195 17.3625,8.5 C17.3625,9.805 16.305,10.8625 15,10.8625 C13.695,10.8625 12.6375,9.805 12.6375,8.5 C12.6375,7.195 13.695,6.1375 15,6.1375 L15,6.1375 Z M15,16.2625 C18.34125,16.2625 21.8625,17.905 21.8625,18.625 L21.8625,19.8625 L8.1375,19.8625 L8.1375,18.625 C8.1375,17.905 11.65875,16.2625 15,16.2625 L15,16.2625 Z M15,4 C12.51375,4 10.5,6.01375 10.5,8.5 C10.5,10.98625 12.51375,13 15,13 C17.48625,13 19.5,10.98625 19.5,8.5 C19.5,6.01375 17.48625,4 15,4 Z M15,14.125 C11.99625,14.125 6,15.6325 6,18.625 L6,20.875 C6,21.49375 6.50625,22 7.125,22 L22.875,22 C23.49375,22 24,21.49375 24,20.875 L24,18.625 C24,15.6325 18.00375,14.125 15,14.125 Z" id="Shape" fill="#B4C8F4" fill-rule="nonzero"></path>
                    <path d="M5.625,10.375 L5.625,8.125 C5.625,7.50625 5.11875,7 4.5,7 C3.88125,7 3.375,7.50625 3.375,8.125 L3.375,10.375 L1.125,10.375 C0.50625,10.375 0,10.88125 0,11.5 C0,12.11875 0.50625,12.625 1.125,12.625 L3.375,12.625 L3.375,14.875 C3.375,15.49375 3.88125,16 4.5,16 C5.11875,16 5.625,15.49375 5.625,14.875 L5.625,12.625 L7.875,12.625 C8.49375,12.625 9,12.11875 9,11.5 C9,10.88125 8.49375,10.375 7.875,10.375 L5.625,10.375 Z" id="Path" fill="#B4C8F4" fill-rule="nonzero"></path>
                </g>
            </g>
        </g>
    </g>
</svg>