<?xml version="1.0" encoding="UTF-8"?>
<svg width="289px" height="91px" viewBox="0 0 289 91" version="1.1" xmlns="http://www.w3.org/2000/svg" xmlns:xlink="http://www.w3.org/1999/xlink">
    <!-- Generator: sketchtool 54.1 (76490) - https://sketchapp.com -->
    <title>52362AF0-6874-48EB-B1E9-D9544E6DFD06</title>
    <desc>Created with sketchtool.</desc>
    <defs>
        <polygon id="path-1" points="0.00946297174 0.021947286 25.843643 0.021947286 25.843643 46.0833708 0.00946297174 46.0833708"></polygon>
    </defs>
    <g id="mobile" stroke="none" stroke-width="1" fill="none" fill-rule="evenodd">
        <g id="mobile---1st-login" transform="translate(-16.000000, -368.000000)">
            <g id="refer-a-friend" transform="translate(16.000000, 368.000000)">
                <g id="banner">
                    <rect id="Rectangle" fill="#FFE5E0" x="0" y="0" width="289" height="91" rx="8"></rect>
                    <g id="Group-2" transform="translate(8.000000, 1.000000)">
                        <g id="speaker" transform="translate(0.000000, 6.728972)">
                            <path d="M25.3622163,43.7930819 L25.2336449,43.7619676 C25.2763843,43.7719962 25.3188882,43.7830533 25.3622163,43.7930819 M47.0945043,58.7983058 L47.1464471,58.9268772 C47.1302471,58.8834897 47.1127614,58.8405264 47.0945043,58.7983058 M47.0849304,58.7701517 L47.1119304,58.8424088 C47.1029304,58.8179802 47.0943161,58.7941945 47.0849304,58.7701517" id="Fill-1" fill="#D08527"></path>
                            <path d="M30.2889502,60.4182231 C29.2913512,60.8239469 28.1578494,60.3339029 27.7570093,59.3232082 C27.8545687,55.2438097 27.8210264,49.328621 31.933188,47.636878 L33.5858947,46.957316 L41.0654195,43.8808423 C42.0630185,43.4751185 43.1966537,43.9651626 43.5974937,44.9758572 C43.9982671,45.986687 43.5144049,47.1352805 42.5167393,47.541342 L30.2889502,60.4182231 Z" id="Fill-3" fill="#784931"></path>
                            <path d="M42.4997669,47.4087366 C42.1131263,47.127908 40.8451928,44.7225737 40.3365696,43.7383178 C40.079556,43.8548169 39.8109439,43.975087 39.5327103,44.0978709 C41.8813528,47.981243 48.4604382,59.2440212 47.2813391,61.4018692 C48.199207,60.1690022 48.5981052,58.5126763 48.7790691,57.9348112 C48.9162089,57.4968643 46.6752485,51.5213362 43.9510367,46.6453064 C43.3650458,47.1575455 42.7449183,47.58676 42.4997669,47.4087366" id="Fill-5" fill="#A7AABC"></path>
                            <path d="M40.3738318,43.0181571 C40.9009577,44.1013917 42.2150161,46.7486108 42.615722,47.05768 C42.8697915,47.2536786 43.5124781,46.7813015 44.1198544,46.2174778 C44.7205376,45.6599157 45.2866618,45.0127999 45.4078229,44.8342751 C45.6124445,44.5327052 43.2986362,43.5423734 42.2867293,42.0560748 C41.7863763,42.3229154 41.1297569,42.6539725 40.3738318,43.0181571" id="Fill-7" fill="#D01E27"></path>
                            <path d="M39.1743068,43.7383178 C36.3291013,45.0274049 32.5059103,46.5802621 30.2803738,47.046365 C31.6055489,48.2303947 33.7556468,50.652587 35.3488638,54.9023969 C37.8178038,61.4883189 37.0495758,62.5827187 37.9706016,63.3976478 C38.8915612,64.2127135 44.0008503,64.36105 46.8160526,61.7864254 C46.8739396,61.7333847 46.9220904,61.6686027 46.961896,61.5937177 C48.1469898,59.3671684 41.5348245,47.7454511 39.1743068,43.7383178" id="Fill-9" fill="#FAFAFF"></path>
                            <path d="M26.9158879,43.1232472 C27.5555534,44.6548543 28.3681777,46.3773712 28.9911248,46.9449853 C29.2271303,47.160095 29.8586717,47.1425845 30.7317913,46.9693163 C32.9879099,46.5214553 36.8636372,45.0295911 39.74794,43.7912021 C40.0314152,43.6694159 40.3051547,43.550253 40.5669429,43.4346971 C41.3100749,43.1066549 41.9555818,42.8084525 42.4474669,42.5680937 C42.8205101,42.3857752 43.1057309,42.23651 43.2768769,42.1331525 C44.2807899,41.5266481 44.5316339,39.8531867 44.5794393,38.6927094 C39.8209909,38.6281109 32.1584328,41.3748253 29.2284732,42.1759121 C28.5624878,42.8712803 27.763762,43.171778 26.9158879,43.1232472" id="Fill-11" fill="#E6403E"></path>
                            <path d="M14.0801206,36.2947197 C13.5186812,34.5820402 13.4262942,32.1444224 13.8846351,30.2803738 C12.7584442,31.4415102 10.833046,34.1186012 12.3139156,37.807518 C13.4446871,40.624519 15.807144,41.6757995 17.6635514,42.0560748 C16.1630911,40.6569062 14.7774978,38.4219829 14.0801206,36.2947197" id="Fill-13" fill="#FAFAFF"></path>
                            <path d="M20.1995086,35.0135869 C18.7097188,29.9952329 19.4269203,26.8322482 20.5485218,25.2336449 C19.0965993,25.7851257 16.6227439,26.7478793 15.30684,27.3915899 C14.547081,27.7632872 14.0334246,28.7151982 13.7440057,29.9027321 C13.2953927,31.7436672 13.3858188,34.1510594 13.9353422,35.8425023 C14.6179182,37.9433883 15.9741036,40.1506671 17.4427181,41.5324188 C17.919266,41.9808273 18.4076086,42.3426986 18.8887088,42.5852336 C20.2704148,43.281734 23.4626442,42.6553038 25.2336449,42.2227525 C23.267859,41.2569494 21.2921407,38.6941016 20.1995086,35.0135869" id="Fill-15" fill="#D01E27"></path>
                            <path d="M28.5981308,41.931323 C28.0547144,42.0860263 27.6776125,42.1694969 27.5199962,42.147748 C26.4901929,42.0054156 24.1091405,40.2381003 22.0488144,35.0608612 C19.9885537,29.8836222 21.9486856,26.2306693 22.5005388,25.4849543 C22.7397754,25.1615805 22.9407526,24.9248034 23.7597032,24.4803806 C23.1845673,24.3487565 22.3374288,24.3031303 21.4953262,24.7980345 C21.1521674,24.9998272 20.7971057,25.3333105 20.4768372,25.8059337 C19.4133524,27.3749149 18.7333133,30.4792896 20.1459084,35.4046537 C21.1819248,39.0169686 23.0552696,41.5323269 24.9191967,42.4802337 C25.4001552,42.724859 25.880329,42.8643314 26.345526,42.8920663 C27.1714091,42.9413505 27.9494188,42.6365997 28.5981308,41.931323" id="Fill-17" fill="#E6403E"></path>
                            <path d="M48.313166,9.25233645 C46.1238673,11.3718215 38.8833411,18.0556595 31.8200853,20.9312851 C27.0318997,22.8806518 24.8421968,23.8171684 23.7397653,24.3986613 C22.8960637,24.8436733 22.6890124,25.0808664 22.4425454,25.4046507 C21.8740136,26.1514661 19.8546411,29.8098758 21.9771686,34.9947543 C24.0997636,40.1795662 26.552778,41.949556 27.6137049,42.0920317 C27.7760848,42.1138794 28.1645837,42.0302856 28.7244238,41.8752874 C31.6645779,41.0617302 39.3540407,38.2720297 44.1290876,38.3376391 C44.3837073,38.3411694 44.6305787,38.3521598 44.8673434,38.3726086 C48.6087513,38.6958601 55.0858898,41.269216 58.8785047,42.8971963 C51.205482,36.2105607 46.1822836,19.6454064 48.313166,9.25233645" id="Fill-19" fill="#FAFAFF"></path>
                            <path d="M55.4135183,2.70734161 C51.0112961,4.06702746 49.8261188,10.9679039 50.7703768,18.6780249 L58.4735238,18.428671 C61.8538112,17.9315267 63.3329734,26.9054126 60.1820078,27.3939913 L53.8388109,30.750072 C56.8139249,38.2738574 61.4636743,44.0138921 66.5798213,42.7123979 C78.7075764,39.627221 65.8476909,-0.515360623 55.4135183,2.70734161" id="Fill-21" fill="#BED6E3"></path>
                            <path d="M60.5607477,27.0729122 C57.4631794,27.5398549 55.558039,18.9798019 58.8811802,18.5046729 L51.3084112,18.7429845 C51.793297,22.5926792 52.8497713,26.6533329 54.3249774,30.2803738 L60.5607477,27.0729122 Z" id="Fill-23" fill="#D01E27"></path>
                            <g id="Group-27" transform="translate(47.943925, 0.000000)">
                                <mask id="mask-2" fill="white">
                                    <use xlink:href="#path-1"></use>
                                </mask>
                                <g id="Clip-26"></g>
                                <path d="M5.90050345,30.8124923 C4.41561623,27.0362024 3.35227551,22.8084569 2.86414094,18.8002836 C1.92977291,11.1283799 3.1025369,4.26170951 7.45871761,2.90876331 C17.7836045,-0.297964738 30.508731,39.6456394 18.5080667,42.7155237 C13.4454386,44.0105667 8.84438994,38.298984 5.90050345,30.8124923 M6.72718297,0.31008653 C3.32298477,1.47937947 1.34182296,4.7011921 0.496728302,8.92819351 C-1.61340619,19.4828109 3.36088259,36.3053822 10.9591282,43.0960208 C13.606571,45.4620701 16.5725424,46.6101905 19.6683537,45.8509551 C34.5818123,42.1933126 19.3835863,-4.03738871 6.72718297,0.31008653" id="Fill-25" fill="#E6403E" mask="url(#mask-2)"></path>
                            </g>
                            <path d="M60.5646063,27.7372022 C63.6106129,27.2351729 62.1807217,18.014235 58.9130321,18.5251356 C55.6452774,19.0359663 57.518665,28.2392316 60.5646063,27.7372022" id="Fill-28" fill="#FAFAFF"></path>
                            <path d="M60.2829447,26.0621629 C62.3136482,25.7426345 61.3603013,19.8749054 59.1819306,20.1999306 C57.0034204,20.5250985 58.2522412,26.3816199 60.2829447,26.0621629" id="Fill-30" fill="#A7AABC"></path>
                            <path d="M50.7531351,30.2816481 C50.4481818,30.2785844 50.1431608,30.2808007 49.8379368,30.2909697 C46.1409525,30.4129969 42.5655978,31.5316456 39.0682402,32.6927951 C33.7147126,34.4702085 28.2931319,36.3918123 22.7102804,37.0468615 C24.6027093,40.6774991 26.567859,41.9887057 27.4886043,42.1092338 C27.6517016,42.1305494 28.0417551,42.0488068 28.6038352,41.8971201 C31.5557538,41.1009442 39.275917,38.3708445 44.070138,38.4350523 C44.325709,38.4385071 44.5735681,38.4492627 44.8113478,38.4692095 C48.5676587,38.78562 55.0707143,41.3039971 58.8785047,42.8971963 C55.5529709,40.072382 52.7233583,35.4459705 50.7531351,30.2816481" id="Fill-32" fill="#D3DCF5"></path>
                            <path d="M12.6168224,37.0093458 C12.6833416,37.2715945 12.7647833,37.5395309 12.863487,37.8131549 C13.8781569,40.6264183 15.9978539,41.6763041 17.6635514,42.0560748 C16.6420526,40.9959787 15.6801807,39.4551732 15.0020901,37.8454992 C14.1687671,37.7076935 13.349355,37.4368791 12.6168224,37.0093458" id="Fill-34" fill="#D3DCF5"></path>
                            <path d="M34.6589588,48.4549749 C34.5230427,48.7169343 34.4357503,49.0243392 34.5177605,49.3081343 C34.571531,49.4944196 34.6925485,49.6521821 34.8072002,49.8080339 C36.5975412,52.2423665 37.358861,55.2762921 37.9457992,58.2478496 C38.1333865,59.1974952 38.356121,60.2344152 39.1094498,60.8355094 C39.5089362,61.1541732 40.016099,61.3085239 40.5216365,61.372939 C41.6800048,61.5206025 43.0210844,61.1068854 43.5179537,60.0422615 C43.8296059,59.3745686 43.7522007,58.5953093 43.6396484,57.8662719 C43.3021945,55.6809338 42.7067234,53.5362646 41.8698269,51.4916982 C41.2430687,49.9604057 40.4072557,48.404207 38.9836918,47.575681 C37.5601957,46.7472232 35.4208882,46.9872105 34.6589588,48.4549749" id="Fill-36" fill="#D3DCF5"></path>
                            <path d="M73.5809477,28.5981308 C72.8220543,28.8937595 72.058131,29.176131 71.288974,29.4412748 C72.0409344,36.170276 70.8666037,41.8317703 66.5459069,42.9111212 C61.3884902,44.1995588 56.7012952,38.5173375 53.7022897,31.0694869 C53.6662652,30.9799168 53.6316001,30.8888661 53.5960514,30.7987576 C52.5211619,30.5044075 51.4738006,30.123381 50.4672897,29.6495541 C52.453531,35.2279386 55.3859932,40.2614996 58.8556281,43.2896578 C61.5526396,45.6435834 64.5741434,46.7857882 67.7279183,46.0304646 C73.505908,44.6466021 74.8469029,37.136436 73.5809477,28.5981308" id="Fill-38" fill="#CE3937"></path>
                            <path d="M29.256496,42.0574571 C28.5824406,42.7696098 27.7740361,43.0773317 26.9158879,43.027567 C27.5633046,44.5959952 28.3857759,46.359923 29.0162716,46.9412502 C29.2551369,47.1614641 29.894263,47.1435327 30.7780307,46.966099 C31.3701992,46.8471606 32.0732039,46.6558921 32.8397474,46.4163364 C33.1390256,45.8251369 33.4403425,45.2365566 33.7744141,44.6821601 C35.5729374,41.6974184 38.6510719,39.5230828 42.0560748,38.6915888 C37.4258254,39.3421568 31.7064454,41.3797569 29.256496,42.0574571" id="Fill-40" fill="#CE3937"></path>
                            <path d="M28.5981308,42.0048033 C28.5934355,41.9889563 28.5885299,41.9731093 28.5836944,41.9572622 C28.0486334,42.0966364 27.6762982,42.1706334 27.5160252,42.1500124 C26.563988,42.0276787 24.5342602,40.6990488 22.5772755,37.0223417 C21.781657,37.0772426 20.9816935,37.0728002 20.1869159,37.0093458 C21.3416946,39.7628149 23.0389627,41.6818291 24.7290827,42.4814737 C25.2445213,42.7253453 25.7590488,42.8644543 26.2575281,42.8921037 C27.1118036,42.9395121 27.9179341,42.6568517 28.5981308,42.0048033" id="Fill-42" fill="#CE3937"></path>
                            <path d="M52.1495327,26.0747664 C52.6455003,27.8045216 53.2342231,29.504355 53.9049468,31.1214953 L60.5607477,27.7642631 C59.6153668,27.9040118 58.7745566,27.2706885 58.1380059,26.2842193 C56.1418246,26.423288 54.1298657,26.3536517 52.1495327,26.0747664" id="Fill-44" fill="#BA1921"></path>
                            <path d="M25.2336449,42.2661429 C23.6922054,41.5517653 22.1449503,39.9029968 21.0287426,37.5426404 C18.7872958,37.9194529 16.4350082,37.7423643 14.2990654,37.0093458 C15.0290409,38.7483388 16.2239318,40.4830838 17.5053744,41.6202421 C17.9781582,42.0397891 18.4625734,42.3784322 18.9397361,42.6053566 C20.3103302,43.2569638 23.476887,42.6708534 25.2336449,42.2661429" id="Fill-46" fill="#BA1921"></path>
                            <path d="M43.7383178,46.5745397 C43.2604887,46.1017985 42.8764411,45.5366216 42.4975695,44.9768983 L41.0898943,42.8971963 C40.8631707,43.0040601 40.6245967,43.1150659 40.3738318,43.2299375 C40.8994029,44.2570174 42.2098232,46.767005 42.6093989,47.060052 C42.8111278,47.2079907 43.2585817,46.9540166 43.7383178,46.5745397" id="Fill-48" fill="#BA1921"></path>
                            <path d="M18.0521782,71.038673 C18.8679711,70.3501513 26.8542921,63.6025582 27.2503977,62.8680945 C27.2586176,62.8527354 27.2515431,62.1158359 27.2423799,61.2210149 C27.2239861,59.3523444 27.2012129,57.0123452 28.0772402,54.9904895 C29.2733726,52.2302458 34.2400877,50.4278835 38.0783837,49.3170875 L48.3227557,46.352033 C49.5681402,45.9964727 50.8647307,46.7220051 51.2184566,47.9723187 C51.5725193,49.2229706 50.8498405,50.5250451 49.6048603,50.8802671 L48.3654724,51.2391427 C49.438845,51.1756088 50.4498945,51.8640627 50.7558505,52.945832 C51.1099133,54.1964839 50.3874366,55.4982201 49.1423217,55.8537804 L48.1134174,56.1516932 C49.2381309,56.0157616 50.3258547,56.7166652 50.6452186,57.8455267 C50.9993487,59.0957727 50.2767373,60.3982532 49.0312855,60.7534075 L48.0027855,61.0513879 C49.1273641,60.9153887 50.2152227,61.61636 50.5345866,62.7455598 C50.8887167,63.9958734 50.1661053,65.297542 48.9205861,65.6534405 C46.1235243,66.4629406 39.2292391,68.7017862 36.947539,70.1696986 C34.0855264,72.0105602 30.0006329,77.4347656 29.9886399,77.450057 C29.4466646,78.1654402 28.5113461,78.4023225 27.7181243,78.088374 L27.717181,78.0907421 L19.1751398,74.6891367 L17.6635514,71.435033 C17.7747898,71.2831333 17.9063758,71.1503142 18.0521782,71.038673" id="Fill-50" fill="#997659"></path>
                            <path d="M50.9510262,62.2429907 C51.0652563,62.4247539 51.1559345,62.6246733 51.2177667,62.8407988 C51.5745067,64.0834194 50.8465019,65.3770789 49.5918714,65.7307877 C46.7741279,66.535307 39.8290334,68.7603771 37.5305176,70.2192577 C34.6474125,72.0487927 30.5324822,77.4396235 30.5203329,77.4548209 C29.9743633,78.1658024 29.0322196,78.4012272 28.2330841,78.0892103 L28.2321339,78.0915639 L25.2336449,76.3691502 C30.5356043,71.8340121 33.4110398,67.4027004 37.7225979,65.8763059 C42.0338845,64.3499786 47.4567257,63.0359438 50.9510262,62.2429907" id="Fill-52" fill="#784931"></path>
                            <path d="M10.0934579,76.0680585 L21.911481,67.4490238 C22.2291941,67.2173074 22.6720461,67.2339729 22.9297255,67.5279513 L34.3227147,80.5319312 C34.579229,80.824643 34.5187154,82.8702931 34.2442459,83.1470728 C34.0612661,83.3315926 26.0277252,83.3101053 10.1436232,83.0826108 L10.0934579,76.0680585 Z" id="Fill-54" fill="#039157"></path>
                            <path d="M0,83.271028 L21.7064199,67.2897196 L20.0679571,68.5107767 C20.199407,68.5176227 20.3133436,68.548832 20.3782029,68.6256137 L26.0747664,75.3629388 L19.5413138,83.0237919 L0,83.271028 Z" id="Fill-57" fill="#00B272"></path>
                        </g>
                    </g>
                </g>
                <g id="messaging-copy" transform="translate(99.000000, 8.000000)" fill-rule="nonzero">
                    <path d="M9.578125,49.90625 L9.578125,50 L7.953125,50 L5.484375,45.390625 L2.8359375,45.390625 L2.8359375,50 L1.3203125,50 L1.3203125,38.625 L5.0859375,38.625 C6.37240227,38.625 7.35937156,38.9179658 8.046875,39.5039062 C8.73437844,40.0898467 9.078125,40.9348903 9.078125,42.0390625 C9.078125,42.742191 8.88672066,43.3580703 8.50390625,43.8867188 C8.12109184,44.4153672 7.58854508,44.8124987 6.90625,45.078125 L9.578125,49.90625 Z M5.125,44.171875 C5.64583594,44.171875 6.08853984,44.0781259 6.453125,43.890625 C6.81771016,43.7031241 7.09244699,43.4479183 7.27734375,43.125 C7.46224051,42.8020817 7.5546875,42.4401062 7.5546875,42.0390625 C7.5546875,41.3515591 7.35156453,40.8151061 6.9453125,40.4296875 C6.53906047,40.0442689 5.919275,39.8515625 5.0859375,39.8515625 L2.8359375,39.8515625 L2.8359375,44.171875 L5.125,44.171875 Z M17.7578125,46.171875 L12.0390625,46.171875 C12.0546876,46.6979193 12.1640615,47.174477 12.3671875,47.6015625 C12.5703135,48.028648 12.8580711,48.3658842 13.2304688,48.6132812 C13.6028664,48.8606783 14.03906,48.984375 14.5390625,48.984375 C15.0286483,48.984375 15.4518211,48.8854177 15.8085938,48.6875 C16.1653664,48.4895823 16.4843736,48.205731 16.765625,47.8359375 L17.6484375,48.5234375 C17.3359359,49.0026066 16.9192734,49.3945297 16.3984375,49.6992188 C15.8776016,50.0039078 15.2317747,50.15625 14.4609375,50.15625 C13.6901003,50.15625 13.0104196,49.9817726 12.421875,49.6328125 C11.8333304,49.2838524 11.3789079,48.7994823 11.0585938,48.1796875 C10.7382796,47.5598927 10.578125,46.8567748 10.578125,46.0703125 L10.578125,45.734375 C10.578125,44.8541623 10.7499983,44.0846387 11.09375,43.4257812 C11.4375017,42.7669238 11.8919243,42.2630226 12.4570312,41.9140625 C13.0221382,41.5651024 13.6276009,41.390625 14.2734375,41.390625 C15.0598998,41.390625 15.712237,41.5664045 16.2304688,41.9179688 C16.7487005,42.269533 17.1328112,42.7552052 17.3828125,43.375 C17.6328138,43.9947948 17.7578125,44.7109334 17.7578125,45.5234375 L17.7578125,46.171875 Z M16.296875,44.890625 C16.2552081,44.2291634 16.0768245,43.6757835 15.7617188,43.2304688 C15.446613,42.785154 14.9505242,42.5625 14.2734375,42.5625 C13.6901013,42.5625 13.204429,42.7747375 12.8164062,43.1992188 C12.4283835,43.6237 12.1848963,44.2239545 12.0859375,45 L16.296875,45 L16.296875,44.890625 Z M23.0703125,39.0625 C22.6067685,39.0625 22.2473971,39.1992174 21.9921875,39.4726562 C21.7369779,39.7460951 21.609375,40.1380183 21.609375,40.6484375 L21.609375,41.546875 L23.40625,41.546875 L23.40625,42.6484375 L21.609375,42.6484375 L21.609375,50 L20.1484375,50 L20.1484375,42.6484375 L18.8203125,42.6484375 L18.8203125,41.546875 L20.1484375,41.546875 L20.1484375,40.6484375 C20.1484375,39.7473913 20.3945288,39.0533879 20.8867188,38.5664062 C21.3789087,38.0794246 22.0624956,37.8359375 22.9375,37.8359375 C23.2552099,37.8359375 23.5859358,37.8776037 23.9296875,37.9609375 L23.8515625,39.125 C23.6171863,39.0833331 23.3567723,39.0625 23.0703125,39.0625 Z M31.8125,46.171875 L26.09375,46.171875 C26.1093751,46.6979193 26.218749,47.174477 26.421875,47.6015625 C26.625001,48.028648 26.9127586,48.3658842 27.2851562,48.6132812 C27.6575539,48.8606783 28.0937475,48.984375 28.59375,48.984375 C29.0833358,48.984375 29.5065086,48.8854177 29.8632812,48.6875 C30.2200539,48.4895823 30.5390611,48.205731 30.8203125,47.8359375 L31.703125,48.5234375 C31.3906234,49.0026066 30.9739609,49.3945297 30.453125,49.6992188 C29.9322891,50.0039078 29.2864622,50.15625 28.515625,50.15625 C27.7447878,50.15625 27.0651071,49.9817726 26.4765625,49.6328125 C25.8880179,49.2838524 25.4335954,48.7994823 25.1132812,48.1796875 C24.7929671,47.5598927 24.6328125,46.8567748 24.6328125,46.0703125 L24.6328125,45.734375 C24.6328125,44.8541623 24.8046858,44.0846387 25.1484375,43.4257812 C25.4921892,42.7669238 25.9466118,42.2630226 26.5117188,41.9140625 C27.0768257,41.5651024 27.6822884,41.390625 28.328125,41.390625 C29.1145873,41.390625 29.7669245,41.5664045 30.2851562,41.9179688 C30.803388,42.269533 31.1874988,42.7552052 31.4375,43.375 C31.6875013,43.9947948 31.8125,44.7109334 31.8125,45.5234375 L31.8125,46.171875 Z M30.3515625,44.890625 C30.3098956,44.2291634 30.131512,43.6757835 29.8164062,43.2304688 C29.5013005,42.785154 29.0052117,42.5625 28.328125,42.5625 C27.7447887,42.5625 27.2591165,42.7747375 26.8710938,43.1992188 C26.483071,43.6237 26.2395838,44.2239545 26.140625,45 L30.3515625,45 L30.3515625,44.890625 Z M36.9453125,41.390625 C37.039063,41.390625 37.1562493,41.4023436 37.296875,41.4257812 C37.4375007,41.4492189 37.5338539,41.4739582 37.5859375,41.5 L37.5859375,42.8359375 C37.361978,42.7942706 37.1250012,42.7734375 36.875,42.7734375 C36.3958309,42.7734375 35.9960954,42.8802073 35.6757812,43.09375 C35.3554671,43.3072927 35.1145841,43.6067689 34.953125,43.9921875 L34.953125,50 L33.4921875,50 L33.4921875,41.546875 L34.9140625,41.546875 L34.9453125,42.5078125 C35.1640636,42.1536441 35.4401025,41.8789072 35.7734375,41.6835938 C36.1067725,41.4882803 36.4973936,41.390625 36.9453125,41.390625 Z M47.78125,44.15625 C48.4791702,44.3802095 48.9804672,44.7330705 49.2851562,45.2148438 C49.5898453,45.696617 49.7421875,46.234372 49.7421875,46.828125 C49.7421875,47.5208368 49.5859391,48.117185 49.2734375,48.6171875 C48.9609359,49.11719 48.5325548,49.4986966 47.9882812,49.7617188 C47.4440077,50.0247409 46.8281284,50.15625 46.140625,50.15625 C45.4687466,50.15625 44.8593777,50.0312512 44.3125,49.78125 C43.7656223,49.5312487 43.3320329,49.1679711 43.0117188,48.6914062 C42.6914046,48.2148414 42.53125,47.6484408 42.53125,46.9921875 L43.9921875,46.9921875 C43.9921875,47.3880228 44.0794262,47.7369777 44.2539062,48.0390625 C44.4283863,48.3411473 44.6770817,48.5742179 45,48.7382812 C45.3229183,48.9023446 45.7031228,48.984375 46.140625,48.984375 C46.8125034,48.984375 47.3372377,48.8046893 47.7148438,48.4453125 C48.0924498,48.0859357 48.28125,47.5572952 48.28125,46.859375 C48.28125,46.1666632 48.0690125,45.6471371 47.6445312,45.3007812 C47.22005,44.9544254 46.6302121,44.78125 45.875,44.78125 L44.84375,44.78125 L44.84375,43.609375 L45.875,43.609375 C46.3593774,43.609375 46.7695296,43.5260425 47.1054688,43.359375 C47.4414079,43.1927075 47.6927075,42.960939 47.859375,42.6640625 C48.0260425,42.367186 48.109375,42.0286477 48.109375,41.6484375 C48.109375,40.9921842 47.9440121,40.4934913 47.6132812,40.1523438 C47.2825504,39.8111962 46.7890658,39.640625 46.1328125,39.640625 C45.7265605,39.640625 45.3697932,39.7213534 45.0625,39.8828125 C44.7552068,40.0442716 44.5156259,40.2721339 44.34375,40.5664062 C44.1718741,40.8606786 44.0859375,41.2057272 44.0859375,41.6015625 L42.625,41.6015625 C42.625,41.0234346 42.7721339,40.4947941 43.0664062,40.015625 C43.3606786,39.5364559 43.7734348,39.1588555 44.3046875,38.8828125 C44.8359402,38.6067695 45.4453091,38.46875 46.1328125,38.46875 C46.8255243,38.46875 47.4296849,38.5911446 47.9453125,38.8359375 C48.4609401,39.0807304 48.8606757,39.444008 49.1445312,39.9257812 C49.4283868,40.4075545 49.5703125,40.9921841 49.5703125,41.6796875 C49.5703125,41.976564 49.505209,42.2838526 49.375,42.6015625 C49.244791,42.9192724 49.0455743,43.2161445 48.7773438,43.4921875 C48.5091132,43.7682305 48.1770853,43.9895825 47.78125,44.15625 Z M59.4296875,50 C59.0963525,50.1041672 58.7239604,50.15625 58.3125,50.15625 C57.7239554,50.15625 57.2513039,49.9791684 56.8945312,49.625 C56.5377586,49.2708316 56.359375,48.6953165 56.359375,47.8984375 L56.359375,42.6484375 L54.8203125,42.6484375 L54.8203125,41.546875 L56.359375,41.546875 L56.359375,39.4921875 L57.8203125,39.4921875 L57.8203125,41.546875 L59.3984375,41.546875 L59.3984375,42.6484375 L57.8203125,42.6484375 L57.8203125,47.90625 C57.8203125,48.3072937 57.903645,48.5768222 58.0703125,48.7148438 C58.23698,48.8528653 58.4635402,48.921875 58.75,48.921875 C58.8593755,48.921875 58.979166,48.9127605 59.109375,48.8945312 C59.239584,48.876302 59.3437496,48.8567709 59.421875,48.8359375 L59.4296875,50 Z M67.890625,46.171875 L62.171875,46.171875 C62.1875001,46.6979193 62.296874,47.174477 62.5,47.6015625 C62.703126,48.028648 62.9908836,48.3658842 63.3632812,48.6132812 C63.7356789,48.8606783 64.1718725,48.984375 64.671875,48.984375 C65.1614608,48.984375 65.5846336,48.8854177 65.9414062,48.6875 C66.2981789,48.4895823 66.6171861,48.205731 66.8984375,47.8359375 L67.78125,48.5234375 C67.4687484,49.0026066 67.0520859,49.3945297 66.53125,49.6992188 C66.0104141,50.0039078 65.3645872,50.15625 64.59375,50.15625 C63.8229128,50.15625 63.1432321,49.9817726 62.5546875,49.6328125 C61.9661429,49.2838524 61.5117204,48.7994823 61.1914062,48.1796875 C60.8710921,47.5598927 60.7109375,46.8567748 60.7109375,46.0703125 L60.7109375,45.734375 C60.7109375,44.8541623 60.8828108,44.0846387 61.2265625,43.4257812 C61.5703142,42.7669238 62.0247368,42.2630226 62.5898438,41.9140625 C63.1549507,41.5651024 63.7604134,41.390625 64.40625,41.390625 C65.1927123,41.390625 65.8450495,41.5664045 66.3632812,41.9179688 C66.881513,42.269533 67.2656238,42.7552052 67.515625,43.375 C67.7656262,43.9947948 67.890625,44.7109334 67.890625,45.5234375 L67.890625,46.171875 Z M66.4296875,44.890625 C66.3880206,44.2291634 66.209637,43.6757835 65.8945312,43.2304688 C65.5794255,42.785154 65.0833367,42.5625 64.40625,42.5625 C63.8229137,42.5625 63.3372415,42.7747375 62.9492188,43.1992188 C62.561196,43.6237 62.3177088,44.2239545 62.21875,45 L66.4296875,45 L66.4296875,44.890625 Z M76.015625,48.15625 C76.015625,48.4531265 76.0416664,48.759113 76.09375,49.0742188 C76.1458336,49.3893245 76.2187495,49.6562489 76.3125,49.875 L76.3125,50 L74.7890625,50 C74.7005204,49.796874 74.6328127,49.5026061 74.5859375,49.1171875 C74.2942694,49.4296891 73.9440125,49.6809886 73.5351562,49.8710938 C73.1263,50.0611989 72.6770858,50.15625 72.1875,50.15625 C71.6249972,50.15625 71.1263043,50.045574 70.6914062,49.8242188 C70.2565082,49.6028635 69.9205741,49.3020852 69.6835938,48.921875 C69.4466134,48.5416648 69.328125,48.119794 69.328125,47.65625 C69.328125,47.0572887 69.4830714,46.5494812 69.7929688,46.1328125 C70.1028661,45.7161438 70.5429659,45.4023448 71.1132812,45.1914062 C71.6835966,44.9804677 72.356767,44.875 73.1328125,44.875 L74.5546875,44.875 L74.5546875,44.203125 C74.5546875,43.6874974 74.4023453,43.2825536 74.0976562,42.9882812 C73.7929672,42.6940089 73.3541695,42.546875 72.78125,42.546875 C72.4322899,42.546875 72.119793,42.6080723 71.84375,42.7304688 C71.567707,42.8528652 71.3528654,43.0169261 71.1992188,43.2226562 C71.0455721,43.4283864 70.96875,43.6510405 70.96875,43.890625 L69.5078125,43.890625 C69.5078125,43.4791646 69.6484361,43.0807311 69.9296875,42.6953125 C70.2109389,42.3098939 70.6067683,41.996095 71.1171875,41.7539062 C71.6276067,41.5117175 72.2109342,41.390625 72.8671875,41.390625 C73.4921906,41.390625 74.0403622,41.4960927 74.5117188,41.7070312 C74.9830753,41.9179698 75.3515612,42.235675 75.6171875,42.6601562 C75.8828138,43.0846375 76.015625,43.6041636 76.015625,44.21875 L76.015625,48.15625 Z M72.3984375,48.90625 C72.7317725,48.90625 73.0429673,48.8476568 73.3320312,48.7304688 C73.6210952,48.6132807 73.8697906,48.4583343 74.078125,48.265625 C74.2864594,48.0729157 74.445312,47.8645845 74.5546875,47.640625 L74.5546875,45.890625 L73.3671875,45.890625 C72.53385,45.890625 71.8958355,46.0221341 71.453125,46.2851562 C71.0104145,46.5481784 70.7890625,46.9374974 70.7890625,47.453125 C70.7890625,47.729168 70.8515619,47.9765614 70.9765625,48.1953125 C71.1015631,48.4140636 71.283853,48.5872389 71.5234375,48.7148438 C71.763022,48.8424486 72.0546858,48.90625 72.3984375,48.90625 Z M85.046875,47.328125 C85.0208332,47.8229191 84.8515641,48.2877582 84.5390625,48.7226562 C84.2265609,49.1575543 83.8164088,49.505207 83.3085938,49.765625 C82.8007787,50.026043 82.2552113,50.15625 81.671875,50.15625 C80.8541626,50.15625 80.1627632,49.9674498 79.5976562,49.5898438 C79.0325493,49.2122377 78.6093764,48.7044303 78.328125,48.0664062 C78.0468736,47.4283822 77.90625,46.7187539 77.90625,45.9375 L77.90625,45.609375 C77.90625,44.8281211 78.0468736,44.1184928 78.328125,43.4804688 C78.6093764,42.8424447 79.0325493,42.3346373 79.5976562,41.9570312 C80.1627632,41.5794252 80.8541626,41.390625 81.671875,41.390625 C82.3177116,41.390625 82.8919246,41.5234362 83.3945312,41.7890625 C83.8971379,42.0546888 84.2916652,42.4205706 84.578125,42.8867188 C84.8645848,43.3528669 85.0208332,43.8749971 85.046875,44.453125 L83.6640625,44.453125 C83.6380207,44.1041649 83.5390634,43.7851577 83.3671875,43.4960938 C83.1953116,43.2070298 82.9635431,42.9791675 82.671875,42.8125 C82.3802069,42.6458325 82.0468769,42.5625 81.671875,42.5625 C81.1145805,42.5625 80.6640642,42.7070298 80.3203125,42.9960938 C79.9765608,43.2851577 79.7317716,43.6575498 79.5859375,44.1132812 C79.4401034,44.5690127 79.3671875,45.0677056 79.3671875,45.609375 L79.3671875,45.9375 C79.3671875,46.8020877 79.5455711,47.5260387 79.9023438,48.109375 C80.2591164,48.6927113 80.8489542,48.984375 81.671875,48.984375 C82.0104184,48.984375 82.3268214,48.9127611 82.6210938,48.7695312 C82.9153661,48.6263014 83.1562491,48.4283867 83.34375,48.1757812 C83.5312509,47.9231758 83.6380207,47.6406266 83.6640625,47.328125 L85.046875,47.328125 Z M90.609375,41.390625 C92.4166757,41.390625 93.3203125,42.4140523 93.3203125,44.4609375 L93.3203125,50 L91.859375,50 L91.859375,44.4453125 C91.859375,43.7994759 91.7200535,43.3307306 91.4414062,43.0390625 C91.162759,42.7473944 90.7421903,42.6015625 90.1796875,42.6015625 C89.7317686,42.6015625 89.3294289,42.7239571 88.9726562,42.96875 C88.6158836,43.2135429 88.3333344,43.5416646 88.125,43.953125 L88.125,50 L86.6640625,50 L86.6640625,38 L88.125,38 L88.125,42.546875 C88.4322932,42.1770815 88.7968729,41.8919281 89.21875,41.6914062 C89.6406271,41.4908844 90.1041641,41.390625 90.609375,41.390625 Z M102.289062,46.171875 L96.5703125,46.171875 C96.5859376,46.6979193 96.6953115,47.174477 96.8984375,47.6015625 C97.1015635,48.028648 97.3893211,48.3658842 97.7617188,48.6132812 C98.1341164,48.8606783 98.57031,48.984375 99.0703125,48.984375 C99.5598983,48.984375 99.9830711,48.8854177 100.339844,48.6875 C100.696616,48.4895823 101.015624,48.205731 101.296875,47.8359375 L102.179688,48.5234375 C101.867186,49.0026066 101.450523,49.3945297 100.929688,49.6992188 C100.408852,50.0039078 99.7630247,50.15625 98.9921875,50.15625 C98.2213503,50.15625 97.5416696,49.9817726 96.953125,49.6328125 C96.3645804,49.2838524 95.9101579,48.7994823 95.5898438,48.1796875 C95.2695296,47.5598927 95.109375,46.8567748 95.109375,46.0703125 L95.109375,45.734375 C95.109375,44.8541623 95.2812483,44.0846387 95.625,43.4257812 C95.9687517,42.7669238 96.4231743,42.2630226 96.9882812,41.9140625 C97.5533882,41.5651024 98.1588509,41.390625 98.8046875,41.390625 C99.5911498,41.390625 100.243487,41.5664045 100.761719,41.9179688 C101.279951,42.269533 101.664061,42.7552052 101.914062,43.375 C102.164064,43.9947948 102.289062,44.7109334 102.289062,45.5234375 L102.289062,46.171875 Z M100.828125,44.890625 C100.786458,44.2291634 100.608074,43.6757835 100.292969,43.2304688 C99.977863,42.785154 99.4817742,42.5625 98.8046875,42.5625 C98.2213512,42.5625 97.735679,42.7747375 97.3476562,43.1992188 C96.9596335,43.6237 96.7161463,44.2239545 96.6171875,45 L100.828125,45 L100.828125,44.890625 Z M107.421875,41.390625 C107.515625,41.390625 107.632812,41.4023436 107.773438,41.4257812 C107.914063,41.4492189 108.010416,41.4739582 108.0625,41.5 L108.0625,42.8359375 C107.838541,42.7942706 107.601564,42.7734375 107.351562,42.7734375 C106.872393,42.7734375 106.472658,42.8802073 106.152344,43.09375 C105.83203,43.3072927 105.591147,43.6067689 105.429688,43.9921875 L105.429688,50 L103.96875,50 L103.96875,41.546875 L105.390625,41.546875 L105.421875,42.5078125 C105.640626,42.1536441 105.916665,41.8789072 106.25,41.6835938 C106.583335,41.4882803 106.973956,41.390625 107.421875,41.390625 Z M112.375,46.2890625 C111.369787,46.0807281 110.61068,45.7890644 110.097656,45.4140625 C109.584633,45.0390606 109.328125,44.5208366 109.328125,43.859375 C109.328125,43.4114561 109.458332,43.0000019 109.71875,42.625 C109.979168,42.2499981 110.347654,41.950522 110.824219,41.7265625 C111.300784,41.502603 111.846351,41.390625 112.460938,41.390625 C113.117191,41.390625 113.690102,41.5078113 114.179688,41.7421875 C114.669273,41.9765637 115.042967,42.2929668 115.300781,42.6914062 C115.558595,43.0898457 115.6875,43.5338517 115.6875,44.0234375 L114.226562,44.0234375 C114.226562,43.783853 114.156251,43.5520845 114.015625,43.328125 C113.874999,43.1041655 113.670574,42.9205736 113.402344,42.7773438 C113.134113,42.6341139 112.820314,42.5625 112.460938,42.5625 C112.080727,42.5625 111.765626,42.6210932 111.515625,42.7382812 C111.265624,42.8554693 111.082032,43.0091136 110.964844,43.1992188 C110.847656,43.3893239 110.789062,43.5937489 110.789062,43.8125 C110.789062,44.0364595 110.842447,44.2226555 110.949219,44.3710938 C111.05599,44.519532 111.248697,44.6536452 111.527344,44.7734375 C111.805991,44.8932298 112.208331,45.0104161 112.734375,45.125 C113.442712,45.2864591 114.018227,45.4765614 114.460938,45.6953125 C114.903648,45.9140636 115.233072,46.1822901 115.449219,46.5 C115.665366,46.8177099 115.773438,47.2031227 115.773438,47.65625 C115.773438,48.1458358 115.638022,48.5794252 115.367188,48.9570312 C115.096353,49.3346373 114.713544,49.6289052 114.21875,49.8398438 C113.723956,50.0507823 113.151045,50.15625 112.5,50.15625 C111.781246,50.15625 111.160159,50.027345 110.636719,49.7695312 C110.113279,49.5117175 109.716147,49.1718771 109.445312,48.75 C109.174478,48.3281229 109.039062,47.8776066 109.039062,47.3984375 L110.5,47.3984375 C110.520833,47.7734394 110.630207,48.0794259 110.828125,48.3164062 C111.026043,48.5533866 111.272134,48.7239578 111.566406,48.828125 C111.860679,48.9322922 112.171873,48.984375 112.5,48.984375 C112.88021,48.984375 113.20703,48.9309901 113.480469,48.8242188 C113.753908,48.7174474 113.960937,48.5716155 114.101562,48.3867188 C114.242188,48.201822 114.3125,47.9921887 114.3125,47.7578125 C114.3125,47.5234363 114.263021,47.3203134 114.164062,47.1484375 C114.065104,46.9765616 113.875001,46.8177091 113.59375,46.671875 C113.312499,46.5260409 112.906253,46.398438 112.375,46.2890625 Z M7.5390625,68.15625 C7.5390625,68.4531265 7.56510391,68.759113 7.6171875,69.0742188 C7.66927109,69.3893245 7.74218703,69.6562489 7.8359375,69.875 L7.8359375,70 L6.3125,70 C6.22395789,69.796874 6.15625023,69.5026061 6.109375,69.1171875 C5.81770687,69.4296891 5.46744996,69.6809886 5.05859375,69.8710938 C4.64973754,70.0611989 4.20052328,70.15625 3.7109375,70.15625 C3.14843469,70.15625 2.64974176,70.045574 2.21484375,69.8242188 C1.77994574,69.6028635 1.4440116,69.3020852 1.20703125,68.921875 C0.970050898,68.5416648 0.8515625,68.119794 0.8515625,67.65625 C0.8515625,67.0572887 1.00650887,66.5494812 1.31640625,66.1328125 C1.62630363,65.7161438 2.0664034,65.4023448 2.63671875,65.1914062 C3.2070341,64.9804677 3.88020445,64.875 4.65625,64.875 L6.078125,64.875 L6.078125,64.203125 C6.078125,63.6874974 5.92578277,63.2825536 5.62109375,62.9882812 C5.31640473,62.6940089 4.87760703,62.546875 4.3046875,62.546875 C3.95572742,62.546875 3.64323055,62.6080723 3.3671875,62.7304688 C3.09114445,62.8528652 2.87630285,63.0169261 2.72265625,63.2226562 C2.56900965,63.4283864 2.4921875,63.6510405 2.4921875,63.890625 L1.03125,63.890625 C1.03125,63.4791646 1.17187359,63.0807311 1.453125,62.6953125 C1.73437641,62.3098939 2.13020578,61.996095 2.640625,61.7539062 C3.15104422,61.5117175 3.73437172,61.390625 4.390625,61.390625 C5.01562813,61.390625 5.56379973,61.4960927 6.03515625,61.7070312 C6.50651277,61.9179698 6.87499867,62.235675 7.140625,62.6601562 C7.40625133,63.0846375 7.5390625,63.6041636 7.5390625,64.21875 L7.5390625,68.15625 Z M3.921875,68.90625 C4.25521,68.90625 4.5664048,68.8476568 4.85546875,68.7304688 C5.1445327,68.6132807 5.39322813,68.4583343 5.6015625,68.265625 C5.80989687,68.0729157 5.96874945,67.8645845 6.078125,67.640625 L6.078125,65.890625 L4.890625,65.890625 C4.0572875,65.890625 3.41927305,66.0221341 2.9765625,66.2851562 C2.53385195,66.5481784 2.3125,66.9374974 2.3125,67.453125 C2.3125,67.729168 2.37499937,67.9765614 2.5,68.1953125 C2.62500063,68.4140636 2.80729047,68.5872389 3.046875,68.7148438 C3.28645953,68.8424486 3.57812328,68.90625 3.921875,68.90625 Z M13.75,61.390625 C15.5573007,61.390625 16.4609375,62.4140523 16.4609375,64.4609375 L16.4609375,70 L15,70 L15,64.4453125 C15,63.7994759 14.8606785,63.3307306 14.5820312,63.0390625 C14.303384,62.7473944 13.8828153,62.6015625 13.3203125,62.6015625 C12.8723936,62.6015625 12.4700539,62.7239571 12.1132812,62.96875 C11.7565086,63.2135429 11.4739594,63.5416646 11.265625,63.953125 L11.265625,70 L9.8046875,70 L9.8046875,61.546875 L11.1875,61.546875 L11.234375,62.5859375 C11.5416682,62.2057273 11.908852,61.9114594 12.3359375,61.703125 C12.763023,61.4947906 13.2343724,61.390625 13.75,61.390625 Z M25.4296875,58 L25.4296875,70 L24.09375,70 L24.0234375,69.1015625 C23.450518,69.804691 22.6484427,70.15625 21.6171875,70.15625 C20.9661426,70.15625 20.3880234,69.971356 19.8828125,69.6015625 C19.3776016,69.231769 18.9856785,68.7213574 18.7070312,68.0703125 C18.428384,67.4192676 18.2890625,66.6848999 18.2890625,65.8671875 L18.2890625,65.703125 C18.2890625,64.8489541 18.427082,64.0963574 18.703125,63.4453125 C18.979168,62.7942676 19.3697891,62.2890643 19.875,61.9296875 C20.3802109,61.5703107 20.9661425,61.390625 21.6328125,61.390625 C22.6276091,61.390625 23.4062472,61.7213509 23.96875,62.3828125 L23.96875,58 L25.4296875,58 Z M21.9765625,68.9375 C22.8776087,68.9375 23.5416645,68.5286499 23.96875,67.7109375 L23.96875,63.796875 C23.7708323,63.4270815 23.5091162,63.1354177 23.1835938,62.921875 C22.8580713,62.7083323 22.4609398,62.6015625 21.9921875,62.6015625 C21.4869766,62.6015625 21.0664079,62.7382799 20.7304688,63.0117188 C20.3945296,63.2851576 20.1471362,63.6562477 19.9882812,64.125 C19.8294263,64.5937523 19.75,65.1197887 19.75,65.703125 L19.75,65.8671875 C19.75,66.4505238 19.8294263,66.9726539 19.9882812,67.4335938 C20.1471362,67.8945336 20.3932275,68.2604153 20.7265625,68.53125 C21.0598975,68.8020847 21.47656,68.9375 21.9765625,68.9375 Z M38.453125,66.171875 L32.734375,66.171875 C32.7500001,66.6979193 32.859374,67.174477 33.0625,67.6015625 C33.265626,68.028648 33.5533836,68.3658842 33.9257812,68.6132812 C34.2981789,68.8606783 34.7343725,68.984375 35.234375,68.984375 C35.7239608,68.984375 36.1471336,68.8854177 36.5039062,68.6875 C36.8606789,68.4895823 37.1796861,68.205731 37.4609375,67.8359375 L38.34375,68.5234375 C38.0312484,69.0026066 37.6145859,69.3945297 37.09375,69.6992188 C36.5729141,70.0039078 35.9270872,70.15625 35.15625,70.15625 C34.3854128,70.15625 33.7057321,69.9817726 33.1171875,69.6328125 C32.5286429,69.2838524 32.0742204,68.7994823 31.7539062,68.1796875 C31.4335921,67.5598927 31.2734375,66.8567748 31.2734375,66.0703125 L31.2734375,65.734375 C31.2734375,64.8541623 31.4453108,64.0846387 31.7890625,63.4257812 C32.1328142,62.7669238 32.5872368,62.2630226 33.1523438,61.9140625 C33.7174507,61.5651024 34.3229134,61.390625 34.96875,61.390625 C35.7552123,61.390625 36.4075495,61.5664045 36.9257812,61.9179688 C37.444013,62.269533 37.8281238,62.7552052 38.078125,63.375 C38.3281263,63.9947948 38.453125,64.7109334 38.453125,65.5234375 L38.453125,66.171875 Z M36.9921875,64.890625 C36.9505206,64.2291634 36.772137,63.6757835 36.4570312,63.2304688 C36.1419255,62.785154 35.6458367,62.5625 34.96875,62.5625 C34.3854137,62.5625 33.8997415,62.7747375 33.5117188,63.1992188 C33.123696,63.6237 32.8802088,64.2239545 32.78125,65 L36.9921875,65 L36.9921875,64.890625 Z M46.578125,68.15625 C46.578125,68.4531265 46.6041664,68.759113 46.65625,69.0742188 C46.7083336,69.3893245 46.7812495,69.6562489 46.875,69.875 L46.875,70 L45.3515625,70 C45.2630204,69.796874 45.1953127,69.5026061 45.1484375,69.1171875 C44.8567694,69.4296891 44.5065125,69.6809886 44.0976562,69.8710938 C43.6888,70.0611989 43.2395858,70.15625 42.75,70.15625 C42.1874972,70.15625 41.6888043,70.045574 41.2539062,69.8242188 C40.8190082,69.6028635 40.4830741,69.3020852 40.2460938,68.921875 C40.0091134,68.5416648 39.890625,68.119794 39.890625,67.65625 C39.890625,67.0572887 40.0455714,66.5494812 40.3554688,66.1328125 C40.6653661,65.7161438 41.1054659,65.4023448 41.6757812,65.1914062 C42.2460966,64.9804677 42.919267,64.875 43.6953125,64.875 L45.1171875,64.875 L45.1171875,64.203125 C45.1171875,63.6874974 44.9648453,63.2825536 44.6601562,62.9882812 C44.3554672,62.6940089 43.9166695,62.546875 43.34375,62.546875 C42.9947899,62.546875 42.682293,62.6080723 42.40625,62.7304688 C42.130207,62.8528652 41.9153654,63.0169261 41.7617188,63.2226562 C41.6080721,63.4283864 41.53125,63.6510405 41.53125,63.890625 L40.0703125,63.890625 C40.0703125,63.4791646 40.2109361,63.0807311 40.4921875,62.6953125 C40.7734389,62.3098939 41.1692683,61.996095 41.6796875,61.7539062 C42.1901067,61.5117175 42.7734342,61.390625 43.4296875,61.390625 C44.0546906,61.390625 44.6028622,61.4960927 45.0742188,61.7070312 C45.5455753,61.9179698 45.9140612,62.235675 46.1796875,62.6601562 C46.4453138,63.0846375 46.578125,63.6041636 46.578125,64.21875 L46.578125,68.15625 Z M42.9609375,68.90625 C43.2942725,68.90625 43.6054673,68.8476568 43.8945312,68.7304688 C44.1835952,68.6132807 44.4322906,68.4583343 44.640625,68.265625 C44.8489594,68.0729157 45.007812,67.8645845 45.1171875,67.640625 L45.1171875,65.890625 L43.9296875,65.890625 C43.09635,65.890625 42.4583355,66.0221341 42.015625,66.2851562 C41.5729145,66.5481784 41.3515625,66.9374974 41.3515625,67.453125 C41.3515625,67.729168 41.4140619,67.9765614 41.5390625,68.1953125 C41.6640631,68.4140636 41.846353,68.5872389 42.0859375,68.7148438 C42.325522,68.8424486 42.6171858,68.90625 42.9609375,68.90625 Z M52.296875,61.390625 C52.3906255,61.390625 52.5078118,61.4023436 52.6484375,61.4257812 C52.7890632,61.4492189 52.8854164,61.4739582 52.9375,61.5 L52.9375,62.8359375 C52.7135405,62.7942706 52.4765638,62.7734375 52.2265625,62.7734375 C51.7473934,62.7734375 51.3476579,62.8802073 51.0273438,63.09375 C50.7070296,63.3072927 50.4661466,63.6067689 50.3046875,63.9921875 L50.3046875,70 L48.84375,70 L48.84375,61.546875 L50.265625,61.546875 L50.296875,62.5078125 C50.5156261,62.1536441 50.791665,61.8789072 51.125,61.6835938 C51.458335,61.4882803 51.8489561,61.390625 52.296875,61.390625 Z M58.2109375,61.390625 C60.0182382,61.390625 60.921875,62.4140523 60.921875,64.4609375 L60.921875,70 L59.4609375,70 L59.4609375,64.4453125 C59.4609375,63.7994759 59.321616,63.3307306 59.0429688,63.0390625 C58.7643215,62.7473944 58.3437528,62.6015625 57.78125,62.6015625 C57.3333311,62.6015625 56.9309914,62.7239571 56.5742188,62.96875 C56.2174461,63.2135429 55.9348969,63.5416646 55.7265625,63.953125 L55.7265625,70 L54.265625,70 L54.265625,61.546875 L55.6484375,61.546875 L55.6953125,62.5859375 C56.0026057,62.2057273 56.3697895,61.9114594 56.796875,61.703125 C57.2239605,61.4947906 57.6953099,61.390625 58.2109375,61.390625 Z M73.515625,68.15625 C73.515625,68.4531265 73.5416664,68.759113 73.59375,69.0742188 C73.6458336,69.3893245 73.7187495,69.6562489 73.8125,69.875 L73.8125,70 L72.2890625,70 C72.2005204,69.796874 72.1328127,69.5026061 72.0859375,69.1171875 C71.7942694,69.4296891 71.4440125,69.6809886 71.0351562,69.8710938 C70.6263,70.0611989 70.1770858,70.15625 69.6875,70.15625 C69.1249972,70.15625 68.6263043,70.045574 68.1914062,69.8242188 C67.7565082,69.6028635 67.4205741,69.3020852 67.1835938,68.921875 C66.9466134,68.5416648 66.828125,68.119794 66.828125,67.65625 C66.828125,67.0572887 66.9830714,66.5494812 67.2929688,66.1328125 C67.6028661,65.7161438 68.0429659,65.4023448 68.6132812,65.1914062 C69.1835966,64.9804677 69.856767,64.875 70.6328125,64.875 L72.0546875,64.875 L72.0546875,64.203125 C72.0546875,63.6874974 71.9023453,63.2825536 71.5976562,62.9882812 C71.2929672,62.6940089 70.8541695,62.546875 70.28125,62.546875 C69.9322899,62.546875 69.619793,62.6080723 69.34375,62.7304688 C69.067707,62.8528652 68.8528654,63.0169261 68.6992188,63.2226562 C68.5455721,63.4283864 68.46875,63.6510405 68.46875,63.890625 L67.0078125,63.890625 C67.0078125,63.4791646 67.1484361,63.0807311 67.4296875,62.6953125 C67.7109389,62.3098939 68.1067683,61.996095 68.6171875,61.7539062 C69.1276067,61.5117175 69.7109342,61.390625 70.3671875,61.390625 C70.9921906,61.390625 71.5403622,61.4960927 72.0117188,61.7070312 C72.4830753,61.9179698 72.8515612,62.235675 73.1171875,62.6601562 C73.3828138,63.0846375 73.515625,63.6041636 73.515625,64.21875 L73.515625,68.15625 Z M69.8984375,68.90625 C70.2317725,68.90625 70.5429673,68.8476568 70.8320312,68.7304688 C71.1210952,68.6132807 71.3697906,68.4583343 71.578125,68.265625 C71.7864594,68.0729157 71.945312,67.8645845 72.0546875,67.640625 L72.0546875,65.890625 L70.8671875,65.890625 C70.03385,65.890625 69.3958355,66.0221341 68.953125,66.2851562 C68.5104145,66.5481784 68.2890625,66.9374974 68.2890625,67.453125 C68.2890625,67.729168 68.3515619,67.9765614 68.4765625,68.1953125 C68.6015631,68.4140636 68.783853,68.5872389 69.0234375,68.7148438 C69.263022,68.8424486 69.5546858,68.90625 69.8984375,68.90625 Z M86.1171875,61.546875 L83.0859375,70 L81.9765625,70 L78.9140625,61.546875 L80.40625,61.546875 L82.546875,68.0234375 L84.625,61.546875 L86.1171875,61.546875 Z M87.015625,65.6875 C87.015625,64.8697876 87.1718734,64.1354199 87.484375,63.484375 C87.7968766,62.8333301 88.2434867,62.3216164 88.8242188,61.9492188 C89.4049508,61.5768211 90.0807253,61.390625 90.8515625,61.390625 C91.6328164,61.390625 92.3151012,61.5768211 92.8984375,61.9492188 C93.4817738,62.3216164 93.9296859,62.8333301 94.2421875,63.484375 C94.5546891,64.1354199 94.7109375,64.8697876 94.7109375,65.6875 L94.7109375,65.8671875 C94.7109375,66.6848999 94.5546891,67.4179655 94.2421875,68.0664062 C93.9296859,68.714847 93.4830758,69.2252586 92.9023438,69.5976562 C92.3216117,69.9700539 91.643233,70.15625 90.8671875,70.15625 C90.091142,70.15625 89.4127633,69.9700539 88.8320312,69.5976562 C88.2512992,69.2252586 87.803387,68.714847 87.4882812,68.0664062 C87.1731755,67.4179655 87.015625,66.6848999 87.015625,65.8671875 L87.015625,65.6875 Z M88.4765625,65.8671875 C88.4765625,66.440107 88.5664054,66.9635393 88.7460938,67.4375 C88.9257821,67.9114607 89.1953107,68.287759 89.5546875,68.5664062 C89.9140643,68.8450535 90.3515599,68.984375 90.8671875,68.984375 C91.3776067,68.984375 91.8124982,68.8450535 92.171875,68.5664062 C92.5312518,68.287759 92.8007804,67.9114607 92.9804688,67.4375 C93.1601571,66.9635393 93.25,66.440107 93.25,65.8671875 L93.25,65.6875 C93.25,65.1145805 93.1588551,64.5911482 92.9765625,64.1171875 C92.7942699,63.6432268 92.5234393,63.2656264 92.1640625,62.984375 C91.8046857,62.7031236 91.3671901,62.5625 90.8515625,62.5625 C90.3411433,62.5625 89.9075539,62.7031236 89.5507812,62.984375 C89.1940086,63.2656264 88.9257821,63.6432268 88.7460938,64.1171875 C88.5664054,64.5911482 88.4765625,65.1145805 88.4765625,65.6875 L88.4765625,65.8671875 Z M103.15625,61.546875 L103.15625,70 L101.765625,70 L101.742188,69.1640625 C101.179685,69.8255241 100.354172,70.15625 99.265625,70.15625 C98.395829,70.15625 97.7161483,69.9010442 97.2265625,69.390625 C96.7369767,68.8802058 96.4921875,68.0833387 96.4921875,67 L96.4921875,61.546875 L97.953125,61.546875 L97.953125,67.015625 C97.953125,67.7187535 98.0976548,68.2148423 98.3867188,68.5039062 C98.6757827,68.7929702 99.0468727,68.9375 99.5,68.9375 C100.593755,68.9375 101.325519,68.5286499 101.695312,67.7109375 L101.695312,61.546875 L103.15625,61.546875 Z M112.109375,67.328125 C112.083333,67.8229191 111.914064,68.2877582 111.601562,68.7226562 C111.289061,69.1575543 110.878909,69.505207 110.371094,69.765625 C109.863279,70.026043 109.317711,70.15625 108.734375,70.15625 C107.916663,70.15625 107.225263,69.9674498 106.660156,69.5898438 C106.095049,69.2122377 105.671876,68.7044303 105.390625,68.0664062 C105.109374,67.4283822 104.96875,66.7187539 104.96875,65.9375 L104.96875,65.609375 C104.96875,64.8281211 105.109374,64.1184928 105.390625,63.4804688 C105.671876,62.8424447 106.095049,62.3346373 106.660156,61.9570312 C107.225263,61.5794252 107.916663,61.390625 108.734375,61.390625 C109.380212,61.390625 109.954425,61.5234362 110.457031,61.7890625 C110.959638,62.0546888 111.354165,62.4205706 111.640625,62.8867188 C111.927085,63.3528669 112.083333,63.8749971 112.109375,64.453125 L110.726562,64.453125 C110.700521,64.1041649 110.601563,63.7851577 110.429688,63.4960938 C110.257812,63.2070298 110.026043,62.9791675 109.734375,62.8125 C109.442707,62.6458325 109.109377,62.5625 108.734375,62.5625 C108.177081,62.5625 107.726564,62.7070298 107.382812,62.9960938 C107.039061,63.2851577 106.794272,63.6575498 106.648438,64.1132812 C106.502603,64.5690127 106.429688,65.0677056 106.429688,65.609375 L106.429688,65.9375 C106.429688,66.8020877 106.608071,67.5260387 106.964844,68.109375 C107.321616,68.6927113 107.911454,68.984375 108.734375,68.984375 C109.072918,68.984375 109.389321,68.9127611 109.683594,68.7695312 C109.977866,68.6263014 110.218749,68.4283867 110.40625,68.1757812 C110.593751,67.9231758 110.700521,67.6406266 110.726562,67.328125 L112.109375,67.328125 Z M117.671875,61.390625 C119.479176,61.390625 120.382812,62.4140523 120.382812,64.4609375 L120.382812,70 L118.921875,70 L118.921875,64.4453125 C118.921875,63.7994759 118.782553,63.3307306 118.503906,63.0390625 C118.225259,62.7473944 117.80469,62.6015625 117.242188,62.6015625 C116.794269,62.6015625 116.391929,62.7239571 116.035156,62.96875 C115.678384,63.2135429 115.395834,63.5416646 115.1875,63.953125 L115.1875,70 L113.726562,70 L113.726562,58 L115.1875,58 L115.1875,62.546875 C115.494793,62.1770815 115.859373,61.8919281 116.28125,61.6914062 C116.703127,61.4908844 117.166664,61.390625 117.671875,61.390625 Z M129.351562,66.171875 L123.632812,66.171875 C123.648438,66.6979193 123.757811,67.174477 123.960938,67.6015625 C124.164064,68.028648 124.451821,68.3658842 124.824219,68.6132812 C125.196616,68.8606783 125.63281,68.984375 126.132812,68.984375 C126.622398,68.984375 127.045571,68.8854177 127.402344,68.6875 C127.759116,68.4895823 128.078124,68.205731 128.359375,67.8359375 L129.242188,68.5234375 C128.929686,69.0026066 128.513023,69.3945297 127.992188,69.6992188 C127.471352,70.0039078 126.825525,70.15625 126.054688,70.15625 C125.28385,70.15625 124.60417,69.9817726 124.015625,69.6328125 C123.42708,69.2838524 122.972658,68.7994823 122.652344,68.1796875 C122.33203,67.5598927 122.171875,66.8567748 122.171875,66.0703125 L122.171875,65.734375 C122.171875,64.8541623 122.343748,64.0846387 122.6875,63.4257812 C123.031252,62.7669238 123.485674,62.2630226 124.050781,61.9140625 C124.615888,61.5651024 125.221351,61.390625 125.867188,61.390625 C126.65365,61.390625 127.305987,61.5664045 127.824219,61.9179688 C128.342451,62.269533 128.726561,62.7552052 128.976562,63.375 C129.226564,63.9947948 129.351562,64.7109334 129.351562,65.5234375 L129.351562,66.171875 Z M127.890625,64.890625 C127.848958,64.2291634 127.670574,63.6757835 127.355469,63.2304688 C127.040363,62.785154 126.544274,62.5625 125.867188,62.5625 C125.283851,62.5625 124.798179,62.7747375 124.410156,63.1992188 C124.022133,63.6237 123.778646,64.2239545 123.679688,65 L127.890625,65 L127.890625,64.890625 Z M134.484375,61.390625 C134.578125,61.390625 134.695312,61.4023436 134.835938,61.4257812 C134.976563,61.4492189 135.072916,61.4739582 135.125,61.5 L135.125,62.8359375 C134.901041,62.7942706 134.664064,62.7734375 134.414062,62.7734375 C133.934893,62.7734375 133.535158,62.8802073 133.214844,63.09375 C132.89453,63.3072927 132.653647,63.6067689 132.492188,63.9921875 L132.492188,70 L131.03125,70 L131.03125,61.546875 L132.453125,61.546875 L132.484375,62.5078125 C132.703126,62.1536441 132.979165,61.8789072 133.3125,61.6835938 C133.645835,61.4882803 134.036456,61.390625 134.484375,61.390625 Z" id="Refer3teachersandearnavoucher" fill="#3D4564"></path>
                    <path d="M14.8828125,24.8242188 L14.8828125,25 L10.9453125,25 L7.8046875,18.8359375 L5.14453125,18.8359375 L5.14453125,25 L1.46484375,25 L1.46484375,7.9375 L7.91015625,7.9375 C9.23047535,7.9375 10.3652296,8.13476365 11.3144531,8.52929688 C12.2636766,8.9238301 12.992185,9.50585553 13.5,10.2753906 C14.007815,11.0449257 14.2617188,11.9843695 14.2617188,13.09375 C14.2617188,14.3046936 14.0000026,15.294918 13.4765625,16.0644531 C12.9531224,16.8339882 12.2031299,17.441404 11.2265625,17.8867188 L14.8828125,24.8242188 Z M5.14453125,15.859375 L7.91015625,15.859375 C8.78516062,15.859375 9.44921648,15.6406272 9.90234375,15.203125 C10.355471,14.7656228 10.5820312,14.1640663 10.5820312,13.3984375 C10.5820312,12.6171836 10.3574241,12.0078147 9.90820312,11.5703125 C9.45898213,11.1328103 8.79297316,10.9140625 7.91015625,10.9140625 L5.14453125,10.9140625 L5.14453125,15.859375 Z M27.8320312,19.8085938 L19.8164062,19.8085938 C19.9492194,20.5976602 20.2773411,21.2246071 20.8007812,21.6894531 C21.3242214,22.1542992 21.9960896,22.3867188 22.8164062,22.3867188 C23.4257843,22.3867188 23.9902318,22.2714855 24.5097656,22.0410156 C25.0292995,21.8105457 25.4726544,21.4648461 25.8398438,21.0039062 L27.5390625,22.9609375 C27.0937478,23.6015657 26.4433637,24.1406228 25.5878906,24.578125 C24.7324176,25.0156272 23.7304745,25.234375 22.5820312,25.234375 C21.2851498,25.234375 20.1582079,24.9609402 19.2011719,24.4140625 C18.2441358,23.8671848 17.5097682,23.1250047 16.9980469,22.1875 C16.4863256,21.2499953 16.2304688,20.2148494 16.2304688,19.0820312 L16.2304688,18.6367188 C16.2304688,17.3710874 16.4687476,16.2421925 16.9453125,15.25 C17.4218774,14.2578075 18.1093705,13.4824247 19.0078125,12.9238281 C19.9062545,12.3652316 20.9687439,12.0859375 22.1953125,12.0859375 C23.390631,12.0859375 24.410152,12.3398412 25.2539062,12.8476562 C26.0976605,13.3554713 26.7382791,14.0761672 27.1757812,15.0097656 C27.6132834,15.943364 27.8320312,17.0429624 27.8320312,18.3085938 L27.8320312,19.8085938 Z M24.3632812,17.1601562 C24.3476562,16.4726528 24.1582049,15.9296895 23.7949219,15.53125 C23.4316388,15.1328105 22.8906286,14.9335938 22.171875,14.9335938 C21.4999966,14.9335938 20.9746113,15.1562478 20.5957031,15.6015625 C20.216795,16.0468772 19.9687506,16.6601523 19.8515625,17.4414062 L24.3632812,17.4414062 L24.3632812,17.1601562 Z M36.0117188,9.61328125 C35.4101532,9.61328125 34.9453141,9.75390484 34.6171875,10.0351562 C34.2890609,10.3164077 34.125,10.7187474 34.125,11.2421875 L34.125,12.3203125 L36.6328125,12.3203125 L36.6328125,14.8984375 L34.125,14.8984375 L34.125,25 L30.5859375,25 L30.5859375,14.8984375 L28.7109375,14.8984375 L28.7109375,12.3203125 L30.5859375,12.3203125 L30.5859375,11.2421875 C30.5859375,10.2890577 30.7753887,9.47656586 31.1542969,8.8046875 C31.533205,8.13280914 32.0761683,7.62304861 32.7832031,7.27539062 C33.4902379,6.92773264 34.3242139,6.75390625 35.2851562,6.75390625 C35.8554716,6.75390625 36.4453095,6.83203047 37.0546875,6.98828125 L37.03125,9.71875 C36.7499986,9.64843715 36.4101582,9.61328125 36.0117188,9.61328125 Z M49.4765625,19.8085938 L41.4609375,19.8085938 C41.5937507,20.5976602 41.9218724,21.2246071 42.4453125,21.6894531 C42.9687526,22.1542992 43.6406209,22.3867188 44.4609375,22.3867188 C45.0703155,22.3867188 45.634763,22.2714855 46.1542969,22.0410156 C46.6738307,21.8105457 47.1171857,21.4648461 47.484375,21.0039062 L49.1835938,22.9609375 C48.738279,23.6015657 48.0878949,24.1406228 47.2324219,24.578125 C46.3769488,25.0156272 45.3750057,25.234375 44.2265625,25.234375 C42.929681,25.234375 41.8027392,24.9609402 40.8457031,24.4140625 C39.8886671,23.8671848 39.1542994,23.1250047 38.6425781,22.1875 C38.1308568,21.2499953 37.875,20.2148494 37.875,19.0820312 L37.875,18.6367188 C37.875,17.3710874 38.1132789,16.2421925 38.5898438,15.25 C39.0664086,14.2578075 39.7539018,13.4824247 40.6523438,12.9238281 C41.5507857,12.3652316 42.6132751,12.0859375 43.8398438,12.0859375 C45.0351622,12.0859375 46.0546833,12.3398412 46.8984375,12.8476562 C47.7421917,13.3554713 48.3828103,14.0761672 48.8203125,15.0097656 C49.2578147,15.943364 49.4765625,17.0429624 49.4765625,18.3085938 L49.4765625,19.8085938 Z M46.0078125,17.1601562 C45.9921874,16.4726528 45.8027362,15.9296895 45.4394531,15.53125 C45.0761701,15.1328105 44.5351598,14.9335938 43.8164062,14.9335938 C43.1445279,14.9335938 42.6191425,15.1562478 42.2402344,15.6015625 C41.8613262,16.0468772 41.6132818,16.6601523 41.4960938,17.4414062 L46.0078125,17.4414062 L46.0078125,17.1601562 Z M57.5742188,12.0859375 C57.7539071,12.0859375 57.9453115,12.0996092 58.1484375,12.1269531 C58.3515635,12.154297 58.5156244,12.1874998 58.640625,12.2265625 L58.59375,15.6484375 C58.1406227,15.5859372 57.7226582,15.5546875 57.3398438,15.5546875 C56.0742124,15.5546875 55.2500019,15.9726521 54.8671875,16.8085938 L54.8671875,25 L51.328125,25 L51.328125,12.3203125 L54.65625,12.3203125 L54.7617188,13.8554688 C55.0742203,13.2851534 55.4707007,12.8476578 55.9511719,12.5429688 C56.431643,12.2382797 56.9726532,12.0859375 57.5742188,12.0859375 Z M76.4765625,21.8710938 C76.4765625,22.5898473 76.5195308,23.1718728 76.6054688,23.6171875 C76.6914067,24.0625022 76.8203116,24.4570295 76.9921875,24.8007812 L76.9921875,25 L73.4414062,25 C73.2851555,24.695311 73.1718754,24.3164085 73.1015625,23.8632812 C72.296871,24.7773483 71.2382878,25.234375 69.9257812,25.234375 C69.1289023,25.234375 68.402347,25.0703141 67.7460938,24.7421875 C67.0898405,24.4140609 66.5722675,23.9609404 66.1933594,23.3828125 C65.8144512,22.8046846 65.625,22.1523474 65.625,21.4257812 C65.625,20.0898371 66.1210888,19.0605505 67.1132812,18.3378906 C68.1054737,17.6152308 69.5663966,17.2539062 71.4960938,17.2539062 L72.9375,17.2539062 L72.9375,16.5390625 C72.9375,15.9531221 72.789064,15.4980485 72.4921875,15.1738281 C72.195311,14.8496078 71.750003,14.6875 71.15625,14.6875 C70.6171848,14.6875 70.1972671,14.8144519 69.8964844,15.0683594 C69.5957016,15.3222669 69.4453125,15.6835914 69.4453125,16.1523438 L65.90625,16.1523438 C65.90625,15.3945275 66.1308571,14.7070343 66.5800781,14.0898438 C67.0292991,13.4726532 67.6660115,12.9843768 68.4902344,12.625 C69.3144572,12.2656232 70.2656196,12.0859375 71.34375,12.0859375 C72.343755,12.0859375 73.2304649,12.2539046 74.0039062,12.5898438 C74.7773476,12.9257829 75.3828103,13.4296841 75.8203125,14.1015625 C76.2578147,14.7734409 76.4765625,15.5937452 76.4765625,16.5625 L76.4765625,21.8710938 Z M70.7226562,22.5507812 C71.2382838,22.5507812 71.6914043,22.4394542 72.0820312,22.2167969 C72.4726582,21.9941395 72.7578116,21.7226579 72.9375,21.4023438 L72.9375,19.28125 L71.5898438,19.28125 C70.7695271,19.28125 70.1582051,19.4589826 69.7558594,19.8144531 C69.3535136,20.1699237 69.1523438,20.6328096 69.1523438,21.203125 C69.1523438,21.6015645 69.2949204,21.92578 69.5800781,22.1757812 C69.8652358,22.4257825 70.2460914,22.5507812 70.7226562,22.5507812 Z M91.3007812,9.61328125 C90.6992157,9.61328125 90.2343766,9.75390484 89.90625,10.0351562 C89.5781234,10.3164077 89.4140625,10.7187474 89.4140625,11.2421875 L89.4140625,12.3203125 L91.921875,12.3203125 L91.921875,14.8984375 L89.4140625,14.8984375 L89.4140625,25 L85.875,25 L85.875,14.8984375 L84,14.8984375 L84,12.3203125 L85.875,12.3203125 L85.875,11.2421875 C85.875,10.2890577 86.0644512,9.47656586 86.4433594,8.8046875 C86.8222675,8.13280914 87.3652308,7.62304861 88.0722656,7.27539062 C88.7793004,6.92773264 89.6132764,6.75390625 90.5742188,6.75390625 C91.1445341,6.75390625 91.734372,6.83203047 92.34375,6.98828125 L92.3203125,9.71875 C92.0390611,9.64843715 91.6992207,9.61328125 91.3007812,9.61328125 Z M99.8554688,12.0859375 C100.035157,12.0859375 100.226561,12.0996092 100.429688,12.1269531 C100.632814,12.154297 100.796874,12.1874998 100.921875,12.2265625 L100.875,15.6484375 C100.421873,15.5859372 100.003908,15.5546875 99.6210938,15.5546875 C98.3554624,15.5546875 97.5312519,15.9726521 97.1484375,16.8085938 L97.1484375,25 L93.609375,25 L93.609375,12.3203125 L96.9375,12.3203125 L97.0429688,13.8554688 C97.3554703,13.2851534 97.7519507,12.8476578 98.2324219,12.5429688 C98.712893,12.2382797 99.2539032,12.0859375 99.8554688,12.0859375 Z M104.390625,7.22265625 C104.984378,7.22265625 105.462889,7.39257643 105.826172,7.73242188 C106.189455,8.07226732 106.371094,8.50780984 106.371094,9.0390625 C106.371094,9.57031516 106.189455,10.0058577 105.826172,10.3457031 C105.462889,10.6855486 104.984378,10.8554688 104.390625,10.8554688 C103.804685,10.8554688 103.33008,10.6855486 102.966797,10.3457031 C102.603514,10.0058577 102.421875,9.57031516 102.421875,9.0390625 C102.421875,8.50780984 102.603514,8.07226732 102.966797,7.73242188 C103.33008,7.39257643 103.804685,7.22265625 104.390625,7.22265625 Z M102.632812,25 L102.632812,12.3203125 L106.183594,12.3203125 L106.183594,25 L102.632812,25 Z M120.046875,19.8085938 L112.03125,19.8085938 C112.164063,20.5976602 112.492185,21.2246071 113.015625,21.6894531 C113.539065,22.1542992 114.210933,22.3867188 115.03125,22.3867188 C115.640628,22.3867188 116.205076,22.2714855 116.724609,22.0410156 C117.244143,21.8105457 117.687498,21.4648461 118.054688,21.0039062 L119.753906,22.9609375 C119.308592,23.6015657 118.658207,24.1406228 117.802734,24.578125 C116.947261,25.0156272 115.945318,25.234375 114.796875,25.234375 C113.499994,25.234375 112.373052,24.9609402 111.416016,24.4140625 C110.45898,23.8671848 109.724612,23.1250047 109.212891,22.1875 C108.701169,21.2499953 108.445312,20.2148494 108.445312,19.0820312 L108.445312,18.6367188 C108.445312,17.3710874 108.683591,16.2421925 109.160156,15.25 C109.636721,14.2578075 110.324214,13.4824247 111.222656,12.9238281 C112.121098,12.3652316 113.183588,12.0859375 114.410156,12.0859375 C115.605475,12.0859375 116.624996,12.3398412 117.46875,12.8476562 C118.312504,13.3554713 118.953123,14.0761672 119.390625,15.0097656 C119.828127,15.943364 120.046875,17.0429624 120.046875,18.3085938 L120.046875,19.8085938 Z M116.578125,17.1601562 C116.5625,16.4726528 116.373049,15.9296895 116.009766,15.53125 C115.646483,15.1328105 115.105472,14.9335938 114.386719,14.9335938 C113.71484,14.9335938 113.189455,15.1562478 112.810547,15.6015625 C112.431639,16.0468772 112.183594,16.6601523 112.066406,17.4414062 L116.578125,17.4414062 L116.578125,17.1601562 Z M128.894531,12.0859375 C130.167975,12.0859375 131.15234,12.4667931 131.847656,13.2285156 C132.542972,13.9902382 132.890625,15.2343664 132.890625,16.9609375 L132.890625,25 L129.351562,25 L129.351562,16.9492188 C129.351562,16.199215 129.191408,15.6777358 128.871094,15.3847656 C128.55078,15.0917954 128.054691,14.9453125 127.382812,14.9453125 C126.921873,14.9453125 126.521486,15.0429678 126.181641,15.2382812 C125.841795,15.4335947 125.566407,15.7109357 125.355469,16.0703125 L125.355469,25 L121.816406,25 L121.816406,12.3203125 L125.132812,12.3203125 L125.25,13.7851562 C125.695315,13.230466 126.226559,12.8085952 126.84375,12.5195312 C127.460941,12.2304673 128.144528,12.0859375 128.894531,12.0859375 Z M146.355469,7 L146.355469,25 L143.167969,25 L142.992188,23.640625 C142.164058,24.7031303 141.093757,25.234375 139.78125,25.234375 C138.757807,25.234375 137.873051,24.9589871 137.126953,24.4082031 C136.380856,23.8574191 135.814455,23.0976611 135.427734,22.1289062 C135.041014,21.1601514 134.847656,20.0546937 134.847656,18.8125 L134.847656,18.5664062 C134.847656,17.2773373 135.041014,16.1445361 135.427734,15.1679688 C135.814455,14.1914014 136.380856,13.4335964 137.126953,12.8945312 C137.873051,12.3554661 138.76562,12.0859375 139.804688,12.0859375 C141.007819,12.0859375 142.011715,12.5429642 142.816406,13.4570312 L142.816406,7 L146.355469,7 Z M140.683594,22.375 C141.675786,22.375 142.386717,21.9531292 142.816406,21.109375 L142.816406,16.2109375 C142.410154,15.3671833 141.707036,14.9453125 140.707031,14.9453125 C139.90234,14.9453125 139.314455,15.2734342 138.943359,15.9296875 C138.572264,16.5859408 138.386719,17.4648382 138.386719,18.5664062 L138.386719,18.8125 C138.386719,19.8984429 138.568358,20.7636687 138.931641,21.4082031 C139.294924,22.0527376 139.878902,22.375 140.683594,22.375 Z" id="Referafriend" fill="#0051BC"></path>
                </g>
            </g>
        </g>
    </g>
</svg>