<?xml version="1.0" encoding="UTF-8"?>
<svg width="992px" height="161px" viewBox="0 0 992 161" version="1.1" xmlns="http://www.w3.org/2000/svg" xmlns:xlink="http://www.w3.org/1999/xlink">
    <!-- Generator: sketchtool 54.1 (76490) - https://sketchapp.com -->
    <title>Refer a friend banner</title>
    <desc>Refer a friend and earn a voucher</desc>
    <defs>
        <polygon id="path-1" points="0.0174200082 0.0398509509 47.5745343 0.0398509509 47.5745343 83.6762296 0.0174200082 83.6762296"></polygon>
        <rect id="path-3" x="0" y="0" width="140" height="40" rx="8"></rect>
    </defs>
    <g id="desktop" stroke="none" stroke-width="1" fill="none" fill-rule="evenodd">
        <g id="1st-login-or-no-collections-with-referral" transform="translate(-54.000000, -449.000000)">
            <g id="refer-a-friend" transform="translate(54.000000, 446.000000)">
                <g id="banner">
                    <rect id="Rectangle" fill="#FFE5E0" x="0" y="3" width="992" height="160" rx="8"></rect>
                    <g id="play-trail" transform="translate(280.000000, 22.000000)">
                        <g id="play">
                            <path d="M57.6505119,85.4914121 L57.6505119,81.2614516 L61.6740581,83.3767743 L57.6505119,85.4914121 Z M58.8852582,77.4396272 C55.6962963,77.4396272 53.1089477,80.0260868 53.1089477,83.2124242 C53.1089477,86.3987616 55.6962963,88.9852211 58.8852582,88.9852211 C62.0735349,88.9852211 64.6608835,86.3987616 64.6608835,83.2124242 C64.6608835,80.0260868 62.0735349,77.4396272 58.8852582,77.4396272 L58.8852582,77.4396272 Z" id="Fill-175" fill="#F54F71"></path>
                            <path d="M169.496276,109.797032 L169.496276,105.567072 L173.519823,107.682394 L169.496276,109.797032 Z M170.731023,101.745247 C167.542061,101.745247 164.954712,104.331707 164.954712,107.518044 C164.954712,110.704382 167.542061,113.290841 170.731023,113.290841 C173.919299,113.290841 176.506648,110.704382 176.506648,107.518044 C176.506648,104.331707 173.919299,101.745247 170.731023,101.745247 L170.731023,101.745247 Z" id="Fill-175" fill="#F54F71" transform="translate(170.730680, 107.518044) rotate(-17.000000) translate(-170.730680, -107.518044) "></path>
                            <path d="M273.254345,100.699176 L273.254345,96.7945972 L276.968388,98.7472027 L273.254345,100.699176 Z M274.394111,93.2667593 C271.450454,93.2667593 269.062132,95.6542604 269.062132,98.5954949 C269.062132,101.536729 271.450454,103.924231 274.394111,103.924231 C277.337136,103.924231 279.725458,101.536729 279.725458,98.5954949 C279.725458,95.6542604 277.337136,93.2667593 274.394111,93.2667593 L274.394111,93.2667593 Z" id="Fill-175" fill="#F54F71"></path>
                            <path d="M200.695074,22.3854846 L200.695074,17.0803274 L206.003145,19.7326804 L200.695074,22.3854846 Z M202.546849,12.6012246 C198.639597,12.6012246 195.469421,15.7702 195.469421,19.6749879 C195.469421,23.5793349 198.639597,26.7483104 202.546849,26.7483104 C206.453219,26.7483104 209.624278,23.5793349 209.624278,19.6749879 C209.624278,15.7702 206.453219,12.6012246 202.546849,12.6012246 L202.546849,12.6012246 Z" id="Fill-159" fill="#27C195" transform="translate(202.546849, 19.674767) rotate(-20.000000) translate(-202.546849, -19.674767) "></path>
                            <path d="M149.579774,75.5312887 L149.579774,72.3761163 L152.73668,73.9535683 L149.579774,75.5312887 Z M150.794768,68.8576839 C148.180507,68.8576839 146.059409,70.9779786 146.059409,73.59059 C146.059409,76.2029064 148.180507,78.3232011 150.794768,78.3232011 C153.408437,78.3232011 155.530126,76.2029064 155.530126,73.59059 C155.530126,70.9779786 153.408437,68.8576839 150.794768,68.8576839 L150.794768,68.8576839 Z" id="Fill-159" fill="#27C195" transform="translate(150.794768, 73.590442) rotate(-20.000000) translate(-150.794768, -73.590442) "></path>
                            <path d="M93.5054847,52.5226175 L93.5054847,46.0097184 L100.021961,49.266579 L93.5054847,52.5226175 Z M95.1412552,39.6387284 C89.7451605,39.6387284 85.3660883,44.0163002 85.3660883,49.4085289 C85.3660883,54.8007576 89.7451605,59.1774258 95.1412552,59.1774258 C100.536446,59.1774258 104.915518,54.8007576 104.915518,49.4085289 C104.915518,44.0163002 100.536446,39.6387284 95.1412552,39.6387284 L95.1412552,39.6387284 Z" id="Fill-150" fill="#D67DEC"></path>
                            <path d="M224.37353,110.458575 L224.37353,106.612343 L228.221875,108.535702 L224.37353,110.458575 Z M225.339544,102.849916 C222.152847,102.849916 219.566759,105.435117 219.566759,108.619531 C219.566759,111.803945 222.152847,114.388613 225.339544,114.388613 C228.525707,114.388613 231.111795,111.803945 231.111795,108.619531 C231.111795,105.435117 228.525707,102.849916 225.339544,102.849916 L225.339544,102.849916 Z" id="Fill-150" fill="#D67DEC" transform="translate(225.339277, 108.619264) rotate(-33.000000) translate(-225.339277, -108.619264) "></path>
                            <path d="M297.794034,65.9807857 L297.794034,61.7738891 L302.003241,63.8776029 L297.794034,65.9807857 Z M298.850632,57.6586564 C295.365116,57.6586564 292.536529,60.4862745 292.536529,63.969293 C292.536529,67.4523116 295.365116,70.279346 298.850632,70.279346 C302.335564,70.279346 305.164151,67.4523116 305.164151,63.969293 C305.164151,60.4862745 302.335564,57.6586564 298.850632,57.6586564 L298.850632,57.6586564 Z" id="Fill-150" fill="#D67DEC"></path>
                            <path d="M249.92023,57.5699201 L249.92023,50.8656918 L256.29679,54.2176171 L249.92023,57.5699201 Z M242.72345,53.9573357 C242.72345,59.0077008 246.824557,63.1064711 251.877422,63.1064711 C256.930666,63.1064711 261.031394,59.0077008 261.031394,53.9573357 C261.031394,48.9073484 256.930666,44.8085781 251.877422,44.8085781 C246.824557,44.8085781 242.72345,48.9073484 242.72345,53.9573357 Z" id="Fill-167" fill="#FF654C" transform="translate(251.877422, 53.957525) rotate(-19.000000) translate(-251.877422, -53.957525) "></path>
                            <path d="M10.3332692,114.797617 L10.3332692,108.093388 L16.7098282,111.445314 L10.3332692,114.797617 Z M12.2904608,102.036275 C7.23759529,102.036275 3.13648885,106.135045 3.13648885,111.185032 C3.13648885,116.235397 7.23759529,120.334168 12.2904608,120.334168 C17.3437043,120.334168 21.4444328,116.235397 21.4444328,111.185032 C21.4444328,106.135045 17.3437043,102.036275 12.2904608,102.036275 L12.2904608,102.036275 Z" id="Fill-167" fill="#FF654C" transform="translate(12.290461, 111.185221) rotate(-21.000000) translate(-12.290461, -111.185221) "></path>
                            <path d="M149.789207,27.7571707 L149.789207,22.8849096 L154.423336,25.3209029 L149.789207,27.7571707 Z M151.211585,18.4829356 C147.539443,18.4829356 144.558986,21.4616944 144.558986,25.1317448 C144.558986,28.8020698 147.539443,31.7808286 151.211585,31.7808286 C154.884002,31.7808286 157.864184,28.8020698 157.864184,25.1317448 C157.864184,21.4616944 154.884002,18.4829356 151.211585,18.4829356 L151.211585,18.4829356 Z" id="Fill-167" fill="#FF654C" transform="translate(151.211585, 25.131882) rotate(-21.000000) translate(-151.211585, -25.131882) "></path>
                            <path d="M266.469922,6.20732427 L266.469922,2.95278466 L269.564321,4.58005447 L266.469922,6.20732427 Z M267.419399,0.0139062199 C264.967018,0.0139062199 262.976347,2.00267578 262.976347,4.45399835 C262.976347,6.90532092 264.967018,8.89513227 267.419399,8.89513227 C269.87178,8.89513227 271.862451,6.90532092 271.862451,4.45399835 C271.862451,2.00267578 269.87178,0.0139062199 267.419399,0.0139062199 L267.419399,0.0139062199 Z" id="Fill-183" fill="#FFC965"></path>
                            <path d="M203.740339,71.9005622 L203.740339,68.6460226 L206.834738,70.2732924 L203.740339,71.9005622 Z M204.689816,65.7071441 C202.237435,65.7071441 200.246764,67.6959137 200.246764,70.1472362 C200.246764,72.5985588 202.237435,74.5883702 204.689816,74.5883702 C207.142197,74.5883702 209.132868,72.5985588 209.132868,70.1472362 C209.132868,67.6959137 207.142197,65.7071441 204.689816,65.7071441 L204.689816,65.7071441 Z" id="Fill-183" fill="#FFC965"></path>
                            <path d="M64.0275124,13.7061029 L64.0275124,9.46663679 L68.058374,11.5863698 L64.0275124,13.7061029 Z M65.2643312,5.63836093 C62.0697817,5.63836093 59.476671,8.22899497 59.476671,11.4221652 C59.476671,14.6153353 62.0697817,17.2073264 65.2643312,17.2073264 C68.4588806,17.2073264 71.0519913,14.6153353 71.0519913,11.4221652 C71.0519913,8.22899497 68.4588806,5.63836093 65.2643312,5.63836093 L65.2643312,5.63836093 Z" id="Fill-183" fill="#FFC965"></path>
                            <path d="M99.6371979,110.635431 L99.6371979,104.563707 L105.410161,107.599569 L99.6371979,110.635431 Z M101.408558,99.0808853 C96.833354,99.0808853 93.1195248,102.791168 93.1195248,107.364397 C93.1195248,111.937626 96.833354,115.649851 101.408558,115.649851 C105.983763,115.649851 109.697592,111.937626 109.697592,107.364397 C109.697592,102.791168 105.983763,99.0808853 101.408558,99.0808853 L101.408558,99.0808853 Z" id="Fill-183" fill="#FFC965"></path>
                        </g>
                    </g>
                    <g id="speaker" transform="translate(10.000000, 12.000000)">
                        <path d="M44.8769662,79.0736991 L44.7428414,79.0439754 C44.7874268,79.0535558 44.8317666,79.0641187 44.8769662,79.0736991 M85.1453797,106.99808 L85.195001,107.146944 C85.1795251,107.096708 85.1628209,107.046964 85.1453797,106.99808 M85.1165159,106.920454 L85.1423091,106.989482 C85.1337114,106.966145 85.1254821,106.943423 85.1165159,106.920454" id="Fill-1" fill="#D08527"></path>
                        <path d="M54.555783,110.385433 C52.7183214,111.122997 50.6305425,110.232147 49.8922416,108.394809 C50.0719345,100.978882 50.0101535,90.2256786 57.5842784,87.1502641 L60.6283726,85.9148905 L74.4047902,80.3221781 C76.2422518,79.5846141 78.3302764,80.4754637 79.0685773,82.3128025 C79.8067554,84.1503869 78.9155374,86.2384115 77.0779529,86.9765896 L54.555783,110.385433 Z" id="Fill-3" fill="#784931"></path>
                        <path d="M77.3226694,85.6232426 C76.6020553,85.1018506 74.2389028,80.6360573 73.2909396,78.8086673 C72.8119222,79.0249621 72.3112876,79.2482579 71.7927206,79.4762211 C76.1700798,86.6861699 88.4320655,107.596876 86.2344811,111.603181 C87.9451873,109.314215 88.6886469,106.239046 89.0259243,105.16617 C89.281523,104.353069 85.1048598,93.2587799 80.027521,84.2058424 C78.9353613,85.1568762 77.7795783,85.9537646 77.3226694,85.6232426" id="Fill-5" fill="#A7AABC"></path>
                        <path d="M73.290915,78.8086182 C74.2388782,80.6360082 76.6020307,85.1018014 77.3226448,85.6231934 C77.7795537,85.9538383 78.9353367,85.1569498 80.0276192,84.2057932 C81.1078649,83.2651996 82.1259611,82.1735312 82.3438526,81.8723644 C82.7118362,81.3636233 78.5507718,79.692958 76.7309969,77.185609 C75.8311812,77.6357625 74.6503419,78.1942477 73.290915,78.8086182" id="Fill-7" fill="#D01E27"></path>
                        <path d="M71.7926714,79.4762334 C66.5163562,81.7956602 59.4264074,84.5896827 55.2992426,85.4283316 C57.7567247,87.5587308 61.7439918,91.9169294 64.6985466,99.563521 C69.2770931,111.413429 67.8524463,113.382559 69.5604504,114.848843 C71.2683316,116.315374 80.7432958,116.582272 85.9639713,111.949806 C86.0713204,111.854371 86.1606141,111.73781 86.2344319,111.603071 C88.4321392,107.596888 76.1701535,86.6861822 71.7926714,79.4762334" id="Fill-9" fill="#FAFAFF"></path>
                        <path d="M48.3187677,78.2253224 C49.4889212,81.0937769 50.9754719,84.3197748 52.115042,85.382825 C52.5467718,85.7856909 53.7020635,85.7528966 55.2992794,85.428393 C59.4264442,84.5896213 66.516393,81.7955988 71.7927083,79.4762948 C72.3112753,79.2482088 72.8120328,79.0250358 73.2909273,78.8086182 C74.6503541,78.1942477 75.8311934,77.6357625 76.7310092,77.185609 C77.4134248,76.8441556 77.9351853,76.5646059 78.2482661,76.3710338 C80.0847451,75.2351484 80.5436192,72.1010235 80.6310706,69.9276356 C71.9263419,69.806653 57.9090645,74.9508086 52.5492282,76.4511157 C51.3309273,77.7534289 49.8698014,78.3162129 48.3187677,78.2253224" id="Fill-11" fill="#E6403E"></path>
                        <path d="M25.5209908,65.9007206 C24.5424442,62.8350092 24.3814207,58.471652 25.1802743,55.1349887 C23.2174084,57.213433 19.8615844,62.0054493 22.4426285,68.6086428 C24.413478,73.6510993 28.5310624,75.5329007 31.7666407,76.2135967 C29.1514514,73.7090727 26.7364667,69.7085404 25.5209908,65.9007206" id="Fill-13" fill="#FAFAFF"></path>
                        <path d="M36.675697,64.3982764 C34.0228004,55.3025957 35.2999345,49.56974 37.2971914,46.6722989 C34.7117257,47.6718485 30.3064852,49.4168229 27.9632303,50.5835374 C26.6103132,51.2572323 25.6956356,52.9825548 25.180262,55.1349396 C24.3814084,58.4716029 24.5424319,62.8349601 25.5209785,65.9006714 C26.7364545,69.7084913 29.1514391,73.7091464 31.7666285,76.2135476 C32.6152262,77.0262805 33.484827,77.6821658 34.3415312,78.1217564 C36.8019611,79.3841515 42.4864237,78.2487574 45.6400778,77.4647656 C42.139566,75.7142641 38.6213675,71.0691464 36.675697,64.3982764" id="Fill-15" fill="#D01E27"></path>
                        <path d="M52.5492651,76.4510788 C51.5287124,76.7367697 50.8205036,76.890915 50.5244954,76.8507513 C48.5904933,76.5879058 44.1188045,73.3242006 40.2494493,63.7633818 C36.380217,54.2025629 40.0614043,47.4566469 41.0978014,46.0795333 C41.5470952,45.4823582 41.9245363,45.0451013 43.4625507,44.2243849 C42.3824278,43.9813142 40.7914759,43.8970563 39.2099816,44.8109969 C38.5655189,45.1836479 37.8987021,45.7994923 37.2972282,46.6722866 C35.2999713,49.5697277 34.0228373,55.3025834 36.6757339,64.3982641 C38.6214043,71.0691341 42.1396029,75.7142518 45.6401146,77.4647533 C46.5433695,77.9165036 47.4451505,78.1740676 48.3188045,78.2252856 C49.8698383,78.3162989 51.3309642,77.7535148 52.5492651,76.4510788" id="Fill-17" fill="#E6403E"></path>
                        <path d="M88.2582927,16.2949069 C84.2673408,20.2031975 71.0683234,32.5280696 58.1924585,37.8306694 C49.4639017,41.4252651 45.4722129,43.1521842 43.4625507,44.2244463 C41.9245363,45.0450399 41.5470952,45.4824197 41.0978014,46.0794719 C40.0614043,47.4565855 36.380217,54.2026244 40.2494493,63.7634432 C44.1188045,73.3241392 48.5904933,76.5879672 50.5244954,76.8506899 C50.8205036,76.8909765 51.5287124,76.7368311 52.5492651,76.4510174 C57.9089785,74.9508332 71.9263787,69.8066776 80.6309846,69.9276602 C81.0951402,69.9341699 81.5451709,69.954436 81.9767779,69.9921433 C88.7971259,70.5882129 100.604536,75.333433 107.518231,78.3353982 C93.5308004,66.0053675 84.3738301,35.4595333 88.2582927,16.2949069" id="Fill-19" fill="#FAFAFF"></path>
                        <path d="M101.074305,5.36515455 C93.0553081,7.82177687 90.8964135,20.2899857 92.6164545,34.220303 L106.648348,33.769781 C112.80581,32.8715619 115.500221,49.0851955 109.760487,49.9679386 L98.2058506,56.0315619 C103.625257,69.625216 112.095144,79.9960655 121.414612,77.6445814 C143.50628,72.0704156 120.080979,-0.457486182 101.074305,5.36515455" id="Fill-21" fill="#BED6E3"></path>
                        <path d="M109.760463,49.9679017 C104.020852,50.8506448 100.490739,34.668086 106.648323,33.7698669 L92.6164299,34.2203889 C93.5148946,41.4981372 95.472479,49.1746981 98.2059488,56.0315251 L109.760463,49.9679017 Z" id="Fill-23" fill="#D01E27"></path>
                        <g id="Group-27" transform="translate(87.343910, 0.083521)">
                            <mask id="mask-2" fill="white">
                                <use xlink:href="#path-1"></use>
                            </mask>
                            <g id="Clip-26"></g>
                            <path d="M10.862002,55.9480164 C8.12853224,49.0911894 6.17107062,41.4146285 5.27248311,34.1367574 C3.55244217,20.2064401 5.71133675,7.73823132 13.7304565,5.28160901 C32.73713,-0.54103173 56.1623091,71.98687 34.0707636,77.5610358 C24.751173,79.91252 16.2812856,69.5416704 10.862002,55.9480164 M12.3838035,0.563041965 C6.11715046,2.68619447 2.4701085,8.53622518 0.914407369,16.211435 C-2.97005527,35.3760614 6.18691505,65.9217728 20.1742231,78.2519263 C25.0477953,82.5480983 30.5077339,84.6328066 36.2066899,83.254219 C63.6602825,76.612827 35.6824729,-7.33091914 12.3838035,0.563041965" id="Fill-25" fill="#E6403E" mask="url(#mask-2)"></path>
                        </g>
                        <path d="M109.760463,49.9679017 C115.500197,49.0851586 112.805785,32.8715251 106.648323,33.7698669 C100.490739,34.668086 104.020852,50.8506448 109.760463,49.9679017" id="Fill-28" fill="#FAFAFF"></path>
                        <path d="M109.154493,46.9074719 C112.728577,46.3577073 111.050665,36.2619857 107.216684,36.8212078 C103.382456,37.3806755 105.580409,47.4571136 109.154493,46.9074719" id="Fill-30" fill="#A7AABC"></path>
                        <path d="M92.7651464,54.5647124 C92.2114514,54.5589396 91.6576336,54.5631157 91.1034473,54.5822764 C84.3909396,54.8122047 77.8992712,56.9200041 71.5492201,59.1078854 C61.8289744,62.4569539 51.9851668,66.0777114 41.8485445,67.3119795 C45.2845732,74.1529621 48.8526387,76.6235865 50.5244094,76.8506899 C50.8205404,76.8908536 51.5287492,76.7368311 52.5493019,76.4510174 C57.9090154,74.9508332 71.9262927,69.8066776 80.6310215,69.9276602 C81.0950542,69.9341699 81.545085,69.954436 81.9768147,69.9920205 C88.7970399,70.5882129 100.60445,75.333433 107.518145,78.3353982 C101.48007,73.0127779 96.3424237,64.295521 92.7651464,54.5647124" id="Fill-32" fill="#D3DCF5"></path>
                        <path d="M21.9634514,67.1678321 C22.0926633,67.6378833 22.2508618,68.118129 22.4425916,68.6085691 C24.413564,73.6510256 28.5310256,75.532827 31.7666039,76.213523 C29.7823664,74.3134207 27.9139529,71.5517011 26.5967779,68.6665425 C24.9780676,68.4195415 23.3863787,67.9341372 21.9634514,67.1678321" id="Fill-34" fill="#D3DCF5"></path>
                        <path d="M63.4119058,88.0254043 C63.1653961,88.4969294 63.0070747,89.0502559 63.1558158,89.561085 C63.2533388,89.8963971 63.472827,90.1803685 63.6807697,90.4609007 C66.9278936,94.8426817 68.3086919,100.303726 69.373216,105.652508 C69.7134411,107.361863 70.1174125,109.228311 71.4837175,110.310276 C72.208262,110.883869 73.1280983,111.161699 74.0449867,111.277646 C76.1459079,111.543439 78.5782108,110.798751 79.4793777,108.882436 C80.0446182,107.680594 79.9042293,106.277932 79.7000942,104.96567 C79.0880573,101.032078 78.0080573,97.1716888 76.4901863,93.4914841 C75.3534411,90.7351689 73.8375353,87.9340225 71.2556315,86.4426817 C68.6738506,84.9514637 64.7938096,85.3834391 63.4119058,88.0254043" id="Fill-36" fill="#D3DCF5"></path>
                        <path d="M134.127181,51.5209621 C132.75584,52.0605322 131.37541,52.5759058 129.985523,53.0598362 C131.344336,65.3413511 129.222289,75.6744933 121.414673,77.6444831 C112.095083,79.9960901 103.625195,69.6251177 98.205912,56.0315865 C98.1408147,55.8681064 98.078174,55.7019243 98.0139365,55.5374616 C96.0715824,55.0002252 94.1789724,54.3047902 92.3601801,53.4399795 C95.9493715,63.621433 101.248409,72.8084954 107.518133,78.3353736 C112.391705,82.6316684 117.851644,84.7163767 123.5506,83.3377892 C133.991582,80.8120164 136.414796,67.1047492 134.127181,51.5209621" id="Fill-38" fill="#CE3937"></path>
                        <path d="M52.5492651,76.4510788 C51.3309642,77.7535148 49.8698383,78.3162989 48.3188045,78.2252856 C49.488958,81.09374 50.9755087,84.319738 52.1150788,85.382911 C52.5468086,85.785654 53.7019775,85.7528598 55.2993163,85.4283562 C56.3696131,85.2108332 57.6402375,84.8610276 59.0257032,84.422911 C59.5666244,83.3416827 60.1112303,82.2652446 60.7150379,81.2513245 C63.9657236,75.7926141 69.5292037,71.8160328 75.6834719,70.2953367 C67.3146694,71.4851423 56.9773511,75.211652 52.5492651,76.4510788" id="Fill-40" fill="#CE3937"></path>
                        <path d="M52.4210481,76.5816909 C52.4128188,76.5523357 52.4042211,76.5229806 52.3957462,76.4936254 C51.4579775,76.7518035 50.8054084,76.8888762 50.5245077,76.8506776 C48.8559304,76.6240655 45.2985507,74.1628987 41.8686633,67.352131 C40.4742313,67.4538301 39.0721842,67.4456008 37.6792262,67.3280573 C39.7031361,72.42861 42.6778342,75.9834104 45.6400041,77.4646796 C46.5433818,77.9164299 47.4451627,78.1741167 48.3188168,78.2253347 C49.8160532,78.3131546 51.2289089,77.7895517 52.4210481,76.5816909" id="Fill-42" fill="#CE3937"></path>
                        <path d="M95.1585629,46.9164626 C96.019566,50.0406387 97.0415926,53.1107718 98.2059734,56.0315496 L109.760487,49.9679263 C108.1193,50.2203316 106.659648,49.0764626 105.554592,47.2947636 C102.089208,47.5459406 98.596434,47.4201679 95.1585629,46.9164626" id="Fill-44" fill="#BA1921"></path>
                        <path d="M45.6400655,77.464741 C42.8729417,76.0808721 40.0953777,72.8869314 38.0916111,68.3145261 C34.0678649,69.0444749 29.8451423,68.7014248 26.0107922,67.2814452 C27.3212119,70.6501658 29.4662272,74.0106571 31.7666162,76.213523 C32.6153367,77.0262559 33.4849376,77.6822641 34.3415189,78.1218547 C36.8019488,79.3841269 42.4864115,78.2487329 45.6400655,77.464741" id="Fill-46" fill="#BA1921"></path>
                        <path d="M79.3586407,84.75939 C78.4969007,83.9182845 77.8042907,82.9127165 77.1210154,81.9168516 L74.582346,78.2166264 C74.1734616,78.4067595 73.7432057,78.604262 73.2909642,78.8086428 C74.2388045,80.6360328 76.6020798,85.101826 77.322694,85.623218 C77.6865015,85.8864319 78.4934616,85.4345589 79.3586407,84.75939" id="Fill-48" fill="#BA1921"></path>
                        <path d="M33.0308291,130.071243 C34.5179939,128.821376 49.0768066,116.572532 49.7988946,115.239267 C49.8138792,115.211386 49.8009826,113.873699 49.7842784,112.249339 C49.7507472,108.857159 49.7092323,104.60938 51.3062027,100.939124 C53.4867144,95.928479 62.5408802,92.6566673 69.5379734,90.6402497 L88.2131423,85.2578137 C90.4834391,84.6123685 92.8470829,85.9294207 93.491914,88.1991034 C94.1373593,90.4694002 92.8199386,92.833044 90.5503787,93.4778751 L88.2910133,94.1293388 C90.247738,94.0140061 92.0908495,95.2637503 92.6485977,97.2274759 C93.294043,99.4977728 91.9769908,101.860802 89.7071853,102.506248 L87.8315251,103.047046 C89.8818424,102.800291 91.8647288,104.072635 92.4469191,106.121846 C93.0924872,108.391406 91.7751894,110.755787 89.5047697,111.400495 L87.6298465,111.941417 C89.6799181,111.694538 91.6630502,112.967005 92.2452405,115.016831 C92.8908086,117.286514 91.5735107,119.649421 89.3029683,120.29548 C84.2040123,121.764958 71.6359468,125.829114 67.476479,128.493801 C62.2591198,131.835501 54.8124872,141.68201 54.7906244,141.709769 C53.8026203,143.008397 52.097564,143.438407 50.6515455,142.868499 L50.649826,142.872798 L35.0779529,136.697896 L32.3223746,130.790751 C32.5251586,130.515009 32.7650358,130.273904 33.0308291,130.071243" id="Fill-50" fill="#997659"></path>
                        <path d="M91.7626366,113.924917 C91.9693511,114.256913 92.1334452,114.622072 92.2453388,115.016831 C92.8909069,117.286514 91.5734862,119.649421 89.3030665,120.29548 C84.2039877,121.764958 71.6359222,125.829114 67.4764545,128.493801 C62.2590952,131.835501 54.8125855,141.68201 54.7905998,141.709769 C53.8025957,143.008397 52.0976622,143.438407 50.651521,142.868499 L50.6498014,142.872798 L45.2236397,139.726759 C54.8182354,131.443198 60.0217155,123.349277 67.8240491,120.561273 C75.6258915,117.773392 85.4392385,115.373269 91.7626366,113.924917" id="Fill-52" fill="#784931"></path>
                        <path d="M18.8563603,138.167386 L40.0370358,122.286731 C40.6064524,121.859791 41.4001474,121.890497 41.8619693,122.432156 L62.2808843,146.392115 C62.7406182,146.931439 62.6321638,150.700569 62.1402497,151.210538 C61.8123071,151.550518 47.4143132,151.510927 18.9462682,151.091767 L18.8563603,138.167386 Z" id="Fill-54" fill="#039157"></path>
                        <path d="M2.45649944e-05,151.532827 L40.0370358,122.286768 L37.0149273,124.521322 C37.2573838,124.533851 37.4675374,124.590964 37.5871689,124.731476 L48.0943541,137.060893 L36.0435455,151.080381 L2.45649944e-05,151.532827 Z" id="Fill-57" fill="#00B272"></path>
                    </g>
                    <g id="bubble" transform="translate(225.000000, 29.000000)">
                        <path d="M43.9063764,8.35900755 C27.3380289,8.35900755 13.9063764,21.8102308 13.9063764,38.4027193 C13.9063764,44.7300702 15.8640934,50.5976926 19.2002684,55.4399963 C16.230233,57.9166401 12.8910744,63.4444816 16.0303268,75.3590076 C16.0303268,75.3590076 17.1070072,64.8544013 26.559716,62.9070644 C31.4580579,66.3910985 37.4407526,68.446858 43.9063764,68.446858 C60.4751501,68.446858 73.9063764,54.9956347 73.9063764,38.4027193 C73.9063764,21.8102308 60.4751501,8.35900755 43.9063764,8.35900755" id="Fill-1" fill="#FFFFFF" transform="translate(43.906376, 41.859008) scale(1, -1) rotate(65.000000) translate(-43.906376, -41.859008) "></path>
                        <path d="M66.5759616,29 L29.4234192,29 C28.6377215,29 28,29.6254179 28,30.3973136 L28,57.6020786 C28,58.3739744 28.6377215,59 29.4234192,59 L66.5759616,59 C67.3622785,59 68,58.3739744 68,57.6020786 L68,30.3973136 C68,29.6254179 67.3622785,29 66.5759616,29" id="Fill-138" fill="#E5E5E5"></path>
                        <path d="M65.5759616,28 L28.4240384,28 C27.6377215,28 27,28.6260383 27,29.3979497 L27,56.6032659 C27,57.3745695 27.6377215,58 28.4240384,58 L65.5759616,58 C66.3628976,58 67,57.3745695 67,56.6032659 L67,29.3979497 C67,28.6260383 66.3628976,28 65.5759616,28" id="Fill-140" stroke="#F2F2F2" stroke-width="0.5" fill="#FFFFFF"></path>
                        <path d="M62.790366,30 L31.2102572,30 C30.541562,30 30,30.5426673 30,31.2113332 L30,54.7886668 C30,55.4573327 30.541562,56 31.2102572,56 L62.790366,56 C63.458438,56 64,55.4573327 64,54.7886668 L64,31.2113332 C64,30.5426673 63.458438,30 62.790366,30" id="Fill-142" fill="#E6F4F1"></path>
                        <path d="M45.7174733,45.3692496 L45.7174733,40.9724897 L49.8969944,43.1708696 L45.7174733,45.3692496 Z M47.0006113,37 C43.688538,37 41,39.6880636 41,43.0003057 C41,46.3125478 43.688538,49 47.0006113,49 C50.3126847,49 53,46.3125478 53,43.0003057 C53,39.6880636 50.3126847,37 47.0006113,37 L47.0006113,37 Z" id="Fill-144" fill="#27C195"></path>
                    </g>
                    <g id="bubble" transform="translate(154.000000, 0.000000)">
                        <path d="M72,72 L63.5892203,56.5914238 C66.9862646,51.8680635 68.9916055,46.0872744 68.9916055,39.8376181 C68.9916055,23.9110008 56.0097832,11 39.9958027,11 C23.9818223,11 11,23.9110008 11,39.8376181 C11,55.7642354 23.9818223,68.6752362 39.9958027,68.6752362 C46.4073741,68.6752362 52.3294921,66.6019285 57.1301217,63.098004 L72,72 Z" id="Fill-1" fill="#FFFFFF" transform="translate(41.500000, 41.500000) scale(-1, 1) rotate(-26.000000) translate(-41.500000, -41.500000) "></path>
                        <path d="M57.8967419,30 L29.1039337,30 C28.4938651,30 28,30.4795904 28,31.0713695 L28,51.9279744 C28,52.5197535 28.4938651,53 29.1039337,53 L57.8967419,53 C58.5061349,53 59,52.5197535 59,51.9279744 L59,31.0713695 C59,30.4795904 58.5061349,30 57.8967419,30" id="Fill-154" fill="#E5E5E5"></path>
                        <path d="M56.8967419,29 L28.1039337,29 C27.4938651,29 27,29.4795904 27,30.0713695 L27,50.9279744 C27,51.5204096 27.4938651,52 28.1039337,52 L56.8967419,52 C57.5061349,52 58,51.5204096 58,50.9279744 L58,30.0713695 C58,29.4795904 57.5061349,29 56.8967419,29" id="Fill-156" stroke="#F2F2F2" stroke-width="0.5" fill="#FFFFFF"></path>
                        <path d="M54.0740406,31 L29.9252884,31 C29.4139978,31 29,31.3966356 29,31.8850493 L29,49.1155925 C29,49.6040062 29.4139978,50 29.9252884,50 L54.0740406,50 C54.5860022,50 55,49.6040062 55,49.1155925 L55,31.8850493 C55,31.3966356 54.5860022,31 54.0740406,31" id="Fill-158" fill="#E6C5ED"></path>
                        <path d="M41.9305695,41.9741089 L41.9305695,38.3106218 L45.4128532,40.1423653 L41.9305695,41.9741089 Z M42.9992827,35 C40.2399943,35 38,37.2398336 38,40.0003586 C38,42.7601664 40.2399943,45 42.9992827,45 C45.7600057,45 48,42.7601664 48,40.0003586 C48,37.2398336 45.7600057,35 42.9992827,35 L42.9992827,35 Z" id="Fill-160" fill="#D67DEC"></path>
                    </g>
                    <g id="bubble" transform="translate(159.000000, 90.000000)">
                        <path d="M61,61 L52.5892203,45.5914238 C55.9862646,40.8680635 57.9916055,35.0872744 57.9916055,28.8376181 C57.9916055,12.9110008 45.0097832,0 28.9958027,0 C12.9818223,0 0,12.9110008 0,28.8376181 C0,44.7642354 12.9818223,57.6752362 28.9958027,57.6752362 C35.4073741,57.6752362 41.3294921,55.6019285 46.1301217,52.098004 L61,61 Z" id="Fill-1" fill="#FFFFFF" transform="translate(30.500000, 30.500000) scale(-1, -1) translate(-30.500000, -30.500000) "></path>
                        <path d="M46.0030651,23 L19.9969349,23 C19.4470739,23 19,23.4795914 19,24.0718384 L19,44.9270887 C19,45.5193357 19.4470739,46 19.9969349,46 L46.0030651,46 C46.553924,46 47,45.5193357 47,44.9270887 L47,24.0718384 C47,23.4795914 46.553924,23 46.0030651,23" id="Fill-170" fill="#E5E5E5"></path>
                        <path d="M45.0030651,21 L18.9969349,21 C18.4470739,21 18,21.5004432 18,22.1184401 L18,43.8804404 C18,44.4984373 18.4470739,45 18.9969349,45 L45.0030651,45 C45.553924,45 46,44.4984373 46,43.8804404 L46,22.1184401 C46,21.5004432 45.553924,21 45.0030651,21" id="Fill-172" stroke="#F2F2F2" stroke-width="0.5" fill="#FFFFFF"></path>
                        <path d="M43.1451361,23 L20.8548639,23 C20.3828656,23 20,23.4176103 20,23.9324421 L20,42.0675579 C20,42.5823897 20.3828656,43 20.8548639,43 L43.1451361,43 C43.6171344,43 44,42.5823897 44,42.0675579 L44,23.9324421 C44,23.4176103 43.6171344,23 43.1451361,23" id="Fill-174" fill="#FCE1DE"></path>
                        <path d="M32.1446334,34.5795401 L32.1446334,31.6475833 L34.9317302,33.1135617 L32.1446334,34.5795401 Z M32.9995308,29 C30.7923754,29 29,30.7916471 29,32.9990615 C29,35.2083529 30.7923754,37 32.9995308,37 C35.208563,37 37,35.2083529 37,32.9990615 C37,30.7916471 35.208563,29 32.9995308,29 L32.9995308,29 Z" id="Fill-176" fill="#FF654C"></path>
                    </g>
                    <g id="messaging-outlines" transform="translate(624.000000, 36.000000)">
                        <path d="M17.3632812,21.7949219 L17.3632812,22 L12.7695312,22 L9.10546875,14.8085937 L6.00195312,14.8085937 L6.00195312,22 L1.70898438,22 L1.70898438,2.09375 L9.22851562,2.09375 C10.7688879,2.09375 12.0927679,2.32389093 13.2001953,2.78417969 C14.3076227,3.24446845 15.1575491,3.92349812 15.75,4.82128906 C16.3424509,5.71908001 16.6386719,6.8150977 16.6386719,8.109375 C16.6386719,9.52214248 16.3333364,10.6774044 15.7226562,11.5751953 C15.1119761,12.4729863 14.2369849,13.181638 13.0976562,13.7011719 L17.3632812,21.7949219 Z M6.00195312,11.3359375 L9.22851562,11.3359375 C10.2493541,11.3359375 11.0240859,11.0807317 11.5527344,10.5703125 C12.0813829,10.0598933 12.3457031,9.35807738 12.3457031,8.46484375 C12.3457031,7.55338086 12.0836615,6.84245047 11.5595703,6.33203125 C11.0354792,5.82161203 10.2584687,5.56640625 9.22851562,5.56640625 L6.00195312,5.56640625 L6.00195312,11.3359375 Z M32.4707031,15.9433594 L23.1191406,15.9433594 C23.2740893,16.8639369 23.656898,17.5953749 24.2675781,18.1376953 C24.8782583,18.6800157 25.6621046,18.9511719 26.6191406,18.9511719 C27.3300817,18.9511719 27.9886037,18.8167331 28.5947266,18.5478516 C29.2008494,18.27897 29.7180968,17.8756537 30.1464844,17.3378906 L32.1289062,19.6210938 C31.6093724,20.3684933 30.8505909,20.9973933 29.8525391,21.5078125 C28.8544872,22.0182317 27.6855536,22.2734375 26.3457031,22.2734375 C24.8326747,22.2734375 23.5179092,21.9544303 22.4013672,21.3164062 C21.2848251,20.6783822 20.4280629,19.8125055 19.8310547,18.71875 C19.2340465,17.6249945 18.9355469,16.4173243 18.9355469,15.0957031 L18.9355469,14.5761719 C18.9355469,13.099602 19.2135389,11.7825579 19.7695312,10.625 C20.3255236,9.46744213 21.1275989,8.56282878 22.1757812,7.91113281 C23.2239636,7.25943685 24.4635345,6.93359375 25.8945312,6.93359375 C27.2890695,6.93359375 28.4785107,7.22981475 29.4628906,7.82226562 C30.4472705,8.4147165 31.1946589,9.25552841 31.7050781,10.3447266 C32.2154973,11.4339247 32.4707031,12.7167895 32.4707031,14.1933594 L32.4707031,15.9433594 Z M28.4238281,12.8535156 C28.4055989,12.0514283 28.1845724,11.4179711 27.7607422,10.953125 C27.3369119,10.4882789 26.7057334,10.2558594 25.8671875,10.2558594 C25.0833294,10.2558594 24.4703798,10.5156224 24.0283203,11.0351562 C23.5862608,11.5546901 23.2968757,12.2701777 23.1601562,13.1816406 L28.4238281,13.1816406 L28.4238281,12.8535156 Z M42.0136719,4.04882812 C41.3118454,4.04882812 40.7695332,4.21288898 40.3867188,4.54101562 C40.0039043,4.86914227 39.8125,5.33853861 39.8125,5.94921875 L39.8125,7.20703125 L42.7382812,7.20703125 L42.7382812,10.2148438 L39.8125,10.2148438 L39.8125,22 L35.6835938,22 L35.6835938,10.2148438 L33.4960938,10.2148438 L33.4960938,7.20703125 L35.6835938,7.20703125 L35.6835938,5.94921875 C35.6835938,4.83723402 35.9046202,3.88932684 36.3466797,3.10546875 C36.7887392,2.32161066 37.4221964,1.72689005 38.2470703,1.32128906 C39.0719442,0.915688076 40.0449163,0.712890625 41.1660156,0.712890625 C41.8313835,0.712890625 42.5195277,0.804035547 43.2304688,0.986328125 L43.203125,4.171875 C42.8749984,4.08984334 42.4785179,4.04882812 42.0136719,4.04882812 Z M57.7226562,15.9433594 L48.3710938,15.9433594 C48.5260424,16.8639369 48.9088511,17.5953749 49.5195312,18.1376953 C50.1302114,18.6800157 50.9140577,18.9511719 51.8710938,18.9511719 C52.5820348,18.9511719 53.2405569,18.8167331 53.8466797,18.5478516 C54.4528025,18.27897 54.9700499,17.8756537 55.3984375,17.3378906 L57.3808594,19.6210938 C56.8613255,20.3684933 56.1025441,20.9973933 55.1044922,21.5078125 C54.1064403,22.0182317 52.9375067,22.2734375 51.5976562,22.2734375 C50.0846279,22.2734375 48.7698624,21.9544303 47.6533203,21.3164062 C46.5367783,20.6783822 45.680016,19.8125055 45.0830078,18.71875 C44.4859996,17.6249945 44.1875,16.4173243 44.1875,15.0957031 L44.1875,14.5761719 C44.1875,13.099602 44.465492,11.7825579 45.0214844,10.625 C45.5774767,9.46744213 46.3795521,8.56282878 47.4277344,7.91113281 C48.4759167,7.25943685 49.7154876,6.93359375 51.1464844,6.93359375 C52.5410226,6.93359375 53.7304638,7.22981475 54.7148438,7.82226562 C55.6992237,8.4147165 56.446612,9.25552841 56.9570312,10.3447266 C57.4674505,11.4339247 57.7226562,12.7167895 57.7226562,14.1933594 L57.7226562,15.9433594 Z M53.6757812,12.8535156 C53.657552,12.0514283 53.4365256,11.4179711 53.0126953,10.953125 C52.5888651,10.4882789 51.9576865,10.2558594 51.1191406,10.2558594 C50.3352825,10.2558594 49.7223329,10.5156224 49.2802734,11.0351562 C48.8382139,11.5546901 48.5488288,12.2701777 48.4121094,13.1816406 L53.6757812,13.1816406 L53.6757812,12.8535156 Z M67.1699219,6.93359375 C67.3795583,6.93359375 67.6028634,6.94954411 67.8398438,6.98144531 C68.0768241,7.01334651 68.2682284,7.05208311 68.4140625,7.09765625 L68.359375,11.0898438 C67.8307265,11.0169267 67.3431012,10.9804688 66.8964844,10.9804688 C65.4199145,10.9804688 64.4583356,11.4680941 64.0117188,12.4433594 L64.0117188,22 L59.8828125,22 L59.8828125,7.20703125 L63.765625,7.20703125 L63.8886719,8.99804688 C64.253257,8.33267896 64.7158175,7.8222674 65.2763672,7.46679688 C65.8369169,7.11132635 66.4680954,6.93359375 67.1699219,6.93359375 Z M89.2226562,18.3496094 C89.2226562,19.1881552 89.272786,19.8671849 89.3730469,20.3867188 C89.4733078,20.9062526 89.6236969,21.3665345 89.8242188,21.7675781 L89.8242188,22 L85.6816406,22 C85.499348,21.6445295 85.3671879,21.2024766 85.2851562,20.6738281 C84.3463495,21.7402397 83.1113358,22.2734375 81.5800781,22.2734375 C80.650386,22.2734375 79.8027382,22.0820332 79.0371094,21.6992188 C78.2714805,21.3164043 77.6676454,20.7877638 77.2255859,20.1132812 C76.7835264,19.4387987 76.5625,18.6777386 76.5625,17.8300781 C76.5625,16.2714766 77.1412703,15.0706422 78.2988281,14.2275391 C79.456386,13.3844359 81.160796,12.9628906 83.4121094,12.9628906 L85.09375,12.9628906 L85.09375,12.1289062 C85.09375,11.4453091 84.9205746,10.9143899 84.5742188,10.5361328 C84.2278629,10.1578757 83.7083368,9.96875 83.015625,9.96875 C82.3867156,9.96875 81.8968117,10.1168605 81.5458984,10.4130859 C81.1949852,10.7093114 81.0195312,11.1308566 81.0195312,11.6777344 L76.890625,11.6777344 C76.890625,10.7936154 77.1526667,9.99154006 77.6767578,9.27148438 C78.200849,8.55142869 78.9436801,7.98177293 79.9052734,7.5625 C80.8668668,7.14322707 81.9765562,6.93359375 83.234375,6.93359375 C84.4010475,6.93359375 85.4355424,7.12955533 86.3378906,7.52148438 C87.2402389,7.91341342 87.946612,8.50129816 88.4570312,9.28515625 C88.9674505,10.0690143 89.2226562,11.026036 89.2226562,12.15625 L89.2226562,18.3496094 Z M82.5097656,19.1425781 C83.1113311,19.1425781 83.6399717,19.0126966 84.0957031,18.7529297 C84.5514346,18.4931628 84.8841135,18.1764342 85.09375,17.8027344 L85.09375,15.328125 L83.5214844,15.328125 C82.5644483,15.328125 81.8512393,15.5354797 81.3818359,15.9501953 C80.9124325,16.3649109 80.6777344,16.9049446 80.6777344,17.5703125 C80.6777344,18.0351586 80.8440739,18.41341 81.1767578,18.7050781 C81.5094418,18.9967463 81.9537733,19.1425781 82.5097656,19.1425781 Z M106.517578,4.04882812 C105.815752,4.04882812 105.273439,4.21288898 104.890625,4.54101562 C104.507811,4.86914227 104.316406,5.33853861 104.316406,5.94921875 L104.316406,7.20703125 L107.242188,7.20703125 L107.242188,10.2148438 L104.316406,10.2148438 L104.316406,22 L100.1875,22 L100.1875,10.2148438 L98,10.2148438 L98,7.20703125 L100.1875,7.20703125 L100.1875,5.94921875 C100.1875,4.83723402 100.408526,3.88932684 100.850586,3.10546875 C101.292645,2.32161066 101.926103,1.72689005 102.750977,1.32128906 C103.57585,0.915688076 104.548823,0.712890625 105.669922,0.712890625 C106.33529,0.712890625 107.023434,0.804035547 107.734375,0.986328125 L107.707031,4.171875 C107.378905,4.08984334 106.982424,4.04882812 106.517578,4.04882812 Z M116.498047,6.93359375 C116.707683,6.93359375 116.930988,6.94954411 117.167969,6.98144531 C117.404949,7.01334651 117.596353,7.05208311 117.742188,7.09765625 L117.6875,11.0898438 C117.158852,11.0169267 116.671226,10.9804688 116.224609,10.9804688 C114.748039,10.9804688 113.786461,11.4680941 113.339844,12.4433594 L113.339844,22 L109.210938,22 L109.210938,7.20703125 L113.09375,7.20703125 L113.216797,8.99804688 C113.581382,8.33267896 114.043943,7.8222674 114.604492,7.46679688 C115.165042,7.11132635 115.79622,6.93359375 116.498047,6.93359375 Z M121.789062,1.25976562 C122.481774,1.25976562 123.040037,1.45800583 123.463867,1.85449219 C123.887697,2.25097854 124.099609,2.75911148 124.099609,3.37890625 C124.099609,3.99870102 123.887697,4.50683396 123.463867,4.90332031 C123.040037,5.29980667 122.481774,5.49804688 121.789062,5.49804688 C121.105465,5.49804688 120.55176,5.29980667 120.12793,4.90332031 C119.704099,4.50683396 119.492188,3.99870102 119.492188,3.37890625 C119.492188,2.75911148 119.704099,2.25097854 120.12793,1.85449219 C120.55176,1.45800583 121.105465,1.25976562 121.789062,1.25976562 Z M119.738281,22 L119.738281,7.20703125 L123.880859,7.20703125 L123.880859,22 L119.738281,22 Z M140.054688,15.9433594 L130.703125,15.9433594 C130.858074,16.8639369 131.240882,17.5953749 131.851562,18.1376953 C132.462243,18.6800157 133.246089,18.9511719 134.203125,18.9511719 C134.914066,18.9511719 135.572588,18.8167331 136.178711,18.5478516 C136.784834,18.27897 137.302081,17.8756537 137.730469,17.3378906 L139.712891,19.6210938 C139.193357,20.3684933 138.434575,20.9973933 137.436523,21.5078125 C136.438472,22.0182317 135.269538,22.2734375 133.929688,22.2734375 C132.416659,22.2734375 131.101894,21.9544303 129.985352,21.3164062 C128.86881,20.6783822 128.012047,19.8125055 127.415039,18.71875 C126.818031,17.6249945 126.519531,16.4173243 126.519531,15.0957031 L126.519531,14.5761719 C126.519531,13.099602 126.797523,11.7825579 127.353516,10.625 C127.909508,9.46744213 128.711583,8.56282878 129.759766,7.91113281 C130.807948,7.25943685 132.047519,6.93359375 133.478516,6.93359375 C134.873054,6.93359375 136.062495,7.22981475 137.046875,7.82226562 C138.031255,8.4147165 138.778643,9.25552841 139.289062,10.3447266 C139.799482,11.4339247 140.054688,12.7167895 140.054688,14.1933594 L140.054688,15.9433594 Z M136.007812,12.8535156 C135.989583,12.0514283 135.768557,11.4179711 135.344727,10.953125 C134.920896,10.4882789 134.289718,10.2558594 133.451172,10.2558594 C132.667314,10.2558594 132.054364,10.5156224 131.612305,11.0351562 C131.170245,11.5546901 130.88086,12.2701777 130.744141,13.1816406 L136.007812,13.1816406 L136.007812,12.8535156 Z M150.376953,6.93359375 C151.862638,6.93359375 153.011064,7.37792524 153.822266,8.26660156 C154.633468,9.15527788 155.039062,10.6067608 155.039062,12.6210938 L155.039062,22 L150.910156,22 L150.910156,12.6074219 C150.910156,11.7324175 150.723309,11.1240251 150.349609,10.7822266 C149.97591,10.440428 149.397139,10.2695312 148.613281,10.2695312 C148.075518,10.2695312 147.6084,10.3834624 147.211914,10.6113281 C146.815428,10.8391938 146.494142,11.1627583 146.248047,11.5820312 L146.248047,22 L142.119141,22 L142.119141,7.20703125 L145.988281,7.20703125 L146.125,8.91601562 C146.644534,8.26887697 147.264319,7.77669439 147.984375,7.43945312 C148.704431,7.10221186 149.501949,6.93359375 150.376953,6.93359375 Z M170.748047,1 L170.748047,22 L167.029297,22 L166.824219,20.4140625 C165.858068,21.653652 164.609383,22.2734375 163.078125,22.2734375 C161.884109,22.2734375 160.851892,21.9521517 159.981445,21.3095703 C159.110998,20.666989 158.450198,19.7806046 157.999023,18.6503906 C157.547849,17.5201766 157.322266,16.230476 157.322266,14.78125 L157.322266,14.4941406 C157.322266,12.9902269 157.547849,11.6686255 157.999023,10.5292969 C158.450198,9.38996826 159.110998,8.50586252 159.981445,7.87695312 C160.851892,7.24804373 161.893223,6.93359375 163.105469,6.93359375 C164.509122,6.93359375 165.680334,7.46679154 166.619141,8.53320312 L166.619141,1 L170.748047,1 Z M164.130859,18.9375 C165.288417,18.9375 166.117836,18.4453174 166.619141,17.4609375 L166.619141,11.7460938 C166.14518,10.7617138 165.324876,10.2695312 164.158203,10.2695312 C163.219396,10.2695312 162.533531,10.6523399 162.100586,11.4179688 C161.667641,12.1835976 161.451172,13.2089779 161.451172,14.4941406 L161.451172,14.78125 C161.451172,16.0481834 161.663084,17.0576134 162.086914,17.8095703 C162.510744,18.5615272 163.192053,18.9375 164.130859,18.9375 Z" id="Referafriend" fill="#0051BC" fill-rule="nonzero"></path>
                        <path d="M10.7753906,47.8945312 L10.7753906,48 L8.94726562,48 L6.16992188,42.8144531 L3.19042969,42.8144531 L3.19042969,48 L1.48535156,48 L1.48535156,35.203125 L5.72167969,35.203125 C7.16895255,35.203125 8.27929301,35.5327115 9.05273438,36.1918945 C9.82617574,36.8510775 10.2128906,37.8017516 10.2128906,39.0439453 C10.2128906,39.8349649 9.99756075,40.5278291 9.56689453,41.1225586 C9.13622832,41.7172881 8.53711321,42.164061 7.76953125,42.4628906 L10.7753906,47.8945312 Z M5.765625,41.4433594 C6.35156543,41.4433594 6.84960732,41.3378917 7.25976562,41.1269531 C7.66992393,40.9160146 7.97900287,40.6289081 8.18701172,40.265625 C8.39502057,39.9023419 8.49902344,39.4951194 8.49902344,39.0439453 C8.49902344,38.2705039 8.2705101,37.6669944 7.81347656,37.2333984 C7.35644303,36.7998025 6.65918438,36.5830078 5.72167969,36.5830078 L3.19042969,36.5830078 L3.19042969,41.4433594 L5.765625,41.4433594 Z M19.9775391,43.6933594 L13.5439453,43.6933594 C13.5615235,44.2851592 13.6845692,44.8212867 13.9130859,45.3017578 C14.1416027,45.782229 14.4653299,46.1616197 14.8842773,46.4399414 C15.3032248,46.7182631 15.7939425,46.8574219 16.3564453,46.8574219 C16.9072293,46.8574219 17.3832988,46.7460949 17.784668,46.5234375 C18.1860372,46.3007801 18.5449203,45.9814474 18.8613281,45.5654297 L19.8544922,46.3388672 C19.5029279,46.8779324 19.0341826,47.3188459 18.4482422,47.6616211 C17.8623018,48.0043962 17.1357465,48.1757812 16.2685547,48.1757812 C15.4013629,48.1757812 14.6367221,47.9794942 13.9746094,47.5869141 C13.3124967,47.194334 12.8012713,46.6494175 12.440918,45.9521484 C12.0805646,45.2548793 11.9003906,44.4638716 11.9003906,43.5791016 L11.9003906,43.2011719 C11.9003906,42.2109325 12.0937481,41.3452185 12.4804688,40.6040039 C12.8671894,39.8627893 13.3784148,39.2959004 14.0141602,38.9033203 C14.6499055,38.5107402 15.3310511,38.3144531 16.0576172,38.3144531 C16.9423872,38.3144531 17.6762666,38.5122051 18.2592773,38.9077148 C18.8422881,39.3032246 19.2744127,39.8496059 19.5556641,40.546875 C19.8369155,41.2441441 19.9775391,42.0498001 19.9775391,42.9638672 L19.9775391,43.6933594 Z M18.3339844,42.2519531 C18.2871091,41.5078088 18.0864276,40.8852564 17.7319336,40.3842773 C17.3774396,39.8832983 16.8193397,39.6328125 16.0576172,39.6328125 C15.4013639,39.6328125 14.8549827,39.8715796 14.418457,40.3491211 C13.9819314,40.8266625 13.7080084,41.5019488 13.5966797,42.375 L18.3339844,42.375 L18.3339844,42.2519531 Z M25.9541016,35.6953125 C25.4326146,35.6953125 25.0283217,35.8491196 24.7412109,36.1567383 C24.4541001,36.464357 24.3105469,36.9052706 24.3105469,37.4794922 L24.3105469,38.4902344 L26.3320312,38.4902344 L26.3320312,39.7294922 L24.3105469,39.7294922 L24.3105469,48 L22.6669922,48 L22.6669922,39.7294922 L21.1728516,39.7294922 L21.1728516,38.4902344 L22.6669922,38.4902344 L22.6669922,37.4794922 C22.6669922,36.4658152 22.9438449,35.6850613 23.4975586,35.137207 C24.0512723,34.5893527 24.8203076,34.3154297 25.8046875,34.3154297 C26.1621112,34.3154297 26.5341778,34.3623042 26.9208984,34.4560547 L26.8330078,35.765625 C26.5693346,35.7187498 26.2763688,35.6953125 25.9541016,35.6953125 Z M35.7890625,43.6933594 L29.3554688,43.6933594 C29.373047,44.2851592 29.4960926,44.8212867 29.7246094,45.3017578 C29.9531261,45.782229 30.2768534,46.1616197 30.6958008,46.4399414 C31.1147482,46.7182631 31.6054659,46.8574219 32.1679688,46.8574219 C32.7187528,46.8574219 33.1948222,46.7460949 33.5961914,46.5234375 C33.9975606,46.3007801 34.3564437,45.9814474 34.6728516,45.5654297 L35.6660156,46.3388672 C35.3144514,46.8779324 34.8457061,47.3188459 34.2597656,47.6616211 C33.6738252,48.0043962 32.94727,48.1757812 32.0800781,48.1757812 C31.2128863,48.1757812 30.4482455,47.9794942 29.7861328,47.5869141 C29.1240201,47.194334 28.6127948,46.6494175 28.2524414,45.9521484 C27.892088,45.2548793 27.7119141,44.4638716 27.7119141,43.5791016 L27.7119141,43.2011719 C27.7119141,42.2109325 27.9052715,41.3452185 28.2919922,40.6040039 C28.6787129,39.8627893 29.1899382,39.2959004 29.8256836,38.9033203 C30.461429,38.5107402 31.1425745,38.3144531 31.8691406,38.3144531 C32.7539107,38.3144531 33.4877901,38.5122051 34.0708008,38.9077148 C34.6538115,39.3032246 35.0859361,39.8496059 35.3671875,40.546875 C35.6484389,41.2441441 35.7890625,42.0498001 35.7890625,42.9638672 L35.7890625,43.6933594 Z M34.1455078,42.2519531 C34.0986326,41.5078088 33.897951,40.8852564 33.543457,40.3842773 C33.1889631,39.8832983 32.6308632,39.6328125 31.8691406,39.6328125 C31.2128873,39.6328125 30.6665061,39.8715796 30.2299805,40.3491211 C29.7934548,40.8266625 29.5195318,41.5019488 29.4082031,42.375 L34.1455078,42.375 L34.1455078,42.2519531 Z M41.5634766,38.3144531 C41.6689458,38.3144531 41.8007805,38.3276366 41.9589844,38.3540039 C42.1171883,38.3803712 42.2255856,38.408203 42.2841797,38.4375 L42.2841797,39.9404297 C42.0322253,39.8935545 41.7656264,39.8701172 41.484375,39.8701172 C40.9453098,39.8701172 40.4956073,39.9902332 40.1352539,40.2304688 C39.7749005,40.4707043 39.5039072,40.807615 39.3222656,41.2412109 L39.3222656,48 L37.6787109,48 L37.6787109,38.4902344 L39.2783203,38.4902344 L39.3134766,39.5712891 C39.5595715,39.1728496 39.8701153,38.8637706 40.2451172,38.644043 C40.6201191,38.4243153 41.0595678,38.3144531 41.5634766,38.3144531 Z M53.7539062,41.4257812 C54.5390664,41.6777356 55.1030256,42.0747043 55.4458008,42.6166992 C55.7885759,43.1586941 55.9599609,43.7636685 55.9599609,44.4316406 C55.9599609,45.2109414 55.7841814,45.8818331 55.4326172,46.4443359 C55.0810529,47.0068388 54.5991242,47.4360337 53.9868164,47.7319336 C53.3745087,48.0278335 52.6816445,48.1757812 51.9082031,48.1757812 C51.15234,48.1757812 50.4668,48.0351577 49.8515625,47.7539062 C49.236325,47.4726548 48.748537,47.0639675 48.3881836,46.527832 C48.0278302,45.9916965 47.8476562,45.3544959 47.8476562,44.6162109 L49.4912109,44.6162109 C49.4912109,45.0615257 49.5893545,45.4540999 49.7856445,45.7939453 C49.9819346,46.1337908 50.2617169,46.3959952 50.625,46.5805664 C50.9882831,46.7651376 51.4160132,46.8574219 51.9082031,46.8574219 C52.6640663,46.8574219 53.2543924,46.6552755 53.6791992,46.2509766 C54.104006,45.8466777 54.3164062,45.2519571 54.3164062,44.4667969 C54.3164062,43.6874961 54.0776391,43.1030293 53.6000977,42.7133789 C53.1225562,42.3237285 52.4589886,42.1289062 51.609375,42.1289062 L50.4492188,42.1289062 L50.4492188,40.8105469 L51.609375,40.8105469 C52.1542996,40.8105469 52.6157208,40.7167978 52.9936523,40.5292969 C53.3715839,40.3417959 53.6542959,40.0810564 53.8417969,39.7470703 C54.0292978,39.4130843 54.1230469,39.0322287 54.1230469,38.6044922 C54.1230469,37.8662072 53.9370136,37.3051777 53.5649414,36.9213867 C53.1928692,36.5375957 52.637699,36.3457031 51.8994141,36.3457031 C51.4423805,36.3457031 51.0410174,36.4365225 50.6953125,36.6181641 C50.3496076,36.7998056 50.0800791,37.0561507 49.8867188,37.387207 C49.6933584,37.7182634 49.5966797,38.1064431 49.5966797,38.5517578 L47.953125,38.5517578 C47.953125,37.9013639 48.1186507,37.3066433 48.449707,36.7675781 C48.7807634,36.2285129 49.2451142,35.8037125 49.8427734,35.4931641 C50.4404327,35.1826156 51.1259727,35.0273438 51.8994141,35.0273438 C52.6787148,35.0273438 53.3583955,35.1650377 53.9384766,35.4404297 C54.5185576,35.7158217 54.9682601,36.124509 55.2875977,36.6665039 C55.6069352,37.2084988 55.7666016,37.8662071 55.7666016,38.6396484 C55.7666016,38.9736345 55.6933601,39.3193342 55.546875,39.6767578 C55.4003899,40.0341815 55.176271,40.3681625 54.8745117,40.6787109 C54.5727524,40.9892594 54.199221,41.2382803 53.7539062,41.4257812 Z M66.8583984,48 C66.4833966,48.1171881 66.0644554,48.1757812 65.6015625,48.1757812 C64.9394498,48.1757812 64.4077169,47.9765645 64.0063477,47.578125 C63.6049785,47.1796855 63.4042969,46.532231 63.4042969,45.6357422 L63.4042969,39.7294922 L61.6728516,39.7294922 L61.6728516,38.4902344 L63.4042969,38.4902344 L63.4042969,36.1787109 L65.0478516,36.1787109 L65.0478516,38.4902344 L66.8232422,38.4902344 L66.8232422,39.7294922 L65.0478516,39.7294922 L65.0478516,45.6445312 C65.0478516,46.0957054 65.1416006,46.398925 65.3291016,46.5541992 C65.5166025,46.7094734 65.7714828,46.7871094 66.09375,46.7871094 C66.2167975,46.7871094 66.3515618,46.7768556 66.4980469,46.7563477 C66.644532,46.7358397 66.7617183,46.7138673 66.8496094,46.6904297 L66.8583984,48 Z M76.3769531,43.6933594 L69.9433594,43.6933594 C69.9609376,44.2851592 70.0839832,44.8212867 70.3125,45.3017578 C70.5410168,45.782229 70.864744,46.1616197 71.2836914,46.4399414 C71.7026388,46.7182631 72.1933566,46.8574219 72.7558594,46.8574219 C73.3066434,46.8574219 73.7827128,46.7460949 74.184082,46.5234375 C74.5854512,46.3007801 74.9443344,45.9814474 75.2607422,45.5654297 L76.2539062,46.3388672 C75.902342,46.8779324 75.4335967,47.3188459 74.8476562,47.6616211 C74.2617158,48.0043962 73.5351606,48.1757812 72.6679688,48.1757812 C71.8007769,48.1757812 71.0361361,47.9794942 70.3740234,47.5869141 C69.7119108,47.194334 69.2006854,46.6494175 68.840332,45.9521484 C68.4799787,45.2548793 68.2998047,44.4638716 68.2998047,43.5791016 L68.2998047,43.2011719 C68.2998047,42.2109325 68.4931621,41.3452185 68.8798828,40.6040039 C69.2666035,39.8627893 69.7778289,39.2959004 70.4135742,38.9033203 C71.0493196,38.5107402 71.7304651,38.3144531 72.4570312,38.3144531 C73.3418013,38.3144531 74.0756807,38.5122051 74.6586914,38.9077148 C75.2417021,39.3032246 75.6738267,39.8496059 75.9550781,40.546875 C76.2363295,41.2441441 76.3769531,42.0498001 76.3769531,42.9638672 L76.3769531,43.6933594 Z M74.7333984,42.2519531 C74.6865232,41.5078088 74.4858416,40.8852564 74.1313477,40.3842773 C73.7768537,39.8832983 73.2187538,39.6328125 72.4570312,39.6328125 C71.800778,39.6328125 71.2543967,39.8715796 70.8178711,40.3491211 C70.3813455,40.8266625 70.1074224,41.5019488 69.9960938,42.375 L74.7333984,42.375 L74.7333984,42.2519531 Z M85.5175781,45.9257812 C85.5175781,46.2597673 85.5468747,46.6040021 85.6054688,46.9584961 C85.6640628,47.3129901 85.7460932,47.61328 85.8515625,47.859375 L85.8515625,48 L84.1376953,48 C84.0380854,47.7714832 83.9619143,47.4404319 83.9091797,47.0068359 C83.581053,47.3584002 83.187014,47.6411122 82.7270508,47.8549805 C82.2670875,48.0688487 81.7617215,48.1757812 81.2109375,48.1757812 C80.5781218,48.1757812 80.0170923,48.0512708 79.527832,47.8022461 C79.0385718,47.5532214 78.6606459,47.2148459 78.394043,46.7871094 C78.1274401,46.3593729 77.9941406,45.8847682 77.9941406,45.3632812 C77.9941406,44.6894498 78.1684553,44.1181664 78.5170898,43.6494141 C78.8657244,43.1806617 79.3608366,42.8276379 80.0024414,42.590332 C80.6440462,42.3530262 81.4013628,42.234375 82.2744141,42.234375 L83.8740234,42.234375 L83.8740234,41.4785156 C83.8740234,40.8984346 83.7026384,40.4428727 83.3598633,40.1118164 C83.0170881,39.7807601 82.5234407,39.6152344 81.8789062,39.6152344 C81.4863262,39.6152344 81.1347672,39.6840813 80.8242188,39.8217773 C80.5136703,39.9594733 80.2719735,40.1440418 80.0991211,40.3754883 C79.9262687,40.6069348 79.8398438,40.8574205 79.8398438,41.1269531 L78.1962891,41.1269531 C78.1962891,40.6640602 78.3544906,40.2158225 78.6708984,39.7822266 C78.9873063,39.3486306 79.4326143,38.9956068 80.0068359,38.7231445 C80.5810576,38.4506822 81.237301,38.3144531 81.9755859,38.3144531 C82.6787145,38.3144531 83.2954075,38.4331043 83.8256836,38.6704102 C84.3559597,38.907716 84.7705063,39.2651343 85.0693359,39.7426758 C85.3681656,40.2202172 85.5175781,40.804684 85.5175781,41.4960938 L85.5175781,45.9257812 Z M81.4482422,46.7695312 C81.8232441,46.7695312 82.1733382,46.7036139 82.4985352,46.5717773 C82.8237321,46.4399407 83.1035145,46.2656261 83.3378906,46.0488281 C83.5722668,45.8320302 83.7509759,45.5976575 83.8740234,45.3457031 L83.8740234,43.3769531 L82.5380859,43.3769531 C81.6005813,43.3769531 80.882815,43.5249009 80.3847656,43.8208008 C79.8867163,44.1167007 79.6376953,44.5546846 79.6376953,45.1347656 C79.6376953,45.4453141 79.7080071,45.7236316 79.8486328,45.9697266 C79.9892585,46.2158215 80.1943346,46.4106438 80.4638672,46.5541992 C80.7333998,46.6977546 81.0615215,46.7695312 81.4482422,46.7695312 Z M95.6777344,44.9941406 C95.6484374,45.550784 95.4580096,46.073728 95.1064453,46.5629883 C94.7548811,47.0522485 94.2934599,47.4433579 93.722168,47.7363281 C93.150876,48.0292983 92.5371127,48.1757812 91.8808594,48.1757812 C90.9609329,48.1757812 90.1831086,47.963381 89.5473633,47.5385742 C88.9116179,47.1137674 88.4355485,46.5424841 88.1191406,45.824707 C87.8027328,45.10693 87.6445312,44.3085981 87.6445312,43.4296875 L87.6445312,43.0605469 C87.6445312,42.1816362 87.8027328,41.3833044 88.1191406,40.6655273 C88.4355485,39.9477503 88.9116179,39.376467 89.5473633,38.9516602 C90.1831086,38.5268533 90.9609329,38.3144531 91.8808594,38.3144531 C92.6074255,38.3144531 93.2534151,38.4638657 93.8188477,38.7626953 C94.3842802,39.0615249 94.8281234,39.4731419 95.1503906,39.9975586 C95.4726579,40.5219753 95.6484374,41.1093717 95.6777344,41.7597656 L94.1220703,41.7597656 C94.0927733,41.3671855 93.9814463,41.0083024 93.7880859,40.6831055 C93.5947256,40.3579085 93.333986,40.1015634 93.0058594,39.9140625 C92.6777327,39.7265616 92.3027365,39.6328125 91.8808594,39.6328125 C91.2539031,39.6328125 90.7470722,39.7954085 90.3603516,40.1206055 C89.9736309,40.4458024 89.698243,40.8647435 89.5341797,41.3774414 C89.3701164,41.8901393 89.2880859,42.4511688 89.2880859,43.0605469 L89.2880859,43.4296875 C89.2880859,44.4023486 89.4887675,45.2167936 89.8901367,45.8730469 C90.2915059,46.5293002 90.9550735,46.8574219 91.8808594,46.8574219 C92.2617207,46.8574219 92.6176741,46.7768563 92.9487305,46.6157227 C93.2797868,46.454589 93.5507802,46.231935 93.7617188,45.9477539 C93.9726573,45.6635728 94.0927733,45.3457049 94.1220703,44.9941406 L95.6777344,44.9941406 Z M101.935547,38.3144531 C103.96876,38.3144531 104.985352,39.4658088 104.985352,41.7685547 L104.985352,48 L103.341797,48 L103.341797,41.7509766 C103.341797,41.0244104 103.18506,40.497072 102.871582,40.1689453 C102.558104,39.8408187 102.084964,39.6767578 101.452148,39.6767578 C100.94824,39.6767578 100.495607,39.8144517 100.094238,40.0898438 C99.6928691,40.3652358 99.3750012,40.7343727 99.140625,41.1972656 L99.140625,48 L97.4970703,48 L97.4970703,34.5 L99.140625,34.5 L99.140625,39.6152344 C99.4863299,39.1992167 99.896482,38.8784191 100.371094,38.652832 C100.845705,38.427245 101.367185,38.3144531 101.935547,38.3144531 Z M115.075195,43.6933594 L108.641602,43.6933594 C108.65918,44.2851592 108.782225,44.8212867 109.010742,45.3017578 C109.239259,45.782229 109.562986,46.1616197 109.981934,46.4399414 C110.400881,46.7182631 110.891599,46.8574219 111.454102,46.8574219 C112.004886,46.8574219 112.480955,46.7460949 112.882324,46.5234375 C113.283693,46.3007801 113.642577,45.9814474 113.958984,45.5654297 L114.952148,46.3388672 C114.600584,46.8779324 114.131839,47.3188459 113.545898,47.6616211 C112.959958,48.0043962 112.233403,48.1757812 111.366211,48.1757812 C110.499019,48.1757812 109.734378,47.9794942 109.072266,47.5869141 C108.410153,47.194334 107.898928,46.6494175 107.538574,45.9521484 C107.178221,45.2548793 106.998047,44.4638716 106.998047,43.5791016 L106.998047,43.2011719 C106.998047,42.2109325 107.191404,41.3452185 107.578125,40.6040039 C107.964846,39.8627893 108.476071,39.2959004 109.111816,38.9033203 C109.747562,38.5107402 110.428707,38.3144531 111.155273,38.3144531 C112.040043,38.3144531 112.773923,38.5122051 113.356934,38.9077148 C113.939944,39.3032246 114.372069,39.8496059 114.65332,40.546875 C114.934572,41.2441441 115.075195,42.0498001 115.075195,42.9638672 L115.075195,43.6933594 Z M113.431641,42.2519531 C113.384765,41.5078088 113.184084,40.8852564 112.82959,40.3842773 C112.475096,39.8832983 111.916996,39.6328125 111.155273,39.6328125 C110.49902,39.6328125 109.952639,39.8715796 109.516113,40.3491211 C109.079588,40.8266625 108.805665,41.5019488 108.694336,42.375 L113.431641,42.375 L113.431641,42.2519531 Z M120.849609,38.3144531 C120.955079,38.3144531 121.086913,38.3276366 121.245117,38.3540039 C121.403321,38.3803712 121.511718,38.408203 121.570312,38.4375 L121.570312,39.9404297 C121.318358,39.8935545 121.051759,39.8701172 120.770508,39.8701172 C120.231443,39.8701172 119.78174,39.9902332 119.421387,40.2304688 C119.061033,40.4707043 118.79004,40.807615 118.608398,41.2412109 L118.608398,48 L116.964844,48 L116.964844,38.4902344 L118.564453,38.4902344 L118.599609,39.5712891 C118.845704,39.1728496 119.156248,38.8637706 119.53125,38.644043 C119.906252,38.4243153 120.345701,38.3144531 120.849609,38.3144531 Z M126.421875,43.8251953 C125.29101,43.5908191 124.437015,43.2626974 123.859863,42.8408203 C123.282712,42.4189432 122.994141,41.8359412 122.994141,41.0917969 C122.994141,40.5878881 123.140624,40.1250021 123.433594,39.703125 C123.726564,39.2812479 124.141111,38.9443372 124.677246,38.6923828 C125.213382,38.4404284 125.827145,38.3144531 126.518555,38.3144531 C127.25684,38.3144531 127.901364,38.4462877 128.452148,38.7099609 C129.002932,38.9736341 129.423338,39.3295876 129.713379,39.777832 C130.003419,40.2260765 130.148438,40.7255832 130.148438,41.2763672 L128.504883,41.2763672 C128.504883,41.0068346 128.425782,40.746095 128.267578,40.4941406 C128.109374,40.2421862 127.879396,40.0356453 127.577637,39.8745117 C127.275877,39.7133781 126.922854,39.6328125 126.518555,39.6328125 C126.090818,39.6328125 125.73633,39.6987298 125.455078,39.8305664 C125.173827,39.962403 124.967286,40.1352528 124.835449,40.3491211 C124.703613,40.5629894 124.637695,40.7929675 124.637695,41.0390625 C124.637695,41.2910169 124.697753,41.5004874 124.817871,41.6674805 C124.937989,41.8344735 125.154784,41.9853509 125.468262,42.1201172 C125.78174,42.2548835 126.234372,42.3867181 126.826172,42.515625 C127.623051,42.6972665 128.270505,42.9111316 128.768555,43.1572266 C129.266604,43.4033215 129.637206,43.7050763 129.880371,44.0625 C130.123536,44.4199237 130.245117,44.8535131 130.245117,45.3632812 C130.245117,45.9140653 130.092775,46.4018533 129.788086,46.8266602 C129.483397,47.251467 129.052737,47.5825183 128.496094,47.8198242 C127.93945,48.0571301 127.294926,48.1757812 126.5625,48.1757812 C125.753902,48.1757812 125.055179,48.0307632 124.466309,47.7407227 C123.877438,47.4506821 123.430666,47.0683617 123.125977,46.59375 C122.821288,46.1191383 122.668945,45.6123074 122.668945,45.0732422 L124.3125,45.0732422 C124.335938,45.4951193 124.458983,45.8393541 124.681641,46.105957 C124.904298,46.3725599 125.181151,46.5644525 125.512207,46.6816406 C125.843263,46.7988287 126.193358,46.8574219 126.5625,46.8574219 C126.990237,46.8574219 127.357909,46.7973639 127.665527,46.6772461 C127.973146,46.5571283 128.206054,46.3930674 128.364258,46.1850586 C128.522462,45.9770497 128.601562,45.7412123 128.601562,45.4775391 C128.601562,45.2138659 128.545899,44.9853525 128.43457,44.7919922 C128.323242,44.5986318 128.109377,44.4199227 127.792969,44.2558594 C127.476561,44.0917961 127.019534,43.9482428 126.421875,43.8251953 Z M144.070312,45.9257812 C144.070312,46.2597673 144.099609,46.6040021 144.158203,46.9584961 C144.216797,47.3129901 144.298828,47.61328 144.404297,47.859375 L144.404297,48 L142.69043,48 C142.59082,47.7714832 142.514649,47.4404319 142.461914,47.0068359 C142.133787,47.3584002 141.739748,47.6411122 141.279785,47.8549805 C140.819822,48.0688487 140.314456,48.1757812 139.763672,48.1757812 C139.130856,48.1757812 138.569827,48.0512708 138.080566,47.8022461 C137.591306,47.5532214 137.21338,47.2148459 136.946777,46.7871094 C136.680174,46.3593729 136.546875,45.8847682 136.546875,45.3632812 C136.546875,44.6894498 136.72119,44.1181664 137.069824,43.6494141 C137.418459,43.1806617 137.913571,42.8276379 138.555176,42.590332 C139.196781,42.3530262 139.954097,42.234375 140.827148,42.234375 L142.426758,42.234375 L142.426758,41.4785156 C142.426758,40.8984346 142.255373,40.4428727 141.912598,40.1118164 C141.569823,39.7807601 141.076175,39.6152344 140.431641,39.6152344 C140.039061,39.6152344 139.687502,39.6840813 139.376953,39.8217773 C139.066405,39.9594733 138.824708,40.1440418 138.651855,40.3754883 C138.479003,40.6069348 138.392578,40.8574205 138.392578,41.1269531 L136.749023,41.1269531 C136.749023,40.6640602 136.907225,40.2158225 137.223633,39.7822266 C137.540041,39.3486306 137.985349,38.9956068 138.55957,38.7231445 C139.133792,38.4506822 139.790035,38.3144531 140.52832,38.3144531 C141.231449,38.3144531 141.848142,38.4331043 142.378418,38.6704102 C142.908694,38.907716 143.323241,39.2651343 143.62207,39.7426758 C143.9209,40.2202172 144.070312,40.804684 144.070312,41.4960938 L144.070312,45.9257812 Z M140.000977,46.7695312 C140.375978,46.7695312 140.726073,46.7036139 141.05127,46.5717773 C141.376466,46.4399407 141.656249,46.2656261 141.890625,46.0488281 C142.125001,45.8320302 142.30371,45.5976575 142.426758,45.3457031 L142.426758,43.3769531 L141.09082,43.3769531 C140.153316,43.3769531 139.435549,43.5249009 138.9375,43.8208008 C138.439451,44.1167007 138.19043,44.5546846 138.19043,45.1347656 C138.19043,45.4453141 138.260741,45.7236316 138.401367,45.9697266 C138.541993,46.2158215 138.747069,46.4106438 139.016602,46.5541992 C139.286134,46.6977546 139.614256,46.7695312 140.000977,46.7695312 Z M151.057617,38.3144531 C153.09083,38.3144531 154.107422,39.4658088 154.107422,41.7685547 L154.107422,48 L152.463867,48 L152.463867,41.7509766 C152.463867,41.0244104 152.30713,40.497072 151.993652,40.1689453 C151.680174,39.8408187 151.207034,39.6767578 150.574219,39.6767578 C150.07031,39.6767578 149.617678,39.8144517 149.216309,40.0898438 C148.814939,40.3652358 148.497071,40.7343727 148.262695,41.1972656 L148.262695,48 L146.619141,48 L146.619141,38.4902344 L148.174805,38.4902344 L148.227539,39.6591797 C148.573244,39.2314432 148.986326,38.9003918 149.466797,38.6660156 C149.947268,38.4316395 150.477536,38.3144531 151.057617,38.3144531 Z M164.197266,34.5 L164.197266,48 L162.694336,48 L162.615234,46.9892578 C161.9707,47.7802774 161.068365,48.1757812 159.908203,48.1757812 C159.175778,48.1757812 158.525393,47.9677755 157.957031,47.5517578 C157.388669,47.1357401 156.947755,46.5615271 156.634277,45.8291016 C156.320799,45.096676 156.164062,44.2705124 156.164062,43.3505859 L156.164062,43.1660156 C156.164062,42.2050733 156.319334,41.3584021 156.629883,40.6259766 C156.940431,39.893551 157.37988,39.3251973 157.948242,38.9208984 C158.516604,38.5165995 159.175778,38.3144531 159.925781,38.3144531 C161.044927,38.3144531 161.920895,38.6865197 162.553711,39.4306641 L162.553711,34.5 L164.197266,34.5 Z M160.3125,46.8046875 C161.326177,46.8046875 162.07324,46.3447312 162.553711,45.4248047 L162.553711,41.0214844 C162.331054,40.6054667 162.036623,40.277345 161.67041,40.0371094 C161.304197,39.7968738 160.857425,39.6767578 160.330078,39.6767578 C159.761716,39.6767578 159.288576,39.8305649 158.910645,40.1381836 C158.532713,40.4458023 158.254395,40.8632786 158.075684,41.390625 C157.896972,41.9179714 157.807617,42.5097623 157.807617,43.1660156 L157.807617,43.3505859 C157.807617,44.0068392 157.896972,44.5942357 158.075684,45.112793 C158.254395,45.6313502 158.531248,46.0429672 158.90625,46.3476562 C159.281252,46.6523453 159.749997,46.8046875 160.3125,46.8046875 Z M178.848633,43.6933594 L172.415039,43.6933594 C172.432617,44.2851592 172.555663,44.8212867 172.78418,45.3017578 C173.012696,45.782229 173.336424,46.1616197 173.755371,46.4399414 C174.174319,46.7182631 174.665036,46.8574219 175.227539,46.8574219 C175.778323,46.8574219 176.254393,46.7460949 176.655762,46.5234375 C177.057131,46.3007801 177.416014,45.9814474 177.732422,45.5654297 L178.725586,46.3388672 C178.374022,46.8779324 177.905276,47.3188459 177.319336,47.6616211 C176.733396,48.0043962 176.00684,48.1757812 175.139648,48.1757812 C174.272457,48.1757812 173.507816,47.9794942 172.845703,47.5869141 C172.18359,47.194334 171.672365,46.6494175 171.312012,45.9521484 C170.951658,45.2548793 170.771484,44.4638716 170.771484,43.5791016 L170.771484,43.2011719 C170.771484,42.2109325 170.964842,41.3452185 171.351562,40.6040039 C171.738283,39.8627893 172.249509,39.2959004 172.885254,38.9033203 C173.520999,38.5107402 174.202145,38.3144531 174.928711,38.3144531 C175.813481,38.3144531 176.54736,38.5122051 177.130371,38.9077148 C177.713382,39.3032246 178.145506,39.8496059 178.426758,40.546875 C178.708009,41.2441441 178.848633,42.0498001 178.848633,42.9638672 L178.848633,43.6933594 Z M177.205078,42.2519531 C177.158203,41.5078088 176.957521,40.8852564 176.603027,40.3842773 C176.248533,39.8832983 175.690433,39.6328125 174.928711,39.6328125 C174.272458,39.6328125 173.726076,39.8715796 173.289551,40.3491211 C172.853025,40.8266625 172.579102,41.5019488 172.467773,42.375 L177.205078,42.375 L177.205078,42.2519531 Z M187.989258,45.9257812 C187.989258,46.2597673 188.018554,46.6040021 188.077148,46.9584961 C188.135742,47.3129901 188.217773,47.61328 188.323242,47.859375 L188.323242,48 L186.609375,48 C186.509765,47.7714832 186.433594,47.4404319 186.380859,47.0068359 C186.052733,47.3584002 185.658694,47.6411122 185.19873,47.8549805 C184.738767,48.0688487 184.233401,48.1757812 183.682617,48.1757812 C183.049802,48.1757812 182.488772,48.0512708 181.999512,47.8022461 C181.510251,47.5532214 181.132326,47.2148459 180.865723,46.7871094 C180.59912,46.3593729 180.46582,45.8847682 180.46582,45.3632812 C180.46582,44.6894498 180.640135,44.1181664 180.98877,43.6494141 C181.337404,43.1806617 181.832516,42.8276379 182.474121,42.590332 C183.115726,42.3530262 183.873043,42.234375 184.746094,42.234375 L186.345703,42.234375 L186.345703,41.4785156 C186.345703,40.8984346 186.174318,40.4428727 185.831543,40.1118164 C185.488768,39.7807601 184.99512,39.6152344 184.350586,39.6152344 C183.958006,39.6152344 183.606447,39.6840813 183.295898,39.8217773 C182.98535,39.9594733 182.743653,40.1440418 182.570801,40.3754883 C182.397948,40.6069348 182.311523,40.8574205 182.311523,41.1269531 L180.667969,41.1269531 C180.667969,40.6640602 180.82617,40.2158225 181.142578,39.7822266 C181.458986,39.3486306 181.904294,38.9956068 182.478516,38.7231445 C183.052737,38.4506822 183.708981,38.3144531 184.447266,38.3144531 C185.150394,38.3144531 185.767087,38.4331043 186.297363,38.6704102 C186.827639,38.907716 187.242186,39.2651343 187.541016,39.7426758 C187.839845,40.2202172 187.989258,40.804684 187.989258,41.4960938 L187.989258,45.9257812 Z M183.919922,46.7695312 C184.294924,46.7695312 184.645018,46.7036139 184.970215,46.5717773 C185.295412,46.4399407 185.575194,46.2656261 185.80957,46.0488281 C186.043946,45.8320302 186.222656,45.5976575 186.345703,45.3457031 L186.345703,43.3769531 L185.009766,43.3769531 C184.072261,43.3769531 183.354495,43.5249009 182.856445,43.8208008 C182.358396,44.1167007 182.109375,44.5546846 182.109375,45.1347656 C182.109375,45.4453141 182.179687,45.7236316 182.320312,45.9697266 C182.460938,46.2158215 182.666014,46.4106438 182.935547,46.5541992 C183.205079,46.6977546 183.533201,46.7695312 183.919922,46.7695312 Z M194.422852,38.3144531 C194.528321,38.3144531 194.660155,38.3276366 194.818359,38.3540039 C194.976563,38.3803712 195.084961,38.408203 195.143555,38.4375 L195.143555,39.9404297 C194.8916,39.8935545 194.625001,39.8701172 194.34375,39.8701172 C193.804685,39.8701172 193.354982,39.9902332 192.994629,40.2304688 C192.634276,40.4707043 192.363282,40.807615 192.181641,41.2412109 L192.181641,48 L190.538086,48 L190.538086,38.4902344 L192.137695,38.4902344 L192.172852,39.5712891 C192.418947,39.1728496 192.72949,38.8637706 193.104492,38.644043 C193.479494,38.4243153 193.918943,38.3144531 194.422852,38.3144531 Z M201.076172,38.3144531 C203.109385,38.3144531 204.125977,39.4658088 204.125977,41.7685547 L204.125977,48 L202.482422,48 L202.482422,41.7509766 C202.482422,41.0244104 202.325685,40.497072 202.012207,40.1689453 C201.698729,39.8408187 201.225589,39.6767578 200.592773,39.6767578 C200.088865,39.6767578 199.636232,39.8144517 199.234863,40.0898438 C198.833494,40.3652358 198.515626,40.7343727 198.28125,41.1972656 L198.28125,48 L196.637695,48 L196.637695,38.4902344 L198.193359,38.4902344 L198.246094,39.6591797 C198.591799,39.2314432 199.00488,38.9003918 199.485352,38.6660156 C199.965823,38.4316395 200.496091,38.3144531 201.076172,38.3144531 Z M218.293945,45.9257812 C218.293945,46.2597673 218.323242,46.6040021 218.381836,46.9584961 C218.44043,47.3129901 218.52246,47.61328 218.62793,47.859375 L218.62793,48 L216.914062,48 C216.814453,47.7714832 216.738282,47.4404319 216.685547,47.0068359 C216.35742,47.3584002 215.963381,47.6411122 215.503418,47.8549805 C215.043455,48.0688487 214.538089,48.1757812 213.987305,48.1757812 C213.354489,48.1757812 212.793459,48.0512708 212.304199,47.8022461 C211.814939,47.5532214 211.437013,47.2148459 211.17041,46.7871094 C210.903807,46.3593729 210.770508,45.8847682 210.770508,45.3632812 C210.770508,44.6894498 210.944822,44.1181664 211.293457,43.6494141 C211.642092,43.1806617 212.137204,42.8276379 212.778809,42.590332 C213.420413,42.3530262 214.17773,42.234375 215.050781,42.234375 L216.650391,42.234375 L216.650391,41.4785156 C216.650391,40.8984346 216.479006,40.4428727 216.13623,40.1118164 C215.793455,39.7807601 215.299808,39.6152344 214.655273,39.6152344 C214.262693,39.6152344 213.911134,39.6840813 213.600586,39.8217773 C213.290038,39.9594733 213.048341,40.1440418 212.875488,40.3754883 C212.702636,40.6069348 212.616211,40.8574205 212.616211,41.1269531 L210.972656,41.1269531 C210.972656,40.6640602 211.130858,40.2158225 211.447266,39.7822266 C211.763673,39.3486306 212.208982,38.9956068 212.783203,38.7231445 C213.357425,38.4506822 214.013668,38.3144531 214.751953,38.3144531 C215.455082,38.3144531 216.071775,38.4331043 216.602051,38.6704102 C217.132327,38.907716 217.546874,39.2651343 217.845703,39.7426758 C218.144533,40.2202172 218.293945,40.804684 218.293945,41.4960938 L218.293945,45.9257812 Z M214.224609,46.7695312 C214.599611,46.7695312 214.949705,46.7036139 215.274902,46.5717773 C215.600099,46.4399407 215.879882,46.2656261 216.114258,46.0488281 C216.348634,45.8320302 216.527343,45.5976575 216.650391,45.3457031 L216.650391,43.3769531 L215.314453,43.3769531 C214.376948,43.3769531 213.659182,43.5249009 213.161133,43.8208008 C212.663083,44.1167007 212.414062,44.5546846 212.414062,45.1347656 C212.414062,45.4453141 212.484374,45.7236316 212.625,45.9697266 C212.765626,46.2158215 212.970702,46.4106438 213.240234,46.5541992 C213.509767,46.6977546 213.837889,46.7695312 214.224609,46.7695312 Z M232.470703,38.4902344 L229.060547,48 L227.8125,48 L224.367188,38.4902344 L226.045898,38.4902344 L228.454102,45.7763672 L230.791992,38.4902344 L232.470703,38.4902344 Z M233.481445,43.1484375 C233.481445,42.228511 233.657225,41.4023474 234.008789,40.6699219 C234.360353,39.9374963 234.86279,39.3618185 235.516113,38.9428711 C236.169437,38.5239237 236.929683,38.3144531 237.796875,38.3144531 C238.675786,38.3144531 239.443356,38.5239237 240.099609,38.9428711 C240.755863,39.3618185 241.259764,39.9374963 241.611328,40.6699219 C241.962892,41.4023474 242.138672,42.228511 242.138672,43.1484375 L242.138672,43.3505859 C242.138672,44.2705124 241.962892,45.0952112 241.611328,45.824707 C241.259764,46.5542029 240.757327,47.1284159 240.104004,47.5473633 C239.45068,47.9663107 238.687504,48.1757812 237.814453,48.1757812 C236.941402,48.1757812 236.178226,47.9663107 235.524902,47.5473633 C234.871579,47.1284159 234.367678,46.5542029 234.013184,45.824707 C233.65869,45.0952112 233.481445,44.2705124 233.481445,43.3505859 L233.481445,43.1484375 Z M235.125,43.3505859 C235.125,43.9951204 235.226073,44.5839817 235.428223,45.1171875 C235.630372,45.6503933 235.933592,46.0737289 236.337891,46.387207 C236.74219,46.7006852 237.234372,46.8574219 237.814453,46.8574219 C238.388675,46.8574219 238.877928,46.7006852 239.282227,46.387207 C239.686525,46.0737289 239.989745,45.6503933 240.191895,45.1171875 C240.394044,44.5839817 240.495117,43.9951204 240.495117,43.3505859 L240.495117,43.1484375 C240.495117,42.503903 240.392579,41.9150417 240.1875,41.3818359 C239.982421,40.8486301 239.677736,40.4238297 239.273438,40.1074219 C238.869139,39.791014 238.376956,39.6328125 237.796875,39.6328125 C237.222653,39.6328125 236.734865,39.791014 236.333496,40.1074219 C235.932127,40.4238297 235.630372,40.8486301 235.428223,41.3818359 C235.226073,41.9150417 235.125,42.503903 235.125,43.1484375 L235.125,43.3505859 Z M251.639648,38.4902344 L251.639648,48 L250.075195,48 L250.048828,47.0595703 C249.416012,47.8037147 248.487311,48.1757812 247.262695,48.1757812 C246.284175,48.1757812 245.519534,47.8886747 244.96875,47.3144531 C244.417966,46.7402315 244.142578,45.8437561 244.142578,44.625 L244.142578,38.4902344 L245.786133,38.4902344 L245.786133,44.6425781 C245.786133,45.4335977 245.948729,45.9916976 246.273926,46.3168945 C246.599123,46.6420915 247.016599,46.8046875 247.526367,46.8046875 C248.756842,46.8046875 249.580076,46.3447312 249.996094,45.4248047 L249.996094,38.4902344 L251.639648,38.4902344 Z M261.711914,44.9941406 C261.682617,45.550784 261.492189,46.073728 261.140625,46.5629883 C260.789061,47.0522485 260.32764,47.4433579 259.756348,47.7363281 C259.185056,48.0292983 258.571292,48.1757812 257.915039,48.1757812 C256.995113,48.1757812 256.217288,47.963381 255.581543,47.5385742 C254.945798,47.1137674 254.469728,46.5424841 254.15332,45.824707 C253.836912,45.10693 253.678711,44.3085981 253.678711,43.4296875 L253.678711,43.0605469 C253.678711,42.1816362 253.836912,41.3833044 254.15332,40.6655273 C254.469728,39.9477503 254.945798,39.376467 255.581543,38.9516602 C256.217288,38.5268533 256.995113,38.3144531 257.915039,38.3144531 C258.641605,38.3144531 259.287595,38.4638657 259.853027,38.7626953 C260.41846,39.0615249 260.862303,39.4731419 261.18457,39.9975586 C261.506838,40.5219753 261.682617,41.1093717 261.711914,41.7597656 L260.15625,41.7597656 C260.126953,41.3671855 260.015626,41.0083024 259.822266,40.6831055 C259.628905,40.3579085 259.368166,40.1015634 259.040039,39.9140625 C258.711912,39.7265616 258.336916,39.6328125 257.915039,39.6328125 C257.288083,39.6328125 256.781252,39.7954085 256.394531,40.1206055 C256.007811,40.4458024 255.732423,40.8647435 255.568359,41.3774414 C255.404296,41.8901393 255.322266,42.4511688 255.322266,43.0605469 L255.322266,43.4296875 C255.322266,44.4023486 255.522947,45.2167936 255.924316,45.8730469 C256.325686,46.5293002 256.989253,46.8574219 257.915039,46.8574219 C258.2959,46.8574219 258.651854,46.7768563 258.98291,46.6157227 C259.313966,46.454589 259.58496,46.231935 259.795898,45.9477539 C260.006837,45.6635728 260.126953,45.3457049 260.15625,44.9941406 L261.711914,44.9941406 Z M267.969727,38.3144531 C270.00294,38.3144531 271.019531,39.4658088 271.019531,41.7685547 L271.019531,48 L269.375977,48 L269.375977,41.7509766 C269.375977,41.0244104 269.21924,40.497072 268.905762,40.1689453 C268.592284,39.8408187 268.119144,39.6767578 267.486328,39.6767578 C266.982419,39.6767578 266.529787,39.8144517 266.128418,40.0898438 C265.727049,40.3652358 265.409181,40.7343727 265.174805,41.1972656 L265.174805,48 L263.53125,48 L263.53125,34.5 L265.174805,34.5 L265.174805,39.6152344 C265.52051,39.1992167 265.930662,38.8784191 266.405273,38.652832 C266.879885,38.427245 267.401364,38.3144531 267.969727,38.3144531 Z M281.109375,43.6933594 L274.675781,43.6933594 C274.693359,44.2851592 274.816405,44.8212867 275.044922,45.3017578 C275.273439,45.782229 275.597166,46.1616197 276.016113,46.4399414 C276.435061,46.7182631 276.925778,46.8574219 277.488281,46.8574219 C278.039065,46.8574219 278.515135,46.7460949 278.916504,46.5234375 C279.317873,46.3007801 279.676756,45.9814474 279.993164,45.5654297 L280.986328,46.3388672 C280.634764,46.8779324 280.166019,47.3188459 279.580078,47.6616211 C278.994138,48.0043962 278.267582,48.1757812 277.400391,48.1757812 C276.533199,48.1757812 275.768558,47.9794942 275.106445,47.5869141 C274.444333,47.194334 273.933107,46.6494175 273.572754,45.9521484 C273.212401,45.2548793 273.032227,44.4638716 273.032227,43.5791016 L273.032227,43.2011719 C273.032227,42.2109325 273.225584,41.3452185 273.612305,40.6040039 C273.999025,39.8627893 274.510251,39.2959004 275.145996,38.9033203 C275.781741,38.5107402 276.462887,38.3144531 277.189453,38.3144531 C278.074223,38.3144531 278.808103,38.5122051 279.391113,38.9077148 C279.974124,39.3032246 280.406249,39.8496059 280.6875,40.546875 C280.968751,41.2441441 281.109375,42.0498001 281.109375,42.9638672 L281.109375,43.6933594 Z M279.46582,42.2519531 C279.418945,41.5078088 279.218263,40.8852564 278.86377,40.3842773 C278.509276,39.8832983 277.951176,39.6328125 277.189453,39.6328125 C276.5332,39.6328125 275.986819,39.8715796 275.550293,40.3491211 C275.113767,40.8266625 274.839844,41.5019488 274.728516,42.375 L279.46582,42.375 L279.46582,42.2519531 Z M286.883789,38.3144531 C286.989258,38.3144531 287.121093,38.3276366 287.279297,38.3540039 C287.437501,38.3803712 287.545898,38.408203 287.604492,38.4375 L287.604492,39.9404297 C287.352538,39.8935545 287.085939,39.8701172 286.804688,39.8701172 C286.265622,39.8701172 285.81592,39.9902332 285.455566,40.2304688 C285.095213,40.4707043 284.82422,40.807615 284.642578,41.2412109 L284.642578,48 L282.999023,48 L282.999023,38.4902344 L284.598633,38.4902344 L284.633789,39.5712891 C284.879884,39.1728496 285.190428,38.8637706 285.56543,38.644043 C285.940432,38.4243153 286.37988,38.3144531 286.883789,38.3144531 Z" id="Refer3teachersandearnavoucher" fill="#3D4564" fill-rule="nonzero"></path>
                        <g id="Buttons-/-secondary-/-default" transform="translate(0.000000, 60.000000)">
                            <mask id="mask-4" fill="white">
                                <use xlink:href="#path-3"></use>
                            </mask>
                            <rect stroke="#4189FF" stroke-width="2" x="1" y="1" width="138" height="38" rx="8"></rect>
                            <path d="M39.7539062,23.5703125 C39.5403635,23.8203138 39.2434915,24.065103 38.8632812,24.3046875 C38.483071,24.544272 37.9960967,24.7460929 37.4023438,24.9101562 C36.8085908,25.0742196 36.1263059,25.15625 35.3554688,25.15625 C34.3658805,25.15625 33.4987016,24.9401063 32.7539062,24.5078125 C32.0091109,24.0755187 31.4309916,23.4466187 31.0195312,22.6210938 C30.6080709,21.7955688 30.4023438,20.8046933 30.4023438,19.6484375 L30.4023438,18.984375 C30.4023438,17.8281192 30.6015605,16.8359416 31,16.0078125 C31.3984395,15.1796834 31.9583297,14.5481793 32.6796875,14.1132812 C33.4010453,13.6783832 34.2408806,13.4609375 35.1992188,13.4609375 C36.6315176,13.4609375 37.7148401,13.7994758 38.4492188,14.4765625 C39.1835974,15.1536492 39.6158848,16.0859316 39.7460938,17.2734375 L37.3710938,17.2734375 C37.2825516,16.6744762 37.0742204,16.2187516 36.7460938,15.90625 C36.4179671,15.5937484 35.9257845,15.4375 35.2695312,15.4375 C34.4986941,15.4375 33.9088562,15.7369762 33.5,16.3359375 C33.0911438,16.9348988 32.8867188,17.8124942 32.8867188,18.96875 L32.8867188,19.6484375 C32.8867188,20.81511 33.1067686,21.6953095 33.546875,22.2890625 C33.9869814,22.8828155 34.6393186,23.1796875 35.5039062,23.1796875 C36.3372437,23.1796875 36.9361961,23.0026059 37.3007812,22.6484375 L37.3007812,20.765625 L35.2304688,20.765625 L35.2304688,18.984375 L39.7539062,18.984375 L39.7539062,23.5703125 Z M48.8789062,21.5390625 L43.5351562,21.5390625 C43.6236984,22.0651068 43.8424462,22.4830714 44.1914062,22.7929688 C44.5403663,23.1028661 44.9882785,23.2578125 45.5351562,23.2578125 C45.9414083,23.2578125 46.3177066,23.1809904 46.6640625,23.0273438 C47.0104184,22.8736971 47.3059884,22.6432307 47.5507812,22.3359375 L48.6835938,23.640625 C48.3867173,24.0677105 47.9531279,24.4270819 47.3828125,24.71875 C46.8124971,25.0104181 46.1445351,25.15625 45.3789062,25.15625 C44.5143186,25.15625 43.763024,24.9739602 43.125,24.609375 C42.486976,24.2447898 41.9973975,23.7500031 41.65625,23.125 C41.3151025,22.4999969 41.1445312,21.8098996 41.1445312,21.0546875 L41.1445312,20.7578125 C41.1445312,19.9140583 41.3033838,19.1614616 41.6210938,18.5 C41.9388037,17.8385384 42.3971324,17.3216164 42.9960938,16.9492188 C43.5950551,16.5768211 44.3033813,16.390625 45.1210938,16.390625 C45.9179727,16.390625 46.5976534,16.5598941 47.1601562,16.8984375 C47.7226591,17.2369809 48.1497381,17.7174448 48.4414062,18.3398438 C48.7330744,18.9622427 48.8789062,19.6953083 48.8789062,20.5390625 L48.8789062,21.5390625 Z M46.5664062,19.7734375 C46.5559895,19.3151019 46.4296887,18.9531263 46.1875,18.6875 C45.9453113,18.4218737 45.5846378,18.2890625 45.1054688,18.2890625 C44.6575498,18.2890625 44.3072929,18.4374985 44.0546875,18.734375 C43.8020821,19.0312515 43.6367191,19.4401016 43.5585938,19.9609375 L46.5664062,19.9609375 L46.5664062,19.7734375 Z M53.7695312,23.21875 C54.0247409,23.21875 54.2434887,23.200521 54.4257812,23.1640625 L54.4257812,24.9375 C54.0195292,25.0833341 53.5559922,25.15625 53.0351562,25.15625 C51.378898,25.15625 50.5507812,24.3125084 50.5507812,22.625 L50.5507812,18.265625 L49.3554688,18.265625 L49.3554688,16.546875 L50.5507812,16.546875 L50.5507812,14.453125 L52.9101562,14.453125 L52.9101562,16.546875 L54.3320312,16.546875 L54.3320312,18.265625 L52.9101562,18.265625 L52.9101562,22.3515625 C52.9101562,22.6848975 52.9752598,22.9127598 53.1054688,23.0351562 C53.2356777,23.1575527 53.4570297,23.21875 53.7695312,23.21875 Z M62.3476562,21.6171875 C60.3476462,21.190102 59.3476562,20.3281315 59.3476562,19.03125 C59.3476562,18.5520809 59.4843736,18.1119812 59.7578125,17.7109375 C60.0312514,17.3098938 60.4257787,16.9895845 60.9414062,16.75 C61.4570338,16.5104155 62.0585903,16.390625 62.7460938,16.390625 C63.4700557,16.390625 64.1028619,16.5065093 64.6445312,16.7382812 C65.1862006,16.9700532 65.6028631,17.2929667 65.8945312,17.7070312 C66.1861994,18.1210958 66.3320312,18.5937473 66.3320312,19.125 L63.9726562,19.125 C63.9726562,18.7864566 63.8710948,18.5221364 63.6679688,18.3320312 C63.4648427,18.1419261 63.15495,18.046875 62.7382812,18.046875 C62.3945295,18.046875 62.1197927,18.1276034 61.9140625,18.2890625 C61.7083323,18.4505216 61.6054688,18.6588529 61.6054688,18.9140625 C61.6054688,19.1588554 61.721353,19.3567701 61.953125,19.5078125 C62.184897,19.6588549 62.5794243,19.7864578 63.1367188,19.890625 C63.8033887,20.0156256 64.3684873,20.1783844 64.8320312,20.3789062 C65.2955752,20.5794281 65.6640611,20.8567691 65.9375,21.2109375 C66.2109389,21.5651059 66.3476562,22.0156223 66.3476562,22.5625 C66.3476562,23.0572941 66.2005223,23.5013001 65.90625,23.8945312 C65.6119777,24.2877624 65.1927111,24.596353 64.6484375,24.8203125 C64.1041639,25.044272 63.4726598,25.15625 62.7539062,25.15625 C61.9934858,25.15625 61.3359403,25.0169285 60.78125,24.7382812 C60.2265597,24.459634 59.8046889,24.1015647 59.515625,23.6640625 C59.2265611,23.2265603 59.0820312,22.7708357 59.0820312,22.296875 L61.3085938,22.296875 C61.3242188,22.703127 61.4700507,23.0039053 61.7460938,23.1992188 C62.0221368,23.3945322 62.3762999,23.4921875 62.8085938,23.4921875 C63.2096374,23.4921875 63.5182281,23.4153654 63.734375,23.2617188 C63.9505219,23.1080721 64.0585938,22.901043 64.0585938,22.640625 C64.0585938,22.4791659 64.0104171,22.3424485 63.9140625,22.2304688 C63.8177079,22.118489 63.6458346,22.0130213 63.3984375,21.9140625 C63.1510404,21.8151037 62.8007835,21.7161463 62.3476562,21.6171875 Z M71.4101562,23.21875 C71.6653659,23.21875 71.8841137,23.200521 72.0664062,23.1640625 L72.0664062,24.9375 C71.6601542,25.0833341 71.1966172,25.15625 70.6757812,25.15625 C69.019523,25.15625 68.1914062,24.3125084 68.1914062,22.625 L68.1914062,18.265625 L66.9960938,18.265625 L66.9960938,16.546875 L68.1914062,16.546875 L68.1914062,14.453125 L70.5507812,14.453125 L70.5507812,16.546875 L71.9726562,16.546875 L71.9726562,18.265625 L70.5507812,18.265625 L70.5507812,22.3515625 C70.5507812,22.6848975 70.6158848,22.9127598 70.7460938,23.0351562 C70.8763027,23.1575527 71.0976547,23.21875 71.4101562,23.21875 Z M80.0664062,22.9140625 C80.0664062,23.3932316 80.0950518,23.7812485 80.1523438,24.078125 C80.2096357,24.3750015 80.2955723,24.6380197 80.4101562,24.8671875 L80.4101562,25 L78.0429688,25 C77.9388016,24.796874 77.8632815,24.5442723 77.8164062,24.2421875 C77.2799452,24.8515655 76.5742231,25.15625 75.6992188,25.15625 C75.1679661,25.15625 74.6835959,25.0468761 74.2460938,24.828125 C73.8085916,24.6093739 73.4635429,24.3072936 73.2109375,23.921875 C72.9583321,23.5364564 72.8320312,23.1015649 72.8320312,22.6171875 C72.8320312,21.726558 73.1627571,21.040367 73.8242188,20.5585938 C74.4856804,20.0768205 75.459629,19.8359375 76.7460938,19.8359375 L77.7070312,19.8359375 L77.7070312,19.359375 C77.7070312,18.968748 77.6080739,18.6653657 77.4101562,18.4492188 C77.2122386,18.2330718 76.9153666,18.125 76.5195312,18.125 C76.1601545,18.125 75.8802093,18.2096346 75.6796875,18.3789062 C75.4791657,18.5481779 75.3789062,18.7890609 75.3789062,19.1015625 L73.0195312,19.1015625 C73.0195312,18.5963516 73.1692693,18.1380229 73.46875,17.7265625 C73.7682307,17.3151021 74.1927056,16.9895845 74.7421875,16.75 C75.2916694,16.5104155 75.9257777,16.390625 76.6445312,16.390625 C77.3112012,16.390625 77.9023412,16.502603 78.4179688,16.7265625 C78.9335963,16.950522 79.3372381,17.2864561 79.6289062,17.734375 C79.9205744,18.1822939 80.0664062,18.7291634 80.0664062,19.375 L80.0664062,22.9140625 Z M76.2304688,23.3671875 C76.5742205,23.3671875 76.8763008,23.2929695 77.1367188,23.1445312 C77.3971367,22.996093 77.587239,22.8151052 77.7070312,22.6015625 L77.7070312,21.1875 L76.8085938,21.1875 C76.261716,21.1875 75.854168,21.3059884 75.5859375,21.5429688 C75.317707,21.7799491 75.1835938,22.0885398 75.1835938,22.46875 C75.1835938,22.7343763 75.2786449,22.95052 75.46875,23.1171875 C75.6588551,23.283855 75.9127588,23.3671875 76.2304688,23.3671875 Z M85.9101562,16.390625 C86.0299485,16.390625 86.1575514,16.3997395 86.2929688,16.4179688 C86.4283861,16.436198 86.53776,16.4583332 86.6210938,16.484375 L86.5898438,18.765625 C86.2877589,18.7239581 86.0091159,18.703125 85.7539062,18.703125 C84.910152,18.703125 84.3606784,18.981768 84.1054688,19.5390625 L84.1054688,25 L81.7460938,25 L81.7460938,16.546875 L83.9648438,16.546875 L84.0351562,17.5703125 C84.2434906,17.1901023 84.5078109,16.8984385 84.828125,16.6953125 C85.1484391,16.4921865 85.5091126,16.390625 85.9101562,16.390625 Z M91.6914062,23.21875 C91.9466159,23.21875 92.1653637,23.200521 92.3476562,23.1640625 L92.3476562,24.9375 C91.9414042,25.0833341 91.4778672,25.15625 90.9570312,25.15625 C89.300773,25.15625 88.4726562,24.3125084 88.4726562,22.625 L88.4726562,18.265625 L87.2773438,18.265625 L87.2773438,16.546875 L88.4726562,16.546875 L88.4726562,14.453125 L90.8320312,14.453125 L90.8320312,16.546875 L92.2539062,16.546875 L92.2539062,18.265625 L90.8320312,18.265625 L90.8320312,22.3515625 C90.8320312,22.6848975 90.8971348,22.9127598 91.0273438,23.0351562 C91.1575527,23.1575527 91.3789047,23.21875 91.6914062,23.21875 Z M100.902344,21.5390625 L95.5585938,21.5390625 C95.6471359,22.0651068 95.8658837,22.4830714 96.2148438,22.7929688 C96.5638038,23.1028661 97.011716,23.2578125 97.5585938,23.2578125 C97.9648458,23.2578125 98.3411441,23.1809904 98.6875,23.0273438 C99.0338559,22.8736971 99.3294259,22.6432307 99.5742188,22.3359375 L100.707031,23.640625 C100.410155,24.0677105 99.9765654,24.4270819 99.40625,24.71875 C98.8359346,25.0104181 98.1679726,25.15625 97.4023438,25.15625 C96.5377561,25.15625 95.7864615,24.9739602 95.1484375,24.609375 C94.5104135,24.2447898 94.020835,23.7500031 93.6796875,23.125 C93.33854,22.4999969 93.1679688,21.8098996 93.1679688,21.0546875 L93.1679688,20.7578125 C93.1679688,19.9140583 93.3268213,19.1614616 93.6445312,18.5 C93.9622412,17.8385384 94.4205699,17.3216164 95.0195312,16.9492188 C95.6184926,16.5768211 96.3268188,16.390625 97.1445312,16.390625 C97.9414102,16.390625 98.6210909,16.5598941 99.1835938,16.8984375 C99.7460966,17.2369809 100.173176,17.7174448 100.464844,18.3398438 C100.756512,18.9622427 100.902344,19.6953083 100.902344,20.5390625 L100.902344,21.5390625 Z M98.5898438,19.7734375 C98.579427,19.3151019 98.4531262,18.9531263 98.2109375,18.6875 C97.9687488,18.4218737 97.6080753,18.2890625 97.1289062,18.2890625 C96.6809873,18.2890625 96.3307304,18.4374985 96.078125,18.734375 C95.8255196,19.0312515 95.6601566,19.4401016 95.5820312,19.9609375 L98.5898438,19.9609375 L98.5898438,19.7734375 Z M109.457031,13 L109.457031,25 L107.332031,25 L107.214844,24.09375 C106.662758,24.8020869 105.949223,25.15625 105.074219,25.15625 C104.391924,25.15625 103.802086,24.9726581 103.304688,24.6054688 C102.807289,24.2382794 102.429689,23.7317741 102.171875,23.0859375 C101.914061,22.4401009 101.785156,21.7031291 101.785156,20.875 L101.785156,20.7109375 C101.785156,19.8515582 101.914061,19.0963574 102.171875,18.4453125 C102.429689,17.7942676 102.807289,17.2890643 103.304688,16.9296875 C103.802086,16.5703107 104.397132,16.390625 105.089844,16.390625 C105.891931,16.390625 106.561195,16.6953095 107.097656,17.3046875 L107.097656,13 L109.457031,13 Z M105.675781,23.25 C106.337243,23.25 106.811196,22.9687528 107.097656,22.40625 L107.097656,19.140625 C106.826822,18.5781222 106.358076,18.296875 105.691406,18.296875 C105.154945,18.296875 104.763022,18.5156228 104.515625,18.953125 C104.268228,19.3906272 104.144531,19.9765588 104.144531,20.7109375 L104.144531,20.875 C104.144531,21.598962 104.265624,22.1757791 104.507812,22.6054688 C104.750001,23.0351584 105.13932,23.25 105.675781,23.25 Z" id="Getstarted" fill="#4189FF" fill-rule="nonzero" mask="url(#mask-4)"></path>
                        </g>
                    </g>
                </g>
            </g>
        </g>
    </g>
</svg>