<?xml version="1.0" encoding="UTF-8"?>
<svg viewBox="0 0 458 412" version="1.1" xmlns="http://www.w3.org/2000/svg" xmlns:xlink="http://www.w3.org/1999/xlink">
    <!-- Generator: sketchtool 53.2 (72643) - https://sketchapp.com -->
    <title>Registration</title>
    <desc>A person with a laptop sitting on a video player registering for an account.</desc>
    <defs>
        <path d="M109.547899,3.77428421 C82.196398,8.95392007 47.6490829,23.1639672 28.6186095,44.409976 L28.6186095,44.409976 C7.91003905,67.5271427 8.90096836,114.251398 7.45578594,143.119235 L7.45578594,143.119235 C5.1257129,189.67802 2.797029,236.235878 0.466492911,282.794663 L0.466492911,282.794663 C0.0965150962,290.190766 -0.239659989,297.826036 2.32240165,304.774396 L2.32240165,304.774396 C5.34751436,312.976992 12.1270453,319.295453 19.5812416,323.845653 L19.5812416,323.845653 C34.3396056,332.854279 51.9272118,335.896243 69.143451,337.405406 L69.143451,337.405406 C88.2841306,339.084211 107.52946,339.086065 126.743764,339.044813 L126.743764,339.044813 C215.155033,338.854314 304.113629,337.717807 390.984327,321.253749 L390.984327,321.253749 C404.850855,318.625229 419.526796,315.135521 429.284208,304.919008 L429.284208,304.919008 C435.045953,298.886529 438.488738,291.088106 441.147577,283.123749 L441.147577,283.123749 C441.549042,281.920498 441.932912,280.713539 442.303352,279.508897 L442.303352,279.508897 C454.880746,238.664165 456.08329,195.303545 457.185814,152.573751 L457.185814,152.573751 C457.750736,130.672813 449.467679,117.232643 443.373463,97.5537351 L443.373463,97.5537351 C436.65876,75.8687898 424.345768,56.2487463 410.041194,38.8057722 L410.041194,38.8057722 C401.677103,28.6045547 392.120654,18.7134201 379.813683,13.9982133 L379.813683,13.9982133 C371.694082,10.8871873 362.87759,10.2290143 354.207421,9.6023595 L354.207421,9.6023595 C292.068281,5.11102424 229.878206,0.61783498 167.579313,0.0922236098 L167.579313,0.0922236098 C164.934828,0.0704390116 162.284324,0.0551434426 159.636135,0.0551434426 L159.636135,0.0551434426 C142.846829,0.0551434426 126.026498,0.654451645 109.547899,3.77428421 L109.547899,3.77428421 Z" id="path-1"></path>
        <path d="M12.7688844,0.29894382 C5.90389785,0.29894382 0.338709677,5.52247004 0.338709677,11.9657434 L0.338709677,11.9657434 L0.338709677,239.050238 C0.338709677,245.492571 5.90389785,250.716097 12.7688844,250.716097 L12.7688844,250.716097 L337.155847,250.716097 C344.021304,250.716097 349.587433,245.492571 349.587433,239.050238 L349.587433,239.050238 L349.587433,11.9657434 C349.587433,5.52247004 344.021304,0.29894382 337.155847,0.29894382 L337.155847,0.29894382 L12.7688844,0.29894382 Z" id="path-3"></path>
        <path d="M0.338709677,13.7782079 L0.338709677,239.261285 C0.338709677,245.659904 5.90483871,250.845358 12.7698253,250.845358 L12.7698253,250.845358 L337.156788,250.845358 C344.022715,250.845358 349.587433,245.659904 349.587433,239.261285 L349.587433,239.261285 C349.587433,239.261285 130.739583,225.439833 13.8927419,0.29894382 L13.8927419,0.29894382 C3.46706989,0.29894382 0.338709677,5.96712547 0.338709677,13.7782079 L0.338709677,13.7782079 Z" id="path-5"></path>
        <path d="M2.49304732,0.45 C1.32219874,0.45 0.373205047,1.6675 0.373205047,3.17 L0.373205047,3.17 C0.373205047,4.672 1.32219874,5.889 2.49304732,5.889 L2.49304732,5.889 L295.433628,5.889 C296.604476,5.889 297.55253,4.672 297.55253,3.17 L297.55253,3.17 C297.55253,1.6675 296.604476,0.45 295.433628,0.45 L295.433628,0.45 L2.49304732,0.45 Z" id="path-7"></path>
        <path d="M2.49858559,0.45 C1.32507883,0.45 0.373752252,1.6745 0.373752252,3.185 L0.373752252,3.185 C0.373752252,4.695 1.32507883,5.9215 2.49858559,5.9215 L2.49858559,5.9215 L208.808417,5.9215 L208.808417,0.45 L2.49858559,0.45 Z" id="path-9"></path>
        <path d="M0.138184211,44.5220158 C0.138184211,68.9754684 19.9744105,88.8224684 44.4175579,88.8224684 L44.4175579,88.8224684 C68.8611737,88.8224684 88.6978684,68.9754684 88.6978684,44.5220158 L88.6978684,44.5220158 C88.6978684,20.0676263 68.8611737,0.219689474 44.4175579,0.219689474 L44.4175579,0.219689474 C19.9744105,0.219689474 0.138184211,20.0676263 0.138184211,44.5220158 L0.138184211,44.5220158 Z M34.9507684,29.5503421 L65.7939526,45.7820684 L34.9507684,62.0128579 L34.9507684,29.5503421 Z" id="path-11"></path>
        <path d="M36.7440115,0.135728814 C36.1313678,0.159457627 35.5592529,0.438983051 35.0352069,0.757423729 L35.0352069,0.757423729 C32.3932989,2.36576271 30.5662069,5.08176271 29.4144368,7.96623729 L29.4144368,7.96623729 C28.2636092,10.851661 27.7183563,13.9378305 27.1014713,16.9846102 L27.1014713,16.9846102 C25.9355632,22.7364746 24.4901954,28.4328136 22.7752644,34.0437288 L22.7752644,34.0437288 C21.2940805,38.8858305 19.2134483,41.8282034 14.6398276,44.1892203 L14.6398276,44.1892203 L9.8546092,46.6593898 C7.46718391,47.8909153 5.03263218,49.1570847 2.40816092,49.7939661 L2.40816092,49.7939661 C0.757793103,50.1930847 0.10462069,49.7393898 0.282287356,51.5181017 L0.282287356,51.5181017 C0.39491954,52.6490169 1.20785057,53.8392542 1.56318391,54.9165424 L1.56318391,54.9165424 C1.62397701,55.1016271 1.67722989,55.2829153 1.72058621,55.4580339 L1.72058621,55.4580339 C4.3247931,55.791661 7.0044023,55.5050169 9.47806897,54.6261017 L9.47806897,54.6261017 C12.0747356,53.7049492 14.931069,53.5075254 17.622931,52.8397966 L17.622931,52.8397966 C20.8129195,52.0477288 23.9586092,51.0776949 27.0402069,49.9311186 L27.0402069,49.9311186 C28.2193103,49.4926102 29.4318736,48.9995254 30.2858046,48.0698305 L30.2858046,48.0698305 C30.9521724,47.3423051 31.3428506,46.4064407 31.7127931,45.4890847 L31.7127931,45.4890847 C34.8537701,37.7202712 37.5432759,29.7246102 39.1290805,21.476 L39.1290805,21.476 C40.196023,15.9244068 41.2917126,9.87023729 40.1545517,4.29254237 L40.1545517,4.29254237 C39.9594483,3.33057627 39.7162759,2.35437288 39.1700805,1.54047458 L39.1700805,1.54047458 C38.6417931,0.751254237 37.7708966,0.133830508 36.8297816,0.133830508 L36.8297816,0.133830508 C36.8010345,0.133830508 36.7722874,0.134305085 36.7440115,0.135728814 L36.7440115,0.135728814 Z" id="path-13"></path>
        <path d="M5.97727273,0.5755 C5.49227273,0.7135 5.00818182,0.85 4.52363636,0.988 L4.52363636,0.988 C4.23863636,1.068 3.93272727,1.164 3.74590909,1.424 L3.74590909,1.424 C3.58772727,1.6445 3.54454545,1.9435 3.45409091,2.2115 L3.45409091,2.2115 C3.20318182,2.964 2.58863636,3.463 1.98545455,3.8715 L1.98545455,3.8715 C1.38272727,4.281 0.735454545,4.6695 0.332272727,5.3275 L0.332272727,5.3275 C-0.0713636364,5.9875 -0.121818182,7.0185 0.429545455,7.516 L0.429545455,7.516 C0.909090909,7.949 1.59818182,7.805 2.19,7.633 L2.19,7.633 C3.82272727,7.157 5.44545455,6.6325 7.05409091,6.0575 L7.05409091,6.0575 C7.43318182,5.922 7.81454545,5.7835 8.16272727,5.5665 L8.16272727,5.5665 C9.54772727,4.703 10.1854545,2.533 9.53909091,0.8785 L9.53909091,0.8785 C9.49227273,0.7575 9.43681818,0.635 9.35318182,0.543 L9.35318182,0.543 C9.24,0.416 9.08363636,0.354 8.93181818,0.309 L8.93181818,0.309 C8.64318182,0.224 8.35,0.189 8.055,0.189 L8.055,0.189 C7.36136364,0.189 6.65772727,0.3825 5.97727273,0.5755 L5.97727273,0.5755 Z" id="path-15"></path>
        <path d="M6.7233913,0.751529412 C6.2126087,0.880941176 5.70326087,1.01035294 5.19343478,1.14023529 L5.19343478,1.14023529 C4.89308696,1.216 4.57217391,1.30541176 4.37513043,1.54964706 L4.37513043,1.54964706 C4.20821739,1.75811765 4.16278261,2.03952941 4.06808696,2.29082353 L4.06808696,2.29082353 C3.8036087,3.00047059 3.157,3.46964706 2.52282609,3.85458824 L2.52282609,3.85458824 C1.88817391,4.23905882 1.2076087,4.60517647 0.783391304,5.22494118 L0.783391304,5.22494118 C0.358217391,5.84470588 0.306086957,6.81647059 0.884782609,7.28470588 L0.884782609,7.28470588 C1.38982609,7.69129412 2.11486957,7.55529412 2.73756522,7.39341176 L2.73756522,7.39341176 C4.45595652,6.94682353 6.16286957,6.45270588 7.85591304,5.91105882 L7.85591304,5.91105882 C8.25430435,5.784 8.65556522,5.65317647 9.02191304,5.44894118 L9.02191304,5.44894118 C10.4791739,4.63717647 11.1506522,2.59388235 10.470087,1.03670588 L10.470087,1.03670588 C10.4203478,0.922352941 10.3629565,0.808470588 10.2749565,0.721882353 L10.2749565,0.721882353 C10.1563478,0.602352941 9.99182609,0.544470588 9.8316087,0.502117647 L9.8316087,0.502117647 C9.52743478,0.421647059 9.21847826,0.388705882 8.9076087,0.388705882 L8.9076087,0.388705882 C8.17778261,0.388705882 7.43886957,0.570352941 6.7233913,0.751529412 L6.7233913,0.751529412 Z" id="path-17"></path>
        <path d="M15.6424078,0.413430168 C14.0570097,0.987821229 12.9241165,2.43459218 11.8779029,3.81613408 L11.8779029,3.81613408 C8.24481553,8.60648045 4.55300971,13.5075754 2.53747573,19.2636872 L2.53747573,19.2636872 C0.090407767,26.2558659 0.31176699,33.9270838 0.566213592,41.3758659 L0.566213592,41.3758659 C0.811339806,48.5867263 1.05786408,55.7961788 1.30345631,63.0061006 L1.30345631,63.0061006 C1.52807767,69.6214525 0.782912621,77.2518436 2.58594175,83.6386592 L2.58594175,83.6386592 C4.80978641,83.8775196 7.0872233,83.5208715 9.14982524,82.6132961 L9.14982524,82.6132961 C9.63029126,69.142324 10.3833786,55.6821453 11.4076893,42.2444916 L11.4076893,42.2444916 C11.7753786,37.429743 12.1887379,32.5563352 13.7163495,28.0025028 L13.7163495,28.0025028 C14.3822913,26.0165363 15.2742524,24.0817207 16.608466,22.512 L16.608466,22.512 C19.5136311,19.0966257 24.0689709,17.886838 28.3861748,17.3119777 L28.3861748,17.3119777 C32.7019806,16.7380559 37.1841553,16.5935196 41.1294757,14.6596425 L41.1294757,14.6596425 C43.8533592,13.3240894 46.3423689,10.8327151 47.2734757,7.75991061 L47.2734757,7.75991061 C47.6793786,6.42341899 47.9114563,4.49423464 47.5647379,3.11363128 L47.5647379,3.11363128 C47.0931262,1.23841341 46.7012039,1.48243575 44.6963883,1.33977654 L44.6963883,1.33977654 C36.0694369,0.729251397 27.4210485,0.36227933 18.7787184,0.107463687 L18.7787184,0.107463687 C18.4939806,0.0990167598 18.2073786,0.0915083799 17.9217087,0.0915083799 L17.9217087,0.0915083799 C17.1457864,0.0915083799 16.3721942,0.14922905 15.6424078,0.413430168 L15.6424078,0.413430168 Z" id="path-19"></path>
        <path d="M3.48802041,13.9960894 C2.3727551,15.3142793 1.32508163,16.7389944 0.746795918,18.3927151 L0.746795918,18.3927151 C0.0633673469,20.3477095 0.0807346939,22.482905 0.107959184,24.5650726 L0.107959184,24.5650726 C0.107959184,35.7037542 0.388653061,46.8499441 0.529469388,57.9881564 L0.529469388,57.9881564 C0.636020408,66.4294525 0.430428571,74.749676 0.350632653,83.1642235 L0.350632653,83.1642235 C0.349693878,83.2613631 0.350632653,83.3660112 0.405081633,83.4448492 L0.405081633,83.4448492 C0.485816327,83.5626369 0.647285714,83.5738994 0.78622449,83.5738994 L0.78622449,83.5738994 C1.16877551,83.5729609 1.68885714,83.6227039 2.26385714,83.6715084 L2.26385714,83.6715084 C3.82832653,83.8047821 5.80726531,83.9389944 6.58504082,83.0661453 L6.58504082,83.0661453 C7.6552449,81.8638659 7.22763265,78.3358659 7.33653061,76.8262123 L7.33653061,76.8262123 C7.69889796,71.7988827 8.16406122,66.7846927 8.64987755,61.7709721 L8.64987755,61.7709721 C9.39573469,54.5770056 11.3643469,46.9808715 11.3643469,39.7587486 L11.3643469,39.7587486 C11.6797755,37.0623017 12.037449,34.2438436 13.5244694,32.0185475 L13.5244694,32.0185475 C16.428102,27.6749497 22.2414694,27.2422793 27.1273265,25.8621453 L27.1273265,25.8621453 C30.2234082,24.9864804 33.1608367,23.5875754 36.0067347,22.042257 L36.0067347,22.042257 C39.5492041,20.1172961 43.1555102,17.7615419 44.9495102,14.0284693 L44.9495102,14.0284693 C47.0556531,9.64404469 45.1335102,4.36424581 41.3863878,1.95781006 L41.3863878,1.95781006 C40.4358776,1.34634637 39.3666122,0.921653631 38.2180204,0.742860335 L38.2180204,0.742860335 C36.4165102,0.462703911 34.5995102,0.325206704 32.7820408,0.325206704 L32.7820408,0.325206704 C21.7828776,0.325206704 10.7921633,5.3492514 3.48802041,13.9960894 L3.48802041,13.9960894 Z" id="path-21"></path>
        <path d="M19.6113913,0.345346154 C15.9929217,0.385121795 15.7553217,3.41415385 14.0024348,10.4174744 L14.0024348,10.4174744 C11.8015826,19.21725 9.56175652,28.0067308 7.34212174,36.801359 L7.34212174,36.801359 C4.85812174,46.6975385 3.40904348,56.3003141 0.434817391,66.1220897 L0.434817391,66.1220897 C0.288313043,66.6050128 0.211773913,67.2638846 0.664904348,67.4880321 L0.664904348,67.4880321 C0.941008696,67.6265449 1.27158261,67.5086218 1.55801739,67.3944423 L1.55801739,67.3944423 C9.22038261,64.340609 18.0303652,64.2596538 25.7467304,67.1707628 L25.7467304,67.1707628 C27.8170435,67.9508333 29.8018957,68.9349295 31.8534261,69.760859 L31.8534261,69.760859 C36.280487,71.5446795 41.004313,72.5779103 45.773687,72.826859 L45.773687,72.826859 C52.2513391,73.1651859 52.6161913,71.6827244 53.3130261,65.4019167 L53.3130261,65.4019167 C54.4756696,54.8917885 52.0405043,44.3367372 49.6748348,34.1607244 L49.6748348,34.1607244 C48.2173043,27.8939551 46.702487,21.6337372 45.6389217,15.3229808 L45.6389217,15.3229808 C44.9801217,11.4165449 44.5781739,3.49136538 40.9489043,0.932621795 L40.9489043,0.932621795 C39.4462957,-0.126346154 36.7899652,0.561070513 33.9307826,1.24801923 L33.9307826,1.24801923 C31.3223478,1.87460256 28.5448696,2.5011859 26.3186609,1.80300641 L26.3186609,1.80300641 C23.2946609,0.854474359 21.1989913,0.344878205 19.685113,0.344878205 L19.685113,0.344878205 C19.6602261,0.344878205 19.6358087,0.344878205 19.6113913,0.345346154 L19.6113913,0.345346154 Z" id="path-23"></path>
        <path d="M12.5532407,0.281818182 C10.7041667,0.281818182 8.83240741,0.529348485 7.01157407,0.879272727 L7.01157407,0.879272727 C4.66944444,1.32783333 2.06111111,2.17093939 0.918055556,4.5884697 L0.918055556,4.5884697 C0.330092593,5.83175758 0.241203704,7.29251515 0.174537037,8.70019697 L0.174537037,8.70019697 C-0.025,12.8870758 0.062037037,19.4872576 2.24074074,22.8005 L2.24074074,22.8005 C4.62777778,26.4317273 7.39861111,30.5584848 11.362037,30.8144697 L11.362037,30.8144697 C12.7796296,30.9051212 14.4759259,30.3884545 15.8708333,30.0483939 L15.8708333,30.0483939 C25.7759259,27.6327424 28.2111111,6.26387879 19.2319444,1.72660606 L19.2319444,1.72660606 C17.1351852,0.668378788 14.8638889,0.281818182 12.5569444,0.281818182 L12.5569444,0.281818182 C12.5555556,0.281818182 12.5541667,0.281818182 12.5532407,0.281818182 L12.5532407,0.281818182 Z" id="path-25"></path>
        <path d="M6.96894118,0.449538462 C5.58117647,0.603692308 4.19341176,0.759692308 2.80517647,0.915230769 L2.80517647,0.915230769 C2.64658824,1.09615385 2.58635294,1.35738462 2.65082353,1.58861538 L2.65082353,1.58861538 C2.93741176,1.37446154 3.33552941,1.82630769 3.20423529,2.15446154 L3.20423529,2.15446154 C3.07341176,2.484 2.69129412,2.63215385 2.34823529,2.73738462 L2.34823529,2.73738462 C1.84517647,2.89061538 1.32611765,3.03230769 0.895058824,3.32676923 L0.895058824,3.32676923 C0.462588235,3.62307692 0.126588235,4.11184615 0.178352941,4.62646154 L0.178352941,4.62646154 C0.266352941,5.51492308 1.37364706,5.92661538 2.28376471,5.90030769 L2.28376471,5.90030769 C3.83482353,5.85553846 5.27247059,5.13784615 6.65035294,4.43723077 L6.65035294,4.43723077 C7.00705882,4.25492308 7.38258824,4.05692308 7.58964706,3.71861538 L7.58964706,3.71861538 C7.80517647,3.36553846 7.79811765,2.92707692 7.78352941,2.51538462 L7.78352941,2.51538462 C7.76470588,2.00492308 7.74729412,1.49492308 7.72941176,0.985384615 L7.72941176,0.985384615 C7.72423529,0.854307692 7.71858824,0.714923077 7.63905882,0.608307692 L7.63905882,0.608307692 C7.54070588,0.471230769 7.36658824,0.435230769 7.18823529,0.435230769 L7.18823529,0.435230769 C7.11388235,0.435230769 7.03952941,0.441692308 6.96894118,0.449538462 L6.96894118,0.449538462 Z" id="path-27"></path>
        <path d="M36.6780345,0.135728814 C36.0653908,0.159457627 35.4932759,0.438983051 34.9692299,0.757423729 L34.9692299,0.757423729 C32.3263793,2.36576271 30.5002299,5.08176271 29.3484598,7.96623729 L29.3484598,7.96623729 C28.1981034,10.851661 27.6523793,13.9378305 27.0354943,16.9846102 L27.0354943,16.9846102 C25.8691149,22.7364746 24.4242184,28.4328136 22.7083448,34.0437288 L22.7083448,34.0437288 C21.2281034,38.8858305 19.1474713,41.8282034 14.5743218,44.1892203 L14.5743218,44.1892203 C12.9795632,45.011661 11.3843333,45.8355254 9.78816092,46.6593898 L9.78816092,46.6593898 C7.40167816,47.8909153 4.96712644,49.1570847 2.34218391,49.7939661 L2.34218391,49.7939661 C0.691816092,50.1930847 0.0391149425,49.7393898 0.21583908,51.5181017 L0.21583908,51.5181017 C0.328942529,52.6490169 1.14234483,53.8392542 1.4972069,54.9165424 L1.4972069,54.9165424 C1.55847126,55.1016271 1.61125287,55.2829153 1.65508046,55.4580339 L1.65508046,55.4580339 C4.2574023,55.791661 6.93748276,55.5050169 9.41256322,54.6261017 L9.41256322,54.6261017 C12.0087586,53.7049492 14.8646207,53.5075254 17.556954,52.8397966 L17.556954,52.8397966 C20.7469425,52.0477288 23.8926322,51.0776949 26.9747011,49.9311186 L26.9747011,49.9311186 C28.1538046,49.4926102 29.3663678,48.9995254 30.2193563,48.0698305 L30.2193563,48.0698305 C30.8866667,47.3423051 31.2768736,46.4064407 31.6468161,45.4890847 L31.6468161,45.4890847 C34.7877931,37.7202712 37.4777701,29.7246102 39.0631034,21.476 L39.0631034,21.476 C40.130046,15.9244068 41.2243218,9.87023729 40.089046,4.29254237 L40.089046,4.29254237 C39.8934713,3.33057627 39.6507701,2.35437288 39.1045747,1.54047458 L39.1045747,1.54047458 C38.5758161,0.751254237 37.7049195,0.133830508 36.7638046,0.133830508 L36.7638046,0.133830508 C36.7355287,0.133830508 36.7063103,0.134305085 36.6780345,0.135728814 L36.6780345,0.135728814 Z" id="path-29"></path>
        <path d="M46.4738102,0.789176471 C45.7380438,0.868235294 44.9929343,0.958117647 44.315562,1.19858824 L44.315562,1.19858824 C43.2200876,1.58635294 42.395562,2.33317647 41.7237956,3.12 L41.7237956,3.12 C41.6892263,3.16094118 41.6541898,3.20376471 41.6191533,3.24611765 L41.6191533,3.24611765 C40.8231241,3.28470588 40.0289635,3.34776471 39.2422774,3.42729412 L39.2422774,3.42729412 C35.8007591,3.77505882 32.4311825,3.68564706 28.9621022,3.66494118 L28.9621022,3.66494118 C21.5708029,3.61929412 14.180438,3.61223529 6.78913869,3.58729412 L6.78913869,3.58729412 C6.20145985,3.58494118 5.61518248,3.58352941 5.02750365,3.58117647 L5.02750365,3.58117647 C3.89045255,3.57694118 2.65249635,3.34258824 1.55515328,3.37364706 L1.55515328,3.37364706 C1.11929927,3.38635294 0.817518248,3.576 0.620846715,3.87152941 L0.620846715,3.87152941 C0.320467153,4.32376471 0.267211679,5.02211765 0.355970803,5.71341176 L0.355970803,5.71341176 C0.41529927,6.16658824 0.625518248,6.61647059 0.994569343,6.85741176 L0.994569343,6.85741176 C1.2300146,7.00941176 1.5079708,7.06635294 1.77985401,7.12141176 L1.77985401,7.12141176 C4.5799708,7.68423529 7.48519708,7.54117647 10.337635,7.60282353 L10.337635,7.60282353 C11.7021898,7.632 13.0592701,7.62776471 14.4196204,7.62352941 L14.4196204,7.62352941 C15.4314745,7.61976471 16.4451971,7.61694118 17.4645255,7.62729412 L17.4645255,7.62729412 C27.8586861,7.73788235 38.2640584,7.73223529 48.6432701,7.56752941 L48.6432701,7.56752941 C48.7572555,7.56517647 48.8745109,7.56188235 48.9898978,7.55247059 L48.9898978,7.55247059 C49.1501314,7.57223529 49.3108321,7.58776471 49.4734015,7.59764706 L49.4734015,7.59764706 C50.5571971,7.65647059 51.6335182,7.43435294 52.6677956,7.17082353 L52.6677956,7.17082353 C56.4624818,6.20517647 60.0179854,4.65458824 63.0769051,2.63576471 L63.0769051,2.63576471 C63.3604672,2.448 63.6538394,2.24047059 63.7626861,1.96141176 L63.7626861,1.96141176 C63.9392701,1.51670588 63.5716204,1.02870588 63.0661606,0.789176471 L63.0661606,0.789176471 C62.5607007,0.550117647 61.9515328,0.500705882 61.3643212,0.464941176 L61.3643212,0.464941176 C59.5242044,0.349176471 57.6775474,0.291294118 55.8318248,0.291294118 L55.8318248,0.291294118 C52.702365,0.291294118 49.5738394,0.457411765 46.4738102,0.789176471 L46.4738102,0.789176471 Z" id="path-31"></path>
        <path d="M3.50482759,0.568 C3.0602069,0.604444444 2.61075862,0.644444444 2.20137931,0.753333333 L2.20137931,0.753333333 C1.53903448,0.929777778 1.04034483,1.26755556 0.635310345,1.62311111 L0.635310345,1.62311111 C0.266482759,1.94711111 -0.0516551724,2.35555556 0.200344828,2.716 L0.200344828,2.716 C0.406965517,3.01288889 0.947172414,3.18266667 1.47772414,3.24711111 L1.47772414,3.24711111 C2.00827586,3.31155556 2.55862069,3.29555556 3.09448276,3.34577778 L3.09448276,3.34577778 C3.84613793,3.41644444 4.55772414,3.616 5.31710345,3.64755556 L5.31710345,3.64755556 C5.9722069,3.67422222 6.622,3.57288889 7.24717241,3.45466667 L7.24717241,3.45466667 C9.54027586,3.01777778 11.6875862,2.31688889 13.5355862,1.40311111 L13.5355862,1.40311111 C13.7084138,1.31955556 13.8846207,1.22533333 13.9507586,1.09911111 L13.9507586,1.09911111 C14.0569655,0.898222222 13.8344138,0.676888889 13.5297931,0.569333333 L13.5297931,0.569333333 C13.2242069,0.460444444 12.8568276,0.438222222 12.5005517,0.422666667 L12.5005517,0.422666667 C11.3873103,0.370222222 10.2692414,0.343555556 9.15165517,0.343555556 L9.15165517,0.343555556 C7.26406897,0.343555556 5.376,0.418666667 3.50482759,0.568 L3.50482759,0.568 Z" id="path-33"></path>
        <path d="M16.6615495,0.379324324 C15.592973,0.438918919 14.5258018,0.379324324 13.4605045,0.31972973 L13.4605045,0.31972973 C12.0363604,0.24027027 10.615964,0.160810811 9.20025225,0.365135135 L9.20025225,0.365135135 C7.48331532,0.613918919 3.41981982,0.719391892 2.11981982,1.89 L2.11981982,1.89 C1.05733333,2.84871622 0.379927928,6.69256757 0.405225225,8.04527027 L0.405225225,8.04527027 C0.450666667,10.4711486 0.509225225,12.8951351 0.577621622,15.3200676 L0.577621622,15.3200676 C0.735027027,20.790473 0.111495495,26.2637162 0.391171171,31.7284459 L0.391171171,31.7284459 C0.424900901,32.3830405 0.468468468,33.0697973 0.826378378,33.6293243 L0.826378378,33.6293243 C1.5674955,34.7862162 3.66951351,34.4456757 5.1034955,34.4456757 L5.1034955,34.4456757 C15.9096577,34.4504054 26.9481802,34.8169595 37.7402883,34.2541216 L37.7402883,34.2541216 C38.7540541,34.2016216 39.7809369,34.2096622 40.8073514,34.2172297 L40.8073514,34.2172297 C43.0958198,34.2342568 45.3856937,34.2517568 47.5434595,33.5981081 L47.5434595,33.5981081 C48.5464505,33.2944595 49.5588108,32.8914865 50.2718198,32.1597973 L50.2718198,32.1597973 C51.4884324,30.9116216 51.665045,28.0454054 51.6388108,26.3564189 L51.6388108,26.3564189 C51.5184144,18.3887162 52.1948829,11.4189865 51.4617297,3.48581081 L51.4617297,3.48581081 C51.4106667,2.92297297 51.3516396,2.3397973 51.0443243,1.85783784 L51.0443243,1.85783784 C50.2718198,0.6475 47.037982,0.518378378 45.5356036,0.524054054 L45.5356036,0.524054054 C41.0743784,0.5425 37.2961802,0.446013514 33.7751712,0.349527027 L33.7751712,0.349527027 C30.5446126,0.260608108 27.530018,0.171689189 24.4025225,0.171689189 L24.4025225,0.171689189 C21.9449369,0.171689189 19.4184865,0.226554054 16.6615495,0.379324324 L16.6615495,0.379324324 Z" id="path-35"></path>
        <path d="M0.397285714,2.00355556 C0.348,2.90311111 0.818142857,3.65244444 1.44771429,3.67688889 L1.44771429,3.67688889 C2.07642857,3.70133333 2.62714286,2.99111111 2.676,2.09155556 L2.676,2.09155556 C2.72614286,1.19155556 2.25557143,0.442666667 1.62642857,0.418666667 L1.62642857,0.418666667 C1.61614286,0.418222222 1.60542857,0.417777778 1.59471429,0.417777778 L1.59471429,0.417777778 C0.978857143,0.417777778 0.445714286,1.11866667 0.397285714,2.00355556 L0.397285714,2.00355556 Z" id="path-37"></path>
        <path d="M0.024,2.00355556 C-0.0335,2.90311111 0.5145,3.65244444 1.249,3.67688889 L1.249,3.67688889 C1.983,3.70133333 2.625,2.99111111 2.683,2.09155556 L2.683,2.09155556 C2.7405,1.19155556 2.192,0.442666667 1.458,0.418666667 L1.458,0.418666667 C1.446,0.418222222 1.433,0.417777778 1.421,0.417777778 L1.421,0.417777778 C0.7025,0.417777778 0.081,1.11866667 0.024,2.00355556 L0.024,2.00355556 Z" id="path-39"></path>
    </defs>
    <g id="desktop" stroke="none" stroke-width="1" fill="none" fill-rule="evenodd">
        <g id="register" transform="translate(-65.000000, -150.000000)">
            <g id="video-teacher" transform="translate(65.000000, 150.000000)">
                <g id="Group-3" transform="translate(0.000000, 72.000000)">
                    <mask id="mask-2" fill="white">
                        <use xlink:href="#path-1"></use>
                    </mask>
                    <g id="Clip-2"></g>
                    <polygon id="Fill-1" fill="#E8EFFF" mask="url(#mask-2)" points="-4.97051113 349.957725 469.895207 349.957725 469.895207 -5.13635246 -4.97051113 -5.13635246"></polygon>
                </g>
                <g id="Group-6" transform="translate(57.000000, 121.000000)">
                    <mask id="mask-4" fill="white">
                        <use xlink:href="#path-3"></use>
                    </mask>
                    <g id="Clip-5"></g>
                    <polygon id="Fill-4" fill="#FFFFFF" mask="url(#mask-4)" points="-4.84307796 255.89309 354.76922 255.89309 354.76922 -4.87804869 -4.84307796 -4.87804869"></polygon>
                </g>
                <g id="Group-9" transform="translate(57.000000, 121.000000)">
                    <mask id="mask-6" fill="white">
                        <use xlink:href="#path-5"></use>
                    </mask>
                    <g id="Clip-8"></g>
                    <polygon id="Fill-7" fill="#B4C8F4" mask="url(#mask-6)" points="-4.84307796 256.02235 354.76922 256.02235 354.76922 -4.87804869 -4.84307796 -4.87804869"></polygon>
                </g>
                <g id="Group-12" transform="translate(83.000000, 352.000000)">
                    <mask id="mask-8" fill="white">
                        <use xlink:href="#path-7"></use>
                    </mask>
                    <g id="Clip-11"></g>
                    <polygon id="Fill-10" fill="#A7AABC" mask="url(#mask-8)" points="-4.8037224 11.3965 302.730397 11.3965 302.730397 -5.057 -4.8037224 -5.057"></polygon>
                </g>
                <g id="Group-15" transform="translate(83.000000, 352.000000)">
                    <mask id="mask-10" fill="white">
                        <use xlink:href="#path-9"></use>
                    </mask>
                    <g id="Clip-14"></g>
                    <polygon id="Fill-13" fill="#0E69FF" mask="url(#mask-10)" points="-4.81076577 11.4285 213.993405 11.4285 213.993405 -5.0575 -4.81076577 -5.0575"></polygon>
                </g>
                <g id="Group-18" transform="translate(188.000000, 202.000000)">
                    <mask id="mask-12" fill="white">
                        <use xlink:href="#path-11"></use>
                    </mask>
                    <g id="Clip-17"></g>
                    <polygon id="Fill-16" fill="#0E69FF" mask="url(#mask-12)" points="-5.02100526 93.9816579 93.8575263 93.9816579 93.8575263 -4.94043684 -5.02100526 -4.94043684"></polygon>
                </g>
                <polygon id="Fill-19" fill="#997659" points="71 42 80 42 80 33 71 33"></polygon>
                <g id="Group-22" transform="translate(28.000000, 37.000000)">
                    <mask id="mask-14" fill="white">
                        <use xlink:href="#path-13"></use>
                    </mask>
                    <g id="Clip-21"></g>
                    <polygon id="Fill-20" fill="#00B272" mask="url(#mask-14)" points="-4.93696552 60.8207458 45.8271609 60.8207458 45.8271609 -5.09362712 -4.93696552 -5.09362712"></polygon>
                </g>
                <polygon id="Fill-23" fill="#997659" points="39 190 44 190 44 184 39 184"></polygon>
                <polygon id="Fill-24" fill="#997659" points="54 189 59 189 59 185 54 185"></polygon>
                <g id="Group-27" transform="translate(35.000000, 187.000000)">
                    <mask id="mask-16" fill="white">
                        <use xlink:href="#path-15"></use>
                    </mask>
                    <g id="Clip-26"></g>
                    <polygon id="Fill-25" fill="#090F0C" mask="url(#mask-16)" points="-4.98409091 13.309 14.7986364 13.309 14.7986364 -5.318 -4.98409091 -5.318"></polygon>
                </g>
                <g id="Group-30" transform="translate(50.000000, 188.000000)">
                    <mask id="mask-18" fill="white">
                        <use xlink:href="#path-17"></use>
                    </mask>
                    <g id="Clip-29"></g>
                    <polygon id="Fill-28" fill="#090F0C" mask="url(#mask-18)" points="-4.81034783 12.7355294 16.0045217 12.7355294 16.0045217 -4.79435294 -4.81034783 -4.79435294"></polygon>
                </g>
                <g id="Group-33" transform="translate(36.000000, 102.000000)">
                    <mask id="mask-20" fill="white">
                        <use xlink:href="#path-19"></use>
                    </mask>
                    <g id="Clip-32"></g>
                    <polygon id="Fill-31" fill="#273049" mask="url(#mask-20)" points="-4.7161165 88.8799777 52.8666408 88.8799777 52.8666408 -5.0775419 -4.7161165 -5.0775419"></polygon>
                </g>
                <g id="Group-36" transform="translate(54.000000, 102.000000)">
                    <mask id="mask-22" fill="white">
                        <use xlink:href="#path-21"></use>
                    </mask>
                    <g id="Clip-35"></g>
                    <polygon id="Fill-34" fill="#3D4564" mask="url(#mask-22)" points="-5.07173469 88.9376983 50.9900612 88.9376983 50.9900612 -4.84384358 -5.07173469 -4.84384358"></polygon>
                </g>
                <g id="Group-39" transform="translate(47.000000, 37.000000)">
                    <mask id="mask-24" fill="white">
                        <use xlink:href="#path-23"></use>
                    </mask>
                    <g id="Clip-38"></g>
                    <polygon id="Fill-37" fill="#006E41" mask="url(#mask-24)" points="-4.85107826 78.0262372 58.7848696 78.0262372 58.7848696 -4.81004487 -4.85107826 -4.81004487"></polygon>
                </g>
                <g id="Group-42" transform="translate(62.000000, 5.000000)">
                    <mask id="mask-26" fill="white">
                        <use xlink:href="#path-25"></use>
                    </mask>
                    <g id="Clip-41"></g>
                    <polygon id="Fill-40" fill="#997659" mask="url(#mask-26)" points="-6.06990741 36.5663788 30.9717593 36.5663788 30.9717593 -5.46069697 -6.06990741 -5.46069697"></polygon>
                </g>
                <g id="Group-45" transform="translate(46.000000, 87.000000)">
                    <mask id="mask-28" fill="white">
                        <use xlink:href="#path-27"></use>
                    </mask>
                    <g id="Clip-44"></g>
                    <polygon id="Fill-43" fill="#FFE9DD" mask="url(#mask-28)" points="-5.01035294 10.9855385 12.9731765 10.9855385 12.9731765 -4.64861538 -5.01035294 -4.64861538"></polygon>
                </g>
                <g id="Group-48" transform="translate(51.000000, 37.000000)">
                    <mask id="mask-30" fill="white">
                        <use xlink:href="#path-29"></use>
                    </mask>
                    <g id="Clip-47"></g>
                    <polygon id="Fill-46" fill="#00B272" mask="url(#mask-30)" points="-5.00294253 60.8207458 45.7607126 60.8207458 45.7607126 -5.09362712 -5.00294253 -5.09362712"></polygon>
                </g>
                <g id="Group-51" transform="translate(12.000000, 101.000000)">
                    <mask id="mask-32" fill="white">
                        <use xlink:href="#path-31"></use>
                    </mask>
                    <g id="Clip-50"></g>
                    <polygon id="Fill-49" fill="#6471A9" mask="url(#mask-32)" points="-4.82849635 12.8856471 68.9527591 12.8856471 68.9527591 -4.89223529 -4.82849635 -4.89223529"></polygon>
                </g>
                <g id="Group-54" transform="translate(56.000000, 102.000000)">
                    <mask id="mask-34" fill="white">
                        <use xlink:href="#path-33"></use>
                    </mask>
                    <g id="Clip-53"></g>
                    <polygon id="Fill-52" fill="#3D4564" mask="url(#mask-34)" points="-5.20703448 8.54711111 19.2953793 8.54711111 19.2953793 -4.552 -5.20703448 -4.552"></polygon>
                </g>
                <g id="Group-57" transform="translate(11.000000, 71.000000)">
                    <mask id="mask-36" fill="white">
                        <use xlink:href="#path-35"></use>
                    </mask>
                    <g id="Clip-56"></g>
                    <polygon id="Fill-55" fill="#A3A9CE" mask="url(#mask-36)" points="-4.84255856 39.777027 56.9681081 39.777027 56.9681081 -5.03810811 -4.84255856 -5.03810811"></polygon>
                </g>
                <g id="Group-60" transform="translate(77.000000, 18.000000)">
                    <mask id="mask-38" fill="white">
                        <use xlink:href="#path-37"></use>
                    </mask>
                    <g id="Clip-59"></g>
                    <polygon id="Fill-58" fill="#141828" mask="url(#mask-38)" points="-5.32114286 9.11022222 8.39485714 9.11022222 8.39485714 -5.01511111 -5.32114286 -5.01511111"></polygon>
                </g>
                <g id="Group-63" transform="translate(68.000000, 18.000000)">
                    <mask id="mask-40" fill="white">
                        <use xlink:href="#path-39"></use>
                    </mask>
                    <g id="Clip-62"></g>
                    <polygon id="Fill-61" fill="#141828" mask="url(#mask-40)" points="-6.6475 9.11022222 9.354 9.11022222 9.354 -5.01511111 -6.6475 -5.01511111"></polygon>
                </g>
                <g id="Group-78" transform="translate(61.000000, 0.000000)">
                    <path d="M12.3016429,21.1671584 C12.3016429,21.1671584 7.68153571,28.6603013 14.4833214,26.4867429" id="Stroke-64" stroke="#3D2216"></path>
                    <path d="M3.10279692,9.62812987 C2.94580534,9.93857143 3.8482719,6.82527273 5.82852794,6.77197403 C7.90091078,6.7154026 20.7822108,7.43025974 21.4421395,6.64387013 C23.6249804,9.16293506 25.218398,19.1512987 25.3424871,19.1288571 C25.6329685,19.0774286 25.666811,18.0984156 25.6954831,17.888961 C25.9041785,16.4157662 25.9601127,14.9047013 25.9587025,13.4221558 C25.9554123,10.6838182 26.8282667,5.41192208 21.3946659,2.12657143 C18.0531895,0.105896104 11.14509,-0.0951428571 7.29973644,1.04890909 C4.62100889,1.84605195 2.05367955,3.9218961 1.09856911,6.34044156 C0.0508618377,8.99602597 0.0771837789,11.0709351 0.422659258,16.3306753 C0.459791996,16.9015325 0.533587439,17.4723896 0.620543852,18.0381039 C0.677888081,18.4144675 0.731472033,18.8001818 0.831589417,19.1685974 C1.37588956,21.171974 1.42806341,11.9947792 3.10279692,9.62812987" id="Fill-66" fill="#141828"></path>
                    <path d="M24.1608929,4.57223377 C23.7453571,8.41114286 18.3536071,11.3837143 14.3496071,11.3837143 L15.51775,10.3654286 C11.0160357,11.6305714 8.50378571,10.7684416 8.51167857,10.7698442 C8.67371429,10.7997662 10.3767143,10.0662078 10.3767143,10.0662078 C7.81757143,10.1377403 5.23196429,10.1723377 3.25085714,8.45976623 L6.11132143,3.76387013 L24.1608929,4.57223377 Z" id="Fill-68" fill="#141828"></path>
                    <path d="M4.81099643,15.4140779 C4.467425,14.9563636 6.07246071,14.6131948 7.72113929,14.5051948 C10.4859607,14.3242597 12.0701036,15.4641039 10.7376036,15.5066494 C9.74171071,15.5384416 4.91174643,15.5482597 4.81099643,15.4140779" id="Fill-70" fill="#141828"></path>
                    <path d="M21.3402643,16.0000831 C21.7033357,15.5549922 20.1131571,15.1543169 18.4705143,14.9869403 C15.7159071,14.7064208 14.0848714,15.7887584 15.4145857,15.8789922 C16.4081571,15.9467844 21.2339429,16.1305247 21.3402643,16.0000831" id="Fill-72" fill="#141828"></path>
                    <path d="M18.1678,29.2519636 C17.3873357,31.2894701 9.53022857,32.3367429 7.99065714,28.7376779 C11.4941571,30.3352364 15.4299071,29.5343532 18.1678,29.2519636" id="Fill-74" fill="#141828"></path>
                    <path d="M10.2291643,34.5756156 C10.2291643,34.5756156 16.4204143,35.2956156 18.89645,34.0487065 C18.3044857,35.2956156 10.2291643,35.956239 10.2291643,35.956239 L10.2291643,34.5756156 Z" id="Fill-76" fill="#784931"></path>
                </g>
            </g>
        </g>
    </g>
</svg>
