<svg viewBox="0 0 458 412" xmlns="http://www.w3.org/2000/svg" xmlns:xlink="http://www.w3.org/1999/xlink"><defs><path d="M109.548 3.774c-27.352 5.18-61.899 19.39-80.93 40.636C7.91 67.527 8.902 114.251 7.457 143.12L.466 282.794c-.37 7.396-.706 15.031 1.856 21.98 3.026 8.202 9.805 14.52 17.26 19.07 14.758 9.01 32.345 12.051 49.561 13.56 19.141 1.68 38.386 1.681 57.6 1.64 88.412-.19 177.37-1.327 264.241-17.791 13.867-2.629 28.543-6.118 38.3-16.335 5.762-6.032 9.205-13.83 11.864-21.795.401-1.204.785-2.41 1.155-3.615 12.578-40.845 13.78-84.205 14.883-126.935.565-21.901-7.718-35.341-13.813-55.02-6.714-21.685-19.027-41.305-33.332-58.748-8.364-10.201-17.92-20.093-30.227-24.808-8.12-3.11-16.936-3.769-25.607-4.396C292.068 5.111 229.878.618 167.58.092a964.693 964.693 0 00-7.943-.037c-16.79 0-33.61.6-50.088 3.72z" id="a"/><path d="M12.769.299C5.904.299.339 5.522.339 11.966V239.05c0 6.443 5.565 11.666 12.43 11.666h324.387c6.865 0 12.431-5.223 12.431-11.666V11.966c0-6.444-5.566-11.667-12.431-11.667H12.769z" id="c"/><path d="M.339 13.778v225.483c0 6.399 5.566 11.584 12.43 11.584h324.388c6.866 0 12.43-5.185 12.43-11.584 0 0-218.847-13.821-335.694-238.962C3.467.299.339 5.967.339 13.779z" id="e"/><path d="M2.493.45C1.323.45.373 1.668.373 3.17c0 1.502.95 2.719 2.12 2.719h292.94c1.171 0 2.12-1.217 2.12-2.719 0-1.502-.949-2.72-2.12-2.72H2.494z" id="g"/><path d="M2.499.45C1.325.45.374 1.675.374 3.185c0 1.51.951 2.736 2.125 2.736h206.31V.45H2.498z" id="i"/><path d="M.138 44.522c0 24.453 19.836 44.3 44.28 44.3 24.443 0 44.28-19.847 44.28-44.3C88.698 20.068 68.86.22 44.418.22 19.974.22.138 20.068.138 44.522zM34.951 29.55l30.843 16.232-30.843 16.23V29.55z" id="k"/><path d="M36.744.136c-.613.023-1.185.303-1.709.621-2.642 1.609-4.469 4.325-5.62 7.21-1.151 2.885-1.697 5.97-2.314 9.018a182.25 182.25 0 01-4.326 17.059c-1.48 4.842-3.562 7.784-8.135 10.145l-4.785 2.47c-2.388 1.232-4.822 2.498-7.447 3.135-1.65.4-2.303-.055-2.126 1.724.113 1.131.926 2.321 1.281 3.399.061.185.114.366.158.541 2.604.334 5.283.047 7.757-.832 2.597-.921 5.453-1.118 8.145-1.786a87.421 87.421 0 009.417-2.909c1.18-.438 2.392-.931 3.246-1.861.666-.728 1.057-1.664 1.427-2.58 3.14-7.77 5.83-15.765 7.416-24.014 1.067-5.552 2.163-11.606 1.026-17.183-.196-.962-.439-1.939-.985-2.753-.528-.789-1.4-1.406-2.34-1.406-.029 0-.058 0-.086.002z" id="m"/><path d="M5.977.576L4.524.988c-.285.08-.591.176-.778.436-.158.22-.201.52-.292.788-.25.752-.865 1.251-1.469 1.66-.602.409-1.25.798-1.653 1.455-.403.66-.454 1.692.098 2.189.48.433 1.168.289 1.76.117a85.78 85.78 0 004.864-1.575c.38-.136.76-.274 1.109-.492 1.385-.863 2.022-3.033 1.376-4.688a1.069 1.069 0 00-.186-.335C9.24.416 9.083.354 8.932.309a3.084 3.084 0 00-.877-.12c-.694 0-1.397.194-2.078.387z" id="o"/><path d="M6.723.752l-1.53.388c-.3.076-.62.165-.818.41-.167.208-.212.49-.307.74-.264.71-.911 1.18-1.545 1.565-.635.384-1.315.75-1.74 1.37-.425.62-.477 1.591.102 2.06.505.406 1.23.27 1.853.108a96.248 96.248 0 005.118-1.482c.398-.127.8-.258 1.166-.462 1.457-.812 2.129-2.855 1.448-4.412a.979.979 0 00-.195-.315c-.119-.12-.283-.178-.443-.22A3.595 3.595 0 008.908.39c-.73 0-1.47.181-2.185.363z" id="q"/><path d="M15.642.413c-1.585.575-2.718 2.022-3.764 3.403-3.633 4.79-7.325 9.692-9.34 15.448C.09 26.256.311 33.927.565 41.376l.737 21.63c.225 6.615-.52 14.246 1.283 20.633a12.926 12.926 0 006.564-1.026c.48-13.47 1.233-26.93 2.258-40.369.367-4.814.78-9.688 2.308-14.241.666-1.986 1.558-3.921 2.892-5.491 2.906-3.415 7.461-4.625 11.778-5.2 4.316-.574 8.798-.718 12.743-2.652 2.724-1.336 5.213-3.827 6.144-6.9.406-1.337.638-3.266.292-4.646-.472-1.876-.864-1.632-2.869-1.774C36.07.73 27.421.362 18.78.107a28.94 28.94 0 00-.857-.015c-.776 0-1.55.057-2.28.321z" id="s"/><path d="M3.488 13.996C2.373 15.314 1.325 16.74.747 18.393c-.684 1.955-.666 4.09-.639 6.172 0 11.139.28 22.285.421 33.423C.636 66.43.43 74.75.351 83.164c-.001.097 0 .202.054.28.08.119.242.13.381.13.383-.001.903.049 1.478.098 1.564.133 3.543.267 4.321-.606 1.07-1.202.643-4.73.752-6.24.362-5.027.827-10.041 1.313-15.055.746-7.194 2.714-14.79 2.714-22.012.316-2.697.673-5.515 2.16-7.74 2.904-4.344 8.717-4.777 13.603-6.157 3.096-.876 6.034-2.274 8.88-3.82 3.542-1.925 7.149-4.28 8.943-8.014 2.106-4.384.184-9.664-3.564-12.07A8.17 8.17 0 0038.218.743a35.369 35.369 0 00-5.436-.418c-11 0-21.99 5.024-29.294 13.671z" id="u"/><path d="M19.611.345c-3.618.04-3.856 3.07-5.609 10.072-2.2 8.8-4.44 17.59-6.66 26.384-2.484 9.897-3.933 19.5-6.907 29.321-.147.483-.223 1.142.23 1.366.276.139.607.02.893-.094 7.662-3.053 16.472-3.134 24.189-.223 2.07.78 4.055 1.764 6.106 2.59a43.361 43.361 0 0013.92 3.066c6.478.338 6.843-1.144 7.54-7.425 1.163-10.51-1.272-21.065-3.638-31.241-1.458-6.267-2.973-12.527-4.036-18.838-.659-3.906-1.06-11.832-4.69-14.39-1.503-1.06-4.159-.372-7.018.315-2.609.627-5.386 1.253-7.612.555C23.295.854 21.199.345 19.685.345h-.074z" id="w"/><path d="M12.553.282c-1.849 0-3.72.247-5.541.597-2.343.449-4.95 1.292-6.094 3.71C.33 5.831.241 7.292.175 8.7c-.2 4.187-.113 10.787 2.066 14.1 2.387 3.632 5.158 7.758 9.121 8.014 1.418.091 3.114-.426 4.509-.766 9.905-2.415 12.34-23.784 3.36-28.321C17.136.668 14.865.282 12.558.282h-.004z" id="y"/><path d="M6.969.45L2.805.915a.739.739 0 00-.154.674c.286-.215.685.237.553.565-.13.33-.513.478-.856.583-.503.154-1.022.295-1.453.59-.432.296-.768.785-.717 1.3.088.888 1.196 1.3 2.106 1.273 1.55-.044 2.988-.762 4.366-1.463.357-.182.733-.38.94-.718.215-.353.208-.792.194-1.204-.02-.51-.037-1.02-.055-1.53-.005-.13-.01-.27-.09-.377-.098-.137-.272-.173-.45-.173-.075 0-.15.007-.22.015z" id="A"/><path d="M36.678.136c-.613.023-1.185.303-1.709.621-2.643 1.609-4.469 4.325-5.62 7.21-1.15 2.885-1.697 5.97-2.314 9.018a182.108 182.108 0 01-4.327 17.059c-1.48 4.842-3.56 7.784-8.134 10.145l-4.786 2.47c-2.386 1.232-4.82 2.498-7.446 3.135-1.65.4-2.303-.055-2.126 1.724.113 1.131.926 2.321 1.281 3.399.061.185.114.366.158.541a16.87 16.87 0 007.758-.832c2.596-.921 5.452-1.118 8.144-1.786a87.462 87.462 0 009.418-2.909c1.179-.438 2.391-.931 3.244-1.861.668-.728 1.058-1.664 1.428-2.58 3.14-7.77 5.83-15.765 7.416-24.014C40.13 15.924 41.224 9.87 40.09 4.293c-.196-.962-.438-1.939-.984-2.753-.53-.789-1.4-1.406-2.341-1.406-.028 0-.058 0-.086.002z" id="C"/><path d="M46.474.79c-.736.078-1.481.168-2.158.409-1.096.387-1.92 1.134-2.592 1.921-.035.04-.07.084-.105.126-.796.039-1.59.102-2.377.181-3.441.348-6.81.259-10.28.238-7.391-.046-14.782-.053-22.173-.078l-1.761-.006c-1.138-.004-2.376-.238-3.473-.207-.436.012-.737.202-.934.498-.3.452-.354 1.15-.265 1.841.06.454.27.903.639 1.144.235.152.513.21.785.264 2.8.563 5.705.42 8.558.482 1.364.029 2.721.025 4.082.02 1.011-.003 2.025-.006 3.045.004 10.394.11 20.8.105 31.178-.06a5.74 5.74 0 00.347-.015c.16.02.32.036.483.046 1.084.058 2.16-.164 3.195-.427 3.794-.966 7.35-2.516 10.409-4.535.283-.188.577-.396.686-.675.176-.444-.191-.932-.697-1.172-.505-.239-1.114-.288-1.702-.324a88.008 88.008 0 00-14.89.324z" id="E"/><path d="M3.505.568C3.06.604 2.61.644 2.2.753c-.662.177-1.16.515-1.566.87-.369.324-.687.733-.435 1.093.207.297.747.467 1.278.531.53.065 1.08.049 1.616.099.752.07 1.464.27 2.223.302.655.026 1.305-.075 1.93-.193 2.293-.437 4.44-1.138 6.289-2.052.172-.083.349-.178.415-.304.106-.2-.117-.422-.421-.53-.306-.109-.673-.13-1.03-.146a71.062 71.062 0 00-8.996.145z" id="G"/><path d="M16.662.38c-1.069.059-2.136 0-3.201-.06C12.036.24 10.616.16 9.2.365 7.482.614 3.42.72 2.12 1.89 1.057 2.849.38 6.693.405 8.045c.046 2.426.104 4.85.173 7.275C.735 20.79.11 26.264.39 31.728c.034.655.077 1.342.435 1.901.741 1.157 2.844.817 4.277.817 10.807.004 21.845.371 32.637-.192 1.014-.052 2.04-.044 3.067-.037 2.289.017 4.579.035 6.736-.619 1.003-.304 2.016-.707 2.729-1.438 1.216-1.248 1.393-4.115 1.367-5.804-.12-7.967.556-14.937-.177-22.87-.051-.563-.11-1.146-.418-1.628-.772-1.21-4.006-1.34-5.508-1.334-4.462.018-8.24-.078-11.76-.174C30.544.26 27.53.172 24.402.172c-2.458 0-4.985.055-7.741.207z" id="I"/><path d="M.397 2.004c-.049.9.421 1.648 1.05 1.673.63.024 1.18-.686 1.229-1.585.05-.9-.42-1.65-1.05-1.673L1.595.418c-.616 0-1.15.7-1.198 1.586z" id="K"/><path d="M.024 2.004c-.058.9.49 1.648 1.225 1.673.734.024 1.376-.686 1.434-1.585.058-.9-.491-1.65-1.225-1.673L1.421.418c-.719 0-1.34.7-1.397 1.586z" id="M"/></defs><g fill="none" fill-rule="evenodd"><g transform="translate(0 72)"><mask id="b" fill="#fff"><use xlink:href="#a"/></mask><path fill="#E8EFFF" mask="url(#b)" d="M-4.97 349.958h474.865V-5.136H-4.97z"/></g><g transform="translate(57 121)"><mask id="d" fill="#fff"><use xlink:href="#c"/></mask><path fill="#FFF" mask="url(#d)" d="M-4.843 255.893h359.612V-4.878H-4.843z"/></g><g transform="translate(57 121)"><mask id="f" fill="#fff"><use xlink:href="#e"/></mask><path fill="#B4C8F4" mask="url(#f)" d="M-4.843 256.022h359.612v-260.9H-4.843z"/></g><g transform="translate(83 352)"><mask id="h" fill="#fff"><use xlink:href="#g"/></mask><path fill="#A7AABC" mask="url(#h)" d="M-4.804 11.396H302.73V-5.056H-4.804z"/></g><g transform="translate(83 352)"><mask id="j" fill="#fff"><use xlink:href="#i"/></mask><path fill="#0E69FF" mask="url(#j)" d="M-4.81 11.428h218.803V-5.058H-4.81z"/></g><g transform="translate(188 202)"><mask id="l" fill="#fff"><use xlink:href="#k"/></mask><path fill="#0E69FF" mask="url(#l)" d="M-5.021 93.982h98.879V-4.94H-5.021z"/></g><path fill="#997659" d="M71 42h9v-9h-9z"/><g transform="translate(28 37)"><mask id="n" fill="#fff"><use xlink:href="#m"/></mask><path fill="#00B272" mask="url(#n)" d="M-4.937 60.82h50.764V-5.093H-4.937z"/></g><path fill="#997659" d="M39 190h5v-6h-5zM54 189h5v-4h-5z"/><g transform="translate(35 187)"><mask id="p" fill="#fff"><use xlink:href="#o"/></mask><path fill="#090F0C" mask="url(#p)" d="M-4.984 13.309h19.783V-5.318H-4.984z"/></g><g transform="translate(50 188)"><mask id="r" fill="#fff"><use xlink:href="#q"/></mask><path fill="#090F0C" mask="url(#r)" d="M-4.81 12.736h20.815v-17.53H-4.81z"/></g><g transform="translate(36 102)"><mask id="t" fill="#fff"><use xlink:href="#s"/></mask><path fill="#273049" mask="url(#t)" d="M-4.716 88.88h57.583V-5.078H-4.716z"/></g><g transform="translate(54 102)"><mask id="v" fill="#fff"><use xlink:href="#u"/></mask><path fill="#3D4564" mask="url(#v)" d="M-5.072 88.938H50.99V-4.844H-5.072z"/></g><g transform="translate(47 37)"><mask id="x" fill="#fff"><use xlink:href="#w"/></mask><path fill="#006E41" mask="url(#x)" d="M-4.851 78.026h63.636V-4.81H-4.851z"/></g><g transform="translate(62 5)"><mask id="z" fill="#fff"><use xlink:href="#y"/></mask><path fill="#997659" mask="url(#z)" d="M-6.07 36.566h37.042V-5.46H-6.07z"/></g><g transform="translate(46 87)"><mask id="B" fill="#fff"><use xlink:href="#A"/></mask><path fill="#FFE9DD" mask="url(#B)" d="M-5.01 10.986h17.983V-4.65H-5.01z"/></g><g transform="translate(51 37)"><mask id="D" fill="#fff"><use xlink:href="#C"/></mask><path fill="#00B272" mask="url(#D)" d="M-5.003 60.82h50.764V-5.093H-5.003z"/></g><g transform="translate(12 101)"><mask id="F" fill="#fff"><use xlink:href="#E"/></mask><path fill="#6471A9" mask="url(#F)" d="M-4.828 12.886h73.78V-4.892h-73.78z"/></g><g transform="translate(56 102)"><mask id="H" fill="#fff"><use xlink:href="#G"/></mask><path fill="#3D4564" mask="url(#H)" d="M-5.207 8.547h24.502V-4.552H-5.207z"/></g><g transform="translate(11 71)"><mask id="J" fill="#fff"><use xlink:href="#I"/></mask><path fill="#A3A9CE" mask="url(#J)" d="M-4.843 39.777h61.811V-5.038h-61.81z"/></g><g transform="translate(77 18)"><mask id="L" fill="#fff"><use xlink:href="#K"/></mask><path fill="#141828" mask="url(#L)" d="M-5.321 9.11H8.395V-5.015H-5.321z"/></g><g transform="translate(68 18)"><mask id="N" fill="#fff"><use xlink:href="#M"/></mask><path fill="#141828" mask="url(#N)" d="M-6.647 9.11H9.354V-5.015H-6.648z"/></g><path d="M73.302 21.167s-4.62 7.493 2.181 5.32" stroke="#3D2216"/><path d="M64.103 9.628c-.157.31.745-2.803 2.726-2.856 2.072-.057 14.953.658 15.613-.128 2.183 2.519 3.776 12.507 3.9 12.485.291-.052.325-1.03.353-1.24.21-1.473.265-2.984.264-4.467-.004-2.738.87-8.01-4.564-11.295C79.053.106 72.145-.095 68.3 1.049c-2.679.797-5.246 2.873-6.201 5.291-1.048 2.656-1.022 4.73-.676 9.99.037.572.11 1.142.198 1.708.057.376.11.762.21 1.13.545 2.004.597-7.173 2.272-9.54" fill="#141828"/><path d="M85.16 4.572c-.415 3.84-5.806 6.812-9.81 6.812l1.168-1.019c-4.502 1.266-7.014.403-7.006.405.162.03 1.865-.704 1.865-.704-2.56.072-5.145.106-7.126-1.606l2.86-4.696 18.05.808zM65.811 15.414c-.344-.458 1.261-.8 2.91-.909 2.765-.18 4.35.96 3.017 1.002-.996.031-5.826.041-5.927-.093M82.34 16c.363-.445-1.227-.846-2.87-1.013-2.754-.28-4.385.802-3.055.892.993.068 5.819.252 5.925.121M79.168 29.252c-.78 2.037-8.638 3.085-10.177-.514 3.503 1.597 7.439.796 10.177.514" fill="#141828"/><path d="M71.23 34.576s6.19.72 8.666-.527c-.592 1.247-8.667 1.907-8.667 1.907v-1.38z" fill="#784931"/></g></svg>