<svg width="24" height="16" xmlns="http://www.w3.org/2000/svg"><g fill="none" fill-rule="evenodd"><path d="M0-4h24v24H0z"/><path d="M20 14c1.1 0 2-.9 2-2V2c0-1.1-.9-2-2-2H4C2.9 0 2 .9 2 2v10c0 1.1.9 2 2 2H1c-.55 0-1 .45-1 1s.45 1 1 1h22c.55 0 1-.45 1-1s-.45-1-1-1h-3zM5 2h14c.55 0 1 .45 1 1v8c0 .55-.45 1-1 1H5c-.55 0-1-.45-1-1V3c0-.55.45-1 1-1z" fill="#B4C8F4" fill-rule="nonzero"/><g fill="#B4C8F4"><path d="M11.6 7.6c.992 0 1.8-.808 1.8-1.8S12.592 4 11.6 4s-1.8.808-1.8 1.8.808 1.8 1.8 1.8zM15.2 9.8c0-1.2-2.4-1.8-3.6-1.8C10.4 8 8 8.6 8 9.8v.6h7.2v-.6z"/></g></g></svg>