<?xml version="1.0" encoding="UTF-8"?>
<svg width="24px" height="24px" viewBox="0 0 24 24" version="1.1" xmlns="http://www.w3.org/2000/svg" xmlns:xlink="http://www.w3.org/1999/xlink">
    <!-- Generator: Sketch 54.1 (76490) - https://sketchapp.com -->
    <title>Icons / actions / remove</title>
    <desc>Created with Sketch.</desc>
    <g id="Icons-/-actions-/-remove" stroke="none" stroke-width="1" fill="none" fill-rule="evenodd">
        <g id="round-playlist_add-24px" transform="translate(2.000000, 5.000000)" fill="#4189FF" fill-rule="nonzero">
            <path d="M11,4 L1,4 C0.45,4 0,4.45 0,5 C0,5.55 0.45,6 1,6 L11,6 C11.55,6 12,5.55 12,5 C12,4.45 11.55,4 11,4 Z M11,0 L1,0 C0.45,0 0,0.45 0,1 C0,1.55 0.45,2 1,2 L11,2 C11.55,2 12,1.55 12,1 C12,0.45 11.55,0 11,0 Z M16.4142136,11 L18.5355339,8.87867966 C18.9244426,8.48977093 18.9244426,7.85337482 18.5355339,7.46446609 C18.1466252,7.07555736 17.5102291,7.07555736 17.1213203,7.46446609 L15,9.58578644 L12.8786797,7.46446609 C12.4897709,7.07555736 11.8533748,7.07555736 11.4644661,7.46446609 C11.0755574,7.85337482 11.0755574,8.48977093 11.4644661,8.87867966 L13.5857864,11 L11.4644661,13.1213203 C11.0755574,13.5102291 11.0755574,14.1466252 11.4644661,14.5355339 C11.8533748,14.9244426 12.4897709,14.9244426 12.8786797,14.5355339 L15,12.4142136 L17.1213203,14.5355339 C17.5102291,14.9244426 18.1466252,14.9244426 18.5355339,14.5355339 C18.9244426,14.1466252 18.9244426,13.5102291 18.5355339,13.1213203 L16.4142136,11 Z M1,10 L7,10 C7.55,10 8,9.55 8,9 C8,8.45 7.55,8 7,8 L1,8 C0.45,8 0,8.45 0,9 C0,9.55 0.45,10 1,10 Z" id="Shape"></path>
        </g>
    </g>
</svg>