<svg width="413" height="158" xmlns="http://www.w3.org/2000/svg" xmlns:xlink="http://www.w3.org/1999/xlink"><defs><path id="b" d="M.191 110.816h188.59V.222H.19z"/><path id="d" d="M.332.282H105.78v71.535H.33z"/><path id="f" d="M0 559.66h691.891V.214H0z"/><path d="M4.777.548c-.409.94-.429 2.006-.76 2.977-.649 1.898-2.372 3.18-4.002 4.34.258.258.691.098 1.012-.075l2.017-1.093c1.41-.763 1.961-2.409 2.478-3.851.152-.425.305-.857.332-1.307.027-.45-.09-.93-.411-1.246A.423.423 0 005.24.17a.28.28 0 00-.052-.005c-.187 0-.331.202-.411.384z" id="h"/><path d="M.284 35.875c0 8.467 2.608 14.168 6.767 17.66l26.326 1.286c5.165-3.301 8.519-9.345 8.519-18.946C41.896 19.873 32.58.053 21.09.053 9.6.053.284 19.873.284 35.875z" id="j"/><path d="M28.271.011h-5.285c0 8.152-3.284 8.65-12.49 6.53C-2.474 3.555 1.48 17.724.296 25.167l29.958 5.808 29.454-3.735c-1.185-7.443-1.767-14.803-15.006-16.536C36.168 9.587 32.585 8.163 32.585.011H28.27z" id="l"/><path d="M20.385.173h-6.117c0 .124-.242 3.004-.242 3.004C13.03 8.493 9.856 8.61 2.2 6.767a13.776 13.776 0 00-1.924-.325C10.3 9.805 16.631 12.697 19.374 4.678c.24.021.466.025.676.011.991-.067 2.239-.64 3.666-1.512-.139-.901-.174-1.856-.174-3.004h-3.157z" id="n"/><path d="M12.786.444C4.742 2.166.234 7.598.27 22.356.3 34.677 8.576 43.838 15.802 43.838c6.605 0 16.101-10.132 16.101-24.237C31.903 6.26 24.5.061 16.338.061c-1.175 0-2.366.13-3.552.383z" id="p"/><path d="M.908 3.355C-2.236 8.062 7.88 26.91 7.88 26.91c5.116 11.989 7.087 18.628 6.71 25.908H53.3c-.283-3.676-.353-6.757 1.168-9.804.192-.257.381-.5.567-.735 0 0 1.154-6.814 5.883-18.496C68.71 4.53 50.945 5.215 49.427 4.795c-4.341 4.5-12.048 19.917-12.048 19.917S28.766 6.915 22.257 1.607c0 0-5.952-1.431-11.685-1.431-4.066 0-8.02.72-9.664 3.18z" id="r"/><path id="t" d="M.26 1.563l5.503 1.06.174-1.509L.435.054z"/><path d="M.095 2.377C.036 3.618.59 4.651 1.333 4.684c.742.034 1.392-.945 1.45-2.185C2.84 1.258 2.287.225 1.544.192A1.46 1.46 0 001.48.19C.249.19.12 1.816.094 2.377z" id="v"/><path d="M.243 2.377C.185 3.62.739 4.651 1.481 4.684c.743.034 1.392-.945 1.45-2.185C2.99 1.258 2.435.225 1.693.192A.701.701 0 001.656.19C.929.19.3 1.157.243 2.377z" id="x"/><path d="M.341.237L.084.45s2.08 2.4 3.2 2.392C4.404 2.834 5.603.937 5.603.937l.324-.904S3.285 2.84.341.237z" id="z"/><path d="M4.71.202c-.242.094-.37.37-.385.631-.015.26.056.517.092.776.181 1.315-.57 2.59-1.493 3.537C2 6.093.88 6.837.017 7.84c.118-.138 1.369-.122 1.621-.182.581-.136 1.28-.333 1.757-.707.802-.63 1.595-1.914 2.012-2.838.448-.992.615-2.15.263-3.181-.126-.369-.435-.763-.786-.763a.483.483 0 00-.174.033z" id="B"/><path d="M3.57.378c-.473.458-.442 1.206-.486 1.863C2.939 4.381 1.657 6.28.187 7.839a5.088 5.088 0 002.156-.563c.625-.323 1.601-2.3 1.896-3.023.464-1.139.579-2.429.27-3.624C4.473.5 4.431.363 4.333.271a.4.4 0 00-.279-.103.733.733 0 00-.485.21z" id="D"/><path d="M1.766.186c-.207.044-.344.272-.409.498-.256.897.26 1.88.077 2.8-.127.636-.561 1.123-.869 1.674a4.473 4.473 0 00-.487 2.83c.023.15 3.39-1.851 3.587-2.617.291-1.132-.856-3.328-1.203-4.425-.11-.35-.318-.767-.624-.767a.371.371 0 00-.072.007z" id="F"/><path d="M16.996.178a12.215 12.215 0 01-4.451 4.524C10.449 5.936 8.029 6.547 5.77 7.485 3.513 8.422.426 10.243.255 12.59a65.18 65.18 0 00.157 11.285c.156 1.554.35 3.207-.384 4.6.586 1.12 1.574 2.14 2.86 2.375 1.286.234 2.611.088 3.911-.058.266-.03.548-.067.749-.236.227-.191.29-.501.328-.788.67-4.985-1.885-9.863-2.046-14.888-.02-.604.001-1.23.272-1.777.27-.545.762-.955 1.243-1.345 1.834-1.487 3.642-2.73 5.544-4.134 1.983-1.462 3.231-3.63 4.424-5.735.177-.311.358-.642.347-.996-.01-.348-.284-.715-.646-.715h-.018z" id="H"/><path d="M.237.178l1.29 18.773c6.07 5.657 16.222 12.372 23.087 15.422 3.061 1.36 6.274 2.678 9.621 2.575 1.395-.043 2.852-.371 3.885-1.313 1.595-1.453 1.739-3.878 1.721-6.038a144.745 144.745 0 00-1.5-19.61c-3.356.487-7.012-.33-9.637-2.482-.774 4.838-1.711 9.551-2.293 14.416C18.296 15.39 10.085 8.086 2.494.95 2.196.975 1.925.768 1.592.56 1.278.366.91.17.41.17.353.17.296.172.237.177z" id="J"/><path d="M.64 5.272c-.851 4.204.023 8.501.895 12.703-.44-5.903-.154-12.02 1.326-17.809C1.362 1.506 1.002 3.478.639 5.272z" id="L"/><path d="M.478 3.855C.046 5.208.553 6.734.2 7.964c.74-2.586 1.728-5.1 2.497-7.67C1.625 1.18.891 2.56.478 3.854z" id="N"/><path d="M5.173 1.358A17.144 17.144 0 01.225 1.5c2.392.28 4.522.634 6.957.375 1.572-.167 5.623-.047 6.677-1.293-.628-.317-1.315-.403-2.012-.414h-.136c-2.21 0-4.353.808-6.538 1.19z" id="P"/><path d="M16.8 3.774C14.033 8.412 4.624 26.594.867 33.885c-1.761 3.418-.298 4.904 1.648 7.743l6.298 9.19h4.067l5.042-2.333-4.985-12.142 11.13-10.111C37.552 49.579 43.794 11.012 30.65.669c0 0-2.424-.64-5.322-.64-3.095 0-6.73.73-8.529 3.745z" id="R"/><path d="M1.978 13.84l2.987-1.459L.176.082c-.204 5.36.449 9.825 1.802 13.757z" id="T"/><path d="M.237 17.886l11.087-9.919a313 313 0 013.815 6.653c.655 1.19 1.45 2.141 1.92 3.588 1.963 6.032 2.969 9.761 3.131 13.61h1.633C19.499 18.227 12.914.306 12.914.306L.237 17.886z" id="V"/><path id="X" d="M.107 2.82h6.597L5.423.25z"/><path d="M.152 1.672c.12.388.248.77.382 1.149h3.41L2.794.253.151 1.673z" id="Z"/><path d="M44.721 21.155c-9.565.38-18.878.885-29.902-1.402C3.794 17.467 1.516 8.176 1.516 8.176L.123 11.939c1.478 2.557 1.82 4.868 2.975 6.99.676 1.249 1.295 2.518 1.978 3.763 1.579 2.875 2.552 2.875 7.373 4.609 8.081 3.46 33.71.43 35.232.316.693-.883 1.44-1.723 2.198-2.557.27-.296 2.557-2.9 2.328-2.872 1.945-3.145 2.406-7.555-.98-21.86.065.41 2.938 20.451-6.506 20.827z" id="ab"/><path d="M24.747.647c-4.08-.39-6.195-.69-8.22-.32-3.76.684-10.802.056-14.558 15.269-1.564 6.336-2.71 34.207-.266 39.602 3.199 7.06 2.558 13.245 9.739 14.605 6.435-5.681 1.32-38.257.79-39.76-.642-1.828-.944-4.118-.884-6.529 1.941-8.49 4.713-14.816 13.993-15.608 6.06 1.884 10.522 6.28 12.968 10.446.013 4.709 1.527 19.37.463 24.541-1.205 5.861-1.905 5.743-1.23 13.939 3.362 1.004 10.48 2.2 10.48 2.2s2.185-15.533-.367-30.231c-1.363-6.31-1.01-12.998-3.506-18.943-3.29-7.836-8.934-9.79-14.11-9.79-1.87 0-3.677.254-5.292.579z" id="ad"/><path d="M5.992 21.843C5.438 16.453 4.859 10.946 3.07 5.96 2.308 3.835 1.497 1.488.048.191c2.683 6.79 4.604 14.265 5.944 21.652z" id="af"/><path d="M.11 5.215c-.137 2.88 1.958 5.323 4.672 5.446 2.714.123 5.04-2.279 5.179-5.159.006-.159 2.73-.01 2.846.068.027 2.737 2.06 5.005 4.67 5.123 2.715.123 5.034-2.12 5.172-5a5.539 5.539 0 00-.092-1.272l3.353-.243-.184-1.257-3.57.223C21.392 1.496 19.83.33 17.976.247c-2.388-.108-4.47 1.617-5.028 3.996-.168-.055-2.92-.18-3.06-.146C9.313 2.033 7.425.312 5.281.215a4.54 4.54 0 00-.213-.004C2.448.21.244 2.41.11 5.215zm4.732 4.19C2.84 9.314 1.298 7.46 1.402 5.274c.105-2.187 1.818-3.893 3.82-3.802 2 .09 3.543 1.944 3.439 4.13-.102 2.132-1.732 3.806-3.667 3.806-.051 0-.101-.001-.152-.003zm12.696.031c-2.001-.09-3.545-1.943-3.44-4.13.105-2.187 1.818-3.893 3.82-3.802 2.001.09 3.544 1.944 3.44 4.13-.103 2.132-1.733 3.806-3.668 3.806a2.91 2.91 0 01-.152-.004z" id="ah"/><path d="M.208.416S-.704.099 1.292 2.193C2.915 3.75 7.11 5.353 9.115.944L9.681.36C9.569.353 9.24.35 8.7.35 7.3.35 4.47.371.208.415z" id="aj"/><radialGradient cx="67.328%" cy="77.205%" fx="67.328%" fy="77.205%" r="115.262%" gradientTransform="matrix(.58643 0 0 .674 .278 .252)" id="a"><stop stop-color="#2B2B2B" offset="0%"/><stop stop-color="#212121" offset="100%"/></radialGradient></defs><g fill="none" fill-rule="evenodd"><path fill="#EFA7A3" d="M129 135h23v-4h-23z"/><path d="M152.637 147.817c-2.342 3.801-9.094 3.865-11.252 3.783h-.001c-.424-.015-.67-.037-.67-.037s-9.12.804-11.925-3.746c-1.591-2.585-.7-6.462.37-9.331.253-.683.519-1.308.763-1.847a25.25 25.25 0 01.972-1.946h19.638s.919 1.604 1.735 3.793c1.07 2.87 1.962 6.746.37 9.33" fill="#EFA7A3"/><path d="M133.204 144.34c-.982 4.197 2.688 7.378 7.51 7.223 0 0-9.121.804-11.925-3.746-1.592-2.585-.7-6.462.37-9.331.025-.068.05-.137.077-.203l.076-.201c.207-.526.415-1.012.61-1.443.536-1.186.972-1.946.972-1.946h19.638s.918 1.604 1.735 3.793h-8.786c-2.202 0-4.39.535-6.43 1.65-1.72.94-3.405 2.315-3.847 4.204" fill="#FF654C"/><path d="M151.789 125.986c-.366.543-.727 1.049-1.066 1.509-1.086 1.468-1.952 2.447-2.021 2.526-.002.003-.004.003-.004.003h-15.972s-.002 0-.005-.003c-.068-.08-.934-1.058-2.02-2.526-.34-.46-.7-.966-1.066-1.51-1.958-2.913-4.028-6.847-3.46-9.842.172-.922.445-1.56.782-1.988.175-.22.363-.385.567-.504 1.724-1.003 4.367 1.34 5.202 1.266 1.128-.102-.707-5.715-3.323-9.698-2.446-3.724-4.04-8.7-1.044-10.495.109-.064.22-.123.34-.178.108-.053.22-.1.342-.144 3.889-1.43 5.22 3.777 6.86 3.062 1.61-.705-3.324-17.33 4.435-17.363.12-.002.248.003.377.01.129-.007.255-.012.376-.01 7.757.033 2.823 16.658 4.434 17.363 1.64.715 2.97-4.491 6.86-3.062.12.044.234.09.343.144.12.055.23.114.339.178 2.995 1.794 1.402 6.771-1.042 10.495-2.616 3.983-4.45 9.596-3.325 9.698.837.075 3.478-2.269 5.202-1.266.203.12.392.285.567.504.337.428.61 1.066.782 1.988.567 2.995-1.502 6.929-3.46 9.843" fill="#039157"/><path d="M141.09 80.1v49.923h-.754V80.101c.12-.002.249.003.377.01.129-.007.254-.012.378-.01" fill="#047A42"/><path d="M140.998 108.705l-.285.246-.287.245-.09-.105-12.294-14.153.317-.214c.108-.063.219-.123.34-.178l11.637 13.396.377.434.285.329zM140.998 129.165l-.285.246-.287.246-.09-.105-13.378-15.399c.173-.218.362-.383.565-.501l12.813 14.75.377.434.285.33z" fill="#047A42"/><path d="M153.381 94.938l-12.29 14.15-.093.108-.285-.245-.287-.246.287-.329.378-.436 11.634-13.394c.121.055.232.115.34.178l.316.214zM154.466 114.153l-13.375 15.396-.094.108-.284-.246-.287-.246.287-.329.378-.436 12.81-14.748c.203.118.392.283.565.501" fill="#047A42"/><path fill="#848FBB" d="M289.381 161.872h-45.312l8.07-26.317h25.78z"/><path d="M359.648 139.614H170.33a4.076 4.076 0 01-4.068-4.083V18.371a4.076 4.076 0 014.068-4.083h189.317a4.076 4.076 0 014.068 4.083v117.16a4.076 4.076 0 01-4.068 4.083" fill="#A3A9CE"/><g transform="translate(171 19)"><path fill="url(#a)" d="M.191.222h188.59v110.594H.19z"/><path d="M109.952 23.675c-.538-.014-1.148.112-1.148.809 0 .422.213.623.465.623.352 0 .577-.297.655-.6a.89.89 0 00.028-.209v-.623zm.073 1.832l-.04-.452h-.016c-.151.282-.443.534-.83.534-.548 0-.828-.512-.828-1.031 0-.867.583-1.342 1.63-1.335v-.074c0-.297-.062-.83-.616-.83-.252 0-.516.103-.706.267l-.112-.43c.224-.194.549-.32.89-.32.83 0 1.031.75 1.031 1.469v1.342c0 .312.012.615.045.86h-.448z" fill="#FFF"/><path d="M108.457 33.163l.09.083c1.71 1.574 4.741 2.15 5.717 2.134 2.14-.048 5.215-.546 7.703-2.638 2.216-1.864 3.465-4.693 3.338-7.566-.146-3.334-2.232-6.783-5.192-8.58-2.802-1.703-6.337-1.947-9.226-.634-1.752.796-3.253 2.169-4.34 3.969-2.559 4.24-1.756 9.804 1.91 13.232m5.768 2.901c-.989 0-4.212-.542-6.139-2.315l-.09-.084h-.002c-3.9-3.648-4.754-9.573-2.028-14.088 1.158-1.919 2.763-3.384 4.641-4.238 3.089-1.403 6.867-1.146 9.858.672 3.146 1.91 5.364 5.582 5.52 9.135.135 3.085-1.204 6.12-3.582 8.12-2.088 1.756-4.898 2.724-8.123 2.798h-.055" fill="#FFF"/><path d="M119.477 36.61l.07.066c1.353 1.245 3.74 1.695 4.522 1.688 1.7-.039 4.14-.434 6.111-2.093a7.454 7.454 0 002.644-5.988c-.116-2.643-1.77-5.376-4.116-6.8-2.22-1.35-5.02-1.543-7.308-.503-1.361.619-2.534 1.68-3.391 3.07-2.084 3.375-1.467 7.817 1.468 10.56m4.564 2.437c-.799 0-3.399-.437-4.953-1.867l-.072-.067-.002-.001c-3.171-2.966-3.837-7.77-1.583-11.423.929-1.505 2.205-2.657 3.69-3.331 2.487-1.13 5.53-.924 7.939.54 2.532 1.538 4.317 4.494 4.443 7.355a8.142 8.142 0 01-2.886 6.542c-1.68 1.414-3.94 2.192-6.533 2.252h-.043" fill="#FFF"/><path d="M125.834 10.18c-.616 0-1.331.062-2.116.24-1.526.346-3.013 1.807-3.376 2.358-.803 1.22-1.718 3.133-1.522 5.333.174 1.954 1.254 3.74 2.89 4.778 1.9 1.207 4.615 1.373 6.753.415 2.024-.907 3.523-2.785 3.912-4.903.553-3.002-1.224-6.317-4.225-7.892-.128-.044-.996-.33-2.316-.33m-.356 14.424c-1.477 0-2.948-.385-4.132-1.136-1.812-1.151-3.01-3.13-3.203-5.295-.17-1.898.395-3.893 1.632-5.77.468-.71 2.112-2.267 3.794-2.649 2.805-.635 4.756.092 4.838.123.012.005.025.01.036.016 3.273 1.705 5.207 5.336 4.601 8.634-.43 2.335-2.079 4.405-4.304 5.402a8.02 8.02 0 01-3.262.675M127.073 31.863c0 .081.01.163.022.237.095.452.381.764.74.764.515 0 .823-.556.823-1.38 0-.719-.28-1.335-.807-1.335-.336 0-.65.305-.75.801-.011.075-.028.164-.028.267v.646zm-.51 1.438c.011-.245.022-.608.022-.927v-4.338h.488v2.254h.01c.175-.4.488-.66.925-.66.672 0 1.148.742 1.143 1.832 0 1.283-.61 1.92-1.216 1.92-.392 0-.705-.2-.907-.674h-.017l-.022.593h-.426z" fill="#FFF"/><path d="M128.14 18.055c-.129.09-.415.207-.779.207-.818 0-1.35-.734-1.35-1.831 0-1.105.571-1.906 1.457-1.906.29 0 .549.096.683.185l-.112.505a.926.926 0 00-.571-.17c-.622 0-.958.607-.958 1.356 0 .831.403 1.343.94 1.343.281 0 .466-.097.606-.179l.084.49zM142.633 9.037l.787 2.81c.082.315.17.689.23.974h.015c.067-.285.141-.649.23-.993l.713-2.791h.691l-.98 3.39c-.468 1.632-.787 2.467-1.234 2.979-.319.373-.638.52-.801.56l-.164-.727c.164-.07.38-.207.572-.423.178-.187.401-.521.55-.963a.77.77 0 00.052-.207.982.982 0 00-.045-.226l-1.33-4.383h.714zM179.777 49.733l1.627-2.8c.156-.256.304-.482.468-.738v-.02h-1.947v-.698h2.742l-.008.54-1.604 2.763c-.15.265-.298.501-.461.747v.02h2.102v.688h-2.919v-.502zM174.223 47.816h-60.958a.34.34 0 01-.34-.342.34.34 0 01.34-.341h60.958a.34.34 0 01.34.341.34.34 0 01-.34.342" fill="#FFF"/><path d="M173.189 49.675a.341.341 0 01-.117-.662l3.752-1.385-4.132-1.567a.342.342 0 01.24-.639l4.986 1.89a.34.34 0 01.22.321.34.34 0 01-.223.32l-4.609 1.7a.338.338 0 01-.117.022M145.469 80.298a.34.34 0 01-.34-.341V18.71a.34.34 0 11.68 0v61.247a.34.34 0 01-.34.341" fill="#FFF"/><path d="M143.744 20.469a.343.343 0 01-.318-.462l1.882-5.01a.34.34 0 01.318-.22.34.34 0 01.319.223l1.693 4.632a.34.34 0 11-.638.235l-1.379-3.77-1.558 4.151a.34.34 0 01-.319.22M175.147 42.353c-6.427 0-12.913-2.46-17.68-6.774-5.262-4.763-8.505-11.854-8.673-18.97a.34.34 0 01.331-.348c.18-.012.344.144.349.333.164 6.93 3.322 13.837 8.448 18.477 5.126 4.64 12.292 7.076 19.17 6.52a.341.341 0 01.054.682c-.664.053-1.331.08-2 .08M142.795 77.792l-.027-.001a.341.341 0 01-.312-.368c.554-6.91-1.872-14.11-6.49-19.26-4.618-5.15-11.492-8.324-18.39-8.489a.341.341 0 01.016-.683c7.08.17 14.138 3.427 18.879 8.715 4.741 5.287 7.232 12.679 6.663 19.772a.34.34 0 01-.339.314M5.81 44.317l10.133 4.294 1.424-38.495-11.557 34.2zm10.454 5.143a.337.337 0 01-.132-.027L5.254 44.822a.342.342 0 01-.19-.424L17.472 7.682a.34.34 0 01.661.123l-1.53 41.326a.342.342 0 01-.34.33z" fill="#FFF"/><path d="M16.263 49.46a.341.341 0 01-.08-.674l14.422-3.497L17.473 7.906a.34.34 0 11.641-.227l13.257 37.74a.34.34 0 01-.241.446L16.343 49.45a.336.336 0 01-.08.01M5.386 44.85a.341.341 0 01-.06-.678l.503-.09a.342.342 0 01.119.672l-.502.09a.325.325 0 01-.06.005" fill="#FFF"/><path d="M19.59 42.306a.341.341 0 01-.06-.678l1.055-.189a.342.342 0 01.12.672l-1.054.19a.331.331 0 01-.06.005m-2.46.44a.341.341 0 01-.06-.678l1.055-.188a.342.342 0 01.119.672l-1.054.188a.321.321 0 01-.06.006m-2.46.44a.341.341 0 01-.06-.678l1.055-.188a.338.338 0 01.395.276.341.341 0 01-.275.397l-1.054.188a.331.331 0 01-.06.006m-2.46.44a.341.341 0 01-.06-.678l1.055-.189a.342.342 0 01.12.672l-1.055.19a.364.364 0 01-.06.005m-2.46.44a.342.342 0 01-.06-.678l1.055-.188a.342.342 0 01.12.672l-1.054.19a.36.36 0 01-.06.004m-2.46.44a.341.341 0 01-.06-.678l1.055-.188c.19-.034.361.091.394.276a.341.341 0 01-.275.397l-1.054.188a.364.364 0 01-.06.006M22.05 41.865a.34.34 0 01-.06-.678l.18-.031-.026-.181a.342.342 0 01.289-.387.337.337 0 01.384.29l.072.508a.342.342 0 01-.277.384l-.502.09a.329.329 0 01-.06.005M18.205 11.045a.34.34 0 01-.336-.293l-.146-1.03a.342.342 0 01.289-.387.34.34 0 01.384.29l.146 1.03a.342.342 0 01-.337.39m.34 2.404a.34.34 0 01-.336-.293l-.146-1.03a.34.34 0 11.673-.096l.146 1.03a.342.342 0 01-.337.389m.34 2.404a.34.34 0 01-.336-.293l-.146-1.03a.34.34 0 11.673-.096l.146 1.03a.342.342 0 01-.337.39m.34 2.403a.34.34 0 01-.336-.293l-.146-1.03a.342.342 0 01.29-.387.341.341 0 01.383.29l.146 1.03a.342.342 0 01-.337.39m.34 2.404a.34.34 0 01-.336-.293l-.146-1.03a.34.34 0 11.673-.096l.146 1.03a.342.342 0 01-.337.39m.34 2.403a.34.34 0 01-.336-.293l-.146-1.03a.34.34 0 11.673-.096l.146 1.03a.342.342 0 01-.337.39m.34 2.403a.34.34 0 01-.336-.293l-.146-1.03a.342.342 0 01.29-.386.338.338 0 01.383.29l.146 1.03a.342.342 0 01-.337.39m.34 2.404a.34.34 0 01-.336-.294l-.145-1.03a.34.34 0 11.673-.096l.145 1.03a.342.342 0 01-.336.39m.34 2.404a.34.34 0 01-.337-.294l-.145-1.03a.34.34 0 11.673-.096l.145 1.03a.342.342 0 01-.336.39m.34 2.404a.34.34 0 01-.336-.294l-.146-1.03a.342.342 0 01.289-.386.339.339 0 01.384.29l.146 1.03a.342.342 0 01-.337.39m.34 2.404a.34.34 0 01-.336-.294l-.146-1.03a.34.34 0 11.673-.096l.146 1.03a.342.342 0 01-.337.39m.34 2.404a.34.34 0 01-.336-.293l-.146-1.03a.342.342 0 01.289-.387.338.338 0 01.384.29l.146 1.03a.342.342 0 01-.337.39m.34 2.404a.34.34 0 01-.336-.293l-.146-1.03a.342.342 0 01.289-.387.339.339 0 01.384.29l.146 1.03a.342.342 0 01-.337.39M17.865 8.641a.34.34 0 01-.336-.293l-.072-.508a.342.342 0 01.289-.386.342.342 0 01.384.29l.072.507a.342.342 0 01-.337.39M31.05 45.874c-.049 0-.099-.01-.147-.034l-.46-.222a.342.342 0 01-.159-.455.339.339 0 01.454-.16l.46.222a.342.342 0 01-.148.649M25.134 43.02c-.05 0-.1-.01-.147-.033l-.91-.439a.342.342 0 01-.159-.456.339.339 0 01.454-.16l.91.44a.342.342 0 01-.148.648m2.122 1.024c-.05 0-.1-.01-.147-.034l-.91-.438a.342.342 0 01-.159-.456.338.338 0 01.454-.16l.91.439a.342.342 0 01-.148.649m2.122 1.023c-.05 0-.1-.01-.147-.033l-.91-.439a.342.342 0 01-.159-.456.338.338 0 01.454-.16l.91.439a.342.342 0 01-.148.65" fill="#FFF"/><path d="M23.012 41.997c-.05 0-.1-.01-.147-.034l-.46-.221a.342.342 0 01-.159-.456.338.338 0 01.454-.16l.46.222a.342.342 0 01-.148.65M8.942 59.742a.34.34 0 01-.307-.193l-1.762-3.672a.343.343 0 01.306-.49h4.895a.34.34 0 01.314.21l.217.525a.342.342 0 01-.183.447.339.339 0 01-.444-.184l-.13-.315H7.72l1.527 3.182a.342.342 0 01-.305.49" fill="#FFF"/><path d="M12.074 63.414H7.179a.34.34 0 01-.306-.49l1.762-3.672a.339.339 0 01.454-.159c.17.082.24.286.159.456L7.72 62.731h4.127l.13-.315a.34.34 0 11.628.263l-.217.525a.34.34 0 01-.314.21M12.286 70.583a.343.343 0 01-.274-.543c.478-.655 1.187-5.73 1.756-9.808.527-3.77.982-7.024 1.336-7.832.259-.59.612-.911 1.05-.956.783-.085 1.425.795 1.496.896a.342.342 0 01-.08.476.34.34 0 01-.474-.08c-.153-.214-.567-.643-.873-.613-.22.024-.392.313-.497.552-.316.721-.808 4.244-1.284 7.652-.787 5.632-1.343 9.379-1.881 10.116a.34.34 0 01-.275.14" fill="#FFF"/><path d="M15.924 57.906H13.14a.34.34 0 01-.34-.341.34.34 0 01.34-.342h2.784a.34.34 0 01.34.342.34.34 0 01-.34.341M19.077 65.206a.34.34 0 01-.184-.055c-.114-.074-2.776-1.856-2.503-5.427.272-3.555 2.06-4.56 2.136-4.602a.339.339 0 01.46.14.342.342 0 01-.136.46c-.024.014-1.542.912-1.782 4.055-.242 3.157 2.096 4.736 2.196 4.802a.342.342 0 01-.187.627M28.457 65.206a.343.343 0 01-.186-.628c.1-.065 2.438-1.644 2.196-4.801-.24-3.152-1.767-4.046-1.782-4.055a.344.344 0 01-.133-.463.338.338 0 01.458-.137c.076.042 1.863 1.047 2.135 4.602.274 3.57-2.39 5.353-2.503 5.427a.338.338 0 01-.185.055" fill="#FFF"/><path d="M20.275 59.684c-.547-.015-1.169.113-1.169.823 0 .43.217.633.473.633.36 0 .588-.301.668-.61a.906.906 0 00.028-.212v-.634zm.074 1.864l-.04-.46h-.017c-.154.286-.45.543-.844.543-.558 0-.843-.52-.843-1.049 0-.883.593-1.366 1.659-1.358v-.076c0-.302-.063-.845-.628-.845a1.14 1.14 0 00-.718.272l-.114-.438c.228-.196.559-.324.907-.324.843 0 1.049.762 1.049 1.494v1.366c0 .316.01.626.045.875h-.456zM23.103 57.533v1.773h1.289v.454h-1.289v1.788h-.365V59.76H21.45v-.454h1.288v-1.773zM25.6 60.084c0 .083.012.166.023.241.098.46.388.777.753.777.524 0 .838-.565.838-1.403 0-.732-.285-1.358-.821-1.358-.342 0-.661.31-.764.815-.011.075-.028.166-.028.271v.657zm-.518 1.464c.011-.25.023-.619.023-.943V56.19h.496v2.294h.011c.177-.408.496-.671.94-.671.685 0 1.169.754 1.164 1.864 0 1.305-.621 1.954-1.237 1.954-.4 0-.719-.204-.924-.687h-.017l-.023.604h-.433z" fill="#FFF"/><mask id="c" fill="#fff"><use xlink:href="#b"/></mask><path d="M28.23 60.484h2.94v-.453h-2.94v.453zm0-1.48h2.94v-.452h-2.94v.453zM33.85 61.412c-.13.09-.421.211-.792.211-.832 0-1.373-.747-1.373-1.864 0-1.124.581-1.94 1.481-1.94.297 0 .56.1.696.19l-.114.513a.944.944 0 00-.582-.174c-.632 0-.974.62-.974 1.381 0 .845.41 1.366.957 1.366.285 0 .474-.098.616-.18l.086.497zM171.41 83.213c-3.966 0-11.467-.469-11.467-2.242a.34.34 0 11.68 0c.09.543 3.874 1.559 10.787 1.559 6.912 0 10.696-1.016 10.786-1.56a.34.34 0 11.68.001c0 1.773-7.5 2.242-11.466 2.242" fill="#FFF" mask="url(#c)"/><path d="M160.283 81.313a.341.341 0 01-.34-.342c0-1.773 7.5-2.242 11.467-2.242 3.966 0 11.466.469 11.466 2.242a.34.34 0 11-.68 0c-.09-.544-3.874-1.559-10.786-1.559-6.913 0-10.697 1.015-10.787 1.56a.34.34 0 01-.34.341M171.41 105.795c-3.966 0-11.467-.468-11.467-2.241a.34.34 0 11.68 0c.09.543 3.874 1.558 10.787 1.558 6.912 0 10.696-1.015 10.786-1.56a.34.34 0 11.68.002c0 1.773-7.5 2.241-11.466 2.241" fill="#FFF" mask="url(#c)"/><path d="M172.766 102.009h-.007a61.709 61.709 0 00-1.015-.013.34.34 0 01-.338-.344.34.34 0 01.34-.34h.001c.346.002.689.007 1.026.014a.341.341 0 01-.007.683m-3.4.018a.34.34 0 01-.34-.331.34.34 0 01.329-.352c.336-.011.678-.02 1.025-.025a.334.334 0 01.346.336.34.34 0 01-.335.347c-.343.006-.682.014-1.015.024h-.01m5.779.078h-.021c-.33-.02-.669-.038-1.013-.053a.34.34 0 01.029-.682c.348.015.69.033 1.025.053a.341.341 0 01-.02.682m-8.157.047a.34.34 0 01-.025-.682 49.05 49.05 0 011.025-.066c.18-.02.348.133.358.322a.34.34 0 01-.32.36 52.85 52.85 0 00-1.038.066m10.529.155c-.013 0-.026 0-.04-.002-.323-.037-.659-.07-1.006-.1a.341.341 0 01.06-.681c.352.03.694.065 1.023.102a.342.342 0 01-.037.681m-12.897.083a.34.34 0 01-.336-.297.34.34 0 01.292-.383c.327-.043.669-.083 1.023-.12a.342.342 0 01.07.68c-.348.036-.683.075-1.004.117a.329.329 0 01-.045.003m15.25.272a.346.346 0 01-.067-.007c-.308-.061-.638-.12-.99-.174a.341.341 0 01.103-.675c.358.055.701.115 1.02.18a.341.341 0 01-.066.676m-17.593.148a.342.342 0 01-.08-.674c.309-.075.651-.147 1.019-.214a.342.342 0 01.121.672 16.42 16.42 0 00-.979.206.33.33 0 01-.08.01m19.85.574a.338.338 0 01-.177-.05c-.2-.122-.49-.244-.863-.36a.342.342 0 01.203-.652c.425.133.766.278 1.014.429a.343.343 0 01-.177.633m-21.845.513a.341.341 0 01-.34-.343c0-.565.679-.874.902-.976a.338.338 0 01.45.17.342.342 0 01-.169.451c-.46.21-.503.355-.503.357a.34.34 0 01-.34.34" fill="#FFF" mask="url(#c)"/><path d="M160.283 103.895a.34.34 0 01-.34-.342v-22.47a.34.34 0 11.68 0v22.47a.34.34 0 01-.34.342M182.536 103.895a.34.34 0 01-.34-.342v-22.47a.34.34 0 11.68 0v22.47a.34.34 0 01-.34.342M157.392 105.19a.34.34 0 01-.34-.34V79.734a.34.34 0 11.68 0v25.114a.34.34 0 01-.34.342" fill="#FFF" mask="url(#c)"/><path d="M158.18 80.016h-1.577a.34.34 0 01-.34-.341.34.34 0 01.34-.342h1.577a.34.34 0 01.34.342.34.34 0 01-.34.341M158.18 105.19h-1.577a.34.34 0 01-.34-.34.34.34 0 01.34-.342h1.577a.34.34 0 01.34.341.34.34 0 01-.34.342M153.125 92.764c0 .084.012.168.023.243.098.464.39.783.758.783.528 0 .844-.57.844-1.413 0-.737-.287-1.368-.826-1.368-.345 0-.667.312-.77.82-.012.077-.029.168-.029.274v.661zm-.522 1.474c.011-.25.023-.623.023-.95v-4.444h.499v2.31h.012c.178-.41.5-.677.947-.677.69 0 1.177.76 1.172 1.877 0 1.314-.626 1.968-1.246 1.968-.403 0-.724-.205-.93-.691h-.018l-.023.607h-.436zM124.18 108.752a.34.34 0 01-.34-.341V82.16a.34.34 0 11.68 0v26.25a.34.34 0 01-.34.341" fill="#FFF" mask="url(#c)"/><path d="M147.513 106.097h-26.127a.34.34 0 01-.34-.342.34.34 0 01.34-.341h26.127a.34.34 0 01.34.341.34.34 0 01-.34.342" fill="#FFF" mask="url(#c)"/><path d="M127.276 105.945a.34.34 0 01-.34-.325l-.21-4.446-2.688.068h-.01a.341.341 0 01-.008-.683l3.021-.076c.191.006.34.14.348.325l.226 4.78a.34.34 0 01-.323.357h-.016M128.901 97.718c0 .707.324 1.205.825 1.205.39 0 .693-.253.845-.594a.633.633 0 00.052-.28c0-.969-.27-1.711-.877-1.711-.495 0-.845.576-.845 1.38zm-.21 3.266c.125.018.27 0 .468-.026.336-.061.653-.244.897-.55.284-.34.488-.839.567-1.511h-.02c-.237.384-.58.611-1.009.611-.771 0-1.266-.768-1.266-1.738 0-1.074.587-2.018 1.464-2.018s1.419.944 1.419 2.394c0 1.249-.317 2.122-.74 2.664-.33.428-.784.69-1.246.76a2.046 2.046 0 01-.535.043v-.629zM132.26 98.714c0 1.475.343 2.314.87 2.314.594 0 .878-.917.878-2.367 0-1.398-.27-2.315-.871-2.315-.508 0-.877.821-.877 2.368m2.328-.088c0 1.93-.54 2.996-1.49 2.996-.838 0-1.406-1.04-1.42-2.917 0-1.904.621-2.953 1.492-2.953.904 0 1.418 1.066 1.418 2.874M135.374 96.722c0 .402.224.716.514.716.297 0 .521-.323.521-.751 0-.323-.145-.734-.52-.734-.344 0-.515.393-.515.769m1.392-.044c0 .708-.43 1.17-.884 1.17-.515 0-.865-.515-.865-1.126-.006-.673.39-1.179.878-1.179.54 0 .87.541.87 1.135" fill="#FFF" mask="url(#c)"/><path stroke="#FFF" stroke-width="2" stroke-linecap="round" stroke-linejoin="round" mask="url(#c)" d="M305.064 70.994h-71.789M291.057 76.458s-.067-14.108-3.855-14.315c-3.787-.208-2.818 17.842-7.984 18.879-5.165 1.037 1.866-32.987-9.842-32.987-11.709 0-1.5 38.52-12.348 38.52s-5.165-25.519-11.192-26.142c-6.026-.622-.167 20.816-6.882 20.816"/></g><g transform="translate(253 58)"><mask id="e" fill="#fff"><use xlink:href="#d"/></mask><text mask="url(#e)" font-family="LucidaGrande, Lucida Grande" font-size="34.965" fill="#FFF"><tspan x="144.989" y="54.442">x</tspan></text><text mask="url(#e)" font-family="LucidaGrande, Lucida Grande" font-size="28.781" letter-spacing=".131" fill="#FFF"><tspan x="127.978" y="34.961">M</tspan> <tspan x="127.978" y="68.961">e</tspan> <tspan x="127.978" y="102.961">=</tspan></text><text mask="url(#e)" font-family="LucidaGrande, Lucida Grande" font-size="28.781" fill="#FFF"><tspan x="151.875" y="42.429">x</tspan></text><path stroke="#FFF" stroke-width="2" stroke-linecap="round" stroke-linejoin="round" mask="url(#e)" d="M144.06 4.711l-2.492.227v23.094l2.491.227"/><text mask="url(#e)" font-family="LucidaGrande, Lucida Grande" font-size="23.781" fill="#FFF"><tspan x="151.7" y="28.746">-</tspan></text><path stroke="#FFF" stroke-width="2" stroke-linecap="round" stroke-linejoin="round" mask="url(#e)" d="M143.153 20.221h21.744"/><text mask="url(#e)" font-family="LucidaGrande, Lucida Grande" font-size="28.781" fill="#FFF"><tspan x="145.585" y="28.282">a</tspan></text><text mask="url(#e)" font-family="LucidaGrande, Lucida Grande" font-size="23.781" fill="#FFF"><tspan x="145.585" y="31.633">2</tspan></text><path stroke="#FFF" stroke-width="2" stroke-linecap="round" stroke-linejoin="round" mask="url(#e)" d="M144.512 12.976h5.663"/><text mask="url(#e)" font-family="LucidaGrande, Lucida Grande" font-size="28.781" fill="#FFF"><tspan x="157.815" y="28.282">b</tspan></text><text mask="url(#e)" font-family="LucidaGrande, Lucida Grande" font-size="23.781" fill="#FFF"><tspan x="157.815" y="31.633">5</tspan></text><path stroke="#FFF" stroke-width="2" stroke-linecap="round" stroke-linejoin="round" mask="url(#e)" d="M156.743 12.976h5.662M38.372 88.575s2.039-1.245 2.378.792c.34 2.038-2.378 9.963 1.7 9.963 4.076 0 .113-9.736 1.132-10.755 1.019-1.019 2.944.113 2.944.113M42.223 86.424v17.321"/></g><g transform="translate(-1 -241)"><path fill="#D3DCF5" d="M171.576 260.512h2.086v110.033h-2.086zM173.662 262.597v-2.085h186.57v2.085"/><mask id="g" fill="#fff"><use xlink:href="#f"/></mask><path fill="#3D4564" mask="url(#g)" d="M0 406.39h413.89v-13.565H0z"/><path d="M358.923 392.708h-20.041c0-4.39 3.561-8.03 7.955-8.03h.803c4.79 0 9.297 2.268 12.15 6.113l.06.08c.563.76.02 1.837-.927 1.837" fill="#A7AABC" mask="url(#g)"/><path d="M340.18 392.193l-1.19-.145c.006-.045.598-4.436 5.281-5.321 7.454-1.407 14.709 4.149 15.013 4.386l-.736.945c-.07-.054-7.14-5.459-14.054-4.154-3.833.724-4.31 4.253-4.314 4.289" fill="#3D4564" mask="url(#g)"/><path d="M61.887 350.91H13.96c-2.613 0-4.731 1.674-4.731 3.735v2.254c0 2.063 2.118 3.735 4.73 3.735h52.134c1.66 0 3.006-1.062 3.006-2.37v-4.982c0-1.31-1.345-2.372-3.006-2.372h-4.206z" fill="#E8ECED" mask="url(#g)"/><path d="M15.163 349.012c-4.02 0-7.286 2.582-7.286 5.753v2.015c0 3.173 3.267 5.752 7.286 5.752h57.768v-1.898H15.163c-2.697 0-4.883-1.724-4.883-3.854v-2.015c0-2.13 2.186-3.855 4.883-3.855h57.768v-1.898H15.163z" fill="#F54F71" mask="url(#g)"/><path d="M66.093 364.074H13.96c-2.613 0-4.731 1.672-4.731 3.733v2.254c0 2.063 2.118 3.736 4.73 3.736h52.134c1.66 0 3.006-1.061 3.006-2.37v-4.981c0-1.31-1.345-2.372-3.006-2.372" fill="#E8ECED" mask="url(#g)"/><path d="M15.163 362.176c-4.02 0-7.286 2.58-7.286 5.75v2.016c0 3.173 3.267 5.752 7.286 5.752h57.768v-1.897H15.163c-2.697 0-4.883-1.725-4.883-3.855v-2.015c0-2.127 2.186-3.853 4.883-3.853h57.768v-1.898H15.163z" fill="#D67DEC" mask="url(#g)"/><path d="M66.093 377.592H13.96c-2.613 0-4.731 1.674-4.731 3.735v6.049c0 2.06 2.118 3.735 4.73 3.735h52.134c1.66 0 3.006-1.063 3.006-2.37v-8.777c0-1.31-1.345-2.372-3.006-2.372" fill="#E8ECED" mask="url(#g)"/><path d="M15.163 375.694c-4.02 0-7.286 2.582-7.286 5.751v5.811c0 3.173 3.267 5.753 7.286 5.753h57.768v-1.898H15.163c-2.697 0-4.883-1.724-4.883-3.855v-5.81c0-2.128 2.186-3.854 4.883-3.854h57.768v-1.898H15.163z" fill="#FF654C" mask="url(#g)"/><path d="M266.966 255.813h-2.122a1.51 1.51 0 01-1.51-1.51v-4.67c0-.834.675-1.51 1.51-1.51h2.122c.834 0 1.51.676 1.51 1.51v4.67a1.51 1.51 0 01-1.51 1.51" fill="#1A273E" mask="url(#g)"/><path d="M272.664 255.813h-13.518l1.665-.548a16.286 16.286 0 0110.189 0l1.664.548z" fill="#3D4564" mask="url(#g)"/><path d="M272.228 248.147a6.32 6.32 0 01-6.323 6.319 6.32 6.32 0 01-6.323-6.319 6.321 6.321 0 016.323-6.319 6.321 6.321 0 016.323 6.32" fill="#3D4564" mask="url(#g)"/><path d="M269.412 248.147a3.505 3.505 0 01-3.507 3.504 3.505 3.505 0 113.507-3.504" fill="#A7AABC" mask="url(#g)"/><path d="M263.808 248.093a.283.283 0 01-.283-.284c0-1.125.916-2.04 2.042-2.04a.283.283 0 110 .566c-.813 0-1.475.661-1.475 1.474a.283.283 0 01-.284.284" fill="#FFF" mask="url(#g)"/></g><g transform="translate(300 74)"><mask id="i" fill="#fff"><use xlink:href="#h"/></mask><path fill="#F1C27D" mask="url(#i)" d="M-2.233 10.306H8.105V-2.141H-2.233z"/></g><g transform="translate(216 37)"><mask id="k" fill="#fff"><use xlink:href="#j"/></mask><path fill="#31183F" mask="url(#k)" d="M-2.253 57.333h46.686V-2.46H-2.253z"/></g><g transform="translate(211 73)"><mask id="m" fill="#fff"><use xlink:href="#l"/></mask><path fill="#F1C27D" mask="url(#m)" d="M-2.288 33.472H62.29V-2.486H-2.288z"/></g><g transform="translate(220 72)"><mask id="o" fill="#fff"><use xlink:href="#n"/></mask><path fill="#C2A875" mask="url(#o)" d="M-2.221 12.255h28.434V-2.244H-2.221z"/></g><g transform="translate(222 31)"><mask id="q" fill="#fff"><use xlink:href="#p"/></mask><path fill="#F1C27D" mask="url(#q)" d="M-2.2 46.413h36.575V-2.513H-2.2z"/></g><g transform="translate(204 77)"><mask id="s" fill="#fff"><use xlink:href="#r"/></mask><path fill="#FFF" mask="url(#s)" d="M-2.263 82.127H65.45V-2.37H-2.263z"/></g><g transform="translate(221 46)"><mask id="u" fill="#fff"><use xlink:href="#t"/></mask><path fill="#434656" mask="url(#u)" d="M-2.105 5.833H8.303v-8.99H-2.105z"/></g><g transform="translate(242 47)"><mask id="w" fill="#fff"><use xlink:href="#v"/></mask><path fill="#3D4564" mask="url(#w)" d="M-2.157 7.183h7.191v-9.49h-7.191z"/></g><g transform="translate(229 47)"><mask id="y" fill="#fff"><use xlink:href="#x"/></mask><path fill="#3D4564" mask="url(#y)" d="M-2.009 7.183h7.192v-9.49h-7.191z"/></g><g transform="translate(234 57)"><mask id="A" fill="#fff"><use xlink:href="#z"/></mask><path fill="#C2A875" mask="url(#A)" d="M-2.163 5.65H8.174v-8.427H-2.163z"/></g><g transform="translate(298 74)"><mask id="C" fill="#fff"><use xlink:href="#B"/></mask><path fill="#F1C27D" mask="url(#C)" d="M-2.23 10.237H8.107V-2.228H-2.23z"/></g><g transform="translate(296 76)"><mask id="E" fill="#fff"><use xlink:href="#D"/></mask><path fill="#F1C27D" mask="url(#E)" d="M-2.31 10.236h9.489V-2.23h-9.49z"/></g><g transform="translate(292 78)"><mask id="G" fill="#fff"><use xlink:href="#F"/></mask><path fill="#F1C27D" mask="url(#G)" d="M-2.281 10.601h8.298V-2.427h-8.298z"/></g><g transform="translate(289 74)"><mask id="I" fill="#fff"><use xlink:href="#H"/></mask><path fill="#F1C27D" mask="url(#I)" d="M-2.565 33.497h22.819V-2.346H-2.565z"/></g><g transform="translate(261 84)"><mask id="K" fill="#fff"><use xlink:href="#J"/></mask><path fill="#FFF" mask="url(#K)" d="M-2.369 39.544h44.817V-2.42H-2.369z"/></g><g transform="translate(261 85)"><mask id="M" fill="#fff"><use xlink:href="#L"/></mask><path fill="#E6F1FC" mask="url(#M)" d="M-2.919 20.52h8.99V-2.379h-8.99z"/></g><g transform="translate(283 106)"><mask id="O" fill="#fff"><use xlink:href="#N"/></mask><path fill="#E6F1FC" mask="url(#O)" d="M-2.296 10.361h7.491V-2.104h-7.491z"/></g><g transform="translate(273 105)"><mask id="Q" fill="#fff"><use xlink:href="#P"/></mask><path fill="#E6F1FC" mask="url(#Q)" d="M-2.397 4.962H16.48V-2.83H-2.397z"/></g><g transform="translate(186 79)"><mask id="S" fill="#fff"><use xlink:href="#R"/></mask><path fill="#FFF" mask="url(#S)" d="M-3.764-1.504l43.413-1.533 1.959 56.707-43.414 1.533z"/></g><g transform="translate(199 115)"><mask id="U" fill="#fff"><use xlink:href="#T"/></mask><path fill="#E6F1FC" mask="url(#U)" d="M-2.534-2.38l9.482-.34.645 18.918-9.483.339z"/></g><g transform="translate(199 98)"><mask id="W" fill="#fff"><use xlink:href="#V"/></mask><path fill="#E6F1FC" mask="url(#W)" d="M-2.937-1.66l31.686-1.118 2.017 58.37L-.92 56.71z"/></g><g transform="translate(198 127)"><mask id="Y" fill="#fff"><use xlink:href="#X"/></mask><path fill="#F1C27D" mask="url(#Y)" d="M-4.877-1.872l33.35-1.22.948 28.449-33.35 1.22z"/></g><g transform="translate(201 127)"><mask id="aa" fill="#fff"><use xlink:href="#Z"/></mask><path fill="#C2A875" mask="url(#aa)" d="M-2.101-2.047l14.545-.592.702 23.458-14.545.592z"/></g><g transform="translate(210 92)"><mask id="ac" fill="#fff"><use xlink:href="#ab"/></mask><path fill="#E6F1FC" mask="url(#ac)" d="M-2.406 31.509h58.655V-2.228H-2.406z"/></g><g transform="translate(212 26)"><mask id="ae" fill="#fff"><use xlink:href="#ad"/></mask><path fill="#4F3A60" mask="url(#ae)" d="M-2.243 72.36h53.667V-2.478H-2.243z"/></g><g transform="translate(205 80)"><mask id="ag" fill="#fff"><use xlink:href="#af"/></mask><path fill="#E6F1FC" mask="url(#ag)" d="M-2.947-1.769l6.813-1.647L9.82 23.602 3.007 25.25z"/></g><g transform="translate(225 44)"><mask id="ai" fill="#fff"><use xlink:href="#ah"/></mask><path fill="#434656" mask="url(#ai)" d="M-2.425 13.195h32.882V-2.286H-2.425z"/></g><g transform="translate(233 64)"><mask id="ak" fill="#fff"><use xlink:href="#aj"/></mask><path fill="#F9F2E8" mask="url(#ak)" d="M-3.271-2.12l14.463-1.14.573 9.239-14.463 1.14z"/></g><g><path d="M238.734 63.127c1.734.14 4.093 1.475 4.093 1.475-3.803 1.254-10.418-.067-10.118-.043.267.022 1.722-1.496 3.981-1.487m1.138 5.782c-4.424-.019-5.143-4.258-5.143-4.258 1.666 2.233 3.565 2.398 5.031 2.454 3.071.117 5.098-2.385 5.098-2.385-.579.755-.805 3.968-4.986 4.189" fill="#A72F6A"/><path d="M235.572 32.843s9.776 10.366 19.156 11.565c0 0-3.246-5.498-5.938-8.624-2.692-3.125-13.117-3.778-11.572-4.61 1.244-.671-1.646 1.669-1.646 1.669" fill="#4F3A60"/><path d="M238.964 31.544s-8.564 7.658-13.717 10.447l1.795-8.218s3.431-6.038 11.922-2.229M247.877 44.454s-.193-3.366-7.075-1.615l.072 1.005s3.872-2.039 7.003.61M227.373 44.218s1.215-3.528 6.838-1.506l-.082.869s-3.707-1.7-6.756.637" fill="#4F3A60"/></g><g><path fill="#F4CC69" d="M386.88 125.838l.226 7.666.463-.037-.201-7.436z"/><path d="M387.102 135.293l.26 2.59c.013.135.21.13.218-.005l.14-2.618-.618.033z" fill="#99C9D6"/><path fill="#FFF0A4" d="M386.791 131.3l.157 4.232.975-.08-.216-4.229z"/><path fill="#FFC965" d="M384.994 110.316l1.559 16.777 1.097-.33.315-16.403zM402.74 130.435l2.028 3.476-2.548-3.138z"/><path fill="#FFC965" d="M400.647 127.022l2.358 3.516-.835.51-2.31-3.549z"/><path fill="#FFC965" d="M390.167 108.132l11.805 18.871-1.023 2.17-13.045-18.794z"/><path d="M402.78 128.662a1.141 1.141 0 11-2.188.656 1.142 1.142 0 112.188-.656" fill="#A7AABC"/><path d="M401.865 128.937a.187.187 0 01-.125.233.187.187 0 01-.107-.359.187.187 0 01.232.126" fill="#FFF1DC"/><path fill="#F9D980" d="M387.394 125.648h1.101l-.252.938-.974.007z"/><path d="M386.082 100.108a1.304 1.304 0 00-.28-.004 3.04 3.04 0 00-.332.05 6.727 6.727 0 00-.734.202c-.122.042-.24.087-.35.134-.112.046-.214.095-.305.147-.09.051-.17.104-.232.16l1.822 6.275a1.31 1.31 0 01.232-.16c.09-.052.193-.1.304-.148a6.533 6.533 0 011.085-.335c.117-.024.23-.041.332-.05.103-.008.197-.008.28.003l-1.822-6.274" fill="#A7AABC"/><path fill="#FFF1DC" d="M390.63 108.67l-2.371 2.67-3.294-.34-.166-3.926 4.007-1.201z"/><path d="M388.204 125.317c0-.098 0-.186-.004-.26l.951.034c.003.073.004.16.004.258a444.17 444.17 0 00-.95-.032" fill="#E20500"/><path d="M388.2 125.638c.002-.115.004-.223.004-.321l.951.032-.003.322-.952-.033" fill="#F2150F"/><path d="M388.191 125.998l.009-.36.951.033a37.89 37.89 0 01-.008.36l-.952-.033" fill="#E20500"/><path d="M388.179 126.372c.005-.124.009-.25.012-.374l.952.033-.013.374-.951-.033" fill="#F2150F"/><path d="M388.163 126.732l.016-.36c.317.01.634.022.95.033-.004.123-.01.245-.015.36a442.89 442.89 0 00-.951-.033" fill="#E20500"/><path d="M388.145 127.053l.018-.32c.317.01.634.02.951.032l-.018.321a442.89 442.89 0 00-.951-.033" fill="#F2150F"/><path d="M388.123 127.31c.008-.072.015-.16.021-.257.318.01.635.022.952.033a7.337 7.337 0 01-.022.258l-.95-.033" fill="#E20500"/><path d="M388.215 108.702a.716.716 0 11-1.37.41.716.716 0 011.37-.41" fill="#FFF1DC"/><path d="M387.182 108.718a.396.396 0 00.462.57.408.408 0 00.267-.495.397.397 0 00-.73-.075m1.26.68a1.027 1.027 0 01-.614.5c-.264.08-.544.051-.787-.08a1.028 1.028 0 01-.5-.614c-.158-.53.164-1.13.694-1.288a1.037 1.037 0 011.287.694c.08.265.05.545-.08.788" fill="#FFC965"/><path d="M392.848 127.25c0 .622-4.096 1.127-9.15 1.127-5.052 0-9.149-.505-9.149-1.127 0-.623 4.097-1.128 9.15-1.128s9.149.505 9.149 1.128" fill="#A7AABC"/><path d="M382.102 148.642a.228.228 0 00.283-.154l.36-.697c.036-.121-.094-.266-.291-.326-.197-.059-.387-.009-.423.112l-.082.78a.228.228 0 00.153.285" fill="#925F36"/><path fill="#1B598F" d="M381.81 147.913l-.184-4.268 3.618 1.085-2.498 3.464z"/><path fill="#D9D9D9" d="M383.792 144.294l1.452.436-2.498 3.464-.371-.111z"/><path d="M391.088 112.389l1.11-3.706a1.838 1.838 0 113.52 1.057l-1.109 3.705-3.521-1.056z" fill="#2379E2"/><path d="M394.002 107.373c.16.004.322.027.483.075a1.841 1.841 0 011.233 2.291l-1.11 3.706-1.429-.429c.614-1.75 1.829-4.196.823-5.643" fill="#D9D9D9"/><path fill="#2379E2" d="M385.244 144.73l9.294-31.05-3.618-1.084-9.294 31.048z"/><path fill="#D9D9D9" d="M385.244 144.73l9.294-31.05-1.456-.435-9.293 31.048z"/><path d="M394.704 113.928c.043.013.09-.014.103-.06l.306-1.02c.013-.047-.01-.094-.053-.107l-4.906-1.472c-.043-.013-.09.014-.103.06l-.305 1.02c-.014.046.01.094.053.106l4.905 1.473z" fill="#A7AABC"/><path fill="#A7AABC" d="M387.268 123.201l3.515-11.743-.707-.212-3.515 11.743z"/><path d="M382.01 148.545a.228.228 0 00.235-.222l.166-.767c.004-.126-.16-.233-.366-.239-.205-.005-.375.092-.379.218l.123.775a.228.228 0 00.222.235" fill="#925F36"/><path fill="#1B598F" d="M381.539 147.917l-1.285-4.074 3.775.106-1.512 3.996z"/><path fill="#D9D9D9" d="M382.514 143.907l1.515.043-1.512 3.995-.388-.011z"/><path d="M381.275 111.2l.109-3.868a1.84 1.84 0 113.674.104l-.108 3.867-3.675-.104zM384.03 143.95l.913-32.4-3.776-.107-.914 32.4z" fill="#3D4564"/><path fill="#D9D9D9" d="M384.03 143.95l.913-32.4-1.52-.044-.913 32.401z"/><path d="M385.167 111.744c.045.001.082-.036.084-.085l.03-1.064c0-.048-.035-.088-.08-.09l-5.118-.144a.085.085 0 00-.084.085l-.03 1.064c-.002.048.033.088.078.09l5.12.144z" fill="#A7AABC"/><path fill="#A7AABC" d="M380.393 122.634l.346-12.254-.738-.02-.345 12.253z"/><path fill="#D9D9D9" d="M376.924 113l1.136-4.031 1.591 3.874z"/><path fill="#575756" d="M377.677 110.328l.383-1.36.537 1.307z"/><path d="M378.59 140.824l.162 2.804a1.335 1.335 0 102.665-.154l-.161-2.804-2.665.154z" fill="#C66A53"/><path d="M379.808 144.857a1.332 1.332 0 001.609-1.383l-.161-2.804-1.082.062c.14 1.34.587 3.272-.366 4.125" fill="#D9D9D9"/><path fill="#FFC965" d="M379.656 112.843l1.59 27.648-2.738.158-1.59-27.648z"/><path fill="#D9D9D9" d="M379.656 112.843l1.59 27.648-1.102.064-1.59-27.648z"/><path fill="#D9D9D9" d="M378.06 108.969l1.591 3.874-1.096.064z"/><path d="M381.404 140.345c.033-.002.06.025.063.06l.044.772a.061.061 0 01-.055.066l-3.071.177c-.033.002-.061-.025-.063-.06l-.044-.772c-.002-.034.023-.064.055-.065l3.071-.178z" fill="#868686"/><path fill="#D9D9D9" d="M379.45 140.385l.694 4.132 2.001-3.68z"/><path fill="#575756" d="M379.91 143.123l.234 1.394.675-1.241z"/><path d="M384.115 112.906l.463-2.77a1.335 1.335 0 112.633.441l-.464 2.77-2.632-.44z" fill="#C66A53"/><path d="M385.76 109.029a1.336 1.336 0 011.45 1.549l-.463 2.77-1.068-.18c.283-1.316.937-3.189.082-4.14" fill="#D9D9D9"/><path fill="#A0EAD3" d="M382.15 140.837l4.568-27.313-2.704-.454-4.569 27.314z"/><path fill="#D9D9D9" d="M382.15 140.837l4.568-27.313-1.088-.183-4.568 27.314zM380.144 144.517l2.001-3.68-1.083-.182z"/><path d="M386.86 113.686c.032.006.064-.018.069-.052l.127-.763a.061.061 0 00-.047-.072l-3.034-.508c-.033-.006-.064.018-.07.052l-.127.763c-.005.034.016.066.048.072l3.034.508z" fill="#A7AABC"/><path d="M392.848 127.25c0 .622-4.096 1.127-9.15 1.127-5.052 0-9.149-.505-9.149-1.127h-.066l1.417 24.51h15.596l1.418-24.51h-.066z" fill="#F48EA6"/><path d="M112.129 27.533a3.498 3.498 0 01-4.84 1.03l-5.35-3.477-6.03-3.917-25.5 20.844L86.685 131l1.01 5.519 1.176 6.43a3.503 3.503 0 01-3.445 4.135 3.498 3.498 0 01-3.436-2.872l-1.407-7.693-1.01-5.519L63.155 41.24a3.502 3.502 0 011.23-3.344l29.079-23.768a3.49 3.49 0 014.115-.223l9.18 5.964 4.338 2.82a3.506 3.506 0 011.032 4.845" fill="#A7AABC"/><path d="M139.705 38.465l.007.003c.773.44 1.506.983 2.19 1.616.776.73 1.44 1.54 1.97 2.406 2.677 4.352 2.243 10.123-1.41 14.036-3.657 3.926-9.397 4.746-13.92 2.355a11.662 11.662 0 01-3.142-2.438c-4.064-4.433-4.09-11.323.077-15.79 3.744-4.017 9.655-4.784 14.228-2.188" fill="#FFF1DC"/><path d="M139.705 38.465l.007.003c.773.44 1.506.983 2.19 1.616.776.73 1.44 1.54 1.97 2.406l-.002.006-15.327 16.385a11.662 11.662 0 01-3.143-2.438c3.407-5.61 9.58-15.03 14.305-17.978" fill="#A7AABC"/><path d="M107.522 23.871c2.619-2.809 6.18-3.74 7.956-2.082 1.774 1.659 1.09 5.28-1.528 8.09-2.62 2.808-6.18 3.74-7.956 2.081-1.775-1.659-1.09-5.28 1.528-8.089" fill="#1D3B50"/><path d="M107.522 23.871c2.619-2.809 6.18-3.74 7.956-2.082 1.774 1.659 1.09 5.28-1.528 8.09-2.62 2.808-6.18 3.74-7.956 2.081-1.775-1.659-1.09-5.28 1.528-8.089" fill="#E52956"/><path d="M151.024 24.04a4.457 4.457 0 01.219 6.296L118.884 65.04l-.002.006-.028.034c-.02.014-.037.036-.057.05l-.171.19-1.653 1.772a4.444 4.444 0 01-6.296.216c-8.529-7.966-10.863-20.099-6.793-30.335a27.48 27.48 0 015.46-8.606l2.785-2.993a27.759 27.759 0 015.512-4.556s.05-.033.144-.083c10.296-6.377 23.966-5.363 33.239 3.304" fill="#F54F71"/><path d="M151.024 24.04a4.457 4.457 0 01.219 6.296L118.884 65.04c.878-1.153 21.934-29.005 15.789-39.747-5.86-10.239-15.605-5.27-16.888-4.558 10.296-6.377 23.966-5.363 33.239 3.304" fill="#1D3B50"/><path d="M151.024 24.04a4.457 4.457 0 01.219 6.296L118.884 65.04c.878-1.153 21.934-29.005 15.789-39.747-5.86-10.239-15.605-5.27-16.888-4.558 10.296-6.377 23.966-5.363 33.239 3.304" fill="#E52956"/><path d="M107.07 144.21v7.69H62.099v-7.69c0-4.248 3.44-7.69 7.68-7.69H99.39c4.243 0 7.68 3.442 7.68 7.69" fill="#F54F71"/></g></g></svg>