<svg width="24" height="24" xmlns="http://www.w3.org/2000/svg"><path d="M13 9H3c-.55 0-1 .45-1 1s.45 1 1 1h10c.55 0 1-.45 1-1s-.45-1-1-1zm0-4H3c-.55 0-1 .45-1 1s.45 1 1 1h10c.55 0 1-.45 1-1s-.45-1-1-1zm5.414 11l2.122-2.121a1.003 1.003 0 000-1.415 1.003 1.003 0 00-1.415 0L17 14.586l-2.121-2.122a1.003 1.003 0 00-1.415 0 1.003 1.003 0 000 1.415L15.586 16l-2.122 2.121a1.003 1.003 0 000 1.415 1.003 1.003 0 001.415 0L17 17.414l2.121 2.122a1.003 1.003 0 001.415 0 1.003 1.003 0 000-1.415L18.414 16zM3 15h6c.55 0 1-.45 1-1s-.45-1-1-1H3c-.55 0-1 .45-1 1s.45 1 1 1z" fill="#0E69FF" fill-rule="nonzero"/></svg>