<?xml version="1.0" encoding="UTF-8"?>
<svg width="14px" height="14px" viewBox="0 0 14 14" version="1.1" xmlns="http://www.w3.org/2000/svg" xmlns:xlink="http://www.w3.org/1999/xlink">
    <!-- Generator: sketchtool 52.2 (67145) - http://www.bohemiancoding.com/sketch -->
    <title>Icons / error</title>
    <desc>Created with sketchtool.</desc>
    <g id="desktop" stroke="none" stroke-width="1" fill="none" fill-rule="evenodd">
        <g id="no-results" transform="translate(-569.000000, -542.000000)">
            <g id="error" transform="translate(568.000000, 537.000000)">
                <g id="icons-/-error" transform="translate(0.000000, 4.000000)">
                    <g id="round-error-24px">
                        <g id="Bounding_Boxes">
                            <polygon id="Shape" points="0 0 16 0 16 16 0 16"></polygon>
                        </g>
                        <g id="Rounded" transform="translate(1.333333, 1.333333)" fill="#D70000" fill-rule="nonzero">
                            <path d="M6.66666667,0 C2.98666667,0 0,2.98666667 0,6.66666667 C0,10.3466667 2.98666667,13.3333333 6.66666667,13.3333333 C10.3466667,13.3333333 13.3333333,10.3466667 13.3333333,6.66666667 C13.3333333,2.98666667 10.3466667,0 6.66666667,0 Z M6.66666667,7.33333333 C6.3,7.33333333 6,7.03333333 6,6.66666667 L6,4 C6,3.63333333 6.3,3.33333333 6.66666667,3.33333333 C7.03333333,3.33333333 7.33333333,3.63333333 7.33333333,4 L7.33333333,6.66666667 C7.33333333,7.03333333 7.03333333,7.33333333 6.66666667,7.33333333 Z M7.33333333,10 L6,10 L6,8.66666667 L7.33333333,8.66666667 L7.33333333,10 Z" id="Shape"></path>
                        </g>
                    </g>
                </g>
            </g>
        </g>
    </g>
</svg>
