<?xml version="1.0" encoding="UTF-8"?>
<svg width="404px" height="356px" viewBox="0 0 404 356" version="1.1" xmlns="http://www.w3.org/2000/svg" xmlns:xlink="http://www.w3.org/1999/xlink">
    <!-- Generator: sketchtool 53.2 (72643) - https://sketchapp.com -->
    <title>AEBDE243-B45C-42C3-9F9C-EE25853C83AD</title>
    <desc>Created with sketchtool.</desc>
    <defs>
        <polygon id="path-1" points="0.363641243 0.473230769 108.782308 0.473230769 108.782308 23.8209231 0.363641243 23.8209231"></polygon>
        <polygon id="path-3" points="0.47861413 0.500579125 113.767043 0.500579125 113.767043 183.978936 0.47861413 183.978936"></polygon>
        <polygon id="path-5" points="0 0.340332512 75.557538 0.340332512 75.557538 124.438855 0 124.438855"></polygon>
    </defs>
    <g id="desktop" stroke="none" stroke-width="1" fill="none" fill-rule="evenodd">
        <g id="collection-inacessible" transform="translate(-54.000000, -149.000000)">
            <g id="sad-teacher" transform="translate(54.000000, 149.000000)">
                <g id="Group-3" transform="translate(187.000000, 0.000000)">
                    <mask id="mask-2" fill="white">
                        <use xlink:href="#path-1"></use>
                    </mask>
                    <g id="Clip-2"></g>
                    <path d="M86.5678616,2.08369231 C94.2261893,3.35815385 101.709624,5.368 108.782308,7.99507692 C95.9178446,8.08984615 83.1716186,10.64 70.9783983,13.4935385 C59.5635734,16.1649231 48.3538164,19.3384615 36.7437768,21.5212308 C24.7457712,23.3292308 12.5433136,23.4756923 0.363641243,23.8209231 C5.11099153,19.1409231 10.6835395,14.9409231 17.4649407,11.4196923 C36.1353475,1.72492308 62.3840254,-1.94030769 86.5678616,2.08369231" id="Fill-1" fill="#E8EFFF" mask="url(#mask-2)"></path>
                </g>
                <path d="M62.9894704,154.6795 C62.657919,158.935733 61.8855842,163.158433 60.3993859,167.285501 C59.7626273,168.561004 59.0506914,169.811668 58.2642207,171.038735 C57.4578312,172.296851 56.5724091,173.530128 55.6085969,174.737944 C55.524424,174.824882 55.4396085,174.912441 55.3547931,175 C51.3119224,166.714194 47.4772351,158.352007 46.3527876,149.847614 C45.358776,142.324999 46.4491688,135.237074 49.8289368,128.283281 C50.4252152,127.056214 51.1101644,125.845914 51.8709334,124.657969 C54.3023102,120.864992 57.5227279,117.286254 61.2128433,114 C60.8343864,121.407733 61.2199113,128.753367 61.9074306,136.15489 C62.479935,142.322515 63.0877792,148.49635 62.9894704,154.6795" id="Fill-4" fill="#E8EFFF"></path>
                <g id="Group-8" transform="translate(290.000000, 128.000000)">
                    <mask id="mask-4" fill="white">
                        <use xlink:href="#path-3"></use>
                    </mask>
                    <g id="Clip-7"></g>
                    <path d="M11.3798641,139.957091 C14.5142446,126.561024 18.0228424,113.185401 23.2154185,100.137508 C25.8975163,93.9155825 29.0114511,87.8033131 32.6805163,81.8812391 C35.4103207,77.474532 38.4480489,73.1719057 41.8426467,69.0111515 C47.321462,62.8691448 53.5995163,57.1775354 60.0553859,51.58567 C72.6641576,40.6652391 85.6285598,29.6754209 93.886125,16.5085791 C93.9610924,16.3896296 94.0354402,16.2700606 94.109788,16.1498721 C97.177875,11.1973603 99.6809185,5.88676094 101.188321,0.500579125 C104.032745,1.73529966 106.945321,2.87523232 109.934723,3.91727946 C116.538049,6.21820875 113.523245,15.6245118 109.015288,21.8699798 C101.436766,49.3696162 89.7300815,76.1425455 74.017288,101.506667 C71.902712,104.918411 69.7168859,108.304135 67.4579511,111.664458 C56.9953533,127.227636 44.9410924,142.197306 31.580788,156.543111 C22.4087446,166.393616 12.3160272,175.723717 0.47861413,183.978936 C0.808842391,183.046545 1.11924457,182.111677 1.41291848,181.175569 C5.67057065,167.596121 8.16741848,153.686465 11.3798641,139.957091" id="Fill-6" fill="#E8EFFF" mask="url(#mask-4)"></path>
                </g>
                <path d="M63.9312044,95.0433124 C66.0782707,89.3754941 68.6100534,83.8109953 71.9536003,78.4795807 C72.583589,77.4740595 73.2434587,76.4765333 73.9344542,75.4882321 C82.6216999,63.0677396 94.4862801,52.2794508 109.274207,43.5138893 C124.021671,34.7716977 141.651395,29.2662387 160.216764,26.7896432 C169.07458,25.6082327 178.030753,25.251534 187,25 C183.782824,28.135258 180.94165,31.4851502 178.357576,34.9924818 C172.44863,43.0114362 167.950934,51.5549836 161.35286,59.3051839 C158.623117,62.1919829 155.561571,64.8998176 152.109083,67.3924031 C151.123014,68.1045703 150.111421,68.7995177 149.076795,69.4784751 C148.747483,69.6943393 148.412568,69.9065134 148.078276,70.1199176 C146.117965,71.2496683 144.150184,72.367734 142.103343,73.428605 C133.642694,77.8116932 124.412612,81.4869192 115.151404,85.0815805 C97.1687123,92.0618038 79.2544973,99.1004519 65.3069702,109.613222 C63.4587128,111.006191 61.6795549,112.471116 60,114 C60.0267683,113.462492 60.0572717,112.924984 60.0927553,112.386246 C60.4743591,106.522859 61.7897407,100.697601 63.9312044,95.0433124" id="Fill-9" fill="#E8EFFF"></path>
                <path d="M375.606565,120.421001 C374.500732,119.660176 373.464709,118.851528 372.358876,118.091945 C372.853721,118.431676 373.215124,118.68073 373.475829,118.860223 C373.784721,119.078222 374.025039,119.24343 374.025656,119.24343 C374.026274,119.242188 373.872446,119.134741 373.475829,118.860223 C373.07983,118.581978 372.573247,118.219266 372.316249,118.013067 C371.807813,117.605017 371.304319,117.192619 370.807621,116.777115 C368.65588,114.975358 366.622754,113.109008 364.719363,111.184276 C362.808558,109.253954 361.181933,107.232955 359.406423,105.251705 C360.192244,106.128051 360.480749,106.441697 360.486309,106.43176 C360.4999,106.410022 359.081468,104.749871 358.677438,104.184066 C357.879879,103.06674 357.124947,101.93575 356.414496,100.794824 C355.093675,98.6763145 353.923592,96.5199194 352.916605,94.3361966 C352.642309,93.7412005 352.390253,93.1437201 352.133255,92.5468607 C351.803976,91.5779735 351.46852,90.6115706 351.186193,89.6377147 C348.587794,80.6860664 348.628568,71.6692045 347.186661,62.6896075 C346.377982,57.652015 344.925573,52.7100691 342.849819,47.7718498 C340.961255,43.2789458 338.058289,39.10652 334.74635,34.9670115 C325.682228,23.6372419 311.447873,14.148358 295,8.00275608 C295.819181,7.99654526 296.63898,8.00089283 297.458161,8.01517771 C304.65287,8.14187834 311.730201,8.44123965 318.706832,9.84798936 C326.491525,11.4174624 333.4002,13.3887753 340.187172,16.6065988 C346.686874,19.6890265 352.304999,23.3732822 356.815438,28.1121344 C360.683999,32.1764921 363.609205,36.9271448 365.170962,41.7815182 C366.921762,47.2246769 367.90342,52.5454825 368.436567,58.1178262 C368.802295,61.9498993 369.150725,65.7919098 370.067516,69.5730542 C370.551859,70.8363341 371.126397,72.0747707 371.814608,73.2827743 C373.055736,74.7547376 374.477256,76.1267067 376.001329,77.446505 C378.827071,79.6948202 381.690499,81.9195343 384.365502,84.270328 C387.659525,87.164568 390.262866,90.5109554 392.171817,94.0324878 C395.898906,100.904134 395.999605,108.638463 392.132279,115.297699 C392.284872,118.480742 392.078532,121.690491 391.487313,124.953654 C391.243288,126.303885 390.930072,127.654116 390.555695,129 L390.427196,128.943482 C385.150088,126.411332 380.1794,123.568021 375.606565,120.421001" id="Fill-11" fill="#E8EFFF"></path>
                <path d="M238.0695,313.6405 C238.3605,313.5545 238.6475,313.4585 238.9305,313.3595 C238.5355,313.4895 238.2045,313.5975 238.0695,313.6405" id="Fill-13" fill="#C7D9FA"></path>
                <g id="Group-17" transform="translate(0.000000, 176.000000)">
                    <mask id="mask-6" fill="white">
                        <use xlink:href="#path-5"></use>
                    </mask>
                    <g id="Clip-16"></g>
                    <path d="M6.2635122,88.159298 C1.4977561,79.0767857 -0.937333333,69.7953818 0.334276423,60.5804803 C1.03681301,55.4936576 2.96647154,50.8144704 5.71482927,46.3926724 C8.1140813,42.531835 11.1386341,38.8680419 14.516,35.3015394 C25.1683577,24.0527709 41.2982764,15.9714901 53.8055285,5.79538177 C55.9594797,4.04353448 57.9966504,2.23011084 59.8836748,0.340332512 C62.2662439,4.40375616 64.6902114,8.45424877 66.9424065,12.4887315 C67.7054959,13.8551108 68.4457236,15.2239532 69.1661789,16.5940271 C69.1365203,16.5429187 69.1192195,16.5133621 69.1173659,16.5158251 C69.1124228,16.52383 69.2928455,16.8828202 69.8470894,17.9246921 C70.1949593,18.6500616 70.5366504,19.3760468 70.8635122,20.1026478 C72.3402602,23.3902094 73.5877724,26.6943966 74.4657886,29.9942734 C74.8161301,31.3132389 75.104065,32.6303571 75.3252683,33.9443966 C75.3042602,33.8815887 75.2875772,33.8501847 75.2789268,33.8637315 C75.2535935,33.9043719 75.2993171,34.3366379 75.5254634,35.5182882 C75.5514146,36.1365148 75.5643902,36.7541256 75.5538862,37.3680419 C75.4976585,40.4296182 74.9421789,43.4056034 74.0443902,46.3083128 C72.8802927,49.1808498 71.4134309,51.9647167 69.7272195,54.6783867 C69.545561,54.9702586 69.3614309,55.2615148 69.1748293,55.5521552 C64.6061789,62.6654557 58.7412033,69.2886084 53.3353171,76.0810961 C50.7439024,79.3372537 48.3539187,82.6241995 46.2543415,86.0022783 C43.5943415,90.2812192 41.4002276,94.7067118 39.856748,99.3945197 C37.2189919,107.406835 38.0222439,116.022599 41.9149268,124.438855 C35.4697561,120.050924 29.4521626,115.336638 24.1395772,110.388978 C16.8163902,103.569397 10.3600976,95.9653325 6.2635122,88.159298" id="Fill-15" fill="#E8EFFF" mask="url(#mask-6)"></path>
                </g>
                <path d="M64.534,204 C64.509,203.780534 64.486,203.581107 64.466,203.391221 C64.471,203.26145 64.476,203.130725 64.48,203 C64.489,203.333969 64.496,203.667939 64.534,204" id="Fill-18" fill="#C7D9FA"></path>
                <path d="M64.4371303,202 C64.4961303,202.144082 64.5711303,202.497999 64.5621303,202.779302 C64.5591303,202.853059 64.5511303,202.926244 64.5481303,203 C64.5441303,202.915952 64.5421303,202.83076 64.5341303,202.747856 C64.5071303,202.498571 64.4731303,202.249285 64.4371303,202" id="Fill-20" fill="#C7D9FA"></path>
                <path d="M61.2275,189 C61.4095,189.333088 61.5815,189.667647 61.7725,190 C61.6315,189.754412 61.5075,189.538235 61.3965,189.344118 C61.3445,189.241176 61.2975,189.138235 61.2465,189.036765 L61.2275,189 Z" id="Fill-22" fill="#C7D9FA"></path>
                <path d="M60.223,188 C60.336,188.183459 60.6,188.650376 60.777,189 C60.758,188.966165 60.741,188.931579 60.722,188.897744 C60.56,188.597744 60.388,188.298496 60.223,188" id="Fill-24" fill="#C7D9FA"></path>
                <path d="M60.1655918,188.055256 C60.3305918,188.263856 60.5025918,188.472982 60.6645918,188.682633 C60.6835918,188.706278 60.7005918,188.730448 60.7195918,188.754093 L60.7375918,188.780365 C60.7895918,188.853402 60.8365918,188.926438 60.8885918,189 C60.2965918,188.260704 60.1045918,188.005339 60.1115918,188.000085 C60.1135918,187.998508 60.1345918,188.019001 60.1655918,188.055256" id="Fill-26" fill="#9EBDF7"></path>
                <path d="M64.4776141,203.049701 C64.5136141,203.24161 64.5476141,203.433518 64.5746141,203.625426 C64.5826141,203.689249 64.5846141,203.754833 64.5886141,203.819536 C64.5846141,203.879837 64.5796141,203.939699 64.5746141,204 C64.4076141,203.288266 64.3916141,203.026813 64.4266141,203.002164 C64.4396141,202.993361 64.4566141,203.011848 64.4776141,203.049701" id="Fill-28" fill="#9EBDF7"></path>
                <path d="M374.945499,119.807999 C374.944499,119.808999 374.554499,119.541999 374.054499,119.191999 C374.697499,119.632999 374.946499,119.805999 374.945499,119.807999" id="Fill-30" fill="#9EBDF7"></path>
                <path d="M238.719028,313.308493 C238.899184,313.255285 239.076864,313.195891 239.252067,313.13464 C239.007525,313.21507 238.802605,313.281889 238.719028,313.308493 M264.178021,301.367092 C264.843547,300.918539 265.083755,300.759535 265.081898,300.763247 C265.078802,300.767578 264.619435,301.07878 264.178021,301.367092 M36.4319938,291.622052 C42.2081388,308.396067 55.7093358,314.239627 78.2845903,316.260898 C95.7126992,317.821861 118.687269,328.354498 135.24679,332.646374 C154.206536,337.560037 169.646116,341.328499 188.605244,346.241543 C193.964739,347.631129 207.808295,351.345145 216.28926,349.492777 C221.524317,349.114137 225.1293,346.321355 231.816132,343.914019 C250.616153,337.144894 263.47473,328.039583 279.084561,318.960876 C283.021997,316.671092 286.774325,314.26623 290.366926,311.762378 C290.696284,310.831245 291.007069,309.897636 291.300519,308.963409 C295.554932,295.402268 298.04988,281.510745 301.259881,267.799881 C304.391257,254.421873 307.897185,241.064282 313.08581,228.03398 C315.765867,221.820442 318.878052,215.717032 322.543706,209.802323 C325.272052,205.401557 328.307469,201.10535 331.699484,196.950205 C337.173511,190.816478 343.446788,185.131923 349.898364,179.548215 C362.497542,168.642506 375.45146,157.667504 383.703361,144.518413 C383.778271,144.399005 383.852562,144.279597 383.926854,144.16019 C386.992606,139.213736 389.493126,133.910296 391,128.531994 L390.871228,128.475693 C385.582929,125.95328 380.601701,123.12152 376.01855,119.985982 C374.910372,119.228701 373.872771,118.422544 372.764593,117.665882 C373.259868,118.004307 373.622038,118.252403 373.883295,118.431824 C373.487075,118.154031 372.978799,117.792714 372.721256,117.587308 C372.211742,117.180826 371.7078,116.770014 371.210048,116.356108 C369.053126,114.561897 367.015688,112.702104 365.10826,110.784774 C363.194022,108.861874 361.563948,106.848646 359.784673,104.875014 C360.571541,105.747991 360.860658,106.060431 360.866849,106.050532 C360.87985,106.028877 359.45841,104.37511 359.053523,103.81148 C358.254273,102.698451 357.49774,101.572429 356.785783,100.435889 C355.46216,98.324907 354.290215,96.1768035 353.281093,94.0020961 C353.006215,93.4093878 352.753006,92.8135861 352.495463,92.2190217 C352.165486,91.25386 351.829318,90.2911731 351.546392,89.3210618 C348.942483,80.4038337 348.983344,71.4222614 347.538379,62.4765734 C346.728604,57.4583512 345.272496,52.5354077 343.19234,47.6167951 C341.299771,43.1405483 338.390649,38.984166 335.072307,34.8605744 C325.988963,23.5749879 311.724423,14.1219713 295.24167,8 C282.308182,8.09527879 269.494798,10.6591443 257.236123,13.5280256 C245.761219,16.2137737 234.491855,19.4043756 222.819461,21.5988811 C210.758276,23.4172211 198.490933,23.5644701 186.245877,23.9115571 C183.046401,27.0650374 180.220857,30.4356791 177.650379,33.9640876 C171.77456,42.0306123 167.301608,50.6255012 160.739833,58.4222755 C158.025107,61.3270411 154.980404,64.0511482 151.54691,66.5587126 C150.566265,67.2745408 149.560238,67.9742831 148.531304,68.6567019 C148.203803,68.8738633 147.870731,69.0879312 147.538277,69.3019991 C145.588751,70.4391576 143.631796,71.5639422 141.596215,72.6311884 C133.182112,77.0406163 124.002808,80.7373094 114.79255,84.3535724 C96.9081693,91.3763613 79.0931268,98.4566887 65.2223308,109.033253 C63.3842414,110.434593 61.6148713,111.908321 59.9439372,113.446393 C59.579291,120.826786 59.9507473,128.145311 60.6137967,135.519517 C61.1647902,141.663762 61.7504529,147.81543 61.6557315,153.975761 C61.3362791,158.215666 60.5921284,162.4234 59.1601645,166.535237 C58.5466426,167.806033 57.8606867,169.052082 57.103535,170.274001 C56.3259532,171.528093 55.472842,172.756818 54.5442013,173.960176 C54.4631,174.046793 54.3813797,174.134029 54.2996593,174.220646 C55.8981594,177.608611 57.5307097,180.982965 59.0307739,184.349276 C59.5390499,185.489528 60.0293722,186.632873 60.5042171,187.778075 C60.5741747,187.929655 60.7376155,188.313863 60.846576,188.601556 C60.959251,188.881824 61.0657352,189.16333 61.1839821,189.442979 C61.0973089,189.236335 61.0205413,189.054439 60.9512028,188.890486 C61.176553,189.498043 61.3969503,190.104981 61.606204,190.714394 C62.5509411,193.470054 63.3173792,196.24675 63.7971769,199.032727 C63.9897151,200.146375 64.1327257,201.260642 64.2249707,202.373671 C64.2608781,202.529582 64.3073102,202.912553 64.3023574,203.217569 C64.3005001,203.29738 64.2955474,203.375955 64.2936901,203.455766 C64.299262,203.672309 64.3029765,203.88947 64.3271212,204.104157 C64.3110247,203.961857 64.2974047,203.83255 64.2844037,203.70943 C64.2670691,204.236557 64.240448,204.763065 64.1946351,205.28648 C63.9668086,207.900459 63.3570012,210.457519 62.4865554,212.963846 C61.4124277,215.452231 60.1086162,217.876272 58.6388876,220.247105 C58.4803996,220.502007 58.3200543,220.756908 58.1584708,221.010573 C54.191937,227.230298 49.2515686,233.075713 44.6566546,239.050435 C42.453919,241.913748 40.4053377,244.79686 38.5759156,247.748646 C36.2586476,251.48741 25.5514207,261.182955 32.0828601,280.818427 C33.6832175,287.246033 35.8933823,290.056139 36.4319938,291.622052" id="Fill-32" fill="#B2D2F9"></path>
                <path d="M238.0695,313.6405 C238.3605,313.5545 238.6475,313.4585 238.9305,313.3595 C238.5355,313.4895 238.2045,313.5975 238.0695,313.6405" id="Fill-34" fill="#9EBDF7"></path>
                <path d="M265,301.988536 C265.736293,301.262536 266.002043,301.006536 265.999988,301.011536 C265.996564,301.019536 265.48835,301.522536 265,301.988536" id="Fill-36" fill="#9EBDF7"></path>
                <path d="M218.99938,69 C196.356479,69 178,108.446072 178,140.294342 C178,157.146036 183.139492,168.491897 191.33416,175.442392 L243.213267,178 C253.390577,171.431442 260,159.402312 260,140.294342 C260,108.446072 241.644141,69 218.99938,69" id="Fill-38" fill="#31183F"></path>
                <path d="M253.208223,160.410453 C236.832663,158.173558 229.956792,155.322071 229.956792,139 L221.680764,139 L211.53786,139 C211.53786,155.322071 205.238086,156.321168 187.572989,152.075621 C162.685245,146.095804 170.272692,174.46733 168,189.370732 L225.485363,201 L282,193.522768 C279.72793,178.619365 278.610539,163.881453 253.208223,160.410453" id="Fill-40" fill="#F1C27D"></path>
                <path d="M224.266468,139 L222.243151,139 L212.016278,139 C212.016278,139.245795 211.533164,144.90518 211.533164,144.90518 C209.535537,155.355433 203.182983,155.585371 187.853014,151.963096 C186.492021,151.642282 185.212487,151.435521 184,151.322687 C204.071513,157.933537 216.748423,163.619148 222.241271,147.85655 C222.722506,147.898024 223.175544,147.904733 223.595998,147.877287 C225.579839,147.744936 228.143293,146.737359 231,145.024723 C230.722413,143.252925 230.587692,141.256069 230.587692,139 L224.266468,139 Z" id="Fill-42" fill="#C2A875"></path>
                <path d="M213.320354,57.74277 C197.046422,61.0860003 187.925826,71.6337614 188.000454,100.289133 C188.062849,124.212922 204.802904,142 219.423996,142 C232.785578,142 252,122.328239 252,94.9388469 C252,65.3051047 232.400812,53.8224567 213.320354,57.74277" id="Fill-44" fill="#F1C27D"></path>
                <path d="M272.164049,196.484181 C287.354881,159.391712 252.724813,160.708546 249.765793,159.900855 C241.301808,168.572385 226.278187,198.27671 226.278187,198.27671 C226.278187,198.27671 209.487701,163.985146 196.800703,153.756457 C196.800703,153.756457 162.90203,145.703703 155.181205,157.125966 C149.051365,166.196386 168.77486,202.509036 168.77486,202.509036 C188.014681,247.072646 184.438219,253.266596 169.202178,304 L269.761781,304 L257.807416,258.551274 C257.069828,248.61494 255.811409,241.022396 259.589144,233.538866 C259.964441,233.044589 260.332925,232.575087 260.695835,232.12231 C260.695835,232.12231 262.944517,218.993614 272.164049,196.484181" id="Fill-46" fill="#FFFFFF"></path>
                <path d="M266.252285,179 C266.377576,179.803271 271.845938,219.008666 253.873173,219.743978 C235.671428,220.488473 217.948628,221.476031 196.968264,217.0011 C175.9879,212.528005 171.653328,194.351543 171.653328,194.351543 L169,201.714455 C171.814416,206.716533 172.465559,211.238608 174.662779,215.38721 C175.949016,217.83131 177.127245,220.316431 178.427678,222.751347 C181.431574,228.375471 183.283164,228.375471 192.458408,231.767945 C207.837096,238.535751 256.607971,232.609176 259.505709,232.386317 C260.825275,230.657324 262.245445,229.015884 263.68845,227.384851 C264.201958,226.805051 268.555046,221.711747 268.119922,221.764401 C271.820016,215.61313 272.698286,206.984699 266.252285,179" id="Fill-48" fill="#E6F1FC"></path>
                <path d="M197.565855,94.1387505 C197.772881,89.7601032 201.159688,86.3440377 205.115509,86.5254379 C209.071329,86.7068381 212.120943,90.4179081 211.913917,94.7965553 C211.70689,99.1758134 208.321322,102.591268 204.365502,102.409868 C200.409062,102.228468 197.359448,98.5173977 197.565855,94.1387505 M222.662566,94.2022711 C222.868973,89.8236238 226.25578,86.4081691 230.2116,86.5895693 C234.167421,86.7709695 237.217655,90.4814287 237.010628,94.8606867 C236.803601,99.2399448 233.417414,102.654789 229.461594,102.473389 C225.505773,102.292599 222.455539,98.5815291 222.662566,94.2022711 M195.012733,94.0214816 C194.740003,99.7890316 198.881775,104.680119 204.245873,104.926262 C209.61059,105.171793 214.211044,100.36255 214.483154,94.5956103 C214.497411,94.2767857 219.879483,94.574844 220.108824,94.7305916 C220.162131,100.211688 224.180555,104.753412 229.342584,104.990393 C234.706682,105.235925 239.29164,100.744895 239.56437,94.9779556 C239.605279,94.1027147 239.533998,93.2519049 239.383376,92.4304123 L249.880991,92.9117031 L250,90.3953094 L238.588121,89.8724859 C237.08067,86.5749107 233.992006,84.2411387 230.32999,84.0731755 C225.609287,83.8569611 221.495407,87.310284 220.390232,92.0731088 C220.057378,91.9637801 214.619519,91.7158053 214.342451,91.7823798 C213.203804,87.649875 209.470506,84.2032707 205.233898,84.0096549 C199.869801,83.7635125 195.284223,88.2539316 195.012733,94.0214816" id="Fill-50" fill="#434656"></path>
                <polygon id="Fill-52" fill="#434656" points="186.369407 87 198 88.6510819 197.63123 91 186 89.3495234"></polygon>
                <path d="M228.009312,93.3780796 C227.879969,95.8626572 229.113181,97.930724 230.76522,97.9983315 C232.416575,98.0653354 233.861254,96.1059237 233.990598,93.621346 C234.120626,91.1367684 232.886729,89.0687016 231.235374,89.0016977 C229.583335,88.9340902 228.138656,90.8941056 228.009312,93.3780796" id="Fill-54" fill="#3D4564"></path>
                <path d="M202.009312,93.378654 C201.879969,95.8632316 203.113181,97.9312984 204.76522,97.9983023 C206.416575,98.0659098 207.861254,96.1058944 207.990598,93.6213168 C208.120626,91.1373428 206.886729,89.0686724 205.235374,89.0016685 C203.583335,88.9346646 202.138656,90.8940763 202.009312,93.378654" id="Fill-56" fill="#3D4564"></path>
                <path d="M210,77.012837 C201.396557,76.6781244 197,83 197,83" id="Stroke-58" stroke="#4F3A60" stroke-width="2" stroke-linecap="round"></path>
                <path d="M241,84 C237.411523,77.0194511 231.267936,76.8808662 228,77.0301115" id="Stroke-60" stroke="#4F3A60" stroke-width="2" stroke-linecap="round"></path>
                <path d="M194.01898,112.821887 C194.269091,116.960013 196.926209,120.171015 199.953441,119.992937 C202.980042,119.814859 205.231676,116.316194 204.980933,112.177445 C204.730822,108.039319 202.074336,104.829562 199.047103,105.007017 C196.019871,105.185095 193.768868,108.683761 194.01898,112.821887" id="Fill-62" fill="#E8B77C"></path>
                <path d="M233.011422,112.251314 C232.817398,116.3912 235.118499,119.858844 238.149556,119.995782 C241.181245,120.133343 243.794553,116.889156 243.988576,112.749271 C244.182599,108.609385 241.88213,105.142363 238.850441,105.00418 C235.819384,104.867242 233.205445,108.111429 233.011422,112.251314" id="Fill-64" fill="#E8B77C"></path>
                <path d="M228.5525,128.463 C228.5135,128.48 228.4735,128.491 228.4335,128.507 C228.5125,128.525 228.5665,128.537 228.5665,128.537 L228.5525,128.463 Z" id="Fill-66" fill="#A72E69"></path>
                <path d="M225.102532,123.117988 C223.216262,122.404565 220.177202,125.159552 219.494434,125.159552 C218.805481,125.220774 217.714537,124.241223 216.773875,123.652118 C215.834451,123.063013 214.611158,122.92745 213.758935,123.414102 C213.758935,123.414102 210.852223,124.284328 210,127.389155 C211.338324,129.022157 212.65624,130.79197 219.228501,131 C227.65982,130.941277 227.854013,129.268294 229,128.093207 C229,128.093207 228.636352,124.453626 225.102532,123.117988" id="Fill-68" fill="#A72E69"></path>
                <path d="M230,128 C227.21278,125.641245 213.672826,125.275424 210,127.403999" id="Stroke-70" stroke="#840D4C" stroke-linecap="round"></path>
                <path d="M212,111.742588 C212,111.742588 216.62585,116.013219 219.119357,115.999969 C221.613482,115.985515 224.278293,112.609241 224.278293,112.609241 L225,111 C225,111 219.121212,115.998765 212.572047,111.36497" id="Fill-72" fill="#C2A875"></path>
                <path d="M353.253374,145.817218 C353.591588,144.896897 353.932413,143.959958 353.991828,142.982756 C354.051244,142.006193 353.790729,140.965718 353.076433,140.281229 C352.94846,140.158519 352.8009,140.046036 352.625264,140.011523 C352.153855,139.918852 351.788872,140.40266 351.59626,140.833422 C350.685435,142.874107 350.641689,145.185776 349.903888,147.29165 C348.462238,151.408172 344.626325,154.190866 341,156.708329 C341.574571,157.266274 342.538936,156.917958 343.251926,156.54152 C344.748421,155.752217 346.244264,154.962913 347.74076,154.172971 C350.8787,152.517031 352.104233,148.94759 353.253374,145.817218" id="Fill-74" fill="#F1C27D"></path>
                <path d="M348.991926,150.226735 C349.989001,148.156853 350.361998,145.740123 349.577782,143.590535 C349.252233,142.698194 348.375096,141.731751 347.442603,142.068636 C346.904855,142.263544 346.620164,142.841417 346.586555,143.385041 C346.552287,143.928043 346.710448,144.463572 346.789529,145.002837 C347.193499,147.746489 345.524238,150.406075 343.468799,152.381305 C341.412702,154.355912 338.921001,155.908324 337,158 C337.264261,157.712309 340.045924,157.745312 340.608056,157.620771 C341.899707,157.33557 343.45496,156.926451 344.515959,156.146198 C346.301206,154.832907 348.064705,152.153394 348.991926,150.226735" id="Fill-76" fill="#F1C27D"></path>
                <path d="M342.653274,144.962834 C342.585809,144.690723 342.501171,144.407087 342.303684,144.215649 C341.886629,143.812285 341.182542,144.025492 340.77346,144.43846 C339.827727,145.393089 339.889672,146.952765 339.800742,148.323563 C339.51003,152.787462 336.943303,156.747475 334,160 C335.498331,159.947499 336.985008,159.542854 338.317744,158.825121 C339.567681,158.152847 341.523546,154.028927 342.113556,152.520473 C343.042729,150.145105 343.273336,147.454089 342.653274,144.962834" id="Fill-78" fill="#F1C27D"></path>
                <path d="M330.290271,151.471643 C330.032153,150.749312 329.529638,149.876605 328.778808,150.014505 C328.331185,150.097244 328.033858,150.534583 327.89271,150.969295 C327.335958,152.689755 328.455343,154.578978 328.05869,156.343435 C327.784888,157.563517 326.841285,158.497294 326.174752,159.55518 C325.169723,161.148904 324.784179,163.126777 325.116793,164.98448 C325.168416,165.274069 332.471536,161.43324 332.898248,159.964282 C333.530148,157.790066 331.042409,153.577565 330.290271,151.471643" id="Fill-80" fill="#F1C27D"></path>
                <path d="M323,198.054206 C324.415825,195.292292 324.04114,192.017418 323.739396,188.939648 C323.009975,181.513946 322.908978,174.028255 323.437653,166.586026 C323.767451,161.938153 329.721274,158.329669 334.074734,156.473091 C338.426948,154.617124 343.09462,153.406339 347.135115,150.961507 C350.732346,148.785399 353.727337,145.658659 355.718595,142.000593 C356.433677,141.976108 356.977938,142.714332 356.999134,143.415828 C357.019708,144.117937 356.66996,144.7723 356.32894,145.389935 C354.029081,149.557902 351.622614,153.852579 347.800322,156.748547 C344.130772,159.530048 340.644513,161.993244 337.109002,164.937571 C336.181328,165.710074 335.23308,166.523589 334.71251,167.60338 C334.19007,168.685007 334.150793,169.926398 334.187576,171.123105 C334.497424,181.075663 339.426317,190.738074 338.132685,200.613505 C338.058496,201.181558 337.937549,201.79552 337.499897,202.173814 C337.113366,202.508035 336.568482,202.58149 336.05664,202.640866 C333.5498,202.931626 330.994956,203.219938 328.514923,202.755334 C326.034891,202.29073 324.130291,200.270714 323,198.054206" id="Fill-82" fill="#F1C27D"></path>
                <path d="M268.476838,198.251542 C280.123472,209.170816 299.603654,222.130726 312.776632,228.019332 C318.651794,230.644786 324.816424,233.188116 331.239663,232.98903 C333.917093,232.906284 336.713642,232.272318 338.695483,230.455654 C341.755579,227.649778 342.031469,222.968756 341.997523,218.798516 C341.896302,206.284684 340.926057,193.330995 339.118885,180.949057 C332.678365,181.889119 325.663845,180.310114 320.625611,176.157294 C319.141237,185.496318 317.343322,194.592706 316.226184,203.98399 C300.654135,191.376836 284.896308,177.2784 270.330918,163.502234 C269.1607,163.605511 268.209589,161.821198 266,162.014685" id="Fill-84" fill="#FFFFFF"></path>
                <path d="M320,177 C320,177 319.464787,178.657656 318.810325,181.16044 C318.476431,182.410624 318.110269,183.873298 317.746212,185.444631 C317.570146,186.231806 317.369529,187.041921 317.201178,187.870749 C317.02862,188.698974 316.853956,189.540479 316.678591,190.382588 C316.522868,191.227111 316.366442,192.072238 316.213524,192.903481 C316.053591,193.734724 315.942761,194.558723 315.81229,195.353142 C315.570988,196.945 315.381594,198.435442 315.263047,199.717017 C315.00491,202.278959 315,204 315,204 C315,204 315.117845,203.581058 315.302329,202.848212 C315.484007,202.115367 315.742845,201.068013 316.030443,199.809981 C316.320847,198.553156 316.653339,197.086257 316.986532,195.512509 C317.150673,194.72473 317.339366,193.914615 317.5,193.085183 C317.667649,192.257563 317.838103,191.416661 318.008558,190.57576 C318.16849,189.733047 318.32702,188.889731 318.484147,188.060299 C318.646886,187.231471 318.77385,186.41049 318.914843,185.617882 C319.183502,184.032061 319.40867,182.547656 319.570707,181.270307 C319.910915,178.718626 320,177 320,177" id="Fill-86" fill="#FFFFFF"></path>
                <path d="M270,164 C267.665661,166.632385 267.105017,170.508335 266.540229,174.033709 C265.215878,182.297377 266.576935,190.741848 267.935623,199 C267.24947,187.397892 267.695854,175.376563 270,164" id="Fill-88" fill="#E6F1FC"></path>
                <path d="M310,221 C310.70522,218.433706 309.688604,215.252226 310.553448,212.430144 C311.381002,209.729157 312.850975,206.852679 315,205 C313.459375,210.363769 311.482402,215.606443 310,221" id="Fill-90" fill="#E6F1FC"></path>
                <path d="M288,206.223024 C291.137755,206.544534 294.318212,206.465033 297.434916,205.987445 C301.687756,205.335657 305.856994,203.94498 310.162761,204.001683 C311.492563,204.01922 312.801915,204.163607 314,204.692052 C311.990562,206.77076 304.264961,206.570839 301.268547,206.849676 C296.62236,207.282253 292.561984,206.69009 288,206.223024" id="Fill-92" fill="#E6F1FC"></path>
                <path d="M256.790611,356 L181.172733,356 C181.172733,356 166.21467,313.594594 169.461175,303 L270.436455,303 C274.327928,312.128134 256.790611,356 256.790611,356" id="Fill-94" fill="#006CDD"></path>
                <path d="M263.55577,103.438986 C260.864017,91.0474466 261.560808,77.910046 256.630955,66.2310541 C247.786888,45.2796916 230.329582,45.7343648 218.309949,48.1385183 C210.250079,47.3722985 206.073646,46.7843697 202.075719,47.5086387 C194.647393,48.8547673 180.738054,47.620302 173.320192,77.5022591 C170.231417,89.9468539 167.966232,144.693324 172.793906,155.29023 C179.112416,169.159303 177.847483,181.305307 192.029505,183.977205 C195.595323,184.649653 181.746308,170.267299 190.336772,164.235631 C200.531331,157.07746 194.636929,108.832137 193.591743,105.878304 C192.321886,102.288422 191.725428,97.791045 191.844843,93.0555349 C195.679036,76.3776063 204.989066,62.7676417 223.318591,61.2117589 C233.22754,67.248979 240.265,74.7328864 245.09452,82.9157688 C245.121603,92.1646963 251.427187,117.968168 249.325736,128.125207 C246.944215,139.638247 241.939266,142.688937 243.273139,158.78634 C249.913576,160.758646 264.279029,162.819173 264.279029,162.819173 C264.279029,162.819173 268.595805,132.309804 263.55577,103.438986 Z" id="Fill-96" fill="#4F3A60"></path>
                <path d="M80.4191298,123.707604 C80.1915909,122.758158 79.9615448,121.79211 80.0054228,120.815847 C80.048674,119.838306 80.4040859,118.831395 81.1569073,118.224822 C81.2916755,118.116277 81.4439949,118.019864 81.6144923,118.002624 C82.0739578,117.958568 82.373582,118.477667 82.512738,118.925254 C83.1727887,121.045067 82.9772181,123.347491 83.4655178,125.514553 C84.4195512,129.752265 87.796278,132.909638 91,135.78224 C90.3938565,136.277715 89.5094011,135.83332 88.8675284,135.386371 C87.5198465,134.449056 86.1721646,133.511103 84.8244826,132.573788 C81.9981116,130.607214 81.1938902,126.935212 80.4191298,123.707604" id="Fill-98" fill="#F1C27D"></path>
                <path d="M84.5578774,128.076912 C83.8389748,125.917798 83.7413384,123.476411 84.7021555,121.414505 C85.1007857,120.559583 86.0249114,119.684099 86.8644603,120.112183 C87.3489111,120.358939 87.5553779,120.961496 87.5311243,121.506104 C87.5062488,122.050088 87.3016476,122.567278 87.1704292,123.096308 C86.505009,125.78632 87.7929392,128.599087 89.516191,130.766924 C91.2394428,132.936007 93.4160511,134.727479 95,137 C94.7810954,136.68657 92.1679217,136.444799 91.6529984,136.265341 C90.4701673,135.852835 89.0535063,135.292026 88.1399527,134.410933 C86.6014016,132.927283 85.2264071,130.085853 84.5578774,128.076912" id="Fill-100" fill="#F1C27D"></path>
                <path d="M89.7147896,123.875967 C89.8117327,123.609116 89.9275608,123.332526 90.1485155,123.161118 C90.6162345,122.800772 91.3130916,123.094243 91.688274,123.555227 C92.5557258,124.622631 92.3309941,126.189325 92.2812635,127.581365 C92.1182229,132.115235 94.330288,136.393941 97,140 C95.4759791,139.781195 94.0010592,139.208537 92.7143599,138.337213 C91.5076073,137.520428 89.9351148,133.144332 89.4881694,131.55751 C88.7843877,129.05911 88.8259348,126.319829 89.7147896,123.875967" id="Fill-102" fill="#F1C27D"></path>
                <path d="M101.260113,131.297376 C101.5673,130.621021 102.115631,129.823153 102.794228,130.034675 C103.199569,130.160688 103.431625,130.617806 103.519479,131.055637 C103.866048,132.787672 102.651844,134.511992 102.84694,136.270387 C102.98266,137.487441 103.762441,138.493615 104.275024,139.591728 C105.046929,141.247898 105.211125,143.213315 104.725807,144.987783 C104.65007,145.26424 98.2870088,140.772135 98.0349583,139.297912 C97.6629416,137.116474 100.36279,133.269864 101.260113,131.297376" id="Fill-104" fill="#F1C27D"></path>
                <path d="M104.069568,179.798786 C102.952977,176.873193 103.677168,173.6182 104.307008,170.553293 C105.827247,163.159127 106.727643,155.639269 106.996325,148.097741 C107.163158,143.38769 101.614567,139.138305 97.474368,136.818883 C93.3341693,134.49946 88.810318,132.795496 85.0450241,129.916341 C81.6921255,127.353583 79.0409237,123.897358 77.4469535,120.00957 C76.7371337,119.910503 76.1154166,120.597166 76.019191,121.300546 C75.9235903,122.004546 76.2022695,122.699258 76.4765749,123.356201 C78.322981,127.788242 80.2631134,132.358359 83.7634746,135.669697 C87.1244961,138.848532 90.3361806,141.688679 93.5453657,145.017973 C94.3876518,145.891627 95.245559,146.808622 95.6485816,147.949139 C96.0541037,149.091513 95.9603775,150.344101 95.7960442,151.544058 C94.4232678,161.523272 88.4785273,170.730995 88.7128428,180.799989 C88.7259645,181.379535 88.7809505,182.009234 89.1770999,182.435844 C89.5263862,182.811683 90.0618752,182.942947 90.5654974,183.055637 C93.0336206,183.607939 95.548607,184.164576 98.0704667,183.954676 C100.592326,183.744776 102.706165,181.910786 104.069568,179.798786" id="Fill-106" fill="#F1C27D"></path>
                <path d="M162,187.065883 C149.22195,196.623892 125.301327,207.376111 111.52227,211.8084 C105.377295,213.78496 98.9513679,215.649757 92.5521097,214.780959 C89.8858555,214.419115 87.157581,213.500301 85.3664337,211.499041 C82.6015672,208.409159 82.8136767,203.759517 83.2825504,199.647703 C84.690412,187.306083 87.011213,174.621761 90.1091287,162.589501 C96.4476069,164.191867 103.622119,163.368146 109.089832,159.797245 C109.599639,169.170627 110.446837,178.337152 110.583282,187.722884 C127.460255,176.910768 144.956812,165.07178 160.949996,153" id="Fill-108" fill="#FFFFFF"></path>
                <path d="M109.093597,159 C109.093597,159 109.41365,160.740326 109.748621,163.352364 C109.922209,164.659311 110.102578,166.184186 110.266672,167.821121 C110.343973,168.639588 110.441617,169.484677 110.506034,170.345244 C110.57452,171.20643 110.643684,172.081236 110.713526,172.956043 C110.763704,173.832088 110.813882,174.708132 110.863381,175.570557 C110.919662,176.432362 110.929833,177.283642 110.961703,178.105824 C111.005778,179.752045 111.013237,181.289303 110.97662,182.608013 C110.92373,185.244815 110.725731,187 110.725731,187 C110.725731,187 110.661992,186.562906 110.57113,185.797683 C110.482301,185.033078 110.356179,183.940963 110.228022,182.632158 C110.096475,181.322735 109.949332,179.796621 109.813716,178.159687 C109.749299,177.34122 109.662505,176.497369 109.606224,175.636802 C109.541807,174.776854 109.476711,173.903905 109.411616,173.030337 C109.358048,172.156149 109.303801,171.281343 109.250233,170.420776 C109.191918,169.560209 109.166152,168.711405 109.124111,167.889842 C109.051556,166.247336 109.009515,164.713174 109.004091,163.395082 C108.976968,160.760138 109.093597,159 109.093597,159" id="Fill-110" fill="#FFFFFF"></path>
                <path d="M159,153 C161.269504,155.424311 161.842749,159.169505 162.415993,162.572363 C163.762006,170.54985 162.524712,178.865324 161.287418,187 C161.848308,175.64575 161.315216,163.95227 159,153" id="Fill-112" fill="#E6F1FC"></path>
                <path d="M114.475503,204 C114.020097,201.443481 115.447313,198.46508 114.852582,195.644332 C114.282805,192.945294 113.056605,190.010405 111,188 C112.022411,193.35015 113.518249,198.626517 114.475503,204" id="Fill-114" fill="#E6F1FC"></path>
                <path d="M138,191.984357 C134.80706,191.984357 131.614729,191.541734 128.530128,190.669998 C124.321363,189.480449 120.276324,187.491218 115.93731,187.071755 C114.597079,186.942442 113.263542,186.953379 112,187.397289 C113.795496,189.897981 121.592818,190.543902 124.578211,191.18532 C129.206939,192.178648 133.357882,191.985001 138,191.984357" id="Fill-116" fill="#E6F1FC"></path>
                <path d="M204.191188,323.194104 C193.759657,324.153778 182.864653,325.046816 173,320.902385 C181.015685,324.269409 195.69418,321.647128 204.178262,321.477274 C212.557093,321.30938 222.857522,318.822329 231,320.69464 C222.091222,321.70527 213.124586,322.37162 204.191188,323.194104" id="Fill-118" fill="#0051BC"></path>
                <path d="M241.361717,338.344603 C248.116792,337.889471 255.159343,337.477255 261,339.946598 C256.254199,337.939728 246.612131,339.310769 241.18495,339.330533 C235.82444,339.349167 228.988627,340.682939 224,339.533252 C229.788666,339.035205 235.577944,338.734231 241.361717,338.344603" id="Fill-120" fill="#0051BC"></path>
                <path d="M131.359113,105 L114.640887,105 C114.287405,105 114,105.291939 114,105.652454 L114,118.348199 C114,118.708061 114.287405,119 114.640887,119 L131.359113,119 C131.713237,119 132,118.708061 132,118.348199 L132,105.652454 C132,105.291939 131.713237,105 131.359113,105" id="Fill-122" fill="#E5E5E5"></path>
                <path d="M131.359113,105 L114.640887,105 C114.287405,105 114,105.291939 114,105.652454 L114,118.347546 C114,118.707408 114.287405,119 114.640887,119 L131.359113,119 C131.713237,119 132,118.707408 132,118.347546 L132,105.652454 C132,105.291939 131.713237,105 131.359113,105" id="Fill-124" fill="#FFFFFF"></path>
                <path d="M129.46571,106 L115.53429,106 C115.239291,106 115,106.250566 115,106.558802 L115,117.440535 C115,117.749434 115.239291,118 115.53429,118 L129.46571,118 C129.760709,118 130,117.749434 130,117.440535 L130,106.558802 C130,106.250566 129.760709,106 129.46571,106" id="Fill-126" fill="#FCE1DE"></path>
                <path d="M121.965396,112.486981 L121.965396,110.654938 L123.707331,111.570959 L121.965396,112.486981 Z M122.499707,109 C121.120235,109 120,110.120103 120,111.5 C120,112.879897 121.120235,114 122.499707,114 C123.880352,114 125,112.879897 125,111.5 C125,110.120103 123.880352,109 122.499707,109 L122.499707,109 Z" id="Fill-128" fill="#FF9988"></path>
                <path d="M284.359113,35 L267.640887,35 C267.287405,35 267,35.2919388 267,35.6524538 L267,48.3475462 C267,48.7080612 267.287405,49 267.640887,49 L284.359113,49 C284.713237,49 285,48.7080612 285,48.3475462 L285,35.6524538 C285,35.2919388 284.713237,35 284.359113,35" id="Fill-130" fill="#E5E5E5"></path>
                <path d="M283.359113,34 L266.640887,34 C266.287405,34 266,34.2919388 266,34.6524538 L266,47.3475462 C266,47.7080612 266.287405,48 266.640887,48 L283.359113,48 C283.713237,48 284,47.7080612 284,47.3475462 L284,34.6524538 C284,34.2919388 283.713237,34 283.359113,34" id="Fill-132" fill="#FFFFFF"></path>
                <path d="M282.46571,35 L268.53429,35 C268.239291,35 268,35.2499033 268,35.5588024 L268,46.4405347 C268,46.7494338 268.239291,47 268.53429,47 L282.46571,47 C282.760709,47 283,46.7494338 283,46.4405347 L283,35.5588024 C283,35.2499033 282.760709,35 282.46571,35" id="Fill-134" fill="#FFF1DC"></path>
                <path d="M274.965752,42.486981 L274.965752,40.6549378 L276.706897,41.5709594 L274.965752,42.486981 Z M275.5,39 C274.120103,39 273,40.1201032 273,41.5 C273,42.8798968 274.120103,44 275.5,44 C276.879897,44 278,42.8798968 278,41.5 C278,40.1201032 276.879897,39 275.5,39 L275.5,39 Z" id="Fill-136" fill="#FFC965"></path>
                <path d="M331.575962,100 L294.423419,100 C293.637722,100 293,100.625418 293,101.397314 L293,128.602079 C293,129.373974 293.637722,130 294.423419,130 L331.575962,130 C332.362278,130 333,129.373974 333,128.602079 L333,101.397314 C333,100.625418 332.362278,100 331.575962,100" id="Fill-138" fill="#E5E5E5"></path>
                <path d="M331.575962,100 L294.424038,100 C293.637722,100 293,100.626038 293,101.39795 L293,128.603266 C293,129.374569 293.637722,130 294.424038,130 L331.575962,130 C332.362898,130 333,129.374569 333,128.603266 L333,101.39795 C333,100.626038 332.362898,100 331.575962,100" id="Fill-140" fill="#FFFFFF"></path>
                <path d="M328.790366,102 L297.210257,102 C296.541562,102 296,102.542667 296,103.211333 L296,126.788667 C296,127.457333 296.541562,128 297.210257,128 L328.790366,128 C329.458438,128 330,127.457333 330,126.788667 L330,103.211333 C330,102.542667 329.458438,102 328.790366,102" id="Fill-142" fill="#E6F4F1"></path>
                <path d="M310.717473,117.36925 L310.717473,112.97249 L314.896994,115.17087 L310.717473,117.36925 Z M312.000611,109 C308.688538,109 306,111.688064 306,115.000306 C306,118.312548 308.688538,121 312.000611,121 C315.312685,121 318,118.312548 318,115.000306 C318,111.688064 315.312685,109 312.000611,109 L312.000611,109 Z" id="Fill-144" fill="#27C195"></path>
                <path d="M346.252403,50 L326.747597,50 C326.334644,50 326,50.3545853 326,50.7921449 L326,66.2078551 C326,66.6454147 326.334644,67 326.747597,67 L346.252403,67 C346.665356,67 347,66.6454147 347,66.2078551 L347,50.7921449 C347,50.3545853 346.665356,50 346.252403,50" id="Fill-146" fill="#E5E5E5"></path>
                <path d="M346.251813,49 L326.747575,49 C326.334635,49 326,49.3545853 326,49.7921449 L326,65.2078551 C326,65.6454147 326.334635,66 326.747575,66 L346.251813,66 C346.664754,66 347,65.6454147 347,65.2078551 L347,49.7921449 C347,49.3545853 346.664754,49 346.251813,49" id="Fill-148" fill="#FFFFFF"></path>
                <path d="M345.359782,51 L328.640839,51 C328.286887,51 328,51.2920486 328,51.6523683 L328,64.3476317 C328,64.7079514 328.286887,65 328.640839,65 L345.359782,65 C345.713113,65 346,64.7079514 346,64.3476317 L346,51.6523683 C346,51.2920486 345.713113,51 345.359782,51" id="Fill-150" fill="#F4D7E0"></path>
                <path d="M336.751678,58.8818792 L336.751678,56.3174497 L339.189933,57.5993289 L336.751678,58.8818792 Z M337.5,54 C335.567785,54 334,55.5677852 334,57.5 C334,59.4315436 335.567785,61 337.5,61 C339.432215,61 341,59.4315436 341,57.5 C341,55.5677852 339.432215,54 337.5,54 L337.5,54 Z" id="Fill-152" fill="#F54F71"></path>
                <path d="M157.003509,42 L130.997101,42 C130.446072,42 130,42.4378869 130,42.9782069 L130,62.0211941 C130,62.5615141 130.446072,63 130.997101,63 L157.003509,63 C157.553928,63 158,62.5615141 158,62.0211941 L158,42.9782069 C158,42.4378869 157.553928,42 157.003509,42" id="Fill-154" fill="#E5E5E5"></path>
                <path d="M157.003509,42 L130.997101,42 C130.446072,42 130,42.4378869 130,42.9782069 L130,62.0211941 C130,62.5621131 130.446072,63 130.997101,63 L157.003509,63 C157.553928,63 158,62.5621131 158,62.0211941 L158,42.9782069 C158,42.4378869 157.553928,42 157.003509,42" id="Fill-156" fill="#FFFFFF"></path>
                <path d="M155.145268,43 L132.854112,43 C132.382152,43 132,43.37576 132,43.8384678 L132,60.1621403 C132,60.624848 132.382152,61 132.854112,61 L155.145268,61 C155.617848,61 156,60.624848 156,60.1621403 L156,43.8384678 C156,43.37576 155.617848,43 155.145268,43" id="Fill-158" fill="#E6C5ED"></path>
                <path d="M142.537513,54.276698 L142.537513,50.9795596 L145.671568,52.6281288 L142.537513,54.276698 Z M143.499354,48 C141.015995,48 139,50.0158502 139,52.5003227 C139,54.9841498 141.015995,57 143.499354,57 C145.984005,57 148,54.9841498 148,52.5003227 C148,50.0158502 145.984005,48 143.499354,48 L143.499354,48 Z" id="Fill-160" fill="#D67DEC"></path>
                <path d="M101.21712,263 L80.7834766,263 C80.3502672,263 80,263.375107 80,263.838398 L80,280.160963 C80,280.624893 80.3502672,281 80.7834766,281 L101.21712,281 C101.649733,281 102,280.624893 102,280.160963 L102,263.838398 C102,263.375107 101.649733,263 101.21712,263" id="Fill-162" fill="#E5E5E5"></path>
                <path d="M101.21712,262 L80.7834766,262 C80.3508639,262 80,262.375732 80,262.838368 L80,279.160993 C80,279.624268 80.3508639,280 80.7834766,280 L101.21712,280 C101.65033,280 102,279.624268 102,279.160993 L102,262.838368 C102,262.375732 101.65033,262 101.21712,262" id="Fill-164" fill="#FFFFFF"></path>
                <path d="M99.3238478,264 L81.6761522,264 C81.3026819,264 81,264.312763 81,264.698672 L81,278.301328 C81,278.687237 81.3026819,279 81.6761522,279 L99.3238478,279 C99.6973181,279 100,278.687237 100,278.301328 L100,264.698672 C100,264.312763 99.6973181,264 99.3238478,264" id="Fill-166" fill="#E6F4F1"></path>
                <path d="M90.7517629,272.881628 L90.7517629,270.317086 L93.189235,271.599357 L90.7517629,272.881628 Z M91.4996876,268 C89.5677051,268 88,269.56722 88,271.499375 C88,273.432155 89.5677051,275 91.4996876,275 C93.4316701,275 95,273.432155 95,271.499375 C95,269.56722 93.4316701,268 91.4996876,268 L91.4996876,268 Z" id="Fill-168" fill="#27C195"></path>
                <path d="M304.359113,258 L287.640887,258 C287.287405,258 287,258.291925 287,258.652423 L287,271.346924 C287,271.707422 287.287405,272 287.640887,272 L304.359113,272 C304.713237,272 305,271.707422 305,271.346924 L305,258.652423 C305,258.291925 304.713237,258 304.359113,258" id="Fill-170" fill="#E5E5E5"></path>
                <path d="M303.359113,258 L286.640887,258 C286.287405,258 286,258.291925 286,258.652423 L286,271.346924 C286,271.707422 286.287405,272 286.640887,272 L303.359113,272 C303.713237,272 304,271.707422 304,271.346924 L304,258.652423 C304,258.291925 303.713237,258 303.359113,258" id="Fill-172" fill="#FFFFFF"></path>
                <path d="M302.46571,259 L288.53429,259 C288.239291,259 288,259.250566 288,259.559465 L288,270.440535 C288,270.749434 288.239291,271 288.53429,271 L302.46571,271 C302.760709,271 303,270.749434 303,270.440535 L303,259.559465 C303,259.250566 302.760709,259 302.46571,259" id="Fill-174" fill="#FFF1DC"></path>
                <path d="M294.965396,265.487213 L294.965396,263.65474 L296.707331,264.570976 L294.965396,265.487213 Z M295.499707,262 C294.120235,262 293,263.119779 293,264.499413 C293,265.880221 294.120235,267 295.499707,267 C296.880352,267 298,265.880221 298,264.499413 C298,263.119779 296.880352,262 295.499707,262 L295.499707,262 Z" id="Fill-176" fill="#FFC965"></path>
                <path d="M155.181813,230 L133.818808,230 C133.366816,230 133,230.37573 133,230.838068 L133,247.160658 C133,247.62427 133.366816,248 133.818808,248 L155.181813,248 C155.634427,248 156,247.62427 156,247.160658 L156,230.838068 C156,230.37573 155.634427,230 155.181813,230" id="Fill-178" fill="#E5E5E5"></path>
                <path d="M154.181214,230 L132.819408,230 C132.366806,230 132,230.37573 132,230.838705 L132,247.160658 C132,247.62427 132.366806,248 132.819408,248 L154.181214,248 C154.633815,248 155,247.62427 155,247.160658 L155,230.838705 C155,230.37573 154.633815,230 154.181214,230" id="Fill-180" fill="#FFFFFF"></path>
                <path d="M152.323709,231 L134.676291,231 C134.302871,231 134,231.312971 134,231.698844 L134,245.301785 C134,245.687657 134.302871,246 134.676291,246 L152.323709,246 C152.697129,246 153,245.687657 153,245.301785 L153,231.698844 C153,231.312971 152.697129,231 152.323709,231" id="Fill-182" fill="#F4D7E0"></path>
                <path d="M142.751801,239.882128 L142.751801,237.317765 L145.189752,238.599324 L142.751801,239.882128 Z M143.499689,235 C141.56801,235 140,236.568633 140,238.500311 C140,240.432613 141.56801,242 143.499689,242 C145.43199,242 147,240.432613 147,238.500311 C147,236.568633 145.43199,235 143.499689,235 L143.499689,235 Z" id="Fill-184" fill="#F54F71"></path>
            </g>
        </g>
    </g>
</svg>