<?xml version="1.0" encoding="UTF-8"?>
<svg width="101px" height="100px" viewBox="0 0 101 100" version="1.1" xmlns="http://www.w3.org/2000/svg" xmlns:xlink="http://www.w3.org/1999/xlink">
    <!-- Generator: sketchtool 63.1 (101010) - https://sketch.com -->
    <title>6FF681C1-C77C-41B0-AF06-2CA66AA328A7</title>
    <desc>Created with sketchtool.</desc>
    <defs>
        <ellipse id="path-1" cx="50.0251383" cy="50" rx="50.0251383" ry="50"></ellipse>
    </defs>
    <g id="search-results" stroke="none" stroke-width="1" fill="none" fill-rule="evenodd">
        <g id="shared-video-invalid-trial" transform="translate(-378.000000, -410.000000)">
            <g id="enter-code" transform="translate(362.000000, 394.000000)">
                <g id="sad-student" transform="translate(16.000000, 16.000000)">
                    <mask id="mask-2" fill="white">
                        <use xlink:href="#path-1"></use>
                    </mask>
                    <use id="Oval" fill="#C3D3F5" xlink:href="#path-1"></use>
                    <g id="Group-105" mask="url(#mask-2)">
                        <g transform="translate(14.000000, 8.000000)">
                            <path d="M27.6456669,57.8990169 C12.2672674,64.823398 6.02869667,92.3281111 12.5844525,97.1573983 C16.906174,100.340283 35.1708981,93.4014862 44.1476542,94.4964851 C53.1250077,95.5902826 62.4858505,99.1239514 63.9331942,94.743956 C65.3793431,90.3645613 66.401384,77.1206614 59.7219797,70.4815928 C53.1769759,63.9758701 36.4468064,53.935878 27.6456669,57.8990169" id="Fill-1" fill="#FF654C"></path>
                            <path d="M58.9507548,93.4886407 C58.4294191,92.7479309 57.8496738,92.0682983 57.2786279,91.3826776 C56.7001254,90.6317883 56.1352932,89.86054 55.5940733,89.0653399 C55.453642,88.8216302 55.3206672,88.5683398 55.1988772,88.3030735 C53.9735207,85.6138838 53.5050021,82.8678086 54.6700849,79.9091611 C55.5785389,77.5996076 58.822751,76.6433315 61.1013425,77.118775 C63.2301819,77.5606859 64.3530112,78.5882186 64.9339992,80.5049624 C65.6603895,81.7971626 65.9872341,83.4803762 65.9996616,84.9246704 C66.0207885,87.2827263 65.048954,89.1126447 64.0957609,90.8126245 C63.095343,92.5982321 61.9097547,93.2515177 61.0360978,95 C60.3345626,94.1461179 59.7063499,94.4113842 58.9507548,93.4886407" id="Fill-5" fill="#190003"></path>
                            <path d="M55,78.5103534 C55.2119517,78.3197072 55.4456874,78.1472688 55.7017957,78 C56.2410951,78.9232417 56.6909037,79.9305605 57,81 C56.1545481,80.5410568 55.4845452,79.4737594 55,78.5103534" id="Fill-7" fill="#673F36"></path>
                            <path d="M59.4031962,84 C58.3495168,81.3506046 59.5296884,79.216745 61.0026892,77 C61.8419645,77.2533591 62.4877069,77.6336916 63,78.1592207 C61.898886,80.1978502 60.4701574,82.0895197 59.4031962,84" id="Fill-9" fill="#673F36"></path>
                            <path d="M57.2794218,85.2663598 C56.7003692,84.5069814 56.0653921,83.8133712 55.4525518,83.1221969 C54.8321384,82.3573378 54.2367745,81.5802995 53.669373,80.7849923 C53.5214058,80.5389708 53.3804293,80.2886865 53.2534338,80.0219602 C51.9706635,77.3120695 51.5104508,74.5059626 52.6475841,71.2632283 C53.5359695,68.7287193 56.9456219,67.6697306 59.4424218,68.0893069 C61.7737781,68.479653 63.027421,69.533161 63.7078369,71.4788016 C64.5391326,72.797818 64.9416732,74.5077895 64.994685,75.9760021 C65.0826497,78.3783658 64.0637736,80.2777251 63.0483928,82.1113163 C61.978835,84.0417328 60.8428667,86.0805449 59.84671,88 C59.0194921,87.1821611 58.1217859,86.2102543 57.2794218,85.2663598" id="Fill-11" fill="#855348"></path>
                            <path d="M57.2794218,85.2663598 C56.7003692,84.5069814 56.0653921,83.8133712 55.4525518,83.1221969 C54.8321384,82.3573378 54.2367745,81.5802995 53.669373,80.7849923 C53.5214058,80.5389708 53.3804293,80.2886865 53.2534338,80.0219602 C51.9706635,77.3120695 51.5104508,74.5059626 52.6475841,71.2632283 C53.5359695,68.7287193 56.9456219,67.6697306 59.4424218,68.0893069 C61.7737781,68.479653 63.027421,69.533161 63.7078369,71.4788016 C64.5391326,72.797818 64.9416732,74.5077895 64.994685,75.9760021 C65.0826497,78.3783658 64.0637736,80.2777251 63.0483928,82.1113163 C61.978835,84.0417328 60.8428667,86.0805449 59.84671,88 C59.0194921,87.1821611 58.1217859,86.2102543 57.2794218,85.2663598" id="Fill-13" fill="#520005"></path>
                            <path d="M59.4036901,75 C58.4769306,72.6850568 59.2560528,70.6845024 60.6230398,69 C61.5806689,69.1663432 62.3584489,69.3942334 63,69.7795952 C62.8979961,69.8999168 62.795321,70.0207929 62.6919749,70.1394511 C61.3967933,71.6592736 60.5109697,73.3105073 59.4036901,75" id="Fill-15" fill="#855348"></path>
                            <path d="M54,68.7715003 C54.2383595,68.4651601 54.5148372,68.210295 54.8212304,68 C55.2680338,68.8989328 55.6868516,69.9139987 56,71 C55.3148372,70.7143754 54.6002413,69.8568738 54,68.7715003" id="Fill-17" fill="#855348"></path>
                            <path d="M56.2698703,74.3373891 C55.5505843,73.5938743 54.7846553,72.9229708 54.0500263,72.2724704 C53.3061913,71.5499589 52.5991799,70.8292476 51.9148763,70.1115369 C51.736896,69.8859021 51.5638255,69.6368636 51.4079393,69.3662218 C49.8429401,66.6424015 49.3660756,63.4463082 51.1023042,60.4410444 C52.4580231,58.0970826 56.6534485,57.729826 59.7533745,58.151091 C62.6458613,58.5441516 64.0666351,59.5241029 64.7110466,61.2391676 C65.6156775,62.4231503 65.9906636,63.9485857 66,65.239985 C66.0145989,67.3535112 64.7803975,69.0295699 63.5320805,70.8502509 C62.2180948,72.7663466 60.8310759,74.9356814 59.5680295,77 C58.465779,76.2192795 57.3113619,75.2549307 56.2698703,74.3373891" id="Fill-22" fill="#190003"></path>
                            <path d="M59.8597495,63.1669629 C58.9962889,64.088433 58.2342663,65.1808461 57.3213236,66 C55.8016082,63.9324631 53.7258389,62.8462888 52.1393227,61.1693006 C51.7261481,60.7313371 51.3457554,60.2178843 51,59.6657509 C52.6916654,58.038673 56.3403433,57.7729003 59.0439153,58.1528429 C60.9124787,58.4148723 62.164373,58.9177193 63,59.7275149 C61.9887119,60.9478233 60.918664,62.0377409 59.8597495,63.1669629" id="Fill-24" fill="#673F36"></path>
                            <path d="M54.0471177,65.5388266 C53.3043002,64.8121375 52.5206156,64.1321001 51.7735912,63.4598379 C51.0211579,62.7193926 50.3065866,61.9663871 49.6154538,61.215176 C49.4423701,60.9795254 49.2746952,60.7402862 49.1274539,60.4789174 C47.6466266,57.8556594 47.4446957,54.8352644 49.6154538,52.0373619 C51.3102317,49.8531079 55.7617282,49.719732 59.3243677,50.2819442 C62.6520221,50.8070742 64.2776867,51.8974069 64.8804748,53.5906224 C65.8312332,54.7939956 66.1064843,56.2742883 65.9652528,57.4902215 C65.7314696,59.4842803 64.0583272,60.8814373 62.4633128,62.4574256 C60.7859634,64.1129609 59.1152249,66.0914692 57.6253829,68 C56.3693241,67.2840767 55.1312948,66.4383661 54.0471177,65.5388266" id="Fill-26" fill="#520005"></path>
                            <path d="M52.9304945,57.8955914 C52.1923246,57.0009407 51.4131106,56.1505796 50.6637469,55.3143912 C49.9125175,54.3990719 49.1998446,53.4790285 48.4983655,52.5637092 C48.3242395,52.2837987 48.1544666,52.0050692 48.0108127,51.700947 C46.5500198,48.6431902 46.4996476,45.4124085 49.013281,42.3127242 C50.9746862,39.8939193 55.5971101,39.5142094 59.6822308,40.519289 C63.4974561,41.4576389 65.4010266,42.8837653 65.9806175,44.893334 C66.9955234,46.3442626 67.1671619,48.0420322 66.8667945,49.4268216 C66.3773761,51.6914986 64.2804013,53.2398644 62.3189961,54.9518067 C60.2568466,56.7511471 58.2407161,58.8829552 56.5460968,61 C55.274355,60.1514105 54.0156727,59.0217294 52.9304945,57.8955914" id="Fill-28" fill="#673F36"></path>
                            <path d="M66.4411151,45.6692885 C66.3153971,45.4053222 66.1716305,45.1437181 65.9955009,44.8939245 C65.4154555,42.8837653 63.5103924,41.4576389 59.6921753,40.519289 C55.6038513,39.5142094 50.9778029,39.8939193 49.0148597,42.3127242 C46.4992553,45.4124085 46.5496669,48.6431902 48.0116053,51.700947 C48.1553719,52.0050692 48.3252779,52.2837987 48.4995404,52.5637092 C49.2015696,53.4790285 49.9148013,54.3990719 50.6666198,55.3143912 C51.4159488,56.1505796 52.1957737,57.0009407 52.9351448,57.8955914 C54.0211739,59.0217294 55.2802209,60.1514105 56.5535823,61 C58.2495303,58.8829552 60.2672418,56.7511471 62.3310083,54.9518067 C64.2939515,53.2398644 66.3938153,51.6920891 66.8823728,49.4268216 C66.9464765,49.1315573 66.9844408,48.8215298 67,48.5038255" id="Fill-30" fill="#190003"></path>
                            <path d="M53.8566316,49.2778788 C53.1586827,48.2275201 52.3867985,47.2287985 51.6983132,46.267134 C50.9778879,45.260515 50.2864453,44.1761366 49.5790326,43.1549377 C49.4069113,42.8439003 49.2365644,42.5316479 49.0940172,42.1957032 C47.6549411,38.8156016 47.2852648,34.0984037 50.1740637,30.2632885 C51.9757184,27.8697586 54.2008743,27.8958808 56.3994135,28.0684094 C58.5524086,28.2379005 61.4678242,28.9310521 64.0851328,30.2280538 C65.18943,30.7754067 66.3002335,31.3762191 67.2400986,32.169 C68.1634023,32.9453784 68.4638752,33.7989088 69.0612722,34.7399184 C71.9264118,39.2536055 67.6352087,43.8134622 64.2004718,46.5168145 C61.7990542,48.4061236 59.3929047,50.6684346 57.4179458,53 C56.1089957,52.0024934 54.8952743,50.6113301 53.8566316,49.2778788" id="Fill-32" fill="#855348"></path>
                            <path d="M49.0944358,42.1957032 C49.2369802,42.5316479 49.4067321,42.8439003 49.57885,43.1549377 C50.28684,44.1761366 50.9794517,45.2155604 51.6980882,46.267134 C52.418499,47.230621 53.1590199,48.2275201 53.8569549,49.2778788 C54.8955768,50.6119376 56.1086824,52.0031009 57.4176062,53 C59.3931171,50.6684346 61.7986269,48.4067311 64.2005879,46.5168145 C67.6352561,43.8134622 71.9263733,39.2536055 69.061291,34.7405259 C68.463906,33.7989088 68.1634391,32.9453784 67.2401539,32.169 C66.3003075,31.3762191 65.1895263,30.7754067 64.0852512,30.2280538 C61.467995,28.9310521 58.5526378,28.2379005 56.3996858,28.0684094 C54.2011906,27.8958808 51.9760792,27.8697586 50.1744606,30.2632885 C47.2851281,34.0984037 47.654797,38.8162091 49.0944358,42.1957032" id="Fill-34" fill="#520005"></path>
                            <path d="M47.6985694,45.6346206 C47.6985694,45.6346206 53.5846863,36.9722952 58.2349195,39.4434733 C62.8851526,41.9140513 61.1709801,48.6038749 56.7842317,53.0985626 C52.3974834,57.5932503 47,52.709103 47,52.709103" id="Fill-40" fill="#D4A181"></path>
                            <path d="M13.0469268,100.526172 C12.5185363,99.7937566 11.9330895,99.1255251 11.355705,98.4500955 C10.7708784,97.7086826 10.1984554,96.9480744 9.64959902,96.1622727 C9.50757856,95.9205336 9.37238005,95.6691971 9.24772454,95.4058635 C7.99682821,92.7371367 7.50130706,89.9964281 8.63436982,87.0133806 C9.51874174,84.6835684 12.7480016,83.6650253 15.027771,84.0969164 C17.1580779,84.4994148 18.2899003,85.5071606 18.8896111,87.4152792 C19.6276213,88.6941566 19.9718194,90.3737329 19.998487,91.8187684 C20.0431397,94.1797728 19.0917887,96.030306 18.1571825,97.7494723 C17.1766832,99.5562165 15.9989677,100.232846 15.1449844,102 C14.4348821,101.157812 13.8103643,101.435542 13.0469268,100.526172" id="Fill-44" fill="#190003"></path>
                            <path d="M10,84.5269978 C10.2066763,84.3309935 10.4354136,84.1538877 10.687373,84 C11.2290276,84.9206263 11.6830189,85.9281857 12,87 C11.1605225,86.5529158 10.4882438,85.4892009 10,84.5269978" id="Fill-46" fill="#673F36"></path>
                            <path d="M13.4289697,91 C12.3365269,88.380785 13.506226,86.2343292 14.9702655,84 C15.8207236,84.2372583 16.4758062,84.6039836 17,85.1183363 C15.9094726,87.168717 14.486296,89.0785003 13.4289697,91" id="Fill-48" fill="#673F36"></path>
                            <path d="M12.3713087,91.3148089 C11.7855667,90.566617 11.1451476,89.8855549 10.526832,89.2051031 C9.89920972,88.452029 9.29776258,87.6867496 8.72307228,86.9019414 C8.573583,86.6584434 8.42991042,86.4106735 8.30077961,86.1452058 C6.99376633,83.4581839 6.50748992,80.6576516 7.61324525,77.3866006 C8.47702572,74.8295664 11.8728172,73.6999553 14.3710914,74.0679485 C16.7035895,74.4109207 17.9663958,75.4398371 18.6638185,77.3750055 C19.5072405,78.6785437 19.9242982,80.3830298 19.9917719,81.8519514 C20.101126,84.2570282 19.1018163,86.1787707 18.1042517,88.037045 C17.0543367,89.9923523 15.9392746,92.0575083 14.9614868,94 C14.1279532,93.1981043 13.2222924,92.2430306 12.3713087,91.3148089" id="Fill-50" fill="#855348"></path>
                            <path d="M12.3713087,91.3148089 C11.7855667,90.566617 11.1451476,89.8855549 10.526832,89.2051031 C9.89920972,88.452029 9.29776258,87.6867496 8.72307228,86.9019414 C8.573583,86.6584434 8.42991042,86.4106735 8.30077961,86.1452058 C6.99376633,83.4581839 6.50748992,80.6576516 7.61324525,77.3866006 C8.47702572,74.8295664 11.8728172,73.6999553 14.3710914,74.0679485 C16.7035895,74.4109207 17.9663958,75.4398371 18.6638185,77.3750055 C19.5072405,78.6785437 19.9242982,80.3830298 19.9917719,81.8519514 C20.101126,84.2570282 19.1018163,86.1787707 18.1042517,88.037045 C17.0543367,89.9923523 15.9392746,92.0575083 14.9614868,94 C14.1279532,93.1981043 13.2222924,92.2430306 12.3713087,91.3148089" id="Fill-52" fill="#520005"></path>
                            <path d="M13.4319986,81 C12.4683876,78.7080453 13.2315566,76.70141 14.5913112,75 C15.5603395,75.1509538 16.3478866,75.3654963 17,75.7387338 C16.8977475,75.8609345 16.7961722,75.9831352 16.6932426,76.1031241 C15.4032364,77.6380979 14.5290117,79.29859 13.4319986,81" id="Fill-54" fill="#855348"></path>
                            <path d="M8,75.8010571 C8.23391533,75.4858351 8.50705573,75.2213531 8.80889739,75 C9.25855059,75.8968288 9.68189428,76.9109937 10,78 C9.31834489,77.7285412 8.60368333,76.8811839 8,75.8010571" id="Fill-56" fill="#855348"></path>
                            <path d="M10.3657491,80.3949737 C9.63923691,79.6634005 8.86735604,79.0064285 8.12612969,78.3687084 C7.37570698,77.6599969 6.66145661,76.9512853 5.97050368,76.2449803 C5.79086818,76.0223799 5.61491122,75.7757146 5.45673388,75.5079925 C3.86515108,72.809113 3.35628601,69.6156997 5.06190363,66.5714888 C6.39353608,64.196884 10.5827831,63.7486751 13.6844077,64.1114535 C16.5794208,64.4483623 18.0091477,65.4037391 18.6706723,67.1093395 C19.5866294,68.2782924 19.977168,69.7991946 19.9992393,71.0926834 C20.0347985,73.210997 18.817814,74.9135892 17.5885676,76.7623758 C16.2943337,78.7062188 14.9295944,80.9075562 13.6886993,83 C12.5790056,82.237744 11.415973,81.2943996 10.3657491,80.3949737" id="Fill-61" fill="#190003"></path>
                            <path d="M13.8939722,69.114012 C13.038949,70.0530984 12.2877898,71.1615077 11.3833076,72 C9.84327666,69.960002 7.75672334,68.915323 6.15301391,67.2683292 C5.73632148,66.8372117 5.35177743,66.3317421 5,65.7856599 C6.67542504,64.1236707 10.3217929,63.7856496 13.0290572,64.1117993 C14.9004637,64.3367302 16.1567233,64.8159579 17,65.6094641 C16.0009274,66.8509575 14.9418856,67.9631157 13.8939722,69.114012" id="Fill-63" fill="#673F36"></path>
                            <path d="M8.13506244,72.6048846 C7.38496881,71.8920455 6.59583909,71.2259696 5.84214213,70.5676876 C5.08243963,69.8398603 4.36117266,69.0994429 3.66272679,68.3608241 C3.48676408,68.1276076 3.31680692,67.891993 3.16726864,67.6329968 C1.66047528,65.0334422 1.42866092,62.0118198 3.57144238,59.1664587 C5.24458957,56.945806 9.692903,56.7245801 13.2608023,57.2185914 C16.5932839,57.6790291 18.2291966,58.7395946 18.8483692,60.4236695 C19.8104589,61.6101359 20.1005271,63.087973 19.9708071,64.3086126 C19.75761,66.311037 18.0982756,67.74331 16.518815,69.3530433 C14.8576789,71.0443126 13.2067523,73.059327 11.7365928,75 C10.4748261,74.3075449 9.22747261,73.4849921 8.13506244,72.6048846" id="Fill-65" fill="#520005"></path>
                            <path d="M8.03501261,63.9602598 C7.28747636,63.0796813 6.49954954,62.2428657 5.74269239,61.4196519 C4.98210688,60.5177835 4.26004776,59.6100011 3.54917372,58.7069499 C3.37207661,58.4301798 3.19995064,58.1545924 3.0526804,57.852984 C1.56133626,54.8203404 1.47806955,51.5878073 3.95805057,48.4380686 C5.89431238,45.9808467 10.5106439,45.5148321 14.6050049,46.4444958 C18.4290599,47.3120637 20.3460585,48.7036024 20.9469459,50.7042719 C21.9772161,52.1372078 22.1648769,53.8333119 21.8796574,55.2248506 C21.4136123,57.4999246 19.3338087,59.0895787 17.3900901,60.8389078 C15.3481914,62.6775367 13.35414,64.8491176 11.6819704,67 C10.4012786,66.1744207 9.13239334,65.0673402 8.03501261,63.9602598" id="Fill-67" fill="#673F36"></path>
                            <path d="M21.4117977,51.4724864 C21.2830896,51.210501 21.1375935,50.9514725 20.9585214,50.7042719 C20.3578835,48.7036024 18.4390757,47.3120637 14.6126521,46.4444958 C10.5163767,45.5148321 5.89656399,45.9808467 3.95972461,48.4380686 C1.47758566,51.5878073 1.56090395,54.8203404 3.05379363,57.852984 C3.20053331,58.1545924 3.3727659,58.4307712 3.54997271,58.7069499 C4.26128708,59.6100011 4.98379345,60.5177835 5.74485009,61.4196519 C6.50217605,62.2428657 7.29059092,63.0796813 8.03859021,63.9602598 C9.13665067,65.0673402 10.4063219,66.1744207 11.687807,67 C13.3610124,64.8491176 15.3562989,62.6775367 17.3994624,60.8389078 C19.3443849,59.0895787 21.4267204,57.5011074 21.8918106,55.2248506 C21.9533666,54.9285646 21.9875644,54.6163111 22,54.2981438" id="Fill-69" fill="#190003"></path>
                            <path d="M7.97262614,56.342239 C7.26524044,55.3038636 6.48280212,54.3190817 5.78605381,53.369623 C5.05621142,52.3757059 4.35532635,51.3032255 3.63789424,50.294083 C3.46296845,49.9859199 3.29040652,49.6765389 3.14443805,49.3434061 C1.67352493,45.9864999 1.25925812,41.2672208 4.11066663,37.3670706 C5.88829084,34.9322174 8.11268496,34.9133378 10.3116676,35.0418406 C12.4663278,35.1679073 15.3862883,35.8031129 18.0149028,37.0497723 C19.124145,37.5765728 20.2398879,38.1563577 21.1872056,38.9310284 C22.1179762,39.6898646 22.4258692,40.5388355 23.0316089,41.4700237 C25.9391591,45.9341244 21.693072,50.5894566 18.285565,53.3665779 C15.9033831,55.3087357 13.5200192,57.6236125 11.5674692,60 C10.2502072,59.0267895 9.02336278,57.6571084 7.97262614,56.342239" id="Fill-71" fill="#855348"></path>
                            <path d="M3.14443805,49.3431691 C3.29040652,49.6763093 3.46296845,49.9863063 3.63789424,50.2944761 C4.35532635,51.3030321 5.05739335,52.330468 5.78605381,53.3694755 C6.51530523,54.3207825 7.26524044,55.3037591 7.97262614,56.3421576 C9.02336278,57.6570563 10.2496162,59.0267679 11.5674692,60 C13.5200192,57.6241686 15.9033831,55.3086314 18.285565,53.3664304 C21.693072,50.5892473 25.9391591,45.9338116 23.0316089,41.4696116 C22.4258692,40.5384027 22.1173852,39.689413 21.1872056,38.9305599 C20.2398879,38.155872 19.124145,37.5760741 18.0149028,37.049262 C15.3862883,35.8031838 12.4657368,35.1679641 10.3116676,35.0418946 C8.11268496,34.913389 5.88829084,34.9316599 4.11066663,37.3665673 C1.25925812,41.2668042 1.67352493,45.9861883 3.14443805,49.3431691" id="Fill-73" fill="#520005"></path>
                            <path d="M43.1181117,65.1093983 C44.8465066,68.1720519 43.9563743,72.1717583 41.129772,74.0446218 C38.3031696,75.9168645 34.6102832,74.9531097 32.8818883,71.8904561 C31.1534934,68.8278025 32.0436257,64.8280961 34.870228,62.9552326 C37.6968304,61.0829899 41.3897168,62.0473656 43.1181117,65.1093983" id="Fill-79" fill="#F6F6FC"></path>
                            <path d="M25,63 C25,63 25.1530111,70.4934556 30.5042003,79.2206464 C35.8553895,87.9484566 46.0549313,101.313303 44.6304277,82.3706353 C44.1017892,75.3410691 47,71.7476293 47,71.7476293 L25,63 Z" id="Fill-81" fill="#BA8B72"></path>
                            <path d="M23,64 C23,64 25.9168547,74.0329261 32.4717144,82.5816809 C38.7709765,90.7956468 44.2103355,94.9581295 33.7764789,80.069272 C30.2413216,74.9095837 44.2121612,77.4643634 44.2121612,77.4643634 L47,70.7882783 L23,64 Z" id="Fill-83" fill="#A36E57"></path>
                            <path d="M41.1889461,12.0470193 C31.6331113,11.3319145 19.820117,18.8408172 17.1604147,29.9893192 C14.7591426,40.0545855 16.2118241,52.3449582 20.3442742,61.4037583 C25.5718601,72.8623607 27.6289641,72.7934495 37.3580992,74 C47.6916568,73.428158 52.3227251,66.9094004 53.8641849,63.6028718 C56.7811012,57.3470649 58.1516931,50.5526626 57.8963033,48.7742701 C57.2140477,44.0296736 56.461864,42.3891035 57.9212342,28.73441 C59.0394767,18.2629303 47.9926519,12.5565995 41.1889461,12.0470193" id="Fill-85" fill="#D4A181"></path>
                            <path d="M22.3008503,46.6346791 C22.3008503,46.6346791 16.4149709,37.9722773 11.7649253,40.4434772 C7.11487981,42.914077 8.82898322,49.6039596 13.216163,54.098687 C17.6027344,58.5934144 23,53.7086239 23,53.7086239" id="Fill-87" fill="#D4A181"></path>
                            <path d="M1.28960191,37.5056489 C3.44535616,32.5289146 -0.467819705,28.5503234 1.65316432,22.7493004 C7.94169588,-2.44135172 43.7251424,-4.97135882 61.8971625,6.67688627 C68.3491752,11.5399465 68.622457,19.2351315 68.6102569,23.0897146 C77.7145671,40.087326 57.7936654,35.2060293 58.8800826,44.0932719 C56.3162357,42.9534922 52.8123725,29.4341846 53.3601561,28.5606574 C47.8774399,37.2995767 49.9618237,23.4058136 43.9947642,20.9372026 C43.8770334,24.609421 45.7180256,27.1473305 46.5561711,28.2251063 C44.6810187,28.594091 43.5708114,27.5418463 41.2326659,25.9315655 C40.5915517,36.8339387 38.8835404,25.4185126 33.5563752,23.905493 C33.7186363,25.8191072 32.1442159,29.8627418 29.4083478,29.9849262 C30.8412473,28.4269233 31.7916335,25.0325072 30.349584,22.156615 C29.4632481,23.9109639 24.8601577,37.0175192 23.7292102,31.4395891 C18.6783769,35.1415937 22.2676406,32.7769307 21.8083075,27.2555336 C18.6625168,32.4322613 15.0909431,41.8070257 13.7721144,38.001681 C14.8066813,42.3997112 14.2058273,46.7205402 14.8536516,52 C11.434579,43.6264181 2.89513253,46.4001861 4.19322111,37.4485079 C3.93213938,37.8418079 1.88679586,38.6770385 1.28960191,37.5056489" id="Fill-89" fill="#520005"></path>
                            <path d="M62,35.4107699 C63.1629959,39.8031449 64.9120639,40.017632 66.7943561,45 C68.5096893,42.5416958 74.7494995,37.5058597 69.5943516,30.2323521 C69.9883065,30.4517558 72.0449909,30.1881027 71.9992487,28.8606184 C67.9584956,25.5191684 69.3456283,20.0869307 64.9560908,16" id="Fill-91" fill="#520005"></path>
                            <path d="M43.0010022,45.4308343 C42.9622736,46.8110509 44.0508238,47.9603094 45.4305301,47.9990329 C46.8109279,48.0370649 47.9603374,46.9486576 47.999066,45.5691325 C48.0364114,44.1889159 46.9492444,43.0396574 45.5688465,43.0009339 C44.1891402,42.9635934 43.0390392,44.0506177 43.0010022,45.4308343" id="Fill-93" fill="#190003"></path>
                            <path d="M25.0009671,45.430834 C24.9629353,46.8110507 26.0513353,47.9610009 27.430851,47.9990329 C28.8110583,48.0370649 29.9603091,46.9486575 29.9990323,45.5691322 C30.0370641,44.189607 28.9493556,43.0396569 27.5691484,43.0009333 C26.1889411,42.9635928 25.0396904,44.0513087 25.0009671,45.430834" id="Fill-95" fill="#190003"></path>
                            <path d="M41,53 C41,53 35.9627792,57.4858904 31,53.0211146" id="Fill-97" fill="#BF846A"></path>
                            <path d="M32.8896047,39.0932612 C32.6136807,38.5049193 32.1874662,38.173868 31.7301368,37.914835 C31.2757428,37.6575443 30.790234,37.4862108 30.2988545,37.3822491 C29.3190307,37.1632907 28.3415553,37.1940726 27.4163293,37.4316164 C26.4869938,37.6656754 25.5969922,38.1279855 24.7111,38.7459478 C23.826382,39.3720411 22.9780625,40.1595945 22,41 C22.1050859,39.7245816 22.600575,38.5078232 23.4107348,37.4496209 C24.2302878,36.4088424 25.4226317,35.5306855 26.8321924,35.1822105 C28.2294245,34.8203773 29.7722506,34.9992611 31.0086249,35.7025998 C31.6256379,36.0504939 32.1745506,36.5267431 32.5561476,37.1249584 C32.9336351,37.7034268 33.1414587,38.4811068 32.8896047,39.0932612" id="Fill-99" fill="#520005"></path>
                            <path d="M40,37 C41.0725397,37.5602921 42.0163253,37.9932159 42.9508702,38.2601749 C43.8780225,38.5329233 44.7484984,38.6358472 45.6559372,38.6313443 C46.5676883,38.616549 47.5268751,38.4383619 48.5747728,38.244093 C49.0922532,38.1186545 49.627599,37.9829235 50.2023718,37.8709938 C50.7580471,37.719181 51.3371323,37.5770173 52,37.4869588 C51.6962883,37.9777773 51.3100262,38.4164906 50.8997382,38.8455547 C50.4524873,39.2340926 49.9602649,39.5994725 49.4279994,39.926256 C48.320345,40.521285 47.0100108,40.9786532 45.5863237,40.999238 C44.1731095,41.020466 42.7549669,40.5971914 41.7477283,39.8522794 C40.7398737,39.1125137 40.0807023,38.1019293 40,37" id="Fill-101" fill="#520005"></path>
                            <path d="M38,63.5 C38,65.4325833 36.880625,67 35.5,67 C34.119375,67 33,65.4325833 33,63.5 C33,61.5674167 34.119375,60 35.5,60 C36.880625,60 38,61.5674167 38,63.5" id="Fill-103" fill="#190003"></path>
                        </g>
                    </g>
                </g>
            </g>
        </g>
    </g>
</svg>