<?xml version="1.0" encoding="UTF-8"?>
<svg width="24px" height="24px" viewBox="0 0 24 24" version="1.1" xmlns="http://www.w3.org/2000/svg" xmlns:xlink="http://www.w3.org/1999/xlink">
    <!-- Generator: Sketch 54.1 (76490) - https://sketchapp.com -->
    <title>Icons / actions / save</title>
    <desc>Created with Sketch.</desc>
    <g id="Icons-/-actions-/-save" stroke="none" stroke-width="1" fill="none" fill-rule="evenodd">
        <g id="round-playlist_add-24px" transform="translate(2.000000, 5.000000)" fill="#4189FF" fill-rule="nonzero">
            <path d="M11,4 L1,4 C0.45,4 0,4.45 0,5 C0,5.55 0.45,6 1,6 L11,6 C11.55,6 12,5.55 12,5 C12,4.45 11.55,4 11,4 Z M11,0 L1,0 C0.45,0 0,0.45 0,1 C0,1.55 0.45,2 1,2 L11,2 C11.55,2 12,1.55 12,1 C12,0.45 11.55,0 11,0 Z M16,8 L16,5 C16,4.45 15.55,4 15,4 C14.45,4 14,4.45 14,5 L14,8 L11,8 C10.45,8 10,8.45 10,9 C10,9.55 10.45,10 11,10 L14,10 L14,13 C14,13.55 14.45,14 15,14 C15.55,14 16,13.55 16,13 L16,10 L19,10 C19.55,10 20,9.55 20,9 C20,8.45 19.55,8 19,8 L16,8 Z M1,10 L7,10 C7.55,10 8,9.55 8,9 C8,8.45 7.55,8 7,8 L1,8 C0.45,8 0,8.45 0,9 C0,9.55 0.45,10 1,10 Z" id="Shape"></path>
        </g>
    </g>
</svg>