<svg viewBox="0 0 20 14" xmlns="http://www.w3.org/2000/svg"><g fill="none" fill-rule="evenodd"><path d="M-2-5h24v24H-2z"/><path d="M11 4H1c-.55 0-1 .45-1 1s.45 1 1 1h10c.55 0 1-.45 1-1s-.45-1-1-1zm0-4H1C.45 0 0 .45 0 1s.45 1 1 1h10c.55 0 1-.45 1-1s-.45-1-1-1zm5 8V5c0-.55-.45-1-1-1s-1 .45-1 1v3h-3c-.55 0-1 .45-1 1s.45 1 1 1h3v3c0 .55.45 1 1 1s1-.45 1-1v-3h3c.55 0 1-.45 1-1s-.45-1-1-1h-3zM1 10h6c.55 0 1-.45 1-1s-.45-1-1-1H1c-.55 0-1 .45-1 1s.45 1 1 1z" fill="#FAFAFF" fill-rule="nonzero"/></g></svg>