<svg width="24" height="24" xmlns="http://www.w3.org/2000/svg"><g fill="#B4C8F4" fill-rule="nonzero"><path d="M21.338 10.951L21 9.002c-.033.271-.069.54-.102.811.523-.71 1.042-1.425 1.565-2.136l.221-.303c.033-.084.07-.169.102-.253a.816.816 0 00.018-.422c-.033-.247-.13-.41-.28-.605-.77-.988-1.536-1.976-2.306-2.964l-.32-.414c-.205-.26-.691-.395-.992-.271l-2.51 1.038c-.117.05-.236.097-.354.147l.785.106-1.414-.767c.155.21.313.419.469.63l-.708-2.471-.1-.35c-.127-.446-.53-.775-.983-.775H9.916c-.456 0-.856.329-.984.774-.236.825-.47 1.647-.708 2.471-.033.116-.066.235-.1.35.156-.21.314-.418.47-.629l-1.414.767.784-.106-2.51-1.038c-.116-.05-.236-.097-.353-.147-.301-.124-.79.01-.991.271-.77.988-1.537 1.976-2.306 2.964l-.321.414c-.145.187-.25.36-.28.605-.028.211-.01.496.12.672.522.712 1.041 1.425 1.564 2.137l.221.303c-.033-.272-.069-.54-.102-.812l-.336 1.95c.155-.21.313-.419.469-.63-.767.398-1.536.793-2.303 1.191-.107.055-.217.11-.324.169-.194.1-.336.305-.418.503-.091.226-.1.442-.05.685.229 1.175.466 2.347.702 3.517l.1.492c.043.22.199.417.364.548.189.15.377.203.617.227.884.082 1.765.163 2.65.242.127.01.254.024.382.035l-.88-.522c.327.464.653.93.976 1.394-.045-.177-.091-.356-.14-.533-.1.843-.196 1.69-.295 2.532l-.041.358c-.038.335.217.767.504.91l3.157 1.556.449.222c.211.105.412.158.65.123a.964.964 0 00.585-.29l1.68-1.828c.078-.087.16-.174.239-.26l-.721.308h1.954l-.721-.309 1.679 1.829.24.26c.152.17.369.261.585.29.24.035.43-.018.65-.123 1.052-.52 2.104-1.038 3.157-1.557l.448-.222c.288-.142.543-.577.504-.909l-.295-2.531c-.013-.119-.028-.24-.04-.359-.047.177-.093.356-.141.533l.978-1.394-.879.522c.884-.082 1.766-.164 2.65-.243.127-.01.255-.024.382-.034.232-.021.428-.076.617-.227.165-.131.32-.329.364-.548.237-1.172.474-2.342.708-3.514l.1-.493c.048-.237.04-.458-.051-.685-.082-.197-.224-.403-.418-.503-.767-.398-1.536-.793-2.303-1.19-.107-.056-.217-.111-.324-.17-.247-.126-.512-.184-.784-.105a1.046 1.046 0 00-.61.485c-.124.245-.188.54-.101.812.079.25.232.508.468.63.767.397 1.537.792 2.304 1.19.107.055.216.11.323.169-.155-.398-.313-.793-.469-1.191-.236 1.172-.473 2.342-.708 3.514l-.1.493c.33-.258.656-.516.984-.775-1.009.093-2.018.177-3.027.28-.094.01-.048-.027-.275.036-.277.08-.446.256-.611.485l-.054.077-.244.347c-.196.28-.393.559-.586.838-.138.195-.25.398-.23.664.003.05.013.1.018.15.033.295.07.588.102.883l.217 1.857.504-.909-3.156 1.557-.449.221 1.236.166c-.354-.387-.711-.772-1.065-1.159-.222-.24-.44-.48-.663-.719l-.173-.19a1.06 1.06 0 00-.774-.332c-.594-.008-1.188 0-1.781 0-.316 0-.62.061-.861.309-.033.031-.062.068-.095.102a2652.361 2652.361 0 01-1.826 1.99l1.235-.167-3.156-1.557-.449-.22.505.908.183-1.575c.038-.335.08-.667.117-1.001.036-.314.08-.57-.12-.872-.305-.462-.634-.912-.955-1.365-.165-.232-.334-.408-.611-.488-.227-.063-.181-.028-.275-.036l-.06-.006-.267-.023c-.318-.03-.64-.058-.958-.087l-1.742-.161.983.775c-.237-1.173-.474-2.343-.708-3.515l-.1-.492c-.155.397-.313.792-.468 1.19.471-.245.945-.487 1.416-.732l.918-.474c.343-.18.672-.338.764-.801.122-.606.211-1.223.316-1.831.053-.308.097-.638-.09-.917a186.75 186.75 0 01-.662-.906l-1.12-1.53-.161 1.277c.77-.988 1.536-1.976 2.305-2.964l.321-.413-.99.27c.453.188.906.375 1.36.565.497.205.988.432 1.493.616.43.158.858-.137 1.228-.337l.874-.474c.275-.148.479-.372.576-.69.017-.056.03-.111.048-.167.084-.29.166-.58.25-.866.17-.596.341-1.191.512-1.784l-.984.775h4.176c-.329-.258-.655-.517-.983-.775l.433 1.512.28.978c.11.38.196.748.576.97.458.265.932.513 1.401.758.265.14.578.195.859.079l.267-.11.905-.375c.54-.224 1.08-.448 1.62-.669-.331-.09-.66-.182-.991-.271.77.988 1.536 1.976 2.306 2.964l.32.413-.16-1.278c-.425.583-.853 1.165-1.279 1.747-.165.227-.351.448-.502.685-.19.303-.135.656-.079.988l.107.614.202 1.167c.043.245.267.508.468.63.22.131.54.187.785.105.247-.082.484-.24.609-.485.14-.269.158-.524.11-.817z"/><path d="M12 14.864c-.166 0-.329-.01-.494-.035.089.014.18.027.27.037a3.695 3.695 0 01-.989-.279c.082.034.163.071.245.105a3.896 3.896 0 01-.836-.505l.207.166a3.976 3.976 0 01-.68-.704l.16.214a3.983 3.983 0 01-.49-.865l.103.253a4.135 4.135 0 01-.27-1.022c.012.092.025.187.035.28-.04-.34-.04-.683 0-1.023-.013.092-.025.187-.036.28.046-.353.136-.696.27-1.023l-.101.253c.127-.308.293-.598.489-.864l-.16.214c.198-.264.425-.498.68-.704l-.207.166c.258-.205.538-.374.836-.506l-.245.106c.316-.137.647-.232.989-.28-.09.014-.181.027-.27.037a3.88 3.88 0 01.988 0 9.488 9.488 0 00-.27-.037c.342.048.673.14.989.28l-.245-.106c.298.132.578.303.836.506l-.207-.166c.255.206.482.44.68.704l-.16-.214c.199.266.362.556.49.864-.034-.084-.07-.168-.103-.253.133.327.225.67.27 1.023a10.454 10.454 0 01-.035-.28c.04.34.04.683 0 1.022.013-.092.025-.187.036-.279a4.026 4.026 0 01-.27 1.022l.101-.253a4.091 4.091 0 01-.489.865l.16-.214a3.976 3.976 0 01-.68.704l.207-.166a3.793 3.793 0 01-.836.505c.082-.034.163-.07.245-.105a3.794 3.794 0 01-.989.28c.09-.014.181-.027.27-.038a4.451 4.451 0 01-.494.035c-.532.002-1.045.482-1.02 1.053.026.57.45 1.057 1.02 1.054.958-.005 1.944-.297 2.726-.88.22-.163.433-.334.627-.53.196-.194.362-.413.525-.634.29-.393.497-.83.662-1.294.665-1.867.069-4.154-1.424-5.416a5.767 5.767 0 00-.657-.493 5.378 5.378 0 00-.74-.363 4.546 4.546 0 00-1.42-.324c-.956-.08-1.96.184-2.778.695-.79.495-1.475 1.244-1.86 2.118-.112.258-.219.522-.295.796-.08.287-.118.58-.153.875a5.04 5.04 0 00.079 1.514c.18.951.683 1.868 1.36 2.537.675.67 1.56 1.165 2.49 1.312.282.045.565.082.85.085.533.002 1.045-.488 1.02-1.054-.018-.572-.441-1.049-1.012-1.051z"/></g></svg>