<?xml version="1.0" encoding="UTF-8"?>
<svg width="24px" height="23px" viewBox="0 0 24 23" version="1.1" xmlns="http://www.w3.org/2000/svg" xmlns:xlink="http://www.w3.org/1999/xlink">
    <!-- Generator: Sketch 55.2 (78181) - https://sketchapp.com -->
    <title>subjects</title>
    <desc>Created with Sketch.</desc>
    <g id="desktop" stroke="none" stroke-width="1" fill="none" fill-rule="evenodd">
        <g id="homepage" transform="translate(-54.000000, -388.000000)">
            <g id="subjects" transform="translate(54.000000, 387.000000)">
                <g id="subjects-/-icons-menu-/-_subjects">
                    <polygon id="Path" points="0 0 24 0 24 24 0 24"></polygon>
                    <path d="M22,1 L7,1 C5.9,1 5,1.9 5,3 L5,10 C5,10.55 5.45,11 6,11 C6.55,11 7,10.55 7,10 L7,4 C7,3.45 7.45,3 8,3 L21,3 C21.55,3 22,3.45 22,4 L22,15 C22,15.55 21.55,16 21,16 L15,16 C14.45,16 14,16.45 14,17 C14,17.55 14.45,18 15,18 L22,18 C23.1,18 24,17.1 24,16 L24,3 C24,1.9 23.1,1 22,1 Z M5.83843648,20.5964709 C6.22918515,20.8048702 6.69808356,20.8048702 7.08883224,20.5964709 L11.0223689,18.4473532 L11.0223689,20.2838719 C11.0223689,20.7527704 10.7618698,21.1956189 10.3450712,21.4300681 L7.08883224,23.2014621 C6.69808356,23.4098614 6.22918515,23.4098614 5.83843648,23.2014621 L2.5821975,21.4300681 C2.16539892,21.1956189 1.9048998,20.7657953 1.9048998,20.2838719 L1.9048998,18.4473532 L5.83843648,20.5964709 Z M12.5853636,15.1520393 C13.0282121,15.3995135 13.0282121,16.0507613 12.5853636,16.2982354 L7.08883224,19.2939753 C6.69808356,19.5023746 6.22918515,19.5023746 5.83843648,19.2939753 L0.341905092,16.2982354 C-0.113968364,16.0507613 -0.113968364,15.3995135 0.341905092,15.1520393 L5.83843648,12.1562995 C6.22918515,11.9479002 6.69808356,11.9479002 7.08883224,12.1562995 L12.5853636,15.1520393 Z" id="Shape" fill="#0051BC" fill-rule="nonzero"></path>
                    <path d="M17.48,10.1528717 L13.5,12.4328717 C12.83,12.8128717 12,12.3228717 12,11.5628717 L12,7.00287168 C12,6.23287168 12.83,5.75287168 13.5,6.13287168 L17.48,8.41287168 C18.15,8.80287168 18.15,9.76287168 17.48,10.1528717 Z" id="Path" fill="#FF654C" fill-rule="nonzero"></path>
                </g>
            </g>
        </g>
    </g>
</svg>