<svg width="24" height="23" xmlns="http://www.w3.org/2000/svg"><g fill="none" fill-rule="evenodd"><path d="M0-1h24v24H0z"/><path d="M22 0H7C5.9 0 5 .9 5 2v7c0 .55.45 1 1 1s1-.45 1-1V3c0-.55.45-1 1-1h13c.55 0 1 .45 1 1v11c0 .55-.45 1-1 1h-6c-.55 0-1 .45-1 1s.45 1 1 1h7c1.1 0 2-.9 2-2V2c0-1.1-.9-2-2-2zM5.838 19.596c.391.209.86.209 1.25 0l3.934-2.149v1.837c0 .469-.26.912-.677 1.146L7.09 22.201c-.39.209-.86.209-1.25 0l-3.257-1.77a1.31 1.31 0 01-.677-1.147v-1.837l3.933 2.15zm6.747-5.444a.66.66 0 010 1.146L7.09 18.294c-.39.208-.86.208-1.25 0L.341 15.298a.651.651 0 010-1.146l5.496-2.996c.391-.208.86-.208 1.25 0l5.497 2.996z" fill="#0E69FF" fill-rule="nonzero"/><path d="M17.48 9.153l-3.98 2.28c-.67.38-1.5-.11-1.5-.87v-4.56c0-.77.83-1.25 1.5-.87l3.98 2.28c.67.39.67 1.35 0 1.74z" fill="#FB5C41" fill-rule="nonzero"/></g></svg>