<svg width="24" height="19" xmlns="http://www.w3.org/2000/svg"><path d="M22.255 2.307L12.495.055a2.262 2.262 0 00-1.001.002l-9.75 2.25A2.24 2.24 0 000 4.5a2.24 2.24 0 001.744 2.193l2.006.463v7.435c0 1.99 2.278 3.75 8.25 3.75 5.971 0 8.25-1.76 8.25-3.75V7.156l2.005-.463A2.24 2.24 0 0024 4.5a2.24 2.24 0 00-1.745-2.193zm-3.95 12.263c0 .762-2.069 2.069-6.207 2.069s-6.207-1.307-6.207-2.069V7.964l5.75 1.327a2.086 2.086 0 00.922-.002l5.742-1.325v7.697-1.091zm-6.064-7.294a.762.762 0 01-.318 0L2.73 5.154a.707.707 0 010-1.379l9.193-2.121a.751.751 0 01.318 0l9.193 2.121a.708.708 0 010 1.38l-9.193 2.12z" fill="#B4C8F4" fill-rule="nonzero"/></svg>