<?xml version="1.0" encoding="UTF-8"?>
<svg width="21px" height="22px" viewBox="0 0 21 22" version="1.1" xmlns="http://www.w3.org/2000/svg" xmlns:xlink="http://www.w3.org/1999/xlink">
    <!-- Generator: sketchtool 63.1 (101010) - https://sketch.com -->
    <title>D7D7312B-8FC6-4A7F-BFD4-7FCCD444489C</title>
    <desc>Created with sketchtool.</desc>
    <g id="desktop" stroke="none" stroke-width="1" fill="none" fill-rule="evenodd">
        <g id="homepage" transform="translate(-228.000000, -355.000000)">
            <g id="Icons-/-dropdown-/-tutorials" transform="translate(226.306533, 354.000000)">
                <g id="pause_presentation-24px" transform="translate(12.000000, 12.000000) rotate(90.000000) translate(-12.000000, -12.000000) ">
                    <polygon id="Path" points="0 0 24 0 24 24 0 24"></polygon>
                    <path d="M20.5,2 L3.5,2 C2.4,2 1.5,2.9 1.5,4 L1.5,18 C1.5,19.1 2.4,20 3.5,20 L20.5,20 C21.6,20 22.5,19.1 22.5,18 L22.5,4 C22.5,2.9 21.6,2 20.5,2 Z M20.5,17 C20.5,17.55 20.05,18 19.5,18 L4.5,18 C3.95,18 3.5,17.55 3.5,17 L3.5,5 C3.5,4.45 3.95,4 4.5,4 L19.5,4 C20.05,4 20.5,4.45 20.5,5 L20.5,17 Z M9.5,6 C8.95,6 8.5,6.45 8.5,7 L8.5,15 C8.5,15.55 8.95,16 9.5,16 C10.05,16 10.5,15.55 10.5,15 L10.5,7 C10.5,6.45 10.05,6 9.5,6 Z M13.5,6 C12.95,6 12.5,6.45 12.5,7 L12.5,15 C12.5,15.55 12.95,16 13.5,16 C14.05,16 14.5,15.55 14.5,15 L14.5,7 C14.5,6.45 14.05,6 13.5,6 Z M7.5,19 C6.95,19 6.5,19.45 6.5,20 L6.5,21 C6.5,21.55 6.95,22 7.5,22 C8.05,22 8.5,21.55 8.5,21 L8.5,20 C8.5,19.45 8.05,19 7.5,19 Z M11.5,19 C10.95,19 10.5,19.45 10.5,20 L10.5,21 C10.5,21.55 10.95,22 11.5,22 C12.05,22 12.5,21.55 12.5,21 L12.5,20 C12.5,19.45 12.05,19 11.5,19 Z M15.5,19 C14.95,19 14.5,19.45 14.5,20 L14.5,21 C14.5,21.55 14.95,22 15.5,22 C16.05,22 16.5,21.55 16.5,21 L16.5,20 C16.5,19.45 16.05,19 15.5,19 Z M17.5,8 C16.95,8 16.5,8.45 16.5,9 L16.5,15 C16.5,15.55 16.95,16 17.5,16 C18.05,16 18.5,15.55 18.5,15 L18.5,9 C18.5,8.45 18.05,8 17.5,8 Z" id="Shape" fill="#B4C8F4" fill-rule="nonzero"></path>
                </g>
            </g>
        </g>
    </g>
</svg>