<svg width="21" height="22" xmlns="http://www.w3.org/2000/svg"><g fill="none" fill-rule="evenodd"><path d="M22.307-1v24h-24V-1z"/><path d="M20.307 19.5v-17c0-1.1-.9-2-2-2h-14c-1.1 0-2 .9-2 2v17c0 1.1.9 2 2 2h14c1.1 0 2-.9 2-2zm-15 0c-.55 0-1-.45-1-1v-15c0-.55.45-1 1-1h12c.55 0 1 .45 1 1v15c0 .55-.45 1-1 1h-12zm11-11c0-.55-.45-1-1-1h-8c-.55 0-1 .45-1 1s.45 1 1 1h8c.55 0 1-.45 1-1zm0 4c0-.55-.45-1-1-1h-8c-.55 0-1 .45-1 1s.45 1 1 1h8c.55 0 1-.45 1-1zm-13-6c0-.55-.45-1-1-1h-1c-.55 0-1 .45-1 1s.45 1 1 1h1c.55 0 1-.45 1-1zm0 4c0-.55-.45-1-1-1h-1c-.55 0-1 .45-1 1s.45 1 1 1h1c.55 0 1-.45 1-1zm0 4c0-.55-.45-1-1-1h-1c-.55 0-1 .45-1 1s.45 1 1 1h1c.55 0 1-.45 1-1zm11 2c0-.55-.45-1-1-1h-6c-.55 0-1 .45-1 1s.45 1 1 1h6c.55 0 1-.45 1-1z" fill="#B4C8F4" fill-rule="nonzero"/></g></svg>