<?xml version="1.0" encoding="UTF-8"?>
<svg width="14px" height="18px" viewBox="0 0 14 18" version="1.1" xmlns="http://www.w3.org/2000/svg" xmlns:xlink="http://www.w3.org/1999/xlink">
    <!-- Generator: sketchtool 53.2 (72643) - https://sketchapp.com -->
    <title>916C1A40-3DD3-49B5-BBEB-129209924025</title>
    <desc>Created with sketchtool.</desc>
    <g id="desktop" stroke="none" stroke-width="1" fill="none" fill-rule="evenodd">
        <g id="1st-login-or-no-collections" transform="translate(-1013.000000, -994.000000)">
            <g id="collections" transform="translate(54.000000, 446.000000)">
                <g id="Living-things" transform="translate(672.000000, 528.000000)">
                    <g id="COLLECTIONS-/-search-result">
                        <g id="icons/bookmark" transform="translate(282.000000, 17.000000)">
                            <g id="round-bookmark_border-24px">
                                <polygon id="Path" points="0 0 24 0 24 24 0 24"></polygon>
                                <path d="M17,3 L7,3 C5.9,3 5,3.9 5,5 L5,21 L12,18 L19,21 L19,5 C19,3.9 18.1,3 17,3 Z M17,18 L12,15.82 L7,18 L7,6 C7,5.45 7.45,5 8,5 L16,5 C16.55,5 17,5.45 17,6 L17,18 Z" id="Shape" fill="#0E69FF" fill-rule="nonzero"></path>
                            </g>
                        </g>
                    </g>
                </g>
            </g>
        </g>
    </g>
</svg>
