<svg width="127" height="142" xmlns="http://www.w3.org/2000/svg" xmlns:xlink="http://www.w3.org/1999/xlink"><defs><ellipse id="a" cx="63.015" cy="85.186" rx="63.015" ry="62.339"/></defs><g transform="translate(0 -6)" fill="none" fill-rule="evenodd"><mask id="b" fill="#fff"><use xlink:href="#a"/></mask><use fill="#E8EFFF" fill-rule="nonzero" xlink:href="#a"/><path d="M101.455 66.264c-3.309-2.596-32.44-21.231-33.727-21.973-1.01-.556-2.94-1.576-4.319-1.576-1.378 0-3.308 1.02-4.319 1.576-1.287.742-30.418 19.377-33.726 21.973-3.309 2.596-3.309 5.84-3.309 5.933v53.958h82.708V72.29c0-.093 0-3.43-3.308-6.026z" fill="#B4C8F4" fill-rule="nonzero" mask="url(#b)"/><path d="M101.06 66.262c-3.307-2.596-32.439-21.23-33.725-21.973-1.011-.556-2.941-1.576-4.32-1.576-1.378 0-3.308 1.02-4.319 1.576-1.286.742-30.418 19.377-33.726 21.973s-3.308 5.84-3.308 5.933v53.958h82.707V72.288c0-.093 0-3.43-3.308-6.026zm-.091 52.01c3.216 2.597 3.216 7.51 3.216 7.51 0-.556-.367-3.523-3.216-5.84-3.216-2.596-32.164-21.231-33.45-21.973-.093-.093-.184-.093-.276-.185-.092-.093-.184-.093-.276-.186-1.103-.556-2.573-1.298-3.676-1.298-1.195 0-2.757.742-3.86 1.298-.183.093-.275.186-.46.278-1.286.742-30.233 19.377-33.45 21.973-3.216 2.596-3.584 5.84-3.584 5.84s.276-4.913 3.584-7.509c3.033-2.41 27.661-18.357 32.624-21.416-10.476-7.51-26.467-21.602-29.224-22.9-3.032-1.39-5.513-1.669-6.708-1.669.46-1.112 1.286-2.41 2.757-3.615 3.308-2.596 32.44-21.231 33.726-21.973 1.103-.649 2.94-1.576 4.32-1.576 1.378 0 3.308 1.02 4.319 1.576 1.286.742 30.418 19.377 33.726 21.973 1.47 1.205 2.297 2.503 2.757 3.615-1.195 0-3.676.279-6.617 1.67-2.849 1.297-18.655 15.204-29.04 22.899 4.596 2.874 29.775 19.098 32.808 21.509z" fill="#FFF" fill-rule="nonzero" mask="url(#b)"/><path d="M11.17 50.594l.288-3.284 3.013 1.918-3.3 1.366zm1.516-6.166c-2.502-.219-4.708 1.611-4.925 4.085-.216 2.473 1.639 4.659 4.141 4.878 2.502.218 4.708-1.612 4.924-4.085.217-2.474-1.638-4.66-4.14-4.878zM75.85 34.316l.288-3.284 3.013 1.918-3.3 1.366zm1.516-6.166c-2.502-.219-4.708 1.611-4.924 4.085-.217 2.473 1.638 4.659 4.14 4.877 2.502.22 4.708-1.61 4.924-4.084.217-2.474-1.638-4.66-4.14-4.878zM47.837 12.435l.266-3.031 2.781 1.77-3.047 1.26zm1.4-5.692c-2.31-.202-4.347 1.488-4.546 3.771-.2 2.283 1.512 4.3 3.822 4.503 2.31.202 4.345-1.488 4.545-3.771.2-2.283-1.512-4.3-3.821-4.503z" fill="#F54F71"/><path d="M109.205 47.829l-.772-2.879 3.297.66-2.525 2.219zm-.407-5.581c-2.143.574-3.421 2.76-2.854 4.878.568 2.119 2.767 3.372 4.91 2.798 2.143-.574 3.421-2.76 2.854-4.878-.568-2.119-2.768-3.372-4.91-2.798z" fill="#FFC965"/><path d="M27.067 30.244l-.637-2.375 2.72.544-2.083 1.831zm-.422-5.27c-1.989.532-3.175 2.56-2.648 4.527.527 1.966 2.568 3.13 4.557 2.597 1.989-.533 3.175-2.562 2.648-4.528-.526-1.966-2.568-3.13-4.557-2.597z" fill="#27C195"/><path d="M36.139 57.555l.442-5.056 4.892 2.976-5.334 2.08zm2.158-9.89c-4.234-.37-7.967 2.728-8.334 6.914-.366 4.186 2.773 7.884 7.007 8.254 4.234.37 7.967-2.726 8.334-6.912.366-4.186-2.773-7.885-7.007-8.255zM101.608 28.804l.286-3.266 3.16 1.922-3.446 1.344zm1.395-6.388c-2.735-.24-5.147 1.761-5.384 4.465-.236 2.704 1.791 5.093 4.527 5.332 2.734.24 5.146-1.761 5.382-4.465.237-2.704-1.79-5.093-4.525-5.332z" fill="#D67DEC"/><path d="M61.45 80.695l-.147-8.37 8.12 4.044-7.973 4.326zM63.64 64.72c-6.376.112-11.462 5.319-11.352 11.623.11 6.305 5.375 11.332 11.751 11.22 6.377-.11 11.462-5.318 11.352-11.623-.11-6.304-5.374-11.33-11.75-11.22zM9.701 24.619l-.501-1.75 1.932.393-1.43 1.357zm-.438-3.478c-1.333.382-2.108 1.762-1.73 3.08.378 1.317 1.766 2.077 3.099 1.694 1.333-.382 2.107-1.761 1.73-3.079-.378-1.318-1.766-2.077-3.1-1.695z" fill="#FB5C41"/><path d="M79.904 59.903l.381-4.351 3.992 2.541-4.373 1.81zm2.008-8.168c-3.314-.29-6.238 2.133-6.524 5.41-.287 3.278 2.17 6.174 5.485 6.464 3.315.29 6.238-2.135 6.525-5.412.286-3.278-2.171-6.172-5.486-6.462z" fill="#27C195"/><path d="M83.925 11.632l.221-2.527 2.318 1.476-2.539 1.05zm1.166-4.743c-1.924-.168-3.622 1.239-3.788 3.142-.167 1.903 1.26 3.584 3.185 3.752 1.924.169 3.621-1.24 3.788-3.142.166-1.903-1.26-3.584-3.185-3.752zM47.96 36.874l.288-3.291 3.019 1.922-3.307 1.369zm1.518-6.178c-2.507-.22-4.717 1.613-4.934 4.092-.217 2.479 1.642 4.669 4.148 4.888 2.507.22 4.718-1.614 4.935-4.093.217-2.479-1.642-4.668-4.149-4.887z" fill="#FFC965"/></g></svg>