<?xml version="1.0" encoding="UTF-8"?>
<svg width="127px" height="142px" viewBox="0 0 127 142" version="1.1" xmlns="http://www.w3.org/2000/svg" xmlns:xlink="http://www.w3.org/1999/xlink">
    <!-- Generator: Sketch 53.2 (72643) - https://sketchapp.com -->
    <title>illustrations /verify-email</title>
    <desc>Created with Sketch.</desc>
    <defs>
        <ellipse id="path-1" cx="63.0153846" cy="85.1860808" rx="63.0153846" ry="62.3394141"></ellipse>
    </defs>
    <g id="desktop" stroke="none" stroke-width="1" fill="none" fill-rule="evenodd">
        <g id="email-verification" transform="translate(-503.000000, -139.000000)">
            <g id="Identity-/-Illustrations-/-verify-email" transform="translate(503.000000, 133.000000)">
                <g id="illustration">
                    <mask id="mask-2" fill="white">
                        <use xlink:href="#path-1"></use>
                    </mask>
                    <use id="Mask" fill="#E8EFFF" fill-rule="nonzero" xlink:href="#path-1"></use>
                    <path d="M101.454769,66.2637152 C98.1464615,63.6678041 69.0149744,45.0328707 67.7284103,44.2911818 C66.7175385,43.7349152 64.7876923,42.7150929 63.4092308,42.7150929 C62.0307692,42.7150929 60.1009231,43.7349152 59.0900513,44.2911818 C57.8034872,45.0328707 28.672,63.6678041 25.3636923,66.2637152 C22.0553846,68.8596263 22.0553846,72.1045152 22.0553846,72.1972263 L22.0553846,74.6077152 L22.0553846,126.155093 C23.9852308,126.155093 102.833231,126.155093 104.763077,126.155093 L104.763077,74.6077152 L104.763077,72.2899374 C104.763077,72.1972263 104.763077,68.8596263 101.454769,66.2637152 Z" id="Path" fill="#C3D3F5" fill-rule="nonzero" mask="url(#mask-2)"></path>
                    <path d="M101.060923,66.2619556 C97.7526154,63.6660444 68.6211282,45.0311111 67.3345641,44.2894222 C66.3236923,43.7331556 64.3938462,42.7133333 63.0153846,42.7133333 C61.6369231,42.7133333 59.7070769,43.7331556 58.6962051,44.2894222 C57.409641,45.0311111 28.2781538,63.6660444 24.9698462,66.2619556 C21.6615385,68.8578667 21.6615385,72.1027556 21.6615385,72.1954667 L21.6615385,72.1954667 C21.6615385,72.1954667 21.6615385,72.1954667 21.6615385,72.1954667 L21.6615385,74.6059556 L21.6615385,126.153333 C23.5913846,126.153333 102.439385,126.153333 104.369231,126.153333 L104.369231,74.6059556 L104.369231,72.2881778 L104.369231,72.2881778 C104.369231,72.1954667 104.369231,68.8578667 101.060923,66.2619556 Z M100.969026,118.272889 C104.185436,120.8688 104.185436,125.782489 104.185436,125.782489 C104.185436,125.226222 103.817846,122.259467 100.969026,119.941689 C97.7526154,117.345778 68.8049231,98.7108444 67.518359,97.9691556 C67.4264615,97.8764444 67.3345641,97.8764444 67.2426667,97.7837333 C67.1507692,97.6910222 67.0588718,97.6910222 66.9669744,97.5983111 C65.8642051,97.0420444 64.3938462,96.3003556 63.2910769,96.3003556 C62.0964103,96.3003556 60.5341538,97.0420444 59.4313846,97.5983111 C59.2475897,97.6910222 59.1556923,97.7837333 58.9718974,97.8764444 C57.6853333,98.6181333 28.737641,117.253067 25.5212308,119.848978 C22.3048205,122.444889 21.9372308,125.689778 21.9372308,125.689778 C21.9372308,125.689778 22.2129231,120.776089 25.5212308,118.180178 C28.5538462,115.769689 53.182359,99.8233778 58.1448205,96.7639111 C47.6685128,89.2543111 31.678359,75.1622222 28.9214359,73.8642667 C25.8888205,72.4736 23.4075897,72.1954667 22.2129231,72.1954667 C22.6724103,71.0829333 23.4994872,69.7849778 24.9698462,68.5797333 C28.2781538,65.9838222 57.409641,47.3488889 58.6962051,46.6072 C59.7989744,45.9582222 61.6369231,45.0311111 63.0153846,45.0311111 C64.3938462,45.0311111 66.3236923,46.0509333 67.3345641,46.6072 C68.6211282,47.3488889 97.7526154,65.9838222 101.060923,68.5797333 C102.531282,69.7849778 103.358359,71.0829333 103.817846,72.1954667 C102.623179,72.1954667 100.141949,72.4736 97.2012308,73.8642667 C94.3524103,75.1622222 78.5460513,89.0688889 68.161641,96.7639111 C72.7565128,99.6379556 97.9364103,115.8624 100.969026,118.272889 Z" id="Shape" fill="#FFFFFF" fill-rule="nonzero" mask="url(#mask-2)"></path>
                    <g id="play" transform="translate(59.822236, 46.557542) rotate(5.000000) translate(-59.822236, -46.557542) translate(4.191467, 4.837542)">
                        <path d="M7.5158167,49.9809611 L7.5158167,46.6847953 L10.6851332,48.333145 L7.5158167,49.9809611 Z M8.48841688,43.7066667 C5.9764961,43.7066667 3.93846154,45.7221463 3.93846154,48.2050764 C3.93846154,50.6880065 5.9764961,52.7034861 8.48841688,52.7034861 C10.9997979,52.7034861 13.0378325,50.6880065 13.0378325,48.2050764 C13.0378325,45.7221463 10.9997979,43.7066667 8.48841688,43.7066667 L8.48841688,43.7066667 Z" id="Fill-175" fill="#F54F71"></path>
                        <path d="M70.5312014,28.1276278 L70.5312014,24.8314621 L73.7005179,26.4798118 L70.5312014,28.1276278 Z M71.5038016,21.8533333 C68.9918808,21.8533333 66.9538462,23.868813 66.9538462,26.3517432 C66.9538462,28.8346733 68.9918808,30.850153 71.5038016,30.850153 C74.0151827,30.850153 76.0532173,28.8346733 76.0532173,26.3517432 C76.0532173,23.868813 74.0151827,21.8533333 71.5038016,21.8533333 L71.5038016,21.8533333 Z" id="Fill-175" fill="#F54F71"></path>
                        <path d="M40.7175586,8.77165636 L40.7175586,5.72904185 L43.6430815,7.25059539 L40.7175586,8.77165636 Z M41.6153434,2.98 C39.2966473,2.98 37.4153846,4.84044277 37.4153846,7.13237822 C37.4153846,9.42431367 39.2966473,11.2847564 41.6153434,11.2847564 C43.9335413,11.2847564 45.8148039,9.42431367 45.8148039,7.13237822 C45.8148039,4.84044277 43.9335413,2.98 41.6153434,2.98 L41.6153434,2.98 Z" id="Fill-175" fill="#F54F71"></path>
                        <path d="M104.351779,38.4146804 L104.351779,35.4346804 L107.365747,36.9245536 L104.351779,38.4146804 Z M105.403233,32.9186896 C103.184662,32.9186896 101.384609,34.6987588 101.384609,36.8921468 C101.384609,39.0852871 103.184662,40.8653563 105.403233,40.8653563 C107.621303,40.8653563 109.421857,39.0852871 109.421857,36.8921468 C109.421857,34.6987588 107.621303,32.9186896 105.403233,32.9186896 L105.403233,32.9186896 Z" id="Fill-159" fill="#FFC965" transform="translate(105.403233, 36.892023) rotate(-20.000000) translate(-105.403233, -36.892023) "></path>
                        <path d="M21.0029223,28.0873176 L21.0029223,25.6286726 L23.4895924,26.8578906 L21.0029223,28.0873176 Z M21.9599631,22.88696 C19.9007305,22.88696 18.2299578,24.5391841 18.2299578,26.5750424 C18.2299578,28.6106708 19.9007305,30.262895 21.9599631,30.262895 C24.0187307,30.262895 25.6899684,28.6106708 25.6899684,26.5750424 C25.6899684,24.5391841 24.0187307,22.88696 21.9599631,22.88696 L21.9599631,22.88696 Z" id="Fill-159" fill="#27C195" transform="translate(21.959963, 26.574927) rotate(-20.000000) translate(-21.959963, -26.574927) "></path>
                        <path d="M32.9959554,54.7396762 L32.9959554,49.6645473 L38.1289338,52.202432 L32.9959554,54.7396762 Z M34.2844391,44.7 C30.0339769,44.7 26.5846154,48.1111907 26.5846154,52.3130454 C26.5846154,56.5149002 30.0339769,59.9253868 34.2844391,59.9253868 C38.5341893,59.9253868 41.9835508,56.5149002 41.9835508,52.3130454 C41.9835508,48.1111907 38.5341893,44.7 34.2844391,44.7 L34.2844391,44.7 Z" id="Fill-150" fill="#D67DEC"></path>
                        <path d="M95.7105269,20.391625 L95.7105269,17.1134317 L99.0260872,18.7527352 L95.7105269,20.391625 Z M96.5428011,13.9066667 C93.7972873,13.9066667 91.5692308,16.1100674 91.5692308,18.8241841 C91.5692308,21.5383007 93.7972873,23.7412467 96.5428011,23.7412467 C99.2878551,23.7412467 101.515912,21.5383007 101.515912,18.8241841 C101.515912,16.1100674 99.2878551,13.9066667 96.5428011,13.9066667 L96.5428011,13.9066667 Z" id="Fill-150" fill="#D67DEC"></path>
                        <path d="M59.7421239,75.3520876 L59.7421239,66.9812184 L67.790199,71.1664172 L59.7421239,75.3520876 Z M62.212363,59.4183336 C55.8349671,59.4183336 50.6588192,64.5360397 50.6588192,70.8414311 C50.6588192,77.1472941 55.8349671,82.2650002 62.212363,82.2650002 C68.5902359,82.2650002 73.7659067,77.1472941 73.7659067,70.8414311 C73.7659067,64.5360397 68.5902359,59.4183336 62.212363,59.4183336 L62.212363,59.4183336 Z" id="Fill-167" fill="#FF654C" transform="translate(62.212363, 70.841667) rotate(-6.000000) translate(-62.212363, -70.841667) "></path>
                        <path d="M3.40145305,24.1058172 L3.40145305,22.286063 L5.15103459,23.1958888 L3.40145305,24.1058172 Z M3.93846154,20.6419576 C2.55207113,20.6419576 1.42682159,21.7545024 1.42682159,23.1252397 C1.42682159,24.4960795 2.55207113,25.6086243 3.93846154,25.6086243 C5.32495565,25.6086243 6.45010148,24.4960795 6.45010148,23.1252397 C6.45010148,21.7545024 5.32495565,20.6419576 3.93846154,20.6419576 L3.93846154,20.6419576 Z" id="Fill-167" fill="#FF654C" transform="translate(3.938462, 23.125291) rotate(-21.000000) translate(-3.938462, -23.125291) "></path>
                        <path d="M76.7995635,53.2647038 L76.7995635,48.8966006 L80.997767,51.0806522 L76.7995635,53.2647038 Z M78.087729,44.9521642 C74.7605573,44.9521642 72.0597931,47.6214053 72.0597931,50.9114651 C72.0597931,54.201525 74.7605573,56.8721642 78.087729,56.8721642 C81.4149007,56.8721642 84.1156649,54.201525 84.1156649,50.9114651 C84.1156649,47.6214053 81.4149007,44.9521642 78.087729,44.9521642 L78.087729,44.9521642 Z" id="Fill-183" fill="#27C195"></path>
                        <path d="M76.5980161,4.82617566 L76.5980161,2.2900995 L79.0354503,3.55813758 L76.5980161,4.82617566 Z M77.3459119,9.09494702e-13 C75.4141899,9.09494702e-13 73.8461538,1.54973412 73.8461538,3.45990928 C73.8461538,5.37008444 75.4141899,6.92063036 77.3459119,6.92063036 C79.2776339,6.92063036 80.84567,5.37008444 80.84567,3.45990928 C80.84567,1.54973412 79.2776339,9.09494702e-13 77.3459119,9.09494702e-13 L77.3459119,9.09494702e-13 Z" id="Fill-183" fill="#FFC965"></path>
                        <path d="M42.9692781,33.1067288 L42.9692781,29.8031559 L46.1443568,31.4549424 L42.9692781,33.1067288 Z M43.9435107,26.82 C41.4271887,26.82 39.3846154,28.8387326 39.3846154,31.3269871 C39.3846154,33.8152416 41.4271887,35.8350317 43.9435107,35.8350317 C46.4598328,35.8350317 48.5024061,33.8152416 48.5024061,31.3269871 C48.5024061,28.8387326 46.4598328,26.82 43.9435107,26.82 L43.9435107,26.82 Z" id="Fill-183" fill="#FFC965"></path>
                    </g>
                </g>
            </g>
        </g>
    </g>
</svg>