<?xml version="1.0" encoding="UTF-8"?>
<svg width="93px" height="97px" viewBox="0 0 93 97" version="1.1" xmlns="http://www.w3.org/2000/svg" xmlns:xlink="http://www.w3.org/1999/xlink">
    <!-- Generator: Sketch 55.2 (78181) - https://sketchapp.com -->
    <title>subjects/education</title>
    <desc>Created with Sketch.</desc>
    <defs>
        <path d="M0,83.4115625 L85.285625,83.4115625 L85.285625,0.00125 L0,0.00125 M10.4525,45.88 C10.4525,31.9865625 21.7553125,20.68375 35.6484375,20.68375 L35.6484375,20.68375 C49.5415625,20.68375 60.844375,31.9865625 60.844375,45.88 L60.844375,45.88 C60.844375,59.7728125 49.5415625,71.075625 35.6484375,71.075625 L35.6484375,71.075625 C21.7553125,71.075625 10.4525,59.7728125 10.4525,45.88" id="path-1"></path>
        <path d="M0,83.4115625 L85.285625,83.4115625 L85.285625,0.00125 L0,0.00125 L0,83.4115625 Z M10.4525,45.88 C10.4525,31.9865625 21.7553125,20.68375 35.6484375,20.68375 L35.6484375,20.68375 C49.5415625,20.68375 60.844375,31.9865625 60.844375,45.88 L60.844375,45.88 C60.844375,59.7728125 49.5415625,71.075625 35.6484375,71.075625 L35.6484375,71.075625 C21.7553125,71.075625 10.4525,59.7728125 10.4525,45.88 L10.4525,45.88 Z" id="path-3"></path>
        <path d="M0,83.4115625 L85.285625,83.4115625 L85.285625,0.00125 L0,0.00125 M10.4525,45.88 C10.4525,31.9865625 21.7553125,20.68375 35.6484375,20.68375 L35.6484375,20.68375 C49.5415625,20.68375 60.844375,31.9865625 60.844375,45.88 L60.844375,45.88 C60.844375,59.7728125 49.5415625,71.075625 35.6484375,71.075625 L35.6484375,71.075625 C21.7553125,71.075625 10.4525,59.7728125 10.4525,45.88" id="path-5"></path>
        <path d="M0,83.4115625 L85.285625,83.4115625 L85.285625,0.00125 L0,0.00125 M10.4525,45.88 C10.4525,31.9865625 21.7553125,20.68375 35.6484375,20.68375 L35.6484375,20.68375 C49.5415625,20.68375 60.844375,31.9865625 60.844375,45.88 L60.844375,45.88 C60.844375,59.7728125 49.5415625,71.075625 35.6484375,71.075625 L35.6484375,71.075625 C21.7553125,71.075625 10.4525,59.7728125 10.4525,45.88" id="path-7"></path>
    </defs>
    <g id="desktop" stroke="none" stroke-width="1" fill="none" fill-rule="evenodd">
        <g id="homepage" transform="translate(-611.000000, -477.000000)">
            <g id="subjects" transform="translate(54.000000, 387.000000)">
                <g transform="translate(0.000000, 82.000000)" id="education">
                    <g transform="translate(336.000000, 0.000000)">
                        <g id="subjects-/-icons-/-humanities" transform="translate(212.000000, 8.000000)">
                            <path d="M94.5059375,52.8642813 C76.9265625,67.1377188 80.4121875,67.5999063 66.7246875,84.9214688 C53.0365625,102.243031 35.970625,98.5508438 13.4275,59.1024063 C-9.115625,19.6536563 67.6546875,-13.4044687 72.8325,6.66678125 C78.0103125,26.7380313 112.085313,38.5908437 94.5059375,52.8642813" id="Fill-1" fill="#FAFAFF"></path>
                            <g id="Group-25" stroke-width="1" transform="translate(14.000000, 2.000000)">
                                <g id="Group-9" transform="translate(5.000000, 19.311563)">
                                    <path d="M16.526125,0.57678125 C6.8595625,6.21615625 0.5483125,16.6317812 0.5483125,27.2667812 C0.5483125,32.3202188 1.9120625,37.2624063 4.5655,41.9058438 C10.0620625,51.5261563 20.117375,56.5824063 30.324875,57.0211563 L30.324875,61.4014688 L33.229875,61.4014688 L33.229875,56.9983438 C37.5870625,56.7683438 42.333625,55.5236563 46.3026875,53.2083438 C46.958625,52.8258438 47.2095625,51.8833438 46.8305,51.2255312 C46.451125,50.5683438 45.5095625,50.3127188 44.8505,50.6889688 C40.97925,52.9474063 35.986125,54.1386562 31.7776875,54.1386562 C21.9895625,54.1386562 12.2783125,49.5427188 7.0845625,40.4530313 C4.6576875,36.2055312 3.4533125,31.7995937 3.4533125,27.2667812 C3.4533125,17.7917812 9.18675,8.22521875 17.9783125,3.09615625 C18.558625,2.78053125 18.8651875,2.03521875 18.6758125,1.40271875 C18.182375,0.41834375 17.4145625,0.18303125 16.526125,0.57678125" id="Fill-3" fill="#838BB7"></path>
                                    <path d="M53.969375,27.2042812 C53.969375,39.7386562 43.808125,49.9002187 31.2734375,49.9002187 C18.73875,49.9002187 8.5775,39.7386562 8.5775,27.2042812 C8.5775,14.6695937 18.73875,4.50803125 31.2734375,4.50803125 C43.808125,4.50803125 53.969375,14.6695937 53.969375,27.2042812" id="Fill-5" fill="#2379E2"></path>
                                    <path d="M42.0629375,64.5053125 C42.0629375,63.7125 40.5498125,63.0334375 39.5254375,62.78 C39.0691875,62.0015625 38.51825,61.2975 38.1829375,61.2975 L25.97575,61.2975 C25.638875,61.2975 25.102,62.006875 24.66075,62.7890625 C23.6373125,63.04875 22.15825,63.7215625 22.15825,64.5053125 C22.15825,65.5128125 22.0745,66.3365625 22.8541875,66.3365625 L24.83075,66.3365625 L39.390125,66.3365625 L41.3666875,66.3365625 C42.1466875,66.3365625 42.0629375,65.5128125 42.0629375,64.5053125" id="Fill-7" fill="#838BB7"></path>
                                    <path d="M18.3233125,8.6321875 C18.5683125,9.69375 19.1808125,11.1228125 20.2833125,12.3071875 C21.2633125,13.3275 22.6108125,14.10375 24.4889375,14.2259375 C25.877375,14.3078125 26.9795625,14.3078125 27.959875,14.3484375 C32.083625,14.47125 34.45175,14.511875 37.02425,17.2475 C37.2283125,17.451875 37.88175,16.9615625 38.0858125,16.839375 C38.657375,16.39 39.269875,15.6553125 39.8414375,14.6753125 C40.9033125,12.7559375 41.6383125,10.06125 41.3933125,6.8765625 C38.37175,5.365625 34.9420625,4.508125 31.308,4.508125 C26.489875,4.508125 21.9983125,6.06 18.3233125,8.6321875 M13.3420625,29.4153125 C13.3420625,25.9040625 16.0776875,22.188125 19.7933125,22.188125 C20.8551875,22.188125 21.957375,22.515 23.1008125,23.2090625 C25.0608125,24.393125 25.754875,25.65875 26.408,26.88375 C27.0614375,28.026875 27.6739375,29.1296875 30.858625,29.9053125 C33.553625,30.5178125 35.2276875,32.1921875 36.126125,34.1928125 C36.616125,35.295 36.8608125,36.4790625 36.90175,37.663125 C36.983625,38.8475 36.8608125,39.9909375 36.616125,41.0115625 C36.126125,43.175625 34.983,44.9721875 33.5945625,45.54375 C32.6551875,45.993125 31.5120625,45.54375 31.103625,44.56375 C30.573,43.3390625 30.0420625,42.318125 25.264875,42.2771875 C21.7939375,42.2771875 18.8951875,40.7665625 16.8126875,38.5209375 C14.6076875,36.111875 13.3420625,32.76375 13.3420625,29.4153125 M52.4995625,19.1259375 C51.968625,19.33 51.3970625,19.6975 50.743625,20.1875 C49.6414375,21.0040625 48.5795625,22.1475 47.8039375,23.3725 C47.3545625,24.1075 47.028,24.80125 46.6608125,25.495625 C45.7214375,27.2921875 44.782375,29.0478125 43.189875,30.476875 C43.802375,30.5996875 44.5783125,30.5178125 45.4358125,30.395625 C46.538,30.2728125 47.7220625,30.1096875 49.1105,30.231875 C50.376125,30.3546875 51.438,30.0278125 52.2545625,29.45625 C53.1526875,28.84375 53.7651875,27.9865625 53.96925,27.1696875 C53.96925,24.393125 53.438625,21.6984375 52.4995625,19.1259375" id="Fill-23" fill="#27C195"></path>
                                </g>
                                <g id="Group-22" transform="translate(0.625000, 0.499063)">
                                    <g id="Group-12">
                                        <mask id="mask-2" fill="white">
                                            <use xlink:href="#path-1"></use>
                                        </mask>
                                        <g id="Clip-11"></g>
                                        <path d="M74.0752813,51.994875 L43.6093438,51.994875 C42.3259063,51.994875 42.4637188,50.828625 42.4637188,49.4026875 C42.4637188,47.977375 46.4827813,46.8108125 47.7662188,46.8108125 L69.9184063,46.8108125 C71.2018438,46.8108125 75.2209063,47.977375 75.2209063,49.4026875 C75.2209063,50.828625 75.3584063,51.994875 74.0752813,51.994875" id="Fill-10" fill="#F54F71" mask="url(#mask-2)"></path>
                                    </g>
                                    <g id="Group-15">
                                        <mask id="mask-4" fill="white">
                                            <use xlink:href="#path-3"></use>
                                        </mask>
                                        <g id="Clip-14"></g>
                                        <path d="M65.6444688,43.2555625 C65.6444688,43.7999375 65.1991563,44.24525 64.6550938,44.24525 L63.8622813,44.24525 C63.3182188,44.24525 62.8729062,43.7999375 62.8729062,43.2555625 L62.8729062,18.154625 C62.8729062,17.61025 63.3182188,17.1649375 63.8622813,17.1649375 L64.6550938,17.1649375 C65.1991563,17.1649375 65.6444688,17.61025 65.6444688,18.154625 L65.6444688,43.2555625 Z M60.1700938,43.2555625 C60.1700938,43.7999375 59.7250937,44.24525 59.1807188,44.24525 L58.3879063,44.24525 C57.8438438,44.24525 57.3985313,43.7999375 57.3985313,43.2555625 L57.3985313,18.154625 C57.3985313,17.61025 57.8438438,17.1649375 58.3879063,17.1649375 L59.1807188,17.1649375 C59.7250937,17.1649375 60.1700938,17.61025 60.1700938,18.154625 L60.1700938,43.2555625 Z M54.7254063,43.2555625 C54.7254063,43.7999375 54.2800938,44.24525 53.7360313,44.24525 L52.9429063,44.24525 C52.3988438,44.24525 51.9535313,43.7999375 51.9535313,43.2555625 L51.9535313,18.154625 C51.9535313,17.61025 52.3988438,17.1649375 52.9429063,17.1649375 L53.7360313,17.1649375 C54.2800938,17.1649375 54.7254063,17.61025 54.7254063,18.154625 L54.7254063,43.2555625 Z M48.9713438,12.505875 L48.9713438,46.5955625 C48.9713438,47.684 49.8619688,48.574625 50.9504063,48.574625 L66.7338438,48.574625 C67.8225938,48.574625 68.7129063,47.684 68.7129063,46.5955625 L68.7129063,12.505875 L48.9713438,12.505875 Z" id="Fill-13" fill="#F54F71" mask="url(#mask-4)"></path>
                                    </g>
                                    <g id="Group-18">
                                        <mask id="mask-6" fill="white">
                                            <use xlink:href="#path-5"></use>
                                        </mask>
                                        <g id="Clip-17"></g>
                                        <path d="M79.3291875,14.7234375 C79.095125,13.6475 78.533875,12.665 77.7385625,11.823125 C76.94325,11.0278125 75.913875,10.46625 74.8848125,10.185625 C74.370125,10.0453125 73.808875,9.9515625 73.2941875,9.905 L72.9198125,9.905 L72.5923125,9.905 L71.937625,9.905 L69.3179375,9.8584375 L64.07825,9.81125 L58.838875,9.7646875 C55.330125,9.7646875 51.86825,9.81125 48.3595,9.8584375 L45.740125,9.905 L45.085125,9.905 L44.38325,9.905 C43.822,9.9515625 43.3073125,10.0453125 42.792625,10.185625 C41.7635625,10.46625 40.7345,11.0278125 39.9391875,11.823125 C39.143875,12.6184375 38.5823125,13.6475 38.3485625,14.7234375 C38.0679375,15.799375 38.161375,16.9221875 38.488875,17.95125 C38.6760625,18.46625 38.9098125,18.980625 39.2373125,19.4484375 C39.5648125,19.91625 39.9860625,20.2903125 40.453875,20.6178125 C41.3895,21.22625 42.5123125,21.5534375 43.5879375,21.413125 C44.1495,21.3665625 44.663875,21.22625 45.1316875,20.9921875 C45.646375,20.7584375 46.1141875,20.4309375 46.4416875,20.0096875 C47.1435625,19.1678125 47.4710625,18.045 47.3304375,17.0159375 C47.237,16.5009375 47.096375,15.9865625 46.7691875,15.5653125 C46.4885625,15.0978125 46.02075,14.77 45.5529375,14.583125 C44.6173125,14.1621875 43.4945,14.255625 42.6991875,14.910625 C42.6054375,15.0040625 42.5123125,15.0978125 42.4185625,15.1446875 C42.0910625,15.4721875 41.8573125,15.94 41.8573125,16.454375 C41.8573125,17.4834375 42.6991875,18.325625 43.72825,18.325625 C44.757625,18.325625 45.5995,17.4834375 45.5995,16.454375 C45.5995,16.126875 45.5060625,15.84625 45.36575,15.5653125 C45.7866875,15.9865625 46.02075,16.548125 46.02075,17.109375 C46.02075,17.81125 45.740125,18.46625 45.2254375,18.886875 C44.991375,19.1209375 44.71075,19.26125 44.430125,19.3546875 C44.102625,19.4484375 43.7754375,19.4953125 43.4479375,19.4953125 C42.792625,19.4953125 42.137625,19.214375 41.6698125,18.8403125 C41.4360625,18.653125 41.2491875,18.3725 41.062,18.13875 C40.9216875,17.8578125 40.7810625,17.5771875 40.7345,17.2496875 C40.5941875,16.5946875 40.5941875,15.94 40.8279375,15.3315625 C41.015125,14.7234375 41.3895,14.1621875 41.8573125,13.7409375 C42.325125,13.32 42.886375,13.039375 43.541375,12.8990625 C43.8685625,12.8053125 44.1960625,12.8053125 44.5235625,12.8053125 L45.7866875,12.8521875 L48.4066875,12.8990625 C51.915125,12.9459375 55.377,12.9925 58.838875,12.9925 L64.07825,12.9925 L69.3179375,12.9459375 L71.937625,12.8990625 L73.20075,12.8521875 C73.52825,12.8521875 73.8554375,12.8990625 74.1829375,12.9459375 C74.8379375,13.08625 75.3995,13.366875 75.8673125,13.7878125 C76.335125,14.2090625 76.7091875,14.7234375 76.896375,15.3784375 C77.08325,15.9865625 77.1304375,16.6415625 76.990125,17.29625 C76.8495,17.95125 76.5223125,18.46625 76.0545,18.886875 C75.586375,19.308125 74.9316875,19.541875 74.2766875,19.541875 C73.9491875,19.541875 73.6216875,19.4953125 73.2941875,19.4015625 C73.0135625,19.308125 72.7329375,19.1209375 72.4991875,18.9340625 C72.0310625,18.5128125 71.703875,17.8578125 71.703875,17.1559375 C71.703875,16.5946875 71.89075,16.0803125 72.265125,15.6590625 C72.1245,15.8928125 72.0779375,16.17375 72.0779375,16.454375 C72.0779375,17.4834375 72.9198125,18.325625 73.9491875,18.325625 C74.65075,18.325625 75.2591875,17.95125 75.586375,17.3434375 L75.586375,17.39 C75.586375,17.3434375 75.63325,17.29625 75.63325,17.29625 C75.680125,17.2496875 75.680125,17.1559375 75.727,17.109375 C75.8204375,16.9221875 75.8673125,16.688125 75.8673125,16.454375 C75.8673125,16.033125 75.727,15.6125 75.4929375,15.3315625 C75.3995,15.1446875 75.2591875,15.0040625 75.072,14.86375 C74.2766875,14.255625 73.153875,14.1153125 72.21825,14.53625 C71.7504375,14.77 71.3291875,15.0975 71.002,15.51875 C70.721375,15.9865625 70.533875,16.454375 70.44075,16.9690625 C70.300125,17.998125 70.627625,19.1209375 71.3291875,19.963125 C71.703875,20.3840625 72.1245,20.7115625 72.6395,20.9453125 C73.153875,21.179375 73.6685625,21.3196875 74.1829375,21.3665625 C75.2591875,21.46 76.3816875,21.179375 77.317625,20.57125 C78.25325,19.963125 78.9548125,18.9340625 79.2823125,17.9046875 C79.516375,16.9690625 79.6095,15.799375 79.3291875,14.7234375" id="Fill-16" fill="#F54F71" mask="url(#mask-6)"></path>
                                    </g>
                                    <g id="Group-21">
                                        <mask id="mask-8" fill="white">
                                            <use xlink:href="#path-7"></use>
                                        </mask>
                                        <g id="Clip-20"></g>
                                        <path d="M68.9381875,9.97034375 C70.01225,9.97034375 72.3231875,6.20440625 72.3231875,5.21753125 L72.3231875,4.63221875 C72.3231875,3.64534375 71.647875,2.83784375 70.82225,2.83784375 L46.86225,2.83784375 C46.036625,2.83784375 45.3613125,3.64534375 45.3613125,4.63221875 L45.3613125,5.21753125 C45.3613125,6.20440625 47.775375,9.97034375 48.849125,9.97034375 L68.9381875,9.97034375 Z" id="Fill-19" fill="#F54F71" mask="url(#mask-8)"></path>
                                    </g>
                                </g>
                            </g>
                        </g>
                    </g>
                </g>
            </g>
        </g>
    </g>
</svg>