<?xml version="1.0" encoding="UTF-8"?>
<svg width="94px" height="88px" viewBox="0 0 94 88" version="1.1" xmlns="http://www.w3.org/2000/svg" xmlns:xlink="http://www.w3.org/1999/xlink">
    <!-- Generator: Sketch 55.2 (78181) - https://sketchapp.com -->
    <title>subjects/maths</title>
    <desc>Created with Sketch.</desc>
    <defs>
        <polygon id="path-1" points="0.000117179631 0.151252918 91.7013184 0.151252918 91.7013184 85.9999473 0.000117179631 85.9999473"></polygon>
    </defs>
    <g id="desktop" stroke="none" stroke-width="1" fill="none" fill-rule="evenodd">
        <g id="homepage" transform="translate(-610.000000, -795.000000)">
            <g id="subjects" transform="translate(54.000000, 387.000000)">
                <g transform="translate(0.000000, 82.000000)" id="maths">
                    <g transform="translate(336.000000, 318.000000)">
                        <g id="subjects-/-icons-/-education" transform="translate(212.000000, 8.000000)">
                            <g id="Group-26" transform="translate(8.000000, 0.000000)">
                                <g id="Group-3">
                                    <mask id="mask-2" fill="white">
                                        <use xlink:href="#path-1"></use>
                                    </mask>
                                    <g id="Clip-2"></g>
                                    <path d="M91.6971,43.2316646 C91.9877667,73.7844195 77.2307667,74.4781082 55.6364333,82.3770576 C34.0427667,90.2763416 19.8194333,85.5349642 6.4751,65.4213377 C-6.86923333,45.307042 0.5111,13.0362949 27.7027667,2.83508872 C54.8937667,-7.36611751 91.4064333,12.6789097 91.6971,43.2316646" id="Fill-1" fill="#FAFAFF" mask="url(#mask-2)"></path>
                                </g>
                                <path d="M20.7222869,58.2926125 C21.3616397,58.5026038 21.7939958,58.9878491 21.7939958,59.5515453 C21.7939958,60.3120449 20.9813667,60.9284925 19.9787679,60.9284925 C17.5936313,60.9284925 16.3142579,58.1221849 16.3142579,55.4866431 C16.3142579,52.8511012 17.5936313,50.0451318 19.9787679,50.0451318 C20.9813667,50.0451318 21.7939958,50.6615794 21.7939958,51.4220789 C21.7939958,51.9857752 21.3442787,52.4710205 20.7222869,52.6806736 C20.4628732,52.9954913 19.9443798,53.9132307 19.9443798,55.4866431 C19.9443798,57.0600555 20.4628732,57.9909827 20.7222869,58.2926125 L20.7222869,58.2926125 Z M80.185106,50.9892468 C81.1873709,50.9892468 82,50.3731374 82,49.6126378 L82,49.376609 C82,48.6161095 81.1873709,48 80.185106,48 L12.9435496,48 C10.2125281,48 8,51.3564778 8,55.4998309 C8,59.643184 10.2125281,63 12.9435496,63 L80.185106,63 C81.1873709,63 82,62.3838905 82,61.623391 L82,61.3741744 C82,60.6136748 81.1873709,59.9972272 80.185106,59.9972272 L75.9152974,59.9972272 C75.2929717,58.7386325 74.9126986,57.1912577 74.9126986,55.4998309 C74.9126986,53.8084042 75.2929717,52.2610293 75.9152974,51.0020965 L80.185106,51.0020965 L80.185106,50.9892468 Z" id="Fill-4" fill="#FF654C"></path>
                                <path d="M26.8696711,73.4869818 C26.8696711,75.0603233 27.3884961,75.9912085 27.6475747,76.2928248 C28.2869247,76.5028065 28.7192789,76.98803 28.7192789,77.5517008 C28.7192789,78.3121661 27.9066534,78.9282478 26.904393,78.9282478 C24.5189333,78.9282478 23.2395656,76.1224048 23.2395656,73.4869818 C23.2395656,70.8515588 24.5189333,68.0457158 26.904393,68.0457158 C27.9066534,68.0457158 28.7192789,68.6617975 28.7192789,69.4222628 M20.7225634,76.2928248 C21.3619133,76.5028065 21.7942675,76.98803 21.7942675,77.5517008 C21.7942675,78.3121661 20.981642,78.9282478 19.9790478,78.9282478 C17.5939219,78.9282478 16.3145542,76.1224048 16.3145542,73.4869818 C16.3145542,70.8515588 17.5939219,68.0457158 19.9790478,68.0457158 C20.981642,68.0457158 21.7942675,68.6617975 21.7942675,69.4222628 C21.7942675,69.9859336 21.3445524,70.4711571 20.7225634,70.6811388 C20.4631509,70.9959424 19.9446598,71.9136404 19.9446598,73.4869818 C19.9446598,75.0603233 20.4631509,75.9912085 20.7225634,76.2928248 M80.1847803,66 L12.9438612,66 C10.2125181,66 8,69.3566646 8,73.5001691 C8,77.6433354 10.2125181,81 12.9438612,81 L80.1847803,81 C81.1873745,81 82,80.3835802 82,79.6231149 L82,79.3739095 C82,78.6134442 81.1873745,77.9973625 80.1847803,77.9973625 L75.9153248,77.9973625 C75.2930019,76.7384865 74.9127306,75.1915196 74.9127306,73.5001691 C74.9127306,71.8084804 75.2930019,70.2615135 75.9153248,69.0026375 L80.1847803,69.0026375 C81.1873745,69.0026375 82,68.3865558 82,67.6260905 L82,67.3772232 C82,66.616758 81.1873745,66 80.1847803,66" id="Fill-6" fill="#2379E2"></path>
                                <path d="M45.0001714,12 C39.664547,12 34.5,16.2048499 34.5,22.15252 C34.5,29.4306404 39.5568952,31.2814291 40.132867,36 L49.867133,36 C50.4434477,31.2814291 55.5,29.4306404 55.5,22.15252 C55.5,16.2048499 50.335453,12 45.0001714,12" id="Fill-8" fill="#FFC965"></path>
                                <path d="M40,42.2858102 C40,43.2708648 40.8588017,44 41.8180523,44 L48.1819477,44 C49.1411983,44 50,43.2708648 50,42.2858102 L50,38 L40,38" id="Fill-10" fill="#838BB7"></path>
                                <path d="M44.9998517,10 C45.5516679,10 46,9.60837315 46,9.12522002 L46,3.87507334 C46,3.39192021 45.5516679,3 44.9998517,3 C44.4483321,3 44,3.39192021 44,3.87507334 L44,9.12551337 C44,9.60837315 44.4483321,10 44.9998517,10" id="Fill-12" fill="#FFC965"></path>
                                <path d="M35.4975231,13.7825954 C34.9798393,14.1088882 34.2797302,14.0627752 33.9347237,13.6786954 L30.1887398,9.50518385 C29.8440814,9.12052033 29.9847299,8.54410877 30.5024137,8.21752419 C31.0204457,7.89093961 31.7202066,7.93734439 32.0652131,8.3214242 L35.8111971,12.4955195 C36.1562036,12.8793074 36.0148588,13.4560109 35.4975231,13.7825954" id="Fill-14" fill="#FFC965"></path>
                                <path d="M32,20.9886807 C32.0017542,21.5357898 31.6115948,21.9814736 31.1278557,21.9829435 L25.8783047,22 C25.394859,22.0017587 25.001766,21.5587208 25,21.0116117 C24.9982458,20.4645025 25.3884052,20.0188188 25.8718509,20.0170549 L31.122282,20 C31.6048476,19.9985337 31.998234,20.4415716 32,20.9886807" id="Fill-16" fill="#FFC965"></path>
                                <path d="M33.4975231,29.2174046 C32.9798393,28.8911118 32.2797302,28.9372248 31.9347237,29.3213046 L28.1887398,33.4948162 C27.8440814,33.8794797 27.9847299,34.4558912 28.5024137,34.7824758 C29.0204457,35.1090604 29.7202066,35.0626556 30.0652131,34.6785758 L33.8111971,30.5044805 C34.1562036,30.1206926 34.0148588,29.5439891 33.4975231,29.2174046" id="Fill-18" fill="#FFC965"></path>
                                <path d="M56.0652647,13.6786954 L59.8112597,9.50518385 C60.1559191,9.12052033 60.0152702,8.54410877 59.4975848,8.21752419 C58.9795513,7.89093961 58.2797883,7.93734439 57.9347808,8.3214242 L54.1887858,12.4955195 C53.8437783,12.8793074 53.9851235,13.4560109 54.5028088,13.7825954 C55.020146,14.1088882 55.7202572,14.0627752 56.0652647,13.6786954 Z" id="Fill-20" fill="#FFC965"></path>
                                <path d="M58,20.9886807 C57.9982458,21.5357898 58.3884052,21.9814736 58.8721443,21.9829435 L64.1216953,22 C64.6054343,22.0017587 64.998234,21.5587208 65,21.0116117 C65.0017542,20.4645025 64.6115948,20.0188188 64.1284424,20.0170549 L58.877718,20 C58.3951524,19.9985337 58.001766,20.4415716 58,20.9886807" id="Fill-22" fill="#FFC965"></path>
                                <path d="M56.5028088,29.2174046 C57.020146,28.8911118 57.7202572,28.9372248 58.0652647,29.3213046 L61.8112597,33.4948162 C62.1559191,33.8794797 62.0152702,34.4558912 61.4975848,34.7824758 C60.9795513,35.1090604 60.2797883,35.0626556 59.9347808,34.6785758 L56.1887858,30.5044805 C55.8437783,30.1206926 55.9851235,29.5439891 56.5028088,29.2174046" id="Fill-24" fill="#FFC965"></path>
                            </g>
                        </g>
                    </g>
                </g>
            </g>
        </g>
    </g>
</svg>