<?xml version="1.0" encoding="UTF-8"?>
<svg width="75px" height="87px" viewBox="0 0 75 87" version="1.1" xmlns="http://www.w3.org/2000/svg" xmlns:xlink="http://www.w3.org/1999/xlink">
    <!-- Generator: Sketch 55.2 (78181) - https://sketchapp.com -->
    <title>subjects/languages</title>
    <desc>Created with Sketch.</desc>
    <defs>
        <polygon id="path-1" points="0.00012712536 0.148539962 75.2977103 0.148539962 75.2977103 78.147541 0.00012712536 78.147541"></polygon>
        <polyline id="path-3" points="0.757377049 0.285737705 0.0712622951 36.832623 53.8773934 64.4603607 52.8446066 0.285737705"></polyline>
        <polyline id="path-5" points="0.757377049 0.285737705 0.0712622951 36.832623 53.8773934 64.4603607 52.8446066 0.285737705"></polyline>
        <polygon id="path-7" points="0.757377049 0.285737705 0.0712622951 36.832623 53.8773934 64.4603607 52.8446066 0.285737705"></polygon>
        <polyline id="path-9" points="0.757377049 0.285737705 0.0712622951 36.832623 53.8773934 64.4603607 52.8446066 0.285737705"></polyline>
    </defs>
    <g id="desktop" stroke="none" stroke-width="1" fill="none" fill-rule="evenodd">
        <g id="homepage" transform="translate(-292.000000, -795.000000)">
            <g id="subjects" transform="translate(54.000000, 387.000000)">
                <g transform="translate(0.000000, 82.000000)" id="languages">
                    <g transform="translate(0.000000, 318.000000)">
                        <g id="subjects-/-icons-/-life-skills" transform="translate(212.000000, 8.000000)">
                            <g id="Group-20" transform="translate(26.000000, -20.000000)">
                                <g id="Group-6" transform="translate(0.000000, 26.566721)">
                                    <g id="Group-3">
                                        <mask id="mask-2" fill="white">
                                            <use xlink:href="#path-1"></use>
                                        </mask>
                                        <g id="Clip-2"></g>
                                        <path d="M69.152328,19.6797885 C79.0565875,35.8081328 69.2998489,76.9691656 46.1010193,77.9981656 C22.9018559,79.0275098 15.2140812,75.0660836 4.61560575,55.7615754 C-5.98286975,36.456723 2.61940099,15.4732475 20.758464,4.7116082 C38.897527,-6.05003115 59.2484023,3.55144426 69.152328,19.6797885" id="Fill-1" fill="#FAFAFF" mask="url(#mask-2)"></path>
                                    </g>
                                    <path d="M56.0837705,57.7829803 L56.0837705,72.4767836 C56.0837705,72.8496197 55.9168033,73.2166033 55.6259016,73.4796197 C55.3332787,73.7443574 54.9298033,73.8958328 54.516,73.8958328 L29.0247541,73.8958328 C28.6133607,73.8958328 28.2074754,73.7443574 27.9172623,73.4796197 C27.6246393,73.2166033 27.4573279,72.8496197 27.4573279,72.4767836 L27.4573279,64.2165541 L19.9957869,64.2165541 C15.5207213,64.2165541 11.8963279,60.9336689 11.8942623,56.8823902 L11.8942623,49.2638656 L8.48537705,48.1247016 C6.35577049,47.4096689 5.03483523,45.5850787 5.03483523,43.6399967 C5.03483523,43.089177 5.14086885,42.527341 5.36257377,41.9840951 L10.1488525,30.2578328 C10.5368361,24.2277344 13.0299836,18.7116197 16.9714426,14.2992098 L68.1446557,40.6679803 C65.6274098,45.1592262 61.7165902,55.1865541 56.0837705,57.7829803" id="Fill-4" fill="#FFC965"></path>
                                </g>
                                <g id="Group-19" transform="translate(15.147541, 0.058525)">
                                    <g id="Group-9">
                                        <mask id="mask-4" fill="white">
                                            <use xlink:href="#path-3"></use>
                                        </mask>
                                        <g id="Clip-8"></g>
                                        <path d="M21.7857779,33.2567738 C21.7763115,37.4918885 24.2611967,41.1520852 27.8776721,42.8678885 L27.7737049,73.9823148 C27.7678525,76.5095443 29.7783443,78.5293311 32.305918,78.5348521 C34.8331475,78.5406918 36.8529344,76.5298557 36.8584426,74.0026262 L36.9286721,42.854118 C40.5186393,41.188577 43.0541311,37.505659 43.064142,33.2705443 C43.0737541,28.9669213 40.5203607,25.3067246 36.9038852,23.5909213 L36.8870164,30.9684623 C36.8835738,32.4711672 35.617377,33.7318557 34.1146721,33.7284131 L30.6992459,33.7208393 C29.1961967,33.7173967 27.9351639,32.4508557 27.9386066,30.9481508 L27.9554754,23.5706098 C24.3314262,25.2702328 21.7615082,28.9190689 21.7857779,33.2567738" id="Fill-7" fill="#838BB7" mask="url(#mask-4)"></path>
                                    </g>
                                    <g id="Group-12">
                                        <mask id="mask-6" fill="white">
                                            <use xlink:href="#path-5"></use>
                                        </mask>
                                        <g id="Clip-11"></g>
                                        <path d="M46.1159656,46.6846773 C44.9348016,46.670382 43.9663918,47.6157262 43.9515885,48.7968902 L43.8035557,73.732841 C43.7887525,74.9136607 44.7340967,75.882759 45.9149164,75.8970374 C47.0957361,75.9113328 48.0644902,74.9659885 48.0792934,73.7855131 L48.2273262,48.8488738 C48.2421295,47.6683984 47.2967852,46.6996443 46.1159656,46.6846773" id="Fill-10" fill="#27C195" mask="url(#mask-6)"></path>
                                    </g>
                                    <g id="Group-15">
                                        <mask id="mask-8" fill="white">
                                            <use xlink:href="#path-7"></use>
                                        </mask>
                                        <g id="Clip-14"></g>
                                        <path d="M50.9655541,46.3197508 L46.6436852,38.616882 C46.5548656,38.4588656 46.3885869,38.359718 46.2071607,38.3572636 C46.0257344,38.3548984 45.8567016,38.450259 45.7644393,38.6058656 L41.2546033,46.1996033 L41.0965869,46.465718 L41.0897016,47.0420131 L40.8989803,75.4019967 C40.9230787,75.4030295 40.947177,75.4064721 40.9723082,75.4064721 C42.1527836,75.4212754 43.9818492,74.4759311 43.9963082,73.2947672 L44.1446852,48.3588164 C44.1550131,47.5139967 42.8130787,46.7796852 42.1063082,46.4240623 L44.4789639,42.4278656 L47.8344885,42.4688328 L50.1110951,46.5266525 C50.1086852,46.5280295 50.1055869,46.5290623 50.1018,46.5307836 L50.0945705,46.5307836 L50.093882,46.5342262 C49.3929639,46.8784885 48.045177,47.5928328 48.0345049,48.4276689 L47.8864721,73.3639639 C47.8720131,74.5447836 49.6769803,75.513882 50.8574557,75.5283745 C50.8781115,75.5283745 50.898423,75.5262754 50.9190787,75.5259311 L51.0299311,53.6012426 L51.0867344,48.9805541 L51.1094557,47.165259 L51.116341,46.5889639 L50.9655541,46.3197508 Z" id="Fill-13" fill="#27C195" mask="url(#mask-8)"></path>
                                    </g>
                                    <g id="Group-18">
                                        <mask id="mask-10" fill="white">
                                            <use xlink:href="#path-9"></use>
                                        </mask>
                                        <g id="Clip-17"></g>
                                        <path d="M19.3075377,94.7418164 L12.4450131,94.7418164 C11.922423,94.7418164 11.4982918,94.3183738 11.4982918,93.7950951 C11.4982918,93.2714721 11.922423,92.848718 12.4450131,92.848718 L19.3075377,92.848718 L19.3075377,90.0051115 L16.2329311,90.0051115 C15.7106852,90.0051115 15.2865541,89.5820131 15.2865541,89.0587344 C15.2865541,88.5351115 15.7106852,88.1120131 16.2329311,88.1120131 L19.3075377,88.1120131 L19.3075377,85.2704721 L12.4450131,85.2704721 C11.922423,85.2704721 11.4982918,84.8473738 11.4982918,84.3240951 C11.4982918,83.8004721 11.922423,83.377718 12.4450131,83.377718 L19.3075377,83.377718 L19.3075377,80.5341115 L16.2329311,80.5341115 C15.7106852,80.5341115 15.2865541,80.1110131 15.2865541,79.5877344 C15.2865541,79.0641115 15.7106852,78.6410131 16.2329311,78.6410131 L19.3075377,78.6410131 L19.3075377,75.7994721 L12.4450131,75.7994721 C11.922423,75.7994721 11.4982918,75.376718 11.4982918,74.8530951 C11.4982918,74.3298164 11.922423,73.9063738 12.4450131,73.9063738 L19.3075377,73.9063738 L19.3075377,71.0631115 L16.2329311,71.0631115 C15.7106852,71.0631115 15.2865541,70.6400131 15.2865541,70.1163902 C15.2865541,69.5931115 15.7106852,69.1700131 16.2329311,69.1700131 L19.3075377,69.1700131 L19.3075377,66.3284721 L12.4450131,66.3284721 C11.922423,66.3284721 11.4982918,65.9053738 11.4982918,65.3817508 C11.4982918,64.8584721 11.922423,64.4353738 12.4450131,64.4353738 L19.3075377,64.4353738 L19.3075377,61.5921115 L16.2329311,61.5921115 C15.7106852,61.5921115 15.2865541,61.1679803 15.2865541,60.6457344 C15.2865541,60.1231443 15.7106852,59.6990131 16.2329311,59.6990131 L19.3075377,59.6990131 L19.3075377,56.8574721 L12.4450131,56.8574721 C11.922423,56.8574721 11.4982918,56.433341 11.4982918,55.9110951 C11.4982918,55.3885049 11.922423,54.964718 12.4450131,54.964718 L19.3075377,54.964718 L19.3075377,52.1221443 L16.2329311,52.1221443 C15.7106852,52.1221443 15.2865541,51.6976689 15.2865541,51.175423 C15.2865541,50.6528328 15.7106852,50.2290459 16.2329311,50.2290459 L19.3075377,50.2290459 L19.3075377,47.3875049 L12.4450131,47.3875049 C11.922423,47.3875049 11.4982918,46.9633738 11.4982918,46.4411279 C11.4982918,45.9181934 11.922423,45.4944066 12.4450131,45.4944066 L19.3075377,45.4944066 L19.3075377,42.6518328 L16.2329311,42.6518328 C15.7106852,42.6518328 15.2865541,42.2280459 15.2865541,41.7054557 C15.2865541,41.1828656 15.7106852,40.7587344 16.2329311,40.7587344 L19.3075377,40.7587344 L19.3075377,37.9171934 L12.4450131,37.9171934 C11.922423,37.9171934 11.4982918,37.4934066 11.4982918,36.9708164 C11.4982918,36.4482262 11.922423,36.0244393 12.4450131,36.0244393 L19.3075377,36.0244393 L19.3075377,33.1828984 L16.2329311,33.1828984 C15.7106852,33.1828984 15.2865541,32.7587672 15.2865541,32.236177 C15.2865541,31.7135869 15.7106852,31.2898 16.2329311,31.2898 L19.3075377,31.2898 L19.3075377,28.4472262 L12.4450131,28.4472262 C11.922423,28.4472262 11.4982918,28.0234393 11.4982918,27.5005049 C11.4982918,26.978259 11.922423,26.5541279 12.4450131,26.5541279 L19.3075377,26.5541279 L19.3075377,22.3117836 C19.3075377,21.2669475 18.4592754,20.4186852 17.4144393,20.4186852 L7.42807869,20.4186852 C6.38289836,20.4186852 5.53498033,21.2669475 5.53498033,22.3117836 L5.53498033,98.9810623 C5.53498033,100.025898 6.38289836,100.874161 7.42807869,100.874161 L17.4144393,100.874161 C18.4592754,100.874161 19.3075377,100.025898 19.3075377,98.9810623 L19.3075377,94.7418164 Z" id="Fill-16" fill="#F54F71" mask="url(#mask-10)"></path>
                                    </g>
                                </g>
                            </g>
                        </g>
                    </g>
                </g>
            </g>
        </g>
    </g>
</svg>