<?xml version="1.0" encoding="UTF-8"?>
<svg width="97px" height="74px" viewBox="0 0 97 74" version="1.1" xmlns="http://www.w3.org/2000/svg" xmlns:xlink="http://www.w3.org/1999/xlink">
    <!-- Generator: Sketch 55.2 (78181) - https://sketchapp.com -->
    <title>subjects/science</title>
    <desc>Created with Sketch.</desc>
    <g id="desktop" stroke="none" stroke-width="1" fill="none" fill-rule="evenodd">
        <g id="homepage" transform="translate(-942.000000, -795.000000)">
            <g id="subjects" transform="translate(54.000000, 387.000000)">
                <g transform="translate(0.000000, 82.000000)" id="science">
                    <g transform="translate(672.000000, 318.000000)">
                        <g id="subjects-/-icons-/-languages" transform="translate(212.000000, 8.000000)">
                            <path d="M98.9529567,44.4794207 C100.107877,82.2760146 65.127476,65.9884202 44.1102484,63.9004599 C23.0927163,61.8121987 6.3571875,51.1723262 4.19319712,30.5072358 C2.02920673,9.84214533 18.3210978,2.58332434 39.6251522,0.529962829 C60.9295112,-1.52369954 97.7983413,6.68282676 98.9529567,44.4794207" id="Fill-1" fill="#FAFAFF"></path>
                            <g id="Group-10" stroke-width="1" transform="translate(14.000000, 8.000000)">
                                <path d="M61.8285318,8.41975309 C61.8455674,8.67494724 61.8574314,8.93166041 61.8577356,9.19080399 L61.8577356,37.2800852 C61.8501305,43.7191806 56.6022702,48.9606862 50.1588798,48.9679775 L36.3488332,48.9679775 L29.8765432,53.8154512 L40.9846307,53.8154512 L53.5392185,63.2187481 C53.8206092,63.4295871 54.1628411,63.5432099 54.5145034,63.5432099 C55.4109989,63.5426017 56.1368348,62.8168173 56.1362264,61.9215112 L56.1362264,53.8154512 L67.5001513,53.8154512 C71.9811079,53.8099827 75.6121124,50.1840991 75.617284,45.7090874 L75.617284,16.5261169 C75.6121124,12.0511051 71.9811079,8.42491773 67.5001513,8.41975309 L61.8285318,8.41975309 Z" id="Fill-4" fill="#D67DEC"></path>
                                <path d="M59.1975309,37.4992108 L59.1975309,8.31593655 C59.1920366,3.84122859 55.5490048,0.214737384 51.052829,0.209876543 L8.70025739,0.209876543 C4.20438686,0.214737384 0.560744625,3.84122859 0.555555556,8.31593655 L0.555555556,37.4992108 C0.560744625,41.9739188 4.20438686,45.6001062 8.70025739,45.6055746 L20.1027789,45.6055746 L20.1027789,53.7116346 C20.1021684,54.6069408 20.8307748,55.3327251 21.7300099,55.3333333 C22.0828666,55.3333333 22.4262609,55.2197106 22.7086073,55.0088716 L35.3058357,45.6055746 L51.052829,45.6055746 C55.5490048,45.6001062 59.1920366,41.9739188 59.1975309,37.4992108" id="Fill-6" fill="#27C195"></path>
                                <path d="M39.1843017,31.6868911 C38.8307756,32.925178 38.4003828,34.0626985 37.8952583,35.0844577 C37.107374,36.6793256 36.1245775,38.0132806 34.9779816,38.9135802 C39.3322398,37.9961863 43.0224545,35.3267768 45.2454901,31.6868911 L39.1843017,31.6868911 Z M32.5423422,31.6868911 L32.5423422,38.2313079 C33.8737844,37.8123476 35.1948557,36.4744939 36.267025,34.3047178 C36.652884,33.5231785 36.9902437,32.6435719 37.2864247,31.6868911 L32.5423422,31.6868911 Z M25.9851802,31.6868911 C26.2813613,32.6435719 26.619026,33.5231785 27.0045799,34.3047178 C28.0767493,36.4744939 29.3978205,37.8123476 30.7292627,38.2313079 L30.7292627,31.6868911 L25.9851802,31.6868911 Z M18.0261148,31.6868911 C20.2491504,35.3267768 23.9393652,37.9961863 28.2936234,38.9135802 C27.1470275,38.0132806 26.1639259,36.6793256 25.3760416,35.0844577 C24.8712222,34.0626985 24.4408293,32.925178 24.0873032,31.6868911 L18.0261148,31.6868911 Z M40.2183427,24.5579693 C40.1674033,26.4392417 39.9703559,28.2413405 39.6232354,29.9045857 L46.1803974,29.9045857 C46.914902,28.2512372 47.3611563,26.4509378 47.4691358,24.5579693 L40.2183427,24.5579693 Z M32.5423422,24.5579693 L32.5423422,29.9045857 L37.7540309,29.9045857 C38.1206731,28.2665321 38.3503584,26.4590351 38.4052632,24.5579693 L32.5423422,24.5579693 Z M24.8663418,24.5579693 C24.9212466,26.4590351 25.1509318,28.2665321 25.5175741,29.9045857 L30.7292627,29.9045857 L30.7292627,24.5579693 L24.8663418,24.5579693 Z M15.8024691,24.5579693 C15.9104486,26.4509378 16.3567029,28.2512372 17.0912075,29.9045857 L23.6483696,29.9045857 C23.301249,28.2413405 23.1042017,26.4392417 23.0535672,24.5579693 L15.8024691,24.5579693 Z M39.6232354,17.4284478 C39.971576,19.0934923 40.1667932,20.8916924 40.2183427,22.775364 L47.4691358,22.775364 C47.3611563,20.8823955 46.914902,19.0820961 46.1807024,17.4284478 L39.6232354,17.4284478 Z M32.5423422,17.4284478 L32.5423422,22.775364 L38.4052632,22.775364 C38.3497483,20.8715991 38.1221983,19.0680008 37.7540309,17.4284478 L32.5423422,17.4284478 Z M25.5175741,17.4284478 C25.1497117,19.0680008 24.9218566,20.8715991 24.8663418,22.775364 L30.7292627,22.775364 L30.7292627,17.4284478 L25.5175741,17.4284478 Z M17.0912075,17.4284478 C16.3567029,19.0820961 15.9104486,20.8823955 15.8024691,22.775364 L23.0535672,22.775364 C23.1048117,20.8916924 23.3000289,19.0934923 23.6483696,17.4284478 L17.0912075,17.4284478 Z M32.5423422,9.11582088 L32.5423422,15.6464422 L37.2864247,15.6464422 C36.9911587,14.6942599 36.6510538,13.806556 36.267025,13.0286156 C35.1948557,10.8588394 33.8737844,9.53508101 32.5423422,9.11582088 L32.5423422,9.11582088 Z M30.7152315,9.11582088 C29.3880597,9.53927961 28.073089,10.8657371 27.0045799,13.0286156 C26.6205511,13.806556 26.2804462,14.6942599 25.9851802,15.6464422 L30.7292627,15.6464422 L30.7292627,9.11582088 L30.7152315,9.11582088 Z M34.9779816,8.41975309 C36.1245775,9.32005274 37.107374,10.6537078 37.8952583,12.2488757 C38.3979425,13.2658364 38.8173544,14.4144532 39.1699655,15.6464422 L45.2454901,15.6464422 C43.0224545,12.0062566 39.3322398,9.33714704 34.9779816,8.41975309 L34.9779816,8.41975309 Z M28.2936234,8.41975309 C23.9393652,9.33714704 20.2491504,12.0062566 18.0261148,15.6464422 L24.1016395,15.6464422 C24.4542505,14.4144532 24.8736624,13.2658364 25.3760416,12.2488757 C26.1639259,10.6537078 27.1470275,9.32005274 28.2936234,8.41975309 L28.2936234,8.41975309 Z" id="Fill-8" fill="#FFFFFF"></path>
                            </g>
                        </g>
                    </g>
                </g>
            </g>
        </g>
    </g>
</svg>