<?xml version="1.0" encoding="UTF-8"?>
<svg width="97px" height="77px" viewBox="0 0 97 77" version="1.1" xmlns="http://www.w3.org/2000/svg" xmlns:xlink="http://www.w3.org/1999/xlink">
    <!-- Generator: Sketch 55.2 (78181) - https://sketchapp.com -->
    <title>subjects / arts</title>
    <desc>Created with Sketch.</desc>
    <g id="desktop" stroke="none" stroke-width="1" fill="none" fill-rule="evenodd">
        <g id="homepage" transform="translate(-271.000000, -477.000000)">
            <g id="subjects" transform="translate(54.000000, 387.000000)">
                <g transform="translate(0.000000, 82.000000)" id="arts">
                    <g>
                        <g id="subjects-/-icons-/-arts" transform="translate(212.000000, 8.000000)">
                            <path d="M99.8849585,33.9305282 C100.120091,60.6315249 81.7396429,65.5753123 59.8849086,71.8367907 C38.0301744,78.0979535 11.2849917,71.7758771 5.98582226,47.5814917 C0.686337209,23.3871063 17.5070183,8.04539535 38.3571512,2.01147508 C59.2069684,-4.02244518 99.6498256,7.22921595 99.8849585,33.9305282" id="Fill-1" fill="#FAFAFF"></path>
                            <g id="Group-16" stroke-width="1" transform="translate(6.000000, -0.000000)">
                                <path d="M65.9829535,13.3823123 L71.6289834,14.8868472 C72.169,14.4850698 72.7642492,14.1202193 73.1736013,13.5540066 C73.573485,12.9417143 73.7047807,12.1940233 73.8455449,11.492412 C74.1785183,9.64575083 74.5376877,7.69746179 73.9676877,5.89624917 C73.7868405,5.26186379 73.4674385,4.65683056 73.1578206,4.09756146 C72.6986013,3.28138206 72.2030864,2.52106645 71.6974718,1.7146711 C71.3518738,1.21126578 70.9867076,0.615700997 70.5489502,0.131232558 C70.2418571,-0.18848505 69.682588,0.120817276 69.7788505,0.580667774 C70.1509601,1.89520266 70.1086678,3.29684718 69.6601794,4.59118272 C69.1050133,6.29266113 67.9662757,7.7321794 66.5570565,8.79611628 C66.0631196,9.18779402 65.5688671,9.57978738 65.1598306,10.1456844 C63.9314585,11.8440066 65.4940664,13.3409668 65.9829535,13.3823123" id="Fill-4" fill="#F54F71"></path>
                                <path d="M67.087005,31.686098 L71.1066728,17.2050681 L65.4707425,15.7469286 C65.4246628,15.756397 65.4148787,15.7106329 65.3691146,15.7201013 L62.4784003,31.6927259 C63.8920382,32.0206495 65.2930515,32.0626262 66.7650781,31.7539551 C66.9030017,31.7249186 66.9951611,31.7056661 67.087005,31.686098" id="Fill-6" fill="#2379E2"></path>
                                <path d="M37.5693372,30.6261379 C35.2710316,32.1874834 34.183108,34.6088787 33.1305332,33.0475332 C32.0776429,31.5032309 32.1126761,27.52049 34.4109817,25.9588289 C36.709603,24.3974834 39.4295698,24.379809 40.4821445,25.9411545 C41.5347193,27.5028156 39.8679585,29.0644767 37.5693372,30.6261379 M36.1130914,57.401304 C30.4986229,59.5067691 24.4978422,57.3309219 22.374387,51.7161379 C22.0941213,50.9791777 21.9359983,50.2425332 21.8308987,49.5055731 C21.8132243,49.2947425 21.8832907,49.101902 22.0414136,48.9617691 C22.1992209,48.8386794 22.4097359,48.8039618 22.6025764,48.8563538 C25.1470615,49.7514369 29.3403173,50.8917525 33.1128588,49.4705399 C36.8850847,48.0493272 39.2888056,44.4349086 40.6049186,42.0835797 C40.7100183,41.908098 40.8858156,41.7853239 41.0963306,41.7853239 C41.3068455,41.7853239 41.499686,41.8730648 41.6051013,42.0485465 C42.0261312,42.6627326 42.3767791,43.3293106 42.6576761,44.0662708 C44.7981744,49.6810548 41.7278754,55.2958389 36.1130914,57.401304 M12.1806661,36.7670515 C11.9701512,34.9071346 14.0579419,33.1526329 16.8123106,32.8546927 C19.584985,32.5561213 22.1638721,35.5563538 22.374387,37.4165864 C22.584902,39.2761877 20.1811811,38.1358721 17.4268123,38.4514867 C14.6544535,38.7497425 12.3735066,38.6272841 12.1806661,36.7670515 M41.1136894,9.0270515 C40.7627259,8.51828073 40.2012475,8.18467608 39.5873771,8.09693522 C39.2187392,8.04454319 38.8504169,8.09693522 38.5168123,8.22002492 C38.2886229,8.30776578 38.0607492,8.43053987 37.867593,8.58834718 C33.6740216,12.0976661 29.6736063,14.8520349 21.3044535,18.0103904 C12.934985,21.1687458 8.09219435,21.7478987 2.6178588,21.8706728 C2.37199502,21.8706728 2.12644684,21.9233804 1.88089867,22.0111213 C1.54760963,22.1338953 1.2316794,22.3444103 0.986131229,22.6249917 C0.582775748,23.0987292 0.372260797,23.7132309 0.442011628,24.3271013 C0.898390365,28.4329319 1.67038372,32.7492774 3.26707807,36.9602076 C10.6363638,56.5238953 24.9011977,69.2447425 38.6222276,64.0863372 C52.3432575,58.9279319 54.6765963,39.9430814 47.3073106,20.3790781 C45.7282907,16.1681478 43.4650183,12.4135963 41.1136894,9.0270515" id="Fill-8" fill="#D67DEC"></path>
                                <path d="M75.6421811,49.06649 C73.1002209,49.7485332 70.4522143,48.2206429 69.7704867,45.6786827 C69.0881279,43.1367226 70.6160183,40.4887159 73.158294,39.8066728 C75.7002542,39.1249452 78.3479452,40.6528355 79.0299884,43.1947957 C79.7120316,45.7364402 78.1841412,48.3847625 75.6421811,49.06649 M62.0533937,57.723799 C59.5117492,58.4055266 56.8634269,56.8776362 56.1816993,54.3356761 C55.4996561,51.7940316 57.0275465,49.1457093 59.5695066,48.4639817 C62.1114668,47.7819385 64.7594734,49.3098289 65.4415166,51.851789 C66.1232442,54.3937492 64.5953538,57.0417558 62.0533937,57.723799 M86.220005,25.0144468 C83.9308522,16.4808588 72.5548389,43.1802774 56.6374468,29.0088654 C47.1920482,20.6431844 57.2150216,2.14090864 49.9524136,4.08919767 C47.3889917,4.77692193 44.9963173,5.78215449 42.8021645,7.04871595 C42.9549219,7.21283555 43.1004203,7.38421429 43.2285598,7.56979568 C46.2212176,11.8807757 48.2828123,15.6668887 49.7125465,19.4785664 C53.5450548,29.6530349 54.8567492,39.8117226 53.4033439,48.0786163 C52.5174136,53.119613 50.6107857,57.3709419 47.8415831,60.6328189 C53.2723638,62.5391312 59.3148056,62.8859917 65.2950714,61.2817226 C81.0909518,57.0442807 90.4571312,40.8106429 86.220005,25.0144468" id="Fill-10" fill="#838BB7"></path>
                                <path d="M79.6416179,44.5008405 C79.6416179,47.2810897 77.387814,49.5345781 74.6078804,49.5345781 C71.8276312,49.5345781 69.5741429,47.2810897 69.5741429,44.5008405 C69.5741429,41.7205914 71.8276312,39.467103 74.6078804,39.467103 C77.387814,39.467103 79.6416179,41.7205914 79.6416179,44.5008405" id="Fill-12" fill="#27C195"></path>
                                <path d="M65.9361163,52.7435266 C65.9361163,55.5237757 63.6823123,57.7772641 60.9023787,57.7772641 C58.1221296,57.7772641 55.8686412,55.5237757 55.8686412,52.7435266 C55.8686412,49.9632774 58.1221296,47.709789 60.9023787,47.709789 C63.6823123,47.709789 65.9361163,49.9632774 65.9361163,52.7435266" id="Fill-14" fill="#FFC965"></path>
                            </g>
                        </g>
                    </g>
                </g>
            </g>
        </g>
    </g>
</svg>