<?xml version="1.0" encoding="UTF-8"?>
<svg width="86px" height="94px" viewBox="0 0 86 94" version="1.1" xmlns="http://www.w3.org/2000/svg" xmlns:xlink="http://www.w3.org/1999/xlink">
    <!-- Generator: Sketch 55.2 (78181) - https://sketchapp.com -->
    <title>subjects/humanities</title>
    <desc>Created with Sketch.</desc>
    <defs>
        <polygon id="path-1" points="0 0.104235817 83.7162851 0.104235817 83.7162851 85.9999954 0 85.9999954"></polygon>
        <path d="M0.223063291,0.0862621951 L0.223063291,93.8504024 L22.6499367,93.8504024 C19.8061614,93.4718232 17.3862627,91.398378 16.5939937,88.5408354 L16.5939937,88.5408354 L2.81448418,38.8383354 C2.28949684,36.9451524 2.52298101,34.9533841 3.47184494,33.2295732 L3.47184494,33.2295732 C4.42042722,31.5060488 5.96722468,30.2625549 7.82777532,29.7286463 L7.82777532,29.7286463 L35.2273829,21.863311 C35.8672816,21.6796098 36.5271772,21.5867561 37.1896076,21.5867561 L37.1896076,21.5867561 C40.4279684,21.5867561 43.3027247,23.7980488 44.1806139,26.9645305 L44.1806139,26.9645305 L57.9595601,76.6670305 C58.4848291,78.5605 58.2510633,80.5519817 57.302481,82.2757927 L57.302481,82.2757927 C56.3541804,83.9996037 54.8071013,85.2430976 52.9465506,85.7770061 L52.9465506,85.7770061 L25.5466614,93.6417683 C25.222769,93.7349085 24.8932437,93.8042622 24.5609019,93.8504024 L24.5609019,93.8504024 L88.8836804,93.8504024 L88.8836804,0.0862621951" id="path-3"></path>
        <path d="M0.223063291,0.0862621951 L0.223063291,93.8504024 L22.6499367,93.8504024 C19.8061614,93.4718232 17.3862627,91.398378 16.5939937,88.5408354 L16.5939937,88.5408354 L2.81448418,38.8383354 C2.28949684,36.9451524 2.52298101,34.9533841 3.47184494,33.2295732 L3.47184494,33.2295732 C4.42042722,31.5060488 5.96722468,30.2625549 7.82777532,29.7286463 L7.82777532,29.7286463 L35.2273829,21.863311 C35.8672816,21.6796098 36.5271772,21.5867561 37.1896076,21.5867561 L37.1896076,21.5867561 C40.4279684,21.5867561 43.3027247,23.7980488 44.1806139,26.9645305 L44.1806139,26.9645305 L57.9595601,76.6670305 C58.4848291,78.5605 58.2510633,80.5519817 57.302481,82.2757927 L57.302481,82.2757927 C56.3541804,83.9996037 54.8071013,85.2430976 52.9465506,85.7770061 L52.9465506,85.7770061 L25.5466614,93.6417683 C25.222769,93.7349085 24.8932437,93.8042622 24.5609019,93.8504024 L24.5609019,93.8504024 L88.8836804,93.8504024 L88.8836804,0.0862621951" id="path-5"></path>
        <path d="M0.223063291,0.0862621951 L0.223063291,93.8504024 L22.6499367,93.8504024 C19.8061614,93.4718232 17.3862627,91.398378 16.5939937,88.5408354 L16.5939937,88.5408354 L2.81448418,38.8383354 C2.28949684,36.9451524 2.52298101,34.9533841 3.47184494,33.2295732 L3.47184494,33.2295732 C4.42042722,31.5060488 5.96722468,30.2625549 7.82777532,29.7286463 L7.82777532,29.7286463 L35.2273829,21.863311 C35.8672816,21.6796098 36.5271772,21.5867561 37.1896076,21.5867561 L37.1896076,21.5867561 C40.4279684,21.5867561 43.3027247,23.7980488 44.1806139,26.9645305 L44.1806139,26.9645305 L57.9595601,76.6670305 C58.4848291,78.5605 58.2510633,80.5519817 57.302481,82.2757927 L57.302481,82.2757927 C56.3541804,83.9996037 54.8071013,85.2430976 52.9465506,85.7770061 L52.9465506,85.7770061 L25.5466614,93.6417683 C25.222769,93.7349085 24.8932437,93.8042622 24.5609019,93.8504024 L24.5609019,93.8504024 L88.8836804,93.8504024 L88.8836804,0.0862621951 L0.223063291,0.0862621951 Z" id="path-7"></path>
        <path d="M0.223063291,0.0862621951 L0.223063291,93.8504024 L22.6499367,93.8504024 C19.8061614,93.4718232 17.3862627,91.398378 16.5939937,88.5408354 L2.81448418,38.8383354 C2.28949684,36.9451524 2.52298101,34.9533841 3.47184494,33.2295732 C4.42042722,31.5060488 5.96722468,30.2625549 7.82777532,29.7286463 L35.2273829,21.863311 C35.8672816,21.6796098 36.5271772,21.5867561 37.1896076,21.5867561 C40.4279684,21.5867561 43.3027247,23.7980488 44.1806139,26.9645305 L57.9595601,76.6670305 C58.4848291,78.5605 58.2510633,80.5519817 57.302481,82.2757927 C56.3541804,83.9996037 54.8071013,85.2430976 52.9465506,85.7770061 L25.5466614,93.6417683 C25.222769,93.7349085 24.8932437,93.8042622 24.5609019,93.8504024 L88.8836804,93.8504024 L88.8836804,0.0862621951" id="path-9"></path>
    </defs>
    <g id="desktop" stroke="none" stroke-width="1" fill="none" fill-rule="evenodd">
        <g id="homepage" transform="translate(-953.000000, -477.000000)">
            <g id="subjects" transform="translate(54.000000, 387.000000)">
                <g transform="translate(0.000000, 82.000000)" id="humanities">
                    <g transform="translate(672.000000, 0.000000)">
                        <g id="subjects-/-icons-/-stem" transform="translate(212.000000, 8.000000)">
                            <g id="Group-40" transform="translate(15.000000, -7.000000)">
                                <g id="Group-26" transform="translate(0.000000, 13.000000)">
                                    <g id="Group-3">
                                        <mask id="mask-2" fill="white">
                                            <use xlink:href="#path-1"></use>
                                        </mask>
                                        <g id="Clip-2"></g>
                                        <path d="M77.4459498,18.4955306 C88.5040515,40.8207832 85.1722414,62.1461771 65.5677803,75.1399953 C45.9636041,88.134103 25.6951159,92.1297731 9.65140068,72.0497865 C-6.39231458,51.9700896 -2.1738061,18.0409178 20.3683769,7.24690438 C42.91056,-3.54652997 66.3881329,-3.82943232 77.4459498,18.4955306" id="Fill-1" fill="#FAFAFF" mask="url(#mask-2)"></path>
                                    </g>
                                    <path d="M26.8245885,24.8591253 L26.4481546,33.1408963 L23.6419851,29.2569973 C23.4366834,28.9723576 23.0784732,28.8478458 22.7447512,28.9451387 L21.1476122,29.4049636 L21.5997885,31.028829 L22.6456597,30.7276842 L26.502541,36.0628694 C26.7081275,36.3475091 27.0663376,36.4717313 27.4000597,36.3747279 C27.7354902,36.2713542 27.9712597,35.9649973 27.9889139,35.6088357 L28.4558969,25.5471253 L39.8571173,22.2649367 L39.4052258,20.6410714 L27.4291037,24.0888896 C27.0857003,24.1867616 26.8422427,24.4968828 26.8245885,24.8591253" id="Fill-4" fill="#2379E2"></path>
                                    <polygon id="Fill-6" fill="#2379E2" points="36.6144041 25.2066579 34.7336583 28.6420249 31.3608447 26.7190418 30.5481803 28.1984155 33.9264041 30.1109744 32.0354075 33.5405502 33.4898888 34.3672505 35.3709193 30.9315939 38.7434481 32.8545771 39.5561125 31.3754929 36.1778888 29.4626444 38.0688854 26.0330687"></polygon>
                                    <path d="M43.8559444,33.3847946 L38.8034156,34.7917778 L35.5490563,35.7143232 L20.1776258,40.0838182 C20.1776258,40.0838182 20.063158,40.0994545 19.8345071,40.1310168 C19.6058563,40.1625791 19.4760122,40.062101 19.2317003,39.9775488 C19.08648,39.7606667 18.8267919,39.5594209 18.7957546,39.3269024 L15.1831851,26.2062559 C14.9912664,25.6407407 15.2723105,25.1282155 15.828419,24.9333401 L39.4913614,18.1176229 C39.83448,18.0704242 40.0785071,18.155266 40.322819,18.2398182 C40.4683241,18.4567003 40.7280122,18.6579461 40.7590495,18.8901751 L42.5421275,25.2761818 L43.1640122,27.322229 L44.5014631,32.1115892 C44.6930969,32.6773939 44.4123376,33.1896296 43.8559444,33.3847946 M40.0898969,11.9904848 L12.3886902,19.9372323 C10.0130563,20.618862 8.61751729,23.1531111 9.28780881,25.5689293 L23.2187105,75.7874276 C23.889002,78.2035354 26.3810969,79.6226801 28.7567308,78.9410505 L56.4579376,70.9945926 C58.8338563,70.312963 60.2291105,67.7787138 59.558819,65.3628956 L45.628202,15.1441077 C44.9579105,12.728 42.4658156,11.3091448 40.0898969,11.9904848" id="Fill-8" fill="#FF654C"></path>
                                    <path d="M26.8304258,45.5599912 C27.26808,47.1450552 26.3594563,48.7903481 24.8004732,49.2354054 C23.2417749,49.6804626 21.6238495,48.7561798 21.1861953,47.1711158 C20.7488258,45.5863414 21.6574495,43.9407589 23.2161478,43.4957017 C24.7745614,43.0506444 26.3930563,43.9749273 26.8304258,45.5599912" id="Fill-10" fill="#FFC965"></path>
                                    <path d="M36.6185614,42.7655993 C37.0562156,44.3506633 36.1475919,45.9962458 34.5886088,46.4410135 C33.0299105,46.8860707 31.4119851,45.9617879 30.9743308,44.3767239 C30.5369614,42.7919495 31.4455851,41.146367 33.0042834,40.7013098 C34.5626969,40.2562525 36.1811919,41.1805354 36.6185614,42.7655993" id="Fill-12" fill="#FFC965"></path>
                                    <path d="M46.4066969,39.9712074 C46.8443512,41.5562714 45.9357275,43.2018539 44.3767444,43.6466215 C42.8180461,44.0916788 41.2001207,43.1676855 40.7624664,41.582332 C40.3250969,39.9975576 41.2337207,38.3519751 42.792419,37.9069178 C44.3508325,37.4618606 45.9693275,38.3861434 46.4066969,39.9712074" id="Fill-14" fill="#FFC965"></path>
                                    <path d="M29.7496393,56.1344007 C30.1872936,57.7194646 29.2786698,59.3647576 27.7199715,59.8098148 C26.1609885,60.2545825 24.5430631,59.3305892 24.1054088,57.7455253 C23.6680393,56.1607508 24.5766631,54.5148788 26.1353614,54.0701111 C27.6937749,53.6250539 29.3122698,54.5490471 29.7496393,56.1344007" id="Fill-16" fill="#FFC965"></path>
                                    <path d="M39.5377749,53.3400088 C39.9754292,54.9250727 39.0668054,56.5703657 37.5078224,57.0154229 C35.9491241,57.4601906 34.3311986,56.5361973 33.8935444,54.9511333 C33.4561749,53.3663589 34.3647986,51.7204869 35.9234969,51.2757192 C37.4819105,50.830662 39.1004054,51.7546552 39.5377749,53.3400088" id="Fill-18" fill="#FFC965"></path>
                                    <path d="M32.6688244,66.7084916 C33.1064786,68.2938451 32.1978549,69.939138 30.6391566,70.3841953 C29.0801736,70.828963 27.4622481,69.9049697 27.0245939,68.3199057 C26.5872244,66.7351313 27.4958481,65.0892593 29.0545464,64.6444916 C30.61296,64.1994343 32.2314549,65.1234276 32.6688244,66.7084916" id="Fill-20" fill="#FFC965"></path>
                                    <path d="M42.45696,63.9140997 C42.8946142,65.4994532 41.9859905,67.1447461 40.4272922,67.5898034 C38.8683092,68.034571 37.2503837,67.1105778 36.8127295,65.5255138 C36.37536,63.9407394 37.2839837,62.2948673 38.842682,61.8500997 C40.4010956,61.4050424 42.0195905,62.3290357 42.45696,63.9140997" id="Fill-22" fill="#FFC965"></path>
                                    <path d="M50.29416,64.7729125 L50.1554888,64.8125825 C48.6363702,65.2463468 47.0443566,64.3371212 46.6178075,62.7920168 L43.6649939,52.096165 C43.2384447,50.5510606 44.1322617,48.9321178 45.6516651,48.4983535 L45.7903363,48.4586835 C47.3097397,48.0252088 48.9014685,48.9344343 49.3280176,50.4792492 L52.2811159,61.1753906 C52.7073803,62.7202054 51.8132786,64.3391481 50.29416,64.7729125" id="Fill-24" fill="#FFC965"></path>
                                </g>
                                <g id="Group-39" transform="translate(5.000000, 0.000000)">
                                    <g id="Group-29">
                                        <mask id="mask-4" fill="white">
                                            <use xlink:href="#path-3"></use>
                                        </mask>
                                        <g id="Clip-28"></g>
                                        <path d="M69.5200687,59.5050951 L57.2529959,43.9317598 L57.2529959,28.048339 L47.9412301,28.048339 L47.9412301,43.9317598 L35.6803535,59.5050951 C33.1351225,63.981272 35.2153566,67.635522 40.2872301,67.635522 L64.9131921,67.635522 C69.9850655,67.635522 72.0593851,63.981272 69.5200687,59.5050951" id="Fill-27" fill="#2379E2" mask="url(#mask-4)"></path>
                                    </g>
                                    <g id="Group-32">
                                        <mask id="mask-6" fill="white">
                                            <use xlink:href="#path-5"></use>
                                        </mask>
                                        <g id="Clip-31"></g>
                                        <path d="M44.6587918,15.3082726 L40.6160513,15.3082726 C40.6160513,18.7166323 43.3305513,21.4790287 46.680162,21.4790287 L50.7231842,21.4790287 C50.7231842,18.0706689 48.0084025,15.3082726 44.6587918,15.3082726" id="Fill-30" fill="#27C195" mask="url(#mask-6)"></path>
                                    </g>
                                    <g id="Group-35">
                                        <mask id="mask-8" fill="white">
                                            <use xlink:href="#path-7"></use>
                                        </mask>
                                        <g id="Clip-34"></g>
                                        <path d="M60.8303171,7.29620549 C56.3651082,7.29620549 52.7445544,10.9799738 52.7445544,15.5237848 L52.7445544,25.8465896 L54.7662063,25.8465896 L54.7662063,15.5237848 L58.8089468,15.5237848 C63.2744373,15.5237848 66.8947095,11.8397299 66.8947095,7.29620549 L60.8303171,7.29620549 Z" id="Fill-33" fill="#27C195" mask="url(#mask-8)"></path>
                                    </g>
                                    <g id="Group-38">
                                        <mask id="mask-10" fill="white">
                                            <use xlink:href="#path-9"></use>
                                        </mask>
                                        <g id="Clip-37"></g>
                                        <path d="M63.619256,63.7672213 L41.6300598,63.7672213 C39.789506,63.7672213 39.0287813,62.5535323 39.9559585,61.0652945 L44.9182718,53.0472091 C46.0186611,52.1069226 48.0862212,51.1233616 50.3737465,53.8937823 C52.081082,55.9543311 53.5616927,56.4151604 54.6153288,56.3589896 C55.3757718,56.3277518 56.0827022,55.9543311 56.5696674,55.4003616 C57.2298446,54.6283006 59.0839174,53.0345994 61.5919712,55.0765201 L65.2933573,61.0652945 C66.213775,62.5535323 65.4600915,63.7672213 63.619256,63.7672213" id="Fill-36" fill="#FFC965" mask="url(#mask-10)"></path>
                                    </g>
                                </g>
                            </g>
                        </g>
                    </g>
                </g>
            </g>
        </g>
    </g>
</svg>