<?xml version="1.0" encoding="UTF-8"?>
<svg width="80px" height="80px" viewBox="0 0 80 80" version="1.1" xmlns="http://www.w3.org/2000/svg" xmlns:xlink="http://www.w3.org/1999/xlink">
    <!-- Generator: sketchtool 55.2 (78181) - https://sketchapp.com -->
    <title>STEM</title>
    <desc>Created with sketchtool.</desc>
    <defs>
        <filter x="-12.1%" y="-11.5%" width="124.5%" height="123.6%" filterUnits="objectBoundingBox" id="stem-filter-1">
            <feOffset dx="0" dy="2" in="SourceAlpha" result="shadowOffsetOuter1"></feOffset>
            <feGaussianBlur stdDeviation="1" in="shadowOffsetOuter1" result="shadowBlurOuter1"></feGaussianBlur>
            <feColorMatrix values="0 0 0 0 0   0 0 0 0 0.129411765   0 0 0 0 0.490196078  0 0 0 0.15 0" type="matrix" in="shadowBlurOuter1" result="shadowMatrixOuter1"></feColorMatrix>
            <feMerge>
                <feMergeNode in="shadowMatrixOuter1"></feMergeNode>
                <feMergeNode in="SourceGraphic"></feMergeNode>
            </feMerge>
        </filter>
        <path d="M0.165066835,0.0638340253 L0.165066835,69.4492956 L16.7609526,69.4492956 C14.6565589,69.169147 12.8658339,67.6347976 12.2795549,65.5202161 L12.2795549,65.5202161 L2.08271822,28.7403673 C1.6942276,27.3394119 1.86700589,25.8655035 2.56916517,24.5898834 L2.56916517,24.5898834 C3.27111603,23.3144754 4.41574612,22.3942899 5.79255354,21.9991976 L5.79255354,21.9991976 L26.0682625,16.1788496 C26.5417875,16.0429107 27.0301102,15.974199 27.5203087,15.974199 L27.5203087,15.974199 C29.9166955,15.974199 32.0440152,17.6105555 32.6936532,19.9537519 L32.6936532,19.9537519 L42.890073,56.7336008 C43.278772,58.1347682 43.1057853,59.6084646 42.4038345,60.8840847 L42.4038345,60.8840847 C41.702092,62.1597047 40.5572535,63.0798902 39.1804461,63.4749825 L39.1804461,63.4749825 L18.9045288,69.2949063 C18.6648484,69.3638301 18.4209997,69.4151518 18.1750668,69.4492956 L18.1750668,69.4492956 L65.7739212,69.4492956 L65.7739212,0.0638340253" id="stem-path-2"></path>
        <path d="M0.165066835,0.0638340253 L0.165066835,69.4492956 L16.7609526,69.4492956 C14.6565589,69.169147 12.8658339,67.6347976 12.2795549,65.5202161 L12.2795549,65.5202161 L2.08271822,28.7403673 C1.6942276,27.3394119 1.86700589,25.8655035 2.56916517,24.5898834 L2.56916517,24.5898834 C3.27111603,23.3144754 4.41574612,22.3942899 5.79255354,21.9991976 L5.79255354,21.9991976 L26.0682625,16.1788496 C26.5417875,16.0429107 27.0301102,15.974199 27.5203087,15.974199 L27.5203087,15.974199 C29.9166955,15.974199 32.0440152,17.6105555 32.6936532,19.9537519 L32.6936532,19.9537519 L42.890073,56.7336008 C43.278772,58.1347682 43.1057853,59.6084646 42.4038345,60.8840847 L42.4038345,60.8840847 C41.702092,62.1597047 40.5572535,63.0798902 39.1804461,63.4749825 L39.1804461,63.4749825 L18.9045288,69.2949063 C18.6648484,69.3638301 18.4209997,69.4151518 18.1750668,69.4492956 L18.1750668,69.4492956 L65.7739212,69.4492956 L65.7739212,0.0638340253" id="stem-path-4"></path>
        <path d="M0.165066835,0.0638340253 L0.165066835,69.4492956 L16.7609526,69.4492956 C14.6565589,69.169147 12.8658339,67.6347976 12.2795549,65.5202161 L12.2795549,65.5202161 L2.08271822,28.7403673 C1.6942276,27.3394119 1.86700589,25.8655035 2.56916517,24.5898834 L2.56916517,24.5898834 C3.27111603,23.3144754 4.41574612,22.3942899 5.79255354,21.9991976 L5.79255354,21.9991976 L26.0682625,16.1788496 C26.5417875,16.0429107 27.0301102,15.974199 27.5203087,15.974199 L27.5203087,15.974199 C29.9166955,15.974199 32.0440152,17.6105555 32.6936532,19.9537519 L32.6936532,19.9537519 L42.890073,56.7336008 C43.278772,58.1347682 43.1057853,59.6084646 42.4038345,60.8840847 L42.4038345,60.8840847 C41.702092,62.1597047 40.5572535,63.0798902 39.1804461,63.4749825 L39.1804461,63.4749825 L18.9045288,69.2949063 C18.6648484,69.3638301 18.4209997,69.4151518 18.1750668,69.4492956 L18.1750668,69.4492956 L65.7739212,69.4492956 L65.7739212,0.0638340253 L0.165066835,0.0638340253 Z" id="stem-path-6"></path>
        <path d="M0.165066835,0.0638340253 L0.165066835,69.4492956 L16.7609526,69.4492956 C14.6565589,69.169147 12.8658339,67.6347976 12.2795549,65.5202161 L2.08271822,28.7403673 C1.6942276,27.3394119 1.86700589,25.8655035 2.56916517,24.5898834 C3.27111603,23.3144754 4.41574612,22.3942899 5.79255354,21.9991976 L26.0682625,16.1788496 C26.5417875,16.0429107 27.0301102,15.974199 27.5203087,15.974199 C29.9166955,15.974199 32.0440152,17.6105555 32.6936532,19.9537519 L42.890073,56.7336008 C43.278772,58.1347682 43.1057853,59.6084646 42.4038345,60.8840847 C41.702092,62.1597047 40.5572535,63.0798902 39.1804461,63.4749825 L18.9045288,69.2949063 C18.6648484,69.3638301 18.4209997,69.4151518 18.1750668,69.4492956 L65.7739212,69.4492956 L65.7739212,0.0638340253" id="stem-path-8"></path>
    </defs>
    <g id="desktop-v2" stroke="none" stroke-width="1" fill="none" fill-rule="evenodd">
        <g id="assets" transform="translate(-360.000000, -34.000000)">
            <g id="subjects-stem" transform="translate(360.000000, 34.000000)">
                <circle id="Oval" fill="#FFFFFF" cx="40" cy="40" r="40"></circle>
                <g id="subjects/stem-subjects-/-icons-/-discipline-stem-copy" transform="translate(-6.000000, 8.000000)">
                    <g id="Group-40" filter="url(#stem-filter-1)" transform="translate(14.800000, -5.180000)">
                        <g id="Group-26" transform="translate(2.960000, 17.760000)">
                            <path d="M13.1901957,10.2557526 L12.9116347,16.3842631 L10.8350692,13.5101779 C10.683146,13.2995445 10.4180705,13.2074058 10.1711162,13.2794025 L8.9892333,13.619673 L9.32384374,14.8213333 L10.0977884,14.5984862 L12.9518806,18.5465231 C13.1040146,18.7571565 13.3690901,18.849081 13.6160444,18.7772985 C13.864263,18.7008019 14.0387324,18.4740978 14.0517966,18.2105382 L14.397364,10.7648726 L22.8342671,8.3360531 L22.4998673,7.13439278 L13.637537,9.6857782 C13.3834185,9.75820352 13.2032599,9.98769321 13.1901957,10.2557526" id="Fill-4" fill="#2379E2"></path>
                            <polygon id="Fill-6" fill="#2379E2" points="20.4346587 10.5129272 19.0429068 13.0550989 16.5470246 11.6320913 15.9456529 12.7268279 18.4455386 14.1421216 17.046201 16.6800078 18.1225173 17.291766 19.51448 14.7493801 22.0101514 16.1723877 22.6115231 15.0778653 20.1116374 13.6623574 21.510975 11.1244712"></polygon>
                            <path d="M25.7933982,16.5647478 L22.054527,17.6059153 L19.6463012,18.2885989 L8.27144293,21.5220251 C8.27144293,21.5220251 8.18673676,21.533596 8.01753514,21.5569521 C7.84833352,21.5803082 7.75224891,21.5059544 7.57145814,21.4433858 C7.46399509,21.282893 7.27182587,21.1339711 7.24885828,20.9619074 L4.57555694,11.2526293 C4.43353715,10.8341481 4.64150975,10.4548794 5.05303001,10.3106716 L22.5636068,5.26704106 C22.8175146,5.23211405 22.9980947,5.29489695 23.1788855,5.35746557 C23.2865592,5.51795836 23.4787284,5.66688024 23.501696,5.83872966 L24.8211737,10.5643745 L25.2813684,12.0784493 L26.271082,15.6225758 C26.4128911,16.0412713 26.2051292,16.4203257 25.7933982,16.5647478 M23.0065236,0.732958788 L2.50763072,6.61355183 C0.749661639,7.11795775 -0.283037203,8.99330209 0.212978523,10.7810075 L10.5218457,47.9426957 C11.0178615,49.7306154 12.8620117,50.7807825 14.6199808,50.2763766 L35.1188737,44.3959978 C36.8770535,43.8915919 37.9095416,42.0162476 37.4135259,40.2285421 L27.1048694,3.06663969 C26.6088536,1.27871999 24.7647034,0.228767146 23.0065236,0.732958788" id="Fill-8" fill="#F54F71"></path>
                            <path d="M13.1945147,25.5743946 C13.5183789,26.747342 12.8459973,27.9648588 11.6923499,28.2942012 C10.5389132,28.6235435 9.34164839,27.9395742 9.01778426,26.7666268 C8.69413085,25.5938937 9.36651239,24.3761627 10.5199491,24.0468203 C11.6731751,23.7174779 12.8708613,24.4014472 13.1945147,25.5743946" id="Fill-10" fill="#FFC965"></path>
                            <path d="M20.4377357,23.5065434 C20.7615999,24.6794908 20.0892183,25.8972219 18.9355709,26.22635 C17.7821342,26.5556923 16.5848694,25.871723 16.2610053,24.6987756 C15.9373518,23.5260425 16.6097334,22.3083114 17.7631701,21.9789691 C18.9163961,21.6496267 20.1140823,22.333596 20.4377357,23.5065434" id="Fill-12" fill="#FFC965"></path>
                            <path d="M27.680956,21.4386935 C28.0048202,22.6116408 27.3324386,23.8293718 26.1787912,24.1584999 C25.0253545,24.4878423 23.8280897,23.8040873 23.5042256,22.6309257 C23.1805721,21.4581926 23.8529537,20.2404616 25.0063904,19.9111193 C26.1596164,19.5817769 27.3573026,20.2657462 27.680956,21.4386935" id="Fill-14" fill="#FFC965"></path>
                            <path d="M15.3547333,33.3994561 C15.6785974,34.5724034 15.0062159,35.7899202 13.8527792,36.1192625 C12.6991317,36.4483906 11.5018669,35.7646356 11.1780028,34.5916883 C10.8543494,33.4189552 11.5267309,32.2010099 12.6801677,31.8718818 C13.8333937,31.5425394 15.0310799,32.2262945 15.3547333,33.3994561" id="Fill-16" fill="#FFC965"></path>
                            <path d="M22.5979529,31.3316063 C22.921817,32.5045536 22.2494355,33.7220704 21.095788,34.0514127 C19.9423513,34.3805408 18.7450865,33.6967858 18.4212224,32.5238385 C18.097569,31.3511054 18.7699505,30.1331601 19.9233872,29.804032 C21.0766132,29.4746896 22.2742995,30.1584446 22.5979529,31.3316063" id="Fill-18" fill="#FFC965"></path>
                            <path d="M17.51493,41.2242833 C17.8387941,42.3974449 17.1664126,43.6149617 16.0129758,43.944304 C14.8593284,44.2734321 13.6620636,43.5896771 13.3381995,42.4167298 C13.0145461,41.2439967 13.6869276,40.0260514 14.8403643,39.6969233 C15.9935903,39.3675809 17.1912766,40.0513359 17.51493,41.2242833" id="Fill-20" fill="#FFC965"></path>
                            <path d="M24.7581503,39.1564335 C25.0820144,40.3295951 24.4096329,41.5471119 23.2561961,41.8764542 C22.1025487,42.2055823 20.9052839,41.5218273 20.5814198,40.34888 C20.2577663,39.1761469 20.9301479,37.9582016 22.0835846,37.6290735 C23.2368106,37.2997311 24.4344969,37.9834861 24.7581503,39.1564335" id="Fill-22" fill="#FFC965"></path>
                            <path d="M30.5576789,39.7919541 L30.4550622,39.82131 C29.3309144,40.1422955 28.1528244,39.4694686 27.8371781,38.3260914 L25.6520961,30.4111611 C25.3364497,29.2677839 25.9978742,28.0697662 27.1222327,27.7487806 L27.2248494,27.7194248 C28.3492079,27.3986535 29.5270872,28.0714804 29.8427335,29.2146434 L32.0280262,37.129788 C32.3434619,38.2729509 31.6818266,39.4709685 30.5576789,39.7919541" id="Fill-24" fill="#FFC965"></path>
                        </g>
                        <g id="Group-39">
                            <g id="Group-29">
                                <mask id="stem-mask-3" fill="white">
                                    <use xlink:href="#stem-path-2"></use>
                                </mask>
                                <g id="Clip-28"></g>
                                <path d="M51.4448503,44.0337699 L42.3672163,32.5095023 L42.3672163,20.7557715 L35.4765095,20.7557715 L35.4765095,32.5095023 L26.4034607,44.0337699 C24.5199897,47.3461406 26.059363,50.0502855 29.8125494,50.0502855 L48.0357616,50.0502855 C51.788948,50.0502855 53.3239445,47.3461406 51.4448503,44.0337699" id="Fill-27" fill="#2379E2" mask="url(#stem-mask-3)"></path>
                            </g>
                            <g id="Group-32">
                                <mask id="stem-mask-5" fill="white">
                                    <use xlink:href="#stem-path-4"></use>
                                </mask>
                                <g id="Clip-31"></g>
                                <path d="M33.0475055,11.3281215 L30.0558775,11.3281215 C30.0558775,13.8503077 32.0646075,15.8944809 34.5433195,15.8944809 L37.5351559,15.8944809 C37.5351559,13.3722948 35.5262175,11.3281215 33.0475055,11.3281215" id="Fill-30" fill="#27C195" mask="url(#stem-mask-5)"></path>
                            </g>
                            <g id="Group-35">
                                <mask id="stem-mask-7" fill="white">
                                    <use xlink:href="#stem-path-6"></use>
                                </mask>
                                <g id="Clip-34"></g>
                                <path d="M45.0144333,5.39919209 C41.7101787,5.39919209 39.0309689,8.12518068 39.0309689,11.4876009 L39.0309689,19.1264766 L40.5269913,19.1264766 L40.5269913,11.4876009 L43.5186193,11.4876009 C46.8230823,11.4876009 49.5020837,8.7614002 49.5020837,5.39919209 L45.0144333,5.39919209 Z" id="Fill-33" fill="#27C195" mask="url(#stem-mask-7)"></path>
                            </g>
                            <g id="Group-38">
                                <mask id="stem-mask-9" fill="white">
                                    <use xlink:href="#stem-path-8"></use>
                                </mask>
                                <g id="Clip-37"></g>
                                <path d="M47.0782489,47.1877446 L30.8062438,47.1877446 C29.444234,47.1877446 28.8812977,46.2896147 29.5674089,45.1883187 L33.2395207,39.2549355 C34.0538087,38.5591234 35.5838032,37.8312883 37.2765719,39.8813996 C38.5400001,41.4062057 39.6356521,41.7472194 40.4153428,41.7056531 C40.9780706,41.6825371 41.5011991,41.4062057 41.8615533,40.9962683 C42.3500845,40.4249432 43.7220983,39.2456043 45.5780581,40.7566256 L48.3170838,45.1883187 C48.9981929,46.2896147 48.4404671,47.1877446 47.0782489,47.1877446" id="Fill-36" fill="#FFC965" mask="url(#stem-mask-9)"></path>
                            </g>
                        </g>
                    </g>
                </g>
            </g>
        </g>
    </g>
</svg>
