<?xml version="1.0" encoding="UTF-8"?>
<svg width="80px" height="80px" viewBox="0 0 80 80" version="1.1" xmlns="http://www.w3.org/2000/svg" xmlns:xlink="http://www.w3.org/1999/xlink">
    <!-- Generator: sketchtool 55.2 (78181) - https://sketchapp.com -->
    <title>8775DD49-44F0-4DA1-807E-38BB8536B14E</title>
    <desc>Created with sketchtool.</desc>
    <defs>
        <filter x="-13.5%" y="-16.0%" width="127.0%" height="132.2%" filterUnits="objectBoundingBox" id="filter-1">
            <feOffset dx="0" dy="2" in="SourceAlpha" result="shadowOffsetOuter1"></feOffset>
            <feGaussianBlur stdDeviation="1" in="shadowOffsetOuter1" result="shadowBlurOuter1"></feGaussianBlur>
            <feColorMatrix values="0 0 0 0 0   0 0 0 0 0.129411765   0 0 0 0 0.490196078  0 0 0 0.15 0" type="matrix" in="shadowBlurOuter1" result="shadowMatrixOuter1"></feColorMatrix>
            <feMerge>
                <feMergeNode in="shadowMatrixOuter1"></feMergeNode>
                <feMergeNode in="SourceGraphic"></feMergeNode>
            </feMerge>
        </filter>
    </defs>
    <g id="desktop-v2" stroke="none" stroke-width="1" fill="none" fill-rule="evenodd">
        <g id="assets" transform="translate(-684.000000, -34.000000)">
            <g id="subjects-life-skills-subjects-languages" transform="translate(684.000000, 34.000000)">
                <circle id="Oval" fill="#FFFFFF" cx="40" cy="40" r="40"></circle>
                <g id="subjects/stem-subjects-/-icons-/-discipline-languages-copy" transform="translate(0.000000, 12.000000)">
                    <g id="Group-10" filter="url(#filter-1)" transform="translate(10.920000, 6.240000)">
                        <path d="M48.2262552,6.5674074 C48.239543,6.76645883 48.2487969,6.9666951 48.2490342,7.16882709 L48.2490342,29.0784658 C48.2431022,34.10096 44.1497711,38.1893342 39.1239264,38.1950214 L28.3520899,38.1950214 L23.3037036,41.9760508 L31.968012,41.9760508 L41.7605907,49.3106222 C41.9800754,49.4750766 42.2470163,49.5637023 42.5213129,49.5637023 C43.2205795,49.5632279 43.7867315,48.9971162 43.7862569,48.2987774 L43.7862569,41.9760508 L52.6501185,41.9760508 C56.1452647,41.9717854 58.9774484,39.1435963 58.9814821,35.6530872 L58.9814821,12.890371 C58.9774484,9.3998619 56.1452647,6.57143582 52.6501185,6.5674074 L48.2262552,6.5674074 Z" id="Fill-4" fill="#D67DEC"></path>
                        <path d="M46.1740742,29.2493835 L46.1740742,6.4864303 C46.1697886,2.9961582 43.3282238,0.167495155 39.8212067,0.163703699 L6.7862008,0.163703699 C3.27942178,0.167495155 0.437380828,2.9961582 0.433333354,6.4864303 L0.433333354,29.2493835 C0.437380828,32.7396556 3.27942178,35.5680817 6.7862008,35.5723471 L15.6801676,35.5723471 L15.6801676,41.8950737 C15.6796914,42.5934125 16.2480044,43.1595242 16.9494078,43.1599986 C17.224636,43.1599986 17.4924836,43.0713729 17.7127138,42.9069185 L27.5385519,35.5723471 L39.8212067,35.5723471 C43.3282238,35.5680817 46.1697886,32.7396556 46.1740742,29.2493835" id="Fill-6" fill="#27C195"></path>
                        <path d="M30.5637553,24.7157747 C30.288005,25.6816385 29.9522985,26.5689045 29.5583015,27.3658767 C28.9437517,28.6098737 28.1771704,29.6503586 27.2828256,30.3525924 C30.679147,29.6370251 33.5575145,27.5548856 35.2914823,24.7157747 L30.5637553,24.7157747 Z M25.3830276,24.7157747 L25.3830276,29.8204199 C26.4215525,29.4936309 27.4519881,28.450105 28.2882802,26.7576795 C28.5892502,26.1480789 28.8523907,25.4619857 29.083412,24.7157747 L25.3830276,24.7157747 Z M20.2684403,24.7157747 C20.4994616,25.4619857 20.76284,26.1480789 21.0635721,26.7576795 C21.8998642,28.450105 22.9302998,29.4936309 23.9688246,29.8204199 L23.9688246,24.7157747 L20.2684403,24.7157747 Z M14.0603697,24.7157747 C15.7943374,27.5548856 18.6727049,29.6370251 22.0690263,30.3525924 C21.1746815,29.6503586 20.4078623,28.6098737 19.7933125,27.3658767 C19.3995534,26.5689045 19.0638469,25.6816385 18.7880966,24.7157747 L14.0603697,24.7157747 Z M31.3703076,19.1552159 C31.3305748,20.6226083 31.1768779,22.0282454 30.9061238,23.3255766 L36.0207103,23.3255766 C36.5936239,22.0359648 36.9417023,20.6317313 37.0259263,19.1552159 L31.3703076,19.1552159 Z M25.3830276,19.1552159 L25.3830276,23.3255766 L29.4481447,23.3255766 C29.7341256,22.0478948 29.9132801,20.6380472 29.9561058,19.1552159 L25.3830276,19.1552159 Z M19.3957464,19.1552159 C19.4385722,20.6380472 19.6177267,22.0478948 19.9037076,23.3255766 L23.9688246,23.3255766 L23.9688246,19.1552159 L19.3957464,19.1552159 Z M12.325926,19.1552159 C12.41015,20.6317313 12.7582284,22.0359648 13.331142,23.3255766 L18.4457284,23.3255766 C18.1749744,22.0282454 18.0212775,20.6226083 17.9817826,19.1552159 L12.325926,19.1552159 Z M30.9061238,13.5941892 C31.1778296,14.8929239 31.330099,16.29552 31.3703076,17.7647839 L37.0259263,17.7647839 C36.9417023,16.2882684 36.5936239,14.8840349 36.0209482,13.5941892 L30.9061238,13.5941892 Z M25.3830276,13.5941892 L25.3830276,17.7647839 L29.9561058,17.7647839 C29.9128042,16.2798473 29.7353152,14.8730406 29.4481447,13.5941892 L25.3830276,13.5941892 Z M19.9037076,13.5941892 C19.616775,14.8730406 19.4390481,16.2798473 19.3957464,17.7647839 L23.9688246,17.7647839 L23.9688246,13.5941892 L19.9037076,13.5941892 Z M13.331142,13.5941892 C12.7582284,14.8840349 12.41015,16.2882684 12.325926,17.7647839 L17.9817826,17.7647839 C18.0217533,16.29552 18.1740227,14.8929239 18.4457284,13.5941892 L13.331142,13.5941892 Z M25.3830276,7.11034029 L25.3830276,12.2042251 L29.083412,12.2042251 C28.8531045,11.4615228 28.5878227,10.7691138 28.2882802,10.1623202 C27.4519881,8.46989477 26.4215525,7.4373632 25.3830276,7.11034029 L25.3830276,7.11034029 Z M23.9578803,7.11034029 C22.9226863,7.44063811 21.8970091,8.47527498 21.0635721,10.1623202 C20.7640296,10.7691138 20.4987478,11.4615228 20.2684403,12.2042251 L23.9688246,12.2042251 L23.9688246,7.11034029 L23.9578803,7.11034029 Z M27.2828256,6.5674074 C28.1771704,7.26964115 28.9437517,8.30989214 29.5583015,9.5541231 C29.9503952,10.3473525 30.2775364,11.2432736 30.552573,12.2042251 L35.2914823,12.2042251 C33.5575145,9.36488022 30.679147,7.2829747 27.2828256,6.5674074 L27.2828256,6.5674074 Z M22.0690263,6.5674074 C18.6727049,7.2829747 15.7943374,9.36488022 14.0603697,12.2042251 L18.7992789,12.2042251 C19.0743155,11.2432736 19.4014568,10.3473525 19.7933125,9.5541231 C20.4078623,8.30989214 21.1746815,7.26964115 22.0690263,6.5674074 L22.0690263,6.5674074 Z" id="Fill-8" fill="#FFFFFF"></path>
                    </g>
                </g>
            </g>
        </g>
    </g>
</svg>