<?xml version="1.0" encoding="UTF-8"?>
<svg width="80px" height="80px" viewBox="0 0 80 80" version="1.1" xmlns="http://www.w3.org/2000/svg" xmlns:xlink="http://www.w3.org/1999/xlink">
    <!-- Generator: sketchtool 55.2 (78181) - https://sketchapp.com -->
    <title>Humanities</title>
    <desc>Created with sketchtool.</desc>
    <defs>
        <filter x="-13.0%" y="-13.0%" width="128.5%" height="126.8%" filterUnits="objectBoundingBox" id="filter-1">
            <feOffset dx="0" dy="2" in="SourceAlpha" result="shadowOffsetOuter1"></feOffset>
            <feGaussianBlur stdDeviation="1" in="shadowOffsetOuter1" result="shadowBlurOuter1"></feGaussianBlur>
            <feColorMatrix values="0 0 0 0 0   0 0 0 0 0.129411765   0 0 0 0 0.490196078  0 0 0 0.15 0" type="matrix" in="shadowBlurOuter1" result="shadowMatrixOuter1"></feColorMatrix>
            <feMerge>
                <feMergeNode in="shadowMatrixOuter1"></feMergeNode>
                <feMergeNode in="SourceGraphic"></feMergeNode>
            </feMerge>
        </filter>
        <path d="M0,59.2661088 L60.5976791,59.2661088 L60.5976791,0.000888157898 L0,0.000888157898 M7.42677641,32.5989462 C7.42677641,22.7272935 15.4577219,14.696348 25.3291526,14.696348 L25.3291526,14.696348 C35.2005832,14.696348 43.2315288,22.7272935 43.2315288,32.5989462 L43.2315288,32.5989462 C43.2315288,42.4701548 35.2005832,50.5011004 25.3291526,50.5011004 L25.3291526,50.5011004 C15.4577219,50.5011004 7.42677641,42.4701548 7.42677641,32.5989462" id="path-2"></path>
        <path d="M0,59.2661088 L60.5976791,59.2661088 L60.5976791,0.000888157898 L0,0.000888157898 L0,59.2661088 Z M7.42677641,32.5989462 C7.42677641,22.7272935 15.4577219,14.696348 25.3291526,14.696348 L25.3291526,14.696348 C35.2005832,14.696348 43.2315288,22.7272935 43.2315288,32.5989462 L43.2315288,32.5989462 C43.2315288,42.4701548 35.2005832,50.5011004 25.3291526,50.5011004 L25.3291526,50.5011004 C15.4577219,50.5011004 7.42677641,42.4701548 7.42677641,32.5989462 L7.42677641,32.5989462 Z" id="path-4"></path>
        <path d="M0,59.2661088 L60.5976791,59.2661088 L60.5976791,0.000888157898 L0,0.000888157898 M7.42677641,32.5989462 C7.42677641,22.7272935 15.4577219,14.696348 25.3291526,14.696348 L25.3291526,14.696348 C35.2005832,14.696348 43.2315288,22.7272935 43.2315288,32.5989462 L43.2315288,32.5989462 C43.2315288,42.4701548 35.2005832,50.5011004 25.3291526,50.5011004 L25.3291526,50.5011004 C15.4577219,50.5011004 7.42677641,42.4701548 7.42677641,32.5989462" id="path-6"></path>
        <path d="M0,59.2661088 L60.5976791,59.2661088 L60.5976791,0.000888157898 L0,0.000888157898 M7.42677641,32.5989462 C7.42677641,22.7272935 15.4577219,14.696348 25.3291526,14.696348 L25.3291526,14.696348 C35.2005832,14.696348 43.2315288,22.7272935 43.2315288,32.5989462 L43.2315288,32.5989462 C43.2315288,42.4701548 35.2005832,50.5011004 25.3291526,50.5011004 L25.3291526,50.5011004 C15.4577219,50.5011004 7.42677641,42.4701548 7.42677641,32.5989462" id="path-8"></path>
    </defs>
    <g id="desktop-v2" stroke="none" stroke-width="1" fill="none" fill-rule="evenodd">
        <g id="assets" transform="translate(-250.000000, -34.000000)">
            <g id="subjects-humanities" transform="translate(250.000000, 34.000000)">
                <circle id="Oval" fill="#FFFFFF" cx="40" cy="40" r="40"></circle>
                <g id="subjects/education-subjects-/-icons-/-discipline-humanities-copy" transform="translate(-6.000000, 8.000000)">
                    <g id="Group-25" filter="url(#filter-1)" transform="translate(12.750000, 1.500000)">
                        <g id="Group-9" transform="translate(3.355263, 13.642426)">
                            <path d="M11.7422469,0.409818248 C4.87389975,4.4167425 0.389590457,11.817318 0.389590457,19.3737652 C0.389590457,22.9643655 1.35857074,26.4759197 3.24390795,29.7752041 C7.14936032,36.6106892 14.2939246,40.2032878 21.5466221,40.5150312 L21.5466221,43.6273584 L23.6107011,43.6273584 L23.6107011,40.4988223 C26.7065975,40.3354013 30.0791552,39.4510181 32.8992786,37.8059276 C33.3653395,37.5341513 33.5436372,36.8644803 33.2743033,36.3970872 C33.0047473,35.9301382 32.3357424,35.7485099 31.8674611,36.0158454 C29.1168361,37.6205247 25.5690893,38.4669391 22.5788836,38.4669391 C15.6241631,38.4669391 8.7240643,35.2014047 5.03376818,28.7429426 C3.30940959,25.7249822 2.45366944,22.5944477 2.45366944,19.3737652 C2.45366944,12.6415285 6.52742775,5.84423425 12.7740644,2.19990045 C13.1863917,1.97564058 13.4042124,1.44607645 13.2696565,0.996668565 C12.9190562,0.297244238 12.3735052,0.130048517 11.7422469,0.409818248" id="Fill-3" fill="#838BB7"></path>
                            <path d="M38.3466625,19.3293573 C38.3466625,28.2353604 31.1268267,35.4554179 22.2206011,35.4554179 C13.3143754,35.4554179 6.09453964,28.2353604 6.09453964,19.3293573 C6.09453964,10.4231321 13.3143754,3.20307469 22.2206011,3.20307469 C31.1268267,3.20307469 38.3466625,10.4231321 38.3466625,19.3293573" id="Fill-5" fill="#2379E2"></path>
                            <path d="M29.8868251,45.8327219 C29.8868251,45.2694078 28.8117099,44.7869161 28.0838645,44.6068421 C27.7596868,44.0537417 27.3682312,43.5534868 27.1299829,43.5534868 L18.4564546,43.5534868 C18.217096,43.5534868 17.8356322,44.0575164 17.5221124,44.6132812 C16.7949331,44.797796 15.7440203,45.275847 15.7440203,45.8327219 C15.7440203,46.5485772 15.6845137,47.1338732 16.2385022,47.1338732 L17.6429019,47.1338732 L27.9877214,47.1338732 L29.3921211,47.1338732 C29.9463317,47.1338732 29.8868251,46.5485772 29.8868251,45.8327219" id="Fill-7" fill="#838BB7"></path>
                            <path d="M13.0191958,6.13339644 C13.1932747,6.88766451 13.6284721,7.903051 14.4118274,8.74458058 C15.1081432,9.46953945 16.0655774,10.0210855 17.4000347,10.1079029 C18.3865561,10.1660773 19.1696893,10.1660773 19.8662271,10.1949424 C22.79626,10.2822039 24.4788752,10.311069 26.3067042,12.2548025 C26.4516959,12.4000164 26.9159805,12.0516364 27.0609723,11.964819 C27.4670825,11.6455262 27.9022798,11.1235114 28.30839,10.4271957 C29.0628802,9.06342926 29.585117,7.14878292 29.4110381,4.8859787 C27.2641384,3.81241787 24.8272551,3.20314157 22.2451581,3.20314157 C18.8217534,3.20314157 15.63038,4.30578957 13.0191958,6.13339644 M9.47988653,20.9003537 C9.47988653,18.4055181 11.4236201,15.7652467 14.0636695,15.7652467 C14.8181596,15.7652467 15.6012929,15.9975 16.4137353,16.4906497 C17.8063669,17.3319573 18.2995166,18.2312172 18.7635791,19.1016119 C19.2278637,19.9138323 19.663061,20.6974096 21.9258654,21.2485116 C23.8407338,21.6837089 25.0301993,22.8733964 25.6685628,24.2948932 C26.0167207,25.0780264 26.1905776,25.919334 26.2196648,26.7606415 C26.2778391,27.6021711 26.1905776,28.4146136 26.0167207,29.1397945 C25.6685628,30.6774178 24.8563424,31.9539228 23.869821,32.360033 C23.2023703,32.6793257 22.3901499,32.360033 22.0999443,31.6637172 C21.7229213,30.7935445 21.3456762,30.0681415 17.9513587,30.0390544 C15.4851662,30.0390544 13.425528,28.9657155 11.945857,27.3701399 C10.3791464,25.6584376 9.47988653,23.2795066 9.47988653,20.9003537 M37.3023207,13.5894817 C36.9250756,13.7344735 36.5189654,13.9955919 36.0546808,14.3437498 C35.2715476,14.9239389 34.5170574,15.7363813 33.9659554,16.606776 C33.6466626,17.1290128 33.4146314,17.6219404 33.153735,18.1153121 C32.4862843,19.391817 31.8190556,20.6392347 30.6875424,21.6546212 C31.1227398,21.7418827 31.6740639,21.6837084 32.2833402,21.5968909 C33.0664735,21.5096294 33.9077811,21.3937248 34.8943025,21.4805423 C35.7935624,21.5678038 36.5480526,21.3355505 37.1282418,20.9294403 C37.7663832,20.494243 38.2015806,19.8851887 38.3465724,19.3047775 C38.3465724,17.3319569 37.9695494,15.4173106 37.3023207,13.5894817" id="Fill-23" fill="#27C195"></path>
                        </g>
                        <g id="Group-22" transform="translate(0.246711, 0.275650)">
                            <g id="Group-12">
                                <mask id="mask-3" fill="white">
                                    <use xlink:href="#path-2"></use>
                                </mask>
                                <g id="Clip-11"></g>
                                <path d="M52.6324362,36.9437259 L30.9855857,36.9437259 C30.0736696,36.9437259 30.171589,36.1150746 30.171589,35.1019085 C30.171589,34.0891864 33.0272387,33.260313 33.9391548,33.260313 L49.6788671,33.260313 C50.5907832,33.260313 53.4464329,34.0891864 53.4464329,35.1019085 C53.4464329,36.1150746 53.5441303,36.9437259 52.6324362,36.9437259" id="Fill-10" fill="#F54F71" mask="url(#mask-3)"></path>
                            </g>
                            <g id="Group-15">
                                <mask id="mask-5" fill="white">
                                    <use xlink:href="#path-4"></use>
                                </mask>
                                <g id="Clip-14"></g>
                                <path d="M46.6421229,30.7342161 C46.6421229,31.1210089 46.3257167,31.4374151 45.939146,31.4374151 L45.3758318,31.4374151 C44.9892611,31.4374151 44.6728549,31.1210089 44.6728549,30.7342161 L44.6728549,12.8993393 C44.6728549,12.5125465 44.9892611,12.1961403 45.3758318,12.1961403 L45.939146,12.1961403 C46.3257167,12.1961403 46.6421229,12.5125465 46.6421229,12.8993393 L46.6421229,30.7342161 Z M42.7524356,30.7342161 C42.7524356,31.1210089 42.4362514,31.4374151 42.0494587,31.4374151 L41.4861445,31.4374151 C41.0995738,31.4374151 40.7831676,31.1210089 40.7831676,30.7342161 L40.7831676,12.8993393 C40.7831676,12.5125465 41.0995738,12.1961403 41.4861445,12.1961403 L42.0494587,12.1961403 C42.4362514,12.1961403 42.7524356,12.5125465 42.7524356,12.8993393 L42.7524356,30.7342161 Z M38.8838421,30.7342161 C38.8838421,31.1210089 38.5674359,31.4374151 38.1808651,31.4374151 L37.617329,31.4374151 C37.2307582,31.4374151 36.914352,31.1210089 36.914352,30.7342161 L36.914352,12.8993393 C36.914352,12.5125465 37.2307582,12.1961403 37.617329,12.1961403 L38.1808651,12.1961403 C38.5674359,12.1961403 38.8838421,12.5125465 38.8838421,12.8993393 L38.8838421,30.7342161 Z M34.7954292,8.88575363 L34.7954292,33.1073738 C34.7954292,33.8807373 35.4282418,34.5135498 36.2016053,34.5135498 L47.4161535,34.5135498 C48.189739,34.5135498 48.8223295,33.8807373 48.8223295,33.1073738 L48.8223295,8.88575363 L34.7954292,8.88575363 Z" id="Fill-13" fill="#F54F71" mask="url(#mask-5)"></path>
                            </g>
                            <g id="Group-18">
                                <mask id="mask-7" fill="white">
                                    <use xlink:href="#path-6"></use>
                                </mask>
                                <g id="Clip-17"></g>
                                <path d="M56.3654768,10.4613895 C56.1991692,9.6969076 55.8003863,8.99881551 55.2352958,8.40064118 C54.6702054,7.83555073 53.9388073,7.43654581 53.2076313,7.23715436 C52.8419323,7.13745864 52.4431494,7.0708468 52.0774504,7.03776292 L51.8114471,7.03776292 L51.5787497,7.03776292 L51.113577,7.03776292 L49.25222,7.00467904 L45.5292841,6.97115108 L41.8065702,6.9380672 C39.3135109,6.9380672 36.8537575,6.97115108 34.3606983,7.00467904 L32.4995633,7.03776292 L32.0341686,7.03776292 L31.5354679,7.03776292 C31.136685,7.0708468 30.770986,7.13745864 30.405287,7.23715436 C29.674111,7.43654581 28.942935,7.83555073 28.3778445,8.40064118 C27.812754,8.96573163 27.4137491,9.6969076 27.2476635,10.4613895 C27.0482721,11.2258714 27.1146619,12.0236592 27.3473593,12.7548352 C27.4803609,13.1207562 27.6464464,13.4862332 27.8791438,13.8186263 C28.1118412,14.1510194 28.4111504,14.4168006 28.7435435,14.649498 C29.4083297,15.0818088 30.2061176,15.3142841 30.9703775,15.2145884 C31.3693824,15.1815045 31.7348594,15.0818088 32.0672525,14.9155013 C32.4329515,14.7494157 32.7653446,14.5167184 32.998042,14.2174092 C33.4967427,13.6192348 33.72944,12.821447 33.6295223,12.090271 C33.5631325,11.72435 33.4632147,11.358873 33.2307394,11.0595638 C33.0313479,10.7273928 32.6989548,10.4944734 32.3665617,10.3616938 C31.7017755,10.0626066 30.9039876,10.1289964 30.3388972,10.5943911 C30.2722853,10.6607809 30.2061176,10.7273928 30.1395057,10.7606987 C29.9068083,10.9933961 29.7407228,11.3257892 29.7407228,11.6912661 C29.7407228,12.4224421 30.3388972,13.0208385 31.0700732,13.0208385 C31.8014712,13.0208385 32.3996456,12.4224421 32.3996456,11.6912661 C32.3996456,11.4585688 32.3332558,11.2591773 32.2335601,11.0595638 C32.5326472,11.358873 32.6989548,11.757878 32.6989548,12.1566608 C32.6989548,12.6553615 32.4995633,13.1207562 32.1338643,13.4196213 C31.9675568,13.5859289 31.7681653,13.6856246 31.5687739,13.7520144 C31.3360765,13.8186263 31.1036011,13.8519322 30.8709038,13.8519322 C30.405287,13.8519322 29.9398922,13.6523187 29.6074991,13.3865375 C29.4414136,13.2535358 29.308634,13.0541444 29.1756323,12.8880589 C29.0759366,12.6884454 28.9760189,12.4890539 28.942935,12.2563566 C28.8432392,11.7909618 28.8432392,11.3257892 29.0093248,10.8934783 C29.1423264,10.4613895 29.4083297,10.0626066 29.7407228,9.7632974 C30.0731159,9.46421024 30.4718988,9.2648188 30.9372936,9.16512307 C31.1697689,9.09851123 31.4024663,9.09851123 31.6351637,9.09851123 L32.5326472,9.13181715 L34.3942262,9.16512307 C36.8870635,9.198429 39.3468168,9.23151288 41.8065702,9.23151288 L45.5292841,9.23151288 L49.25222,9.198429 L51.113577,9.16512307 L52.0110606,9.13181715 C52.2437579,9.13181715 52.4762333,9.16512307 52.7089306,9.198429 C53.1743254,9.29812472 53.5733303,9.49751616 53.9057234,9.79660333 C54.2381165,10.0959125 54.5038978,10.4613895 54.6368994,10.9267842 C54.7696791,11.358873 54.803207,11.8242678 54.7035113,12.2894404 C54.6035935,12.7548352 54.3711182,13.1207562 54.0387251,13.4196213 C53.7061099,13.7189306 53.2409372,13.8850161 52.7755425,13.8850161 C52.5428451,13.8850161 52.3101477,13.8519322 52.0774504,13.7853204 C51.8780589,13.7189306 51.6786675,13.5859289 51.5125819,13.4531493 C51.1799668,13.1538401 50.9474915,12.6884454 50.9474915,12.1897447 C50.9474915,11.7909618 51.0802711,11.4254849 51.3462744,11.1261757 C51.2463566,11.2922612 51.2132727,11.4918747 51.2132727,11.6912661 C51.2132727,12.4224421 51.8114471,13.0208385 52.5428451,13.0208385 C53.0413237,13.0208385 53.4736346,12.7548352 53.7061099,12.3229684 L53.7061099,12.3560523 C53.7061099,12.3229684 53.7394159,12.2894404 53.7394159,12.2894404 C53.7727218,12.2563566 53.7727218,12.1897447 53.8060277,12.1566608 C53.8724175,12.0236592 53.9057234,11.8573516 53.9057234,11.6912661 C53.9057234,11.3919569 53.8060277,11.0930918 53.6397201,10.8934783 C53.5733303,10.7606987 53.4736346,10.6607809 53.340633,10.5610852 C52.7755425,10.1289964 51.9777546,10.0293007 51.3129684,10.3283879 C50.9805753,10.4944734 50.6812661,10.7271707 50.4487908,11.0264799 C50.2493993,11.358873 50.1161756,11.6912661 50.0500079,12.0569651 C49.9500901,12.7881411 50.1827875,13.5859289 50.6812661,14.1843253 C50.9474915,14.4834124 51.2463566,14.7161098 51.6122777,14.8821953 C51.9777546,15.0485029 52.3434537,15.1481986 52.7089306,15.1815045 C53.4736346,15.2478943 54.2712004,15.0485029 54.9362087,14.6164141 C55.6009949,14.1843253 56.0994735,13.4531493 56.3321709,12.7217513 C56.4984784,12.0569651 56.5646462,11.2258714 56.3654768,10.4613895" id="Fill-16" fill="#F54F71" mask="url(#mask-7)"></path>
                            </g>
                            <g id="Group-21">
                                <mask id="mask-9" fill="white">
                                    <use xlink:href="#path-8"></use>
                                </mask>
                                <g id="Clip-20"></g>
                                <path d="M48.9823954,7.08419162 C49.745545,7.08419162 51.387527,4.40839389 51.387527,3.70719322 L51.387527,3.29131328 C51.387527,2.59011261 50.9076997,2.01636261 50.3210714,2.01636261 L33.2968605,2.01636261 C32.7102322,2.01636261 32.2304049,2.59011261 32.2304049,3.29131328 L32.2304049,3.70719322 C32.2304049,4.40839389 33.9456598,7.08419162 34.7085875,7.08419162 L48.9823954,7.08419162 Z" id="Fill-19" fill="#F54F71" mask="url(#mask-9)"></path>
                            </g>
                        </g>
                    </g>
                </g>
            </g>
        </g>
    </g>
</svg>
