<?xml version="1.0" encoding="UTF-8"?>
<svg width="80px" height="80px" viewBox="0 0 80 80" version="1.1" xmlns="http://www.w3.org/2000/svg" xmlns:xlink="http://www.w3.org/1999/xlink">
    <!-- Generator: sketchtool 55.2 (78181) - https://sketchapp.com -->
    <title>Pedagogy</title>
    <desc>Created with sketchtool.</desc>
    <defs>
        <filter x="-14.6%" y="-13.9%" width="129.7%" height="128.2%" filterUnits="objectBoundingBox" id="filter-1">
            <feOffset dx="0" dy="2" in="SourceAlpha" result="shadowOffsetOuter1"></feOffset>
            <feGaussianBlur stdDeviation="1" in="shadowOffsetOuter1" result="shadowBlurOuter1"></feGaussianBlur>
            <feColorMatrix values="0 0 0 0 0   0 0 0 0 0.129411765   0 0 0 0 0.490196078  0 0 0 0.15 0" type="matrix" in="shadowBlurOuter1" result="shadowMatrixOuter1"></feColorMatrix>
            <feMerge>
                <feMergeNode in="shadowMatrixOuter1"></feMergeNode>
                <feMergeNode in="SourceGraphic"></feMergeNode>
            </feMerge>
        </filter>
    </defs>
    <g id="desktop-v2" stroke="none" stroke-width="1" fill="none" fill-rule="evenodd">
        <g id="assets" transform="translate(-580.000000, -34.000000)">
            <g id="subjects-stem-subjects-pedagogy" transform="translate(580.000000, 34.000000)">
                <circle id="Oval" fill="#FFFFFF" cx="40" cy="40" r="40"></circle>
                <g id="subjects/stem-subjects-/-icons-/-discipline-pedagogy-copy" transform="translate(1.000000, 5.000000)">
                    <g id="Group-26" filter="url(#filter-1)" transform="translate(11.840000, 2.220000)">
                        <path d="M9.41449199,40.9165333 C9.88761308,41.0719268 10.2075566,41.4310084 10.2075566,41.8481436 C10.2075566,42.4109132 9.60621103,42.8670845 8.864288,42.8670845 C7.09928693,42.8670845 6.15255064,40.7904168 6.15255064,38.8401158 C6.15255064,36.8898149 7.09928693,34.8133974 8.864288,34.8133974 C9.60621103,34.8133974 10.2075566,35.2695687 10.2075566,35.8323384 C10.2075566,36.2494736 9.87476593,36.6085552 9.41449199,36.7636984 C9.22252589,36.9966635 8.83884075,37.6757907 8.83884075,38.8401158 C8.83884075,40.004441 9.22252589,40.6933272 9.41449199,40.9165333 L9.41449199,40.9165333 Z M53.4169784,35.5120427 C54.1586544,35.5120427 54.76,35.0561216 54.76,34.493352 L54.76,34.3186907 C54.76,33.755921 54.1586544,33.3 53.4169784,33.3 L3.65822672,33.3 C1.63727078,33.3 0,35.7837936 0,38.8498749 C0,41.9159562 1.63727078,44.4 3.65822672,44.4 L53.4169784,44.4 C54.1586544,44.4 54.76,43.944079 54.76,43.3813093 L54.76,43.196889 C54.76,42.6341193 54.1586544,42.1779481 53.4169784,42.1779481 L50.2573201,42.1779481 C49.796799,41.2465881 49.515397,40.1015307 49.515397,38.8498749 C49.515397,37.5982191 49.796799,36.4531617 50.2573201,35.5215514 L53.4169784,35.5215514 L53.4169784,35.5120427 Z" id="Fill-4" fill="#FF654C"></path>
                        <path d="M13.9635569,52.1603666 C13.9635569,53.3246393 14.3474874,54.0134944 14.5392056,54.2366904 C15.0123246,54.3920769 15.3322667,54.7511423 15.3322667,55.1682587 C15.3322667,55.731003 14.7309238,56.1869035 13.9892511,56.1869035 C12.2240108,56.1869035 11.2772787,54.1105796 11.2772787,52.1603666 C11.2772787,50.2101535 12.2240108,48.1338297 13.9892511,48.1338297 C14.7309238,48.1338297 15.3322667,48.5897302 15.3322667,49.1524745 M9.414697,54.2366904 C9.88781598,54.3920769 10.2077581,54.7511423 10.2077581,55.1682587 C10.2077581,55.731003 9.60641519,56.1869035 8.86449544,56.1869035 C7.09950221,56.1869035 6.15277012,54.1105796 6.15277012,52.1603666 C6.15277012,50.2101535 7.09950221,48.1338297 8.86449544,48.1338297 C9.60641519,48.1338297 10.2077581,48.5897302 10.2077581,49.1524745 C10.2077581,49.5695909 9.87496889,49.9286563 9.414697,50.0840428 C9.22273175,50.3169974 8.83904831,50.9960939 8.83904831,52.1603666 C8.83904831,53.3246393 9.22273175,54.0134944 9.414697,54.2366904 M53.4167374,46.62 L3.65845728,46.62 C1.6372634,46.62 0,49.1039318 0,52.1701251 C0,55.2360682 1.6372634,57.72 3.65845728,57.72 L53.4167374,57.72 C54.1586571,57.72 54.76,57.2638493 54.76,56.701105 L54.76,56.516693 C54.76,55.9539487 54.1586571,55.4980483 53.4167374,55.4980483 L50.2573404,55.4980483 C49.7968214,54.56648 49.5154206,53.4217245 49.5154206,52.1701251 C49.5154206,50.9182755 49.7968214,49.77352 50.2573404,48.8419517 L53.4167374,48.8419517 C54.1586571,48.8419517 54.76,48.3860513 54.76,47.823307 L54.76,47.6391452 C54.76,47.0764009 54.1586571,46.62 53.4167374,46.62" id="Fill-6" fill="#2379E2"></path>
                        <path d="M27.3801269,6.66 C23.4317648,6.66 19.61,9.77158891 19.61,14.1728648 C19.61,19.5586739 23.3521024,20.9282576 23.7783216,24.42 L30.9816784,24.42 C31.4081513,20.9282576 35.15,19.5586739 35.15,14.1728648 C35.15,9.77158891 31.3282352,6.66 27.3801269,6.66" id="Fill-8" fill="#FFC965"></path>
                        <path d="M23.68,29.0714996 C23.68,29.80044 24.3155133,30.34 25.0253587,30.34 L29.7346413,30.34 C30.4444867,30.34 31.08,29.80044 31.08,29.0714996 L31.08,25.9 L23.68,25.9" id="Fill-10" fill="#838BB7"></path>
                        <path d="M27.3798903,5.18 C27.7882342,5.18 28.12,4.89019613 28.12,4.53266281 L28.12,0.64755427 C28.12,0.290020954 27.7882342,0 27.3798903,0 C26.9717658,0 26.64,0.290020954 26.64,0.64755427 L26.64,4.53287989 C26.64,4.89019613 26.9717658,5.18 27.3798903,5.18" id="Fill-12" fill="#FFC965"></path>
                        <path d="M20.3481671,7.97912063 C19.9650811,8.22057725 19.4470004,8.18645368 19.1916955,7.90223463 L16.4196674,4.81383605 C16.1646202,4.52918505 16.2687001,4.10264049 16.6517861,3.8609679 C17.0351298,3.61929531 17.5529529,3.65363485 17.8082577,3.93785391 L20.5802858,7.02668443 C20.8355907,7.31068751 20.7309955,7.73744804 20.3481671,7.97912063" id="Fill-14" fill="#FFC965"></path>
                        <path d="M17.76,13.3116237 C17.7612981,13.7164845 17.4725801,14.0462905 17.1146132,14.0473782 L13.2299455,14.06 C12.8721957,14.0613014 12.5813069,13.7334534 12.58,13.3285926 C12.5787019,12.9237319 12.8674199,12.5939259 13.2251697,12.5926206 L17.1104887,12.58 C17.4675873,12.5789149 17.7586931,12.906763 17.76,13.3116237" id="Fill-16" fill="#FFC965"></path>
                        <path d="M18.8681671,19.4008794 C18.4850811,19.1594228 17.9670004,19.1935463 17.7116955,19.4777654 L14.9396674,22.566164 C14.6846202,22.850815 14.7887001,23.2773595 15.1717861,23.5190321 C15.5551298,23.7607047 16.0729529,23.7263652 16.3282577,23.4421461 L19.1002858,20.3533156 C19.3555907,20.0693125 19.2509955,19.642552 18.8681671,19.4008794" id="Fill-18" fill="#FFC965"></path>
                        <path d="M35.5682959,7.90223463 L38.3403322,4.81383605 C38.5953801,4.52918505 38.4912999,4.10264049 38.1082128,3.8609679 C37.724868,3.61929531 37.2070434,3.65363485 36.9517378,3.93785391 L34.1797015,7.02668443 C33.9243959,7.31068751 34.0289914,7.73744804 34.4120785,7.97912063 C34.7949081,8.22057725 35.3129903,8.18645368 35.5682959,7.90223463 Z" id="Fill-20" fill="#FFC965"></path>
                        <path d="M37,13.3116237 C36.9987019,13.7164845 37.2874199,14.0462905 37.6453868,14.0473782 L41.5300545,14.06 C41.8880214,14.0613014 42.1786931,13.7334534 42.18,13.3285926 C42.1812981,12.9237319 41.8925801,12.5939259 41.5350474,12.5926206 L37.6495113,12.58 C37.2924127,12.5789149 37.0013069,12.906763 37,13.3116237" id="Fill-22" fill="#FFC965"></path>
                        <path d="M35.8920785,19.4008794 C36.2749081,19.1594228 36.7929903,19.1935463 37.0482959,19.4777654 L39.8203322,22.566164 C40.0753801,22.850815 39.9712999,23.2773595 39.5882128,23.5190321 C39.204868,23.7607047 38.6870434,23.7263652 38.4317378,23.4421461 L35.6597015,20.3533156 C35.4043959,20.0693125 35.5089914,19.642552 35.8920785,19.4008794" id="Fill-24" fill="#FFC965"></path>
                    </g>
                </g>
            </g>
        </g>
    </g>
</svg>
