<?xml version="1.0" encoding="UTF-8"?>
<svg width="80px" height="80px" viewBox="0 0 80 80" version="1.1" xmlns="http://www.w3.org/2000/svg" xmlns:xlink="http://www.w3.org/1999/xlink">
    <!-- Generator: sketchtool 55.2 (78181) - https://sketchapp.com -->
    <title>Life Skills</title>
    <desc>Created with sketchtool.</desc>
    <defs>
        <filter x="-16.4%" y="-10.6%" width="133.3%" height="121.5%" filterUnits="objectBoundingBox" id="life-skills-filter-1">
            <feOffset dx="0" dy="2" in="SourceAlpha" result="shadowOffsetOuter1"></feOffset>
            <feGaussianBlur stdDeviation="1" in="shadowOffsetOuter1" result="shadowBlurOuter1"></feGaussianBlur>
            <feColorMatrix values="0 0 0 0 0   0 0 0 0 0.129411765   0 0 0 0 0.490196078  0 0 0 0.15 0" type="matrix" in="shadowBlurOuter1" result="shadowMatrixOuter1"></feColorMatrix>
            <feMerge>
                <feMergeNode in="shadowMatrixOuter1"></feMergeNode>
                <feMergeNode in="SourceGraphic"></feMergeNode>
            </feMerge>
        </filter>
        <polyline id="life-skills-path-2" points="0.568032769 0.21430327 0.0534467194 27.6244666 40.4080438 48.3452695 39.6334537 0.21430327"></polyline>
        <polyline id="life-skills-path-4" points="0.568032769 0.21430327 0.0534467194 27.6244666 40.4080438 48.3452695 39.6334537 0.21430327"></polyline>
        <polygon id="life-skills-path-6" points="0.568032769 0.21430327 0.0534467194 27.6244666 40.4080438 48.3452695 39.6334537 0.21430327"></polygon>
        <polyline id="life-skills-path-8" points="0.568032769 0.21430327 0.0534467194 27.6244666 40.4080438 48.3452695 39.6334537 0.21430327"></polyline>
    </defs>
    <g id="desktop-v2" stroke="none" stroke-width="1" fill="none" fill-rule="evenodd">
        <g id="assets" transform="translate(-464.000000, -34.000000)">
            <g id="subjects-life-skills" transform="translate(464.000000, 34.000000)">
                <circle id="life-skills-Oval" fill="#FFFFFF" cx="40" cy="40" r="40"></circle>
                <g id="subjects/languages-subjects-/-icons-/-discipline-life-skills-copy" transform="translate(-7.000000, 10.000000)">
                    <g id="life-skills-Group-20" filter="url(#life-skills-filter-1)" transform="translate(23.250000, -15.000000)">
                        <g id="life-skills-Group-6" transform="translate(0.000000, 30.425042)" fill="#FFC965">
                            <path d="M38.3128284,32.837235 L38.3128284,43.8575873 C38.3128284,44.1372144 38.187603,44.4124521 37.9694267,44.6097144 C37.7499595,44.8082677 37.4473529,44.9218742 37.1370005,44.9218742 L18.0185658,44.9218742 C17.7100207,44.9218742 17.4056068,44.8082677 17.1879469,44.6097144 C16.9684797,44.4124521 16.8429961,44.1372144 16.8429961,43.8575873 L16.8429961,37.6624153 L11.2468403,37.6624153 C7.89054109,37.6624153 5.17224597,35.2002514 5.17069679,32.1617924 L5.17069679,26.447899 L2.61403282,25.593526 C1.01682788,25.0572514 0.0261264257,23.6888088 0.0261264257,22.2299974 C0.0261264257,21.8168826 0.105651642,21.3955056 0.271930332,20.9880711 L3.86163939,12.1933745 C4.1526271,7.67080076 6.02248778,3.53371473 8.97858208,0.224407375 L47.3584924,20.0009851 C45.470558,23.3694195 42.5374432,30.8899153 38.3128284,32.837235" id="life-skills-Fill-4"></path>
                        </g>
                        <g id="Group-19" transform="translate(7.610656, 0.043893)">
                            <g id="Group-9">
                                <mask id="life-skills-mask-3" fill="white">
                                    <use xlink:href="#life-skills-path-2"></use>
                                </mask>
                                <g id="Clip-8"></g>
                                <path d="M16.3393335,24.9425803 C16.3322337,28.1189163 18.1958976,30.8640638 20.9082542,32.1509162 L20.8302788,55.4867354 C20.8258895,57.3821575 22.3337583,58.8969976 24.2294387,58.9011383 C26.1248608,58.9055181 27.639701,57.3973911 27.6438321,55.501969 L27.6965043,32.1405884 C30.3889797,30.8914327 32.2905986,28.1292442 32.2981067,24.9529082 C32.3053158,21.7251911 30.3902707,18.9800436 27.6779141,17.6931911 L27.6652625,23.2263468 C27.6626805,24.3533754 26.7130329,25.2988918 25.5860042,25.2963098 L23.0244346,25.2906295 C21.8971477,25.2880475 20.9513731,24.3381418 20.953955,23.2111131 L20.9666067,17.6779575 C18.2485698,18.9526747 16.3211312,21.6893017 16.3393335,24.9425803" id="Fill-7" fill="#838BB7" mask="url(#life-skills-mask-3)"></path>
                            </g>
                            <g id="Group-12">
                                <mask id="life-skills-mask-5" fill="white">
                                    <use xlink:href="#life-skills-path-4"></use>
                                </mask>
                                <g id="Clip-11"></g>
                                <path d="M34.5869731,35.0135078 C33.7011002,35.0027863 32.9747928,35.7117945 32.9636904,36.5976675 L32.8526658,55.2996308 C32.8415633,56.1852455 33.5505715,56.9120693 34.4361862,56.9227781 C35.3218009,56.9334996 36.0483664,56.2244914 36.0594689,55.3391349 L36.1704935,36.6366552 C36.1815959,35.7512986 35.4725878,35.0247331 34.5869731,35.0135078" id="Fill-10" fill="#27C195" mask="url(#life-skills-mask-5)"></path>
                            </g>
                            <g id="Group-15">
                                <mask id="life-skills-mask-7" fill="white">
                                    <use xlink:href="#life-skills-path-6"></use>
                                </mask>
                                <g id="Clip-14"></g>
                                <path d="M38.2241646,34.7398147 L34.982763,28.9626629 C34.9161483,28.8441506 34.7914392,28.7697899 34.6553696,28.7679491 C34.5192999,28.7661752 34.3925253,28.8376957 34.3233286,28.9544006 L30.9409516,34.6497041 L30.8224393,34.8492901 L30.8172754,35.2815114 L30.6742344,56.5514998 C30.6923082,56.5522744 30.7103819,56.5548563 30.7292303,56.5548563 C31.6145868,56.5659588 32.986386,55.8569506 32.9972303,54.9710776 L33.108513,36.2691139 C33.1162589,35.6354992 32.1098081,35.0847655 31.5797303,34.8180483 L33.3592221,31.8209007 L35.8758655,31.8516261 L37.5833203,34.8949909 C37.581513,34.8960237 37.5791892,34.8967983 37.576349,34.8980893 L37.5709269,34.8980893 L37.5704105,34.9006713 C37.044722,35.158868 36.0338818,35.6946262 36.0258777,36.3207533 L35.9148532,55.0229751 C35.9040089,55.9085899 37.2577343,56.6354137 38.1430908,56.6462831 C38.1585826,56.6462831 38.1738162,56.6447088 38.189308,56.6444506 L38.2724474,40.2009337 L38.3150498,36.7354172 L38.3320908,35.3739459 L38.3372548,34.9417246 L38.2241646,34.7398147 Z" id="Fill-13" fill="#27C195" mask="url(#life-skills-mask-7)"></path>
                            </g>
                            <g id="Group-18">
                                <mask id="life-skills-mask-9" fill="white">
                                    <use xlink:href="#life-skills-path-8"></use>
                                </mask>
                                <g id="Clip-17"></g>
                                <path d="M14.4806532,71.0563624 L9.33375977,71.0563624 C8.94181715,71.0563624 8.62371879,70.7387804 8.62371879,70.3463214 C8.62371879,69.9536042 8.94181715,69.6365386 9.33375977,69.6365386 L14.4806532,69.6365386 L14.4806532,67.5038337 L12.1746983,67.5038337 C11.7830138,67.5038337 11.4649155,67.18651 11.4649155,66.794051 C11.4649155,66.4013338 11.7830138,66.08401 12.1746983,66.08401 L14.4806532,66.08401 L14.4806532,63.9528543 L9.33375977,63.9528543 C8.94181715,63.9528543 8.62371879,63.6355305 8.62371879,63.2430715 C8.62371879,62.8503543 8.94181715,62.5332887 9.33375977,62.5332887 L14.4806532,62.5332887 L14.4806532,60.4005838 L12.1746983,60.4005838 C11.7830138,60.4005838 11.4649155,60.08326 11.4649155,59.690801 C11.4649155,59.2980838 11.7830138,58.98076 12.1746983,58.98076 L14.4806532,58.98076 L14.4806532,56.8496043 L9.33375977,56.8496043 C8.94181715,56.8496043 8.62371879,56.5325387 8.62371879,56.1398215 C8.62371879,55.7473625 8.94181715,55.4297806 9.33375977,55.4297806 L14.4806532,55.4297806 L14.4806532,53.2973338 L12.1746983,53.2973338 C11.7830138,53.2973338 11.4649155,52.9800101 11.4649155,52.5872929 C11.4649155,52.1948339 11.7830138,51.8775101 12.1746983,51.8775101 L14.4806532,51.8775101 L14.4806532,49.7463544 L9.33375977,49.7463544 C8.94181715,49.7463544 8.62371879,49.4290306 8.62371879,49.0363134 C8.62371879,48.6438544 8.94181715,48.3265306 9.33375977,48.3265306 L14.4806532,48.3265306 L14.4806532,46.1940839 L12.1746983,46.1940839 C11.7830138,46.1940839 11.4649155,45.8759855 11.4649155,45.4843011 C11.4649155,45.0923585 11.7830138,44.7742601 12.1746983,44.7742601 L14.4806532,44.7742601 L14.4806532,42.6431044 L9.33375977,42.6431044 C8.94181715,42.6431044 8.62371879,42.3250061 8.62371879,41.9333216 C8.62371879,41.541379 8.94181715,41.2235388 9.33375977,41.2235388 L14.4806532,41.2235388 L14.4806532,39.0916085 L12.1746983,39.0916085 C11.7830138,39.0916085 11.4649155,38.773252 11.4649155,38.3815676 C11.4649155,37.9896249 11.7830138,37.6717848 12.1746983,37.6717848 L14.4806532,37.6717848 L14.4806532,35.540629 L9.33375977,35.540629 C8.94181715,35.540629 8.62371879,35.2225307 8.62371879,34.8308463 C8.62371879,34.4386455 8.94181715,34.1208053 9.33375977,34.1208053 L14.4806532,34.1208053 L14.4806532,31.988875 L12.1746983,31.988875 C11.7830138,31.988875 11.4649155,31.6710348 11.4649155,31.2790922 C11.4649155,30.8871496 11.7830138,30.5690512 12.1746983,30.5690512 L14.4806532,30.5690512 L14.4806532,28.4378955 L9.33375977,28.4378955 C8.94181715,28.4378955 8.62371879,28.1200553 8.62371879,27.7281127 C8.62371879,27.3361701 8.94181715,27.0183299 9.33375977,27.0183299 L14.4806532,27.0183299 L14.4806532,24.8871742 L12.1746983,24.8871742 C11.7830138,24.8871742 11.4649155,24.5690758 11.4649155,24.1771332 C11.4649155,23.7851906 11.7830138,23.4673504 12.1746983,23.4673504 L14.4806532,23.4673504 L14.4806532,21.3354201 L9.33375977,21.3354201 C8.94181715,21.3354201 8.62371879,21.01758 8.62371879,20.6253792 C8.62371879,20.2336947 8.94181715,19.9155964 9.33375977,19.9155964 L14.4806532,19.9155964 L14.4806532,16.7338382 C14.4806532,15.9502112 13.8444565,15.3140144 13.0608294,15.3140144 L5.57105898,15.3140144 C4.78717374,15.3140144 4.15123522,15.9502112 4.15123522,16.7338382 L4.15123522,74.2357968 C4.15123522,75.0194239 4.78717374,75.6556206 5.57105898,75.6556206 L13.0608294,75.6556206 C13.8444565,75.6556206 14.4806532,75.0194239 14.4806532,74.2357968 L14.4806532,71.0563624 Z" id="life-skills-Fill-16" fill="#D67DEC" mask="url(#life-skills-mask-9)"></path>
                            </g>
                        </g>
                    </g>
                </g>
            </g>
        </g>
    </g>
</svg>
