<?xml version="1.0" encoding="UTF-8"?>
<svg width="80px" height="80px" viewBox="0 0 80 80" version="1.1" xmlns="http://www.w3.org/2000/svg" xmlns:xlink="http://www.w3.org/1999/xlink">
    <!-- Generator: sketchtool 55.2 (78181) - https://sketchapp.com -->
    <title>572C7A97-52B0-4D91-941E-DBC9396E8AA2</title>
    <desc>Created with sketchtool.</desc>
    <defs>
        <filter x="-12.1%" y="-16.2%" width="124.2%" height="132.3%" filterUnits="objectBoundingBox" id="filter-1">
            <feOffset dx="0" dy="2" in="SourceAlpha" result="shadowOffsetOuter1"></feOffset>
            <feGaussianBlur stdDeviation="1" in="shadowOffsetOuter1" result="shadowBlurOuter1"></feGaussianBlur>
            <feColorMatrix values="0 0 0 0 0   0 0 0 0 0.129411765   0 0 0 0 0.490196078  0 0 0 0.15 0" type="matrix" in="shadowBlurOuter1" result="shadowMatrixOuter1"></feColorMatrix>
            <feMerge>
                <feMergeNode in="shadowMatrixOuter1"></feMergeNode>
                <feMergeNode in="SourceGraphic"></feMergeNode>
            </feMerge>
        </filter>
    </defs>
    <g id="desktop-v2" stroke="none" stroke-width="1" fill="none" fill-rule="evenodd">
        <g id="assets" transform="translate(-146.000000, -34.000000)">
            <g id="subject-arts" transform="translate(146.000000, 34.000000)">
                <g id="subject-area">
                    <circle id="Oval" fill="#FFFFFF" cx="40" cy="40" r="40"></circle>
                    <g id="subjects-/-arts-subjects-/-icons-/-discipline-arts-copy" transform="translate(1.000000, 16.000000)">
                        <g id="Group-16" filter="url(#filter-1)" transform="translate(4.500000, -0.000000)">
                            <path d="M49.4872163,10.0367343 L53.7217385,11.1651355 C54.126751,10.8638024 54.5731878,10.5901646 54.880202,10.1655051 C55.1801147,9.70628582 55.2785865,9.14551754 55.3841596,8.61930907 C55.6338896,7.2343132 55.9032667,5.77309641 55.4757667,4.42218693 C55.3401313,3.94639788 55.1005799,3.49262296 54.8683664,3.07317113 C54.523952,2.46103657 54.1523158,1.89079985 53.7731048,1.28600334 C53.5139063,0.908449346 53.2400317,0.461775753 52.9117136,0.0984244197 C52.6813939,-0.141363789 52.2619421,0.0906129578 52.3341389,0.435500835 C52.6132211,1.42140201 52.5815019,2.47263541 52.2451356,3.44338708 C51.828761,4.7194959 50.9747079,5.79913462 49.9177935,6.59708728 C49.5473408,6.89084559 49.1766515,7.18484061 48.8698741,7.60926337 C47.948595,8.88300508 49.120551,10.0057252 49.4872163,10.0367343" id="Fill-4" fill="#F54F71"></path>
                            <path d="M50.3152542,23.7645728 L53.3300049,12.9038009 L49.1030574,11.8101963 C49.0684976,11.8172977 49.0611596,11.7829746 49.0268365,11.7900759 L46.8588009,23.7695437 C47.9190292,24.0154864 48.9697892,24.0469689 50.0738091,23.8154656 C50.1772517,23.7936882 50.2463713,23.7792488 50.3152542,23.7645728" id="Fill-6" fill="#2379E2"></path>
                            <path d="M28.177002,22.9696033 C26.4532728,24.1406124 25.6373301,25.9566589 24.847899,24.7856498 C24.0582313,23.6274231 24.0845062,20.6403674 25.8082354,19.4691216 C27.5322014,18.2981125 29.5721764,18.2848567 30.3616075,19.4558658 C31.1510386,20.6271116 29.900968,21.7983575 28.177002,22.9696033 M27.0848182,43.050978 C22.8739671,44.6300769 18.3733817,42.9981914 16.7807904,38.7871032 C16.5705911,38.2343831 16.4519989,37.6818996 16.3731741,37.1291795 C16.3599183,36.9710566 16.4124682,36.8264262 16.5310604,36.7213265 C16.6494158,36.6290092 16.807302,36.602971 16.9519324,36.642265 C18.8602961,37.3135774 22.0052379,38.1688141 24.8346439,37.1029046 C27.6638132,36.0369951 29.4666038,33.326181 30.4536885,31.5626842 C30.5325133,31.4310729 30.6643613,31.3389924 30.8222475,31.3389924 C30.9801337,31.3389924 31.1247641,31.404798 31.2038255,31.5364093 C31.5195979,31.9970489 31.7825838,32.4969824 31.9932565,33.0497026 C33.5986302,37.2607908 31.2959061,41.4718791 27.0848182,43.050978 M9.13549926,27.5752881 C8.97761304,26.1803504 10.5434561,24.8644741 12.6092328,24.6410189 C14.6887387,24.4170904 16.6229041,26.6672648 16.7807903,28.0624393 C16.9386765,29.4571403 15.1358857,28.6019036 13.0701091,28.8386146 C10.9908399,29.0623064 9.28012966,28.9704626 9.13549926,27.5752881 M30.8352662,6.77028867 C30.5720437,6.38871059 30.1509349,6.13850709 29.6905321,6.07270144 C29.4140537,6.03340742 29.137812,6.07270144 28.8876085,6.16501872 C28.7164665,6.23082437 28.5455612,6.32290494 28.400694,6.44126042 C25.2555156,9.07324969 22.2552042,11.1390263 15.9783397,13.507793 C9.70123855,15.8765597 6.06914562,16.3109243 1.96339406,16.4030049 C1.77899623,16.4030049 1.5948351,16.4425356 1.41067398,16.5083413 C1.16070721,16.6004218 0.923759538,16.758308 0.739598414,16.9687441 C0.43708181,17.3240473 0.279195602,17.7849235 0.331508723,18.2453264 C0.673792767,21.3246994 1.25278777,24.5619586 2.4503085,27.7201563 C7.97727265,42.3929225 18.6758978,51.9335582 28.9666699,48.0647541 C39.2574421,44.19595 41.0074462,29.9573117 35.4804821,15.2843088 C34.2962171,12.1261111 32.5987629,9.31019738 30.8352662,6.77028867" id="Fill-8" fill="#D67DEC"></path>
                            <path d="M56.7316363,36.7998688 C54.8251662,37.3114012 52.8391612,36.1654834 52.3278655,34.2590132 C51.8160964,32.3525431 52.9620142,30.366538 54.868721,29.8550056 C56.7751911,29.3437099 58.7609594,30.4896277 59.2724918,32.3960979 C59.7840243,34.3023313 58.6381065,36.2885731 56.7316363,36.7998688 M46.5400465,43.2928486 C44.6338131,43.8041443 42.6475713,42.6582265 42.1362756,40.7517563 C41.6247432,38.8455229 42.770661,36.8592811 44.6771312,36.3479854 C46.5836013,35.836453 48.5696064,36.9823708 49.0811388,38.888841 C49.5924345,40.7953111 48.4465167,42.7813162 46.5400465,43.2928486 M64.6650061,18.7608347 C62.9481415,12.3606438 54.4161312,32.3852071 42.4780867,21.7566485 C35.3940374,15.4823879 42.9112678,1.60568155 37.4643116,3.06689828 C35.5417451,3.58269145 33.7472392,4.33661584 32.1016245,5.28653691 C32.2161926,5.40962661 32.3253164,5.53816066 32.421421,5.6773467 C34.6659145,8.91058165 36.2121105,11.7501663 37.2844112,14.6089245 C40.1587926,22.2397756 41.1425634,29.8587911 40.0525093,36.0589612 C39.3880616,39.8397086 37.9580907,43.0282051 35.8811886,45.4746129 C39.9542743,46.904347 44.4861059,47.1644924 48.9713054,45.9612906 C60.8182161,42.7832093 67.842851,30.6079813 64.6650061,18.7608347" id="Fill-10" fill="#838BB7"></path>
                            <path d="M59.7312133,33.3756298 C59.7312133,35.4608167 58.0408603,37.150933 55.9559101,37.150933 C53.8707232,37.150933 52.1806068,35.4608167 52.1806068,33.3756298 C52.1806068,31.2904429 53.8707232,29.6003265 55.9559101,29.6003265 C58.0408603,29.6003265 59.7312133,31.2904429 59.7312133,33.3756298" id="Fill-12" fill="#27C195"></path>
                            <path d="M49.4520872,39.5576452 C49.4520872,41.6428321 47.7617341,43.3329484 45.6767839,43.3329484 C43.591597,43.3329484 41.9014807,41.6428321 41.9014807,39.5576452 C41.9014807,37.4724583 43.591597,35.782342 45.6767839,35.782342 C47.7617341,35.782342 49.4520872,37.4724583 49.4520872,39.5576452" id="Fill-14" fill="#FFC965"></path>
                        </g>
                    </g>
                </g>
            </g>
        </g>
    </g>
</svg>