<svg width="475" height="418" xmlns="http://www.w3.org/2000/svg" xmlns:xlink="http://www.w3.org/1999/xlink"><defs><path d="M.513.492v62.136h15.123a4.913 4.913 0 01-4.084-3.519L2.261 26.172a4.86 4.86 0 01.442-3.717 4.861 4.861 0 012.938-2.32l18.476-5.212a4.86 4.86 0 011.323-.183 4.914 4.914 0 014.714 3.564l9.291 32.936a4.857 4.857 0 01-.443 3.717 4.856 4.856 0 01-2.937 2.32L17.59 62.49c-.218.061-.44.107-.665.138h43.374V.492" id="a"/><path d="M.513.492v62.136h15.123a4.913 4.913 0 01-4.084-3.519L2.261 26.172a4.86 4.86 0 01.442-3.717 4.861 4.861 0 012.938-2.32l18.476-5.212a4.86 4.86 0 011.323-.183 4.914 4.914 0 014.714 3.564l9.291 32.936a4.857 4.857 0 01-.443 3.717 4.856 4.856 0 01-2.937 2.32L17.59 62.49c-.218.061-.44.107-.665.138h43.374V.492" id="c"/><path d="M.513.492v62.136h15.123a4.913 4.913 0 01-4.084-3.519L2.261 26.172a4.86 4.86 0 01.442-3.717 4.861 4.861 0 012.938-2.32l18.476-5.212a4.86 4.86 0 011.323-.183 4.914 4.914 0 014.714 3.564l9.291 32.936a4.857 4.857 0 01-.443 3.717 4.856 4.856 0 01-2.937 2.32L17.59 62.49c-.218.061-.44.107-.665.138h43.374V.492H.513z" id="e"/><path d="M.513.492v62.136h15.123a4.913 4.913 0 01-4.084-3.519L2.261 26.172a4.86 4.86 0 01.442-3.717 4.861 4.861 0 012.938-2.32l18.476-5.212a4.86 4.86 0 011.323-.183 4.914 4.914 0 014.714 3.564l9.291 32.936a4.857 4.857 0 01-.443 3.717 4.856 4.856 0 01-2.937 2.32L17.59 62.49c-.218.061-.44.107-.665.138h43.374V.492" id="g"/><path d="M.219 58.32h59.363V.262H.219m7.276 31.935c0-9.67 7.867-17.538 17.537-17.538 9.67 0 17.538 7.868 17.538 17.538s-7.867 17.537-17.538 17.537c-9.67 0-17.537-7.867-17.537-17.537" id="i"/><path d="M.219 58.32h59.363V.262H.219V58.32zm7.276-26.123c0-9.67 7.867-17.538 17.537-17.538 9.67 0 17.538 7.868 17.538 17.538s-7.867 17.537-17.538 17.537c-9.67 0-17.537-7.867-17.537-17.537z" id="k"/><path d="M.219 58.32h59.363V.262H.219m7.276 31.935c0-9.67 7.867-17.538 17.537-17.538 9.67 0 17.538 7.868 17.538 17.538s-7.867 17.537-17.538 17.537c-9.67 0-17.537-7.867-17.537-17.537" id="m"/><path d="M.219 58.32h59.363V.262H.219m7.276 31.935c0-9.67 7.867-17.538 17.537-17.538 9.67 0 17.538 7.868 17.538 17.538s-7.867 17.537-17.538 17.537c-9.67 0-17.537-7.867-17.537-17.537" id="o"/><path d="M.12 2.02c-.054.934.453 1.712 1.13 1.737.679.026 1.272-.712 1.324-1.646.054-.935-.452-1.713-1.13-1.738H1.41C.746.372.172 1.1.12 2.02z" id="q"/><path d="M.487 2.02c-.053.934.453 1.712 1.131 1.737.678.026 1.27-.711 1.324-1.646.053-.935-.453-1.713-1.13-1.738h-.034C1.113.372.54 1.1.488 2.02z" id="s"/></defs><g fill="none" fill-rule="evenodd"><path d="M437.961 212.141c-32.273 69.63-177.75 108.62-146.887 184.827l-183.63 19.95s-58.116 3.033-82.111-49.073C9.16 332.725-3.851 232.351 1.24 167.781 11.507 37.58 81.924-32.646 285.788 16.331c132.753 31.602 169.449 122.99 152.173 195.81" fill="#E8EFFF"/><path d="M115.2 388.47C19.108 364.056-36.074 235.494 26.807 135.061 89.69 34.629 231.042-6.44 315.008 6.992c83.968 13.431-30.904 149.244 127.013 266.293C404.682 431.758 211.29 412.881 115.2 388.47" fill="#B2D2F9"/><path d="M317.997 417.222H45.365a5.305 5.305 0 01-5.305-5.305V47.647a5.305 5.305 0 015.305-5.306h272.632a5.305 5.305 0 015.306 5.306v364.27a5.305 5.305 0 01-5.306 5.305" fill="#A3A9CE"/><path d="M40.06 133.668v270.628c0 12.667 0 12.667 12.925 12.926h257.392c12.926 0 12.926-.525 12.926-12.926v-53.41L40.06 133.667z" fill="#6471A9"/><path d="M304.677 399.926H58.685a2.168 2.168 0 01-2.168-2.169V61.806c0-1.198.97-2.168 2.168-2.168h245.992c1.198 0 2.169.97 2.169 2.168v335.951c0 1.198-.971 2.169-2.169 2.169" fill="#FAFAFF"/><path d="M129.325 106.867c.147 16.635-11.305 19.715-24.92 23.617-13.617 3.9-30.28-.038-33.58-15.112-3.302-15.073 7.178-24.632 20.168-28.39 12.99-3.76 38.185 3.25 38.332 19.885" fill="#FFDFAB"/><path d="M111.941 94.065l3.518.938c.336-.25.707-.478.962-.83.25-.382.331-.848.42-1.285.206-1.15.43-2.365.075-3.487-.113-.395-.312-.772-.504-1.12-.287-.508-.595-.982-.91-1.484-.215-.315-.443-.685-.716-.987-.191-.2-.54-.006-.48.28.232.82.206 1.692-.073 2.498-.347 1.06-1.056 1.957-1.934 2.62-.308.244-.615.488-.87.84-.765 1.06.208 1.992.512 2.017" fill="#F54F71"/><path d="M112.63 105.47l2.504-9.023-3.512-.908c-.028.005-.034-.024-.063-.017l-1.8 9.951c.88.204 1.753.23 2.67.038l.2-.042" fill="#2379E2"/><path d="M94.24 104.808c-1.433.973-2.11 2.482-2.766 1.51-.656-.963-.634-3.444.798-4.417 1.432-.973 3.126-.984 3.782-.011.656.972-.383 1.946-1.814 2.918m-.908 16.682c-3.498 1.312-7.236-.044-8.56-3.542a6.35 6.35 0 01-.338-1.377.393.393 0 01.132-.339.397.397 0 01.35-.066c1.584.558 4.197 1.268 6.547.383 2.35-.886 3.848-3.138 4.668-4.602a.36.36 0 01.306-.186c.131 0 .251.055.317.164.262.382.48.798.656 1.257 1.333 3.498-.58 6.996-4.078 8.308m-14.91-12.856c-.131-1.158 1.17-2.251 2.886-2.437 1.727-.186 3.334 1.683 3.465 2.842.131 1.159-1.366.448-3.083.645-1.727.186-3.148.11-3.268-1.05m18.026-17.282a1.396 1.396 0 00-.951-.58c-.23-.032-.46 0-.667.077-.142.055-.284.131-.404.23-2.613 2.186-5.105 3.902-10.32 5.87-5.214 1.967-8.23 2.328-11.642 2.405a1.385 1.385 0 00-1.016.47 1.399 1.399 0 00-.339 1.06c.284 2.558.765 5.247 1.76 7.87 4.59 12.19 13.478 20.115 22.026 16.9 8.549-3.213 10.002-15.04 5.411-27.23-.983-2.623-2.393-4.962-3.858-7.072" fill="#D67DEC"/><path d="M117.96 116.297a3 3 0 01-3.66-2.11 2.999 2.999 0 012.112-3.658 2.999 2.999 0 013.658 2.11 2.999 2.999 0 01-2.11 3.658m-8.466 5.394a3 3 0 01-3.659-2.111 3 3 0 012.111-3.658 2.999 2.999 0 013.658 2.11 3 3 0 01-2.11 3.659m15.055-20.378c-1.426-5.317-8.513 11.317-18.43 2.488-5.885-5.212.36-16.739-4.165-15.525A18.461 18.461 0 0097.5 90.12c.094.103.185.21.265.325 1.865 2.686 3.15 5.045 4.04 7.42 2.388 6.339 3.205 12.667 2.3 17.818-.553 3.14-1.74 5.789-3.466 7.821a18.362 18.362 0 0010.874.405c9.841-2.64 15.676-12.754 13.036-22.595" fill="#838BB7"/><path d="M120.451 113.453a3.136 3.136 0 11-6.273 0 3.136 3.136 0 016.273 0" fill="#27C195"/><path d="M111.912 118.588a3.136 3.136 0 11-6.272 0 3.136 3.136 0 016.272 0" fill="#FFC965"/><path d="M204.513 96.888c7.375 14.642 5.153 28.63-7.923 37.152-13.075 8.522-26.594 11.143-37.294-2.027-10.7-13.17-7.887-35.423 7.148-42.503 15.034-7.079 30.693-7.265 38.069 7.378" fill="#FFDFAB"/><path d="M170.75 101.061l-.251 5.433-1.872-2.548a.554.554 0 00-.599-.205l-1.065.302.302 1.065.697-.198 2.572 3.5a.554.554 0 00.6.204.553.553 0 00.392-.502l.312-6.6 7.604-2.152-.302-1.065-7.987 2.262a.552.552 0 00-.403.504" fill="#2379E2"/><path fill="#2379E2" d="M177.279 101.29l-1.254 2.253-2.25-1.261-.542.97 2.253 1.254-1.26 2.25.97.542 1.254-2.254 2.249 1.262.542-.97-2.253-1.255 1.261-2.25z"/><path d="M182.109 106.654l-3.37.923-2.17.604-10.253 2.866-.229.03c-.152.022-.239-.044-.401-.1-.098-.142-.271-.274-.292-.426l-2.409-8.606c-.128-.371.06-.707.43-.835l15.783-4.47c.229-.031.392.024.555.08.097.143.27.275.29.427l1.19 4.188.415 1.342.892 3.142c.128.37-.06.706-.431.835m-2.512-14.033l-18.476 5.212a3.002 3.002 0 00-2.068 3.694l9.291 32.937a3.002 3.002 0 003.694 2.068l18.476-5.211a3.002 3.002 0 002.068-3.695l-9.291-32.937a3.002 3.002 0 00-3.694-2.068" fill="#FB5C41"/><path d="M170.753 114.638a1.955 1.955 0 11-3.765 1.058 1.955 1.955 0 013.765-1.058M177.282 112.806a1.955 1.955 0 11-3.766 1.057 1.955 1.955 0 013.766-1.057M183.81 110.973a1.955 1.955 0 11-3.765 1.057 1.955 1.955 0 013.765-1.057M172.7 121.574a1.955 1.955 0 11-3.765 1.057 1.955 1.955 0 013.765-1.057M179.229 119.742a1.955 1.955 0 11-3.764 1.056 1.955 1.955 0 013.764-1.056M174.647 128.51a1.955 1.955 0 11-3.765 1.057 1.955 1.955 0 013.765-1.057M181.176 126.677a1.955 1.955 0 11-3.764 1.057 1.955 1.955 0 013.764-1.057M186.718 127.152l-.722.202a1.59 1.59 0 01-1.957-1.099l-2.146-7.644a1.591 1.591 0 011.099-1.956l.722-.203c.84-.236 1.72.258 1.956 1.098l2.146 7.645c.236.84-.258 1.72-1.098 1.957" fill="#FFC965"/><g><g transform="translate(154.965 75.966)"><mask id="b" fill="#fff"><use xlink:href="#a"/></mask><path d="M47.241 39.867l-8.272-10.32V19.023H32.69v10.526l-8.267 10.32c-1.717 2.966-.314 5.388 3.106 5.388h16.605c3.42 0 4.819-2.422 3.107-5.389" fill="#2379E2" mask="url(#b)"/></g><g transform="translate(154.965 75.966)"><mask id="d" fill="#fff"><use xlink:href="#c"/></mask><path d="M30.477 10.58H27.75c0 2.257 1.83 4.088 4.089 4.088h2.726c0-2.258-1.83-4.089-4.09-4.089" fill="#27C195" mask="url(#d)"/></g><g transform="translate(154.965 75.966)"><mask id="f" fill="#fff"><use xlink:href="#e"/></mask><path d="M41.381 5.27a5.453 5.453 0 00-5.452 5.452v6.841h1.363v-6.841h2.726a5.453 5.453 0 005.452-5.453h-4.089z" fill="#27C195" mask="url(#f)"/></g><g transform="translate(154.965 75.966)"><mask id="h" fill="#fff"><use xlink:href="#g"/></mask><path d="M43.262 42.692H28.434c-1.241 0-1.754-.804-1.128-1.79l3.345-5.314c.743-.623 2.137-1.275 3.68.562 1.15 1.365 2.149 1.67 2.86 1.633.512-.02.99-.268 1.317-.636.446-.511 1.696-1.567 3.387-.214l2.495 3.969c.621.986.113 1.79-1.128 1.79" fill="#FFC965" mask="url(#h)"/></g></g><g><path d="M289.39 112.408c-12.236 9.935-9.81 10.257-19.337 22.313-9.528 12.057-21.406 9.487-37.098-17.971-15.69-27.458 37.745-50.468 41.349-36.498 3.604 13.97 27.322 22.221 15.086 32.156" fill="#FFDFAB"/><path d="M248.337 90.848c-6.728 3.924-11.121 11.174-11.121 18.577 0 3.517.95 6.957 2.796 10.189 3.826 6.696 10.825 10.216 17.93 10.521v3.049h2.022v-3.065c3.032-.16 6.337-1.026 9.099-2.638.457-.266.631-.922.367-1.38-.264-.457-.919-.635-1.378-.374-2.695 1.573-6.17 2.401-9.1 2.401-6.812 0-13.572-3.198-17.186-9.525-1.69-2.957-2.528-6.023-2.528-9.178 0-6.595 3.99-13.254 10.11-16.825.404-.22.617-.737.485-1.178-.343-.685-.877-.848-1.496-.574" fill="#838BB7"/><path d="M274.4 109.38c0 8.726-7.074 15.799-15.798 15.799-8.725 0-15.797-7.073-15.797-15.798s7.072-15.798 15.797-15.798c8.724 0 15.797 7.073 15.797 15.798" fill="#2379E2"/><path d="M266.112 135.344c0-.551-1.053-1.024-1.766-1.2-.318-.543-.702-1.033-.935-1.033h-8.496c-.235 0-.608.494-.915 1.038-.713.181-1.743.65-1.743 1.195 0 .701-.057 1.275.485 1.275h12.886c.542 0 .484-.574.484-1.275" fill="#838BB7"/></g><g><g transform="translate(233.57 77.09)"><mask id="j" fill="#fff"><use xlink:href="#i"/></mask><path d="M51.78 36.453H30.572c-.893 0-.797-.812-.797-1.804s2.798-1.804 3.69-1.804h15.42c.893 0 3.69.812 3.69 1.804s.096 1.804-.797 1.804" fill="#F54F71" mask="url(#j)"/></g><g transform="translate(233.57 77.09)"><mask id="l" fill="#fff"><use xlink:href="#k"/></mask><path d="M45.911 30.37c0 .38-.31.69-.69.69h-.55a.69.69 0 01-.69-.69V12.9a.69.69 0 01.69-.69h.55c.38 0 .69.31.69.69V30.37zm-3.81 0a.69.69 0 01-.69.69h-.55a.69.69 0 01-.69-.69V12.9a.69.69 0 01.69-.69h.55a.69.69 0 01.69.69V30.37zm-3.79 0a.69.69 0 01-.69.69h-.55a.69.69 0 01-.69-.69V12.9a.69.69 0 01.69-.69h.55a.69.69 0 01.69.69V30.37zM34.306 8.967v23.728c0 .757.62 1.378 1.377 1.378H46.67c.757 0 1.377-.62 1.377-1.378V8.967H34.306z" fill="#F54F71" mask="url(#l)"/></g><g transform="translate(233.57 77.09)"><mask id="n" fill="#fff"><use xlink:href="#m"/></mask><path d="M55.436 10.51c-.163-.748-.553-1.433-1.107-2.018a4.531 4.531 0 00-1.986-1.14 6.581 6.581 0 00-1.108-.196h-.944l-1.823-.032-3.647-.033-3.647-.032c-2.442 0-4.852.032-7.295.065l-1.823.032h-.944a6.055 6.055 0 00-1.107.196 4.534 4.534 0 00-1.986 1.14 4.13 4.13 0 00-1.107 2.018c-.196.75-.13 1.531.097 2.247.13.358.293.716.521 1.042.228.325.521.586.847.814.651.424 1.432.652 2.181.554a2.92 2.92 0 001.075-.294c.358-.163.684-.39.912-.683.488-.586.716-1.368.619-2.084-.066-.358-.163-.717-.391-1.01-.196-.325-.521-.553-.847-.684-.651-.292-1.433-.227-1.986.228a.837.837 0 01-.196.163 1.31 1.31 0 00-.39.912c0 .716.586 1.303 1.302 1.303.717 0 1.303-.587 1.303-1.303 0-.228-.066-.423-.163-.619.293.293.456.685.456 1.075 0 .488-.196.944-.554 1.237a1.38 1.38 0 01-.553.326 2.475 2.475 0 01-.684.098c-.456 0-.912-.196-1.238-.456-.163-.13-.292-.326-.423-.489-.097-.195-.195-.39-.228-.618-.098-.456-.098-.912.065-1.335a2.52 2.52 0 01.717-1.108 2.508 2.508 0 011.172-.586c.228-.065.456-.065.684-.065l.879.033 1.824.032c2.442.033 4.851.065 7.261.065h3.647l3.647-.032 1.823-.033.88-.032c.227 0 .455.032.683.065.456.098.847.293 1.173.586.325.293.586.651.715 1.107.131.423.163.88.066 1.335a2.024 2.024 0 01-.652 1.107 1.87 1.87 0 01-1.237.456c-.228 0-.456-.032-.684-.097a1.906 1.906 0 01-.553-.326 1.694 1.694 0 01-.554-1.237c0-.391.13-.749.391-1.043a1.07 1.07 0 00-.13.554c0 .716.586 1.303 1.302 1.303.489 0 .912-.26 1.14-.684v.033c0-.033.033-.066.033-.066.032-.032.032-.097.064-.13.065-.13.099-.293.099-.456 0-.293-.099-.586-.261-.781a.919.919 0 00-.293-.326 1.978 1.978 0 00-1.987-.228c-.325.163-.618.391-.846.684a2.968 2.968 0 00-.391 1.01c-.097.716.13 1.497.619 2.083.26.293.553.521.912.684.358.163.715.26 1.074.293.75.065 1.53-.13 2.182-.553.65-.424 1.14-1.14 1.367-1.857.163-.65.229-1.465.033-2.214" fill="#F54F71" mask="url(#n)"/></g><g transform="translate(233.57 77.09)"><mask id="p" fill="#fff"><use xlink:href="#o"/></mask><path d="M34.22 7.202h13.983c.748 0 2.357-2.621 2.357-3.309v-.407c0-.687-.47-1.249-1.046-1.249H32.837c-.574 0-1.044.562-1.044 1.25v.406c0 .688 1.68 3.31 2.428 3.31" fill="#F54F71" mask="url(#p)"/></g></g><g><path d="M249.588 96.454c.171.739.597 1.734 1.365 2.558.682.71 1.619 1.25 2.927 1.336.966.056 1.733.056 2.415.085 2.871.085 4.52.113 6.31 2.018.142.142.597-.2.739-.284.398-.313.824-.824 1.222-1.507.739-1.336 1.25-3.212 1.08-5.428a15.671 15.671 0 00-7.02-1.648c-3.354 0-6.48 1.08-9.038 2.87m-3.467 14.467c0-2.445 1.904-5.031 4.49-5.031.74 0 1.507.227 2.302.71 1.365.824 1.848 1.705 2.302 2.558.455.796.882 1.563 3.098 2.103 1.876.427 3.041 1.592 3.666 2.984.342.768.512 1.592.54 2.416a7.759 7.759 0 01-.198 2.33c-.342 1.507-1.137 2.758-2.103 3.156-.654.312-1.45 0-1.734-.683-.37-.852-.74-1.563-4.065-1.591-2.415 0-4.433-1.052-5.882-2.615-1.535-1.677-2.416-4.007-2.416-6.337m27.255-7.162c-.369.142-.767.397-1.222.738a8.496 8.496 0 00-2.046 2.217c-.313.512-.54.994-.796 1.478-.654 1.25-1.307 2.473-2.416 3.467.427.085.967.029 1.563-.057.768-.085 1.592-.198 2.558-.114.881.086 1.62-.142 2.188-.54.626-.425 1.052-1.023 1.194-1.591 0-1.933-.369-3.808-1.023-5.598" fill="#27C195"/><path d="M274.553 346.627H81.5a1.55 1.55 0 110-3.101h193.054a1.551 1.551 0 010 3.101M274.553 353.468H81.5a1.55 1.55 0 110-3.102h193.054a1.551 1.551 0 010 3.102M274.553 360.308H81.5a1.551 1.551 0 010-3.102h193.054a1.55 1.55 0 110 3.102M274.553 367.147H81.5a1.55 1.55 0 110-3.1h193.054a1.55 1.55 0 110 3.1" fill="#F4D7E0"/><path fill="#997659" d="M345.427 412.686h6.24v-7.689h-6.24zM394.028 412.686h6.24l-2.323-7.689h-6.24z"/><path d="M399.713 410.945l-3.266 1.007-3.032-1.007-1.599 6.24h24.11c-1.097-4.498-4.748-2.612-9.441-3.99-4.695-1.379-6.772-2.25-6.772-2.25" fill="#090F0C"/><path d="M329.669 163.495c.744.628 1.77 5.205 1.77 5.205l-5.41 2.178a4.963 4.963 0 01-6.903-5.154l.349-2.861s9.45.003 10.194.632" fill="#784931"/><path d="M327.013 170.45l4.691.684 2.569-4.401a1.702 1.702 0 00-2.878-1.816l-4.382 5.534z" fill="#997659"/><path fill="#00B272" d="M325.311 189.991l-9.67 2.445-3.459 28 11.32.462z"/><path d="M457.336 212.559l-16.904-2.128 3.869-30.73 16.904 2.127c8.486 1.068 14.499 8.814 13.43 17.3-1.067 8.486-8.813 14.499-17.3 13.43" fill="#EFA7A3"/><path fill="#FFC965" d="M438.372 210.172l-179.335-23.133 3.869-30.732L442.24 179.44z"/><path fill="#FFF1DC" d="M227.089 167.408l31.948 19.63 3.87-30.731z"/><path fill="#FCE0BB" d="M227.089 167.408l31.948 19.63 2.07-15.377z"/><path fill="#00217D" d="M237.756 164.101l-10.667 3.307 9.515 5.846z"/><path fill="#FFB031" d="M448.142 211.401l-189.105-24.363 2.07-15.377 187.981 23.802z"/><path fill="#A3A9CE" d="M453.217 212.04l-14.844-1.868 3.868-30.732 14.845 1.87z"/><path d="M389.866 284.61l1.971-5.12 6.664-.544c1.225-.136 2.313.604 2.43 1.654.118 1.05-.781 2.011-2.006 2.148l-9.06 1.862z" fill="#784931"/><path d="M385.952 278.854l3.353 6.318 7.971-2.085-7.744-12.336-2.159 1.061a5.08 5.08 0 00-1.421 7.042" fill="#997659"/><path fill="#00B272" d="M392.981 277.702l28.45-29.808-14.43-5.17-17.53 28.027z"/><path d="M410.443 246.611a6.5 6.5 0 008.637 3.148 6.5 6.5 0 10-8.637-3.148" fill="#00B272"/><path d="M412.64 249.208l8.79-9.369-30.688-36.382c-2.63-3.573-7.813-3.988-10.977-.88-3.165 3.108-2.854 14.103.672 16.795l32.203 29.836z" fill="#00B272"/><path fill="#997659" d="M362.406 206.156l12.586 1.065 1.69-19.95-12.587-1.066z"/><path d="M317.238 216.197a5.665 5.665 0 10.757 11.305 5.665 5.665 0 00-.757-11.305" fill="#00B272"/><path d="M313.671 217.03l5.737 10.195 35.073-7.88c4.298-1.093 6.629-11.547 4.937-15.647-1.694-4.1-6.626-5.748-10.444-3.492L313.67 217.03z" fill="#00B272"/><path d="M386.159 274.78c8.478-16.925 3.818-66.773 3.818-66.773.896-3.564-1.507-7.116-5.148-7.61l-31.285-1.132c-3.642-.494-6.904 2.289-6.99 5.963 0 0-19.541 64.788-5.414 69.552 6.99 2.357 36.54 16.926 45.019 0" fill="#039157"/><path fill="#273049" d="M356.237 274.78l7.212 22.462-8.822 111.238h-12.855l-1.618-122.09.986-11.61z"/><path fill="#3D4564" d="M356.237 274.78l7.037 27.584h5.066l22.873 106.116h10.533l-9.457-115.493-6.13-18.207zM386.31 170.91c-.305-3.029-1.428-5.971-3.334-8.275-1.764-2.131-4.156-3.725-6.783-4.58-1.289-.421-2.51-.65-3.832-.511-1.637.171-3.313.354-4.872-.342-2.199-.972-12.938 12.316-11.041 13.362-.077.49-.14.987-.164 1.495-.405 8.314 6.007 15.38 14.32 15.785 5.823.283 11.415-2.928 14.108-8.099 1.383-2.656 1.905-5.789 1.598-8.835"/><path d="M379.24 180.057a2.873 2.873 0 105.667.958 2.873 2.873 0 00-5.667-.958" fill="#997659"/><path d="M366.976 164.028c-6.676-.1-9.258 5.51-9.258 5.51l-.37 1.975-.297 1.751c0 .081-.002.16.003.244l-.034-.057-.826 4.888c-1.138 6.739 3.154 13.426 9.874 14.67 6.812 1.26 13.31-3.304 14.46-10.109l1.011-5.988v-.013s1.903-11.735-14.563-12.871" fill="#997659"/><path d="M369.645 164.327a22.92 22.92 0 014.871 1.318c1.167.46 2.292 1.034 3.24 1.864 3.09 2.7.339 8.49-.725 11.508-.26.738-.564 1.616-.1 2.246.502.682 1.616.559 2.266.016.65-.542.988-1.359 1.425-2.085.435-.726 1.085-1.436 1.93-1.492l-.492-13.706c-.004-.1-8.607-.289-9.266-.31-1.333-.046-3.149.64-3.149.64" fill="#3D4564"/><path d="M328.1 162.984s-2.009-.009-4.417-.063c-2.408-.053-3.544-.548-4.74-.72-1.196-.172-3.084 3.263-3.361 4.644-.335 1.667-.08 3.509.825 3.229.905-.28 2.165-1.733 2.165-1.733s.818 1.442 1.995 1.41c.677-.019 1.139-1.92 1.139-1.92s.513.807 2.508 1.051c.921.113 2.263.37 4.958-1.142 1.745-.979-1.073-4.756-1.073-4.756" fill="#997659"/><path d="M345.722 410.945l3.265 1.007 3.033-1.007 1.598 6.24h-24.109c1.096-4.498 4.748-2.612 9.44-3.99 4.695-1.379 6.773-2.25 6.773-2.25" fill="#090F0C"/><path d="M363.603 192.38s6.967 3.435 10.58.469" fill="#784931"/></g><g transform="translate(370.567 171.977)"><mask id="r" fill="#fff"><use xlink:href="#q"/></mask><path fill="#3D4564" mask="url(#r)" d="M-6.04 9.401H8.735V-5.272H-6.04z"/></g><g transform="translate(361.022 171.977)"><mask id="t" fill="#fff"><use xlink:href="#s"/></mask><path fill="#3D4564" mask="url(#t)" d="M-5.673 9.401H9.102V-5.272H-5.673z"/></g><g><path d="M359.098 164.902c-.155.307.732-2.767 2.677-2.82 2.036-.056 14.688.65 15.335-.126 2.144 2.488 3.71 12.35 3.831 12.328.285-.05.319-1.018.347-1.225.205-1.454.26-2.946.258-4.41-.003-2.705.854-7.91-4.483-11.154-3.282-1.996-10.067-2.194-13.843-1.065-2.631.788-5.153 2.837-6.091 5.226-1.03 2.623-1.003 4.671-.664 9.865.036.564.109 1.128.194 1.686.057.372.11.752.207 1.116.536 1.979.586-7.083 2.232-9.42" fill="#3D4564"/><path d="M379.077 160.471c-.412 3.791-5.774 6.726-9.755 6.726l1.16-1.005c-4.474 1.249-6.973.398-6.966.399.162.03 1.855-.695 1.855-.695-2.544.071-5.115.105-7.085-1.586l2.844-4.637 17.947.798zM359.275 170.054c-.342-.452 1.255-.79 2.894-.898 2.75-.178 4.324.948 3 .99-.99.031-5.793.04-5.894-.092M375.711 170.633c.362-.44-1.22-.835-2.853-1-2.74-.277-4.361.791-3.039.88.988.067 5.787.248 5.892.12" fill="#3D4564"/><path d="M363.88 185.61c-.098.083.058.495.564.969.495.47 1.38.964 2.462 1.054 1.082.09 2.037-.254 2.602-.635.578-.385.8-.766.715-.863-.168-.222-1.484.663-3.235.507-1.754-.134-2.905-1.223-3.107-1.031" fill="#57331F"/><path fill="#6471A9" d="M453.25 212.337l-15.187-2.398 2.07-15.376 15.186 1.836z"/><path d="M203.165 179.019H83.885a3.937 3.937 0 010-7.873h119.28a3.936 3.936 0 110 7.873" fill="#F54F71"/><path d="M160.572 196.131H83.885a3.937 3.937 0 110-7.873h76.687a3.936 3.936 0 110 7.873M160.572 214.504H83.885a3.937 3.937 0 110-7.873h76.687a3.936 3.936 0 110 7.873" fill="#93D5F9"/><path d="M273.119 241.976H83.589a3.838 3.838 0 010-7.675h189.53a3.838 3.838 0 110 7.675" fill="#F54F71"/><path d="M121.181 258.656H83.589a3.838 3.838 0 010-7.675h37.592a3.837 3.837 0 010 7.675M121.181 276.565H83.589a3.838 3.838 0 010-7.675h37.592a3.837 3.837 0 010 7.675M195.856 258.656h-37.592a3.838 3.838 0 010-7.675h37.592a3.837 3.837 0 010 7.675M195.856 276.565h-37.592a3.838 3.838 0 010-7.675h37.592a3.837 3.837 0 010 7.675M273.119 258.656h-37.592a3.837 3.837 0 010-7.675h37.592a3.837 3.837 0 110 7.675" fill="#93D5F9"/><path d="M370.77 185.577s-.242 2.435-3.975 2.223c-3.587-.204-3.198-2.631-3.198-2.631" fill="#57331F"/><path d="M369.418 179.399s-2.979 2.751-5.3-.489" fill="#784931"/></g></g></svg>