<?xml version="1.0" encoding="UTF-8"?>
<svg width="475px" height="418px" viewBox="0 0 475 418" version="1.1" xmlns="http://www.w3.org/2000/svg" xmlns:xlink="http://www.w3.org/1999/xlink">
    <!-- Generator: sketchtool 55.2 (78181) - https://sketchapp.com -->
    <title>Teacher holding a pencil about to fill in a form</title>
    <desc>Created with sketchtool.</desc>
    <defs>
        <path d="M0.512618203,0.491843972 L0.512618203,62.6281324 L15.6356974,62.6281324 C13.718292,62.3771572 12.0861111,61.0032506 11.5521572,59.1094267 L11.5521572,59.1094267 L2.26102246,26.1721631 C1.90673759,24.9172872 2.06394799,23.5978428 2.70345745,22.4546986 L2.70345745,22.4546986 C3.34352837,21.3126773 4.38617021,20.4890071 5.6410461,20.1347222 L5.6410461,20.1347222 L24.1171986,14.9231974 C24.5478428,14.8013593 24.9930851,14.7395981 25.4400118,14.7395981 L25.4400118,14.7395981 C27.6241135,14.7395981 29.5622931,16.2055851 30.154078,18.3037825 L30.154078,18.3037825 L39.4452128,51.2404846 C39.7994976,52.4953605 39.6417258,53.8153664 39.0022163,54.9573877 L39.0022163,54.9573877 C38.3632683,56.0999704 37.3195035,56.9242021 36.0651891,57.2779255 L36.0651891,57.2779255 L17.5890366,62.4900118 C17.3706265,62.5512116 17.1488475,62.5972518 16.9242612,62.6281324 L16.9242612,62.6281324 L60.2980496,62.6281324 L60.2980496,0.491843972" id="dwarf-with-pencil-path-1"></path>
        <path d="M0.512618203,0.491843972 L0.512618203,62.6281324 L15.6356974,62.6281324 C13.718292,62.3771572 12.0861111,61.0032506 11.5521572,59.1094267 L11.5521572,59.1094267 L2.26102246,26.1721631 C1.90673759,24.9172872 2.06394799,23.5978428 2.70345745,22.4546986 L2.70345745,22.4546986 C3.34352837,21.3126773 4.38617021,20.4890071 5.6410461,20.1347222 L5.6410461,20.1347222 L24.1171986,14.9231974 C24.5478428,14.8013593 24.9930851,14.7395981 25.4400118,14.7395981 L25.4400118,14.7395981 C27.6241135,14.7395981 29.5622931,16.2055851 30.154078,18.3037825 L30.154078,18.3037825 L39.4452128,51.2404846 C39.7994976,52.4953605 39.6417258,53.8153664 39.0022163,54.9573877 L39.0022163,54.9573877 C38.3632683,56.0999704 37.3195035,56.9242021 36.0651891,57.2779255 L36.0651891,57.2779255 L17.5890366,62.4900118 C17.3706265,62.5512116 17.1488475,62.5972518 16.9242612,62.6281324 L16.9242612,62.6281324 L60.2980496,62.6281324 L60.2980496,0.491843972" id="dwarf-with-pencil-path-3"></path>
        <path d="M0.512618203,0.491843972 L0.512618203,62.6281324 L15.6356974,62.6281324 C13.718292,62.3771572 12.0861111,61.0032506 11.5521572,59.1094267 L11.5521572,59.1094267 L2.26102246,26.1721631 C1.90673759,24.9172872 2.06394799,23.5978428 2.70345745,22.4546986 L2.70345745,22.4546986 C3.34352837,21.3126773 4.38617021,20.4890071 5.6410461,20.1347222 L5.6410461,20.1347222 L24.1171986,14.9231974 C24.5478428,14.8013593 24.9930851,14.7395981 25.4400118,14.7395981 L25.4400118,14.7395981 C27.6241135,14.7395981 29.5622931,16.2055851 30.154078,18.3037825 L30.154078,18.3037825 L39.4452128,51.2404846 C39.7994976,52.4953605 39.6417258,53.8153664 39.0022163,54.9573877 L39.0022163,54.9573877 C38.3632683,56.0999704 37.3195035,56.9242021 36.0651891,57.2779255 L36.0651891,57.2779255 L17.5890366,62.4900118 C17.3706265,62.5512116 17.1488475,62.5972518 16.9242612,62.6281324 L16.9242612,62.6281324 L60.2980496,62.6281324 L60.2980496,0.491843972 L0.512618203,0.491843972 Z" id="dwarf-with-pencil-path-5"></path>
        <path d="M0.512618203,0.491843972 L0.512618203,62.6281324 L15.6356974,62.6281324 C13.718292,62.3771572 12.0861111,61.0032506 11.5521572,59.1094267 L11.5521572,59.1094267 L2.26102246,26.1721631 C1.90673759,24.9172872 2.06394799,23.5978428 2.70345745,22.4546986 L2.70345745,22.4546986 C3.34352837,21.3126773 4.38617021,20.4890071 5.6410461,20.1347222 L5.6410461,20.1347222 L24.1171986,14.9231974 C24.5478428,14.8013593 24.9930851,14.7395981 25.4400118,14.7395981 L25.4400118,14.7395981 C27.6241135,14.7395981 29.5622931,16.2055851 30.154078,18.3037825 L30.154078,18.3037825 L39.4452128,51.2404846 C39.7994976,52.4953605 39.6417258,53.8153664 39.0022163,54.9573877 L39.0022163,54.9573877 C38.3632683,56.0999704 37.3195035,56.9242021 36.0651891,57.2779255 L36.0651891,57.2779255 L17.5890366,62.4900118 C17.3706265,62.5512116 17.1488475,62.5972518 16.9242612,62.6281324 L16.9242612,62.6281324 L60.2980496,62.6281324 L60.2980496,0.491843972" id="dwarf-with-pencil-path-7"></path>
        <path d="M0.218971631,58.3200059 L59.5816194,58.3200059 L59.5816194,0.262204492 L0.218971631,0.262204492 M7.49500591,32.1966903 C7.49500591,22.5265662 15.3622636,14.6593085 25.0323877,14.6593085 L25.0323877,14.6593085 C34.7025118,14.6593085 42.5697695,22.5265662 42.5697695,32.1966903 L42.5697695,32.1966903 C42.5697695,41.8668144 34.7025118,49.7340721 25.0323877,49.7340721 L25.0323877,49.7340721 C15.3622636,49.7340721 7.49500591,41.8668144 7.49500591,32.1966903" id="dwarf-with-pencil-path-9"></path>
        <path d="M0.218971631,58.3200059 L59.5816194,58.3200059 L59.5816194,0.262204492 L0.218971631,0.262204492 L0.218971631,58.3200059 Z M7.49500591,32.1966903 C7.49500591,22.5265662 15.3622636,14.6593085 25.0323877,14.6593085 L25.0323877,14.6593085 C34.7025118,14.6593085 42.5697695,22.5265662 42.5697695,32.1966903 L42.5697695,32.1966903 C42.5697695,41.8668144 34.7025118,49.7340721 25.0323877,49.7340721 L25.0323877,49.7340721 C15.3622636,49.7340721 7.49500591,41.8668144 7.49500591,32.1966903 L7.49500591,32.1966903 Z" id="dwarf-with-pencil-path-11"></path>
        <path d="M0.218971631,58.3200059 L59.5816194,58.3200059 L59.5816194,0.262204492 L0.218971631,0.262204492 M7.49500591,32.1966903 C7.49500591,22.5265662 15.3622636,14.6593085 25.0323877,14.6593085 L25.0323877,14.6593085 C34.7025118,14.6593085 42.5697695,22.5265662 42.5697695,32.1966903 L42.5697695,32.1966903 C42.5697695,41.8668144 34.7025118,49.7340721 25.0323877,49.7340721 L25.0323877,49.7340721 C15.3622636,49.7340721 7.49500591,41.8668144 7.49500591,32.1966903" id="dwarf-with-pencil-path-13"></path>
        <path d="M0.218971631,58.3200059 L59.5816194,58.3200059 L59.5816194,0.262204492 L0.218971631,0.262204492 M7.49500591,32.1966903 C7.49500591,22.5265662 15.3622636,14.6593085 25.0323877,14.6593085 L25.0323877,14.6593085 C34.7025118,14.6593085 42.5697695,22.5265662 42.5697695,32.1966903 L42.5697695,32.1966903 C42.5697695,41.8668144 34.7025118,49.7340721 25.0323877,49.7340721 L25.0323877,49.7340721 C15.3622636,49.7340721 7.49500591,41.8668144 7.49500591,32.1966903" id="dwarf-with-pencil-path-15"></path>
        <path d="M0.120153664,2.0195922 C0.0662529551,2.95443262 0.572695035,3.73206265 1.25094563,3.75732861 L1.25094563,3.75732861 C1.92863475,3.78259456 2.52154255,3.04539007 2.57432033,2.11054965 L2.57432033,2.11054965 C2.62822104,1.17627069 2.12177896,0.398079196 1.44408983,0.372813239 L1.44408983,0.372813239 C1.43286052,0.372251773 1.42106974,0.372251773 1.41040189,0.372251773 L1.41040189,0.372251773 C0.746187943,0.372251773 0.172369976,1.10047281 0.120153664,2.0195922 L0.120153664,2.0195922 Z" id="dwarf-with-pencil-path-17"></path>
        <path d="M0.487352246,2.0195922 C0.434013002,2.95443262 0.939893617,3.73206265 1.61814421,3.75732861 L1.61814421,3.75732861 C2.29583333,3.78259456 2.88874113,3.04595154 2.94208038,2.11111111 L2.94208038,2.11111111 C2.99541962,1.17627069 2.48897754,0.398079196 1.81128842,0.372813239 L1.81128842,0.372813239 C1.8000591,0.372251773 1.78882979,0.372251773 1.77760047,0.372251773 L1.77760047,0.372251773 C1.11338652,0.372251773 0.539568558,1.10047281 0.487352246,2.0195922 L0.487352246,2.0195922 Z" id="dwarf-with-pencil-path-19"></path>
    </defs>
    <g stroke="none" stroke-width="1" fill="none" fill-rule="evenodd">
        <g transform="translate(-56.000000, -165.000000)">
            <g transform="translate(55.000000, 163.000000)">
                <g id="dwarf-with-pencil-group-169" transform="translate(1.000000, 2.000000)">
                    <g id="dwarf-with-pencil-group-49" transform="translate(0.000000, 0.168440)">
                        <path d="M437.961173,211.972624 C405.688124,281.601673 260.210671,320.592098 291.07388,396.79984 L107.443709,416.74984 C107.443709,416.74984 49.3275148,419.782317 25.3327157,367.676613 C9.16025709,332.556933 -3.85114953,232.182583 1.2407831,167.612902 C11.5066223,37.4101241 81.9239687,-32.8146395 285.788242,16.1631383 C418.541197,47.7641135 455.236912,139.152766 437.961173,211.972624" id="dwarf-with-pencil-fill-1" fill="#E8EFFF"></path>
                        <path d="M115.199515,388.300822 C19.108026,363.888853 -36.073948,235.326678 26.8074054,134.893375 C89.6893203,34.4600709 231.041684,-6.60833924 315.008322,6.8236052 C398.976082,20.2549882 284.104125,156.06737 442.020851,273.11669 C404.682258,431.589267 211.291005,412.71279 115.199515,388.300822" id="dwarf-with-pencil-fill-3" fill="#B2D2F9"></path>
                        <path d="M317.997228,417.053481 L45.3646336,417.053481 C42.4349054,417.053481 40.0599054,414.678481 40.0599054,411.748191 L40.0599054,47.4782151 C40.0599054,44.5479255 42.4349054,42.1723641 45.3646336,42.1723641 L317.997228,42.1723641 C320.927518,42.1723641 323.302518,44.5479255 323.302518,47.4782151 L323.302518,411.748191 C323.302518,414.678481 320.927518,417.053481 317.997228,417.053481" id="dwarf-with-pencil-fill-5" fill="#A3A9CE"></path>
                        <path d="M40.0596247,133.499592 L40.0596247,404.127754 C40.0596247,416.794421 40.0596247,416.794421 52.9851271,417.053257 L310.376735,417.053257 C323.302798,417.053257 323.302798,416.528848 323.302798,404.127754 L323.302798,350.716643 L40.0596247,133.499592 Z" id="dwarf-with-pencil-fill-7" fill="#6471A9"></path>
                        <path d="M304.677184,399.757137 L58.6850148,399.757137 C57.4874084,399.757137 56.5166342,398.786362 56.5166342,397.588756 L56.5166342,61.6374261 C56.5166342,60.4398197 57.4874084,59.469607 58.6850148,59.469607 L304.677184,59.469607 C305.87479,59.469607 306.845564,60.4398197 306.845564,61.6374261 L306.845564,397.588756 C306.845564,398.786362 305.87479,399.757137 304.677184,399.757137" id="dwarf-with-pencil-fill-9" fill="#FAFAFF"></path>
                        <path d="M129.324982,106.698924 C129.471525,123.334031 118.020431,126.41367 104.404326,130.315296 C90.788221,134.215798 74.1256028,130.277116 70.8247459,115.203446 C67.522766,100.130337 78.0025236,90.5719444 90.9925946,86.8129314 C103.982104,83.0539184 129.17844,90.0632565 129.324982,106.698924" id="dwarf-with-pencil-fill-11" fill="#FFDFAB"></path>
                        <path d="M111.941442,93.8970567 L115.459025,94.834143 C115.795343,94.5842908 116.166472,94.3563357 116.421377,94.0037352 C116.670668,93.6225 116.75208,93.1570449 116.84023,92.7191017 C117.047411,91.5692199 117.271436,90.3547695 116.916028,89.232961 C116.803174,88.8376891 116.604415,88.4603842 116.411832,88.1122754 C116.125485,87.6041489 115.816678,87.1302719 115.501696,86.6283215 C115.286655,86.3139007 115.059261,85.9433333 114.786389,85.6412648 C114.594929,85.4419444 114.246259,85.6350887 114.306336,85.9214362 C114.538221,86.7406147 114.512394,87.6136939 114.232784,88.4199586 C113.886359,89.4800059 113.177228,90.3766667 112.299096,91.0397577 C111.991413,91.2839953 111.683729,91.5276714 111.428262,91.8802719 C110.663546,92.9386348 111.637128,93.8712293 111.941442,93.8970567" id="dwarf-with-pencil-fill-13" fill="#F54F71"></path>
                        <path d="M112.629574,105.300706 L115.133712,96.2785136 L111.622305,95.3700621 C111.59367,95.3756767 111.588056,95.347042 111.558859,95.3532181 L109.758239,105.304637 C110.639178,105.50901 111.511696,105.534837 112.429131,105.342255 C112.515035,105.324849 112.572305,105.312497 112.629574,105.300706" id="dwarf-with-pencil-fill-15" fill="#2379E2"></path>
                        <path d="M94.2396631,104.64003 C92.8073641,105.61305 92.1296749,107.121708 91.473883,106.148688 C90.818091,105.186897 90.8399882,102.705219 92.2717258,101.732199 C93.7040248,100.75974 95.3979669,100.748511 96.0543203,101.721531 C96.7101123,102.693989 95.6714007,103.667571 94.2396631,104.64003 M93.3323345,121.321176 C89.8344031,122.633322 86.0956028,121.277943 84.7727896,117.77945 C84.5981738,117.320733 84.4999173,116.861454 84.4342258,116.402175 C84.4229965,116.271353 84.4667908,116.150638 84.5656087,116.063611 C84.6638652,115.98669 84.7946868,115.964793 84.9154019,115.99792 C86.4998582,116.555455 89.1129196,117.265709 91.4632151,116.380278 C93.8135106,115.494846 95.3109397,113.242807 96.1306797,111.778505 C96.1963712,111.669019 96.305857,111.59266 96.4366785,111.59266 C96.5680615,111.59266 96.6882151,111.647122 96.7539066,111.756608 C97.0161111,112.138966 97.2345213,112.55445 97.4096986,113.013729 C98.7431797,116.511661 96.830266,120.009592 93.3323345,121.321176 M78.4220508,108.465857 C78.2906678,107.307553 79.5915839,106.214379 81.3079846,106.028534 C83.0350532,105.842689 84.6419681,107.711809 84.7727896,108.870674 C84.9041726,110.029539 83.4067435,109.318723 81.6903428,109.515798 C79.9632742,109.701643 78.5422045,109.624722 78.4220508,108.465857 M96.4479078,91.1833806 C96.2289362,90.8667139 95.879143,90.6589716 95.4967849,90.6045095 C95.2671454,90.571383 95.0375059,90.6045095 94.8297636,90.6808688 C94.6877128,90.735331 94.5456619,90.8116903 94.4255083,90.9105083 C91.8130083,93.0962943 89.3206619,94.812695 84.1063298,96.7806324 C78.8919976,98.7480083 75.8752423,99.1084693 72.4643381,99.1853901 C72.3110579,99.1853901 72.1583392,99.2185165 72.0050591,99.2724173 C71.7973168,99.3493381 71.6008038,99.480721 71.4475236,99.6553369 C71.195987,99.9501064 71.0651655,100.333026 71.1089598,100.715946 C71.3930615,103.273422 71.8742376,105.962281 72.8685934,108.586011 C77.4596986,120.77487 86.3471395,128.70052 94.8954551,125.486129 C103.443771,122.272299 104.897405,110.445024 100.3063,98.2561643 C99.3226123,95.632435 97.9127719,93.2933688 96.4479078,91.1833806" id="dwarf-with-pencil-fill-17" fill="#D67DEC"></path>
                        <path d="M117.9594,116.128685 C116.376067,116.553715 114.725919,115.60203 114.300889,114.018135 C113.876421,112.434241 114.828106,110.784654 116.412001,110.360186 C117.995334,109.935157 119.64492,110.886841 120.06995,112.470174 C120.494979,114.054631 119.542733,115.703655 117.9594,116.128685 M109.49362,121.522125 C107.909725,121.946593 106.260139,120.994908 105.835109,119.411575 C105.41008,117.82768 106.362326,116.178094 107.94622,115.753064 C109.529554,115.328035 111.17914,116.280281 111.60417,117.864176 C112.028638,119.447509 111.076953,121.097657 109.49362,121.522125 M124.549323,101.144288 C123.1232,95.8277689 116.035819,112.461752 106.119211,103.632704 C100.234489,98.4206176 106.479111,86.8937264 101.954258,88.1076152 C100.35745,88.5354521 98.8667583,89.1620479 97.4995892,89.9509072 C97.594477,90.0536554 97.6854344,90.1597725 97.7651625,90.2759959 C99.6297902,92.9614864 100.914424,95.3202039 101.804908,97.6952039 C104.192822,104.034152 105.009755,110.362432 104.104672,115.513319 C103.55219,118.653596 102.36469,121.302592 100.639306,123.334536 C104.022698,124.522036 107.787326,124.738762 111.513212,123.739353 C121.354022,121.099341 127.189335,110.985098 124.549323,101.144288" id="dwarf-with-pencil-fill-19" fill="#838BB7"></path>
                        <path d="M120.451185,113.284075 C120.451185,115.016197 119.046959,116.420423 117.314837,116.420423 C115.583277,116.420423 114.179051,115.016197 114.179051,113.284075 C114.179051,111.551953 115.583277,110.148289 117.314837,110.148289 C119.046959,110.148289 120.451185,111.551953 120.451185,113.284075" id="dwarf-with-pencil-fill-21" fill="#27C195"></path>
                        <path d="M111.912414,118.419521 C111.912414,120.151643 110.508189,121.555869 108.776067,121.555869 C107.044507,121.555869 105.640281,120.151643 105.640281,118.419521 C105.640281,116.6874 107.044507,115.283174 108.776067,115.283174 C110.508189,115.283174 111.912414,116.6874 111.912414,118.419521" id="dwarf-with-pencil-fill-23" fill="#FFC965"></path>
                        <path d="M204.512598,96.719208 C211.888011,111.361673 209.66573,125.348907 196.590316,133.871395 C183.514902,142.393883 169.995931,145.014805 159.295517,131.844504 C148.595103,118.674764 151.408608,96.4210697 166.443537,89.3415485 C181.478466,82.2625887 197.137184,82.0767435 204.512598,96.719208" id="dwarf-with-pencil-fill-25" fill="#FFDFAB"></path>
                        <path d="M170.74953,100.89292 L170.498555,106.3251 L168.626628,103.77773 C168.489631,103.590762 168.251008,103.50935 168.028106,103.572796 L166.963005,103.874864 L167.264512,104.939403 L167.962414,104.741767 L170.534489,108.241383 C170.672048,108.428351 170.910671,108.509202 171.133573,108.445757 C171.357036,108.378381 171.514246,108.177376 171.526037,107.943806 L171.837651,101.344338 L179.441581,99.1916785 L179.140074,98.126578 L171.152663,100.388162 C170.923585,100.452169 170.761321,100.65542 170.74953,100.89292" id="dwarf-with-pencil-fill-27" fill="#2379E2"></path>
                        <polygon id="dwarf-with-pencil-fill-29" fill="#2379E2" points="177.27904 101.120987 176.024725 103.37471 173.774932 102.113097 173.233118 103.08331 175.48628 104.337624 174.225228 106.586856 175.19544 107.129232 176.449755 104.875508 178.698986 106.137683 179.241362 105.166909 176.987639 103.912595 178.249252 101.663363"></polygon>
                        <path d="M182.109048,106.485062 L178.739131,107.408112 L176.568505,108.01281 L166.316141,110.878531 C166.316141,110.878531 166.239781,110.889199 166.087063,110.909412 C165.934905,110.930186 165.84844,110.864495 165.685615,110.80891 C165.588481,110.666297 165.414988,110.534914 165.394214,110.382196 L162.984965,101.776611 C162.85695,101.405482 163.04448,101.069164 163.415609,100.941711 L179.197849,96.4718824 C179.426927,96.4404403 179.589752,96.4960254 179.752577,96.552172 C179.84971,96.6942228 180.022642,96.8261673 180.043416,96.9783245 L181.2326,101.166297 L181.647524,102.508762 L182.539693,105.650163 C182.667707,106.02073 182.480177,106.356486 182.109048,106.485062 M179.597051,92.4529108 L161.12146,97.664997 C159.536442,98.1119238 158.606093,99.7744238 159.05302,101.358319 L168.344155,134.295582 C168.791643,135.880038 170.453582,136.81151 172.038038,136.364022 L190.51419,131.152497 C192.098647,130.70557 193.029557,129.04307 192.582069,127.458053 L183.290934,94.520789 C182.844007,92.9363327 181.181507,92.005984 179.597051,92.4529108" id="dwarf-with-pencil-fill-31" fill="#FB5C41"></path>
                        <path d="M170.753348,114.470059 C171.04531,115.509894 170.438927,116.589031 169.399654,116.880993 C168.35982,117.172394 167.280683,116.566572 166.98872,115.527299 C166.696758,114.487465 167.303141,113.407766 168.342976,113.116365 C169.382249,112.824403 170.461386,113.430225 170.753348,114.470059" id="dwarf-with-pencil-fill-33" fill="#FFC965"></path>
                        <path d="M177.281735,112.637603 C177.573697,113.677438 176.967314,114.756014 175.928041,115.048537 C174.888206,115.339938 173.809069,114.733555 173.517107,113.694282 C173.225145,112.654447 173.831528,111.57531 174.871362,111.28391 C175.910635,110.991386 176.989772,111.597769 177.281735,112.637603" id="dwarf-with-pencil-fill-35" fill="#FFC965"></path>
                        <path d="M183.810177,110.804642 C184.102139,111.844477 183.495757,112.923614 182.456483,113.215576 C181.416649,113.506977 180.337512,112.901155 180.04555,111.861882 C179.753587,110.822048 180.35997,109.742349 181.399805,109.450949 C182.439078,109.158986 183.518215,109.764808 183.810177,110.804642" id="dwarf-with-pencil-fill-37" fill="#FFC965"></path>
                        <path d="M172.700399,121.405564 C172.992361,122.445399 172.385978,123.524536 171.346705,123.816498 C170.306871,124.107899 169.227733,123.502077 168.935771,122.462804 C168.643809,121.42297 169.250192,120.343271 170.290027,120.051871 C171.3293,119.759908 172.408437,120.36573 172.700399,121.405564" id="dwarf-with-pencil-fill-39" fill="#FFC965"></path>
                        <path d="M179.228785,119.573165 C179.520748,120.612999 178.914365,121.691575 177.875092,121.983537 C176.835257,122.275499 175.75612,121.669116 175.464158,120.629843 C175.172196,119.590009 175.778579,118.510872 176.818413,118.219471 C177.857686,117.926947 178.936823,118.53333 179.228785,119.573165" id="dwarf-with-pencil-fill-41" fill="#FFC965"></path>
                        <path d="M174.647394,128.341126 C174.939356,129.38096 174.332973,130.460098 173.2937,130.75206 C172.253865,131.04346 171.174728,130.437639 170.882766,129.398366 C170.590804,128.358531 171.197187,127.278833 172.237021,126.987432 C173.276294,126.69547 174.355431,127.301291 174.647394,128.341126" id="dwarf-with-pencil-fill-43" fill="#FFC965"></path>
                        <path d="M181.175836,126.50867 C181.467798,127.548505 180.861415,128.62708 179.822142,128.919043 C178.782308,129.211005 177.703171,128.604622 177.411209,127.565349 C177.119246,126.525514 177.725629,125.446377 178.765464,125.154415 C179.804737,124.862453 180.883874,125.468836 181.175836,126.50867" id="dwarf-with-pencil-fill-45" fill="#FFC965"></path>
                        <path d="M186.717559,126.983502 L185.995514,127.185629 C185.155561,127.421445 184.275183,126.927355 184.039368,126.086841 L181.892884,118.442485 C181.657069,117.601971 182.15172,116.722154 182.991673,116.486339 L183.713717,116.283088 C184.55367,116.047272 185.434048,116.541362 185.670426,117.381876 L187.816348,125.026794 C188.052163,125.867308 187.558073,126.747125 186.717559,126.983502" id="dwarf-with-pencil-fill-47" fill="#FFC965"></path>
                    </g>
                    <g id="dwarf-with-pencil-group-62" transform="translate(154.964539, 75.966312)">
                        <g id="dwarf-with-pencil-group-52">
                            <mask id="dwarf-with-pencil-mask-2" fill="white">
                                <use xlink:href="#dwarf-with-pencil-path-1"></use>
                            </mask>
                            <g id="dwarf-with-pencil-clip-51"></g>
                            <path d="M47.241052,39.8674911 L38.9689775,29.5477512 L38.9689775,19.0219533 L32.6901064,19.0219533 L32.6901064,29.5477512 L24.4225236,39.8674911 C22.7061229,42.8337145 24.1086643,45.2558777 27.5291135,45.2558777 L44.1344622,45.2558777 C47.5543499,45.2558777 48.952961,42.8337145 47.241052,39.8674911" id="dwarf-with-pencil-fill-50" fill="#2379E2" mask="url(#dwarf-with-pencil-mask-2)"></path>
                        </g>
                        <g id="dwarf-with-pencil-group-55">
                            <mask id="dwarf-with-pencil-mask-4" fill="white">
                                <use xlink:href="#dwarf-with-pencil-path-3"></use>
                            </mask>
                            <g id="dwarf-with-pencil-clip-54"></g>
                            <path d="M30.4765839,10.5791371 L27.7506678,10.5791371 C27.7506678,12.8373522 29.5810461,14.668292 31.8398227,14.668292 L34.5657388,14.668292 C34.5657388,12.4095154 32.7353605,10.5791371 30.4765839,10.5791371" id="dwarf-with-pencil-fill-53" fill="#27C195" mask="url(#dwarf-with-pencil-mask-4)"></path>
                        </g>
                        <g id="dwarf-with-pencil-group-58">
                            <mask id="dwarf-with-pencil-mask-6" fill="white">
                                <use xlink:href="#dwarf-with-pencil-path-5"></use>
                            </mask>
                            <g id="dwarf-with-pencil-clip-57"></g>
                            <path d="M41.3812589,5.26935579 C38.3701182,5.26935579 35.9288652,7.71117021 35.9288652,10.7217494 L35.9288652,17.5632092 L37.292104,17.5632092 L37.292104,10.7217494 L40.0180201,10.7217494 C43.0291608,10.7217494 45.4704137,8.28049645 45.4704137,5.26935579 L41.3812589,5.26935579 Z" id="dwarf-with-pencil-fill-56" fill="#27C195" mask="url(#dwarf-with-pencil-mask-6)"></path>
                        </g>
                        <g id="dwarf-with-pencil-group-61">
                            <mask id="dwarf-with-pencil-mask-8" fill="white">
                                <use xlink:href="#dwarf-with-pencil-path-7"></use>
                            </mask>
                            <g id="dwarf-with-pencil-clip-60"></g>
                            <path d="M43.2619444,42.6923936 L28.4341962,42.6923936 C27.1927955,42.6923936 26.6801773,41.8878132 27.3056501,40.9018794 L30.6514243,35.5881678 C31.393682,34.9649409 32.7878014,34.3130792 34.3301478,36.1496336 C35.4817139,37.5145567 36.48,37.8199941 37.1908156,37.7829374 C37.7034338,37.7621631 38.1801182,37.5145567 38.5080142,37.1473582 C38.953818,36.6358629 40.2036407,35.5797459 41.8947754,36.9328783 L44.3904905,40.9018794 C45.0114716,41.8878132 44.5027837,42.6923936 43.2619444,42.6923936" id="dwarf-with-pencil-fill-59" fill="#FFC965" mask="url(#dwarf-with-pencil-mask-8)"></path>
                        </g>
                    </g>
                    <g id="dwarf-with-pencil-group-71" transform="translate(229.639480, 75.966312)">
                        <path d="M59.750396,36.4416519 C47.5143735,46.3762264 49.9404669,46.6985077 40.4135165,58.7548611 C30.8860047,70.8112145 19.0070745,68.2419474 3.31579196,40.7834663 C-12.3749291,13.3255467 41.0608865,-9.68444149 44.6643735,4.28594858 C48.268422,18.2563387 71.9864184,26.5070774 59.750396,36.4416519" id="dwarf-with-pencil-fill-63" fill="#FFDFAB"></path>
                        <path d="M18.6975946,14.8811998 C11.9695508,18.8058452 7.57608156,26.0554905 7.57608156,33.4584161 C7.57608156,36.9759988 8.52608156,40.4160993 10.3727423,43.6473345 C14.1985697,50.3439362 21.19724,53.8632033 28.3020272,54.1686407 L28.3020272,57.2173995 L30.3244267,57.2173995 L30.3244267,54.1529196 C33.3569031,53.9929019 36.6611288,53.1265603 39.4235402,51.5145922 C39.8805733,51.2484574 40.0546277,50.5926655 39.7907388,50.1345095 C39.5268499,49.6774764 38.8716194,49.4994917 38.4123404,49.7611348 C35.7178664,51.3332388 32.2429551,52.1619622 29.313227,52.1619622 C22.5004019,52.1619622 15.7409161,48.963292 12.1261998,42.6366962 C10.4367494,39.6800177 9.59848109,36.613292 9.59848109,33.4584161 C9.59848109,26.8634397 13.588818,20.2044563 19.7087943,16.6340957 C20.1124882,16.4145626 20.3258452,15.8963298 20.1939007,15.4555792 C19.8502837,14.7711525 19.3163298,14.6072045 18.6975946,14.8811998" id="dwarf-with-pencil-fill-65" fill="#838BB7"></path>
                        <path d="M44.7596543,33.4144533 C44.7596543,42.1396306 37.6868706,49.2124143 28.9622547,49.2124143 C20.2376389,49.2124143 13.1654167,42.1396306 13.1654167,33.4144533 C13.1654167,24.6898375 20.2376389,17.6170538 28.9622547,17.6170538 C37.6868706,17.6170538 44.7596543,24.6898375 44.7596543,33.4144533" id="dwarf-with-pencil-fill-67" fill="#2379E2"></path>
                        <path d="M36.4725887,59.3778635 C36.4725887,58.8265041 35.419279,58.35375 34.7062175,58.1768883 C34.3884279,57.6350739 34.0049468,57.1449143 33.7713771,57.1449143 L25.2752778,57.1449143 C25.0405851,57.1449143 24.6672104,57.6390041 24.3600887,58.1830644 C23.6475887,58.3638564 22.6178605,58.8321188 22.6178605,59.3778635 C22.6178605,60.0791342 22.5600296,60.6529521 23.1024054,60.6529521 L24.4785579,60.6529521 L34.6124527,60.6529521 L35.9880437,60.6529521 C36.5309811,60.6529521 36.4725887,60.0791342 36.4725887,59.3778635" id="dwarf-with-pencil-fill-69" fill="#838BB7"></path>
                    </g>
                    <g id="dwarf-with-pencil-group-84" transform="translate(233.569740, 77.089243)">
                        <g id="dwarf-with-pencil-group-74">
                            <mask id="dwarf-with-pencil-mask-10" fill="white">
                                <use xlink:href="#dwarf-with-pencil-path-9"></use>
                            </mask>
                            <g id="dwarf-with-pencil-clip-73"></g>
                            <path d="M51.7790987,36.4526566 L30.5730999,36.4526566 C29.6803694,36.4526566 29.77638,35.6413387 29.77638,34.6486673 C29.77638,33.6565573 32.5736022,32.8446779 33.4668942,32.8446779 L48.8858658,32.8446779 C49.7785963,32.8446779 52.57638,33.6565573 52.57638,34.6486673 C52.57638,35.6413387 52.6723907,36.4526566 51.7790987,36.4526566" id="dwarf-with-pencil-fill-72" fill="#F54F71" mask="url(#dwarf-with-pencil-mask-10)"></path>
                        </g>
                        <g id="dwarf-with-pencil-group-77">
                            <mask id="dwarf-with-pencil-mask-12" fill="white">
                                <use xlink:href="#dwarf-with-pencil-path-11"></use>
                            </mask>
                            <g id="dwarf-with-pencil-clip-76"></g>
                            <path d="M45.9111082,30.3702985 C45.9111082,30.7492878 45.6006176,31.0592169 45.2216283,31.0592169 L44.6702689,31.0592169 C44.2912796,31.0592169 43.9813505,30.7492878 43.9813505,30.3702985 L43.9813505,12.8986082 C43.9813505,12.5196188 44.2912796,12.2096897 44.6702689,12.2096897 L45.2216283,12.2096897 C45.6006176,12.2096897 45.9111082,12.5196188 45.9111082,12.8986082 L45.9111082,30.3702985 Z M42.1004403,30.3702985 C42.1004403,30.7492878 41.7905112,31.0592169 41.4115219,31.0592169 L40.8601625,31.0592169 C40.4811732,31.0592169 40.1712441,30.7492878 40.1712441,30.3702985 L40.1712441,12.8986082 C40.1712441,12.5196188 40.4811732,12.2096897 40.8601625,12.2096897 L41.4115219,12.2096897 C41.7905112,12.2096897 42.1004403,12.5196188 42.1004403,12.8986082 L42.1004403,30.3702985 Z M38.3105467,30.3702985 C38.3105467,30.7492878 38.0006176,31.0592169 37.6216283,31.0592169 L37.0702689,31.0592169 C36.6912796,31.0592169 36.3813505,30.7492878 36.3813505,30.3702985 L36.3813505,12.8986082 C36.3813505,12.5196188 36.6912796,12.2096897 37.0702689,12.2096897 L37.6216283,12.2096897 C38.0006176,12.2096897 38.3105467,12.5196188 38.3105467,12.8986082 L38.3105467,30.3702985 Z M34.3056117,8.96666371 L34.3056117,32.6947665 C34.3056117,33.4521838 34.9254699,34.0726034 35.6828871,34.0726034 L46.6696483,34.0726034 C47.4265041,34.0726034 48.0469238,33.4521838 48.0469238,32.6947665 L48.0469238,8.96666371 L34.3056117,8.96666371 Z" id="dwarf-with-pencil-fill-75" fill="#F54F71" mask="url(#dwarf-with-pencil-mask-12)"></path>
                        </g>
                        <g id="dwarf-with-pencil-group-80">
                            <mask id="dwarf-with-pencil-mask-14" fill="white">
                                <use xlink:href="#dwarf-with-pencil-path-13"></use>
                            </mask>
                            <g id="dwarf-with-pencil-clip-79"></g>
                            <path d="M55.4357565,10.5100768 C55.2729314,9.76164303 54.8827128,9.07721631 54.3285461,8.49160757 C53.7755024,7.93800236 53.0590721,7.54722222 52.3426418,7.35183215 C51.9844267,7.25413712 51.5936466,7.18900709 51.2354314,7.15644208 L50.9749113,7.15644208 L50.7469563,7.15644208 L50.2910461,7.15644208 L48.4679669,7.12387707 L44.8206856,7.09131206 L41.1739657,7.05930851 C38.7315898,7.05930851 36.321779,7.09131206 33.8794031,7.12387707 L32.0563239,7.15644208 L31.6004137,7.15644208 L31.1125,7.15644208 C30.7211584,7.18900709 30.3635047,7.25413712 30.0047281,7.35183215 C29.2888593,7.54722222 28.5718676,7.93800236 28.0188239,8.49160757 C27.4652187,9.04521277 27.0744385,9.76164303 26.9116135,10.5100768 C26.7162234,11.2590721 26.7813534,12.0411939 27.0093085,12.7570626 C27.1395686,13.1152778 27.3023936,13.4734929 27.5303487,13.799143 C27.7583038,14.1242317 28.0513889,14.3847518 28.377039,14.6132683 C29.0283392,15.0366135 29.8093381,15.2645686 30.5583333,15.1668735 C30.9496749,15.133747 31.3073286,15.0366135 31.6329787,14.873227 C31.9911939,14.7104019 32.316844,14.4830083 32.5447991,14.1899232 C33.0332742,13.603753 33.2612293,12.8221927 33.1635343,12.1057624 C33.0984043,11.7475473 33.0007092,11.3893322 32.7727541,11.096247 C32.5773641,10.7711584 32.2517139,10.5432033 31.9260638,10.4123818 C31.2747636,10.1198582 30.4932033,10.1849882 29.9401596,10.6403369 C29.8750296,10.7060284 29.8093381,10.7711584 29.744208,10.8031619 C29.5168144,11.0316785 29.3539894,11.3573286 29.3539894,11.7149823 C29.3539894,12.4314125 29.9401596,13.0175827 30.6560284,13.0175827 C31.3730201,13.0175827 31.9586288,12.4314125 31.9586288,11.7149823 C31.9586288,11.4870272 31.8934988,11.2921986 31.7958038,11.096247 C32.0888889,11.3893322 32.2517139,11.7806738 32.2517139,12.1708924 C32.2517139,12.6593676 32.0563239,13.1152778 31.6981087,13.4083629 C31.5358452,13.5711879 31.3398936,13.668883 31.1445035,13.734013 C30.9165485,13.799143 30.6891548,13.831708 30.4611998,13.831708 C30.0047281,13.831708 29.5493794,13.636318 29.2231678,13.3757979 C29.0603428,13.2455378 28.9306442,13.0501478 28.8003842,12.8873227 C28.7026891,12.6919326 28.6049941,12.4965426 28.5718676,12.2685875 C28.4741726,11.8126773 28.4741726,11.3573286 28.6369976,10.9339835 C28.7678191,10.5100768 29.0283392,10.1198582 29.3539894,9.82621158 C29.6796395,9.53368794 30.0698582,9.33829787 30.5263298,9.24004137 C30.7537234,9.17547281 30.9816785,9.17547281 31.210195,9.17547281 L32.0888889,9.20803783 L33.9125296,9.24004137 C36.3549054,9.27316785 38.7641548,9.30517139 41.1739657,9.30517139 L44.8206856,9.30517139 L48.4679669,9.27316785 L50.2910461,9.24004137 L51.1703014,9.20803783 C51.3982565,9.20803783 51.6262116,9.24004137 51.8541667,9.27316785 C52.3100768,9.37086288 52.700857,9.56569149 53.0265071,9.85933806 C53.3521572,10.1518617 53.6126773,10.5100768 53.7423759,10.965987 C53.8731974,11.3893322 53.9052009,11.8452423 53.8080674,12.3011525 C53.7103723,12.7570626 53.4818558,13.1152778 53.1562057,13.4083629 C52.8305556,13.701448 52.3752069,13.864273 51.9187352,13.864273 C51.6913416,13.864273 51.4633865,13.831708 51.2354314,13.766578 C51.0400414,13.701448 50.8446513,13.5711879 50.6818262,13.4409279 C50.3561761,13.1478428 50.128221,12.6919326 50.128221,12.2040189 C50.128221,11.8126773 50.2584811,11.4550236 50.5190012,11.1613771 C50.4213061,11.3242021 50.3887411,11.5195922 50.3887411,11.7149823 C50.3887411,12.4314125 50.9749113,13.0175827 51.6913416,13.0175827 C52.1798168,13.0175827 52.6031619,12.7570626 52.8305556,12.3337175 L52.8305556,12.366844 C52.8305556,12.3337175 52.863682,12.3011525 52.863682,12.3011525 C52.896247,12.2685875 52.896247,12.2040189 52.9282506,12.1708924 C52.9933806,12.0411939 53.0265071,11.8783688 53.0265071,11.7149823 C53.0265071,11.4218972 52.9282506,11.1293735 52.765987,10.9339835 C52.700857,10.8031619 52.6031619,10.7060284 52.4729019,10.6083333 C51.9187352,10.1849882 51.1377364,10.0867317 50.4864362,10.3803783 C50.1607861,10.5432033 49.8677009,10.7711584 49.6397459,11.063682 C49.4443558,11.3893322 49.3146572,11.7149823 49.2489657,12.0731974 C49.1518322,12.7901891 49.3792258,13.5711879 49.8677009,14.1573582 C50.128221,14.4504433 50.4213061,14.6783983 50.7795213,14.8412234 C51.1377364,15.0040485 51.4953901,15.1017435 51.8541667,15.133747 C52.6031619,15.1994385 53.3847222,15.0040485 54.0360225,14.5807033 C54.6867612,14.1573582 55.1752364,13.4409279 55.4031915,12.7244976 C55.5660165,12.0731974 55.631708,11.2590721 55.4357565,10.5100768" id="dwarf-with-pencil-fill-78" fill="#F54F71" mask="url(#dwarf-with-pencil-mask-14)"></path>
                        </g>
                        <g id="dwarf-with-pencil-group-83">
                            <mask id="dwarf-with-pencil-mask-16" fill="white">
                                <use xlink:href="#dwarf-with-pencil-path-15"></use>
                            </mask>
                            <g id="dwarf-with-pencil-clip-82"></g>
                            <path d="M34.2206619,7.20214539 L48.2034043,7.20214539 C48.9507151,7.20214539 50.5598759,4.58066194 50.5598759,3.8934279 L50.5598759,3.48636525 C50.5598759,2.79913121 50.0893676,2.23710402 49.5144267,2.23710402 L32.8372104,2.23710402 C32.262831,2.23710402 31.7928842,2.79913121 31.7928842,3.48636525 L31.7928842,3.8934279 C31.7928842,4.58066194 33.4733511,7.20214539 34.2206619,7.20214539" id="dwarf-with-pencil-fill-81" fill="#F54F71" mask="url(#dwarf-with-pencil-mask-16)"></path>
                        </g>
                    </g>
                    <g id="dwarf-with-pencil-group-127" transform="translate(79.728132, 93.371749)">
                        <path d="M169.860168,3.08216608 C170.030854,3.82105496 170.456445,4.81597222 171.22453,5.6402039 C171.906711,6.35045804 172.843797,6.89058806 174.152012,6.97593085 C175.117733,7.03263889 175.884696,7.03263889 176.566876,7.06127364 C179.438212,7.14605496 181.086114,7.17468972 182.87719,9.07918144 C183.019241,9.22123227 183.473466,8.87986111 183.615517,8.79507979 C184.013596,8.48234338 184.439749,7.97084811 184.837828,7.28866726 C185.576717,5.95237884 186.088212,4.07652187 185.918088,1.8598552 C183.814837,0.808791371 181.427485,0.21195331 178.898082,0.21195331 C175.543886,0.21195331 172.418206,1.29221336 169.860168,3.08216608 M166.392556,17.5488918 C166.392556,15.1042701 168.297048,12.518159 170.883159,12.518159 C171.622048,12.518159 172.389572,12.7455526 173.185168,13.2284131 C174.54953,14.0526448 175.032391,14.9335845 175.487178,15.7864509 C175.941965,16.5820479 176.368679,17.3495715 178.585346,17.8897015 C180.461203,18.315854 181.626244,19.4808954 182.251155,20.8733304 C182.592527,21.6414155 182.762651,22.4650857 182.791285,23.2893174 C182.848555,24.1135491 182.762651,24.909146 182.592527,25.6199616 C182.251155,27.1258126 181.455559,28.3767583 180.489837,28.7748375 C179.83573,29.0870124 179.040133,28.7748375 178.756031,28.0926566 C178.386587,27.2397902 178.016581,26.5295361 174.69102,26.5009013 C172.276155,26.5009013 170.257686,25.449276 168.808543,23.8861554 C167.274057,22.2090573 166.392556,19.8789746 166.392556,17.5488918 M193.647787,10.3868351 C193.278904,10.5288859 192.880824,10.7843528 192.426037,11.1251625 C191.658514,11.6939273 190.919625,12.4895242 190.380056,13.3418292 C190.066758,13.8538859 189.839926,14.3367465 189.583898,14.8201684 C188.930352,16.0705526 188.276806,17.2928635 187.167911,18.2872193 C187.594625,18.3725621 188.134755,18.315854 188.731031,18.2305112 C189.499116,18.1451684 190.322787,18.0317524 191.289069,18.1165337 C192.170009,18.2024379 192.909459,17.9744829 193.477101,17.5764037 C194.103135,17.1508126 194.529288,16.5534131 194.670777,15.9852098 C194.670777,14.0526448 194.301894,12.1767878 193.647787,10.3868351" id="dwarf-with-pencil-fill-85" fill="#27C195"></path>
                        <path d="M194.825068,253.255739 L1.77125591,253.255739 C0.915020686,253.255739 0.220487589,252.561767 0.220487589,251.70497 C0.220487589,250.848735 0.915020686,250.154202 1.77125591,250.154202 L194.825068,250.154202 C195.681303,250.154202 196.375836,250.848735 196.375836,251.70497 C196.375836,252.561767 195.681303,253.255739 194.825068,253.255739" id="dwarf-with-pencil-fill-87" fill="#F4D7E0"></path>
                        <path d="M194.825068,260.095851 L1.77125591,260.095851 C0.915020686,260.095851 0.220487589,259.401879 0.220487589,258.545083 C0.220487589,257.688848 0.915020686,256.994314 1.77125591,256.994314 L194.825068,256.994314 C195.681303,256.994314 196.375836,257.688848 196.375836,258.545083 C196.375836,259.401879 195.681303,260.095851 194.825068,260.095851" id="dwarf-with-pencil-fill-89" fill="#F4D7E0"></path>
                        <path d="M194.825068,266.935963 L1.77125591,266.935963 C0.915020686,266.935963 0.220487589,266.24143 0.220487589,265.384634 C0.220487589,264.528398 0.915020686,263.834427 1.77125591,263.834427 L194.825068,263.834427 C195.681303,263.834427 196.375836,264.528398 196.375836,265.384634 C196.375836,266.24143 195.681303,266.935963 194.825068,266.935963" id="dwarf-with-pencil-fill-91" fill="#F4D7E0"></path>
                        <path d="M194.825068,273.775514 L1.77125591,273.775514 C0.915020686,273.775514 0.220487589,273.081543 0.220487589,272.224746 C0.220487589,271.368511 0.915020686,270.674539 1.77125591,270.674539 L194.825068,270.674539 C195.681303,270.674539 196.375836,271.368511 196.375836,272.224746 C196.375836,273.081543 195.681303,273.775514 194.825068,273.775514" id="dwarf-with-pencil-fill-93" fill="#F4D7E0"></path>
                        <polygon id="dwarf-with-pencil-fill-95" fill="#997659" points="265.698493 319.314539 271.938061 319.314539 271.938061 311.625266 265.698493 311.625266"></polygon>
                        <polygon id="dwarf-with-pencil-fill-97" fill="#997659" points="314.299415 319.314595 320.538983 319.314595 318.217323 311.625322 311.977193 311.625322"></polygon>
                        <path d="M319.984817,317.573153 L316.719332,318.579861 L313.686856,317.573153 L312.088363,323.812722 L336.197139,323.812722 C335.101158,319.31482 331.449947,321.201345 326.756655,319.822946 C322.06224,318.444548 319.984817,317.573153 319.984817,317.573153" id="dwarf-with-pencil-fill-98" fill="#090F0C"></path>
                        <path d="M249.940845,70.123026 C250.685349,70.7513061 251.710024,75.3283747 251.710024,75.3283747 L246.300301,77.5063002 C245.270012,77.953227 244.118446,78.0380083 243.033694,77.7460461 C240.648026,77.1042908 239.097819,74.8045272 239.39708,72.3520449 L239.746874,69.4908156 C239.746874,69.4908156 249.196342,69.4941844 249.940845,70.123026" id="dwarf-with-pencil-fill-99" fill="#784931"></path>
                        <path d="M247.284888,77.0788564 L251.975934,77.7621602 L254.544639,73.3608304 C255.046028,72.5657949 254.807967,71.5152926 254.013493,71.0139037 C253.218457,70.5130762 252.167955,70.7505762 251.666566,71.5450502 L247.284888,77.0788564 Z" id="dwarf-with-pencil-fill-100" fill="#997659"></path>
                        <polygon id="dwarf-with-pencil-fill-101" fill="#00B272" points="245.582917 96.6193794 235.912231 99.0640012 232.454164 127.064858 243.774436 127.526383"></polygon>
                        <path d="M377.607426,119.187157 L360.703939,117.059202 L364.572438,86.3284988 L381.476486,88.4564539 C389.962479,89.5243617 395.975777,97.2697813 394.907308,105.755774 C393.8394,114.241767 386.093419,120.255065 377.607426,119.187157" id="dwarf-with-pencil-fill-102" fill="#EFA7A3"></path>
                        <polygon id="dwarf-with-pencil-fill-103" fill="#FFC965" points="358.644258 116.799805 179.3093 93.6668558 183.177798 62.9350296 362.513319 86.0691017"></polygon>
                        <polygon id="dwarf-with-pencil-fill-104" fill="#FFF1DC" points="147.360384 74.0357683 179.308907 93.6668558 183.177967 62.9350296"></polygon>
                        <polygon id="dwarf-with-pencil-fill-105" fill="#FCE0BB" points="147.360384 74.0357683 179.308907 93.6668558 181.378469 78.2894326"></polygon>
                        <polygon id="dwarf-with-pencil-fill-106" fill="#00217D" points="158.028233 70.7294651 147.360384 74.0359368 156.875544 79.8824793"></polygon>
                        <polygon id="dwarf-with-pencil-fill-107" fill="#FFB031" points="368.413425 118.029639 179.308963 93.6665189 181.378525 78.2896572 369.360056 102.091312"></polygon>
                        <polygon id="dwarf-with-pencil-fill-108" fill="#A3A9CE" points="373.48857 118.668419 358.644539 116.799861 362.513038 86.0685963 377.35763 87.9377157"></polygon>
                        <path d="M310.137775,191.238425 L312.109081,186.11898 L318.772556,185.574359 C319.998236,185.437923 321.086356,186.177934 321.203703,187.227875 C321.320488,188.278378 320.421581,189.239607 319.196463,189.376605 L310.137775,191.238425 Z" id="dwarf-with-pencil-fill-109" fill="#784931"></path>
                        <path d="M306.223404,185.482335 L309.576478,191.799947 L317.548168,189.715225 L309.803871,177.379261 L307.645035,178.440431 C305.307654,179.992323 304.670952,183.145514 306.223404,185.482335" id="dwarf-with-pencil-fill-110" fill="#997659"></path>
                        <polygon id="dwarf-with-pencil-fill-111" fill="#00B272" points="313.253236 184.329758 341.702704 154.522665 327.273035 149.352128 309.742952 177.379374"></polygon>
                        <path d="M330.714595,153.239716 C332.229991,156.493972 336.096806,157.903812 339.351622,156.387293 C342.605878,154.871897 344.015157,151.005644 342.499199,147.750827 C340.983803,144.496572 337.116989,143.087293 333.862733,144.602689 C330.608478,146.118085 329.199199,149.9849 330.714595,153.239716" id="dwarf-with-pencil-fill-112" fill="#00B272"></path>
                        <path d="M332.911667,155.835934 L341.702535,146.467317 L311.013381,110.085461 C308.384598,106.512293 303.201147,106.096809 300.036726,109.205083 C296.872305,112.312796 297.182796,123.307979 300.7088,126.000207 L332.911667,155.835934 Z" id="dwarf-with-pencil-fill-113" fill="#00B272"></path>
                        <polygon id="dwarf-with-pencil-fill-114" fill="#997659" points="282.677497 112.784034 295.263874 113.849134 296.953886 93.8985727 284.366947 92.8329108"></polygon>
                        <path d="M237.510219,122.82568 C234.387908,123.035106 232.026944,125.735195 232.236371,128.856383 C232.445236,131.978694 235.145325,134.339096 238.267636,134.13023 C241.388824,133.921365 243.749787,131.220715 243.540922,128.099527 C243.331495,124.977778 240.631968,122.616814 237.510219,122.82568" id="dwarf-with-pencil-fill-115" fill="#00B272"></path>
                        <path d="M233.942946,123.658053 L239.680003,133.853147 L274.752521,125.974099 C279.050541,124.879802 281.381746,114.426433 279.689489,110.326611 C277.996108,106.226788 273.064193,104.577763 269.245665,106.834294 L233.942946,123.658053 Z" id="dwarf-with-pencil-fill-116" fill="#00B272"></path>
                        <path d="M306.430697,181.408395 C314.90883,164.483011 310.249226,114.634962 310.249226,114.634962 C311.144764,111.070777 308.742252,107.518945 305.100585,107.025978 L273.815715,105.89294 C270.174048,105.399412 266.911933,108.182036 266.82659,111.856268 C266.82659,111.856268 247.284775,176.644359 261.411814,181.408395 C268.401501,183.764867 297.952565,198.33378 306.430697,181.408395" id="dwarf-with-pencil-fill-117" fill="#039157"></path>
                        <polygon id="dwarf-with-pencil-fill-118" fill="#273049" points="276.509066 181.408395 283.720532 203.870393 274.898783 315.107982 262.044025 315.107982 260.425881 193.018384 261.411814 181.408395"></polygon>
                        <polygon id="dwarf-with-pencil-fill-119" fill="#3D4564" points="276.509066 181.408395 283.545916 208.992645 288.612021 208.992645 311.485012 315.107982 322.018109 315.107982 312.56078 199.615606 306.430697 181.408395"></polygon>
                        <path d="M306.582012,77.5383599 C306.277137,74.5092524 305.154205,71.567172 303.247467,69.2629167 C301.483904,67.1321543 299.09206,65.5387145 296.464962,64.6824793 C295.175836,64.2619415 293.955771,64.0339864 292.632958,64.172107 C290.995724,64.343354 289.32031,64.5258304 287.76112,63.8301743 C285.561859,62.8582772 274.823265,76.1464864 276.719897,77.1919356 C276.642414,77.6826566 276.57953,78.1789923 276.555387,78.6871188 C276.151132,87.0013032 282.56307,94.0679108 290.876693,94.4727275 C296.698531,94.7557063 302.29073,91.5441223 304.98352,86.3735845 C306.366971,83.7172902 306.888573,80.5843115 306.582012,77.5383599" id="dwarf-with-pencil-fill-120" fill="#3D4564"></path>
                        <path d="M299.512148,86.6857033 C299.247698,88.2505083 300.302131,89.7339007 301.866936,89.9977896 C303.432302,90.26224 304.915694,89.2078073 305.180145,87.6424409 C305.444034,86.0776359 304.389601,84.5942435 302.824235,84.3303546 C301.25943,84.0659043 299.776599,85.1203369 299.512148,86.6857033" id="dwarf-with-pencil-fill-121" fill="#997659"></path>
                        <path d="M287.247603,70.6559693 C280.572337,70.5565898 277.989595,76.1661939 277.989595,76.1661939 C277.988472,76.1690012 277.619589,78.1375 277.619589,78.1408688 L277.323135,79.8926418 C277.323697,79.9734929 277.320889,80.0526596 277.325381,80.1357565 L277.291693,80.0796099 L276.466339,84.967169 C275.328248,91.7058806 279.620092,98.3934988 286.340275,99.6365839 C293.151415,100.896513 299.650381,96.3334811 300.799702,89.5285165 L301.810901,83.5399232 C301.811463,83.5359929 301.811463,83.5315012 301.810901,83.5275709 C301.810901,83.5275709 303.713709,71.7923759 287.247603,70.6559693" id="dwarf-with-pencil-fill-122" fill="#997659"></path>
                        <path d="M289.917317,70.9548375 C291.571395,71.20862 293.23221,71.6617228 294.788032,72.2737204 C295.955319,72.7329994 297.079374,73.3073788 298.028812,74.1372252 C301.117435,76.8373138 298.366814,82.6271483 297.302837,85.6455881 C297.042878,86.383354 296.739125,87.2614864 297.203457,87.8914509 C297.704846,88.5736318 298.818794,88.4501093 299.46841,87.907172 C300.118026,87.3653576 300.457151,86.5484249 300.89341,85.8224498 C301.329108,85.0964746 301.979285,84.3862204 302.824291,84.3300739 C302.824291,84.3300739 302.332447,70.6376093 302.331885,70.6246956 C302.327955,70.5241933 293.724616,70.3355408 293.066017,70.3136436 C291.732535,70.2687264 289.917317,70.9548375 289.917317,70.9548375" id="dwarf-with-pencil-fill-123" fill="#3D4564"></path>
                        <path d="M248.371043,69.6125414 C248.371043,69.6125414 246.363242,69.6035579 243.955115,69.5496572 C241.546427,69.4957565 240.411144,69.0011052 239.21466,68.8287352 C238.018738,68.6569267 236.13109,72.0925355 235.853726,73.4737411 C235.519093,75.1401714 235.773437,76.981779 236.679081,76.702169 C237.583602,76.4225591 238.844093,74.9694858 238.844093,74.9694858 C238.844093,74.9694858 239.662148,76.4113298 240.83898,76.3787648 C241.516108,76.3602364 241.977633,74.458552 241.977633,74.458552 C241.977633,74.458552 242.490813,75.2659397 244.486262,75.5107388 C245.407066,75.6235934 246.748407,75.8796217 249.443443,74.368156 C251.18904,73.3895213 248.371043,69.6125414 248.371043,69.6125414" id="dwarf-with-pencil-fill-124" fill="#997659"></path>
                        <path d="M265.993655,317.573153 L269.25914,318.579861 L272.291616,317.573153 L273.889548,323.812722 L249.781333,323.812722 C250.877314,319.31482 254.528525,321.201345 259.221817,319.822946 C263.915671,318.444548 265.993655,317.573153 265.993655,317.573153" id="dwarf-with-pencil-fill-125" fill="#090F0C"></path>
                        <path d="M283.874991,99.0083599 C283.874991,99.0083599 290.842219,102.443407 294.455813,99.4771838" id="dwarf-with-pencil-fill-126" fill="#784931"></path>
                    </g>
                    <g id="dwarf-with-pencil-group-130" transform="translate(370.567376, 171.976950)">
                        <mask id="dwarf-with-pencil-mask-18" fill="white">
                            <use xlink:href="#dwarf-with-pencil-path-17"></use>
                        </mask>
                        <g id="dwarf-with-pencil-clip-129"></g>
                        <polygon id="dwarf-with-pencil-fill-128" fill="#3D4564" mask="url(#dwarf-with-pencil-mask-18)" points="-6.04024823 9.40118203 8.73472222 9.40118203 8.73472222 -5.27160165 -6.04024823 -5.27160165"></polygon>
                    </g>
                    <g id="dwarf-with-pencil-group-133" transform="translate(361.022459, 171.976950)">
                        <mask id="dwarf-with-pencil-mask-20" fill="white">
                            <use xlink:href="#dwarf-with-pencil-path-19"></use>
                        </mask>
                        <g id="dwarf-with-pencil-clip-132"></g>
                        <polygon id="dwarf-with-pencil-fill-131" fill="#3D4564" mask="url(#dwarf-with-pencil-mask-20)" points="-5.67304965 9.40118203 9.1019208 9.40118203 9.1019208 -5.27160165 -5.67304965 -5.27160165"></polygon>
                    </g>
                    <g id="dwarf-with-pencil-group-168" transform="translate(79.728132, 155.694444)">
                        <path d="M279.369566,9.20786939 C279.215163,9.51442967 280.101717,6.44040485 282.046634,6.38762707 C284.082509,6.33204196 296.734577,7.03780437 297.381947,6.26129728 C299.525624,8.74915189 301.091551,18.6118587 301.212828,18.5894001 C301.498053,18.5388682 301.531741,17.5714628 301.559814,17.3648434 C301.764749,15.9106472 301.819211,14.4182713 301.818088,12.9545301 C301.815281,10.2499498 302.672077,5.04460106 297.335346,1.80045213 C294.053017,-0.194997045 287.268265,-0.39375591 283.491847,0.735913121 C280.860819,1.52308806 278.338715,3.57299941 277.400505,5.96147459 C276.371339,8.58408097 276.397728,10.6328694 276.736853,15.8264273 C276.773348,16.3901389 276.845777,16.9544119 276.93112,17.5125089 C276.987828,17.8841992 277.040044,18.2648729 277.138301,18.6287027 C277.673378,20.6073079 277.72391,11.5452512 279.369566,9.20786939" id="dwarf-with-pencil-fill-134" fill="#3D4564"></path>
                        <path d="M299.349323,4.7770065 C298.936646,8.56802305 293.57521,11.5028044 289.593856,11.5028044 L290.754406,10.4972193 C286.279524,11.7464805 283.781002,10.8952985 283.788301,10.8964214 C283.949441,10.9267405 285.642822,10.2018883 285.642822,10.2018883 C283.098821,10.272633 280.527869,10.3068824 278.557686,8.61574764 L281.40151,3.97860225 L299.349323,4.7770065 Z" id="dwarf-with-pencil-fill-136" fill="#3D4564"></path>
                        <path d="M279.547213,14.3597104 C279.205281,13.9077305 280.801528,13.5691667 282.441008,13.4619267 C285.190505,13.2833806 286.764855,14.4091194 285.440358,14.4512293 C284.449932,14.4826714 279.647716,14.4922163 279.547213,14.3597104" id="dwarf-with-pencil-fill-138" fill="#3D4564"></path>
                        <path d="M295.983224,14.9381885 C296.344808,14.4991223 294.763159,14.103289 293.129855,13.9382181 C290.390464,13.6614155 288.768389,14.7298848 290.091203,14.8191578 C291.078821,14.8859722 295.877668,15.0667642 295.983224,14.9381885" id="dwarf-with-pencil-fill-140" fill="#3D4564"></path>
                        <path d="M284.152467,29.9162973 C284.05365,29.9982713 284.209737,30.4103871 284.715618,30.8842642 C285.21083,31.3536495 286.095139,31.8483008 287.177645,31.9381353 C288.260151,32.0279699 289.214642,31.6843528 289.780038,31.3031176 C290.357787,30.9185136 290.579004,30.5378398 290.495346,30.4407063 C290.326906,30.2183658 289.01083,31.1037973 287.259619,30.9471483 C285.506161,30.8135195 284.354595,29.7248375 284.152467,29.9162973" id="dwarf-with-pencil-fill-142" fill="#57331F"></path>
                        <polygon id="dwarf-with-pencil-fill-144" fill="#6471A9" points="373.521472 56.6429078 358.334385 54.2448877 360.403948 38.8685875 375.591034 40.7045804"></polygon>
                        <path d="M123.436442,23.3245213 L4.15754137,23.3245213 C1.98298463,23.3245213 0.220543735,21.5615189 0.220543735,19.3875236 C0.220543735,17.2135284 1.98298463,15.4516489 4.15754137,15.4516489 L123.436442,15.4516489 C125.610437,15.4516489 127.372878,17.2135284 127.372878,19.3875236 C127.372878,21.5615189 125.610437,23.3245213 123.436442,23.3245213" id="dwarf-with-pencil-fill-146" fill="#F54F71"></path>
                        <path d="M80.8434279,40.4366489 L4.15731678,40.4366489 C1.98276005,40.4366489 0.220319149,38.674208 0.220319149,36.4996513 C0.220319149,34.325656 1.98276005,32.5637766 4.15731678,32.5637766 L80.8434279,32.5637766 C83.0174232,32.5637766 84.7798641,34.325656 84.7798641,36.4996513 C84.7798641,38.674208 83.0174232,40.4366489 80.8434279,40.4366489" id="dwarf-with-pencil-fill-148" fill="#93D5F9"></path>
                        <path d="M80.8434279,58.8092671 L4.15731678,58.8092671 C1.98276005,58.8092671 0.220319149,57.0468262 0.220319149,54.872831 C0.220319149,52.6982742 1.98276005,50.9363948 4.15731678,50.9363948 L80.8434279,50.9363948 C83.0174232,50.9363948 84.7798641,52.6982742 84.7798641,54.872831 C84.7798641,57.0468262 83.0174232,58.8092671 80.8434279,58.8092671" id="dwarf-with-pencil-fill-150" fill="#93D5F9"></path>
                        <path d="M193.390748,86.2816164 L3.86069444,86.2816164 C1.74172281,86.2816164 0.0236377069,84.5629699 0.0236377069,82.4445597 C0.0236377069,80.3250266 1.74172281,78.6069415 3.86069444,78.6069415 L193.390748,78.6069415 C195.510281,78.6069415 197.228366,80.3250266 197.228366,82.4445597 C197.228366,84.5629699 195.510281,86.2816164 193.390748,86.2816164" id="dwarf-with-pencil-fill-152" fill="#F54F71"></path>
                        <path d="M41.4528457,102.96164 L3.86046986,102.96164 C1.74149823,102.96164 0.0234131206,101.242993 0.0234131206,99.1240219 C0.0234131206,97.0050502 1.74149823,95.2869651 3.86046986,95.2869651 L41.4528457,95.2869651 C43.5718174,95.2869651 45.2899025,97.0050502 45.2899025,99.1240219 C45.2899025,101.242993 43.5718174,102.96164 41.4528457,102.96164" id="dwarf-with-pencil-fill-154" fill="#93D5F9"></path>
                        <path d="M41.4528457,120.870431 L3.86046986,120.870431 C1.74149823,120.870431 0.0234131206,119.151785 0.0234131206,117.033375 C0.0234131206,114.913842 1.74149823,113.195757 3.86046986,113.195757 L41.4528457,113.195757 C43.5718174,113.195757 45.2899025,114.913842 45.2899025,117.033375 C45.2899025,119.151785 43.5718174,120.870431 41.4528457,120.870431" id="dwarf-with-pencil-fill-156" fill="#93D5F9"></path>
                        <path d="M116.127787,102.96164 L78.5354108,102.96164 C76.4164391,102.96164 74.698354,101.242993 74.698354,99.1240219 C74.698354,97.0050502 76.4164391,95.2869651 78.5354108,95.2869651 L116.127787,95.2869651 C118.246758,95.2869651 119.964843,97.0050502 119.964843,99.1240219 C119.964843,101.242993 118.246758,102.96164 116.127787,102.96164" id="dwarf-with-pencil-fill-158" fill="#93D5F9"></path>
                        <path d="M116.127787,120.870431 L78.5354108,120.870431 C76.4164391,120.870431 74.698354,119.151785 74.698354,117.033375 C74.698354,114.913842 76.4164391,113.195757 78.5354108,113.195757 L116.127787,113.195757 C118.246758,113.195757 119.964843,114.913842 119.964843,117.033375 C119.964843,119.151785 118.246758,120.870431 116.127787,120.870431" id="dwarf-with-pencil-fill-160" fill="#93D5F9"></path>
                        <path d="M193.390748,102.96164 L155.798933,102.96164 C153.6794,102.96164 151.961876,101.242993 151.961876,99.1240219 C151.961876,97.0050502 153.6794,95.2869651 155.798933,95.2869651 L193.390748,95.2869651 C195.510281,95.2869651 197.228366,97.0050502 197.228366,99.1240219 C197.228366,101.242993 195.510281,102.96164 193.390748,102.96164" id="dwarf-with-pencil-fill-162" fill="#93D5F9"></path>
                        <path d="M291.042438,29.8828339 C291.042438,29.8828339 290.799885,32.3179108 287.067261,32.1051152 C283.480056,31.9013032 283.869152,29.4740869 283.869152,29.4740869" id="dwarf-with-pencil-fill-164" fill="#57331F"></path>
                        <path d="M289.689811,23.7045213 C289.689811,23.7045213 286.711235,26.4557033 284.390697,23.2160461" id="dwarf-with-pencil-fill-166" fill="#784931"></path>
                    </g>
                </g>
            </g>
        </g>
    </g>
</svg>
