<?xml version="1.0" encoding="UTF-8"?>
<svg width="445px" height="465px" viewBox="0 0 445 465" version="1.1" xmlns="http://www.w3.org/2000/svg" xmlns:xlink="http://www.w3.org/1999/xlink">
    <!-- Generator: sketchtool 55.2 (78181) - https://sketchapp.com -->
    <title>23376D0F-69B9-489D-AA54-7095E313D654</title>
    <desc>Created with sketchtool.</desc>
    <defs>
        <path d="M0.301081349,2.84333147 C0.139945437,4.30001116 0.770362103,5.57044643 1.71157242,5.68070313 L1.71157242,5.68070313 C2.65101687,5.79145647 3.54454861,4.7003125 3.70524306,3.24363281 L3.70524306,3.24363281 C3.86682044,1.78744978 3.23507937,0.517511161 2.29475198,0.406757812 L2.29475198,0.406757812 C2.25060516,0.401791295 2.2068998,0.399307861 2.16275298,0.399307861 L2.16275298,0.399307861 C1.27231151,0.398811384 0.454270833,1.45518973 0.301081349,2.84333147 L0.301081349,2.84333147 Z" id="teacher-micromanaging-path-1"></path>
        <path d="M2.058125,0.421160714 C0.994793527,0.435563616 0.125652902,1.63746094 0.117209821,3.10556362 L0.117209821,3.10556362 C0.108766741,4.57316964 0.963504464,5.75122768 2.02683594,5.73533482 L2.02683594,5.73533482 C3.09016741,5.72192522 3.95980469,4.5200279 3.96824777,3.05192522 L3.96824777,3.05192522 C3.97669085,1.59325893 3.13238281,0.421160714 2.07799107,0.421160714 L2.07799107,0.421160714 C2.07103795,0.421160714 2.06507812,0.421160714 2.058125,0.421160714 L2.058125,0.421160714 Z" id="teacher-micromanaging-path-3"></path>
        <path d="M0.591512277,1.85567167 C0.156445313,3.04989347 0.512544643,4.22379769 1.38913504,4.4784446 L1.38913504,4.4784446 C2.26473214,4.73218851 3.32856027,3.97050528 3.76412388,2.77583198 L3.76412388,2.77583198 C4.2006808,1.58206169 3.84358817,0.408157468 2.96799107,0.153510552 L2.96799107,0.153510552 C2.85425781,0.121002435 2.73704799,0.104748377 2.61884487,0.104748377 L2.61884487,0.104748377 C1.82618862,0.104748377 0.970954241,0.816766437 0.591512277,1.85567167 L0.591512277,1.85567167 Z" id="teacher-micromanaging-path-5"></path>
    </defs>
    <g id="teacher-micromanaging-desktop" stroke="none" stroke-width="1" fill="none" fill-rule="evenodd">
        <g id="step3---non-US" transform="translate(-69.000000, -175.000000)">
            <g id="onboarding-step3" transform="translate(67.000000, 174.000000)">
                <g id="teacher-micromanaging-group-160" transform="translate(2.000000, 1.000000)">
                    <g id="teacher-micromanaging-group-65">
                        <path d="M298.907417,16.2990646 C252.057412,12.7019097 200.427276,20.2117679 151.233057,38.0651378 C136.272466,28.572592 117.748014,38.7909475 98.9204593,44.5118928 C48.9660721,59.691558 45.4721947,152.455051 15.0408552,218.583941 C-15.3904843,284.712831 18.6684257,457.328428 81.0828129,464.274358 C106.414993,467.093031 162.582488,447.620362 174.829158,445.788441 C216.797195,442.380712 254.11976,425.29326 297.109076,379.429535 C475.508225,189.105537 113.219342,307.334219 306.145665,350.509259 C499.071989,393.683817 485.026495,30.5881392 298.907417,16.2990646" id="teacher-micromanaging-fill-1" fill="#E8EFFF"></path>
                        <path d="M397.510536,274.863034 C360.157082,449.350659 206.647527,453.795397 115.860287,410.564785 C25.0730472,367.334657 -18.4394582,237.916812 44.4672283,127.333775 C107.373915,16.7507385 147.083166,-11.0750234 231.083915,3.71419293 C315.084181,18.502926 434.863991,100.375409 397.510536,274.863034" id="teacher-micromanaging-fill-3" fill="#B2D2F9"></path>
                        <path d="M74.2213183,406.741044 C71.9123379,411.509063 71.0619149,420.379693 72.8559116,422.898281 C74.6388075,425.395608 84.1228097,425.777842 86.6740786,424.972783 C89.2253476,424.157576 94.1058682,424.471674 98.4409984,425.834863 C102.770337,427.207232 121.995109,427.980882 125.335022,423.863289 C128.654664,419.719119 115.820613,416.302692 112.444502,414.543256 C109.074182,412.789136 106.079843,416.901412 101.852826,417.180719 C97.6417359,417.422816 74.2213183,406.741044 74.2213183,406.741044" id="teacher-micromanaging-fill-5" fill="#000000"></path>
                        <path d="M2.96735846,415.439162 C-0.527001627,419.526311 0.288188178,418.552605 0.346588395,421.930374 C0.401610087,425.065079 8.3150808,426.804703 11.0212793,426.675681 C13.7269951,426.525397 16.5823313,427.346402 19.8706014,430.581619 C26.4476242,437.073797 38.3284485,440.030674 43.6419029,439.235763 C60.8979604,436.686731 46.0440342,427.088358 43.1833888,424.492453 C40.3328791,421.892199 29.6176459,425.369997 25.4060732,424.549474 C21.1906394,423.698025 2.96735846,415.439162 2.96735846,415.439162" id="teacher-micromanaging-fill-7" fill="#000000"></path>
                        <path d="M92.4949875,394.97887 C92.7218313,402.766101 105.308285,409.758422 116.936202,414.826042 C110.544516,419.088602 98.7467066,420.760574 87.5164897,415.816661 C81.526365,413.174849 75.924288,416.616887 74.5323357,412.792615 C71.3729322,404.108511 76.1352044,401.053055 75.7490873,387.919864 C75.3779322,374.781357 92.3612945,390.597918 92.4949875,394.97887" id="teacher-micromanaging-fill-9" fill="#434656"></path>
                        <path d="M73.7386719,404.835528 C71.4296914,409.603547 70.5792684,418.47466 72.3732652,420.993249 C74.1561611,423.490092 83.6401632,423.872326 86.1914322,423.067267 C88.7427012,422.25206 93.6232218,422.566158 97.958352,423.929347 C102.28769,425.301716 121.512463,426.075849 124.852376,421.957773 C128.172018,417.813603 115.337967,414.397659 111.961855,412.63774 C108.591535,410.88362 105.597197,414.995896 101.37018,415.275203 C97.1590895,415.517784 73.7386719,404.835528 73.7386719,404.835528" id="teacher-micromanaging-fill-11" fill="#434656"></path>
                        <path d="M42.7008389,422.076503 C42.0690548,421.500977 41.0516361,421.223604 39.8049604,421.131307 C29.4155136,411.75377 28.5284094,404.826202 27.4694832,395.267937 C26.3980081,385.669564 27.0061426,351.931498 23.8004051,364.739477 C21.7076502,373.15104 16.2334745,372.650415 14.6050255,386.418086 C14.2657251,389.24884 9.54978688,396.263872 6.99465672,402.565658 C3.49981399,406.652807 0.606348698,417.081367 1.6990602,420.012149 C2.82266106,422.938099 7.83253091,424.388269 10.5382467,424.25973 C13.2444452,424.109446 16.0997815,424.929968 19.3880515,428.165668 C25.9650743,434.657363 37.8454159,437.61424 43.159353,436.819812 C60.4154105,434.270297 45.5614843,424.671924 42.7008389,422.076503" id="teacher-micromanaging-fill-13" fill="#434656"></path>
                        <path d="M112.060074,195.5045 C109.410828,219.159998 106.014445,307.897712 103.885491,314.255553 C101.777292,320.608078 99.1434902,333.854828 99.1434902,333.854828 C99.1434902,333.854828 91.4457625,390.556892 92.5022755,396.909417 C84.0390705,404.329878 74.2225249,403.354722 74.2225249,400.180876 C74.2225249,397.001714 63.2500412,362.99014 73.8315813,324.153045 C80.2589837,300.564716 65.5078612,262.749649 71.8575575,241.57698 C78.2072538,220.387882 112.060074,195.5045 112.060074,195.5045" id="teacher-micromanaging-fill-15" fill="#001550"></path>
                        <path d="M107.297705,225.156045 C107.297705,225.156045 88.7838709,301.592205 84.5472007,310.059823 C80.3206659,318.532756 76.8726399,316.985457 70.4457202,325.602876 C54.9363601,346.425203 29.358513,401.150861 29.358513,405.388294 C20.8948254,408.209867 10.4016095,394.799302 11.8036974,390.556553 C13.2154382,386.324919 21.429115,323.125845 48.5813547,297.701247 C48.5813547,297.701247 62.6109208,241.101628 55.6376453,227.142599 C46.9422874,209.721235 58.2304219,194.973094 73.8367939,181.215571 C89.4436486,167.458048 113.116973,189.678839 113.116973,189.678839 L107.297705,225.156045 Z" id="teacher-micromanaging-fill-17" fill="#001138"></path>
                        <path d="M202.253224,249.626605 C192.413511,260.695443 186.439797,280.310182 186.939818,288.215805 C187.635794,299.326684 210.658994,302.577363 210.658994,302.577363 L222.761353,300.136575 C229.235089,300.136575 240.91465,291.689253 249.707503,291.689253 C258.500355,291.689253 303.578566,304.548937 300.785008,291.611453 C298.816293,282.498242 286.698972,252.578166 277.900811,250.12723 C269.102649,247.685958 202.253224,249.626605 202.253224,249.626605" id="teacher-micromanaging-fill-19" fill="#5A6075"></path>
                        <path d="M289.703639,156.65745 C304.176275,156.16214 301.594117,183.656407 311.15486,201.460005 C316.015592,210.536974 318.721307,218.622841 317.742501,220.929775 C311.42852,235.693863 311.89717,233.031273 289.409708,232.138266 C285.544193,231.988465 276.560695,224.887902 276.560695,224.887902 L284.879106,171.142715 L289.703639,156.65745 Z" id="teacher-micromanaging-fill-21" fill="#039157"></path>
                        <path d="M171.095646,256.27332 C171.631867,267.156598 182.667094,275.180612 195.624703,274.277941 L246.006715,270.784197 C258.485055,269.922117 291.239372,258.930595 290.858081,248.413604 L287.734394,162.354427 C287.332832,151.161399 276.632561,142.357938 263.747349,142.729541 L190.135565,145.397447 C176.61133,145.799976 166.035099,155.589224 166.61717,167.19493 L171.095646,256.27332 Z" id="teacher-micromanaging-fill-23" fill="#A7AABC"></path>
                        <path d="M164.2203,308.744232 C164.962127,324.906302 159.169405,414.722582 159.169405,414.722582 L165.220343,414.722582 L179.6312,308.744232 L164.2203,308.744232 Z" id="teacher-micromanaging-fill-25" fill="#8B90A5"></path>
                        <path d="M198.928418,308.439895 C199.758569,326.944657 198.026834,430.404902 198.026834,430.404902 L204.959085,430.404902 L216.566248,308.439895 L198.928418,308.439895 Z" id="teacher-micromanaging-fill-27" fill="#8B90A5"></path>
                        <path d="M163.271948,279.841112 C163.271948,289.944942 162.714974,306.102179 163.849193,309.126225 C164.993065,312.160418 195.774323,321.959814 203.773222,322.965896 C211.762469,323.987925 314.04152,314.791599 315.17043,309.739925 C316.320093,304.698399 281.420896,268.653399 273.437441,267.626538 C265.437577,266.624805 163.271948,279.841112 163.271948,279.841112" id="teacher-micromanaging-fill-29" fill="#CC7425"></path>
                        <polyline id="teacher-micromanaging-fill-31" fill="#997659" points="302.945816 420.461165 284.972546 410.79659 284.972546 401.035852 305.359048 401.035852"></polyline>
                        <path d="M309.505802,272.0533 C315.31976,274.385846 319.234988,278.777912 321.481707,293.412495 C323.456214,306.277494 312.62418,403.409859 312.62418,403.409859 L307.166414,404.680267 C307.166414,404.680267 303.049923,314.115948 303.957298,300.193161 C306.147548,266.315442 311.155004,272.713874 309.505802,272.0533" id="teacher-micromanaging-fill-33" fill="#273049"></path>
                        <path d="M282.817482,261.170747 C296.947438,266.159118 314.898024,272.961046 316.790963,280.990375 C319.167031,291.006257 307.154927,404.680025 307.154927,404.680025 C307.154927,404.680025 283.358528,406.762741 283.358528,405.013937 C283.358528,403.269964 281.482482,304.114804 281.018176,301.065631 C280.534564,298.020806 282.817482,261.170747 282.817482,261.170747" id="teacher-micromanaging-fill-35" fill="#3D4564"></path>
                        <polyline id="teacher-micromanaging-fill-37" fill="#997659" points="242.922315 423.711652 221.122624 425.024585 222.053649 405.612802 246.749701 404.299869"></polyline>
                        <path d="M240.337019,269.499388 C228.523283,264.441916 222.369058,265.386145 216.827794,278.932497 C211.307767,292.473533 212.276439,318.605578 213.503809,342.038791 C214.359541,358.087785 220.173017,408.912336 220.173017,408.912336 L229.992458,408.964042 L248.426656,406.988119 C248.426656,406.988119 251.970728,320.354866 251.970728,311.881933 C251.970728,303.42398 254.160495,275.428605 240.337019,269.499388" id="teacher-micromanaging-fill-39" fill="#3D4564"></path>
                        <path d="M270.664107,133.358382 C268.530327,138.952238 265.427393,145.520767 268.427041,151.744753 C270.818554,156.693499 259.438234,171.385103 256.345918,171.05989 C244.934709,169.846986 228.71972,143.070313 228.71972,143.070313 C228.71972,143.070313 235.85806,139.45238 237.471547,136.67623 C240.573998,131.345251 243.017155,122.573199 243.728575,119.631302 C244.810669,115.177866 270.664107,133.358382 270.664107,133.358382" id="teacher-micromanaging-fill-41" fill="#997659"></path>
                        <path d="M283.941131,261.159923 C283.941131,261.159923 207.463875,287.653423 209.819672,280.955389 C217.143349,260.159639 203.824721,225.006679 204.670317,218.044803 C205.7833,208.750864 205.958983,186.938401 204.938186,182.830956 C203.928007,178.728344 193.351776,171.245546 193.351776,171.245546 C193.351776,171.245546 194.490822,152.782342 207.102855,149.866539 C219.962486,146.893716 220.317714,146.82993 233.264704,140.240139 C233.264704,140.240139 238.94497,163.149049 259.484471,162.282136 C266.83952,161.972386 262.861066,207.62639 265.839959,211.512033 C268.602145,216.765696 283.941131,261.159923 283.941131,261.159923" id="teacher-micromanaging-fill-43" fill="#047A42"></path>
                        <path d="M270.595764,146.473549 C270.63872,146.415078 270.6643,146.381735 270.6643,146.381735 C270.6643,146.381735 270.633893,146.388017 270.58949,146.397199 C270.03686,139.943195 267.500553,127.387462 267.724983,126.73607 L258.243394,122.778426 L258.24436,122.773111 L258.184511,122.757647 L258.11308,122.718989 L258.110666,122.734452 L248.659484,115.78514 C248.32501,116.711489 244.730742,124.195253 242.838286,127.96637 C243.850878,130.264123 241.789012,128.795591 243.738421,132.87984 C244.485075,136.65724 250.210227,148.757771 257.579755,152.399866 C259.371339,153.28514 260.875265,154.685055 261.74065,156.487498 C262.663953,158.410749 263.418812,158.73113 263.371995,161.675926 C264.880265,161.644033 266.097017,161.491815 266.906415,161.356028 C267.517928,161.253584 267.926729,160.683374 267.84468,160.068224 C267.404506,156.777919 267.708091,154.011917 268.252033,151.846086 C269.039712,151.24495 269.822082,150.515274 270.601073,149.65706 C270.73718,149.047225 270.716908,147.91502 270.595764,146.473549" id="teacher-micromanaging-fill-45" fill="#784931"></path>
                        <path d="M270.452466,254.653296 L262.531273,217.132032 C262.531273,217.132032 258.211588,162.968369 259.484326,162.282184 C265.638551,159.025706 267.586995,156.197851 265.478795,145.743197 L265.293941,143.198997 C271.230975,145.934072 276.581111,150.753796 290.09521,155.578352 C292.806235,156.553991 286.724408,172.014412 286.724408,172.014412 C286.724408,172.014412 287.528497,192.428894 287.919923,196.650381 C289.234169,210.84136 289.466805,224.877222 288.889077,234.202571 C288.564256,239.682869 286.765915,249.415096 290.45623,264.421765 L270.452466,254.653296 Z" id="teacher-micromanaging-fill-47" fill="#047A42"></path>
                        <path d="M237.040496,104.69243 C236.349346,109.032307 238.01158,123.3929 238.080116,125.271693 C238.111971,126.132324 239.057958,128.582294 239.417047,129.414897 C239.901624,130.53937 242.130485,132.999005 243.749281,131.775953 C245.356493,130.567881 249.923777,111.694898 249.346531,110.471846 C248.769286,109.238646 237.040496,104.69243 237.040496,104.69243" id="teacher-micromanaging-fill-49" fill="#3D4564"></path>
                        <path d="M246.841452,110.094976 C248.078475,98.0611299 246.717894,86.1867495 265.22111,87.8384254 C288.31188,89.8771676 285.147168,102.901632 284.173187,117.634794 C283.193898,132.346694 275.632759,149.190116 264.06662,146.903961 C251.160655,144.375224 244.923898,135.902291 244.429668,125.406079 C242.079662,123.982004 240.548225,119.677885 240.646202,115.988434 C240.728735,111.178858 242.87265,107.236194 246.841452,110.094976" id="teacher-micromanaging-fill-51" fill="#997659"></path>
                        <path d="M259.262985,107.551211 C256.52107,122.480081 256.588158,143.782254 264.778185,146.465141 C274.715393,148.457493 279.333354,138.658097 283.291537,128.852902 C286.198999,121.071469 289.280696,108.118522 286.724118,99.1913537 C285.013619,93.4733077 282.838332,90.4598932 278.683711,89.3552322 C270.344547,90.4391143 261.525631,95.2535225 259.262985,107.551211" id="teacher-micromanaging-fill-53" fill="#997659"></path>
                        <path d="M271.777379,87.6010151 L271.478621,86.4605953 C271.478621,86.4605953 266.952845,83.1065044 267.870356,83.2045998 C268.396441,83.2558221 270.35502,81.9346747 271.138355,84.4837064 L280.147433,84.9688681 C280.147433,84.9688681 282.657677,84.896867 284.302054,86.5069852 C285.930503,88.0861768 289.39616,90.3133782 289.337986,99.7798297 C289.414727,101.069567 289.414727,102.498958 289.342813,104.041907 C289.08508,110.425359 286.781408,117.118078 286.781408,117.118078 L285.477298,117.707134 C285.477298,117.707134 289.765611,103.097678 284.549169,98.0764483 C279.312455,93.0499027 265.334532,95.1302025 265.334532,95.1302025 L271.777379,87.6010151 Z" id="teacher-micromanaging-fill-55" fill="#3D4564"></path>
                        <path d="M238.531342,93.6899875 C240.881348,90.2170224 246.406684,83.6228827 249.406331,82.6728549 C251.200328,79.8913901 281.552996,76.9074525 285.130371,87.4819476 C288.238132,91.3216833 290.088116,98.014885 286.021819,100.280261 C276.67151,105.481736 270.621055,99.3046225 265.085583,98.8919452 C260.059786,98.4739523 256.875285,101.022984 255.591445,102.741345 C254.654146,104.011271 253.982785,111.959417 253.125605,116.295912 C252.689775,118.499919 249.728739,118.929992 248.682844,116.942472 L247.922676,110.742164 L245.252194,108.743047 L237.397123,113.599013 C237.397123,113.599013 233.830849,100.697771 238.531342,93.6899875" id="teacher-micromanaging-fill-57" fill="#3D4564"></path>
                        <path d="M288.099226,93.5699052 C287.878174,100.54048 283.406455,106.486127 276.155658,107.044739 L278.129199,105.048521 C270.152984,107.954659 265.484345,106.752869 265.49786,106.754319 C265.795652,106.785729 268.777925,105.227316 268.777925,105.227316 C264.154172,105.713444 258.028906,106.135786 254.203451,103.32871 L258.73357,94.4745094 L288.099226,93.5699052 Z" id="teacher-micromanaging-fill-59" fill="#3D4564"></path>
                        <path d="M268.277758,111.633866 L267.551375,113.869282 C267.551375,113.869282 264.890063,112.008368 261.603723,112.405583 C258.316901,112.802797 257.945746,113.335798 257.945746,113.335798 L257.582313,111.813144 C257.582313,111.813144 261.725833,108.031879 268.277758,111.633866" id="teacher-micromanaging-fill-61" fill="#3D4564"></path>
                        <path d="M283.209632,113.968828 L282.89205,115.680907 C282.89205,115.680907 281.190239,113.968828 278.377858,114.030681 C276.228634,114.078037 275.256101,114.770021 275.256101,114.770021 L274.779729,112.61627 C274.779729,112.61627 279.303574,109.807745 283.209632,113.968828" id="teacher-micromanaging-fill-63" fill="#3D4564"></path>
                    </g>
                    <g id="teacher-micromanaging-group-68" transform="translate(276.138393, 115.223214)">
                        <mask id="teacher-micromanaging-mask-2" fill="white">
                            <use xlink:href="#teacher-micromanaging-path-1"></use>
                        </mask>
                        <g id="teacher-micromanaging-clip-67"></g>
                        <polygon id="teacher-micromanaging-fill-66" fill="#3D4564" mask="url(#teacher-micromanaging-mask-2)" points="-8.95235813 13.7447388 11.5909256 15.2942924 12.9585942 -7.65747656 -7.58468948 -9.20703013"></polygon>
                    </g>
                    <g id="teacher-micromanaging-group-71" transform="translate(261.238839, 114.229911)">
                        <mask id="teacher-micromanaging-mask-4" fill="white">
                            <use xlink:href="#teacher-micromanaging-path-3"></use>
                        </mask>
                        <g id="teacher-micromanaging-clip-70"></g>
                        <polygon id="teacher-micromanaging-fill-69" fill="#3D4564" mask="url(#teacher-micromanaging-mask-4)" points="-8.93695089 15.1563722 14.196096 13.9738443 13.0220112 -8.99928069 -10.1110357 -7.81675279"></polygon>
                    </g>
                    <g id="teacher-micromanaging-group-107" transform="translate(5.959821, 56.618304)">
                        <path d="M270.15459,68.930529 C270.15459,68.930529 265.107428,72.3361117 260.50112,68.0140685" id="teacher-micromanaging-fill-72" fill="#784931"></path>
                        <path d="M271.059887,77.5394151 C269.506765,81.0072862 269.055781,82.33514 263.228681,82.2047689 C255.566776,82.2438802 254.005937,75.5447374 254.005937,75.5447374 C254.005937,75.5447374 264.522788,82.2067003 271.059887,77.5394151" id="teacher-micromanaging-fill-74" fill="#57331F"></path>
                        <path d="M434.3574,187.691111 C434.3574,188.129061 433.533088,188.454023 432.508124,188.454023 L78.0303212,188.454023 C77.0101808,188.454023 76.1911745,188.129061 76.1911745,187.691111 L97.0213318,180.585404 C98.9164295,179.95576 99.6375216,179.811868 100.657662,179.811868 L405.750059,179.853394 C406.789975,179.853394 408.22203,180.043639 410.756223,180.657349 L434.3574,187.691111 Z" id="teacher-micromanaging-fill-76" fill="#6F7993"></path>
                        <polygon id="teacher-micromanaging-fill-78" fill="#6F7993" points="384.239374 381.947711 401.263419 381.947711 401.263419 203.330138 384.239374 203.330138"></polygon>
                        <polygon id="teacher-micromanaging-fill-80" fill="#6F7993" points="104.325392 381.947711 121.343649 381.947711 121.343649 237.171577 104.325392 237.171577"></polygon>
                        <polygon id="teacher-micromanaging-fill-81" fill="#A7AABC" points="102.777432 198.58603 103.965425 270.007661 402.892605 267.919309 401.008118 200.22098"></polygon>
                        <path d="M434.934418,203.773931 C434.934418,204.990728 434.130364,205.965131 433.131929,205.965131 L76.9895851,205.965131 C76.0061022,205.965131 75.1919192,204.990728 75.1919192,203.773931 L75.1919192,189.52099 C75.1919192,188.304676 76.0061022,187.335101 76.9895851,187.335101 L433.131929,187.335101 C434.130364,187.335101 434.934418,188.304676 434.934418,189.52099 L434.934418,203.773931 Z" id="teacher-micromanaging-fill-82" fill="#3D4564"></path>
                        <path d="M320.300061,158.747859 C312.954568,159.082961 292.681509,165.219094 287.638687,164.280905 C280.762025,162.98154 280.350592,161.702454 278.763707,161.785023 C276.827128,161.877731 275.940595,162.34755 273.520234,164.574481 C270.089861,167.776782 268.544457,171.78352 269.70351,172.829869 C270.105296,173.206496 271.305347,171.58748 272.500093,170.035099 C274.221068,167.792233 275.71438,167.452303 275.71438,167.452303 C275.71438,167.452303 274.28763,169.333992 271.913573,171.556578 C270.1516,173.206496 269.883903,174.603398 270.455471,175.108949 C271.645394,176.186683 277.919137,171.17995 277.919137,171.17995 C277.919137,171.17995 271.073344,176.068383 272.046697,176.805221 C274.024757,178.285175 279.618888,174.464819 279.618888,174.464819 C279.618888,174.464819 273.200927,177.37306 273.726191,178.156735 C274.570761,179.394295 278.320923,178.301109 280.617806,177.022507 C282.905043,175.723141 286.922901,178.919647 291.156845,176.635256 C297.667415,173.128757 323.189253,179.487003 328.325648,172.22147 C335.490265,162.140888 320.300061,158.747859 320.300061,158.747859" id="teacher-micromanaging-fill-83" fill="#997659"></path>
                        <polygon id="teacher-micromanaging-fill-84" fill="#A3A9CE" points="218.328854 183.777854 324.492911 183.777854 324.492911 175.615175 218.328854 175.615175"></polygon>
                        <path d="M374.121511,160.520133 C374.121511,162.757688 372.30841,164.635031 370.052043,164.712288 L264.418556,163.170047 C261.518752,163.273378 259.159647,161.283046 259.159647,158.725358 L263.259502,75.1763184 C263.259502,72.6133192 265.61909,70.6852756 268.518893,70.8658637 L374.271035,73.773622 C376.521614,73.9078559 378.34002,75.831071 378.34002,78.0739366 L374.121511,160.520133 Z" id="teacher-micromanaging-fill-85" fill="#A3A9CE"></path>
                        <polygon id="teacher-micromanaging-fill-86" fill="#848FBB" points="321.227545 126.776087 311.626649 185.187648 347.27513 185.187648 334.938907 126.776087"></polygon>
                        <path d="M144.345427,80.9509852 C144.947865,96.2145432 138.550644,116.086961 136.371933,124.925155 C136.119671,125.966675 148.697544,145.880618 150.747471,148.432995 C153.859503,152.300188 144.321793,162.251848 144.687403,158.725068 C145.310581,152.676332 142.109801,150.820717 136.989805,147.190607 C134.862704,145.679268 112.66223,131.525313 113.39924,127.327846 C115.304949,116.199949 122.191258,84.5352246 126.58582,81.4517068 C130.978935,78.3778461 144.005381,72.3706359 144.345427,80.9509852" id="teacher-micromanaging-fill-87" fill="#DAE5ED"></path>
                        <path d="M151.724636,149.743079 C154.836185,153.610272 156.350237,155.528176 157.503502,158.421449 C158.708859,161.442678 159.451657,162.639195 159.070129,164.412725 C158.673166,166.196877 156.102799,170.198304 155.191184,171.549818 C154.268958,172.910506 151.420764,175.999335 149.870054,175.979154 C148.335262,175.958292 150.199972,173.777232 152.106163,170.776283 C153.991132,167.779679 152.976297,166.511699 152.878865,165.568199 C152.770822,164.608764 151.52929,162.092602 151.52929,162.092602 L150.128104,162.608292 C150.128104,162.608292 147.439081,166.517011 145.960722,168.986819 C144.482845,171.456627 141.732083,170.842917 143.421706,167.796096 C145.698331,163.737692 144.039578,163.649812 144.405189,160.123033 C145.028849,154.074297 143.086965,152.130802 137.966969,148.500691 C135.839386,146.989352 149.674708,147.190703 151.724636,149.743079" id="teacher-micromanaging-fill-88" fill="#E8AB5B"></path>
                        <path d="M168.577162,63.3696707 C158.841695,63.787341 145.470379,65.9944754 138.609151,92.7823551 C137.208448,98.2632525 140.54573,65.1494775 136.662444,56.6149995 C133.232071,49.0867931 130.32648,56.5691281 127.287281,52.5874984 C132.237494,51.7420177 147.716135,44.5489133 153.062828,33.8290294 C158.37817,23.1395654 168.577162,63.3696707 168.577162,63.3696707" id="teacher-micromanaging-fill-89" fill="#DB9B4F"></path>
                        <path d="M139.927665,65.6233523 L135.972028,49.4008426 C135.972028,49.4008426 132.871091,46.0237484 118.644594,53.3815066 C105.334535,60.2762061 94.8784582,70.2177262 81.1560024,91.7709652 C64.6224931,117.764547 57.5914829,120.744734 48.0364092,132.321204 C44.2351201,136.946481 86.6165269,164.935706 98.4072275,169.638239 C102.377816,171.226353 105.406886,144.139585 116.790013,124.968274 C128.178927,105.786341 128.976711,113.474855 136.126376,102.15623 C142.30751,92.3639122 144.687355,77.7102013 144.687355,77.7102013 L139.927665,65.6233523 Z" id="teacher-micromanaging-fill-90" fill="#FFFFFF"></path>
                        <path d="M149.312474,77.988278 C148.658909,85.9703689 140.185232,108.024812 137.033167,110.055704 C133.88062,112.07211 128.034227,113.752932 122.070143,125.819018 C119.169858,131.681854 105.144495,173.753089 105.144495,173.753089 L73.9764328,156.215763 C84.056288,124.834475 107.055027,99.0832867 112.792895,93.2045161 C119.767472,86.0683887 141.339462,51.1646669 142.199467,66.417602 C142.672638,74.8839974 149.312474,77.988278 149.312474,77.988278" id="teacher-micromanaging-fill-91" fill="#FFFFFF"></path>
                        <path d="M149.224834,23.4698872 C152.794601,5.69596137 165.826352,-0.0688552517 179.939982,2.75730035 C194.063259,5.56703885 199.599993,18.2883605 196.082317,36.0724262 C195.402224,39.4596604 194.474692,42.6981749 193.362908,45.6889844 C193.42947,47.3804286 194.595276,50.803877 195.012496,53.2118793 C194.800751,54.6812099 191.786634,53.454273 189.674485,53.3258333 C184.73006,61.3282042 174.146164,69.0703158 167.495234,65.4073709 C160.510046,61.559975 145.717769,41.2491243 149.224834,23.4698872" id="teacher-micromanaging-fill-92" fill="#F1C27D"></path>
                        <path d="M180.825406,25.1403271 L198.225191,24.8718593 C200.336857,21.5309793 195.050939,3.97337294 173.468337,0.950694987 C141.199981,-3.5673877 144.882701,13.2287549 142.15268,24.624637 C139.402401,35.9896164 143.481516,46.6322434 143.481516,46.6322434 C143.481516,46.6322434 165.491466,46.1213818 163.142973,41.9142584 C161.70513,39.3102165 161.355436,30.7404899 165.372812,30.9514979 C167.320002,31.0548291 168.700447,33.5453998 168.700447,33.5453998 L180.825406,25.1403271 Z" id="teacher-micromanaging-fill-93" fill="#4F3A60"></path>
                        <path d="M196.741526,19.5302176 C200.357598,22.578004 204.746372,30.8068343 197.627577,34.0714231 C192.188275,36.5769623 170.827548,29.9101709 173.913051,43.5691987 C172.45495,43.393922 165.35593,35.0516206 169.914004,26.7856104 C174.462431,18.5147716 196.741526,19.5302176 196.741526,19.5302176" id="teacher-micromanaging-fill-94" fill="#4F3A60"></path>
                        <path d="M169.917718,5.52266439 C139.238744,-9.56513401 133.706352,25.2130452 132.210628,39.6118083 C130.881793,52.4070068 134.04254,89.8660021 125.177689,88.6902479 C131.461561,92.1243191 146.975894,90.9900906 155.969529,68.3586344 C164.972811,45.7165554 145.585802,22.0126763 159.533991,16.5882731 C164.684856,14.5873183 169.917718,5.52266439 169.917718,5.52266439" id="teacher-micromanaging-fill-95" fill="#4F3A60"></path>
                        <path d="M195.989323,97.5566895 C183.689276,89.9410862 164.831872,164.72436 167.804026,170.82959 C170.755439,176.918886 172.475931,179.394488 176.906186,180.446148 C190.014628,183.529666 222.41313,180.929004 222.41313,180.929004 C222.41313,180.929004 229.401212,167.613287 231.183443,164.044982 C234.53616,157.350667 207.095589,158.084125 195.793977,154.968256 C195.793977,154.968256 204.086778,132.429508 204.086778,130.557476 C204.086778,128.68641 202.376897,101.506934 195.989323,97.5566895" id="teacher-micromanaging-fill-96" fill="#039157"></path>
                        <path d="M226.607764,160.970203 C234.983044,160.655381 232.045618,165.704123 237.670619,164.161881 C245.366288,162.037798 245.700065,160.552533 247.518953,160.496039 C249.713099,160.408159 250.774238,160.856732 253.720346,163.161886 C257.923421,166.482969 260.045698,170.880821 258.830212,172.170046 C258.417815,172.644693 256.898457,170.922346 255.389228,169.261805 C253.225951,166.884705 251.516071,166.647623 251.516071,166.647623 C251.516071,166.647623 253.292996,168.632644 256.202446,170.937798 C258.351253,172.644693 258.789213,174.201904 258.191117,174.841205 C256.939938,176.186442 249.352312,171.082172 249.352312,171.082172 C249.352312,171.082172 257.573245,175.996196 256.53767,176.924245 C254.441438,178.780826 247.729734,174.964816 247.729734,174.964816 C247.729734,174.964816 255.286008,177.666878 254.760744,178.600238 C253.920997,180.095643 249.564057,179.193185 246.828731,177.950314 C244.118968,176.707443 239.854154,180.70887 234.842202,178.522498 C227.11084,175.145404 223.476439,185.978276 218.758229,177.011642 C213.45784,166.93106 226.607764,160.970203 226.607764,160.970203" id="teacher-micromanaging-fill-97" fill="#997659"></path>
                        <path d="M25.4095989,353.762929 C25.0328946,353.16129 24.7020122,352.452941 24.4010346,351.820882 C21.8909586,353.28297 19.5988985,355.721875 18.2102535,358.85899 C18.7022361,359.635422 19.2250882,360.488146 19.6939187,361.317692" id="teacher-micromanaging-fill-98" fill="#000000"></path>
                        <path d="M29.1524289,359.094141 C28.7241146,358.485742 28.295318,357.876861 27.9388718,357.228868 C25.459183,359.112972 23.4377133,361.917399 22.5092168,365.340847 C23.0730674,366.109554 23.5645677,366.917855 24.1120189,367.742573 L24.2789071,367.790858" id="teacher-micromanaging-fill-99" fill="#000000"></path>
                        <path d="M33.328107,363.876973 C32.8390185,363.314929 32.3508945,362.753368 31.9302977,362.144969 C29.7429044,364.111158 28.1844772,366.842191 27.5458645,370.035317 C28.1642191,370.856655 28.7931851,371.621499 29.4216687,372.38586" id="teacher-micromanaging-fill-100" fill="#000000"></path>
                        <path d="M94.903202,349.337506 C94.3263283,348.924664 93.7513839,348.394971 93.2333552,347.923704 C91.4655942,350.231272 90.2703659,353.358247 90.1753457,356.788455 C90.9248957,357.319597 91.7318436,357.91013 92.4804289,358.499697" id="teacher-micromanaging-fill-101" fill="#000000"></path>
                        <path d="M100.890003,352.987221 C100.24512,352.617353 99.5987901,352.247485 99.0021406,351.810984 C97.5507919,354.568574 96.9044618,357.965465 97.5088287,361.460859 C98.3447168,361.918606 99.1314066,362.442988 99.976459,362.958195 L100.148171,362.931638" id="teacher-micromanaging-fill-102" fill="#000000"></path>
                        <path d="M23.1627819,351.164729 L0.85522975,340.416357 C0.13510228,340.069183 -0.167804653,339.203906 0.178994845,338.482519 L4.41390388,329.674744 C4.76022104,328.953841 5.62504927,328.650607 6.34517674,328.99778 L28.6527289,339.746153 C29.3728564,340.092843 29.6757633,340.958121 29.3289638,341.679025 L25.0940548,350.487765 C24.7472553,351.208669 23.8829094,351.51142 23.1627819,351.164729" id="teacher-micromanaging-fill-103" fill="#0D2A6B"></path>
                        <path d="M88.6968898,343.516388 L67.8648031,346.557898 C67.0737723,346.6733 66.3391747,346.124776 66.2238964,345.333375 L65.0595376,337.340178 C64.9442593,336.548295 65.4921929,335.813388 66.2827414,335.697986 L87.1148281,332.656959 C87.9053766,332.541557 88.6404565,333.089115 88.7552524,333.880999 L89.9196112,341.874195 C90.0348895,342.665596 89.4879206,343.401469 88.6968898,343.516388" id="teacher-micromanaging-fill-104" fill="#0D2A6B"></path>
                        <path d="M182.417983,37.8313254 C182.417983,37.8313254 187.018503,33.3243484 193.959316,40.8607633 L193.15478,42.1417801 C193.15478,42.1417801 188.867296,36.6043886 182.417983,37.8313254" id="teacher-micromanaging-fill-105" fill="#4F3A60"></path>
                        <polygon id="teacher-micromanaging-fill-106" fill="#434656" points="174.139122 38.1706283 182.059559 42.3729232 181.471592 43.5795801 173.457581 39.441505"></polygon>
                    </g>
                    <g id="teacher-micromanaging-group-110" transform="translate(188.727679, 100.323661)">
                        <mask id="teacher-micromanaging-mask-6" fill="white">
                            <use xlink:href="#teacher-micromanaging-path-5"></use>
                        </mask>
                        <g id="teacher-micromanaging-clip-109"></g>
                        <polygon id="teacher-micromanaging-fill-108" fill="#3D4564" mask="url(#teacher-micromanaging-mask-6)" points="-3.51455636 5.87593243 5.06808315 8.02101664 7.87068917 -1.24424817 -0.711950335 -3.38933239"></polygon>
                    </g>
                    <g id="teacher-micromanaging-group-159" transform="translate(80.457589, 24.832589)">
                        <path d="M106.206393,77.4633084 C106.155717,75.0914877 108.394119,73.4371439 110.643138,73.737057 C112.765227,74.020094 114.224676,76.1730071 113.898906,78.5183082 C113.573619,80.8636092 111.583768,82.5357935 109.462644,82.2450417 C107.34152,81.9538078 105.880623,79.8086095 106.206393,77.4633084 M104.837194,77.2757422 C104.408143,80.3645577 106.398959,83.1978203 109.274904,83.5922398 C112.151332,83.9866592 114.863185,81.624482 115.292236,78.5356665 C115.315402,78.3649764 118.045595,79.1104195 118.062004,79.2594117 C118.244918,80.8944685 118.877153,77.7670789 118.822616,77.9305364 C118.882462,77.7511671 115.50652,76.9931874 115.354012,77.0153675 C114.9433,74.7370888 113.101614,72.7008621 110.829912,72.389859 C107.953967,71.9949573 105.265762,74.1864445 104.837194,77.2757422" id="teacher-micromanaging-fill-111" fill="#434656"></path>
                        <path d="M77.2226689,206.811099 C74.2545432,203.257949 70.4558248,205.384825 66.6112574,205.461973 C64.3844391,200.091503 50.9689933,193.845403 55.3497539,201.0438 C59.0920055,207.197322 60.0968246,210.194524 60.8236535,212.207124 C61.5963314,214.334 63.1165909,214.179222 66.0803731,214.179222 C68.0282358,214.179222 69.7705015,213.247659 71.5016669,212.15071 C72.1667201,212.624688 73.3163259,213.021036 73.3163259,213.021036 C73.3163259,213.021036 77.9441889,216.640727 79.0991035,215.914571 C79.743404,215.513401 78.1406161,213.880755 76.5788511,212.510895 C78.4079887,213.983458 80.779111,215.950734 81.2742812,215.625748 C82.3563199,214.905378 78.8616535,211.754362 78.3051902,211.002168 C81.6352825,215.193719 82.7168386,213.890881 82.7168386,213.890881 C82.7168386,213.890881 80.1816249,210.369072 77.2226689,206.811099" id="teacher-micromanaging-fill-113" fill="#F1C27D"></path>
                        <path d="M66.6111126,205.461828 C64.384777,200.091359 57.5605008,168.517068 56.9683235,166.148622 C56.3703548,163.779694 55.4427552,126.963193 49.7111354,108.590864 C49.7111354,108.590864 41.7025047,99.4054227 32.5080716,109.48771 C26.5650634,115.99081 36.2030262,159.037017 41.5427568,166.73543 C43.9182227,176.811931 50.9688485,193.845741 55.3496091,201.043655 C59.0918607,207.197177 60.0966798,210.19438 60.8235087,212.207462" id="teacher-micromanaging-fill-115" fill="#EDF2F7"></path>
                        <path d="M101.090309,87.3691196 L109.77075,91.8986752 C109.77075,91.8986752 105.26499,99.527172 101.090309,87.3691196" id="teacher-micromanaging-fill-117" fill="#A72F6A"></path>
                        <path d="M340.653724,142.65588 L315.582955,142.65588 C315.05207,142.65588 314.622537,143.08598 314.622537,143.615891 L314.622537,162.299223 C314.622537,162.829616 315.05207,163.259234 315.582955,163.259234 L340.653724,163.259234 C341.184608,163.259234 341.614142,162.829616 341.614142,162.299223 L341.614142,143.615891 C341.614142,143.08598 341.184608,142.65588 340.653724,142.65588" id="teacher-micromanaging-fill-119" fill="#E5E5E5"></path>
                        <path d="M340.10228,142.160493 L315.031511,142.160493 C314.500626,142.160493 314.071093,142.590111 314.071093,143.120504 L314.071093,161.803836 C314.071093,162.333747 314.500626,162.763847 315.031511,162.763847 L340.10228,162.763847 C340.632681,162.763847 341.062698,162.333747 341.062698,161.803836 L341.062698,143.120504 C341.062698,142.590111 340.632681,142.160493 340.10228,142.160493" id="teacher-micromanaging-fill-121" fill="#FFFFFF"></path>
                        <path d="M338.152486,143.762665 L316.980821,143.762665 C316.532948,143.762665 316.169534,144.125261 316.169534,144.573202 L316.169534,160.350945 C316.169534,160.798886 316.532948,161.161482 316.980821,161.161482 L338.152486,161.161482 C338.600842,161.161482 338.964257,160.798886 338.964257,160.350945 L338.964257,144.573202 C338.964257,144.125261 338.600842,143.762665 338.152486,143.762665" id="teacher-micromanaging-fill-123" fill="#E6C5ED"></path>
                        <path d="M326.690212,154.079772 L326.690212,151.077748 L329.54637,152.57876 L326.690212,154.079772 Z M327.566654,148.365029 C325.303156,148.365029 323.465814,150.200671 323.465814,152.462074 C323.465814,154.723476 325.303156,156.559118 327.566654,156.559118 C329.830634,156.559118 331.667494,154.723476 331.667494,152.462074 C331.667494,150.200671 329.830634,148.365029 327.566654,148.365029 L327.566654,148.365029 Z" id="teacher-micromanaging-fill-125" fill="#D67DEC"></path>
                        <path d="M284.812853,51.4397241 L250.080956,51.4397241 C249.346405,51.4397241 248.749884,52.0347285 248.749884,52.7695638 L248.749884,78.6527387 C248.749884,79.3866096 249.346405,79.9820962 250.080956,79.9820962 L284.812853,79.9820962 C285.547404,79.9820962 286.143925,79.3866096 286.143925,78.6527387 L286.143925,52.7695638 C286.143925,52.0347285 285.547404,51.4397241 284.812853,51.4397241" id="teacher-micromanaging-fill-127" fill="#E5E5E5"></path>
                        <path d="M284.458416,51.0858556 L249.727001,51.0858556 C248.991967,51.0858556 248.395929,51.6813422 248.395929,52.4156953 L248.395929,78.2988701 C248.395929,79.0332233 248.991967,79.6282277 249.727001,79.6282277 L284.458416,79.6282277 C285.193449,79.6282277 285.789487,79.0332233 285.789487,78.2988701 L285.789487,52.4156953 C285.789487,51.6813422 285.193449,51.0858556 284.458416,51.0858556" id="teacher-micromanaging-fill-129" fill="#FFFFFF"></path>
                        <path d="M281.757807,53.3053571 L252.427899,53.3053571 C251.806764,53.3053571 251.303389,53.8077839 251.303389,54.4283436 L251.303389,76.2863183 C251.303389,76.9063958 251.806764,77.4093048 252.427899,77.4093048 L281.757807,77.4093048 C282.378459,77.4093048 282.881834,76.9063958 282.881834,76.2863183 L282.881834,54.4283436 C282.881834,53.8077839 282.378459,53.3053571 281.757807,53.3053571" id="teacher-micromanaging-fill-131" fill="#E6F4F1"></path>
                        <path d="M265.878431,67.598 L265.878431,63.4392372 L269.83545,65.5188597 L265.878431,67.598 Z M267.093191,59.6816444 C263.957113,59.6816444 261.411764,62.2241553 261.411764,65.3573309 C261.411764,68.4900244 263.957113,71.0330174 267.093191,71.0330174 C270.228787,71.0330174 272.773653,68.4900244 272.773653,65.3573309 C272.773653,62.2241553 270.228787,59.6816444 267.093191,59.6816444 L267.093191,59.6816444 Z" id="teacher-micromanaging-fill-133" fill="#27C195"></path>
                        <path d="M191.58383,0.994968914 L136.256518,0.994968914 C135.085677,0.994968914 134.13636,1.9434079 134.13636,3.11364757 L134.13636,44.3449472 C134.13636,45.5151869 135.085677,46.4636259 136.256518,46.4636259 L191.58383,46.4636259 C192.755154,46.4636259 193.704472,45.5151869 193.704472,44.3449472 L193.704472,3.11364757 C193.704472,1.9434079 192.755154,0.994968914 191.58383,0.994968914" id="teacher-micromanaging-fill-135" fill="#E5E5E5"></path>
                        <path d="M191.114432,0.35362743 L135.786638,0.35362743 C134.616279,0.35362743 133.666961,1.30206642 133.666961,2.47182391 L133.666961,43.7036057 C133.666961,44.8738454 134.616279,45.8218022 135.786638,45.8218022 L191.114432,45.8218022 C192.285273,45.8218022 193.234591,44.8738454 193.234591,43.7036057 L193.234591,2.47182391 C193.234591,1.30206642 192.285273,0.35362743 191.114432,0.35362743" id="teacher-micromanaging-fill-137" fill="#FFFFFF"></path>
                        <path d="M186.812291,3.88917847 L140.088682,3.88917847 C139.100272,3.88917847 138.298637,4.69007179 138.298637,5.67804916 L138.298637,40.4973805 C138.298637,41.48584 139.100272,42.2862512 140.088682,42.2862512 L186.812291,42.2862512 C187.801183,42.2862512 188.602819,41.48584 188.602819,40.4973805 L188.602819,5.67804916 C188.602819,4.69007179 187.801183,3.88917847 186.812291,3.88917847" id="teacher-micromanaging-fill-139" fill="#F7D7D5"></path>
                        <path d="M161.515655,26.6575967 L161.515655,20.0325069 L167.819664,23.3450518 L161.515655,26.6575967 Z M163.450487,14.0462995 C158.454866,14.0462995 154.40084,18.0970549 154.40084,23.0880523 C154.40084,28.0785676 158.454866,32.129323 163.450487,32.129323 C168.446108,32.129323 172.500616,28.0785676 172.500616,23.0880523 C172.500616,18.0970549 168.446108,14.0462995 163.450487,14.0462995 L163.450487,14.0462995 Z" id="teacher-micromanaging-fill-141" fill="#FF654C"></path>
                        <path d="M26.7825329,54.7855391 L1.90963902,54.7855391 C1.38309834,54.7855391 0.956460427,55.2117822 0.956460427,55.7378355 L0.956460427,74.2736218 C0.956460427,74.7996751 1.38309834,75.2264003 1.90963902,75.2264003 L26.7825329,75.2264003 C27.3090735,75.2264003 27.7357115,74.7996751 27.7357115,74.2736218 L27.7357115,55.7378355 C27.7357115,55.2117822 27.3090735,54.7855391 26.7825329,54.7855391" id="teacher-micromanaging-fill-143" fill="#E5E5E5"></path>
                        <path d="M26.2999108,54.3033637 L1.42701695,54.3033637 C0.900476266,54.3033637 0.473838353,54.7296068 0.473838353,55.2556601 L0.473838353,73.7914464 C0.473838353,74.3174997 0.900476266,74.744225 1.42701695,74.744225 L26.2999108,74.744225 C26.8264515,74.744225 27.2530894,74.3174997 27.2530894,73.7914464 L27.2530894,55.2556601 C27.2530894,54.7296068 26.8264515,54.3033637 26.2999108,54.3033637" id="teacher-micromanaging-fill-145" fill="#FFFFFF"></path>
                        <path d="M24.365658,55.8928067 L3.36146275,55.8928067 C2.91648519,55.8928067 2.55644913,56.2529917 2.55644913,56.6970752 L2.55644913,72.350417 C2.55644913,72.7945006 2.91648519,73.1546856 3.36146275,73.1546856 L24.365658,73.1546856 C24.810153,73.1546856 25.1706717,72.7945006 25.1706717,72.350417 L25.1706717,56.6970752 C25.1706717,56.2529917 24.810153,55.8928067 24.365658,55.8928067" id="teacher-micromanaging-fill-147" fill="#F4D7E0"></path>
                        <path d="M12.9933928,66.1286669 L12.9933928,63.1502695 L15.8273496,64.6392271 L12.9933928,66.1286669 Z M13.8635604,60.4592487 C11.6174373,60.4592487 9.79505631,62.279943 9.79505631,64.523505 C9.79505631,66.7675493 11.6174373,68.5887257 13.8635604,68.5887257 C16.1092009,68.5887257 17.9315819,66.7675493 17.9315819,64.523505 C17.9315819,62.279943 16.1092009,60.4592487 13.8635604,60.4592487 L13.8635604,60.4592487 Z" id="teacher-micromanaging-fill-149" fill="#F54F71"></path>
                        <path d="M255.769767,403.385133 C255.749014,403.69035 255.696409,404.283908 255.552105,405.048156 L255.552105,405.051049 C255.484055,405.415574 255.398631,405.81819 255.284249,406.247326 C254.431456,409.432577 252.137553,414.025298 245.981226,414.706611 C237.263141,415.673855 222.827432,408.609504 219.048019,408.803338 C215.271501,408.997655 201.030289,409.676558 197.444407,406.091102 C195.388919,404.037517 196.109474,401.471861 197.129737,398.979979 C197.888419,397.134694 198.815053,395.324607 198.897582,393.80238 C199.091596,390.220299 202.582884,382.835783 202.582884,382.835783 L204.856517,384.266879 C204.856517,384.266879 203.803435,386.37061 209.747891,387.21731 C214.83328,387.942984 215.515708,387.581835 218.421575,386.491636 C219.521954,386.082752 220.389225,385.615524 221.115572,385.125151 C222.310061,384.319918 223.109766,383.441395 223.892096,382.627001 C225.151257,381.314037 227.089468,385.283787 229.513196,388.3808 C231.936441,391.478294 243.36638,397.575402 247.631311,399.221067 C251.889968,400.866249 255.863396,401.836386 255.769767,403.385133" id="teacher-micromanaging-fill-151" fill="#090F0C"></path>
                        <path d="M255.282898,406.246651 C254.431553,409.431902 252.138132,414.025587 245.982288,414.708347 C237.263238,415.675109 222.827046,408.610275 219.048598,408.805074 C215.27015,408.996498 201.028455,409.675883 197.444986,406.092837 C195.387568,404.036842 196.108123,401.473115 197.131282,398.981715 C197.956565,400.73828 199.94159,404.010322 203.452665,404.641007 C208.294813,405.512298 217.595423,404.449102 222.245486,406.383107 C226.896033,408.320006 243.561456,412.481179 248.307561,412.190427 C253.054149,411.90064 255.280002,406.240865 255.280002,406.240865 L255.282898,406.246651 Z" id="teacher-micromanaging-fill-153" fill="#252732"></path>
                        <path d="M179.827929,424.724239 C179.63488,425.013062 179.387295,425.31394 179.086621,425.61771 C177.0765,427.672259 172.740624,429.944752 166.712674,429.677145 C159.783186,429.371445 154.300599,427.742657 150.101787,421.478717 C145.902493,415.214776 145.564175,415.188739 143.019791,412.517487 C140.548766,409.923383 138.385171,406.216901 138.153513,401.070643 C138.149652,400.922615 138.142412,400.774588 138.139999,400.620291 C138.018861,395.243554 136.285283,392.44549 140.226375,389.354263 C140.226375,389.354263 140.694518,390.043774 140.411219,391.336969 C140.411219,391.336969 140.021743,392.845213 142.064682,394.173124 C143.156856,394.883369 144.091212,395.119635 145.089757,395.168816 C146.302586,395.233428 147.603736,395.026093 149.382198,395.049237 C149.382198,395.049237 149.171292,393.228061 156.556858,392.152327 C163.942906,391.080451 164.139333,394.262327 165.270599,396.056984 C168.226177,400.744693 172.589563,410.336125 176.60884,413.781269 C178.522436,415.420183 179.680247,417.478107 180.210648,419.421274 L180.211131,419.424167 C180.792208,421.561169 180.610742,423.564607 179.827929,424.724239" id="teacher-micromanaging-fill-155" fill="#090F0C"></path>
                        <path d="M179.827012,424.724721 C178.334262,426.939835 173.639797,429.985255 166.711757,429.678109 C159.7842,429.370963 154.301613,427.743139 150.101353,421.480163 C145.903989,415.21574 145.563258,415.187774 143.020805,412.517969 C140.550262,409.923866 138.383772,406.215455 138.153561,401.071608 C138.923826,403.368691 141.063289,409.015929 144.096569,410.908468 C147.939689,413.303915 154.612422,423.762781 159.810261,426.030452 C162.517289,427.211782 165.480105,427.34438 167.698237,427.199728 C169.72911,427.067129 171.49792,425.772006 172.217027,423.870306 L175.762851,422.610864 C177.245466,423.315805 179.038407,422.682708 179.704908,421.183143 C179.91678,420.706754 180.094867,420.128143 180.210214,419.425132 C180.791291,421.562133 180.610308,423.565572 179.827012,424.724721" id="teacher-micromanaging-fill-157" fill="#252732"></path>
                    </g>
                </g>
            </g>
        </g>
    </g>
</svg>
