<svg width="445" height="465" xmlns="http://www.w3.org/2000/svg" xmlns:xlink="http://www.w3.org/1999/xlink"><defs><path d="M.301 2.843C.14 4.3.771 5.57 1.711 5.681c.94.11 1.834-.98 1.994-2.437.162-1.457-.47-2.726-1.41-2.837a1.176 1.176 0 00-.132-.008C1.273.4.454 1.455.3 2.843z" id="a"/><path d="M2.058.421C.995.436.126 1.637.118 3.106c-.01 1.467.846 2.645 1.909 2.63C3.09 5.721 3.96 4.52 3.968 3.051c.009-1.459-.836-2.63-1.89-2.63h-.02z" id="c"/><path d="M.592 1.856c-.436 1.194-.08 2.368.797 2.622.876.254 1.94-.507 2.375-1.702.437-1.194.08-2.368-.796-2.622a1.269 1.269 0 00-.35-.05C1.827.105.972.818.593 1.857z" id="e"/></defs><g fill="none" fill-rule="evenodd"><path d="M298.907 16.3c-46.85-3.598-98.48 3.912-147.674 21.765-14.96-9.492-33.485.726-52.313 6.447-49.954 15.18-53.448 107.943-83.88 174.072-30.43 66.129 3.628 238.744 66.043 245.69 25.332 2.819 81.5-16.654 93.746-18.486 41.968-3.407 79.29-20.495 122.28-66.358 178.4-190.324-183.89-72.096 9.037-28.92 192.926 43.174 178.88-319.922-7.239-334.21" fill="#E8EFFF"/><path d="M397.51 274.863c-37.353 174.488-190.862 178.932-281.65 135.702-90.787-43.23-134.3-172.648-71.393-283.231C107.374 16.75 147.083-11.075 231.084 3.714c84 14.789 203.78 96.661 166.427 271.149" fill="#B2D2F9"/><path d="M74.221 406.741c-2.309 4.768-3.16 13.639-1.365 16.157 1.783 2.498 11.267 2.88 13.818 2.075 2.551-.815 7.432-.501 11.767.862 4.33 1.372 23.554 2.146 26.894-1.972 3.32-4.144-9.514-7.56-12.89-9.32-3.37-1.754-6.365 2.358-10.592 2.638-4.211.242-27.632-10.44-27.632-10.44M2.967 415.44c-3.494 4.086-2.679 3.113-2.62 6.49.055 3.135 7.968 4.875 10.674 4.746 2.706-.15 5.561.67 8.85 3.906 6.577 6.492 18.457 9.449 23.77 8.654 17.257-2.55 2.403-12.148-.458-14.744-2.85-2.6-13.565.878-17.777.057-4.215-.851-22.439-9.11-22.439-9.11" fill="#000"/><path d="M92.495 394.979c.227 7.787 12.813 14.78 24.441 19.847-6.391 4.263-18.19 5.935-29.42.99-5.99-2.641-11.592.8-12.984-3.023-3.16-8.684 1.603-11.74 1.217-24.873-.371-13.139 16.612 2.678 16.746 7.059" fill="#434656"/><path d="M73.739 404.836c-2.31 4.768-3.16 13.639-1.366 16.157 1.783 2.497 11.267 2.88 13.818 2.074 2.552-.815 7.432-.5 11.767.862 4.33 1.373 23.554 2.147 26.894-1.971 3.32-4.144-9.514-7.56-12.89-9.32-3.37-1.754-6.365 2.358-10.592 2.637-4.21.243-27.631-10.44-27.631-10.44M42.7 422.077c-.63-.576-1.648-.853-2.895-.946-10.39-9.377-11.277-16.305-12.336-25.863-1.071-9.598-.463-43.337-3.669-30.529-2.092 8.412-7.567 7.911-9.195 21.68-.34 2.83-5.055 9.845-7.61 16.147C3.5 406.653.606 417.08 1.699 420.012c1.124 2.926 6.134 4.376 8.84 4.248 2.705-.15 5.56.67 8.85 3.906 6.576 6.491 18.456 9.448 23.77 8.654 17.256-2.55 2.402-12.148-.458-14.743" fill="#434656"/><path d="M112.06 195.505c-2.65 23.655-6.046 112.393-8.175 118.75-2.108 6.353-4.742 19.6-4.742 19.6s-7.697 56.702-6.64 63.054c-8.464 7.42-18.28 6.446-18.28 3.272 0-3.18-10.973-37.19-.391-76.028 6.427-23.588-8.324-61.403-1.974-82.576 6.35-21.19 40.202-46.072 40.202-46.072" fill="#001550"/><path d="M107.298 225.156s-18.514 76.436-22.75 84.904c-4.227 8.473-7.675 6.925-14.102 15.543-15.51 20.822-41.087 75.548-41.087 79.785-8.464 2.822-18.957-10.589-17.555-14.831 1.411-4.232 9.625-67.431 36.777-92.856 0 0 14.03-56.6 7.057-70.558-8.696-17.422 2.592-32.17 18.199-45.927 15.607-13.758 39.28 8.463 39.28 8.463l-5.82 35.477z" fill="#001138"/><path d="M202.253 249.627c-9.84 11.068-15.813 30.683-15.313 38.589.696 11.11 23.719 14.361 23.719 14.361l12.102-2.44c6.474 0 18.154-8.448 26.947-8.448 8.792 0 53.87 12.86 51.077-.078-1.969-9.113-14.086-39.033-22.884-41.484-8.798-2.441-75.648-.5-75.648-.5" fill="#5A6075"/><path d="M289.704 156.657c14.472-.495 11.89 27 21.45 44.803 4.862 9.077 7.567 17.163 6.589 19.47-6.314 14.764-5.846 12.101-28.333 11.208-3.866-.15-12.85-7.25-12.85-7.25l8.32-53.745 4.824-14.486z" fill="#039157"/><path d="M171.096 256.273c.536 10.884 11.571 18.908 24.529 18.005l50.382-3.494c12.478-.862 45.232-11.853 44.851-22.37l-3.124-86.06c-.401-11.193-11.101-19.996-23.987-19.624l-73.611 2.667c-13.525.403-24.1 10.192-23.519 21.798l4.479 89.078z" fill="#A7AABC"/><path d="M164.22 308.744c.742 16.162-5.05 105.979-5.05 105.979h6.05l14.411-105.979h-15.41zM198.928 308.44c.83 18.505-.901 121.965-.901 121.965h6.932l11.607-121.965h-17.638z" fill="#8B90A5"/><path d="M163.272 279.841c0 10.104-.557 26.261.577 29.285 1.144 3.034 31.925 12.834 39.924 13.84 7.99 1.022 110.269-8.174 111.397-13.226 1.15-5.042-33.75-41.087-41.733-42.113-8-1.002-110.165 12.214-110.165 12.214" fill="#CC7425"/><path fill="#997659" d="M302.946 420.461l-17.973-9.664v-9.761h20.386"/><path d="M309.506 272.053c5.814 2.333 9.729 6.725 11.976 21.36 1.974 12.864-8.858 109.997-8.858 109.997l-5.458 1.27s-4.116-90.564-3.209-104.487c2.19-33.878 7.198-27.48 5.549-28.14" fill="#273049"/><path d="M282.817 261.17c14.13 4.99 32.081 11.791 33.974 19.82 2.376 10.016-9.636 123.69-9.636 123.69s-23.796 2.083-23.796.334c0-1.744-1.877-100.9-2.34-103.948-.484-3.045 1.798-39.895 1.798-39.895" fill="#3D4564"/><path fill="#997659" d="M242.922 423.712l-21.8 1.313.932-19.412 24.696-1.313"/><path d="M240.337 269.5c-11.814-5.058-17.968-4.114-23.51 9.432-5.52 13.542-4.55 39.674-3.323 63.107.856 16.049 6.669 66.873 6.669 66.873l9.82.052 18.434-1.976s3.544-86.633 3.544-95.106c0-8.458 2.19-36.453-11.634-42.383" fill="#3D4564"/><path d="M270.664 133.358c-2.134 5.594-5.237 12.163-2.237 18.387 2.392 4.948-8.989 19.64-12.081 19.315-11.411-1.213-27.626-27.99-27.626-27.99s7.138-3.618 8.752-6.394c3.102-5.33 5.545-14.103 6.257-17.045 1.082-4.453 26.935 13.727 26.935 13.727" fill="#997659"/><path d="M283.941 261.16s-76.477 26.493-74.121 19.795c7.323-20.795-5.995-55.948-5.15-62.91 1.113-9.294 1.289-31.107.268-35.214-1.01-4.103-11.586-11.585-11.586-11.585s1.139-18.464 13.75-21.38c12.86-2.972 13.216-3.036 26.163-9.626 0 0 5.68 22.909 26.22 22.042 7.355-.31 3.376 45.344 6.355 49.23 2.762 5.254 18.101 49.648 18.101 49.648" fill="#047A42"/><path d="M270.596 146.474l.068-.092-.075.015c-.552-6.454-3.088-19.01-2.864-19.66l-9.482-3.959.001-.005-.06-.015-.07-.039-.003.015-9.452-6.949c-.334.926-3.928 8.41-5.82 12.181 1.012 2.298-1.05.83.9 4.914.746 3.777 6.471 15.878 13.84 19.52 1.792.885 3.296 2.285 4.162 4.087.923 1.924 1.678 2.244 1.631 5.189a24.72 24.72 0 003.534-.32 1.143 1.143 0 00.939-1.288c-.44-3.29-.137-6.056.407-8.222.788-.601 1.57-1.33 2.35-2.189.135-.61.115-1.742-.006-3.183" fill="#784931"/><path d="M270.452 254.653l-7.92-37.521s-4.32-54.164-3.048-54.85c6.155-3.256 8.103-6.084 5.995-16.539l-.185-2.544c5.937 2.735 11.287 7.555 24.801 12.38 2.711.975-3.37 16.435-3.37 16.435s.803 20.415 1.195 24.636c1.314 14.191 1.547 28.227.97 37.553-.326 5.48-2.124 15.212 1.566 30.219l-20.004-9.769z" fill="#047A42"/><path d="M237.04 104.692c-.69 4.34.972 18.7 1.04 20.58.032.86.978 3.31 1.337 4.143.485 1.124 2.713 3.584 4.332 2.361 1.607-1.208 6.175-20.081 5.598-21.304-.578-1.233-12.307-5.78-12.307-5.78" fill="#3D4564"/><path d="M246.841 110.095c1.237-12.034-.123-23.908 18.38-22.257 23.09 2.04 19.926 15.064 18.952 29.797-.98 14.712-8.54 31.555-20.106 29.269-12.906-2.529-19.143-11.002-19.637-21.498-2.35-1.424-3.882-5.728-3.784-9.418.083-4.81 2.227-8.752 6.195-5.893" fill="#997659"/><path d="M259.263 107.551c-2.742 14.93-2.675 36.231 5.515 38.914 9.937 1.992 14.555-7.807 18.514-17.612 2.907-7.782 5.989-20.734 3.432-29.662-1.71-5.718-3.886-8.731-8.04-9.836-8.34 1.084-17.158 5.899-19.421 18.196" fill="#997659"/><path d="M271.777 87.601l-.298-1.14s-4.526-3.354-3.609-3.256c.526.05 2.485-1.27 3.268 1.279l9.01.485s2.51-.072 4.154 1.538c1.629 1.58 5.094 3.806 5.036 13.273.077 1.29.077 2.719.005 4.262-.258 6.383-2.562 13.076-2.562 13.076l-1.304.59s4.289-14.61-.928-19.632c-5.237-5.026-19.214-2.946-19.214-2.946l6.442-7.529z" fill="#3D4564"/><path d="M238.531 93.69c2.35-3.473 7.876-10.067 10.875-11.017 1.794-2.782 32.147-5.766 35.724 4.809 3.108 3.84 4.958 10.533.892 12.798-9.35 5.202-15.4-.975-20.936-1.388-5.026-.418-8.21 2.131-9.495 3.85-.937 1.27-1.608 9.217-2.465 13.554-.436 2.204-3.397 2.634-4.443.646l-.76-6.2-2.67-1.999-7.856 4.856s-3.566-12.901 1.134-19.909" fill="#3D4564"/><path d="M288.1 93.57c-.222 6.97-4.694 12.916-11.944 13.475l1.973-1.996c-7.976 2.906-12.645 1.704-12.631 1.705.298.032 3.28-1.527 3.28-1.527-4.624.486-10.75.909-14.575-1.898l4.53-8.854 29.366-.905zM268.278 111.634l-.727 2.235s-2.66-1.86-5.947-1.463-3.658.93-3.658.93l-.364-1.523s4.144-3.781 10.696-.18M283.21 113.969l-.318 1.712s-1.702-1.712-4.514-1.65c-2.15.047-3.122.739-3.122.739l-.476-2.154s4.524-2.808 8.43 1.353" fill="#3D4564"/><g transform="translate(276.138 115.223)"><mask id="b" fill="#fff"><use xlink:href="#a"/></mask><path fill="#3D4564" mask="url(#b)" d="M-8.952 13.745l20.543 1.55 1.368-22.952-20.544-1.55z"/></g><g transform="translate(261.239 114.23)"><mask id="d" fill="#fff"><use xlink:href="#c"/></mask><path fill="#3D4564" mask="url(#d)" d="M-8.937 15.156l23.133-1.182L13.022-9l-23.133 1.182z"/></g><g><path d="M276.114 125.549s-5.047 3.405-9.653-.917" fill="#784931"/><path d="M277.02 134.158c-1.553 3.468-2.004 4.795-7.831 4.665-7.662.04-9.223-6.66-9.223-6.66s10.517 6.662 17.054 1.995" fill="#57331F"/><path d="M440.317 244.31c0 .437-.824.762-1.85.762H83.99c-1.02 0-1.839-.325-1.839-.763l20.83-7.105c1.895-.63 2.616-.774 3.636-.774l305.093.042c1.04 0 2.472.19 5.006.804l23.601 7.033zM390.2 438.566h17.023V259.948H390.2zM110.285 438.566h17.018V293.79h-17.018z" fill="#6F7993"/><path fill="#A7AABC" d="M108.737 255.204l1.188 71.422 298.927-2.088-1.884-67.699z"/><path d="M440.894 260.392c0 1.217-.804 2.191-1.802 2.191H82.949c-.983 0-1.797-.974-1.797-2.19v-14.254c0-1.216.814-2.186 1.797-2.186h356.143c.998 0 1.802.97 1.802 2.186v14.253z" fill="#3D4564"/><path d="M326.26 215.366c-7.346.335-27.619 6.471-32.661 5.533-6.877-1.3-7.289-2.578-8.875-2.496-1.937.093-2.824.563-5.244 2.79-3.43 3.202-4.976 7.209-3.817 8.255.402.377 1.602-1.242 2.797-2.795 1.72-2.242 3.214-2.582 3.214-2.582s-1.427 1.881-3.8 4.104c-1.763 1.65-2.03 3.047-1.459 3.552 1.19 1.078 7.464-3.929 7.464-3.929s-6.846 4.889-5.872 5.626c1.978 1.48 7.572-2.34 7.572-2.34s-6.418 2.907-5.893 3.691c.845 1.238 4.595.144 6.892-1.134 2.287-1.3 6.305 1.897 10.539-.387 6.51-3.507 32.032 2.851 37.168-4.414 7.165-10.08-8.025-13.474-8.025-13.474" fill="#997659"/><path fill="#A3A9CE" d="M224.289 240.396h106.164v-8.163H224.289zM380.081 217.138c0 2.238-1.813 4.115-4.07 4.193l-105.633-1.543c-2.9.104-5.259-1.887-5.259-4.444l4.1-83.55c0-2.562 2.36-4.49 5.26-4.31l105.752 2.908c2.25.134 4.069 2.057 4.069 4.3l-4.219 82.446z"/><path fill="#6471A9" d="M327.187 183.394l-9.6 58.412h35.648l-12.336-58.412z"/><path d="M150.305 137.57c.603 15.263-5.795 35.135-7.973 43.973-.253 1.042 12.325 20.956 14.375 23.508 3.112 3.867-6.425 13.82-6.06 10.292.623-6.048-2.577-7.904-7.697-11.534-2.127-1.511-24.328-15.665-23.59-19.863 1.905-11.128 8.791-42.792 13.186-45.876 4.393-3.074 17.42-9.081 17.76-.5" fill="#DAE5ED"/><path d="M157.684 206.361c3.112 3.868 4.626 5.785 5.78 8.679 1.205 3.021 1.947 4.217 1.566 5.991-.397 1.784-2.967 5.786-3.879 7.137-.922 1.36-3.77 4.45-5.321 4.43-1.535-.021.33-2.202 2.236-5.203 1.885-2.997.87-4.265.773-5.208-.108-.96-1.35-3.476-1.35-3.476l-1.401.516s-2.69 3.908-4.167 6.378c-1.478 2.47-4.23 1.856-2.54-1.19 2.277-4.059.618-4.147.984-7.674.624-6.048-1.318-7.992-6.438-11.622-2.128-1.511 11.708-1.31 13.757 1.242" fill="#E8AB5B"/><path d="M174.537 119.988c-9.735.418-23.107 2.625-29.968 29.413-1.4 5.48 1.937-27.633-1.947-36.168-3.43-7.528-6.336-.046-9.375-4.027 4.95-.846 20.429-8.039 25.776-18.759 5.315-10.69 15.514 29.541 15.514 29.541" fill="#DB9B4F"/><path d="M145.887 122.242l-3.955-16.223s-3.101-3.377-17.328 3.98c-13.31 6.896-23.766 16.837-37.488 38.39-16.534 25.994-23.565 28.974-33.12 40.55-3.801 4.626 38.58 32.615 50.371 37.318 3.97 1.588 7-25.5 18.383-44.67 11.389-19.182 12.187-11.494 19.336-22.812 6.181-9.793 8.561-24.446 8.561-24.446l-4.76-12.087z" fill="#FFF"/><path d="M155.272 134.607c-.653 7.982-9.127 30.036-12.279 32.067-3.153 2.016-8.999 3.697-14.963 15.763-2.9 5.863-16.926 47.934-16.926 47.934l-31.168-17.537c10.08-31.381 33.079-57.132 38.817-63.011 6.974-7.136 28.546-42.04 29.406-26.787.473 8.466 7.113 11.57 7.113 11.57" fill="#FFF"/><path d="M155.185 80.088c3.57-17.774 16.601-23.539 30.715-20.712 14.123 2.81 19.66 15.53 16.142 33.315a63.694 63.694 0 01-2.72 9.616c.067 1.692 1.233 5.115 1.65 7.523-.211 1.47-3.226.243-5.338.114-4.944 8.003-15.528 15.745-22.179 12.082-6.985-3.848-21.777-24.159-18.27-41.938" fill="#F1C27D"/><path d="M186.785 81.759l17.4-.269c2.112-3.34-3.174-20.898-24.757-23.921-32.268-4.518-28.585 12.278-31.315 23.674-2.75 11.365 1.328 22.008 1.328 22.008s22.01-.511 19.662-4.718c-1.438-2.604-1.788-11.174 2.23-10.963 1.947.103 3.327 2.594 3.327 2.594l12.125-8.405z" fill="#4F3A60"/><path d="M202.701 76.149c3.616 3.047 8.005 11.276.886 14.54-5.439 2.506-26.8-4.16-23.714 9.499-1.458-.176-8.557-8.518-4-16.784 4.55-8.27 26.828-7.255 26.828-7.255M175.878 62.141c-30.68-15.088-36.212 19.69-37.708 34.09-1.328 12.794 1.832 50.253-7.032 49.078 6.283 3.434 21.798 2.3 30.791-20.332 9.004-22.642-10.383-46.346 3.565-51.77 5.15-2.001 10.384-11.066 10.384-11.066" fill="#4F3A60"/><path d="M201.95 154.175c-12.3-7.616-31.158 67.168-28.186 73.273 2.951 6.09 4.672 8.565 9.102 9.616 13.108 3.084 45.507.483 45.507.483s6.988-13.315 8.77-16.884c3.353-6.694-24.088-5.96-35.39-9.076 0 0 8.294-22.54 8.294-24.411 0-1.871-1.71-29.05-8.098-33.001" fill="#039157"/><path d="M232.568 217.589c8.375-.315 5.437 4.733 11.062 3.191 7.696-2.124 8.03-3.61 9.849-3.666 2.194-.088 3.255.361 6.201 2.666 4.203 3.321 6.326 7.72 5.11 9.008-.412.475-1.932-1.247-3.441-2.908-2.163-2.377-3.873-2.614-3.873-2.614s1.777 1.985 4.686 4.29c2.15 1.707 2.587 3.264 1.989 3.904-1.251 1.345-8.839-3.76-8.839-3.76s8.221 4.915 7.185 5.843c-2.096 1.856-8.807-1.96-8.807-1.96s7.556 2.702 7.03 3.636c-.84 1.495-5.196.592-7.931-.65-2.71-1.243-6.975 2.758-11.987.572-7.731-3.377-11.366 7.456-16.084-1.511-5.3-10.08 7.85-16.041 7.85-16.041" fill="#997659"/><path d="M31.37 410.381c-.377-.601-.708-1.31-1.01-1.942-2.51 1.462-4.801 3.901-6.19 7.038.492.777 1.015 1.63 1.484 2.459M35.112 415.712c-.428-.608-.857-1.217-1.213-1.865-2.48 1.884-4.501 4.689-5.43 8.112.564.769 1.055 1.577 1.603 2.402l.167.048M39.288 420.495c-.49-.562-.977-1.123-1.398-1.732-2.187 1.966-3.746 4.697-4.384 7.89.618.822 1.247 1.587 1.875 2.351M100.863 405.956c-.577-.413-1.152-.943-1.67-1.414-1.768 2.308-2.963 5.435-3.058 8.865.75.53 1.557 1.121 2.305 1.711M106.85 409.606c-.645-.37-1.291-.74-1.888-1.177-1.451 2.758-2.098 6.155-1.493 9.65.836.458 1.622.982 2.467 1.497l.172-.026" fill="#000"/><path d="M29.123 407.783L6.815 397.035a1.45 1.45 0 01-.676-1.934l4.235-8.808a1.446 1.446 0 011.931-.677l22.308 10.748a1.448 1.448 0 01.676 1.933l-4.235 8.81a1.446 1.446 0 01-1.931.676M94.657 400.135l-20.832 3.041a1.448 1.448 0 01-1.641-1.224l-1.165-7.994a1.448 1.448 0 011.224-1.642l20.832-3.04a1.446 1.446 0 011.64 1.223l1.164 7.993a1.448 1.448 0 01-1.222 1.643" fill="#0D2A6B"/><path d="M188.378 94.45s4.6-4.507 11.541 3.03l-.804 1.28s-4.288-5.537-10.737-4.31" fill="#4F3A60"/><path fill="#434656" d="M180.099 94.789l7.92 4.202-.588 1.207-8.014-4.138z"/></g><g transform="translate(188.728 100.324)"><mask id="f" fill="#fff"><use xlink:href="#e"/></mask><path fill="#3D4564" mask="url(#f)" d="M-3.515 5.876L5.068 8.02l2.803-9.265L-.712-3.39z"/></g><g><path d="M186.664 102.296c-.05-2.372 2.188-4.026 4.437-3.726 2.122.283 3.581 2.436 3.255 4.78-.325 2.346-2.315 4.018-4.436 3.728-2.12-.292-3.582-2.437-3.256-4.782m-1.37-.188c-.428 3.09 1.563 5.922 4.438 6.317 2.877.394 5.589-1.968 6.018-5.057.023-.17 2.753.575 2.77.724.183 1.635.815-1.492.76-1.329.06-.18-3.316-.937-3.468-.915-.411-2.278-2.253-4.315-4.524-4.626-2.876-.394-5.565 1.797-5.993 4.886" fill="#434656"/><path d="M157.68 231.644c-2.968-3.553-6.767-1.427-10.611-1.35-2.227-5.37-15.642-11.616-11.262-4.418 3.743 6.154 4.747 9.151 5.474 11.164.773 2.127 2.293 1.972 5.257 1.972 1.948 0 3.69-.932 5.421-2.029.665.474 1.815.87 1.815.87s4.628 3.62 5.783 2.894c.644-.401-.959-2.034-2.52-3.404 1.829 1.473 4.2 3.44 4.695 3.115 1.082-.72-2.413-3.871-2.97-4.623 3.33 4.191 4.412 2.888 4.412 2.888s-2.535-3.521-5.494-7.08" fill="#F1C27D"/><path d="M147.069 230.294c-2.227-5.37-9.05-36.944-9.643-39.313-.598-2.369-1.526-39.185-7.257-57.558 0 0-8.009-9.185-17.203.897-5.943 6.503 3.695 49.55 9.034 57.248 2.376 10.077 9.426 27.11 13.807 34.308 3.742 6.154 4.747 9.151 5.474 11.164" fill="#EDF2F7"/><path d="M181.548 112.202l8.68 4.53s-4.505 7.628-8.68-4.53" fill="#A72F6A"/><path d="M421.111 167.488h-25.07a.96.96 0 00-.96.96v18.684c0 .53.429.96.96.96h25.07c.531 0 .96-.43.96-.96v-18.684a.96.96 0 00-.96-.96" fill="#E5E5E5"/><path d="M420.56 166.993h-25.07a.96.96 0 00-.961.96v18.683c0 .53.43.96.96.96h25.07c.531 0 .961-.43.961-.96v-18.683a.96.96 0 00-.96-.96" fill="#FFF"/><path d="M418.61 168.595h-21.172a.81.81 0 00-.81.81v15.779c0 .447.363.81.81.81h21.172a.81.81 0 00.812-.81v-15.778a.81.81 0 00-.812-.81" fill="#E6C5ED"/><path d="M407.148 178.912v-3.002l2.856 1.501-2.856 1.501zm.876-5.714a4.1 4.1 0 00-4.1 4.097 4.1 4.1 0 008.201 0 4.1 4.1 0 00-4.1-4.097z" fill="#D67DEC"/><path d="M365.27 76.272H330.54a1.33 1.33 0 00-1.332 1.33v25.883c0 .734.597 1.33 1.332 1.33h34.731a1.33 1.33 0 001.332-1.33V77.602a1.33 1.33 0 00-1.332-1.33" fill="#E5E5E5"/><path d="M364.916 75.918h-34.731a1.33 1.33 0 00-1.331 1.33v25.883c0 .735.596 1.33 1.33 1.33h34.732a1.33 1.33 0 001.331-1.33V77.248a1.33 1.33 0 00-1.331-1.33" fill="#FFF"/><path d="M362.215 78.138h-29.33c-.62 0-1.124.502-1.124 1.123v21.858c0 .62.503 1.123 1.124 1.123h29.33c.621 0 1.124-.503 1.124-1.123V79.26c0-.62-.503-1.123-1.124-1.123" fill="#E6F4F1"/><path d="M346.336 92.43v-4.158l3.957 2.08-3.957 2.079zm1.215-7.916a5.68 5.68 0 00-5.682 5.676 5.68 5.68 0 0011.362 0 5.68 5.68 0 00-5.68-5.676z" fill="#27C195"/><path d="M272.041 25.828h-55.327a2.12 2.12 0 00-2.12 2.118v41.232c0 1.17.95 2.118 2.12 2.118h55.327a2.12 2.12 0 002.121-2.118V27.946a2.12 2.12 0 00-2.12-2.118" fill="#E5E5E5"/><path d="M271.572 25.186h-55.328a2.12 2.12 0 00-2.12 2.118v41.232c0 1.17.95 2.118 2.12 2.118h55.328c1.17 0 2.12-.948 2.12-2.118V27.304a2.12 2.12 0 00-2.12-2.118" fill="#FFF"/><path d="M267.27 28.722h-46.724c-.988 0-1.79.8-1.79 1.789V65.33a1.79 1.79 0 001.79 1.789h46.724c.989 0 1.79-.8 1.79-1.789V30.51a1.79 1.79 0 00-1.79-1.788" fill="#F7D7D5"/><path d="M241.973 51.49v-6.625l6.304 3.313-6.304 3.312zm1.935-12.611c-4.996 0-9.05 4.05-9.05 9.042 0 4.99 4.054 9.04 9.05 9.04s9.05-4.05 9.05-9.04c0-4.991-4.054-9.042-9.05-9.042z" fill="#FB5C41"/><path d="M107.24 79.618H82.367a.953.953 0 00-.953.952v18.536c0 .526.427.953.953.953h24.873a.953.953 0 00.953-.953V80.57a.953.953 0 00-.953-.952" fill="#E5E5E5"/><path d="M106.757 79.136H81.885a.953.953 0 00-.954.952v18.536c0 .526.427.953.954.953h24.872a.953.953 0 00.954-.953V80.088a.953.953 0 00-.954-.952" fill="#FFF"/><path d="M104.823 80.725H83.82a.804.804 0 00-.805.805v15.653c0 .444.36.804.805.804h21.004c.445 0 .805-.36.805-.804V81.53a.805.805 0 00-.805-.805" fill="#F4D7E0"/><path d="M93.451 90.961v-2.978l2.834 1.489-2.834 1.49zm.87-5.67a4.068 4.068 0 00-4.068 4.065 4.068 4.068 0 008.136 0 4.068 4.068 0 00-4.068-4.064z" fill="#F54F71"/><path d="M336.227 428.218c-.02.305-.073.898-.217 1.663v.003c-.068.364-.154.767-.268 1.196-.853 3.185-3.147 7.778-9.303 8.46-8.718.966-23.154-6.098-26.933-5.904-3.777.194-18.018.873-21.604-2.712-2.055-2.054-1.335-4.62-.315-7.111.759-1.846 1.686-3.656 1.768-5.178.194-3.582 3.685-10.967 3.685-10.967l2.274 1.431s-1.053 2.104 4.891 2.95c5.086.727 5.768.365 8.674-.725 1.1-.409 1.968-.876 2.694-1.366 1.195-.805 1.994-1.684 2.777-2.498 1.259-1.313 3.197 2.656 5.62 5.753 2.424 3.098 13.854 9.195 18.119 10.84 4.259 1.646 8.232 2.616 8.138 4.165" fill="#090F0C"/><path d="M335.74 431.08c-.85 3.184-3.144 7.778-9.3 8.46-8.72.968-23.155-6.097-26.934-5.902-3.778.191-18.02.87-21.603-2.713-2.058-2.056-1.337-4.62-.314-7.11.825 1.756 2.81 5.028 6.321 5.659 4.842.87 14.143-.192 18.793 1.742 4.65 1.937 21.316 6.098 26.062 5.807 4.747-.29 6.973-5.95 6.973-5.95l.002.006z" fill="#252732"/><path d="M260.286 449.557c-.194.289-.441.59-.742.893-2.01 2.055-6.346 4.327-12.374 4.06-6.93-.306-12.412-1.935-16.61-8.199-4.2-6.264-4.538-6.29-7.083-8.96-2.47-2.595-4.634-6.302-4.866-11.448-.004-.148-.011-.296-.013-.45-.122-5.377-1.855-8.175 2.086-11.266 0 0 .468.69.185 1.983 0 0-.39 1.508 1.653 2.836 1.092.71 2.027.946 3.025.995 1.213.065 2.514-.142 4.293-.12 0 0-.211-1.82 7.174-2.896 7.386-1.072 7.583 2.11 8.714 3.905 2.956 4.687 7.32 14.279 11.338 17.724a11.445 11.445 0 013.602 5.64v.003c.582 2.137.4 4.14-.382 5.3" fill="#090F0C"/><path d="M260.285 449.557c-1.493 2.215-6.188 5.26-13.116 4.954-6.927-.307-12.41-1.935-16.61-8.198-4.197-6.265-4.538-6.293-7.08-8.962-2.471-2.595-4.638-6.303-4.868-11.447.77 2.297 2.91 7.945 5.943 9.837 3.843 2.396 10.516 12.854 15.714 15.122 2.707 1.181 5.67 1.314 7.888 1.17a5.181 5.181 0 004.519-3.33l3.545-1.26c1.483.705 3.276.072 3.942-1.427.212-.477.39-1.055.506-1.758.58 2.137.4 4.14-.383 5.3" fill="#252732"/></g></g></svg>