<?xml version="1.0" encoding="UTF-8"?>
<svg width="477px" height="368px" viewBox="0 0 477 368" version="1.1" xmlns="http://www.w3.org/2000/svg" xmlns:xlink="http://www.w3.org/1999/xlink">
    <!-- Generator: sketchtool 55.2 (78181) - https://sketchapp.com -->
    <title>A0A1B1E5-925A-4920-AA33-A0528D3E4662</title>
    <desc>Created with sketchtool.</desc>
    <defs>
        <polygon id="path-1" points="0.265209266 2.56809873 5.77111201 2.74071624 6.49663457 0.498011407 0.29893912 0.310843767"></polygon>
        <polygon id="path-3" points="0.265209266 2.56809861 5.77111201 2.74071611 6.49663457 0.498011392 0.29893912 0.310182392"></polygon>
        <path d="M2.54428936,0.125660246 C0.126982998,0.368382943 0.278436666,3.20565916 0.364414731,4.16993626 L0.364414731,4.16993626 C0.550920995,6.26317151 1.82802594,7.84715205 3.21888648,7.70760304 L3.21888648,7.70760304 C4.60776291,7.56739265 5.58328326,5.75722365 5.396777,3.66332703 L5.396777,3.66332703 C5.21886854,1.65606984 4.03633946,0.117062439 2.71492275,0.117062439 L2.71492275,0.117062439 C2.65870632,0.117062439 2.60116715,0.119707918 2.54428936,0.125660246 L2.54428936,0.125660246 Z" id="path-5"></path>
        <path d="M2.54428931,0.125660246 C0.126983003,0.368382942 0.278436667,3.20632051 0.36441473,4.1705976 L0.36441473,4.1705976 C0.55092099,6.26317147 1.82868728,7.84715201 3.21888642,7.70760299 L3.21888642,7.70760299 C4.60776282,7.56739261 5.58394452,5.75722362 5.39677689,3.66332701 L5.39677689,3.66332701 C5.21886844,1.65540846 4.03633939,0.117723809 2.71558407,0.117062439 L2.71558407,0.117062439 C2.65870627,0.117062439 2.60182848,0.120369288 2.54428931,0.125660246 L2.54428931,0.125660246 Z" id="path-7"></path>
        <path d="M2.39878801,0.154099154 C0.994038704,0.295632277 0.00793643694,2.12498096 0.19708818,4.24004138 L0.19708818,4.24004138 C0.385578552,6.35642453 1.67591089,7.95627792 3.07999883,7.81408342 L3.07999883,7.81408342 C4.4834254,7.67321167 5.46952766,5.84320161 5.28169866,3.72747983 L5.28169866,3.72747983 C5.10114472,1.70038159 3.90604962,0.145501347 2.57140551,0.144839977 L2.57140551,0.144839977 C2.51386634,0.144839977 2.45632718,0.148146826 2.39878801,0.154099154 L2.39878801,0.154099154 Z" id="path-9"></path>
        <path d="M2.39878794,0.154099141 C0.994700041,0.295632262 0.00793643056,2.12498092 0.197088168,4.24004129 L0.197088168,4.24004129 C0.384917166,6.35642441 1.67591084,7.95627777 3.07999874,7.81408328 L3.07999874,7.81408328 C4.48342527,7.6738729 5.46952751,5.84386287 5.28169851,3.72747976 L5.28169851,3.72747976 C5.10114458,1.70038155 3.90604951,0.145501335 2.57140543,0.145501335 L2.57140543,0.145501335 C2.51452764,0.145501335 2.4563271,0.148146814 2.39878794,0.154099141 L2.39878794,0.154099141 Z" id="path-11"></path>
        <path d="M30.0215546,0.148808188 C25.905851,0.54166182 22.766329,4.03898506 22.3933165,8.30085172 L22.3933165,8.30085172 C22.0923933,8.2466194 17.2934948,8.70098042 17.0613541,8.79224945 L17.0613541,8.79224945 C15.5666585,5.35180401 11.9086228,2.82537156 8.21421164,3.17920438 L8.21421164,3.17920438 C3.53700516,3.62430622 0.115739729,8.07929286 0.58928043,13.1096712 L0.58928043,13.1096712 C1.06215976,18.1387267 5.25193678,21.8675294 9.92980463,21.4211048 L9.92980463,21.4211048 C14.6076725,20.9740189 18.0011604,16.2419183 17.5289424,11.2122014 L17.5289424,11.2122014 C17.5018263,10.9344261 22.2590585,10.5309905 22.4773105,10.6381324 L22.4773105,10.6381324 C23.1968807,15.3801535 27.2365268,18.820599 31.737809,18.3907086 L31.737809,18.3907086 C36.4156768,17.9449454 39.8349581,13.4899588 39.3634015,8.46024183 L39.3634015,8.46024183 C39.2906509,7.69702114 39.1246471,6.96885305 38.8925063,6.27573755 L38.8925063,6.27573755 L48.7403011,5.0720446 L48.3963888,2.75063678 L37.8892085,4.15737024 C36.3144872,1.69839751 33.6795904,0.112432852 30.780807,0.112432852 L30.780807,0.112432852 C30.5294865,0.112432852 30.2761819,0.124337508 30.0215546,0.148808188 L30.0215546,0.148808188 Z M24.624778,9.86565226 C24.2649929,6.04756476 26.7795206,2.67193362 30.2285637,2.34257149 L30.2285637,2.34257149 C33.6782682,2.01387073 36.7767854,4.85313102 37.1359091,8.67320263 L37.1359091,8.67320263 C37.4950329,12.4919515 34.9811666,15.8669213 31.5314621,16.1962834 L31.5314621,16.1962834 C31.348924,16.213479 31.166386,16.2220769 30.9864934,16.2220769 L30.9864934,16.2220769 C27.7616546,16.2227382 24.9647221,13.4833447 24.624778,9.86565226 L24.624778,9.86565226 Z M8.42055944,5.37230624 C11.8689412,5.03037809 14.9687811,7.88418847 15.3279049,11.7022759 L15.3279049,11.7022759 C15.6870287,15.5223475 13.1738237,18.8973172 9.72411918,19.2266793 L9.72411918,19.2266793 C6.2737533,19.5560415 3.17523611,16.7154585 2.81677372,12.8960483 L2.81677372,12.8960483 L2.81545098,12.8960483 C1.85448076,9.17518219 4.76583031,5.73473685 8.42055944,5.37230624 L8.42055944,5.37230624 Z" id="path-13"></path>
        <path d="M30.0208932,0.14880819 C25.9051896,0.54100043 22.7656677,4.03964621 22.3933165,8.30151264 L22.3933165,8.30151264 C22.0923933,8.24661896 17.2934948,8.70031858 17.0613541,8.79291034 L17.0613541,8.79291034 C15.5659972,5.35246509 11.9086228,2.82537142 8.21421164,3.17920422 L8.21421164,3.17920422 C3.53700516,3.62430603 0.115739729,8.07929242 0.58928043,13.1096705 L0.58928043,13.1096705 C1.06215976,18.1387258 5.25193678,21.8675282 9.92914326,21.421765 L9.92914326,21.421765 C14.6070111,20.9746791 18.0011604,16.2419174 17.5289424,11.2122007 L17.5289424,11.2122007 C17.5018263,10.9344255 22.2583971,10.5309899 22.4773105,10.6381318 L22.4773105,10.6381318 C23.1962193,15.3808141 27.2358654,18.8205979 31.737809,18.3907076 L31.737809,18.3907076 C36.4156768,17.9449444 39.8349581,13.489958 39.3634015,8.46024137 L39.3634015,8.46024137 C39.2906509,7.69702072 39.1246471,6.96885267 38.8931677,6.27573721 L38.8931677,6.27573721 L48.7403011,5.07204433 L48.3963888,2.75063664 L37.8892085,4.15737002 C36.3144872,1.69839743 33.6795904,0.112432856 30.780807,0.111771486 L30.780807,0.111771486 C30.5294865,0.111771486 30.2761819,0.124337511 30.0208932,0.14880819 L30.0208932,0.14880819 Z M24.6247783,9.8656524 C24.2643318,6.0475649 26.7795208,2.67193376 30.2285639,2.34257163 L30.2285639,2.34257163 C33.677607,2.01387087 36.7767855,4.85313115 37.1359093,8.67320276 L37.1359093,8.67320276 C37.4950331,12.4919516 34.9811667,15.8669214 31.5308009,16.1962835 L31.5308009,16.1962835 C31.3489242,16.2134792 31.1663862,16.2220771 30.9864936,16.2220771 L30.9864936,16.2220771 C30.9858322,16.2220771 30.9851709,16.2220771 30.9851709,16.2220771 L30.9851709,16.2220771 C27.7603321,16.2227383 24.9647223,13.4833449 24.6247783,9.8656524 L24.6247783,9.8656524 Z M8.4198979,5.37296752 C11.868941,5.03103938 14.9687809,7.88352696 15.3279046,11.7029371 L15.3279046,11.7029371 C15.686367,15.5230086 13.1738235,18.8973168 9.72411899,19.226679 L9.72411899,19.226679 C6.27309179,19.5560411 3.17589739,16.7154581 2.81611226,12.896048 L2.81611226,12.896048 L2.81611226,12.896048 C1.85448069,9.17452065 4.7658302,5.73539812 8.4198979,5.37296752 L8.4198979,5.37296752 Z" id="path-15"></path>
        <path d="M1.06877349,3.17391329 C1.06877349,3.17391329 -0.949065571,2.86108541 3.85181734,6.17454771 L3.85181734,6.17454771 C7.71553934,8.59251541 17.036223,10.3014948 20.0672805,1.40210381 L20.0672805,1.40210381 L21.1029855,0.130289834 C20.2465117,0.2096542 13.5680001,1.22419535 1.06877349,3.17391329 L1.06877349,3.17391329 Z" id="path-17"></path>
        <path d="M0.564148355,4.02112804 C0.453699614,5.97216881 1.51056841,7.59649291 2.92523821,7.64874112 L2.92523821,7.64874112 C4.34056938,7.70231207 5.57865347,6.16264329 5.68910222,4.21027979 L5.68910222,4.21027979 C5.8008737,2.26056176 4.74334353,0.635576286 3.32867373,0.582666706 L3.32867373,0.582666706 C3.30552579,0.582005336 3.28171648,0.581343966 3.25790717,0.581343966 L3.25790717,0.581343966 C1.87167627,0.581343966 0.673274357,2.10183302 0.564148355,4.02112804 L0.564148355,4.02112804 Z" id="path-19"></path>
        <path d="M0.583989439,4.021128 C0.473540692,5.97150737 1.52974817,7.59649283 2.94507941,7.64940241 L2.94507941,7.64940241 C4.36041066,7.70231199 5.59849482,6.1633046 5.70894356,4.21160249 L5.70894356,4.21160249 C5.82071505,2.26056174 4.76318483,0.635576285 3.34917633,0.582666706 L3.34917633,0.582666706 C3.32470565,0.582005336 3.3015577,0.581343966 3.27840976,0.581343966 L3.27840976,0.581343966 C1.89151742,0.581343966 0.692454076,2.10183301 0.583989439,4.021128 L0.583989439,4.021128 Z" id="path-21"></path>
    </defs>
    <g id="desktop" stroke="none" stroke-width="1" fill="none" fill-rule="evenodd">
        <g id="step1" transform="translate(-56.000000, -151.000000)">
            <g id="onboarding-step1" transform="translate(54.000000, 148.000000)">
                <g id="Group-243" transform="translate(-1.098398, 3.295195)">
                    <g id="Group-77" transform="translate(0.000000, 0.482800)">
                        <path d="M321.46683,16.3391489 C268.051964,10.7538815 209.813068,14.2684003 154.904829,26.6327074 C137.393081,17.8173102 116.907154,25.4190939 95.8312845,29.2140334 C39.9131345,39.2833875 40.9951354,117.268799 10.0278202,171.340404 C-20.939495,225.411348 27.1473759,372.73873 98.4238538,381.994599 C127.352827,385.751841 190.094329,372.402093 203.906375,371.525778 C251.393383,370.941788 292.859282,358.576158 339.195507,322.268283 C531.481483,171.598338 126.383921,251.485849 347.885244,298.388206 C569.385905,345.289902 533.663341,38.5267806 321.46683,16.3391489" id="Fill-1" fill="#E8EFFF"></path>
                        <path d="M116.414637,360.33977 C10.9334442,318.958527 2.75564116e-07,163.27401 43.1088049,97.7402051 C86.2176096,32.2064007 152.136923,-13.3097259 248.360924,3.7331108 C344.584924,20.7752862 485.103499,96.3023873 452.172579,241.314977 C419.24232,386.327567 221.89649,401.721013 116.414637,360.33977 Z" id="Fill-3" fill="#B2D2F9"></path>
                        <path d="M65.1082121,156.756869 C65.1082121,156.745626 65.1194554,156.734382 65.1412806,156.723801 L65.1300373,156.745626 C65.1194554,156.756869 65.1082121,156.756869 65.1082121,156.756869" id="Fill-5" fill="#252732"></path>
                        <path d="M100.845785,251.700862 C100.845785,251.700862 80.4630318,298.638271 70.2197376,303.081353 C59.9797502,307.523773 53.8171072,302.412047 53.8171072,302.412047 C53.3733281,301.922633 51.1021845,300.297648 50.6894898,299.640246 C43.7801603,288.654895 43.5890245,259.202778 44.1353159,253.184314 C44.6134862,247.965446 42.4210455,235.520451 42.2986538,230.282403 C42.2722373,229.123683 55.95267,225.988791 55.95267,225.988791 C55.8759511,229.876984 55.7820366,237.917255 58.6113763,245.847078 C61.024053,252.599002 62.6563135,259.661108 63.5471785,264.008291 L63.5471785,264.012259 C64.0789198,266.624008 64.3428063,268.256269 64.3428063,268.256269 C65.5663403,266.134595 67.7951562,264.325748 69.7190807,263.052612 C71.6377143,261.783443 78.7725708,245.028964 78.7725708,245.028964 C86.645516,244.569973 100.845785,251.700862 100.845785,251.700862" id="Fill-7" fill="#FFFFFF"></path>
                        <path d="M62.5683551,281.002651 C62.5471913,272.992141 64.3421487,268.258056 64.3421487,268.258056 C64.3421487,268.258056 64.079585,266.623812 63.5458596,264.012063 C59.380553,274.050994 60.9936338,278.820792 62.5683551,281.002651" id="Fill-9" fill="#E6F1FC"></path>
                        <path d="M37.9029673,201.908252 C38.3989946,204.178073 38.1139443,213.963699 39.3917106,218.218952 C40.66617,222.474867 41.8731698,224.533049 41.8731698,224.533049 L42.6985592,228.982745 L42.83414,229.704961 C42.83414,229.704961 52.6872261,227.98077 54.5073156,226.64811 C54.6574465,226.54229 54.7540065,226.43581 54.7837682,226.333298 C54.7956728,226.292293 54.7983183,226.251288 54.7897205,226.212928 C54.7897205,226.212928 54.7897205,226.206976 54.7864136,226.198378 L54.7864136,226.195733 C54.7778158,226.130918 54.7454087,225.878275 54.8161753,225.505263 L54.8161753,225.496665 C54.8862805,225.126298 55.0476547,224.638868 55.4180217,224.095222 L55.4180217,224.092577 L55.4206672,224.092577 C55.8558485,223.455678 56.5747574,222.738753 57.7586092,222.048944 C61.1620178,220.063512 63.6441383,218.504003 63.7876556,214.815544 C63.9291887,211.12973 63.9291887,208.71573 64.425216,207.297092 C64.9219046,205.881761 62.5105506,200.454561 61.8729902,199.904963 C61.2327843,199.356026 59.0919305,200.419508 59.597217,203.893022 C60.0991966,207.370504 59.7440411,210.348652 59.0363755,210.277886 C58.325403,210.207119 57.8994809,208.292454 57.4034536,205.881761 C56.906765,203.4671 57.1217101,200.844769 57.3326871,199.215154 C57.5476322,197.582232 59.1772472,187.937477 58.7513251,184.745046 C58.325403,181.555921 58.325403,180.915715 56.980177,180.774843 C55.6323055,180.633971 54.6071824,184.801262 54.4610197,187.444096 C54.3432959,189.51749 53.8089092,196.043225 53.1389416,196.108039 C52.1581303,196.207906 52.7249242,184.959991 52.7249242,182.689509 C52.7249242,180.419688 52.5661955,176.628055 50.170053,177.370773 C48.1462616,177.999736 48.6806483,188.293294 48.4696714,190.278726 C48.4696714,190.278726 48.37245,194.674851 47.8526134,195.62061 C47.3327768,196.565707 46.9571188,194.959901 46.8136016,194.248929 C46.6720685,193.541263 46.578154,187.582322 46.8136016,185.31184 C47.0510333,183.045325 47.2626717,180.348921 45.9148002,179.993765 C44.5695741,179.641255 43.4326796,181.059893 43.2918078,186.307862 C43.1509361,191.555831 42.8189285,195.526695 42.8777904,197.15631 C42.9366523,198.789232 41.5180142,198.434077 41.1628587,196.8038 C40.8103486,195.170878 40.66617,188.363399 39.7442206,187.723194 C38.8222712,187.085633 37.0511231,187.582322 36.9076059,190.489703 C36.7660728,193.397085 37.4036332,199.637769 37.9029673,201.908252" id="Fill-11" fill="#F1C27D"></path>
                        <path d="M55.952406,207.537961 C55.952406,207.537961 49.1244251,209.813734 50.2256056,218.037205 C50.2256056,218.037205 48.0536675,216.351374 49.5159559,212.163581 C51.1310208,207.537961 55.952406,207.537961 55.952406,207.537961" id="Fill-13" fill="#C2A875"></path>
                        <path d="M55.9524065,199.828911 C55.9524065,199.828911 52.9425129,197.675491 48.4392466,197.723771 C43.9359802,197.773374 39.4327138,202.227037 39.4327138,202.227037 C39.4327138,202.227037 47.1667712,197.332901 55.9524065,199.828911" id="Fill-15" fill="#C2A875"></path>
                        <path d="M102.23182,250.975867 C92.1631278,252.657069 86.1076268,251.608137 82.5825262,250.161721 C79.1526629,248.756972 78.1169579,246.977226 78.1169579,246.977226 C84.3060557,230.814673 97.4534242,207.914747 97.4534242,207.914747 C97.8257753,208.371092 98.1736558,208.953098 98.4891291,209.638277 C103.06713,219.478135 102.23182,250.975867 102.23182,250.975867" id="Fill-17" fill="#FFFFFF"></path>
                        <path d="M102.231822,250.975859 C92.1631295,252.657061 86.1076281,251.608128 82.5825274,250.161713 L98.4891311,209.638268 C103.067132,219.478127 102.231822,250.975859 102.231822,250.975859" id="Fill-19" fill="#FFFFFF"></path>
                        <path d="M172.112215,480.809931 C172.112215,480.809931 179.491779,496.648414 176.854897,515.957764 C174.218678,535.265793 165.897324,581.676752 165.897324,581.676752 C165.897324,581.676752 154.351131,587.24284 149.085305,583.731628 C145.836657,573.006856 145.673299,525.750666 140.516599,490.329687 L135.601299,415.552579 C135.601299,415.552579 135.261355,415.877973 132.625135,415.743715 C132.74815,425.366645 132.072891,433.257447 129.63376,441.180657 C129.63376,441.180657 120.154347,477.340386 107.516233,497.35145 C107.516233,497.35145 114.563128,499.872591 122.097452,517.150875 C125.361311,524.636258 127.643037,532.511849 128.995538,540.565348 L138.951137,588.041775 C134.765989,592.658797 124.811052,590.641619 118.294576,581.111943 C118.294576,581.111943 86.8034557,526.489416 74.8670548,513.500114 C62.9313152,500.510152 92.3325067,397.648639 91.8516909,380.446412 L115.857428,382.177217 C116.58758,381.099184 117.542598,380.052897 118.750259,379.042324 C135.952486,364.648273 176.851591,364.490206 176.851591,364.490206 C176.851591,364.490206 187.910354,380.16533 188.26088,410.129347 C188.612067,440.088735 176.091015,446.639602 172.112215,480.809931" id="Fill-21" fill="#001550"></path>
                        <path d="M158.244151,256.291098 C158.244151,256.291098 161.34399,301.929576 165.556916,316.438705 C169.769841,330.948495 178.897404,362.54411 180.771726,371.672335 C137.47185,396.832823 89.9372246,387.834888 89.9372246,387.834888 L90.4987275,376.397822 L95.0244805,284.347724 L95.0244805,284.337803 C94.9471002,282.15396 94.4206499,278.06405 93.7672166,273.517795 C93.4127224,271.070727 93.0271439,268.490723 92.6508245,266.001989 C91.7487162,260.011964 90.927295,254.570875 90.8995175,252.850652 C90.6395992,236.933468 94.6415474,218.376095 104.706933,206.671835 C114.771658,194.970882 161.228251,186.604555 161.228251,186.604555 C161.228251,186.604555 172.462277,188.711018 177.904027,198.365693 C183.345116,208.019707 183.524347,210.234634 184.844441,225.649839 C186.062022,239.920875 185.97869,246.98761 185.97869,246.98761 C185.97869,246.98761 175.927193,241.616627 164.977556,249.589438 C162.744772,251.214424 160.473628,253.398267 158.244151,256.291098" id="Fill-23" fill="#FFFFFF"></path>
                        <path d="M148.684645,263.684685 C148.684645,263.684685 143.650298,272.847302 131.949345,274.115147 C120.248392,275.385639 118.960044,271.288453 108.42773,273.630363 C103.597747,274.704428 98.2261023,274.304299 93.7671476,273.51793 C93.4126534,271.070862 93.0270748,268.490859 92.6507554,266.001463 C93.8273322,267.402245 95.4668678,268.638345 97.6612926,268.830803 C103.046165,269.301698 106.788195,265.67144 112.173729,266.844048 C117.555956,268.012689 136.27801,271.990828 148.684645,263.684685" id="Fill-25" fill="#EDF2F7"></path>
                        <path d="M180.772051,371.672335 C137.471515,396.832823 89.9375514,387.834888 89.9375514,387.834888 L90.4990543,376.397822 C101.378586,376.857474 143.689052,377.215275 150.204866,355.533592 C157.692894,330.618472 149.502492,312.833579 151.142027,293.876078 C152.778256,274.918577 140.683788,224.021548 158.395269,209.852363 C158.395269,209.852363 160.473292,253.398268 158.244476,256.291099 C158.244476,256.291099 161.344316,301.929577 165.55658,316.438705 C169.769505,330.948495 178.897068,362.54411 180.772051,371.672335" id="Fill-27" fill="#EDF2F7"></path>
                        <path d="M148.942048,163.274002 L148.942048,187.72947 C145.547238,199.489947 114.710875,220.932876 114.710875,220.932876 L120.466776,179.233515 L148.942048,163.274002 Z" id="Fill-29" fill="#F1C27D"></path>
                        <path d="M148.942048,163.274002 L148.942048,187.72947 C145.547238,199.489947 114.710875,220.932876 114.710875,220.932876 C114.710875,220.932876 126.553361,211.485209 133.383326,195.042235 C135.415054,190.150083 145.416948,175.775874 134.706065,182.754647 C129.925685,185.869698 122.773633,183.744718 120.466776,183.017872 L120.466776,179.233515 L148.942048,163.274002 Z" id="Fill-31" fill="#C2A875"></path>
                        <path d="M91.109299,114.737937 C91.109299,114.737937 78.1166906,152.924102 91.891038,191.766347 C102.052984,220.42482 89.5425141,239.103886 89.5425141,239.103886 C89.5425141,239.103886 120.687076,214.944049 121.880187,197.617485 L119.979411,175.149432 C119.979411,175.149432 104.236827,152.463789 104.945154,142.149067 C105.654142,131.835006 91.109299,114.737937 91.109299,114.737937" id="Fill-33" fill="#4F3A60"></path>
                        <path d="M125.964935,105.450981 C125.964935,105.450981 103.909579,125.004377 102.693981,136.678215 L90.453351,129.992428 C90.453351,129.992428 82.5823902,98.6606982 121.880316,94.1012153 C145.8801,89.9504589 164.447393,107.099776 166.119997,125.591012 C168.063762,145.951941 168.500266,185.149341 172.52933,191.819916 L164.105465,186.675782 C164.105465,186.675782 144.332495,211.805187 137.112983,220.93275 C137.112983,220.93275 123.056232,212.787321 136.011141,194.399258 C144.524292,182.316694 149.863529,162.452454 149.863529,162.452454 L125.964935,105.450981 Z" id="Fill-35" fill="#4F3A60"></path>
                        <path d="M104.223004,162.39882 C104.571546,170.937103 105.250773,176.7393 106.416106,186.604953 C109.985518,216.801111 115.948428,210.950634 115.948428,210.950634 C115.948428,210.950634 120.869679,207.140483 121.880252,197.61742 L119.979476,175.149367 C119.979476,175.149367 104.236893,152.463724 104.94522,142.149001 C105.654208,131.83494 104.223004,162.39882 104.223004,162.39882" id="Fill-37" fill="#31183F"></path>
                        <path d="M100.383684,128.574718 C100.383684,128.574718 100.131702,140.218131 102.904164,153.325156 C105.675964,166.43152 110.212961,176.078259 122.562056,180.291184 C134.911812,184.503447 152.301206,168.127933 154.06574,152.447519 C155.829614,136.766443 151.68481,130.061477 149.781388,124.361793 C141.595615,99.8534151 103.66011,103.297829 100.383684,128.574718" id="Fill-39" fill="#F1C27D"></path>
                        <path d="M143.109492,130.030457 C143.109492,130.030457 142.228547,123.948501 128.755785,127.935899 L129.04811,129.750698 C129.04811,129.750698 136.473308,125.595973 143.109492,130.030457" id="Fill-41" fill="#4F3A60"></path>
                        <path d="M105.227361,134.693977 C105.227361,134.693977 106.128146,127.32698 117.799338,129.109371 L117.996426,130.840175 C117.996426,130.840175 110.152581,128.946674 105.227361,134.693977" id="Fill-43" fill="#4F3A60"></path>
                        <path d="M119.12287,107.031722 C119.12287,107.031722 137.356172,124.796113 159.410867,124.958149 C159.410867,124.958149 157.621862,116.511796 150.539915,110.117012 C143.457968,103.722227 119.131468,105.095231 122.483951,102.770516 C125.185646,100.898179 119.12287,107.031722 119.12287,107.031722" id="Fill-45" fill="#4F3A60"></path>
                        <path d="M126.630475,103.137446 C126.630475,103.137446 108.861455,122.968618 97.679016,130.747648 L99.6148451,111.498482 C99.6148451,111.498482 105.929603,96.7724233 126.630475,103.137446" id="Fill-47" fill="#4F3A60"></path>
                        <path d="M146.672096,323.122378 L106.84904,350.773586 C103.263094,353.262981 98.2929002,352.366825 95.8028431,348.780879 L53.027433,287.174949 C50.5380373,283.589663 51.4348547,278.618808 55.0194786,276.129412 L94.8431957,248.478205 C98.428481,245.988809 103.399336,246.885627 105.888732,250.470912 L148.664803,312.076842 C151.154199,315.662789 150.257381,320.632982 146.672096,323.122378" id="Fill-49" fill="#A3A9CE"></path>
                        <path d="M60.5858964,288.855171 L60.5858964,288.855171 C59.8722784,289.325405 58.9040331,289.126333 58.4337993,288.413377 L55.5019473,283.963681 C55.0317134,283.250063 55.2301243,282.281818 55.9437422,281.811584 C56.6573602,281.34135 57.6256055,281.540422 58.0958393,282.25404 L61.0276913,286.703736 C61.4979252,287.416692 61.2995143,288.385599 60.5858964,288.855171" id="Fill-51" fill="#E8EFFF"></path>
                        <path d="M57.8299717,282.681939 C58.163302,283.187887 58.0230916,283.867113 57.5178052,284.200444 C57.0125187,284.533774 56.3326306,284.393564 55.9993003,283.888277 C55.6666313,283.382991 55.8061803,282.703103 56.3121282,282.369772 C56.8174146,282.037103 57.4973027,282.176652 57.8299717,282.681939" id="Fill-53" fill="#3D4564"></path>
                        <path d="M59.8001894,273.308409 L59.8001894,273.308409 C59.6818042,273.141744 59.7214864,272.908281 59.8888129,272.789234 L63.7928782,270.022725 C63.9595434,269.904339 64.1930069,269.944022 64.3113921,270.111348 C64.4297772,270.278013 64.3900951,270.511477 64.2227685,270.629862 L60.3193646,273.397033 C60.1520381,273.515418 59.9185746,273.475075 59.8001894,273.308409" id="Fill-55" fill="#3D4564"></path>
                        <path d="M61.1474646,298.455662 L61.1474646,298.455662 C61.3147911,298.337938 61.5482546,298.378282 61.6666398,298.54627 L64.4185991,302.460256 C64.536323,302.627583 64.495318,302.861046 64.3279915,302.97877 C64.160665,303.096494 63.9272015,303.05615 63.8094777,302.888824 L61.0575183,298.974176 C60.9397945,298.80685 60.9801381,298.573386 61.1474646,298.455662" id="Fill-57" fill="#3D4564"></path>
                        <path d="M138.890354,298.964592 C138.890354,297.338945 138.890354,297.966585 137.011403,294.633281 C133.188024,296.037369 104.173734,306.653676 104.173734,306.653676 L104.22466,306.904997 C102.712107,307.436077 101.811322,307.752873 101.811322,307.752873 C101.811322,307.752873 97.7736595,310.034598 91.4542717,304.944035 C85.1355453,299.853473 84.1699455,298.098197 79.6937951,296.869372 C76.8115458,296.079697 76.8856192,300.643148 80.3961698,303.276061 C83.9067203,305.908974 84.0819833,310.912236 84.0819833,310.912236 C84.0819833,310.912236 79.8690581,313.018699 76.5344319,315.300424 C73.1991443,317.58215 75.4808699,323.023239 77.2361452,323.375087 C77.2361452,323.375087 76.2712068,328.904138 81.0978831,330.220264 C81.0978831,330.220264 80.6593949,333.906739 84.0819833,334.784377 L138.890354,298.964592 Z" id="Fill-59" fill="#99A1C4"></path>
                        <path d="M104.706801,323.530581 C98.4753753,337.341303 87.5607909,339.475543 87.5607909,339.475543 C83.7513014,339.388242 84.169287,336.75533 84.169287,336.75533 C80.7466988,335.877692 81.1851869,332.191217 81.1851869,332.191217 C76.3585107,330.87443 77.3234491,325.345379 77.3234491,325.345379 C75.5681739,324.994853 73.2864484,319.553103 76.6217359,317.270716 C79.956362,314.988991 84.169287,312.882528 84.169287,312.882528 C84.169287,312.882528 83.9940241,307.879928 80.4834736,305.247015 C76.9722618,302.614102 76.8988498,298.04999 79.781099,298.840327 C84.2572492,300.069152 85.222849,301.824427 91.5415752,306.914989 C97.8609629,312.004891 101.897964,309.723165 101.897964,309.723165 C101.897964,309.723165 133.91884,298.489139 137.742218,297.085051 C140.690604,296.003712 116.512912,321.62782 104.706801,323.530581" id="Fill-61" fill="#F1C27D"></path>
                        <path d="M133.275526,152.923975 C133.275526,152.923975 126.989207,158.413344 119.985301,153.324765" id="Fill-73" fill="#C2A875"></path>
                        <polygon id="Fill-75" fill="#434656" points="100.827399 138.985467 107.025095 139.173296 106.299572 141.41534 100.793669 141.242722"></polygon>
                    </g>
                    <g id="Group-80" transform="translate(100.528196, 139.157754)">
                        <mask id="mask-2" fill="white">
                            <use xlink:href="#path-1"></use>
                        </mask>
                        <g id="Clip-79"></g>
                        <polygon id="Fill-78" fill="#434656" mask="url(#mask-2)" points="-119.733986 397.287086 914.135005 250.574111 786.095153 -651.711478 -247.774499 -504.999165"></polygon>
                    </g>
                    <g id="Group-83" transform="translate(100.528196, 139.157754)">
                        <mask id="mask-4" fill="white">
                            <use xlink:href="#path-3"></use>
                        </mask>
                        <g id="Clip-82"></g>
                        <polygon id="Fill-81" fill="#434656" mask="url(#mask-4)" points="-9.82418406 9.67266443 10.85354 6.73816695 8.98583193 -6.42044517 -11.6912308 -3.48594769"></polygon>
                    </g>
                    <path d="M133.300063,140.020775 C133.486569,142.114672 134.763674,143.697991 136.153873,143.558442 C137.543411,143.418231 138.518931,141.608062 138.332425,139.514166 C138.145918,137.420269 136.868813,135.83695 135.479276,135.976499 C133.062631,136.219222 133.214085,139.056498 133.300063,140.020775" id="Fill-84" fill="#434656"></path>
                    <g id="Group-88" transform="translate(132.935316, 135.850911)">
                        <mask id="mask-6" fill="white">
                            <use xlink:href="#path-5"></use>
                        </mask>
                        <g id="Clip-87"></g>
                        <polygon id="Fill-86" fill="#434656" mask="url(#mask-6)" points="-132.701986 356.936372 787.484178 226.356194 673.523564 -576.715968 -246.663262 -446.13579"></polygon>
                    </g>
                    <g id="Group-91" transform="translate(132.935316, 135.850911)">
                        <mask id="mask-8" fill="white">
                            <use xlink:href="#path-7"></use>
                        </mask>
                        <g id="Clip-90"></g>
                        <polygon id="Fill-89" fill="#434656" mask="url(#mask-8)" points="1.08775481 12.8135764 14.4718937 10.9141224 12.2166229 -4.97991577 -1.16817728 -3.0804618"></polygon>
                    </g>
                    <path d="M111.306941,142.736692 C111.495431,144.852414 112.785763,146.452267 114.189851,146.310734 C115.593939,146.169862 116.580041,144.339852 116.391551,142.22413 C116.203061,140.10907 114.912067,138.508555 113.50864,138.650088 C112.104553,138.791621 111.117789,140.62097 111.306941,142.736692" id="Fill-92" fill="#434656"></path>
                    <g id="Group-96" transform="translate(111.110116, 138.496387)">
                        <mask id="mask-10" fill="white">
                            <use xlink:href="#path-9"></use>
                        </mask>
                        <g id="Clip-95"></g>
                        <polygon id="Fill-94" fill="#434656" mask="url(#mask-10)" points="-116.087061 357.551875 813.657886 225.615888 698.512757 -585.798134 -231.232189 -453.861486"></polygon>
                    </g>
                    <g id="Group-99" transform="translate(111.110116, 138.496387)">
                        <mask id="mask-12" fill="white">
                            <use xlink:href="#path-11"></use>
                        </mask>
                        <g id="Clip-98"></g>
                        <polygon id="Fill-97" fill="#434656" mask="url(#mask-12)" points="-2.88330739 12.9734276 10.6403803 11.0541327 8.3613003 -5.00524623 -5.16238739 -3.08595137"></polygon>
                    </g>
                    <path d="M107.973564,143.456531 C107.011933,139.735003 109.923282,136.294558 113.578673,135.932789 C117.027054,135.590199 120.126233,138.443348 120.485357,142.262758 C120.84448,146.082169 118.331275,149.457138 114.881571,149.786501 C111.431866,150.115863 108.333349,147.27528 107.973564,143.456531 M129.782231,140.426135 C129.422446,136.607386 131.936973,133.231755 135.386017,132.902393 C138.835721,132.573031 141.9349,135.412952 142.294023,139.232363 C142.653147,143.051773 140.138619,146.426743 136.688915,146.756105 C133.239872,147.085467 130.141355,144.245545 129.782231,140.426135 M105.747394,143.668831 C106.220273,148.699209 110.41005,152.42735 115.087257,151.981587 C119.765125,151.534501 123.159274,146.802401 122.686395,141.772684 C122.65994,141.494908 127.416511,141.090811 127.634763,141.197953 C128.354333,145.939974 132.394641,149.381081 136.895262,148.951191 C141.57313,148.504766 144.993073,144.04978 144.520855,139.020063 C144.448104,138.256842 144.2821,137.528674 144.050621,136.835559 L153.898416,135.631866 L153.553842,133.310458 L143.047323,134.717191 C141.335698,132.045258 138.372762,130.403076 135.179669,130.707968 C131.063304,131.100822 127.923782,134.598806 127.551431,138.860673 C127.249846,138.807102 122.450947,139.260801 122.218807,139.352732 C120.724111,135.912286 117.066075,133.385193 113.371664,133.738364 C108.694457,134.184127 105.273192,138.638452 105.747394,143.668831" id="Fill-100" fill="#434656"></path>
                    <g id="Group-104" transform="translate(105.157789, 130.559951)">
                        <mask id="mask-14" fill="white">
                            <use xlink:href="#path-13"></use>
                        </mask>
                        <g id="Clip-103"></g>
                        <polygon id="Fill-102" fill="#434656" mask="url(#mask-14)" points="-111.839795 373.843284 841.16621 238.605742 723.140813 -593.109012 -229.865192 -457.870808"></polygon>
                    </g>
                    <g id="Group-107" transform="translate(105.157789, 130.559951)">
                        <mask id="mask-16" fill="white">
                            <use xlink:href="#path-15"></use>
                        </mask>
                        <g id="Clip-106"></g>
                        <polygon id="Fill-105" fill="#434656" mask="url(#mask-16)" points="-1.73146595 27.5684029 54.582181 19.5770726 50.7713687 -7.28049042 -1.69442924 0.71083991"></polygon>
                    </g>
                    <g id="Group-110" transform="translate(117.062444, 164.289806)">
                        <mask id="mask-18" fill="white">
                            <use xlink:href="#path-17"></use>
                        </mask>
                        <g id="Clip-109"></g>
                        <polygon id="Fill-108" fill="#F9F2E8" mask="url(#mask-18)" points="-5.54075734 -0.721951366 24.7592352 -7.34887581 28.5144925 9.8209431 -1.78550005 16.4478676"></polygon>
                    </g>
                    <g id="Group-167" transform="translate(103.835047, 63.761608)">
                        <path d="M13.7746113,103.692125 C14.3202413,103.656411 17.9974571,99.5360777 19.7037911,99.2821117 C21.4107864,99.0281457 24.9801989,98.0215409 26.9709219,98.6055304 C31.5396641,99.9441428 34.2817031,100.7735 34.2817031,100.7735 M25.3975226,110.742326 C16.4313334,112.019431 13.7342677,103.771489 13.7342677,103.771489 C17.763332,107.734417 21.6574769,107.498969 24.6442225,107.175559 C30.8994572,106.497655 34.2737654,100.903129 34.2737654,100.903129 C33.3213931,102.583008 33.8035316,109.060463 25.3975226,110.742326" id="Fill-111" fill="#A72F6A"></path>
                        <path d="M0.425789842,245.346352 C0.425789842,245.346352 31.1239259,234.112325 34.9466427,232.708237 C37.8956902,231.626236 49.0033944,228.249283 58.6011915,226.757232 C61.4556631,226.314776 64.176538,226.037662 66.5072049,226.037662 C66.5072049,226.037662 66.503898,226.037662 66.503898,226.034355 C66.3669945,225.735416 57.4113874,206.532546 55.6488371,194.750905 C55.6455303,194.746937 55.6455303,194.74363 55.6488371,194.740323 C55.5152404,192.985048 55.4491035,191.984396 55.4491035,191.984396 C64.5555029,180.163734 74.3325312,180.24839 79.4971672,181.420998 C80.4793012,181.641896 81.2941086,181.905121 81.9052142,182.133294 C82.0381496,182.196785 82.1724076,182.263583 82.3053429,182.32972 C82.3053429,182.32972 89.1617626,209.077497 90.9064559,224.808837 C92.4930818,239.118233 94.2417433,247.452814 84.4118054,249.909803 C81.4204303,250.657812 76.1790754,250.983867 69.6526792,251.184262 C67.4198951,251.251061 65.0363187,251.30397 62.5436163,251.356218 C60.1640081,251.405821 57.2744838,251.591666 54.0483224,251.879362 C38.0431757,253.311889 15.0407375,257.251007 3.23396559,259.153768" id="Fill-113" fill="#FFFFFF"></path>
                        <path d="M177.332472,285.359884 C177.332472,285.359884 177.277578,295.511909 178.339738,300.259882 C179.401898,305.009178 175.950209,325.4541 178.339738,338.730436 C180.729928,352.006772 184.978567,357.848651 184.978567,365.548317 C184.978567,373.249306 181.526217,395.818548 182.854248,401.925636 C184.181617,408.032724 182.642609,415.201972 181.155189,419.18474 C179.667768,423.167509 169.577912,485.566419 170.108991,494.859987 C170.640071,504.152893 174.09176,505.746794 172.76373,510.259981 C171.436361,514.773829 167.944328,514.50862 170.088489,519.022468 C172.233311,523.536316 167.91126,525.129556 169.408601,527.784955 C170.905281,530.439694 192.944104,533.095093 198.520112,529.643404 C204.096121,526.191716 200.644432,520.880917 202.237672,519.287677 C203.83025,517.695099 204.096121,512.118429 202.237672,509.99411 C200.378561,507.870452 201.909632,504.418763 203.533956,500.435333 C205.15828,496.452565 201.909632,492.204587 203.533956,488.487028 C205.15828,484.77013 210.734289,446.268492 212.061658,443.878963 C213.389688,441.488773 219.08805,434.068866 220.027856,414.936762 C220.678644,401.6763 230.117713,375.663306 230.117713,375.663306 C230.117713,375.663306 221.75337,426.486923 220.956419,440.161404 C220.16013,453.835884 222.815529,459.279618 222.018579,461.669147 C221.22229,464.058676 221.355225,470.563908 221.620434,473.883323 C221.886305,477.202076 222.018579,480.653765 221.75337,481.450715 C221.48816,482.247005 218.03581,484.77013 218.433955,489.283317 C218.832761,493.797165 223.0814,496.05442 224.541704,499.77198 C226.002009,503.488877 247.110947,501.232284 249.235266,495.524002 C251.359586,489.815058 249.102992,488.354754 250.69557,486.362708 C252.28881,484.371324 249.368201,482.247005 249.235266,478.662381 C249.102992,475.077757 251.359586,470.430973 251.359586,467.11222 C251.359586,463.793467 252.421745,455.694994 253.749115,450.517131 C255.077145,445.339267 256.935594,426.752133 260.122073,416.795211 C263.308553,406.83829 264.502986,400.066526 270.078995,386.126836 C275.655003,372.186485 281.907592,306.089195 277.586202,283.178686 C277.586202,283.178686 188.53872,272.614628 177.332472,285.359884" id="Fill-115" fill="#3D4564"></path>
                        <path d="M249.925858,137.804386 C249.925858,137.804386 256.12157,197.723823 266.038147,206.350068 C275.950756,214.974991 284.684804,211.428065 284.684804,211.428065 C285.356094,211.036534 288.482389,210.020009 289.180134,209.428744 C300.837436,199.555817 311.517895,166.570001 313.043014,159.621651 C314.361124,153.594589 321.890156,138.674749 323.888815,132.840145 C324.329949,131.549151 325.902686,127.104085 325.902686,127.104085 C318.490055,120.918294 312.42794,122.737722 310.904144,122.213256 C310.716315,122.149103 310.621739,122.119341 310.621739,122.119341 C310.621739,122.119341 310.595285,122.233758 310.545682,122.449365 C310.509307,122.578993 310.468963,122.750288 310.412747,122.959281 L310.408117,122.971847 C310.332721,123.254913 310.242775,123.599487 310.127696,124.006891 L310.126374,124.01152 C310.106532,124.075673 310.08603,124.139826 310.068834,124.209931 C310.034443,124.317073 310.000713,124.438765 309.963677,124.554505 L309.927301,124.670245 C308.631678,129.06174 305.398242,138.348693 299.404909,146.242803 C294.297151,152.963642 289.955259,160.308814 287.41097,164.870943 L287.409647,164.875572 C285.88519,167.617611 285.008875,169.356352 285.008875,169.356352 C281.447399,163.838544 283.348837,162.098481 282.071071,157.536352 C281.340919,154.92791 276.326414,137.925417 276.326414,137.925417 C267.654534,134.612616 249.925858,137.804386 249.925858,137.804386" id="Fill-125" fill="#039157"></path>
                        <path d="M282.470882,185.087753 C285.340565,176.105029 285.009219,170.154685 285.009219,170.154685 C285.009219,170.154685 285.884873,168.41396 287.411975,165.671921 C288.519108,178.419161 285.013849,183.198881 282.470882,185.087753" id="Fill-127" fill="#047A42"></path>
                        <path d="M338.258721,105.08755 C336.894976,107.45856 333.737597,118.541794 330.791857,122.863845 C327.849423,127.186558 325.762802,129.068155 325.762802,129.068155 L323.255549,133.767848 L322.847484,134.531068 C322.847484,134.531068 312.402472,129.095271 310.832381,126.951771 C310.702091,126.779815 310.631324,126.626377 310.634631,126.500717 C310.635954,126.450453 310.647197,126.403496 310.671007,126.363814 C310.671007,126.363814 310.672991,126.3572 310.678943,126.347941 L310.680266,126.344634 C310.713334,126.275852 310.838994,126.003367 310.892565,125.56025 L310.895211,125.549668 C310.94812,125.109857 310.940184,124.504703 310.717964,123.763969 L310.718625,123.760662 L310.715318,123.75934 C310.454077,122.889639 309.901834,121.830124 308.81851,120.635029 C305.70412,117.197229 303.47332,114.565639 304.622781,110.374539 C305.773564,106.188069 306.632022,103.479099 306.579112,101.710596 C306.52488,99.9454002 311.159097,94.7119816 312.069803,94.3217734 C312.983155,93.932888 315.008269,95.8865742 313.206698,99.6061175 C311.407772,103.33029 310.748387,106.798513 311.567824,106.971131 C312.389906,107.14441 313.548626,105.147073 314.961973,102.617334 C316.377304,100.084288 317.068436,97.065135 317.410364,95.1603902 C317.750308,93.2516772 319.348177,81.8490019 320.960596,78.4178157 C322.571693,74.9899365 322.799204,74.2710276 324.358714,74.5911305 C325.922192,74.9118948 325.591507,79.9528549 324.816382,82.9713463 C324.21189,85.3403726 322.49299,92.8535327 323.221158,93.1637151 C324.286625,93.6240284 327.647705,80.7994081 328.454576,78.2518119 C329.261447,75.7042158 330.785905,71.5058408 333.211809,73.1910108 C335.259409,74.6156012 331.00085,85.9772717 330.5326,88.2808224 C330.5326,88.2808224 329.079571,93.2496931 329.326923,94.4950523 C329.574275,95.7410729 330.566991,94.0717757 330.981009,93.3257506 C331.390396,92.5810483 333.613921,85.9276689 334.156906,83.2960788 C334.695261,80.6671342 335.416154,77.5666329 337.055689,77.6466586 C338.689934,77.7293299 339.461091,79.7246823 337.754757,85.6644438 C336.047762,91.6048666 335.009411,96.1788996 334.363915,97.9870844 C333.718418,99.7985761 335.435995,99.9037339 336.414161,98.2007069 C337.390342,96.4937116 339.971007,88.9051554 341.2329,88.5136245 C342.494794,88.1267233 344.306285,89.3125592 343.433939,92.6266828 C342.558946,95.9401451 339.625772,102.717201 338.258721,105.08755" id="Fill-129" fill="#997659"></path>
                        <path d="M316.002127,104.991656 C316.002127,104.991656 322.855902,109.972431 318.69787,118.809653 C318.69787,118.809653 321.73488,117.689293 321.582104,112.469763 C321.412793,106.705265 316.002127,104.991656 316.002127,104.991656" id="Fill-131" fill="#784931"></path>
                        <path d="M318.741586,96.3398751 C318.741586,96.3398751 322.885068,94.9926649 327.921398,96.6480733 C332.957728,98.3028204 336.428596,104.901967 336.428596,104.901967 C336.428596,104.901967 329.488844,96.6606394 318.741586,96.3398751" id="Fill-133" fill="#784931"></path>
                        <path d="M282.15792,142.859567 C281.913213,154.051927 282.15792,162.67222 282.15792,162.67222 L270.884873,163.434779 C270.841223,172.642368 269.775095,182.214372 270.224165,195.224837 C270.702335,209.121538 276.880851,239.458567 280.154631,261.377682 C281.87287,272.883531 282.789528,282.073263 281.657925,285.339107 C278.373562,294.827778 268.279076,290.462738 254.166769,290.841703 C235.952646,291.331778 177.810972,296.714005 177.810972,296.714005 C177.810972,296.714005 175.340095,279.134797 177.52989,253.224977 C179.719685,227.313835 178.624457,198.848482 180.084761,186.393567 C181.544404,173.937991 178.23028,174.580181 178.23028,174.580181 C166.891758,156.512222 145.466024,150.698782 145.466024,150.698782 C145.466024,150.698782 157.692105,127.91195 162.801186,121.66399 C167.909606,115.416031 169.136446,111.27784 177.52989,103.668782 C178.905539,102.420777 182.832091,100.621851 187.562207,98.7422385 L187.565514,98.7389317 C191.171302,97.3044208 195.247323,95.8262594 199.006549,94.5127792 C207.086503,91.6880691 215.676373,90.6146661 224.205397,91.3851618 L244.076251,93.1807806 L244.080219,93.1840874 C244.448602,93.3924189 268.067438,106.71968 272.41396,110.314224 C276.79355,113.938531 282.398659,131.667207 282.15792,142.859567" id="Fill-135" fill="#039157"></path>
                        <path d="M267.787347,180.707507 C266.61077,179.369556 269.007574,161.331357 260.540057,148.206475 C260.540057,148.206475 263.098897,206.465875 262.807233,219.603324 C262.5116,232.741434 270.875282,246.937075 249.950206,261.534828 C229.028436,276.132582 211.006773,269.737798 194.182851,267.306602 C184.301987,265.879366 178.5236,264.957417 177.545434,256.199559 C175.827196,267.705408 177.472684,291.876489 177.847019,297.060966 C189.963312,296.369835 196.710606,295.02527 206.227054,294.208479 C222.90283,292.844073 231.100508,292.682699 247.188326,291.148321 C273.729092,290.457189 277.606703,294.498159 281.657592,285.33951 C283.340117,279.789956 280.035252,260.586424 278.246908,249.42118 C274.049195,223.215726 273.813747,228.117799 272.354104,215.662222" id="Fill-137" fill="#047A42"></path>
                        <path d="M264.192136,21.6480872 C264.611444,23.8636759 263.299948,26.4992344 263.299948,26.4992344 C257.399208,43.589029 229.315466,74.0576724 218.838047,82.8056102 C208.357321,91.5568548 202.452612,73.0504062 203.75551,68.2005818 C206.660246,57.4057046 200.886489,55.4566479 197.981753,41.5050529 C196.463909,34.2141126 197.525408,22.4410696 205.68208,13.5582123 C205.68208,13.5582123 205.68208,13.5549055 205.686049,13.5509373 C205.864618,13.2771302 211.598032,4.47099184 222.819492,1.69059338 C234.216877,-1.13808508 243.417852,0.648936005 252.774911,6.60258657 C261.898506,12.4074289 262.116758,11.9279359 264.192136,21.6480872" id="Fill-139" fill="#3D4564"></path>
                        <path d="M264.192141,21.6480865 C264.192141,21.6480865 266.491724,26.5084927 263.040035,36.3179284 C261.616767,40.3641884 262.727207,42.9289802 261.10156,46.6478622 C257.915081,53.938802 253.194885,52.4176516 253.194885,52.4176516 C253.194885,52.4176516 251.601646,23.1077295 264.192141,21.6480865" id="Fill-141" fill="#3D4564"></path>
                        <path d="M198.940347,61.0282878 C202.521664,72.5658826 208.886686,70.5771438 208.886686,70.5771438 C210.876086,89.6741944 206.101659,96.0398779 206.101659,96.0398779 C216.513602,108.53249 228.9705,110.470304 236.33882,110.314882 C238.360627,110.271231 240.000163,110.071498 241.108618,109.88896 C241.987578,109.74412 242.573552,108.92336 242.457812,108.040431 C240.910207,96.2244001 247.654194,84.7529423 247.654194,84.7529423 C210.03284,79.4368525 211.671714,52.275721 211.671714,52.275721 L208.886686,50.2863209 C202.521664,46.3075207 195.359692,49.4906931 198.940347,61.0282878" id="Fill-143" fill="#997659"></path>
                        <path d="M217.480656,73.361843 C226.678986,83.726168 240.516825,86.4437362 248.823629,84.5217958 C249.022702,84.4741772 249.221774,84.4265586 249.41291,84.3743103 L249.416878,84.3743103 C250.661576,84.0403186 251.768048,83.599185 252.695288,83.0614914 C252.993566,82.8868898 253.272002,82.7036904 253.530598,82.5125545 C254.934686,81.4702359 256.199886,79.8154888 257.266014,77.9491034 C260.182655,72.828779 260.202496,67.3943039 259.744828,61.5735889 L258.619177,48.6550539 L258.623145,48.5637849 L259.012692,41.2629244 L259.590729,30.4905343 C259.690596,28.6221648 258.833461,26.815964 257.291146,25.7557884 C257.28321,25.749836 257.274612,25.7438837 257.266014,25.7385927 C237.413017,11.9649067 213.752515,24.4257738 213.752515,24.4257738 C213.752515,24.4257738 203.611071,57.7343376 217.480656,73.361843" id="Fill-145" fill="#997659"></path>
                        <path d="M248.823689,84.5217991 C248.823689,84.5217991 249.030698,84.5337038 249.41297,84.3743137 L249.416276,84.3743137 C249.559794,84.3147904 249.731088,84.2274896 249.926193,84.1044748 L248.823689,84.5217991 Z" id="Fill-147" fill="#EF9168"></path>
                        <path d="M228.380621,65.5991479 C228.380621,65.5991479 240.719135,61.6911142 251.326183,65.8517911 C251.893638,68.9602288 249.211784,71.8742238 239.92483,71.7717115 C228.452049,71.6453899 228.380621,65.5991479 228.380621,65.5991479" id="Fill-149" fill="#57331F"></path>
                        <path d="M235.737107,35.8584754 L235.623351,39.0740549 C235.623351,39.0740549 231.416378,37.6309462 227.236522,39.3948193 C223.057988,41.1593537 222.768969,42.000616 222.768969,42.000616 L221.716068,40.1342306 C221.716068,40.1342306 225.747117,33.5946068 235.737107,35.8584754" id="Fill-151" fill="#3D4564"></path>
                        <path d="M221.716268,21.1459091 C221.716268,21.1459091 220.226202,29.6974198 213.292403,32.879931 C213.292403,32.879931 212.788439,46.7872137 214.910113,53.9386046 L210.367164,53.9379433 L207.826182,30.65839 C207.826182,30.65839 215.936559,16.2656619 221.716268,21.1459091" id="Fill-153" fill="#3D4564"></path>
                        <path d="M214.910377,69.8289396 C214.910377,69.8289396 215.239078,85.8393776 229.724398,92.9894456 C232.179402,94.201075 234.24023,96.117063 235.426066,98.5839721 C236.691267,101.216224 237.471683,105.027697 236.338757,110.314687 C238.405537,110.270375 240.07285,110.062043 241.181967,109.87686 C242.019923,109.73665 242.580103,108.956233 242.46767,108.11431 C240.882367,96.2724849 247.654131,84.7527472 247.654131,84.7527472 C247.654131,84.7527472 227.295848,89.3717533 214.910377,69.8289396" id="Fill-155" fill="#784931"></path>
                        <path d="M257.915276,40.8868686 L257.027718,43.0991503 C257.027718,43.0991503 255.202337,40.3425613 251.407398,39.6673029 C248.50663,39.1507731 247.01458,39.8180952 247.01458,39.8180952 L246.953734,36.7989424 C246.953734,36.7989424 253.787667,34.2500235 257.915276,40.8868686" id="Fill-157" fill="#3D4564"></path>
                        <path d="M247.696648,264.868399 C247.696648,266.769176 245.506853,267.30224 245.506853,267.30224 C244.010834,268.046942 240.883217,266.816795 239.058498,265.233475 C237.916312,264.244066 233.909735,262.394215 231.073781,261.152824 C234.047961,262.882967 236.989733,265.780428 239.179529,267.787685 C242.098814,270.466233 244.777362,272.363703 244.777362,272.363703 C243.317719,275.965522 238.124644,273.185124 235.194115,271.089904 C232.803263,269.37828 226.723953,265.481489 226.53414,265.360458 C226.686916,265.510589 230.28146,269.07934 235.044645,272.363703 C239.909019,275.721477 241.675538,276.243298 241.675538,276.243298 C241.127924,279.162584 237.661024,279.892736 232.733819,277.885479 C227.807938,275.878221 219.413833,269.521135 219.413833,269.521135 C220.143986,271.193078 226.647234,278.089842 228.106877,279.001871 C229.56652,279.914561 229.202105,283.268367 223.727948,281.626186 C218.25313,279.983343 212.202919,271.392812 212.202919,271.392812 C212.202919,271.392812 211.385466,271.42588 210.060743,271.433817 C206.644768,271.443737 199.828031,271.269136 194.795669,269.860418 L194.7917,269.860418 C194.412074,269.754599 194.04303,269.641505 193.68589,269.521135 C193.488802,269.45566 193.295682,269.386216 193.109176,269.313465 C192.853887,269.21426 192.621746,269.077356 192.37241,269.00659 C187.09005,267.501312 176.866597,266.806213 176.866597,266.806213 L176.745566,262.878999 L182.679375,256.897571 C182.303717,256.328793 196.269862,247.420143 196.269862,247.420143 C197.933868,248.953198 200.835297,250.777255 205.11965,250.635061 C212.418526,250.394322 223.731255,251.853965 227.745769,253.069563 C231.760283,254.285161 239.78865,258.788427 241.613369,260.733516 C243.438088,262.677943 247.696648,264.868399 247.696648,264.868399" id="Fill-159" fill="#046334"></path>
                        <path d="M248.808483,263.059942 C248.808483,264.960719 246.618688,265.493783 246.618688,265.493783 C245.12267,266.238485 241.995053,265.008337 240.170333,263.425018 C239.028148,262.436271 235.02157,260.585758 232.185617,259.345028 C235.159796,261.07451 238.101569,263.971971 240.291364,265.979228 C243.21065,268.657776 245.889197,270.555245 245.889197,270.555245 C244.429554,274.157065 239.236479,271.376666 236.30595,269.282109 C233.91576,267.570484 227.835788,263.673032 227.645975,263.552001 C227.798751,263.702132 231.393296,267.270883 236.156481,270.555245 C241.020855,273.913019 242.787373,274.43484 242.787373,274.43484 C242.239759,277.354126 238.772859,278.084278 233.846316,276.077021 C228.919773,274.069764 220.525669,267.712678 220.525669,267.712678 C221.255821,269.384621 227.759069,276.281384 229.218712,277.193413 C230.678355,278.106103 230.313941,281.459909 224.839783,279.817728 C219.364965,278.175547 213.314755,269.584354 213.314755,269.584354 C213.314755,269.584354 212.497302,269.617423 211.172578,269.625359 C207.756603,269.635941 200.939866,269.460678 195.907504,268.051961 L195.903535,268.051961 C195.523909,267.946142 195.154865,267.833047 194.797725,267.712678 C194.600637,267.647203 194.407517,267.577759 194.221011,267.505008 C193.965722,267.405803 193.721015,267.303952 193.484245,267.198133 C187.615911,264.559929 185.914868,259.045428 185.914868,259.045428 L183.809729,255.118215 L183.79121,255.089114 C183.415552,254.520336 194.074848,246.273056 194.074848,246.273056 C195.738854,247.806111 201.947132,248.96946 206.231485,248.826604 C213.530361,248.585866 224.84309,250.04617 228.857604,251.261106 C232.872119,252.476704 240.900486,256.97997 242.725205,258.925059 C244.549924,260.869486 248.808483,263.059942 248.808483,263.059942" id="Fill-161" fill="#997659"></path>
                        <path d="M196.353327,266.618708 C196.353327,266.618708 195.535874,266.651115 194.21115,266.659483 C190.795175,266.669633 183.978438,266.495032 178.945414,265.086314 L178.942107,265.086314 C178.562481,264.979834 178.193437,264.866739 177.836297,264.74637 C177.639209,264.680233 177.446089,264.611451 177.259583,264.538039 C177.004294,264.439494 176.759587,264.337644 176.522817,264.231824 C170.654483,261.592959 168.95344,256.078458 168.95344,256.078458 L166.8483,252.152567 L166.829782,252.123467 C166.454124,251.554028 160.235264,242.167207 147.320036,227.091945 C132.072819,209.289856 127.175376,197.112054 126.080809,190.444786 C125.226981,185.237161 137.955702,161.199016 147.22546,147.086708 C147.228767,147.078772 147.232736,147.072158 147.232736,147.06819 C149.823321,143.123119 152.144729,139.955158 153.81601,138.192608 C153.81601,138.192608 166.669069,141.156206 174.526141,149.035104 L174.529448,149.039072 C177.675584,152.187853 180.022124,156.12631 180.426882,160.968859 C180.426882,160.968859 168.413101,185.229886 156.735296,189.795321 C156.735296,189.795321 167.946174,204.578919 171.282123,223.555601 L180.420268,242.646039 C182.084275,244.178432 184.985704,246.003151 189.270057,245.860296 C196.568933,245.619557 207.881662,247.079861 211.896177,248.294798" id="Fill-163" fill="#039157"></path>
                        <path d="M257.669841,13.8133686 C256.815351,21.6565521 251.248603,27.9752783 243.011243,27.9752783 L245.413338,25.8952706 C236.152839,28.4799034 230.984235,26.7186759 230.999446,26.7213214 C231.333438,26.7828287 234.836713,25.284165 234.836713,25.284165 C229.572211,25.4303277 224.253475,25.5004329 220.176792,22.0017871 L226.06166,12.407958 L257.669841,13.8133686 Z" id="Fill-165" fill="#3D4564"></path>
                    </g>
                    <g id="Group-170" transform="translate(351.848698, 104.766532)">
                        <mask id="mask-20" fill="white">
                            <use xlink:href="#path-19"></use>
                        </mask>
                        <g id="Clip-169"></g>
                        <polygon id="Fill-168" fill="#3D4564" mask="url(#mask-20)" points="-12.2961859 19.4317048 18.5494367 19.4317048 18.5494367 -11.2002967 -12.2961859 -11.2002967"></polygon>
                    </g>
                    <g id="Group-173" transform="translate(330.684856, 104.766532)">
                        <mask id="mask-22" fill="white">
                            <use xlink:href="#path-21"></use>
                        </mask>
                        <g id="Clip-172"></g>
                        <polygon id="Fill-171" fill="#3D4564" mask="url(#mask-22)" points="-12.2763449 19.4317048 18.5692776 19.4317048 18.5692776 -11.2002967 -12.2763449 -11.2002967"></polygon>
                    </g>
                    <g id="Group-242" transform="translate(41.666290, 39.290927)">
                        <path d="M310.086306,77.061677 C310.086306,77.061677 303.799987,82.5510458 296.796082,77.462467" id="Fill-174" fill="#784931"></path>
                        <path d="M376.599144,64.0471098 L354.494184,64.0471098 C354.026596,64.0471098 353.646969,64.4267361 353.646969,64.8943244 L353.646969,81.3829328 C353.646969,81.8505212 354.026596,82.2301474 354.494184,82.2301474 L376.599144,82.2301474 C377.067393,82.2301474 377.446358,81.8505212 377.446358,81.3829328 L377.446358,64.8943244 C377.446358,64.4267361 377.067393,64.0471098 376.599144,64.0471098" id="Fill-176" fill="#E5E5E5"></path>
                        <path d="M376.112829,63.4532028 L354.007869,63.4532028 C353.540281,63.4532028 353.160655,63.8328291 353.160655,64.3004174 L353.160655,80.7890258 C353.160655,81.2566142 353.540281,81.6362404 354.007869,81.6362404 L376.112829,81.6362404 C376.581079,81.6362404 376.960043,81.2566142 376.960043,80.7890258 L376.960043,64.3004174 C376.960043,63.8328291 376.581079,63.4532028 376.112829,63.4532028" id="Fill-178" fill="#FFFFFF"></path>
                        <path d="M374.394182,64.8670117 L355.72636,64.8670117 C355.331522,64.8670117 355.011419,65.1871147 355.011419,65.5826138 L355.011419,79.5070917 C355.011419,79.9019295 355.331522,80.2220324 355.72636,80.2220324 L374.394182,80.2220324 C374.789019,80.2220324 375.109784,79.9019295 375.109784,79.5070917 L375.109784,65.5826138 C375.109784,65.1871147 374.789019,64.8670117 374.394182,64.8670117" id="Fill-180" fill="#FCE1DE"></path>
                        <path d="M364.287265,73.9721529 L364.287265,71.3227058 L366.805761,72.6474293 L364.287265,73.9721529 Z M365.060406,68.9292087 C363.064392,68.9292087 361.444698,70.5489032 361.444698,72.544917 C361.444698,74.5402694 363.064392,76.1606252 365.060406,76.1606252 C367.05642,76.1606252 368.676114,74.5402694 368.676114,72.544917 C368.676114,70.5489032 367.05642,68.9292087 365.060406,68.9292087 L365.060406,68.9292087 Z" id="Fill-182" fill="#FF9988"></path>
                        <path d="M118.954022,1.28477688 L93.7082167,1.28477688 C93.1744914,1.28477688 92.7412942,1.71797408 92.7412942,2.25169948 L92.7412942,21.0835421 C92.7412942,21.6179289 93.1744914,22.0504647 93.7082167,22.0504647 L118.954022,22.0504647 C119.488409,22.0504647 119.921606,21.6179289 119.921606,21.0835421 L119.921606,2.25169948 C119.921606,1.71797408 119.488409,1.28477688 118.954022,1.28477688" id="Fill-184" fill="#E5E5E5"></path>
                        <path d="M117.985181,0.316002446 L92.7400365,0.316002446 C92.2056497,0.316002446 91.7724526,0.749199612 91.7724526,1.28358634 L91.7724526,20.1147663 C91.7724526,20.6491531 92.2056497,21.0823502 92.7400365,21.0823502 L117.985181,21.0823502 C118.519567,21.0823502 118.952765,20.6491531 118.952765,20.1147663 L118.952765,1.28358634 C118.952765,0.749199612 118.519567,0.316002446 117.985181,0.316002446" id="Fill-186" fill="#FFFFFF"></path>
                        <path d="M116.022439,1.93067057 L94.7025243,1.93067057 C94.2514702,1.93067057 93.8857327,2.29640803 93.8857327,2.74746217 L93.8857327,18.6500971 C93.8857327,19.1018126 94.2514702,19.4675501 94.7025243,19.4675501 L116.022439,19.4675501 C116.473493,19.4675501 116.839231,19.1018126 116.839231,18.6500971 L116.839231,2.74746217 C116.839231,2.29640803 116.473493,1.93067057 116.022439,1.93067057" id="Fill-188" fill="#FFF1DC"></path>
                        <path d="M104.479753,12.3294531 L104.479753,9.30368648 L107.35605,10.8162391 L104.479753,12.3294531 Z M105.36202,6.56958395 C103.08294,6.56958395 101.233089,8.41943513 101.233089,10.6991766 C101.233089,12.9782568 103.08294,14.828108 105.36202,14.828108 C107.641761,14.828108 109.492274,12.9782568 109.492274,10.6991766 C109.492274,8.41943513 107.641761,6.56958395 105.36202,6.56958395 L105.36202,6.56958395 Z" id="Fill-190" fill="#FFC965"></path>
                        <path d="M232.582962,5.48070504 L192.897472,5.48070504 C192.057533,5.48070504 191.376322,6.16191586 191.376322,7.00185542 L191.376322,36.6041032 C191.376322,37.4440428 192.057533,38.1252536 192.897472,38.1252536 L232.582962,38.1252536 C233.422902,38.1252536 234.104113,37.4440428 234.104113,36.6041032 L234.104113,7.00185542 C234.104113,6.16191586 233.422902,5.48070504 232.582962,5.48070504" id="Fill-192" fill="#E5E5E5"></path>
                        <path d="M232.178337,5.07634363 L192.492847,5.07634363 C191.652907,5.07634363 190.971696,5.75689307 190.971696,6.59683261 L190.971696,36.1997412 C190.971696,37.0396807 191.652907,37.7202301 192.492847,37.7202301 L232.178337,37.7202301 C233.018277,37.7202301 233.699487,37.0396807 233.699487,36.1997412 L233.699487,6.59683261 C233.699487,5.75689307 233.018277,5.07634363 232.178337,5.07634363" id="Fill-194" fill="#FFFFFF"></path>
                        <path d="M229.092724,7.61461444 L195.578473,7.61461444 C194.868823,7.61461444 194.294093,8.18934472 194.294093,8.89899443 L194.294093,33.8981083 C194.294093,34.6070967 194.868823,35.1824883 195.578473,35.1824883 L229.092724,35.1824883 C229.801712,35.1824883 230.377104,34.6070967 230.377104,33.8981083 L230.377104,8.89899443 C230.377104,8.18934472 229.801712,7.61461444 229.092724,7.61461444" id="Fill-196" fill="#E6F4F1"></path>
                        <path d="M210.947639,23.9612269 L210.947639,19.2046558 L215.469424,21.5829414 L210.947639,23.9612269 Z M212.335855,14.9070753 C208.752553,14.9070753 205.843849,17.8151181 205.843849,21.3984194 C205.843849,24.9817207 208.752553,27.8897635 212.335855,27.8897635 C215.919156,27.8897635 218.827198,24.9817207 218.827198,21.3984194 C218.827198,17.8151181 215.919156,14.9070753 212.335855,14.9070753 L212.335855,14.9070753 Z" id="Fill-198" fill="#27C195"></path>
                        <path d="M215.758109,69.2560583 L166.063449,69.2560583 C165.011871,69.2560583 164.158704,70.1085639 164.158704,71.1601417 L164.158704,108.228592 C164.158704,109.280831 165.011871,110.133337 166.063449,110.133337 L215.758109,110.133337 C216.809687,110.133337 217.662193,109.280831 217.662193,108.228592 L217.662193,71.1601417 C217.662193,70.1085639 216.809687,69.2560583 215.758109,69.2560583" id="Fill-200" fill="#E5E5E5"></path>
                        <path d="M214.793843,68.2917838 L165.099182,68.2917838 C164.047605,68.2917838 163.194438,69.1442894 163.194438,70.1958672 L163.194438,107.264318 C163.194438,108.316557 164.047605,109.169062 165.099182,109.169062 L214.793843,109.169062 C215.845421,109.169062 216.697927,108.316557 216.697927,107.264318 L216.697927,70.1958672 C216.697927,69.1442894 215.845421,68.2917838 214.793843,68.2917838" id="Fill-202" fill="#FFFFFF"></path>
                        <path d="M210.929592,71.4700632 L168.963037,71.4700632 C168.074818,71.4700632 167.355248,72.1902949 167.355248,73.0785145 L167.355248,104.382467 C167.355248,105.270025 168.074818,105.990257 168.963037,105.990257 L210.929592,105.990257 C211.817811,105.990257 212.538043,105.270025 212.538043,104.382467 L212.538043,73.0785145 C212.538043,72.1902949 211.817811,71.4700632 210.929592,71.4700632" id="Fill-204" fill="#F4D7E0"></path>
                        <path d="M188.208563,91.9395832 L188.208563,85.9832874 L193.870549,88.9614353 L188.208563,91.9395832 Z M189.945981,80.6017217 C185.459249,80.6017217 181.817747,84.2432234 181.817747,88.7299557 C181.817747,93.2173493 185.459249,96.8588511 189.945981,96.8588511 C194.433374,96.8588511 198.074876,93.2173493 198.074876,88.7299557 C198.074876,84.2432234 194.433374,80.6017217 189.945981,80.6017217 L189.945981,80.6017217 Z" id="Fill-206" fill="#F54F71"></path>
                        <path d="M29.8915956,77.6477821 L1.7053418,77.6477821 C1.10812496,77.6477821 0.625325079,78.1312434 0.625325079,78.7277989 L0.625325079,99.7527436 C0.625325079,100.349299 1.10812496,100.83276 1.7053418,100.83276 L29.8915956,100.83276 C30.488151,100.83276 30.9716123,100.349299 30.9716123,99.7527436 L30.9716123,78.7277989 C30.9716123,78.1312434 30.488151,77.6477821 29.8915956,77.6477821" id="Fill-208" fill="#E5E5E5"></path>
                        <path d="M29.2715615,77.0901191 L1.08530767,77.0901191 C0.488090837,77.0901191 0.00529095752,77.5735804 0.00529095752,78.1701358 L0.00529095752,99.1950792 C0.00529095752,99.7916347 0.488090837,100.275757 1.08530767,100.275757 L29.2715615,100.275757 C29.8681169,100.275757 30.3515782,99.7916347 30.3515782,99.1950792 L30.3515782,78.1701358 C30.3515782,77.5735804 29.8681169,77.0901191 29.2715615,77.0901191" id="Fill-210" fill="#FFFFFF"></path>
                        <path d="M27.0797842,78.8930753 L3.27642564,78.8930753 C2.77312327,78.8930753 2.36439677,79.3011404 2.36439677,79.8051042 L2.36439677,97.560236 C2.36439677,98.0641997 2.77312327,98.4722648 3.27642564,98.4722648 L27.0797842,98.4722648 C27.5837479,98.4722648 27.991813,98.0641997 27.991813,97.560236 L27.991813,79.8051042 C27.991813,79.3011404 27.5837479,78.8930753 27.0797842,78.8930753" id="Fill-212" fill="#E6C5ED"></path>
                        <path d="M14.1924656,90.5031614 L14.1924656,87.1248848 L17.4040769,88.8140231 L14.1924656,90.5031614 Z M15.1785678,84.072002 C12.6336171,84.072002 10.5681594,86.1374598 10.5681594,88.683072 C10.5681594,91.2280228 12.6336171,93.2934806 15.1785678,93.2934806 C17.7235186,93.2934806 19.7883149,91.2280228 19.7883149,88.683072 C19.7883149,86.1374598 17.7235186,84.072002 15.1785678,84.072002 L15.1785678,84.072002 Z" id="Fill-214" fill="#D67DEC"></path>
                        <path d="M181.646846,180.235032 L164.411552,180.235032 C164.047137,180.235032 163.750844,180.530665 163.750844,180.895741 L163.750844,193.751445 C163.750844,194.116521 164.047137,194.412154 164.411552,194.412154 L181.646846,194.412154 C182.011922,194.412154 182.307554,194.116521 182.307554,193.751445 L182.307554,180.895741 C182.307554,180.530665 182.011922,180.235032 181.646846,180.235032" id="Fill-216" fill="#E5E5E5"></path>
                        <path d="M180.985471,179.573657 L163.750177,179.573657 C163.385762,179.573657 163.089468,179.869289 163.089468,180.234365 L163.089468,193.09007 C163.089468,193.455146 163.385762,193.750778 163.750177,193.750778 L180.985471,193.750778 C181.350547,193.750778 181.646179,193.455146 181.646179,193.09007 L181.646179,180.234365 C181.646179,179.869289 181.350547,179.573657 180.985471,179.573657" id="Fill-218" fill="#FFFFFF"></path>
                        <path d="M179.645349,180.675826 L165.090586,180.675826 C164.782387,180.675826 164.53239,180.925824 164.53239,181.234022 L164.53239,192.090407 C164.53239,192.398605 164.782387,192.648603 165.090586,192.648603 L179.645349,192.648603 C179.953547,192.648603 180.202884,192.398605 180.202884,192.090407 L180.202884,181.234022 C180.202884,180.925824 179.953547,180.675826 179.645349,180.675826" id="Fill-220" fill="#FFF1DC"></path>
                        <path d="M171.765059,187.775243 L171.765059,185.709124 L173.728666,186.742183 L171.765059,187.775243 Z M172.368228,183.842738 C170.812025,183.842738 169.548809,185.105954 169.548809,186.662157 C169.548809,188.21836 170.812025,189.481576 172.368228,189.481576 C173.924431,189.481576 175.186986,188.21836 175.186986,186.662157 C175.186986,185.105954 173.924431,183.842738 172.368228,183.842738 L172.368228,183.842738 Z" id="Fill-222" fill="#FFC965"></path>
                        <path d="M429.804221,175.960068 L401.617966,175.960068 C401.020749,175.960068 400.537288,176.44353 400.537288,177.040085 L400.537288,198.06503 C400.537288,198.661586 401.020749,199.145047 401.617966,199.145047 L429.804221,199.145047 C430.400115,199.145047 430.884237,198.661586 430.884237,198.06503 L430.884237,177.040085 C430.884237,176.44353 430.400115,175.960068 429.804221,175.960068" id="Fill-224" fill="#E5E5E5"></path>
                        <path d="M429.184159,175.402322 L400.997905,175.402322 C400.400688,175.402322 399.917227,175.885783 399.917227,176.482338 L399.917227,197.507282 C399.917227,198.103837 400.400688,198.58796 400.997905,198.58796 L429.184159,198.58796 C429.780053,198.58796 430.264176,198.103837 430.264176,197.507282 L430.264176,176.482338 C430.264176,175.885783 429.780053,175.402322 429.184159,175.402322" id="Fill-226" fill="#FFFFFF"></path>
                        <path d="M426.992128,177.205286 L403.189431,177.205286 C402.685467,177.205286 402.277402,177.613351 402.277402,178.117315 L402.277402,195.872447 C402.277402,196.376411 402.685467,196.784476 403.189431,196.784476 L426.992128,196.784476 C427.496092,196.784476 427.904818,196.376411 427.904818,195.872447 L427.904818,178.117315 C427.904818,177.613351 427.496092,177.205286 426.992128,177.205286" id="Fill-228" fill="#E6C5ED"></path>
                        <path d="M414.105068,188.815439 L414.105068,185.437163 L417.316018,187.126301 L414.105068,188.815439 Z M415.090508,182.38428 C412.546219,182.38428 410.480761,184.449738 410.480761,186.99535 C410.480761,189.540301 412.546219,191.605759 415.090508,191.605759 C417.63612,191.605759 419.701578,189.540301 419.701578,186.99535 C419.701578,184.449738 417.63612,182.38428 415.090508,182.38428 L415.090508,182.38428 Z" id="Fill-230" fill="#D67DEC"></path>
                    </g>
                </g>
            </g>
        </g>
    </g>
</svg>