<svg width="404" height="356" xmlns="http://www.w3.org/2000/svg" xmlns:xlink="http://www.w3.org/1999/xlink"><defs><path id="a" d="M.364.473h108.418v23.348H.364z"/><path id="c" d="M.479.5h113.288V183.98H.479z"/><path id="e" d="M0 .34h75.558V124.44H0z"/></defs><g fill="none" fill-rule="evenodd"><g transform="translate(187)"><mask id="b" fill="#fff"><use xlink:href="#a"/></mask><path d="M86.568 2.084a121.1 121.1 0 0122.214 5.911c-12.864.095-25.61 2.645-37.804 5.499-11.414 2.67-22.624 5.844-34.234 8.027-11.998 1.808-24.2 1.955-36.38 2.3 4.747-4.68 10.32-8.88 17.1-12.401 18.671-9.695 44.92-13.36 69.104-9.336" fill="#E8EFFF" mask="url(#b)"/></g><path d="M62.99 154.68c-.332 4.256-1.104 8.478-2.59 12.606a40.366 40.366 0 01-2.136 3.753 43.993 43.993 0 01-2.655 3.699l-.254.262c-4.043-8.286-7.878-16.648-9.002-25.152-.994-7.523.096-14.61 3.476-21.565a35.537 35.537 0 012.042-3.625c2.431-3.793 5.652-7.372 9.342-10.658-.379 7.408.007 14.753.694 22.155.573 6.168 1.18 12.341 1.082 18.524" fill="#E8EFFF"/><g transform="translate(290 128)"><mask id="d" fill="#fff"><use xlink:href="#c"/></mask><path d="M11.38 139.957c3.134-13.396 6.643-26.772 11.835-39.82 2.683-6.221 5.796-12.334 9.466-18.256a121.71 121.71 0 019.162-12.87C47.32 62.87 53.6 57.178 60.055 51.586c12.61-10.92 25.574-21.91 33.831-35.077.075-.12.15-.239.224-.36 3.068-4.952 5.57-10.262 7.078-15.648a126.607 126.607 0 008.747 3.416c6.603 2.301 3.588 11.708-.92 17.953-7.578 27.5-19.285 54.273-34.998 79.637a326.743 326.743 0 01-6.559 10.157c-10.463 15.564-22.517 30.533-35.877 44.88-9.172 9.85-19.265 19.18-31.102 27.435.33-.932.64-1.867.934-2.803 4.258-13.58 6.754-27.49 9.967-41.219" fill="#E8EFFF" mask="url(#d)"/></g><path d="M63.931 95.043c2.147-5.668 4.68-11.232 8.023-16.563a71.08 71.08 0 011.98-2.992c8.688-12.42 20.552-23.209 35.34-31.974 14.748-8.742 32.377-14.248 50.943-16.724C169.075 25.608 178.03 25.252 187 25c-3.217 3.135-6.058 6.485-8.642 9.992-5.91 8.02-10.407 16.563-17.005 24.313a65.21 65.21 0 01-9.244 8.087 82.285 82.285 0 01-3.032 2.086c-.33.216-.664.429-.999.642-1.96 1.13-3.928 2.248-5.975 3.309-8.46 4.383-17.69 8.058-26.952 11.653-17.982 6.98-35.897 14.018-49.844 24.531A74.494 74.494 0 0060 114c.027-.538.057-1.075.093-1.614.381-5.863 1.697-11.688 3.838-17.343M375.607 120.421c-1.106-.76-2.142-1.57-3.248-2.33.495.34.856.59 1.117.77a28.671 28.671 0 01-1.16-.848 96.016 96.016 0 01-1.508-1.236 88.149 88.149 0 01-6.089-5.593c-1.91-1.93-3.537-3.951-5.313-5.932.786.876 1.075 1.19 1.08 1.18.014-.022-1.405-1.682-1.809-2.248a64.725 64.725 0 01-2.263-3.39 58.626 58.626 0 01-3.497-6.458c-.275-.595-.527-1.192-.784-1.79-.329-.968-.664-1.934-.947-2.908-2.598-8.952-2.557-17.969-4-26.948-.808-5.038-2.26-9.98-4.336-14.918-1.889-4.493-4.792-8.665-8.104-12.805-9.064-11.33-23.298-20.819-39.746-26.964.82-.006 1.639-.002 2.458.012 7.195.127 14.272.426 21.249 1.833 7.785 1.57 14.693 3.54 21.48 6.759 6.5 3.082 12.118 6.766 16.628 11.505 3.869 4.064 6.794 8.815 8.356 13.67 1.75 5.443 2.732 10.763 3.266 16.336.365 3.832.714 7.674 1.63 11.455a26.985 26.985 0 001.748 3.71c1.24 1.472 2.662 2.844 4.186 4.164 2.826 2.248 5.69 4.473 8.365 6.823a35.603 35.603 0 017.806 9.762c3.727 6.872 3.828 14.606-.04 21.266a42.502 42.502 0 01-.645 9.656 44.92 44.92 0 01-.931 4.046l-.129-.057c-5.277-2.532-10.248-5.375-14.82-8.522" fill="#E8EFFF"/><path d="M238.07 313.64c.29-.085.578-.181.86-.28-.394.13-.726.238-.86.28" fill="#C7D9FA"/><g transform="translate(0 176)"><mask id="f" fill="#fff"><use xlink:href="#e"/></mask><path d="M6.264 88.16C1.498 79.076-.937 69.794.334 60.58c.703-5.086 2.632-9.766 5.38-14.187 2.4-3.861 5.425-7.525 8.802-11.091 10.652-11.25 26.782-19.33 39.29-29.507A79.186 79.186 0 0059.884.34c2.382 4.064 4.806 8.114 7.058 12.149a185.145 185.145 0 012.224 4.105.452.452 0 00-.049-.078c-.005.008.176.367.73 1.409.348.725.69 1.451 1.017 2.178 1.476 3.287 2.724 6.591 3.602 9.891.35 1.32.638 2.636.86 3.95-.022-.062-.038-.094-.047-.08-.025.04.02.473.246 1.654.026.619.04 1.236.029 1.85-.056 3.062-.612 6.038-1.51 8.94-1.164 2.873-2.63 5.657-4.317 8.37-.181.292-.366.584-.552.874-4.569 7.113-10.434 13.737-15.84 20.53-2.591 3.255-4.981 6.542-7.08 9.92-2.66 4.28-4.855 8.705-6.398 13.393-2.638 8.012-1.835 16.628 2.058 25.044-6.445-4.388-12.463-9.102-17.775-14.05-7.324-6.82-13.78-14.424-17.876-22.23" fill="#E8EFFF" mask="url(#f)"/></g><path d="M64.534 204c-.025-.22-.048-.419-.068-.609l.014-.391c.009.334.016.668.054 1M64.437 202c.06.144.134.498.125.78-.003.073-.01.146-.014.22-.004-.084-.006-.17-.014-.252-.027-.25-.06-.499-.097-.748M61.227 189c.183.333.355.668.546 1l-.377-.656c-.052-.103-.099-.206-.15-.307l-.019-.037zM60.223 188c.113.183.377.65.554 1l-.055-.102c-.162-.3-.334-.6-.499-.898" fill="#C7D9FA"/><path d="M60.166 188.055c.165.209.337.418.499.628l.055.071.018.026c.052.073.099.146.15.22-.591-.74-.783-.995-.776-1a.275.275 0 01.054.055M64.478 203.05c.036.192.07.384.097.575.008.064.01.13.014.195l-.014.18c-.167-.712-.183-.973-.148-.998.013-.009.03.01.05.048M374.945 119.808c0 .001-.39-.266-.89-.616.642.441.891.614.89.616" fill="#9EBDF7"/><path d="M238.719 313.308c.18-.053.358-.112.533-.173l-.533.173m25.459-11.94c.666-.45.906-.608.904-.605-.003.005-.463.316-.904.604m-227.746-9.745c5.776 16.774 19.277 22.618 41.853 24.639 17.428 1.56 40.402 12.093 56.962 16.385 18.96 4.914 34.4 8.682 53.358 13.596 5.36 1.39 19.203 5.103 27.684 3.25 5.235-.378 8.84-3.17 15.527-5.578 18.8-6.77 31.659-15.874 47.269-24.953 3.937-2.29 7.69-4.695 11.282-7.199.33-.93.64-1.864.934-2.799 4.254-13.56 6.749-27.452 9.959-41.163 3.131-13.378 6.637-26.736 11.826-39.766 2.68-6.214 5.792-12.317 9.458-18.232 2.728-4.4 5.763-8.697 9.155-12.852 5.475-6.134 11.748-11.818 18.2-17.402 12.599-10.905 25.552-21.88 33.804-35.03l.224-.358c3.066-4.946 5.566-10.25 7.073-15.628l-.129-.056c-5.288-2.523-10.27-5.354-14.852-8.49-1.109-.757-2.146-1.563-3.254-2.32l1.118.766c-.396-.278-.904-.64-1.162-.845a96.062 96.062 0 01-1.511-1.23 87.856 87.856 0 01-6.102-5.572c-1.914-1.923-3.544-3.936-5.323-5.91.787.873 1.076 1.185 1.082 1.176.013-.022-1.409-1.676-1.813-2.24a64.434 64.434 0 01-2.268-3.375 58.396 58.396 0 01-3.505-6.434c-.275-.593-.528-1.188-.786-1.783-.33-.965-.666-1.928-.949-2.898-2.604-8.917-2.563-17.899-4.008-26.844-.81-5.019-2.266-9.942-4.346-14.86-1.892-4.476-4.801-8.633-8.12-12.756C325.99 23.575 311.724 14.122 295.242 8c-12.934.095-25.747 2.66-38.006 5.528-11.475 2.686-22.744 5.876-34.417 8.07-12.06 1.82-24.328 1.966-36.573 2.314-3.2 3.153-6.025 6.524-8.596 10.052-5.875 8.067-10.348 16.662-16.91 24.458a65.049 65.049 0 01-9.193 8.137 81.795 81.795 0 01-3.016 2.098c-.327.217-.66.43-.993.645-1.95 1.137-3.906 2.262-5.942 3.33-8.414 4.409-17.593 8.105-26.803 11.722-17.885 7.022-35.7 14.103-49.57 24.68a74.427 74.427 0 00-5.28 4.412c-.364 7.38.008 14.7.67 22.074.552 6.144 1.137 12.295 1.043 18.456-.32 4.24-1.064 8.447-2.496 12.56a40.651 40.651 0 01-2.056 3.738 43.895 43.895 0 01-2.56 3.686c-.08.087-.163.174-.244.26 1.598 3.389 3.23 6.763 4.73 10.13.509 1.14 1 2.283 1.474 3.428.07.152.234.536.343.824.112.28.219.561.337.841l-.233-.553c.226.608.446 1.215.655 1.824.945 2.756 1.711 5.533 2.191 8.319.193 1.113.336 2.228.428 3.34.036.157.082.54.077.845-.001.08-.006.158-.008.238.005.216.009.433.033.648l-.043-.395a29.042 29.042 0 01-.09 1.577c-.227 2.614-.837 5.172-1.707 7.678-1.075 2.488-2.378 4.912-3.848 7.283-.159.255-.319.51-.48.764-3.967 6.22-8.907 12.065-13.502 18.04-2.203 2.863-4.252 5.746-6.081 8.698-2.317 3.738-13.025 13.434-6.493 33.07 1.6 6.427 3.81 9.237 4.349 10.803" fill="#B2D2F9"/><path d="M238.07 313.64c.29-.085.578-.181.86-.28-.394.13-.726.238-.86.28M265 301.989a65.233 65.233 0 011-.977 50.34 50.34 0 01-1 .977" fill="#9EBDF7"/><path d="M219 69c-22.644 0-41 39.446-41 71.294 0 16.852 5.14 28.198 13.334 35.148l51.88 2.558C253.39 171.431 260 159.402 260 140.294 260 108.446 241.644 69 219 69" fill="#31183F"/><path d="M253.208 160.41c-16.375-2.236-23.251-5.088-23.251-21.41h-18.419c0 16.322-6.3 17.321-23.965 13.076-24.888-5.98-17.3 22.391-19.573 37.295L225.485 201 282 193.523c-2.272-14.904-3.39-29.642-28.792-33.113" fill="#F1C27D"/><path d="M224.266 139h-12.25c0 .246-.483 5.905-.483 5.905-1.997 10.45-8.35 10.68-23.68 7.058a28.124 28.124 0 00-3.853-.64c20.072 6.61 32.748 12.296 38.241-3.466.482.041.935.048 1.355.02 1.984-.132 4.547-1.14 7.404-2.852-.278-1.772-.412-3.769-.412-6.025h-6.322z" fill="#C2A875"/><path d="M213.32 57.743c-16.274 3.343-25.394 13.89-25.32 42.546.063 23.924 16.803 41.711 31.424 41.711C232.786 142 252 122.328 252 94.939c0-29.634-19.6-41.117-38.68-37.196" fill="#F1C27D"/><path d="M272.164 196.484c15.19-37.092-19.44-35.775-22.398-36.583-8.464 8.671-23.488 38.376-23.488 38.376s-16.79-34.292-29.477-44.52c0 0-33.899-8.053-41.62 3.369-6.13 9.07 13.594 45.383 13.594 45.383 19.24 44.564 15.663 50.758.427 101.491h100.56l-11.955-45.449c-.737-9.936-1.996-17.529 1.782-25.012.375-.494.744-.964 1.107-1.417 0 0 2.249-13.128 11.468-35.638" fill="#FFF"/><path d="M266.252 179c.126.803 5.594 40.009-12.379 40.744-18.202.744-35.924 1.732-56.905-2.743-20.98-4.473-25.315-22.65-25.315-22.65L169 201.715c2.814 5.003 3.466 9.525 5.663 13.673 1.286 2.444 2.464 4.93 3.765 7.364 3.004 5.624 4.855 5.624 14.03 9.017 15.38 6.768 64.15.841 67.048.618 1.32-1.729 2.74-3.37 4.182-5.001.514-.58 4.867-5.673 4.432-5.62 3.7-6.152 4.578-14.78-1.868-42.765" fill="#E6F1FC"/><path d="M197.566 94.139c.207-4.379 3.594-7.795 7.55-7.614 3.955.182 7.005 3.893 6.798 8.272-.207 4.379-3.593 7.794-7.548 7.613-3.957-.182-7.007-3.893-6.8-8.271m25.097.063c.206-4.378 3.593-7.794 7.549-7.612 3.955.181 7.006 3.891 6.799 8.27-.207 4.38-3.594 7.795-7.55 7.613-3.955-.18-7.005-3.891-6.798-8.27m-27.65-.182c-.273 5.768 3.869 10.66 9.233 10.905 5.365.246 9.965-4.563 10.237-10.33.014-.32 5.396-.021 5.626.135.053 5.48 4.072 10.022 9.234 10.26 5.364.245 9.949-4.246 10.221-10.013.041-.875-.03-1.726-.18-2.548l10.497.482.119-2.517-11.412-.523c-1.507-3.297-4.596-5.63-8.258-5.799-4.72-.216-8.835 3.237-9.94 8-.333-.11-5.77-.357-6.048-.29-1.138-4.133-4.871-7.58-9.108-7.773-5.364-.246-9.95 4.244-10.221 10.011" fill="#434656"/><path fill="#434656" d="M186.37 87L198 88.651 197.631 91 186 89.35z"/><path d="M228.01 93.378c-.13 2.485 1.103 4.553 2.755 4.62 1.652.067 3.096-1.892 3.226-4.377.13-2.484-1.104-4.552-2.756-4.62-1.652-.067-3.096 1.893-3.226 4.377M202.01 93.379c-.13 2.484 1.103 4.552 2.755 4.62 1.652.067 3.096-1.893 3.226-4.378.13-2.484-1.104-4.552-2.756-4.62-1.652-.066-3.096 1.893-3.226 4.378" fill="#3D4564"/><path d="M210 77.013C201.397 76.678 197 83 197 83M241 84c-3.588-6.98-9.732-7.12-13-6.97" stroke="#4F3A60" stroke-width="2" stroke-linecap="round"/><path d="M194.019 112.822c.25 4.138 2.907 7.349 5.934 7.17 3.027-.177 5.279-3.676 5.028-7.815-.25-4.138-2.907-7.347-5.934-7.17-3.027.178-5.278 3.677-5.028 7.815M233.011 112.251c-.194 4.14 2.107 7.608 5.139 7.745 3.031.137 5.645-3.107 5.839-7.247.194-4.14-2.107-7.607-5.139-7.745-3.03-.137-5.645 3.107-5.839 7.247" fill="#E8B77C"/><path d="M228.553 128.463c-.04.017-.08.028-.12.044l.133.03-.013-.074z" fill="#A72E69"/><path d="M225.103 123.118c-1.887-.713-4.926 2.042-5.609 2.042-.689.06-1.78-.919-2.72-1.508-.94-.589-2.163-.725-3.015-.238 0 0-2.907.87-3.759 3.975 1.338 1.633 2.656 3.403 9.229 3.611 8.43-.059 8.625-1.732 9.771-2.907 0 0-.364-3.64-3.897-4.975" fill="#A72E69"/><path d="M230 128c-2.787-2.359-16.327-2.725-20-.596" stroke="#840D4C" stroke-linecap="round"/><path d="M212 111.743s4.626 4.27 7.12 4.257c2.493-.014 5.158-3.39 5.158-3.39L225 111s-5.879 4.999-12.428.365" fill="#C2A875"/><path d="M353.253 145.817c.339-.92.68-1.857.739-2.834.06-.977-.201-2.017-.916-2.702-.128-.122-.275-.235-.45-.27-.472-.092-.837.392-1.03.822-.91 2.041-.954 4.353-1.692 6.459-1.442 4.116-5.278 6.899-8.904 9.416.575.558 1.539.21 2.252-.166l4.489-2.369c3.138-1.656 4.363-5.225 5.512-8.356" fill="#F1C27D"/><path d="M348.992 150.227c.997-2.07 1.37-4.487.586-6.636-.326-.893-1.203-1.86-2.135-1.522-.538.195-.823.772-.856 1.316-.035.543.123 1.079.203 1.618.403 2.743-1.266 5.403-3.321 7.378-2.056 1.975-4.548 3.527-6.469 5.619.264-.288 3.046-.255 3.608-.38 1.292-.284 2.847-.694 3.908-1.474 1.785-1.313 3.549-3.993 4.476-5.92" fill="#F1C27D"/><path d="M342.653 144.963c-.067-.272-.152-.556-.35-.747-.416-.404-1.12-.19-1.53.222-.945.955-.883 2.515-.972 3.886-.291 4.463-2.858 8.423-5.801 11.676a9.867 9.867 0 004.318-1.175c1.25-.672 3.206-4.796 3.796-6.305.929-2.375 1.16-5.066.54-7.557M330.29 151.472c-.258-.723-.76-1.595-1.511-1.457-.448.082-.745.52-.886.954-.557 1.72.562 3.61.166 5.374-.274 1.22-1.218 2.154-1.884 3.212a7.736 7.736 0 00-1.058 5.43c.051.29 7.355-3.552 7.781-5.02.632-2.175-1.856-6.387-2.608-8.493" fill="#F1C27D"/><path d="M323 198.054c1.416-2.762 1.041-6.037.74-9.114a132.64 132.64 0 01-.302-22.354c.33-4.648 6.283-8.256 10.637-10.113 4.352-1.856 9.02-3.067 13.06-5.511A23.9 23.9 0 00355.72 142c.715-.025 1.259.713 1.28 1.415.02.702-.329 1.356-.67 1.974-2.3 4.168-4.706 8.463-8.529 11.359-3.67 2.781-7.155 5.244-10.691 8.189-.928.772-1.876 1.586-2.396 2.665-.523 1.082-.562 2.323-.525 3.52.31 9.953 5.238 19.615 3.945 29.49-.075.569-.195 1.183-.633 1.56-.387.335-.932.408-1.443.468-2.507.29-5.062.579-7.542.114-2.48-.464-4.385-2.484-5.515-4.7" fill="#F1C27D"/><path d="M268.477 198.252c11.646 10.919 31.127 23.879 44.3 29.767 5.875 2.626 12.04 5.17 18.463 4.97 2.677-.083 5.474-.717 7.455-2.533 3.06-2.806 3.336-7.487 3.303-11.657-.102-12.514-1.072-25.468-2.88-37.85-6.44.94-13.454-.639-18.492-4.792-1.485 9.34-3.283 18.436-4.4 27.827-15.572-12.607-31.33-26.706-45.895-40.482-1.17.104-2.121-1.68-4.331-1.487" fill="#FFF"/><path d="M320 177s-.535 1.658-1.19 4.16c-.334 1.25-.7 2.713-1.064 4.285-.176.787-.376 1.597-.545 2.426l-.522 2.512c-.156.844-.313 1.69-.465 2.52-.16.832-.271 1.656-.402 2.45a77.427 77.427 0 00-.549 4.364C315.005 202.279 315 204 315 204s.118-.419.302-1.152a238.08 238.08 0 001.684-7.336c.165-.787.353-1.597.514-2.427l.509-2.51.475-2.515c.163-.829.29-1.65.43-2.442.27-1.586.495-3.07.657-4.348.34-2.551.429-4.27.429-4.27" fill="#FFF"/><path d="M270 164c-2.334 2.632-2.895 6.508-3.46 10.034-1.324 8.263.037 16.708 1.396 24.966-.687-11.602-.24-23.623 2.064-35M310 221c.705-2.566-.311-5.748.553-8.57.828-2.7 2.298-5.577 4.447-7.43-1.54 5.364-3.518 10.606-5 16M288 206.223c3.138.322 6.318.242 9.435-.236 4.253-.651 8.422-2.042 12.728-1.985 1.33.017 2.639.162 3.837.69-2.01 2.079-9.735 1.879-12.731 2.158-4.647.432-8.707-.16-13.269-.627" fill="#E6F1FC"/><path d="M256.79 356h-75.617s-14.958-42.405-11.712-53h100.975c3.892 9.128-13.645 53-13.645 53" fill="#006CDD"/><path d="M263.556 103.439c-2.692-12.392-1.995-25.529-6.925-37.208-8.844-20.951-26.301-20.497-38.321-18.092-8.06-.767-12.236-1.355-16.234-.63-7.429 1.346-21.338.111-28.756 29.993-3.089 12.445-5.354 67.191-.526 77.788 6.318 13.87 5.053 26.015 19.236 28.687 3.565.673-10.284-13.71-1.693-19.741 10.194-7.159 4.3-55.404 3.255-58.358-1.27-3.59-1.867-8.087-1.747-12.822 3.834-16.678 13.144-30.288 31.474-31.844 9.909 6.037 16.946 13.52 21.776 21.704.027 9.249 6.332 35.052 4.23 45.21-2.38 11.512-7.386 14.563-6.052 30.66 6.64 1.973 21.006 4.033 21.006 4.033s4.317-30.51-.723-59.38z" fill="#4F3A60"/><path d="M80.42 123.708c-.228-.95-.458-1.916-.415-2.892.044-.978.4-1.985 1.152-2.591.135-.109.287-.205.457-.222.46-.044.76.475.899.922.66 2.12.464 4.422.953 6.59.954 4.237 4.33 7.395 7.534 10.267-.606.496-1.49.051-2.132-.396l-4.044-2.812c-2.826-1.967-3.63-5.639-4.405-8.866" fill="#F1C27D"/><path d="M84.558 128.077c-.719-2.16-.817-4.6.144-6.662.399-.855 1.323-1.73 2.162-1.303.485.247.691.85.667 1.394-.025.544-.23 1.061-.36 1.59-.666 2.69.622 5.503 2.345 7.67 1.723 2.17 3.9 3.961 5.484 6.234-.219-.313-2.832-.555-3.347-.735-1.183-.412-2.6-.973-3.513-1.854-1.539-1.484-2.914-4.325-3.582-6.334" fill="#F1C27D"/><path d="M89.715 123.876c.097-.267.213-.543.434-.715.467-.36 1.164-.067 1.54.394.867 1.068.642 2.634.592 4.026-.163 4.534 2.05 8.813 4.719 12.419a10.277 10.277 0 01-4.286-1.663c-1.206-.817-2.779-5.193-3.226-6.78-.704-2.498-.662-5.237.227-7.681M101.26 131.297c.307-.676.856-1.474 1.534-1.262.406.126.638.583.725 1.02.347 1.733-.867 3.457-.672 5.215.136 1.217.915 2.224 1.428 3.322a7.977 7.977 0 01.45 5.396c-.075.276-6.438-4.216-6.69-5.69-.372-2.182 2.328-6.028 3.225-8" fill="#F1C27D"/><path d="M104.07 179.799c-1.117-2.926-.393-6.18.237-9.246a135.528 135.528 0 002.69-22.455c.166-4.71-5.382-8.96-9.523-11.28-4.14-2.319-8.664-4.023-12.429-6.902a24.008 24.008 0 01-7.598-9.906c-.71-.1-1.332.587-1.428 1.29-.095.705.183 1.4.458 2.056 1.846 4.432 3.786 9.002 7.286 12.314 3.361 3.179 6.573 6.019 9.782 9.348.843.874 1.7 1.79 2.104 2.931.405 1.143.311 2.395.147 3.595-1.373 9.98-7.317 19.187-7.083 29.256.013.58.068 1.21.464 1.636.35.376.885.507 1.388.62 2.469.552 4.984 1.109 7.505.899 2.522-.21 4.636-2.044 6-4.156" fill="#F1C27D"/><path d="M162 187.066c-12.778 9.558-36.699 20.31-50.478 24.742-6.145 1.977-12.57 3.842-18.97 2.973-2.666-.362-5.394-1.28-7.186-3.282-2.764-3.09-2.552-7.74-2.083-11.851 1.407-12.342 3.728-25.026 6.826-37.058 6.339 1.602 13.513.778 18.98-2.793.51 9.374 1.358 18.54 1.494 27.926C127.46 176.91 144.957 165.072 160.95 153" fill="#FFF"/><path d="M109.094 159s.32 1.74.655 4.352c.173 1.307.354 2.832.518 4.47.077.818.175 1.663.239 2.523l.208 2.611.15 2.615c.056.861.066 1.713.098 2.535.044 1.646.051 3.183.015 4.502-.053 2.637-.251 4.392-.251 4.392s-.064-.437-.155-1.202a256.329 256.329 0 01-.757-7.638c-.065-.819-.151-1.663-.208-2.523-.064-.86-.13-1.733-.194-2.607l-.162-2.61c-.058-.86-.084-1.709-.126-2.53a114.971 114.971 0 01-.12-4.495c-.027-2.635.09-4.395.09-4.395" fill="#FFF"/><path d="M159 153c2.27 2.424 2.843 6.17 3.416 9.572 1.346 7.978.109 16.293-1.129 24.428.561-11.354.028-23.048-2.287-34M114.476 204c-.456-2.557.971-5.535.377-8.356-.57-2.699-1.796-5.634-3.853-7.644 1.022 5.35 2.518 10.627 3.476 16M138 191.984c-3.193 0-6.385-.442-9.47-1.314-4.209-1.19-8.254-3.179-12.593-3.598-1.34-.13-2.673-.119-3.937.325 1.795 2.501 9.593 3.147 12.578 3.788 4.629.994 8.78.8 13.422.8" fill="#E6F1FC"/><path d="M204.191 323.194c-10.431.96-21.326 1.853-31.191-2.292 8.016 3.367 22.694.745 31.178.575 8.38-.168 18.68-2.655 26.822-.782-8.909 1.01-17.875 1.677-26.809 2.5M241.362 338.345c6.755-.456 13.797-.868 19.638 1.602-4.746-2.007-14.388-.636-19.815-.616-5.36.018-12.196 1.352-17.185.202 5.789-.498 11.578-.799 17.362-1.188" fill="#0051BC"/><path d="M131.36 105h-16.72a.647.647 0 00-.64.652v12.696c0 .36.287.652.64.652h16.72c.353 0 .64-.292.64-.652v-12.696a.647.647 0 00-.64-.652" fill="#E5E5E5"/><path d="M131.36 105h-16.72a.647.647 0 00-.64.652v12.696c0 .36.287.652.64.652h16.72c.353 0 .64-.293.64-.652v-12.696a.647.647 0 00-.64-.652" fill="#FFF"/><path d="M129.466 106h-13.932a.547.547 0 00-.534.559v10.882c0 .308.24.559.534.559h13.932c.295 0 .534-.25.534-.56V106.56a.547.547 0 00-.534-.559" fill="#FCE1DE"/><path d="M121.965 112.487v-1.832l1.742.916-1.742.916zM122.5 109a2.501 2.501 0 000 5 2.5 2.5 0 000-5z" fill="#F98"/><path d="M284.36 35h-16.72a.647.647 0 00-.64.652v12.696c0 .36.287.652.64.652h16.72c.353 0 .64-.292.64-.652V35.652a.647.647 0 00-.64-.652" fill="#E5E5E5"/><path d="M283.36 34h-16.72a.647.647 0 00-.64.652v12.696c0 .36.287.652.64.652h16.72c.353 0 .64-.292.64-.652V34.652a.647.647 0 00-.64-.652" fill="#FFF"/><path d="M282.466 35h-13.932a.547.547 0 00-.534.559V46.44c0 .308.24.559.534.559h13.932c.295 0 .534-.25.534-.56V35.56a.547.547 0 00-.534-.559" fill="#FFF1DC"/><path d="M274.966 42.487v-1.832l1.74.916-1.74.916zM275.5 39a2.501 2.501 0 000 5 2.501 2.501 0 000-5z" fill="#FFC965"/><path d="M331.576 100h-37.153c-.785 0-1.423.625-1.423 1.397v27.205c0 .772.638 1.398 1.423 1.398h37.153c.786 0 1.424-.626 1.424-1.398v-27.205c0-.772-.638-1.397-1.424-1.397" fill="#E5E5E5"/><path d="M331.576 100h-37.152c-.786 0-1.424.626-1.424 1.398v27.205c0 .772.638 1.397 1.424 1.397h37.152c.787 0 1.424-.625 1.424-1.397v-27.205c0-.772-.637-1.398-1.424-1.398" fill="#FFF"/><path d="M328.79 102h-31.58a1.21 1.21 0 00-1.21 1.211v23.578a1.21 1.21 0 001.21 1.211h31.58a1.21 1.21 0 001.21-1.211V103.21a1.21 1.21 0 00-1.21-1.211" fill="#E6F4F1"/><path d="M310.717 117.37v-4.398l4.18 2.199-4.18 2.198zm1.284-8.37c-3.312 0-6.001 2.688-6.001 6 0 3.313 2.689 6 6 6a6.001 6.001 0 000-12z" fill="#27C195"/><path d="M346.252 50h-19.504c-.413 0-.748.355-.748.792v15.416c0 .437.335.792.748.792h19.504c.413 0 .748-.355.748-.792V50.792c0-.437-.335-.792-.748-.792" fill="#E5E5E5"/><path d="M346.252 49h-19.504c-.413 0-.748.355-.748.792v15.416c0 .437.335.792.748.792h19.504c.413 0 .748-.355.748-.792V49.792c0-.437-.335-.792-.748-.792" fill="#FFF"/><path d="M345.36 51h-16.72a.647.647 0 00-.64.652v12.696c0 .36.287.652.64.652h16.72c.353 0 .64-.292.64-.652V51.652a.647.647 0 00-.64-.652" fill="#F4D7E0"/><path d="M336.752 58.882v-2.565l2.438 1.282-2.438 1.283zM337.5 54a3.501 3.501 0 000 7 3.501 3.501 0 000-7z" fill="#F54F71"/><path d="M157.004 42h-26.007a.988.988 0 00-.997.978v19.043c0 .54.446.979.997.979h26.007c.55 0 .996-.438.996-.979V42.978a.987.987 0 00-.996-.978" fill="#E5E5E5"/><path d="M157.004 42h-26.007a.988.988 0 00-.997.978v19.043c0 .541.446.979.997.979h26.007c.55 0 .996-.438.996-.979V42.978a.987.987 0 00-.996-.978" fill="#FFF"/><path d="M155.145 43h-22.29a.846.846 0 00-.855.838v16.324c0 .463.382.838.854.838h22.291a.846.846 0 00.855-.838V43.838a.847.847 0 00-.855-.838" fill="#E6C5ED"/><path d="M142.538 54.277V50.98l3.134 1.648-3.134 1.649zm.961-6.277A4.501 4.501 0 00139 52.5c0 2.484 2.016 4.5 4.5 4.5s4.5-2.016 4.5-4.5-2.016-4.5-4.5-4.5z" fill="#D67DEC"/><path d="M101.217 263H80.783c-.433 0-.783.375-.783.838v16.323c0 .464.35.839.783.839h20.434c.433 0 .783-.375.783-.839v-16.323c0-.463-.35-.838-.783-.838" fill="#E5E5E5"/><path d="M101.217 262H80.783c-.432 0-.783.376-.783.838v16.323c0 .463.35.839.783.839h20.434c.433 0 .783-.376.783-.839v-16.323c0-.462-.35-.838-.783-.838" fill="#FFF"/><path d="M99.324 264H81.676a.688.688 0 00-.676.699V278.3c0 .386.303.699.676.699h17.648a.688.688 0 00.676-.699V264.7a.688.688 0 00-.676-.699" fill="#E6F4F1"/><path d="M90.752 272.882v-2.565l2.437 1.282-2.437 1.283zM91.5 268a3.5 3.5 0 10.001 7 3.5 3.5 0 00-.001-7z" fill="#27C195"/><path d="M304.36 258h-16.72a.647.647 0 00-.64.652v12.695c0 .36.287.653.64.653h16.72c.353 0 .64-.293.64-.653v-12.695a.647.647 0 00-.64-.652" fill="#E5E5E5"/><path d="M303.36 258h-16.72a.647.647 0 00-.64.652v12.695c0 .36.287.653.64.653h16.72c.353 0 .64-.293.64-.653v-12.695a.647.647 0 00-.64-.652" fill="#FFF"/><path d="M302.466 259h-13.932a.547.547 0 00-.534.56v10.88c0 .31.24.56.534.56h13.932c.295 0 .534-.25.534-.56v-10.88c0-.31-.24-.56-.534-.56" fill="#FFF1DC"/><path d="M294.965 265.487v-1.832l1.742.916-1.742.916zM295.5 262a2.5 2.5 0 10.002 5.001A2.5 2.5 0 00295.5 262z" fill="#FFC965"/><path d="M155.182 230h-21.363a.83.83 0 00-.819.838v16.323c0 .463.367.839.819.839h21.363a.828.828 0 00.818-.84v-16.322a.828.828 0 00-.818-.838" fill="#E5E5E5"/><path d="M154.181 230H132.82a.83.83 0 00-.819.839v16.322c0 .463.367.839.82.839h21.361a.829.829 0 00.819-.84V230.84a.829.829 0 00-.819-.839" fill="#FFF"/><path d="M152.324 231h-17.648a.688.688 0 00-.676.699v13.603c0 .386.303.698.676.698h17.648a.687.687 0 00.676-.698v-13.603a.688.688 0 00-.676-.699" fill="#F4D7E0"/><path d="M142.752 239.882v-2.564l2.438 1.281-2.438 1.283zM143.5 235a3.5 3.5 0 103.5 3.5c0-1.931-1.568-3.5-3.5-3.5z" fill="#F54F71"/></g></svg>