<svg width="477" height="368" xmlns="http://www.w3.org/2000/svg" xmlns:xlink="http://www.w3.org/1999/xlink"><defs><path id="a" d="M.265 2.568l5.506.173.726-2.243L.299.311z"/><path id="c" d="M.265 2.568l5.506.173.726-2.243L.299.31z"/><path d="M2.544.126C.127.368.278 3.206.364 4.17.551 6.263 1.828 7.847 3.22 7.708c1.389-.14 2.364-1.95 2.178-4.045C5.219 1.656 4.037.117 2.715.117c-.056 0-.114.003-.17.009z" id="e"/><path d="M2.544.126C.127.368.278 3.206.364 4.17.551 6.263 1.83 7.847 3.22 7.708c1.389-.14 2.365-1.95 2.178-4.045C5.219 1.655 4.037.118 2.716.117c-.057 0-.114.003-.172.009z" id="g"/><path d="M2.399.154C.994.296.008 2.125.197 4.24.386 6.356 1.676 7.956 3.08 7.814c1.403-.14 2.39-1.97 2.202-4.087C5.102 1.7 3.906.146 2.572.145c-.058 0-.116.003-.173.01z" id="i"/><path d="M2.399.154C.995.296.008 2.125.197 4.24.385 6.356 1.676 7.956 3.08 7.814c1.403-.14 2.39-1.97 2.202-4.087C5.102 1.7 3.906.146 2.572.146c-.057 0-.116.002-.173.008z" id="k"/><path d="M30.022.149c-4.116.393-7.256 3.89-7.629 8.152-.3-.054-5.1.4-5.332.491-1.494-3.44-5.152-5.967-8.847-5.613C3.537 3.624.116 8.08.59 13.11c.473 5.03 4.663 8.759 9.34 8.312 4.679-.447 8.072-5.18 7.6-10.209-.027-.278 4.73-.681 4.948-.574.72 4.742 4.76 8.183 9.26 7.753 4.679-.446 8.098-4.901 7.626-9.93a9.789 9.789 0 00-.47-2.185l9.847-1.204-.344-2.321L37.89 4.157C36.314 1.698 33.68.112 30.781.112c-.252 0-.505.012-.76.037zm-5.397 9.717c-.36-3.818 2.155-7.194 5.604-7.523 3.45-.33 6.548 2.51 6.907 6.33.359 3.819-2.155 7.194-5.605 7.523a5.822 5.822 0 01-.545.026c-3.224 0-6.021-2.739-6.361-6.356zM8.42 5.372c3.448-.342 6.548 2.512 6.907 6.33.359 3.82-2.154 7.195-5.604 7.525-3.45.329-6.549-2.512-6.907-6.331h-.002c-.96-3.72 1.95-7.161 5.606-7.524z" id="m"/><path d="M30.02.149c-4.115.392-7.254 3.89-7.627 8.153-.3-.055-5.1.398-5.332.49-1.495-3.44-5.152-5.967-8.847-5.613C3.537 3.624.116 8.08.59 13.11c.473 5.03 4.663 8.759 9.34 8.313 4.678-.447 8.072-5.18 7.6-10.21-.027-.278 4.73-.681 4.948-.574.72 4.743 4.759 8.183 9.26 7.753 4.679-.446 8.098-4.901 7.626-9.93a9.825 9.825 0 00-.47-2.185l9.847-1.204-.344-2.321L37.89 4.157C36.314 1.698 33.68.112 30.781.112c-.252 0-.505.012-.76.037zm-5.395 9.717c-.36-3.818 2.155-7.194 5.604-7.523 3.449-.33 6.548 2.51 6.907 6.33.359 3.819-2.155 7.194-5.605 7.523a5.797 5.797 0 01-.545.026c-3.226 0-6.021-2.739-6.361-6.356zM8.42 5.373c3.449-.342 6.549 2.51 6.908 6.33.358 3.82-2.154 7.194-5.604 7.524-3.45.329-6.548-2.512-6.908-6.331-.962-3.721 1.95-7.16 5.604-7.523z" id="o"/><path d="M1.069 3.174s-2.018-.313 2.783 3c3.864 2.419 13.184 4.127 16.215-4.772L21.103.13c-.856.08-7.535 1.094-20.034 3.044z" id="q"/><path d="M.564 4.021c-.11 1.951.947 3.575 2.361 3.628C4.341 7.702 5.58 6.163 5.69 4.21 5.801 2.26 4.743.636 3.33.583L3.258.58C1.872.581.673 2.101.564 4.021z" id="s"/><path d="M.584 4.021c-.11 1.95.946 3.575 2.361 3.628 1.415.053 2.653-1.486 2.764-3.437C5.82 2.26 4.763.636 3.349.582h-.07C1.891.581.691 2.101.583 4.021z" id="u"/></defs><g fill="none" fill-rule="evenodd"><path d="M318.368 17.117c-53.414-5.585-111.653-2.07-166.562 10.294-17.511-8.816-37.997-1.214-59.073 2.581-55.918 10.07-54.836 88.055-85.804 142.126-30.967 54.071 17.12 201.399 88.396 210.655 28.93 3.757 91.67-9.593 105.483-10.47 47.487-.583 88.953-12.949 135.29-49.257 192.285-150.67-212.812-70.782 8.689-23.88 221.5 46.902 185.778-259.861-26.419-282.049" fill="#E8EFFF"/><path d="M113.316 361.118C7.835 319.737-3.098 164.052 40.01 98.518 83.12 32.984 149.04-12.532 245.263 4.511c96.224 17.042 236.742 92.57 203.811 237.582-32.93 145.013-230.276 160.406-335.758 119.025z" fill="#B2D2F9"/><path d="M62.01 157.535c0-.011.011-.023.033-.033l-.011.022c-.01.01-.022.01-.022.01" fill="#252732"/><path d="M97.747 252.479s-20.382 46.937-30.626 51.38c-10.24 4.443-16.402-.669-16.402-.669-.444-.49-2.715-2.114-3.128-2.772-6.91-10.985-7.1-40.437-6.554-46.456.478-5.219-1.714-17.664-1.837-22.902-.026-1.158 13.654-4.293 13.654-4.293-.076 3.888-.17 11.928 2.659 19.858 2.413 6.752 4.045 13.814 4.936 18.161v.004c.532 2.612.795 4.244.795 4.244 1.224-2.121 3.453-3.93 5.377-5.203 1.918-1.27 9.053-18.024 9.053-18.024 7.873-.459 22.073 6.672 22.073 6.672" fill="#FFF"/><path d="M59.47 281.78c-.021-8.01 1.774-12.744 1.774-12.744s-.263-1.634-.797-4.246c-4.165 10.039-2.552 14.809-.977 16.99" fill="#E6F1FC"/><path d="M34.805 202.686c.496 2.27.21 12.056 1.488 16.31 1.275 4.257 2.482 6.315 2.482 6.315l.825 4.45.136.722s9.853-1.724 11.673-3.057c.15-.106.247-.212.276-.315a.242.242 0 00.006-.12s0-.006-.003-.015v-.002a2.152 2.152 0 01.03-.69v-.01c.07-.37.231-.857.602-1.4v-.003h.002c.435-.637 1.154-1.354 2.338-2.044 3.404-1.985 5.886-3.545 6.03-7.233.14-3.686.14-6.1.637-7.519.497-1.415-1.915-6.842-2.552-7.392-.64-.549-2.781.515-2.276 3.988.502 3.477.147 6.456-.561 6.385-.711-.07-1.137-1.986-1.633-4.396-.497-2.415-.282-5.037-.07-6.667.214-1.633 1.844-11.278 1.418-14.47-.426-3.19-.426-3.83-1.771-3.97-1.348-.141-2.373 4.026-2.52 6.67-.117 2.072-.651 8.598-1.321 8.663-.981.1-.414-11.148-.414-13.418 0-2.27-.16-6.062-2.555-5.32-2.024.63-1.49 10.923-1.7 12.909 0 0-.098 4.396-.618 5.342-.52.945-.895-.661-1.039-1.372-.141-.708-.235-6.667 0-8.937.238-2.267.45-4.963-.899-5.318-1.345-.353-2.482 1.066-2.623 6.314-.14 5.248-.472 9.219-.414 10.848.06 1.633-1.36 1.278-1.715-.352-.352-1.633-.496-8.44-1.418-9.08-.922-.638-2.693-.142-2.837 2.766-.141 2.907.496 9.148.996 11.418" fill="#F1C27D"/><path d="M52.854 208.316s-6.828 2.276-5.727 10.5c0 0-2.172-1.687-.71-5.874 1.616-4.626 6.437-4.626 6.437-4.626M52.854 200.607s-3.01-2.154-7.513-2.105c-4.503.05-9.007 4.503-9.007 4.503s7.734-4.894 16.52-2.398" fill="#C2A875"/><path d="M99.133 251.754c-10.068 1.681-16.124.632-19.649-.814-3.43-1.405-4.465-3.185-4.465-3.185 6.189-16.162 19.336-39.062 19.336-39.062.372.456.72 1.038 1.036 1.723 4.578 9.84 3.742 41.338 3.742 41.338" fill="#FFF"/><path d="M99.133 251.754c-10.068 1.681-16.124.632-19.649-.814l15.907-40.524c4.578 9.84 3.742 41.338 3.742 41.338" fill="#FFF"/><path d="M169.014 481.588s7.38 15.838 4.742 35.148c-2.636 19.308-10.957 65.719-10.957 65.719s-11.546 5.566-16.812 2.055c-3.249-10.725-3.412-57.981-8.569-93.402l-4.915-74.777s-.34.325-2.976.19c.123 9.624-.553 17.514-2.992 25.438 0 0-9.48 36.16-22.117 56.17 0 0 7.047 2.522 14.581 19.8 3.264 7.485 5.546 15.36 6.898 23.414l9.956 47.477c-4.185 4.617-14.14 2.6-20.657-6.93 0 0-31.49-54.623-43.427-67.612-11.936-12.99 17.465-115.851 16.984-133.054l24.006 1.731c.73-1.078 1.685-2.124 2.893-3.135 17.202-14.394 58.101-14.552 58.101-14.552s11.059 15.675 11.41 45.64c.35 29.959-12.17 36.51-16.15 70.68" fill="#001550"/><path d="M155.146 257.07s3.1 45.638 7.313 60.147c4.212 14.51 13.34 46.105 15.214 55.233-43.3 25.16-90.834 16.163-90.834 16.163l.561-11.437 4.526-92.05v-.01c-.077-2.184-.604-6.274-1.257-10.82-.355-2.447-.74-5.027-1.117-7.516-.902-5.99-1.723-11.431-1.75-13.151-.26-15.918 3.741-34.475 13.807-46.18 10.064-11.7 56.52-20.066 56.52-20.066s11.235 2.106 16.677 11.76c5.44 9.655 5.62 11.87 6.94 27.285 1.218 14.27 1.134 21.338 1.134 21.338s-10.051-5.371-21 2.601c-2.234 1.625-4.505 3.81-6.734 6.702" fill="#FFF"/><path d="M145.586 264.463s-5.034 9.162-16.735 10.43c-11.701 1.27-12.99-2.827-23.522-.485-4.83 1.074-10.201.674-14.66-.112-.355-2.447-.74-5.027-1.117-7.517 1.177 1.401 2.816 2.637 5.01 2.83 5.386.47 9.128-3.16 14.513-1.987 5.383 1.169 24.105 5.147 36.511-3.16" fill="#EDF2F7"/><path d="M177.674 372.45c-43.3 25.16-90.835 16.163-90.835 16.163l.562-11.437c10.88.46 53.19.817 59.705-20.864 7.488-24.916-.702-42.7.938-61.658 1.636-18.957-10.459-69.854 7.253-84.024 0 0 2.078 43.546-.15 46.44 0 0 3.099 45.638 7.311 60.147 4.213 14.51 13.34 46.105 15.216 55.233" fill="#EDF2F7"/><path d="M145.844 164.052v24.455c-3.395 11.76-34.232 33.204-34.232 33.204l5.756-41.7 28.476-15.959z" fill="#F1C27D"/><path d="M145.844 164.052v24.455c-3.395 11.76-34.232 33.204-34.232 33.204s11.843-9.448 18.673-25.89c2.032-4.893 12.034-19.267 1.323-12.288-4.78 3.115-11.933.99-14.24.263v-3.784l28.476-15.96z" fill="#C2A875"/><path d="M88.01 115.516s-12.992 38.186.783 77.028c10.162 28.659-2.349 47.338-2.349 47.338s31.145-24.16 32.338-41.487l-1.901-22.468s-15.743-22.685-15.034-33c.709-10.314-13.836-27.411-13.836-27.411" fill="#4F3A60"/><path d="M122.867 106.229s-22.056 19.553-23.271 31.227l-12.241-6.686s-7.871-31.331 31.427-35.89c24-4.152 42.567 12.998 44.24 31.489 1.943 20.36 2.38 59.558 6.409 66.229l-8.424-5.144s-19.773 25.13-26.992 34.257c0 0-14.057-8.146-1.102-26.534 8.513-12.082 13.852-31.947 13.852-31.947l-23.898-57.001z" fill="#4F3A60"/><path d="M101.125 163.177c.348 8.538 1.027 14.34 2.193 24.206 3.57 30.196 9.532 24.346 9.532 24.346s4.921-3.81 5.932-13.334l-1.9-22.468s-15.744-22.685-15.035-33c.709-10.314-.722 20.25-.722 20.25" fill="#31183F"/><path d="M97.285 129.353s-.252 11.643 2.52 24.75c2.773 13.107 7.31 22.753 19.659 26.966 12.35 4.212 29.739-12.163 31.503-27.843 1.764-15.682-2.38-22.387-4.284-28.086-8.186-24.509-46.121-21.064-49.398 4.213" fill="#F1C27D"/><path d="M140.011 130.808s-.88-6.082-14.354-2.094l.293 1.815s7.425-4.155 14.061.28M102.129 135.472s.9-7.367 12.572-5.585l.197 1.731s-7.844-1.893-12.769 3.854M116.024 107.81s18.234 17.764 40.288 17.926c0 0-1.789-8.446-8.87-14.841-7.082-6.395-31.409-5.022-28.056-7.346 2.701-1.873-3.362 4.26-3.362 4.26" fill="#4F3A60"/><path d="M123.532 103.915s-17.769 19.832-28.951 27.61l1.935-19.249s6.315-14.726 27.016-8.36" fill="#4F3A60"/><path d="M143.574 323.9l-39.823 27.652c-3.586 2.489-8.556 1.593-11.047-1.993L49.93 287.953c-2.49-3.585-1.593-8.556 1.992-11.046l39.824-27.65c3.585-2.49 8.556-1.593 11.045 1.992l42.776 61.606c2.49 3.586 1.593 8.556-1.992 11.045" fill="#A3A9CE"/><path d="M57.487 289.633a1.558 1.558 0 01-2.152-.442l-2.931-4.45a1.558 1.558 0 01.441-2.151 1.558 1.558 0 012.152.442l2.932 4.45c.47.713.272 1.682-.442 2.151" fill="#E8EFFF"/><path d="M54.732 283.46a1.096 1.096 0 11-1.831 1.206 1.096 1.096 0 011.83-1.206M56.702 274.086a.374.374 0 01.088-.519l3.904-2.766a.373.373 0 01.43.607l-3.903 2.767a.374.374 0 01-.52-.089M58.05 299.234a.374.374 0 01.518.09l2.752 3.914c.118.168.077.401-.09.519a.373.373 0 01-.519-.09l-2.752-3.915a.373.373 0 01.09-.518" fill="#3D4564"/><path d="M135.792 299.743c0-1.626 0-.998-1.879-4.332-3.823 1.404-32.838 12.02-32.838 12.02l.051.252a5559.2 5559.2 0 00-2.413.848s-4.038 2.282-10.357-2.809c-6.319-5.09-7.284-6.846-11.76-8.075-2.883-.79-2.809 3.774.702 6.407 3.51 2.633 3.686 7.636 3.686 7.636s-4.213 2.107-7.548 4.388c-3.335 2.282-1.054 7.723.702 8.075 0 0-.965 5.53 3.861 6.845 0 0-.438 3.687 2.985 4.564l54.808-35.82z" fill="#99A1C4"/><path d="M101.608 324.309c-6.231 13.81-17.146 15.945-17.146 15.945-3.81-.088-3.391-2.72-3.391-2.72-3.423-.878-2.984-4.565-2.984-4.565-4.827-1.317-3.862-6.846-3.862-6.846-1.755-.35-4.037-5.792-.702-8.074s7.548-4.388 7.548-4.388-.175-5.003-3.686-7.636-3.585-7.197-.702-6.407c4.476 1.23 5.441 2.984 11.76 8.075 6.32 5.09 10.357 2.808 10.357 2.808s32.02-11.234 35.844-12.638c2.948-1.081-21.23 24.543-33.036 26.446" fill="#F1C27D"/><path d="M130.177 153.702s-6.286 5.49-13.29.4" fill="#C2A875"/><path fill="#434656" d="M97.729 139.763l6.198.188-.726 2.242-5.506-.172z"/><g transform="translate(97.43 139.453)"><mask id="b" fill="#fff"><use xlink:href="#a"/></mask><path fill="#434656" mask="url(#b)" d="M-119.734 397.287L914.135 250.574 786.095-651.71-247.775-505z"/></g><g transform="translate(97.43 139.453)"><mask id="d" fill="#fff"><use xlink:href="#c"/></mask><path fill="#434656" mask="url(#d)" d="M-9.824 9.673l20.678-2.935L8.986-6.42l-20.677 2.934z"/></g><path d="M130.202 140.316c.186 2.094 1.463 3.677 2.853 3.538 1.39-.14 2.366-1.95 2.179-4.045-.186-2.094-1.464-3.677-2.853-3.537-2.417.242-2.265 3.08-2.18 4.044" fill="#434656"/><g transform="translate(129.837 136.146)"><mask id="f" fill="#fff"><use xlink:href="#e"/></mask><path fill="#434656" mask="url(#f)" d="M-132.702 356.936l920.186-130.58-113.96-803.072-920.187 130.58z"/></g><g transform="translate(129.837 136.146)"><mask id="h" fill="#fff"><use xlink:href="#g"/></mask><path fill="#434656" mask="url(#h)" d="M1.088 12.814l13.384-1.9L12.217-4.98l-13.385 1.9z"/></g><path d="M108.209 143.032c.188 2.116 1.478 3.715 2.882 3.574 1.405-.14 2.39-1.971 2.202-4.087-.188-2.115-1.48-3.715-2.883-3.574-1.404.142-2.39 1.971-2.201 4.087" fill="#434656"/><g transform="translate(108.012 138.792)"><mask id="j" fill="#fff"><use xlink:href="#i"/></mask><path fill="#434656" mask="url(#j)" d="M-116.087 357.552l929.745-131.936-115.145-811.414-929.745 131.937z"/></g><g transform="translate(108.012 138.792)"><mask id="l" fill="#fff"><use xlink:href="#k"/></mask><path fill="#434656" mask="url(#l)" d="M-2.883 12.973l13.523-1.919-2.279-16.06-13.523 1.92z"/></g><path d="M104.875 143.752c-.961-3.722 1.95-7.162 5.605-7.524 3.449-.343 6.548 2.51 6.907 6.33.36 3.82-2.154 7.194-5.604 7.524-3.45.33-6.548-2.512-6.908-6.33m21.809-3.03c-.36-3.82 2.155-7.195 5.604-7.524 3.45-.33 6.549 2.51 6.908 6.33.359 3.819-2.156 7.194-5.605 7.523-3.45.33-6.548-2.51-6.907-6.33m-24.035 3.243c.473 5.03 4.663 8.759 9.34 8.313 4.678-.447 8.072-5.18 7.599-10.21-.026-.277 4.73-.681 4.948-.574.72 4.742 4.76 8.183 9.26 7.753 4.679-.446 8.099-4.901 7.626-9.93a9.825 9.825 0 00-.47-2.185l9.848-1.204-.345-2.321-10.506 1.406c-1.712-2.672-4.675-4.314-7.868-4.009-4.116.393-7.256 3.891-7.628 8.153-.302-.054-5.1.4-5.333.492-1.494-3.44-5.152-5.968-8.847-5.614-4.677.445-8.098 4.9-7.624 9.93" fill="#434656"/><g transform="translate(102.06 130.855)"><mask id="n" fill="#fff"><use xlink:href="#m"/></mask><path fill="#434656" mask="url(#n)" d="M-111.84 373.843l953.006-135.237L723.141-593.11l-953.006 135.238z"/></g><g transform="translate(102.06 130.855)"><mask id="p" fill="#fff"><use xlink:href="#o"/></mask><path fill="#434656" mask="url(#p)" d="M-1.731 27.568l56.313-7.99-3.81-26.858L-1.695.71z"/></g><g transform="translate(113.964 164.585)"><mask id="r" fill="#fff"><use xlink:href="#q"/></mask><path fill="#F9F2E8" mask="url(#r)" d="M-5.54-.722l30.3-6.627 3.754 17.17-30.3 6.627z"/></g><g><path d="M114.511 167.749c.546-.036 4.223-4.156 5.93-4.41 1.706-.254 5.276-1.26 7.267-.677 4.568 1.339 7.31 2.168 7.31 2.168m-8.884 9.97c-8.966 1.276-11.663-6.972-11.663-6.972 4.029 3.963 7.923 3.728 10.91 3.404 6.255-.678 9.63-6.272 9.63-6.272-.953 1.68-.47 8.157-8.877 9.84" fill="#A72F6A"/><path d="M101.162 309.403s30.699-11.234 34.521-12.638c2.95-1.082 14.057-4.459 23.655-5.951 2.854-.442 5.575-.72 7.906-.72 0 0-.003 0-.003-.003-.137-.299-9.093-19.502-10.856-31.283-.003-.004-.003-.008 0-.01-.133-1.756-.2-2.757-.2-2.757 9.107-11.82 18.884-11.736 24.049-10.563.982.22 1.797.484 2.408.712.133.064.267.13.4.197 0 0 6.856 26.747 8.601 42.479 1.587 14.309 3.335 22.644-6.495 25.1-2.99.749-8.232 1.075-14.759 1.275-2.232.067-4.616.12-7.109.172-2.38.05-5.269.235-8.495.523-16.005 1.433-39.008 5.372-50.814 7.275" fill="#FFF"/><path d="M278.07 349.417s-.056 10.152 1.006 14.9c1.063 4.749-2.39 25.194 0 38.47 2.39 13.277 6.64 19.118 6.64 26.818 0 7.701-3.453 30.27-2.125 36.377 1.327 6.108-.212 13.277-1.7 17.26-1.487 3.982-11.576 66.381-11.045 75.675.53 9.293 3.982 10.887 2.654 15.4-1.327 4.514-4.819 4.248-2.675 8.762 2.145 4.514-2.177 6.107-.68 8.763 1.497 2.654 23.536 5.31 29.112 1.858 5.576-3.451 2.124-8.762 3.717-10.356 1.593-1.592 1.859-7.169 0-9.293-1.859-2.124-.328-5.575 1.297-9.559 1.624-3.983-1.625-8.23 0-11.948 1.624-3.717 7.2-42.219 8.527-44.608 1.328-2.39 7.027-9.81 7.967-28.942.65-13.26 10.09-39.274 10.09-39.274s-8.365 50.824-9.162 64.498c-.796 13.675 1.86 19.118 1.062 21.508-.796 2.39-.663 8.895-.398 12.214.266 3.319.398 6.77.133 7.568-.265.796-3.718 3.319-3.32 7.832.4 4.514 4.648 6.771 6.108 10.489 1.46 3.717 22.57 1.46 24.694-4.248 2.124-5.71-.132-7.17 1.46-9.161 1.593-1.992-1.327-4.116-1.46-7.7-.132-3.585 2.124-8.232 2.124-11.551 0-3.319 1.062-11.417 2.39-16.595 1.328-5.178 3.186-23.765 6.373-33.722 3.186-9.957 4.38-16.729 9.957-30.668 5.576-13.94 11.828-80.038 7.507-102.949 0 0-89.048-10.564-100.254 2.182" fill="#3D4564"/><path d="M350.663 201.861s6.195 59.92 16.112 68.546c9.912 8.625 18.646 5.078 18.646 5.078.672-.392 3.798-1.408 4.496-2 11.657-9.872 22.338-42.858 23.863-49.807 1.318-6.027 8.847-20.946 10.845-26.781.442-1.291 2.014-5.736 2.014-5.736-7.412-6.186-13.474-4.366-14.998-4.89-.188-.065-.283-.095-.283-.095l-.076.33c-.036.13-.076.301-.133.51l-.004.013c-.076.283-.166.627-.28 1.035l-.002.004c-.02.064-.04.129-.058.199-.034.107-.068.229-.105.344l-.036.116c-1.296 4.392-4.53 13.678-10.522 21.573-5.108 6.72-9.45 14.066-11.994 18.628l-.002.004c-1.524 2.742-2.4 4.481-2.4 4.481-3.562-5.518-1.66-7.258-2.938-11.82-.73-2.608-5.745-19.61-5.745-19.61-8.672-3.314-26.4-.122-26.4-.122" fill="#039157"/><path d="M383.208 249.145c2.87-8.983 2.538-14.934 2.538-14.934s.876-1.74 2.403-4.482c1.107 12.747-2.399 17.527-4.941 19.416" fill="#047A42"/><path d="M438.995 169.144c-1.363 2.371-4.52 13.455-7.466 17.777-2.943 4.322-5.03 6.204-5.03 6.204l-2.507 4.7-.408.763s-10.445-5.436-12.015-7.58c-.13-.171-.201-.325-.198-.45a.278.278 0 01.037-.137s.002-.007.008-.016v-.004c.034-.068.16-.34.213-.784l.003-.01c.053-.44.045-1.045-.177-1.786v-.004h-.003c-.261-.87-.814-1.93-1.897-3.125-3.114-3.438-5.345-6.07-4.196-10.26 1.151-4.187 2.01-6.896 1.957-8.665-.054-1.765 4.58-6.998 5.49-7.388.914-.39 2.939 1.564 1.137 5.284-1.799 3.724-2.458 7.192-1.639 7.365.823.173 1.981-1.824 3.395-4.354 1.415-2.533 2.106-5.552 2.448-7.457.34-1.909 1.938-13.311 3.55-16.742 1.611-3.428 1.839-4.147 3.398-3.827 1.564.32 1.233 5.362.458 8.38-.604 2.37-2.323 9.882-1.595 10.193 1.065.46 4.426-12.365 5.233-14.912.807-2.548 2.332-6.746 4.757-5.061 2.048 1.424-2.21 12.786-2.679 15.09 0 0-1.453 4.968-1.205 6.214.247 1.246 1.24-.423 1.654-1.17.409-.744 2.633-7.398 3.176-10.03.538-2.628 1.259-5.729 2.898-5.649 1.635.083 2.406 2.078.7 8.018-1.708 5.94-2.746 10.515-3.391 12.323-.646 1.811 1.072 1.917 2.05.214.976-1.707 3.557-9.296 4.819-9.688 1.261-.386 3.073.8 2.2 4.113-.874 3.314-3.808 10.091-5.175 12.461" fill="#997659"/><path d="M416.739 169.048s6.854 4.981 2.696 13.818c0 0 3.037-1.12 2.884-6.34-.17-5.764-5.58-7.478-5.58-7.478M419.478 160.397s4.144-1.348 9.18.308c5.036 1.655 8.507 8.254 8.507 8.254s-6.94-8.242-17.687-8.562" fill="#784931"/><path d="M382.895 206.916c-.245 11.193 0 19.813 0 19.813l-11.273.763c-.044 9.207-1.11 18.78-.661 31.79.478 13.896 6.656 44.233 9.93 66.152 1.719 11.506 2.635 20.696 1.504 23.962-3.285 9.489-13.38 5.124-27.492 5.503-18.214.49-76.355 5.872-76.355 5.872s-2.471-17.58-.281-43.49c2.19-25.91 1.094-54.376 2.554-66.83 1.46-12.456-1.854-11.814-1.854-11.814-11.339-18.068-32.764-23.881-32.764-23.881s12.226-22.787 17.335-29.035c5.108-6.248 6.335-10.386 14.729-17.995 1.375-1.248 5.302-3.047 10.032-4.927l.003-.003c3.606-1.435 7.682-2.913 11.441-4.226a59.998 59.998 0 0125.199-3.128l19.87 1.796.005.003c.368.208 23.987 13.535 28.334 17.13 4.38 3.624 9.984 21.353 9.744 32.545" fill="#039157"/><path d="M368.524 244.764c-1.177-1.338 1.22-19.376-7.247-32.5 0 0 2.559 58.259 2.267 71.396-.296 13.138 8.068 27.334-12.857 41.932-20.922 14.597-38.944 8.203-55.767 5.771-9.881-1.427-15.66-2.349-16.638-11.107-1.718 11.506-.073 35.677.302 40.862 12.116-.691 18.863-2.036 28.38-2.853 16.675-1.364 24.873-1.525 40.961-3.06 26.54-.691 30.418 3.35 34.47-5.809 1.682-5.55-1.623-24.753-3.411-35.918-4.198-26.205-4.434-21.303-5.893-33.759" fill="#047A42"/><path d="M364.929 85.705c.42 2.215-.892 4.851-.892 4.851-5.901 17.09-33.985 47.558-44.462 56.306-10.481 8.752-16.386-9.755-15.083-14.605 2.905-10.794-2.869-12.744-5.774-26.695-1.517-7.291-.456-19.064 7.7-27.947 0 0 0-.003.005-.007.178-.274 5.912-9.08 17.133-11.86 11.398-2.83 20.599-1.042 29.956 4.911 9.123 5.805 9.341 5.326 11.417 15.046" fill="#3D4564"/><path d="M364.929 85.705s2.3 4.86-1.152 14.67c-1.424 4.046-.313 6.61-1.939 10.33-3.186 7.29-7.906 5.77-7.906 5.77s-1.594-29.31 10.997-30.77" fill="#3D4564"/><path d="M299.677 125.085c3.581 11.538 9.946 9.549 9.946 9.549 1.99 19.097-2.785 25.463-2.785 25.463 10.412 12.492 22.87 14.43 30.237 14.275a34.169 34.169 0 004.77-.426 1.642 1.642 0 001.35-1.849c-1.548-11.816 5.196-23.287 5.196-23.287-37.622-5.316-35.983-32.477-35.983-32.477l-2.785-1.99c-6.365-3.979-13.527-.796-9.946 10.742" fill="#997659"/><path d="M318.217 137.419c9.199 10.364 23.036 13.082 31.343 11.16.2-.048.398-.096.59-.148h.004c1.244-.334 2.35-.775 3.278-1.313.298-.174.577-.358.835-.549 1.404-1.042 2.67-2.697 3.736-4.563 2.916-5.12 2.936-10.555 2.478-16.376l-1.125-12.918.004-.091.39-7.301.577-10.773c.1-1.868-.757-3.674-2.3-4.734a.336.336 0 00-.024-.018c-19.853-13.773-43.514-1.312-43.514-1.312s-10.141 33.308 3.728 48.936" fill="#997659"/><path d="M349.56 148.579s.207.012.59-.148h.003c.143-.06.315-.147.51-.27l-1.103.418z" fill="#EF9168"/><path d="M329.117 129.656s12.339-3.908 22.946.253c.567 3.108-2.115 6.022-11.402 5.92-11.472-.127-11.544-6.173-11.544-6.173" fill="#57331F"/><path d="M336.474 99.915l-.114 3.216s-4.207-1.443-8.387.32c-4.178 1.765-4.467 2.606-4.467 2.606l-1.053-1.866s4.03-6.54 14.02-4.276M322.453 85.203s-1.49 8.551-8.424 11.734c0 0-.504 13.907 1.618 21.058h-4.543l-2.541-23.28s8.11-14.393 13.89-9.512" fill="#3D4564"/><path d="M315.647 133.886s.329 16.01 14.814 23.16c2.455 1.212 4.516 3.128 5.702 5.595 1.265 2.632 2.045 6.444.912 11.73a34.11 34.11 0 004.844-.437 1.564 1.564 0 001.285-1.763c-1.585-11.842 5.187-23.361 5.187-23.361s-20.359 4.619-32.744-14.924" fill="#784931"/><path d="M358.652 104.944l-.888 2.212s-1.825-2.757-5.62-3.432c-2.9-.516-4.393.15-4.393.15l-.06-3.018s6.833-2.55 10.96 4.088" fill="#3D4564"/><path d="M348.433 328.925c0 1.901-2.19 2.434-2.19 2.434-1.496.745-4.623-.485-6.448-2.069-1.142-.99-5.149-2.839-7.985-4.08 2.975 1.73 5.916 4.627 8.106 6.634a64.13 64.13 0 005.598 4.577c-1.46 3.601-6.653.82-9.583-1.274-2.391-1.712-8.47-5.609-8.66-5.73.153.15 3.747 3.72 8.51 7.004 4.865 3.357 6.631 3.88 6.631 3.88-.547 2.918-4.014 3.649-8.942 1.641-4.925-2.007-13.32-8.364-13.32-8.364.73 1.672 7.234 8.569 8.694 9.48 1.46.913 1.095 4.267-4.38 2.625-5.474-1.643-11.524-10.233-11.524-10.233s-.818.033-2.143.04c-3.416.01-10.232-.164-15.265-1.573h-.004a21.75 21.75 0 01-1.105-.34c-.198-.065-.39-.134-.577-.207-.255-.099-.488-.236-.737-.307-5.282-1.505-15.506-2.2-15.506-2.2l-.12-3.927 5.933-5.982c-.376-.568 13.59-9.477 13.59-9.477 1.665 1.533 4.566 3.357 8.85 3.215 7.3-.24 18.612 1.219 22.626 2.434 4.015 1.216 12.043 5.72 13.868 7.664 1.825 1.945 6.083 4.135 6.083 4.135" fill="#046334"/><path d="M349.545 327.117c0 1.9-2.19 2.434-2.19 2.434-1.496.744-4.623-.486-6.448-2.07-1.142-.988-5.149-2.838-7.985-4.08 2.974 1.73 5.916 4.628 8.106 6.635a64.13 64.13 0 005.598 4.576c-1.46 3.602-6.653.821-9.583-1.273-2.39-1.712-8.47-5.61-8.66-5.73.152.15 3.747 3.719 8.51 7.003 4.865 3.358 6.631 3.88 6.631 3.88-.548 2.919-4.014 3.65-8.941 1.642-4.927-2.007-13.32-8.365-13.32-8.365.73 1.672 7.233 8.57 8.692 9.481 1.46.913 1.096 4.267-4.379 2.625-5.474-1.643-11.525-10.234-11.525-10.234s-.817.033-2.142.041c-3.416.01-10.232-.165-15.265-1.573h-.004a21.75 21.75 0 01-1.106-.34c-.197-.065-.39-.134-.576-.207-.256-.1-.5-.201-.737-.307-5.868-2.638-7.57-8.153-7.57-8.153l-2.105-3.927-.018-.03c-.376-.568 10.283-8.815 10.283-8.815 1.665 1.533 7.873 2.696 12.157 2.553 7.299-.24 18.612 1.22 22.626 2.435 4.015 1.216 12.043 5.719 13.868 7.664 1.825 1.944 6.083 4.135 6.083 4.135" fill="#997659"/><path d="M297.09 330.676s-.817.032-2.142.04c-3.416.01-10.233-.164-15.266-1.573h-.003c-.38-.106-.749-.22-1.106-.34a15.348 15.348 0 01-1.313-.515c-5.869-2.638-7.57-8.153-7.57-8.153l-2.105-3.926-.019-.029c-.375-.57-6.594-9.956-19.51-25.031-15.247-17.802-20.144-29.98-21.239-36.647-.853-5.208 11.875-29.246 21.145-43.358.003-.008.007-.015.007-.019 2.591-3.945 4.912-7.113 6.584-8.876 0 0 12.853 2.964 20.71 10.843l.003.004c3.146 3.149 5.493 7.087 5.898 11.93 0 0-12.014 24.26-23.692 28.826 0 0 11.21 14.784 14.547 33.76l9.138 19.09c1.664 1.533 4.565 3.358 8.85 3.215 7.299-.24 18.611 1.22 22.626 2.435" fill="#039157"/><path d="M358.406 77.87c-.854 7.843-6.42 14.162-14.658 14.162l2.402-2.08c-9.26 2.585-14.43.823-14.414.826.334.062 3.837-1.437 3.837-1.437-5.264.146-10.583.216-14.66-3.282l5.885-9.594 31.608 1.405z" fill="#3D4564"/></g><g transform="translate(348.75 105.062)"><mask id="t" fill="#fff"><use xlink:href="#s"/></mask><path fill="#3D4564" mask="url(#t)" d="M-12.296 19.432h30.845V-11.2h-30.845z"/></g><g transform="translate(327.586 105.062)"><mask id="v" fill="#fff"><use xlink:href="#u"/></mask><path fill="#3D4564" mask="url(#v)" d="M-12.276 19.432h30.845V-11.2h-30.845z"/></g><g><path d="M348.654 116.648s-6.286 5.49-13.29.4" fill="#784931"/><path d="M415.167 103.633h-22.105a.848.848 0 00-.847.847v16.49c0 .467.38.846.847.846h22.105c.468 0 .847-.38.847-.847V104.48a.847.847 0 00-.847-.847" fill="#E5E5E5"/><path d="M414.68 103.04h-22.104a.848.848 0 00-.847.847v16.488c0 .468.38.847.847.847h22.105c.468 0 .847-.38.847-.847v-16.488a.847.847 0 00-.847-.848" fill="#FFF"/><path d="M412.962 104.453h-18.668a.715.715 0 00-.715.716v13.924c0 .395.32.715.715.715h18.668c.395 0 .716-.32.716-.715V105.17a.716.716 0 00-.716-.716" fill="#FCE1DE"/><path d="M402.855 113.558v-2.65l2.519 1.326-2.519 1.324zm.773-5.043a3.617 3.617 0 000 7.232 3.617 3.617 0 000-7.231z" fill="#F98"/><path d="M157.522 40.87h-25.246a.967.967 0 00-.967.968V60.67c0 .534.433.967.967.967h25.246a.967.967 0 00.967-.967V41.838a.967.967 0 00-.967-.967" fill="#E5E5E5"/><path d="M156.553 39.902h-25.245a.968.968 0 00-.968.968V59.7c0 .535.434.968.968.968h25.245a.968.968 0 00.968-.967V40.87a.968.968 0 00-.968-.968" fill="#FFF"/><path d="M154.59 41.517h-21.32a.817.817 0 00-.816.817v15.902c0 .452.365.818.816.818h21.32a.817.817 0 00.817-.818V42.334a.817.817 0 00-.817-.817" fill="#FFF1DC"/><path d="M143.048 51.916V48.89l2.876 1.512-2.876 1.514zm.882-5.76a4.13 4.13 0 00-4.129 4.13 4.13 4.13 0 008.26 0c0-2.28-1.851-4.13-4.131-4.13z" fill="#FFC965"/><path d="M271.15 45.067h-39.685c-.84 0-1.52.681-1.52 1.521V76.19c0 .84.68 1.521 1.52 1.521h39.686c.84 0 1.521-.68 1.521-1.52V46.587c0-.84-.681-1.521-1.521-1.521" fill="#E5E5E5"/><path d="M270.746 44.662h-39.685c-.84 0-1.521.681-1.521 1.521v29.603c0 .84.68 1.52 1.52 1.52h39.686c.84 0 1.521-.68 1.521-1.52V46.183c0-.84-.68-1.52-1.52-1.52" fill="#FFF"/><path d="M267.66 47.2h-33.514c-.71 0-1.284.575-1.284 1.285v25c0 .708.575 1.284 1.284 1.284h33.515c.709 0 1.284-.576 1.284-1.285V48.485c0-.71-.575-1.284-1.284-1.284" fill="#E6F4F1"/><path d="M249.516 63.547v-4.756l4.521 2.378-4.521 2.378zm1.388-9.054a6.494 6.494 0 00-6.492 6.492 6.494 6.494 0 006.492 6.49 6.494 6.494 0 006.491-6.49 6.494 6.494 0 00-6.491-6.492z" fill="#27C195"/><path d="M254.326 108.842h-49.695a1.905 1.905 0 00-1.904 1.904v37.069c0 1.052.853 1.904 1.904 1.904h49.695a1.904 1.904 0 001.904-1.904v-37.069a1.904 1.904 0 00-1.904-1.904" fill="#E5E5E5"/><path d="M253.362 107.878h-49.695a1.905 1.905 0 00-1.905 1.904v37.068c0 1.053.853 1.905 1.905 1.905h49.695a1.904 1.904 0 001.904-1.905v-37.068a1.904 1.904 0 00-1.904-1.904" fill="#FFF"/><path d="M249.497 111.056h-41.966c-.888 0-1.608.72-1.608 1.609v31.304c0 .887.72 1.607 1.608 1.607h41.966c.889 0 1.609-.72 1.609-1.607v-31.304c0-.889-.72-1.609-1.609-1.609" fill="#F4D7E0"/><path d="M226.776 131.526v-5.957l5.662 2.979-5.662 2.978zm1.738-11.338a8.131 8.131 0 00-8.128 8.128 8.131 8.131 0 008.128 8.129 8.132 8.132 0 008.129-8.129 8.131 8.131 0 00-8.13-8.128z" fill="#F54F71"/><path d="M68.46 117.234H40.272a1.08 1.08 0 00-1.08 1.08v21.025c0 .596.483 1.08 1.08 1.08H68.46a1.08 1.08 0 001.08-1.08v-21.025a1.08 1.08 0 00-1.08-1.08" fill="#E5E5E5"/><path d="M67.84 116.676H39.652a1.08 1.08 0 00-1.08 1.08v21.025c0 .597.483 1.08 1.08 1.08H67.84a1.08 1.08 0 001.08-1.08v-21.025a1.08 1.08 0 00-1.08-1.08" fill="#FFF"/><path d="M65.648 118.48H41.844a.912.912 0 00-.912.911v17.755c0 .504.409.912.912.912h23.804a.912.912 0 00.912-.912v-17.755a.912.912 0 00-.912-.912" fill="#E6C5ED"/><path d="M52.76 130.09v-3.379l3.212 1.69-3.212 1.688zm.986-6.432a4.612 4.612 0 00-4.61 4.611 4.612 4.612 0 004.61 4.61 4.612 4.612 0 000-9.22z" fill="#D67DEC"/><path d="M220.215 219.821h-17.236a.66.66 0 00-.66.66v12.857c0 .365.296.66.66.66h17.236a.66.66 0 00.66-.66v-12.856a.66.66 0 00-.66-.66" fill="#E5E5E5"/><path d="M219.553 219.16h-17.235a.66.66 0 00-.66.66v12.856c0 .365.296.66.66.66h17.235a.66.66 0 00.661-.66V219.82a.66.66 0 00-.66-.66" fill="#FFF"/><path d="M218.213 220.262h-14.555a.558.558 0 00-.558.558v10.857c0 .308.25.558.558.558h14.555c.308 0 .558-.25.558-.558V220.82a.558.558 0 00-.558-.558" fill="#FFF1DC"/><path d="M210.333 227.361v-2.066l1.964 1.033-1.964 1.033zm.603-3.932a2.82 2.82 0 000 5.639 2.82 2.82 0 000-5.64z" fill="#FFC965"/><path d="M468.372 215.546h-28.186a1.08 1.08 0 00-1.08 1.08v21.025c0 .597.483 1.08 1.08 1.08h28.186a1.08 1.08 0 001.08-1.08v-21.025a1.08 1.08 0 00-1.08-1.08" fill="#E5E5E5"/><path d="M467.752 214.988h-28.186a1.08 1.08 0 00-1.08 1.08v21.025c0 .597.483 1.081 1.08 1.081h28.186a1.08 1.08 0 001.08-1.08v-21.026a1.08 1.08 0 00-1.08-1.08" fill="#FFF"/><path d="M465.56 216.791h-23.803a.912.912 0 00-.912.912v17.756c0 .504.408.912.912.912h23.803a.912.912 0 00.913-.912v-17.756a.912.912 0 00-.913-.912" fill="#E6C5ED"/><path d="M452.673 228.402v-3.379l3.21 1.69-3.21 1.689zm.985-6.432a4.612 4.612 0 000 9.221 4.612 4.612 0 004.611-4.61 4.612 4.612 0 00-4.61-4.61z" fill="#D67DEC"/></g></g></svg>