<svg width="454" height="355" xmlns="http://www.w3.org/2000/svg" xmlns:xlink="http://www.w3.org/1999/xlink"><defs><path d="M12.584.142C5.766.142.239 4.8.239 10.545v159.07c0 5.745 5.527 10.402 12.345 10.402h270.055c6.819 0 12.346-4.657 12.346-10.403V10.544c0-5.745-5.527-10.402-12.346-10.402H12.584z" id="a"/><path d="M9.21.175C4.273.175.272 3.778.272 8.224v137.394c0 3.652 2.701 6.734 6.402 7.719a7.312 7.312 0 01-.367-2.284V13.659c0-4.445 4.001-8.049 8.938-8.049h245.18a9.87 9.87 0 012.536.33c-1.093-3.332-4.516-5.765-8.57-5.765H9.21z" id="c"/><path d="M8.962.392C4.037.392.044 4.012.044 8.477v138c0 .796.13 1.565.366 2.292a9.768 9.768 0 002.53.333h244.641c4.926 0 8.92-3.62 8.92-8.085V3.018c0-.797-.13-1.566-.368-2.293a9.743 9.743 0 00-2.53-.333H8.963z" id="e"/><path d="M2.867.075C1.49.097.38 1.063.38 2.252v11.622c0 1.202 1.136 2.176 2.537 2.176h304.772c1.4 0 2.536-.974 2.536-2.176V2.252c0-1.189-1.11-2.155-2.489-2.177H2.867z" id="g"/><path d="M2.916.17C1.515.17.379 1.086.379 2.217v8.277c0 1.13 1.136 2.047 2.537 2.047h304.772c1.4 0 2.536-.917 2.536-2.047V2.217c0-1.13-1.136-2.047-2.536-2.047H2.916z" id="i"/><path d="M.952.074c-.315 0-.57.26-.57.58V11.96c0 .32.255.58.57.58h14.887c.315 0 .57-.26.57-.58V.655c0-.321-.255-.58-.57-.58H.952z" id="k"/><path d="M.92.045c-.297 0-.539.26-.539.58v11.306c0 .32.242.58.54.58h14.06c.297 0 .538-.26.538-.58V.626c0-.321-.241-.58-.538-.58H.92z" id="m"/><path d="M.886.074A.487.487 0 00.41.572v9.69c0 .274.214.498.476.498h12.405a.488.488 0 00.477-.499V.572a.488.488 0 00-.477-.498H.886z" id="o"/><path d="M.124 2.416a2.227 2.227 0 004.453 0 2.227 2.227 0 00-4.453 0zm1.75-.752l1.552.815-1.551.816V1.664z" id="q"/><path d="M1.14.318c-.504 0-.914.441-.914.985v19.17c0 .545.41.986.915.986h23.843c.505 0 .914-.44.914-.985V1.303c0-.544-.409-.985-.914-.985H1.141z" id="s"/><path d="M.923.1C.419.1.009.541.009 1.085v19.171c0 .545.41.986.914.986h23.843c.506 0 .915-.441.915-.986V1.085c0-.544-.41-.985-.915-.985H.923z" id="u"/><path d="M1.034.318c-.446 0-.808.378-.808.844v16.432c0 .467.362.845.808.845H22.07c.446 0 .807-.378.807-.845V1.162c0-.466-.361-.844-.807-.844H1.034z" id="w"/><path d="M.024 4.103A3.777 3.777 0 003.799 7.88a3.776 3.776 0 000-7.55A3.777 3.777 0 00.024 4.102zm2.968-1.276l2.63 1.383-2.63 1.384V2.827z" id="y"/><path d="M1.538.109C.776.109.158.715.158 1.464v26.382c0 .748.618 1.356 1.38 1.356h36.03c.762 0 1.38-.608 1.38-1.356V1.464c0-.749-.618-1.355-1.38-1.355H1.537z" id="A"/><path d="M1.43 0C.668 0 .05.607.05 1.356v26.383c0 .748.618 1.354 1.38 1.354h36.03c.763 0 1.38-.606 1.38-1.354V1.356C38.84.607 38.223 0 37.46 0H1.43z" id="C"/><path d="M1.548.217C.9.217.374.743.374 1.39v22.865c0 .649.526 1.175 1.174 1.175h30.626c.647 0 1.172-.526 1.172-1.175V1.39c0-.648-.525-1.174-1.172-1.174H1.548z" id="E"/><path d="M.274 5.932a5.82 5.82 0 005.818 5.819 5.82 5.82 0 005.819-5.819A5.82 5.82 0 006.092.114 5.821 5.821 0 00.274 5.932zm4.574-1.966l4.053 2.132-4.053 2.131V3.966z" id="G"/><path d="M1.098.12C.697.12.372.464.372.89v14.98c0 .426.325.77.726.77h18.955c.401 0 .726-.344.726-.77V.89c0-.426-.325-.77-.726-.77H1.098z" id="I"/><path d="M.988.01C.587.01.261.354.261.78v14.98c0 .426.326.77.727.77h18.954c.401 0 .727-.344.727-.77V.78c0-.426-.326-.77-.727-.77H.988z" id="K"/><path d="M.89.412c-.363 0-.657.3-.657.67v13.022c0 .37.294.67.657.67h17.15c.363 0 .657-.3.657-.67V1.081a.664.664 0 00-.657-.669H.89z" id="M"/><path d="M.005 3.185A2.917 2.917 0 002.92 6.101a2.916 2.916 0 000-5.831A2.916 2.916 0 00.005 3.185zM2.297 2.2l2.03 1.068-2.03 1.068V2.2z" id="O"/><path d="M1.242.301C.7.301.26.728.26 1.255v18.572c0 .528.44.955.983.955h25.64c.542 0 .982-.427.982-.955V1.255c0-.527-.44-.954-.982-.954H1.242z" id="Q"/><path d="M1.213.272C.67.272.23.7.23 1.226v18.572c0 .528.44.955.983.955h25.64a.969.969 0 00.981-.955V1.226c0-.526-.439-.954-.982-.954H1.213z" id="S"/><path d="M1.112.33c-.455 0-.824.354-.824.788v15.344c0 .434.369.787.824.787h21.504c.456 0 .824-.353.824-.787V1.118c0-.434-.368-.788-.824-.788H1.112z" id="U"/><path d="M.118 4.468A4.454 4.454 0 004.57 8.92a4.454 4.454 0 004.453-4.452A4.454 4.454 0 004.57.016 4.454 4.454 0 00.118 4.468zm3.5-1.505L6.72 4.595l-3.1 1.63V2.964z" id="W"/><path d="M.77.353c-.366 0-.66.316-.66.705v13.728c0 .39.294.706.66.706h17.184c.364 0 .658-.316.658-.706V1.058c0-.39-.294-.705-.658-.705H.769z" id="Y"/><path d="M.75.324a.702.702 0 00-.698.705v13.727c0 .39.313.706.698.706h18.195a.701.701 0 00.698-.706V1.03a.701.701 0 00-.698-.705H.75z" id="aa"/><path d="M.715.353a.628.628 0 00-.634.622v12.113c0 .344.284.622.634.622h16.542c.35 0 .633-.278.633-.622V.975a.628.628 0 00-.633-.622H.715z" id="ac"/><path d="M.284 3.155a3.118 3.118 0 006.234 0 3.117 3.117 0 00-6.234 0zm2.45-1.053l2.17 1.141-2.17 1.142V2.102z" id="ae"/><path d="M.744.374c-.35 0-.634.298-.634.664v12.92c0 .366.285.663.634.663h16.542c.35 0 .633-.297.633-.664V1.038c0-.366-.283-.664-.633-.664H.744z" id="ag"/><path d="M.712.345C.381.345.11.642.11 1.009v12.919c0 .367.27.665.602.665h15.714c.334 0 .603-.298.603-.665V1.009c0-.367-.27-.664-.603-.664H.712z" id="ai"/><path d="M.678.374C.38.374.14.634.14.955V12.26c0 .321.241.58.54.58h14.059c.297 0 .54-.259.54-.58V.955c0-.321-.243-.581-.54-.581H.678z" id="ak"/><path d="M.313 2.73a2.672 2.672 0 105.342 0 2.672 2.672 0 00-5.342 0zm2.1-.902l1.862.979-1.862.978V1.828z" id="am"/><path d="M1.079.126a.9.9 0 00-.888.913v17.764a.9.9 0 00.888.914h23.158a.9.9 0 00.887-.914V1.04a.9.9 0 00-.887-.913H1.079z" id="ao"/><path d="M1.05.097a.9.9 0 00-.888.913v17.764a.9.9 0 00.888.913h23.157a.9.9 0 00.888-.913V1.01a.9.9 0 00-.888-.913H1.05z" id="aq"/><path d="M.98.155C.56.155.22.508.22.943v15.343c0 .436.34.789.76.789h19.85c.42 0 .76-.353.76-.789V.943c0-.435-.34-.788-.76-.788H.98z" id="as"/><path d="M.021 3.862a3.563 3.563 0 007.124 0A3.564 3.564 0 003.582.3a3.563 3.563 0 00-3.56 3.562zm2.8-1.203l2.481 1.304-2.48 1.305v-2.61z" id="au"/><path d="M1.084.192c-.409 0-.74.321-.74.718v13.973c0 .397.331.718.74.718h19.29a.729.729 0 00.74-.718V.91a.728.728 0 00-.74-.718H1.084z" id="aw"/><path d="M.845.383c-.41 0-.74.322-.74.718v13.974c0 .397.33.718.74.718h19.29c.408 0 .74-.321.74-.718V1.1a.728.728 0 00-.74-.718H.845z" id="ay"/><path d="M.773 0a.607.607 0 00-.62.594v11.543c0 .327.277.593.62.593h16.179c.343 0 .62-.266.62-.593V.594a.607.607 0 00-.62-.594H.772z" id="aA"/><path d="M.152 3.445a3.35 3.35 0 006.7 0 3.35 3.35 0 00-6.7 0zm2.634-1.131l2.333 1.228-2.333 1.226V2.314z" id="aC"/><path d="M1.22.246c-.5 0-.907.413-.907.922V19.11c0 .509.407.92.906.92h23.627c.5 0 .905-.411.905-.92V1.168a.914.914 0 00-.905-.922H1.219z" id="aE"/><path d="M1.169.125c-.472 0-.856.413-.856.922v17.94c0 .51.384.924.856.924h22.313c.474 0 .856-.414.856-.923V1.048c0-.51-.382-.923-.856-.923H1.17z" id="aG"/><path d="M.759.246c-.417 0-.756.354-.756.79v15.378c0 .437.339.79.756.79h19.688c.417 0 .755-.353.755-.79V1.036c0-.436-.338-.79-.755-.79H.759z" id="aI"/><path d="M.178 3.832a3.534 3.534 0 007.066 0A3.534 3.534 0 003.71.3 3.534 3.534 0 00.178 3.832zm2.777-1.194l2.462 1.294-2.462 1.295V2.638z" id="aK"/><path d="M9.798.896c-.81 1.818-.85 3.876-1.506 5.752-1.284 3.665-4.7 6.143-7.93 8.385.512.496 1.371.187 2.006-.148l3.997-2.11c2.794-1.475 3.885-4.653 4.909-7.44.301-.82.605-1.654.658-2.524.052-.87-.18-1.797-.815-2.406-.115-.11-.246-.21-.402-.24a.548.548 0 00-.104-.01c-.37 0-.655.39-.813.741z" id="aM"/><path d="M260.899.545c-49.452 3.533-101.795 15.75-149.66 35.15-17.358-4.924-34.726 4.917-53.255 11.536C8.825 64.791 22.6 132.545 3.328 184.508-15.942 236.471 51.915 357.23 118.2 354.087c26.902-1.276 81.724-22.767 94.13-25.701 43.055-7.974 78.705-25.263 114.854-64.171 150.011-161.459-204.983-28.194 3.98-22.165C540.125 248.079 457.352-13.489 260.898.545" id="aO"/><path d="M.375 63.736c0 15.005 4.577 25.108 11.874 31.298l46.197 2.277c9.062-5.849 14.948-16.56 14.948-33.575C73.394 35.376 57.048.25 36.884.25 16.721.25.375 35.375.375 63.736z" id="aQ"/><path d="M48.306.126h-9.111c0 14.534-5.659 15.423-21.528 11.643C-4.689 6.444 2.127 31.71.085 44.98l51.638 10.356 50.766-6.658c-2.04-13.271-3.044-26.395-25.863-29.486C61.916 17.2 55.74 14.66 55.74.126h-7.434z" id="aS"/><path d="M35.975.096H25.066c0 .23-.43 5.535-.43 5.535-1.779 9.796-7.436 10.012-21.087 6.616a23.853 23.853 0 00-3.431-.6c17.874 6.196 29.162 11.526 34.053-3.249.429.039.832.045 1.207.02 1.766-.125 3.99-1.181 6.535-2.787-.248-1.66-.31-3.42-.31-5.535h-5.628z" id="aU"/><path d="M22.781.994C8.29 3.97.168 13.364.234 38.88.29 60.184 15.197 76.023 28.216 76.023c11.899 0 29.009-17.517 29.009-41.907C57.225 11.049 43.888.333 29.182.333a31.85 31.85 0 00-6.4.66z" id="aW"/><path d="M1.162 5.949c-5.458 8.234 12.104 41.205 12.104 41.205 17.133 40.46 13.948 46.084.381 92.146h89.546L92.548 98.036c-.657-9.022-1.778-15.915 1.586-22.71.334-.448.662-.875.985-1.286 0 0 2.003-11.92 10.213-32.357C118.86 8.006 88.022 9.2 85.387 8.468 77.85 16.341 64.472 43.31 64.472 43.31S49.52 12.176 38.222 2.89c0 0-10.333-2.504-20.284-2.504C10.88.386 4.015 1.645 1.162 5.95z" id="aY"/><path id="ba" d="M.177 2.433l10.356 1.47.329-2.092L.505.341z"/><path d="M.11 4.298c-.115 2.212.983 4.054 2.454 4.113 1.47.06 2.757-1.685 2.872-3.897C5.552 2.302 4.453.46 2.982.4a2.625 2.625 0 00-.13-.003C.417.398.163 3.296.11 4.298z" id="bc"/><path d="M.218 4.298C.103 6.511 1.2 8.352 2.67 8.411c1.471.06 2.758-1.685 2.873-3.897C5.66 2.302 4.561.46 3.091.4a1.39 1.39 0 00-.074-.002c-1.44 0-2.686 1.723-2.8 3.9z" id="be"/><path d="M.55.442L.04.78s4.12 3.802 6.34 3.79c2.22-.012 4.593-3.019 4.593-3.019l.643-1.432S6.38 4.568.549.442z" id="bg"/><path d="M9.546.274c-.479.173-.733.688-.763 1.172-.03.483.11.96.181 1.44.36 2.444-1.127 4.812-2.957 6.57-1.831 1.76-4.05 3.142-5.76 5.004.235-.256 2.712-.227 3.213-.338 1.15-.253 2.535-.617 3.48-1.313 1.59-1.169 3.16-3.555 3.985-5.27.888-1.844 1.22-3.996.522-5.91-.25-.684-.862-1.416-1.558-1.417a.998.998 0 00-.343.062z" id="bi"/><path d="M6.191.661c-.842.85-.787 2.24-.866 3.46C5.066 8.095 2.781 11.621.16 14.517a8.79 8.79 0 003.845-1.046c1.113-.598 2.855-4.271 3.38-5.614.827-2.115 1.033-4.512.48-6.73-.06-.243-.135-.495-.31-.666a.7.7 0 00-.499-.191c-.306 0-.637.16-.865.39z" id="bk"/><path d="M3.694.027c-.398.073-.663.462-.788.85-.496 1.532.5 3.214.148 4.786-.245 1.085-1.085 1.918-1.678 2.86a6.888 6.888 0 00-.943 4.834c.046.258 6.55-3.162 6.93-4.47C7.925 6.95 5.71 3.2 5.04 1.324 4.827.727 4.426.014 3.833.014a.777.777 0 00-.139.013z" id="bm"/><path d="M29.438.213h-.031a21.277 21.277 0 01-7.644 7.98c-3.597 2.177-7.754 3.255-11.63 4.908C6.258 14.754.956 17.967.662 22.106c-.47 6.627-.38 13.293.269 19.905.269 2.74.602 5.657-.658 8.116 1.006 1.974 2.702 3.773 4.91 4.187 2.21.413 4.483.157 6.716-.102.456-.053.941-.118 1.285-.416.39-.337.498-.884.564-1.39 1.152-8.794-3.237-17.397-3.513-26.26-.033-1.066.002-2.171.467-3.134.464-.962 1.308-1.686 2.134-2.374 3.149-2.622 6.253-4.816 9.52-7.292 3.404-2.579 5.547-6.404 7.595-10.115.304-.55.615-1.132.597-1.758-.018-.615-.487-1.26-1.109-1.26z" id="bo"/><path d="M.342.375l2.205 32.268C12.92 42.366 30.265 53.906 41.995 59.15c5.232 2.337 10.721 4.602 16.441 4.424 2.384-.074 4.875-.638 6.64-2.256 2.724-2.498 2.97-6.666 2.94-10.38-.09-11.143-.955-22.678-2.563-33.704-5.736.838-11.982-.569-16.469-4.267-1.321 8.317-2.922 16.417-3.917 24.78C31.201 26.52 17.169 13.966 4.198 1.698c-.51.045-.97-.31-1.54-.667C2.122.697 1.49.362.638.362.54.362.442.366.341.375z" id="bq"/><path d="M.823 9.354c-1.179 7.36.033 14.878 1.242 22.232C1.455 21.254 1.852 10.551 3.904.42 1.825 2.764 1.326 6.215.824 9.354z" id="bs"/><path d="M.818 6.932c-.77 2.513.135 5.346-.493 7.632C1.645 9.76 3.405 5.092 4.778.316 2.864 1.966 1.555 4.528.818 6.932z" id="bu"/><path d="M8.52 2.057a33.192 33.192 0 01-8.402.21c4.062.415 7.678.943 11.815.557 2.669-.248 9.548-.07 11.337-1.92-1.066-.472-2.232-.6-3.417-.615a13.294 13.294 0 00-.227-.002c-3.753 0-7.394 1.2-11.106 1.77z" id="bw"/><path d="M29.757 6.797c-4.89 8.107-21.52 39.891-28.162 52.637-3.112 5.974-.526 8.572 2.914 13.536L17.37 91.528l14.37-6.573-8.81-21.225 19.669-17.675C66.435 86.869 77.467 19.447 54.237 1.368c0 0-4.285-1.118-9.406-1.118-5.47 0-11.893 1.275-15.074 6.547z" id="by"/><path d="M3.51 23.97l5.326-2.537L.298.025c-.364 9.33.8 17.1 3.211 23.945z" id="bA"/><path d="M.078 31.28l19.77-17.5c2.544 4.292 4.809 8.174 6.803 11.739 1.167 2.1 2.584 3.777 3.423 6.33 6.967 21.191 7.175 26.278 2.202 48.994-1.543 3.814-3.588 8.8-5.71 13.491 1.37-.085 2.853-.515 3.988-.507.22.002 5.719-2.226 7.855-2.233 5.315-.019 3.514-.733 5.526-2.864.89-.944 1.924-1.668 3.007-2.366 2.162-1.394 3.015-1.845 2.43-4.255-.22-.906-2.635-2.718-3.468-3.244-2.683-1.697-.97-2.78-2.22-4.706-.235-.36-2.055-1.364-3.745-2.177C41.126 49.928 22.683.26 22.683.26L.078 31.28z" id="bC"/><path d="M.372 6.68l25.643 33.903a.07.07 0 00.019.024c2.955 1.764 4.794.267 7.318-.997 4.171-2.087 6.224-1.965 9.544-1.844 1.04.038 2.205.077 3.598.047 2.259-.05 2.087-1.6-.24-2.025-1.425-.26-3.578-.522-5.33-.737-2.604-.323-1.978-1.867-.15-1.774 3.016.153 7.668 1.467 9.789 1.349 1.46-.082 1.874-1.061.117-2.037-1.858-1.03-3.158-1.226-6.297-2.205-2.006-.625-2.214-1.778.332-1.096 3.82 1.024 8.272 3.718 9.585 2.6.77-.654.35-1.178-.816-2.067-2.066-1.575-5.743-3.329-6.57-3.565-1.389-.396-9.738-.608-5.07-2.551.537-.224 1.698-.026 2.924.171.939.152 1.917.302 2.685.264 1.359-.067 2.09-.965.59-2.073-.257-.19-5.06-1.809-7.416-1.75-2.652.065-1.495 3.078-3.13 4.388-.35.28-.876.194-1.935.607-.991.386-.695 2.31-1.95 3.146-1.358.905-1.518.286-2.084 2.465a2.937 2.937 0 01-.26.672L14.791.022.37 6.68z" id="bE"/><path d="M.093 2.56C4.31 14.15 12.258 23.063 22.519 32.403L5.587.028.093 2.56z" id="bG"/><path d="M78.97 36.706c-16.844.662-33.244 1.542-52.66-2.443C6.895 30.28 2.884 14.094 2.884 14.094L.43 20.65c2.604 4.454 3.207 8.481 5.24 12.176 1.191 2.176 2.28 4.389 3.484 6.557 2.78 5.008 4.494 5.008 12.984 8.029 14.231 6.027 59.364.749 62.046.55 1.22-1.539 2.535-3 3.87-4.453.475-.516 4.504-5.052 4.1-5.005 3.425-5.477 4.238-13.161-1.728-38.08.117.715 5.176 35.626-11.455 36.282z" id="bI"/><path d="M43.161 1.057C35.985.374 32.266-.15 28.706.495c-6.615 1.2-19.001.1-25.606 26.71-2.75 11.08-4.768 59.831-.469 69.267 5.627 12.35 4.5 23.166 17.13 25.545 11.317-9.936 2.32-66.915 1.39-69.545-1.13-3.197-1.662-7.202-1.556-11.418 3.415-14.851 8.29-25.915 24.611-27.3 10.658 3.295 18.506 10.984 22.807 18.271.024 8.236 2.687 33.88.816 42.924-2.12 10.252-3.351 10.047-2.164 24.38 5.914 1.757 18.431 3.847 18.431 3.847S87.94 76.01 83.452 50.3c-2.397-11.034-1.776-22.733-6.166-33.133C71.5 3.462 61.574.043 52.47.043c-3.289 0-6.468.445-9.309 1.014z" id="bK"/><path d="M10.924 37.272c-.986-9.174-2.02-18.547-5.209-27.03C4.355 6.622 2.91 2.627.327.422 5.11 11.975 8.535 24.7 10.924 37.271z" id="bM"/><path d="M.018 9.178c-.243 5.135 3.445 9.491 8.222 9.71 4.777.219 8.874-4.064 9.116-9.199.012-.284 4.805-.018 5.01.12.047 4.881 3.625 8.925 8.222 9.137 4.776.218 8.86-3.781 9.102-8.917a9.962 9.962 0 00-.161-2.268l5.902-.433-.325-2.241-6.286.396C37.478 2.547 34.728.469 31.467.319 27.263.127 23.6 3.202 22.616 7.443c-.296-.097-5.139-.318-5.386-.26C16.217 3.505 12.892.436 9.12.264a7.778 7.778 0 00-.375-.01C4.131.254.254 4.177.018 9.179zm8.328 7.47c-3.523-.162-6.238-3.467-6.055-7.366.184-3.899 3.2-6.94 6.723-6.78 3.522.162 6.239 3.467 6.054 7.365-.18 3.802-3.048 6.787-6.454 6.787-.09 0-.178-.002-.268-.007zm22.348.057c-3.523-.162-6.24-3.466-6.055-7.367.184-3.898 3.2-6.94 6.722-6.778 3.523.161 6.24 3.465 6.055 7.365-.18 3.8-3.048 6.786-6.454 6.786a5.56 5.56 0 01-.268-.006z" id="bO"/><path d="M.61.305s-1.68-.52 1.997 2.904C5.6 5.753 13.327 8.372 17.022 1.167l1.042-.954a52.284 52.284 0 00-1.797-.017C13.694.196 8.474.233.61.305z" id="bQ"/></defs><g fill="none" fill-rule="evenodd"><path d="M159.5 14.917c70.705 0 128.021 25.606 128.021 57.193 0 31.587-57.316 57.194-128.02 57.194-70.704 0-128.02-25.607-128.02-57.194" fill="#E8EFFF"/><path d="M261.286 1.1c-49.452 3.532-101.795 15.748-149.66 35.15C94.267 31.324 76.9 41.165 58.37 47.784 9.212 65.345 22.986 133.1 3.715 185.062c-19.27 51.963 48.587 172.722 114.872 169.579 26.902-1.276 81.724-22.766 94.13-25.701 43.055-7.974 78.705-25.263 114.854-64.17 150.011-161.46-204.983-28.195 3.98-22.166C540.512 248.633 457.738-12.935 261.285 1.1" fill="#E8EFFF"/><path d="M416.962 161.277c-5.818 120.034-156.495 141.351-253.764 123.586C65.928 267.097-.026 186.59 42.373 105.823 84.773 25.052 119.003 1.87 204.517 1.61c85.514-.258 218.264 39.63 212.445 159.666" fill="#B2D2F9"/><path d="M113.383 216.084h269.008c7.107 0 12.87-4.855 12.87-10.844V47.053c0-5.989-5.763-10.844-12.87-10.844H113.383c-7.107 0-12.869 4.855-12.869 10.844V205.24c0 5.99 5.762 10.844 12.87 10.844" fill="#2E3140"/><g transform="translate(102.947 33.395)"><mask id="b" fill="#fff"><use xlink:href="#a"/></mask><path fill="#434656" mask="url(#b)" d="M-4.214 184.47h303.651V-4.31H-4.213z"/></g><g transform="translate(117.161 47.61)"><mask id="d" fill="#fff"><use xlink:href="#c"/></mask><path fill="#2E3140" mask="url(#d)" d="M-4.18 157.789h271.593V-4.277H-4.18z"/></g><g transform="translate(123.622 54.07)"><mask id="f" fill="#fff"><use xlink:href="#e"/></mask><path fill="#6471A9" mask="url(#f)" d="M-4.409 153.554h265.361V-4.06H-4.408z"/></g><g transform="translate(93.901 201.815)"><mask id="h" fill="#fff"><use xlink:href="#g"/></mask><path fill="#2E3140" mask="url(#h)" d="M-4.073 20.503h318.749v-24.88H-4.074z"/></g><g transform="translate(93.901 204.4)"><mask id="j" fill="#fff"><use xlink:href="#i"/></mask><path fill="#434656" mask="url(#j)" d="M-4.073 16.993h318.749V-4.283H-4.074z"/></g><g transform="translate(239.491 137.204)"><mask id="l" fill="#fff"><use xlink:href="#k"/></mask><path fill="#E5E5E5" mask="url(#l)" d="M-4.07 16.993h24.932V-4.378H-4.07z"/></g><g transform="translate(239.491 136.342)"><mask id="n" fill="#fff"><use xlink:href="#m"/></mask><path fill="#FFF" mask="url(#n)" d="M-4.07 16.964h24.042V-4.407H-4.071z"/></g><g transform="translate(240.353 137.204)"><mask id="p" fill="#fff"><use xlink:href="#o"/></mask><path fill="#FCE1DE" mask="url(#p)" d="M-4.042 15.212H18.22v-19.59H-4.042z"/></g><g transform="translate(245.091 140.65)"><mask id="r" fill="#fff"><use xlink:href="#q"/></mask><path fill="#FB5C41" mask="url(#r)" d="M-4.328 9.095H9.03V-4.263H-4.328z"/></g><g transform="translate(210.201 94.991)"><mask id="t" fill="#fff"><use xlink:href="#s"/></mask><path fill="#E5E5E5" mask="url(#t)" d="M-6.569 28.254h39.263V-6.478H-6.57z"/></g><g transform="translate(208.909 93.699)"><mask id="v" fill="#fff"><use xlink:href="#u"/></mask><path fill="#FFF" mask="url(#v)" d="M-6.786 28.037h39.262V-6.695H-6.786z"/></g><g transform="translate(210.201 94.991)"><mask id="x" fill="#fff"><use xlink:href="#w"/></mask><path fill="#FFF1DC" mask="url(#x)" d="M-6.569 25.234h36.242V-6.477H-6.569z"/></g><g transform="translate(217.954 101.021)"><mask id="z" fill="#fff"><use xlink:href="#y"/></mask><path fill="#FFC965" mask="url(#z)" d="M-6.772 14.674H14.37V-6.468H-6.772z"/></g><g transform="translate(265.767 159.171)"><mask id="B" fill="#fff"><use xlink:href="#A"/></mask><path fill="#E5E5E5" mask="url(#B)" d="M-4.69 34.05h48.487V-4.74H-4.69z"/></g><g transform="translate(264.905 158.31)"><mask id="D" fill="#fff"><use xlink:href="#C"/></mask><path fill="#FFF" mask="url(#D)" d="M-4.8 33.942H43.69v-38.79H-4.8z"/></g><g transform="translate(267.49 160.033)"><mask id="F" fill="#fff"><use xlink:href="#E"/></mask><path fill="#E6F4F1" mask="url(#F)" d="M-4.474 30.28h42.67V-4.632h-42.67z"/></g><g transform="translate(278.258 166.925)"><mask id="H" fill="#fff"><use xlink:href="#G"/></mask><path fill="#27C195" mask="url(#H)" d="M-4.575 16.6H16.76V-4.736H-4.575z"/></g><g transform="translate(280.843 113.513)"><mask id="J" fill="#fff"><use xlink:href="#I"/></mask><path fill="#E5E5E5" mask="url(#J)" d="M-3.793 20.806h28.737v-24.85H-3.793z"/></g><g transform="translate(279.981 112.651)"><mask id="L" fill="#fff"><use xlink:href="#K"/></mask><path fill="#FFF" mask="url(#L)" d="M-3.903 20.695h28.737v-24.85H-3.903z"/></g><g transform="translate(280.843 113.082)"><mask id="N" fill="#fff"><use xlink:href="#M"/></mask><path fill="#F4D7E0" mask="url(#N)" d="M-3.932 18.938h26.794v-22.69H-3.932z"/></g><g transform="translate(287.734 117.39)"><mask id="P" fill="#fff"><use xlink:href="#O"/></mask><path fill="#F54F71" mask="url(#P)" d="M-4.16 10.265H10v-14.16H-4.16z"/></g><g transform="translate(165.404 67.854)"><mask id="R" fill="#fff"><use xlink:href="#Q"/></mask><path fill="#E5E5E5" mask="url(#R)" d="M-4.193 25.234h36.51V-4.15h-36.51z"/></g><g transform="translate(164.543 66.993)"><mask id="T" fill="#fff"><use xlink:href="#S"/></mask><path fill="#FFF" mask="url(#T)" d="M-4.222 25.205h36.509V-4.18h-36.51z"/></g><g transform="translate(166.266 68.716)"><mask id="V" fill="#fff"><use xlink:href="#U"/></mask><path fill="#E6C5ED" mask="url(#V)" d="M-4.164 21.702h32.057V-4.122H-4.164z"/></g><g transform="translate(174.45 72.593)"><mask id="X" fill="#fff"><use xlink:href="#W"/></mask><path fill="#D67DEC" mask="url(#X)" d="M-4.334 13.373h17.81v-17.81h-17.81z"/></g><g transform="translate(337.27 66.132)"><mask id="Z" fill="#fff"><use xlink:href="#Y"/></mask><path fill="#E5E5E5" mask="url(#Z)" d="M-4.342 19.944h27.406V-4.1H-4.342z"/></g><g transform="translate(335.546 65.27)"><mask id="ab" fill="#fff"><use xlink:href="#aa"/></mask><path fill="#FFF" mask="url(#ab)" d="M-4.4 19.914h28.495V-4.128H-4.4z"/></g><g transform="translate(336.408 66.132)"><mask id="ad" fill="#fff"><use xlink:href="#ac"/></mask><path fill="#E6F4F1" mask="url(#ad)" d="M-4.371 18.163h26.714V-4.099H-4.371z"/></g><g transform="translate(342.438 70.008)"><mask id="af" fill="#fff"><use xlink:href="#ae"/></mask><path fill="#27C195" mask="url(#af)" d="M-4.168 10.724H10.97V-4.414H-4.168z"/></g><g transform="translate(341.577 107.052)"><mask id="ah" fill="#fff"><use xlink:href="#ag"/></mask><path fill="#E5E5E5" mask="url(#ah)" d="M-4.342 19.074h26.714V-4.078H-4.342z"/></g><g transform="translate(341.577 106.19)"><mask id="aj" fill="#fff"><use xlink:href="#ai"/></mask><path fill="#FFF" mask="url(#aj)" d="M-4.342 19.045H21.48V-4.107H-4.342z"/></g><g transform="translate(342.438 107.052)"><mask id="al" fill="#fff"><use xlink:href="#ak"/></mask><path fill="#FFF1DC" mask="url(#al)" d="M-4.313 17.293H19.73V-4.078H-4.313z"/></g><g transform="translate(347.607 110.928)"><mask id="an" fill="#fff"><use xlink:href="#am"/></mask><path fill="#FFC965" mask="url(#an)" d="M-4.139 9.854h14.248V-4.393H-4.14z"/></g><g transform="translate(180.91 150.557)"><mask id="ap" fill="#fff"><use xlink:href="#ao"/></mask><path fill="#E5E5E5" mask="url(#ap)" d="M-4.262 24.169h33.838V-4.326H-4.262z"/></g><g transform="translate(180.05 149.695)"><mask id="ar" fill="#fff"><use xlink:href="#aq"/></mask><path fill="#FFF" mask="url(#ar)" d="M-4.29 24.14h33.837V-4.355H-4.29z"/></g><g transform="translate(181.772 151.418)"><mask id="at" fill="#fff"><use xlink:href="#as"/></mask><path fill="#F4D7E0" mask="url(#at)" d="M-4.232 21.526h30.276V-4.297H-4.232z"/></g><g transform="translate(189.095 155.725)"><mask id="av" fill="#fff"><use xlink:href="#au"/></mask><path fill="#F54F71" mask="url(#av)" d="M-4.431 11.876h16.028V-4.152H-4.431z"/></g><g transform="translate(338.562 153.141)"><mask id="ax" fill="#fff"><use xlink:href="#aw"/></mask><path fill="#E5E5E5" mask="url(#ax)" d="M-3.005 18.951h27.468V-3.158H-3.005z"/></g><g transform="translate(338.13 152.28)"><mask id="az" fill="#fff"><use xlink:href="#ay"/></mask><path fill="#FFF" mask="url(#az)" d="M-3.244 19.143h27.468v-22.11H-3.244z"/></g><g transform="translate(339.423 154.002)"><mask id="aB" fill="#fff"><use xlink:href="#aA"/></mask><path fill="#E6C5ED" mask="url(#aB)" d="M-3.197 16.08h24.12V-3.349h-24.12z"/></g><g transform="translate(345.454 156.587)"><mask id="aD" fill="#fff"><use xlink:href="#aC"/></mask><path fill="#D67DEC" mask="url(#aD)" d="M-3.197 10.145h13.4V-3.254h-13.4z"/></g><g transform="translate(270.074 71.3)"><mask id="aF" fill="#fff"><use xlink:href="#aE"/></mask><path fill="#E5E5E5" mask="url(#aF)" d="M-6.753 27.097h39.57V-6.82h-39.57z"/></g><g transform="translate(270.074 70.008)"><mask id="aH" fill="#fff"><use xlink:href="#aG"/></mask><path fill="#FFF" mask="url(#aH)" d="M-6.753 26.976h38.157V-6.94H-6.753z"/></g><g transform="translate(271.797 71.3)"><mask id="aJ" fill="#fff"><use xlink:href="#aI"/></mask><path fill="#FCE1DE" mask="url(#aJ)" d="M-7.062 24.27h35.33V-6.82h-35.33z"/></g><g transform="translate(278.689 76.9)"><mask id="aL" fill="#fff"><use xlink:href="#aK"/></mask><path fill="#FB5C41" mask="url(#aL)" d="M-6.888 14.432H14.31V-6.766H-6.888z"/></g><g transform="translate(225.708 166.063)"><mask id="aN" fill="#fff"><use xlink:href="#aM"/></mask><path fill="#F1C27D" mask="url(#aN)" d="M-4.09 19.745h20.481V-4.297h-20.48z"/></g><g transform="translate(.387 .554)"><mask id="aP" fill="#fff"><use xlink:href="#aO"/></mask><path d="M192.968 553.148h-6.39s-28.293-84.541-31.162-101.036c-2.868-16.429-35.4-98.31-35.4-98.31L102.87 453.22l.782 106.448-20.808-1.723s.077-2.45.99-7.274c.586-2.869.978-5.933.912-8.54-.195-7.106-7.953-30.106-8.41-47.512-.456-17.342 2.934-47.657 2.934-47.657l-6.455-66.954c-3.716-24.122-1.955-48.764 5.086-72.104 1.434-4.89 3.13-9.714 5.02-14.473l3.39-8.28 63.824 2.738.196.326a169.384 169.384 0 015.411 12.191c8.54 20.602 13.69 42.441 15.386 64.738l8.084 81.231s8.475 20.797 12.256 36.704c7.432 31.88 11.409 61.268 13.56 70.07.457 1.76.522 3.064.392 3.977-.979 5.932-12.452-3.978-12.452-3.978z" fill="#001550" mask="url(#aP)"/><path d="M92.635 554.583s-3.586-1.564-8.802-3.912c.587-2.869.978-5.933.913-8.54-.196-7.106-7.953-30.106-8.41-47.512-.456-17.343 2.934-47.657 2.934-47.657l-6.454-66.954a163.504 163.504 0 015.085-72.104l16.559 2.02s-12.452 51.048-9.714 74.974c2.673 23.925 3.26 45.635 1.043 53.784-2.15 8.15-3.78 16.82 0 23.926 3.847 7.04 2.738 24.447 2.217 35.27-.587 10.887 4.629 56.705 4.629 56.705" fill="#001138" mask="url(#aP)"/><path d="M205.42 557.126c-2.347-3.195-6.822-6.945-7.693-12.388-4.89-30.56-24.057-87.643-21.282-93.594 2.952-6.33-1.3-21.646-3.777-28.556-2.412-6.91-6.69-21.783-8.777-43.819-2.02-21.97-18.71-74.973-18.71-74.973v-1.63l10.561-1.76c8.54 20.602 13.69 42.441 15.386 64.738l8.084 81.231s8.475 20.797 12.256 36.704c7.432 31.88 11.409 61.268 13.56 70.07.457 1.76.522 3.064.392 3.977" fill="#012168" mask="url(#aP)"/></g><g transform="translate(80.548 102.744)"><mask id="aR" fill="#fff"><use xlink:href="#aQ"/></mask><path fill="#31183F" mask="url(#aR)" d="M-4.077 101.764h81.923V-4.203H-4.077z"/></g><g transform="translate(71.934 165.202)"><mask id="aT" fill="#fff"><use xlink:href="#aS"/></mask><path fill="#F1C27D" mask="url(#aT)" d="M-4.367 59.788h111.309V-4.327H-4.368z"/></g><g transform="translate(86.148 164.34)"><mask id="aV" fill="#fff"><use xlink:href="#aU"/></mask><path fill="#C2A875" mask="url(#aV)" d="M-4.334 22.358h50.699V-4.356h-50.7z"/></g><g transform="translate(89.594 91.976)"><mask id="aX" fill="#fff"><use xlink:href="#aW"/></mask><path fill="#F1C27D" mask="url(#aX)" d="M-4.218 80.475h65.895V-4.12H-4.218z"/></g><g transform="translate(59.442 172.955)"><mask id="aZ" fill="#fff"><use xlink:href="#aY"/></mask><path fill="#FFF" mask="url(#aZ)" d="M-4.342 143.753H113.2V-4.067H-4.342z"/></g><g transform="translate(87.871 118.682)"><mask id="bb" fill="#fff"><use xlink:href="#ba"/></mask><path fill="#434656" mask="url(#bb)" d="M-4.276 8.355h19.59V-4.11h-19.59z"/></g><g transform="translate(124.484 121.266)"><mask id="bd" fill="#fff"><use xlink:href="#bc"/></mask><path fill="#3D4564" mask="url(#bd)" d="M-4.35 12.865H9.897V-4.053H-4.35z"/></g><g transform="translate(102.085 121.266)"><mask id="bf" fill="#fff"><use xlink:href="#be"/></mask><path fill="#3D4564" mask="url(#bf)" d="M-4.243 12.865h14.248V-4.053H-4.243z"/></g><g transform="translate(110.27 138.496)"><mask id="bh" fill="#fff"><use xlink:href="#bg"/></mask><path fill="#C2A875" mask="url(#bh)" d="M-4.413 9.022h20.481V-4.335h-20.48z"/></g><g transform="translate(222.262 167.786)"><mask id="bj" fill="#fff"><use xlink:href="#bi"/></mask><path fill="#F1C27D" mask="url(#bj)" d="M-4.206 18.913h20.481V-4.24h-20.48z"/></g><g transform="translate(219.677 169.51)"><mask id="bl" fill="#fff"><use xlink:href="#bk"/></mask><path fill="#F1C27D" mask="url(#bl)" d="M-4.292 18.97h16.919V-4.181h-16.92z"/></g><g transform="translate(211.493 175.109)"><mask id="bn" fill="#fff"><use xlink:href="#bm"/></mask><path fill="#F1C27D" mask="url(#bn)" d="M-4.123 17.823h16.029V-4.439H-4.123z"/></g><g transform="translate(209.77 167.786)"><mask id="bp" fill="#fff"><use xlink:href="#bo"/></mask><path fill="#F1C27D" mask="url(#bp)" d="M-4.18 58.983H35V-4.24H-4.18z"/></g><g transform="translate(158.943 185.447)"><mask id="br" fill="#fff"><use xlink:href="#bq"/></mask><path fill="#FFF" mask="url(#br)" d="M-4.11 68.038h76.58V-4.091H-4.11z"/></g><g transform="translate(158.943 187.17)"><mask id="bt" fill="#fff"><use xlink:href="#bs"/></mask><path fill="#E6F1FC" mask="url(#bt)" d="M-4.11 36.039H8.355V-4.033H-4.111z"/></g><g transform="translate(198.14 223.782)"><mask id="bv" fill="#fff"><use xlink:href="#bu"/></mask><path fill="#E6F1FC" mask="url(#bv)" d="M-4.127 19.016H9.23V-4.136H-4.127z"/></g><g transform="translate(178.757 222.92)"><mask id="bx" fill="#fff"><use xlink:href="#bw"/></mask><path fill="#E6F1FC" mask="url(#bx)" d="M-4.334 7.41h32.057V-4.164H-4.334z"/></g><g transform="translate(26.275 176.401)"><mask id="bz" fill="#fff"><use xlink:href="#by"/></mask><path fill="#FFF" mask="url(#bz)" d="M-6.589-2.43l76.73-2.68 3.46 99.13-76.729 2.68z"/></g><g transform="translate(49.535 239.72)"><mask id="bB" fill="#fff"><use xlink:href="#bA"/></mask><path fill="#E6F1FC" mask="url(#bB)" d="M-4.535-4.262l16.908-.59 1.15 32.927-16.909.59z"/></g><g transform="translate(48.674 209.568)"><mask id="bD" fill="#fff"><use xlink:href="#bC"/></mask><path fill="#E6F1FC" mask="url(#bD)" d="M-5.581-3.208l56.497-1.973 3.597 102.993-56.498 1.973z"/></g><g transform="translate(43.074 260.826)"><mask id="bF" fill="#fff"><use xlink:href="#bE"/></mask><path fill="#F1C27D" mask="url(#bF)" d="M-4.448-3.761l62.295-2.175L59.62 44.79l-62.296 2.175z"/></g><g transform="translate(52.12 260.826)"><mask id="bH" fill="#fff"><use xlink:href="#bG"/></mask><path fill="#C2A875" mask="url(#bH)" d="M-4.594-4.071l30.258-1.057 1.46 41.826-30.257 1.057z"/></g><g transform="translate(68.918 200.522)"><mask id="bJ" fill="#fff"><use xlink:href="#bI"/></mask><path fill="#E6F1FC" mask="url(#bJ)" d="M-4.023 54.743H99.272V-4.028H-4.023z"/></g><g transform="translate(73.657 83.361)"><mask id="bL" fill="#fff"><use xlink:href="#bK"/></mask><path fill="#4F3A60" mask="url(#bL)" d="M-4.31 126.49h94.391V-4.41h-94.39z"/></g><g transform="translate(61.165 177.693)"><mask id="bN" fill="#fff"><use xlink:href="#bM"/></mask><path fill="#E6F1FC" mask="url(#bN)" d="M-5.014-2.915L7.134-5.72 17.75 40.266 5.603 43.07z"/></g><g transform="translate(96.055 116.097)"><mask id="bP" fill="#fff"><use xlink:href="#bO"/></mask><path fill="#434656" mask="url(#bP)" d="M-4.446 23.406h57.881V-4.198h-57.88z"/></g><g transform="translate(108.116 151.418)"><mask id="bR" fill="#fff"><use xlink:href="#bQ"/></mask><path fill="#F9F2E8" mask="url(#bR)" d="M-4.535-3.84l26.649-1.864 1.056 15.1-26.65 1.865z"/></g><g><path d="M118.906 149.16c3.056.244 7.218 2.563 7.218 2.563-6.707 2.178-18.37-.116-17.841-.074.47.038 3.035-2.601 7.019-2.585m2.006 10.045c-7.8-.032-9.069-7.397-9.069-7.397 2.939 3.88 6.287 4.166 8.872 4.263 5.416.204 8.99-4.143 8.99-4.143-1.021 1.313-1.42 6.894-8.793 7.277" fill="#A72F6A"/><path d="M113.33 96.546s17.239 18.01 33.778 20.093c0 0-5.724-9.552-10.47-14.983-4.747-5.43-23.129-6.563-20.406-8.01 2.195-1.165-2.902 2.9-2.902 2.9" fill="#4F3A60"/><path d="M119.312 94.29s-15.102 13.305-24.187 18.149l3.166-14.276s6.05-10.491 21.021-3.872M135.027 116.718s-.34-5.847-12.475-2.805l.128 1.746s6.827-3.542 12.347 1.059M98.873 116.308s2.142-6.13 12.058-2.616l-.145 1.51s-6.536-2.955-11.913 1.106" fill="#4F3A60"/></g></g></svg>